  0
SECTION
  2
HEADER
  9
$ACADVER
  1
AC1024
  9
$ACADMAINTVER
 70
6
  9
$DWGCODEPAGE
  3
ANSI_1252
  9
$LASTSAVEDBY
  1
ezdxf
  9
$INSBASE
 10
0.0
 20
0.0
 30
0.0
  9
$EXTMIN
 10
1e+20
 20
1e+20
 30
1e+20
  9
$EXTMAX
 10
-1e+20
 20
-1e+20
 30
-1e+20
  9
$LIMMIN
 10
0.0
 20
0.0
  9
$LIMMAX
 10
420.0
 20
297.0
  9
$ORTHOMODE
 70
0
  9
$REGENMODE
 70
1
  9
$FILLMODE
 70
1
  9
$QTEXTMODE
 70
0
  9
$MIRRTEXT
 70
1
  9
$LTSCALE
 40
1.0
  9
$ATTMODE
 70
1
  9
$TEXTSIZE
 40
2.5
  9
$TRACEWID
 40
1.0
  9
$TEXTSTYLE
  7
Standard
  9
$CLAYER
  8
0
  9
$CELTYPE
  6
ByLayer
  9
$CECOLOR
 62
256
  9
$CELTSCALE
 40
1.0
  9
$DISPSILH
 70
0
  9
$DIMSCALE
 40
1.0
  9
$DIMASZ
 40
2.5
  9
$DIMEXO
 40
0.625
  9
$DIMDLI
 40
3.75
  9
$DIMRND
 40
0.0
  9
$DIMDLE
 40
0.0
  9
$DIMEXE
 40
1.25
  9
$DIMTP
 40
0.0
  9
$DIMTM
 40
0.0
  9
$DIMTXT
 40
2.5
  9
$DIMCEN
 40
2.5
  9
$DIMTSZ
 40
0.0
  9
$DIMTOL
 70
0
  9
$DIMLIM
 70
0
  9
$DIMTIH
 70
0
  9
$DIMTOH
 70
0
  9
$DIMSE1
 70
0
  9
$DIMSE2
 70
0
  9
$DIMTAD
 70
1
  9
$DIMZIN
 70
8
  9
$DIMBLK
  1

  9
$DIMASO
 70
1
  9
$DIMSHO
 70
1
  9
$DIMPOST
  1

  9
$DIMAPOST
  1

  9
$DIMALT
 70
0
  9
$DIMALTD
 70
3
  9
$DIMALTF
 40
0.03937007874
  9
$DIMLFAC
 40
1.0
  9
$DIMTOFL
 70
1
  9
$DIMTVP
 40
0.0
  9
$DIMTIX
 70
0
  9
$DIMSOXD
 70
0
  9
$DIMSAH
 70
0
  9
$DIMBLK1
  1

  9
$DIMBLK2
  1

  9
$DIMSTYLE
  2
ISO-25
  9
$DIMCLRD
 70
0
  9
$DIMCLRE
 70
0
  9
$DIMCLRT
 70
0
  9
$DIMTFAC
 40
1.0
  9
$DIMGAP
 40
0.625
  9
$DIMJUST
 70
0
  9
$DIMSD1
 70
0
  9
$DIMSD2
 70
0
  9
$DIMTOLJ
 70
0
  9
$DIMTZIN
 70
8
  9
$DIMALTZ
 70
0
  9
$DIMALTTZ
 70
0
  9
$DIMUPT
 70
0
  9
$DIMDEC
 70
2
  9
$DIMTDEC
 70
2
  9
$DIMALTU
 70
2
  9
$DIMALTTD
 70
3
  9
$DIMTXSTY
  7
Standard
  9
$DIMAUNIT
 70
0
  9
$DIMADEC
 70
0
  9
$DIMALTRND
 40
0.0
  9
$DIMAZIN
 70
0
  9
$DIMDSEP
 70
44
  9
$DIMATFIT
 70
3
  9
$DIMFRAC
 70
0
  9
$DIMLDRBLK
  1

  9
$DIMLUNIT
 70
2
  9
$DIMLWD
 70
-2
  9
$DIMLWE
 70
-2
  9
$DIMTMOVE
 70
0
  9
$DIMFXL
 40
1.0
  9
$DIMFXLON
 70
0
  9
$DIMJOGANG
 40
0.785398163397
  9
$DIMTFILL
 70
0
  9
$DIMTFILLCLR
 70
0
  9
$DIMARCSYM
 70
0
  9
$DIMLTYPE
  6

  9
$DIMLTEX1
  6

  9
$DIMLTEX2
  6

  9
$DIMTXTDIRECTION
 70
0
  9
$LUNITS
 70
2
  9
$LUPREC
 70
4
  9
$SKETCHINC
 40
1.0
  9
$FILLETRAD
 40
10.0
  9
$AUNITS
 70
0
  9
$AUPREC
 70
2
  9
$MENU
  1
.
  9
$ELEVATION
 40
0.0
  9
$PELEVATION
 40
0.0
  9
$THICKNESS
 40
0.0
  9
$LIMCHECK
 70
0
  9
$CHAMFERA
 40
0.0
  9
$CHAMFERB
 40
0.0
  9
$CHAMFERC
 40
0.0
  9
$CHAMFERD
 40
0.0
  9
$SKPOLY
 70
0
  9
$TDCREATE
 40
2461133.487997685
  9
$TDUCREATE
 40
2458532.153996898
  9
$TDUPDATE
 40
2461133.487997685
  9
$TDUUPDATE
 40
2458532.1544311
  9
$TDINDWG
 40
0.0
  9
$TDUSRTIMER
 40
0.0
  9
$USRTIMER
 70
1
  9
$ANGBASE
 50
0.0
  9
$ANGDIR
 70
0
  9
$PDMODE
 70
0
  9
$PDSIZE
 40
0.0
  9
$PLINEWID
 40
0.0
  9
$SPLFRAME
 70
0
  9
$SPLINETYPE
 70
6
  9
$SPLINESEGS
 70
8
  9
$HANDSEED
  5
41
  9
$SURFTAB1
 70
6
  9
$SURFTAB2
 70
6
  9
$SURFTYPE
 70
6
  9
$SURFU
 70
6
  9
$SURFV
 70
6
  9
$UCSBASE
  2

  9
$UCSNAME
  2

  9
$UCSORG
 10
0.0
 20
0.0
 30
0.0
  9
$UCSXDIR
 10
1.0
 20
0.0
 30
0.0
  9
$UCSYDIR
 10
0.0
 20
1.0
 30
0.0
  9
$UCSORTHOREF
  2

  9
$UCSORTHOVIEW
 70
0
  9
$UCSORGTOP
 10
0.0
 20
0.0
 30
0.0
  9
$UCSORGBOTTOM
 10
0.0
 20
0.0
 30
0.0
  9
$UCSORGLEFT
 10
0.0
 20
0.0
 30
0.0
  9
$UCSORGRIGHT
 10
0.0
 20
0.0
 30
0.0
  9
$UCSORGFRONT
 10
0.0
 20
0.0
 30
0.0
  9
$UCSORGBACK
 10
0.0
 20
0.0
 30
0.0
  9
$PUCSBASE
  2

  9
$PUCSNAME
  2

  9
$PUCSORG
 10
0.0
 20
0.0
 30
0.0
  9
$PUCSXDIR
 10
1.0
 20
0.0
 30
0.0
  9
$PUCSYDIR
 10
0.0
 20
1.0
 30
0.0
  9
$PUCSORTHOREF
  2

  9
$PUCSORTHOVIEW
 70
0
  9
$PUCSORGTOP
 10
0.0
 20
0.0
 30
0.0
  9
$PUCSORGBOTTOM
 10
0.0
 20
0.0
 30
0.0
  9
$PUCSORGLEFT
 10
0.0
 20
0.0
 30
0.0
  9
$PUCSORGRIGHT
 10
0.0
 20
0.0
 30
0.0
  9
$PUCSORGFRONT
 10
0.0
 20
0.0
 30
0.0
  9
$PUCSORGBACK
 10
0.0
 20
0.0
 30
0.0
  9
$USERI1
 70
0
  9
$USERI2
 70
0
  9
$USERI3
 70
0
  9
$USERI4
 70
0
  9
$USERI5
 70
0
  9
$USERR1
 40
0.0
  9
$USERR2
 40
0.0
  9
$USERR3
 40
0.0
  9
$USERR4
 40
0.0
  9
$USERR5
 40
0.0
  9
$WORLDVIEW
 70
1
  9
$SHADEDGE
 70
3
  9
$SHADEDIF
 70
70
  9
$TILEMODE
 70
1
  9
$MAXACTVP
 70
64
  9
$PINSBASE
 10
0.0
 20
0.0
 30
0.0
  9
$PLIMCHECK
 70
0
  9
$PEXTMIN
 10
1e+20
 20
1e+20
 30
1e+20
  9
$PEXTMAX
 10
-1e+20
 20
-1e+20
 30
-1e+20
  9
$PLIMMIN
 10
0.0
 20
0.0
  9
$PLIMMAX
 10
420.0
 20
297.0
  9
$UNITMODE
 70
0
  9
$VISRETAIN
 70
1
  9
$PLINEGEN
 70
0
  9
$PSLTSCALE
 70
1
  9
$TREEDEPTH
 70
3020
  9
$CMLSTYLE
  2
Standard
  9
$CMLJUST
 70
0
  9
$CMLSCALE
 40
20.0
  9
$PROXYGRAPHICS
 70
1
  9
$MEASUREMENT
 70
1
  9
$CELWEIGHT
370
-1
  9
$ENDCAPS
280
0
  9
$JOINSTYLE
280
0
  9
$LWDISPLAY
290
0
  9
$INSUNITS
 70
6
  9
$HYPERLINKBASE
  1

  9
$STYLESHEET
  1

  9
$XEDIT
290
1
  9
$CEPSNTYPE
380
0
  9
$PSTYLEMODE
290
1
  9
$FINGERPRINTGUID
  2
{D2B0758E-57E1-4D85-A3F6-CFB44C147DFE}
  9
$VERSIONGUID
  2
{C02876C0-C2E2-4AD6-88CF-2C686FC559A2}
  9
$EXTNAMES
290
1
  9
$PSVPSCALE
 40
0.0
  9
$OLESTARTUP
290
0
  9
$SORTENTS
280
127
  9
$INDEXCTL
280
0
  9
$HIDETEXT
280
1
  9
$XCLIPFRAME
280
1
  9
$HALOGAP
280
0
  9
$OBSCOLOR
 70
257
  9
$OBSLTYPE
280
0
  9
$INTERSECTIONDISPLAY
280
0
  9
$INTERSECTIONCOLOR
 70
257
  9
$DIMASSOC
280
2
  9
$PROJECTNAME
  1

  9
$CAMERADISPLAY
290
0
  9
$LENSLENGTH
 40
50.0
  9
$CAMERAHEIGHT
 40
0.0
  9
$STEPSPERSEC
 40
24.0
  9
$STEPSIZE
 40
100.0
  9
$3DDWFPREC
 40
2.0
  9
$PSOLWIDTH
 40
0.005
  9
$PSOLHEIGHT
 40
0.08
  9
$LOFTANG1
 40
1.570796326795
  9
$LOFTANG2
 40
1.570796326795
  9
$LOFTMAG1
 40
0.0
  9
$LOFTMAG2
 40
0.0
  9
$LOFTPARAM
 70
7
  9
$LOFTNORMALS
280
1
  9
$LATITUDE
 40
37.795
  9
$LONGITUDE
 40
-122.394
  9
$NORTHDIRECTION
 40
0.0
  9
$TIMEZONE
 70
-8000
  9
$LIGHTGLYPHDISPLAY
280
1
  9
$TILEMODELIGHTSYNCH
280
1
  9
$CMATERIAL
347
20
  9
$SOLIDHIST
280
0
  9
$SHOWHIST
280
1
  9
$DWFFRAME
280
2
  9
$DGNFRAME
280
2
  9
$REALWORLDSCALE
290
1
  9
$INTERFERECOLOR
 62
256
  9
$CSHADOW
280
0
  9
$SHADOWPLANELOCATION
 40
0.0
  0
ENDSEC
  0
SECTION
  2
CLASSES
  0
CLASS
  1
ACDBDICTIONARYWDFLT
  2
AcDbDictionaryWithDefault
  3
ObjectDBX Classes
 90
0
 91
0
280
0
281
0
  0
CLASS
  1
SUN
  2
AcDbSun
  3
SCENEOE
 90
1153
 91
0
280
0
281
0
  0
CLASS
  1
VISUALSTYLE
  2
AcDbVisualStyle
  3
ObjectDBX Classes
 90
4095
 91
0
280
0
281
0
  0
CLASS
  1
MATERIAL
  2
AcDbMaterial
  3
ObjectDBX Classes
 90
1153
 91
0
280
0
281
0
  0
CLASS
  1
SCALE
  2
AcDbScale
  3
ObjectDBX Classes
 90
1153
 91
0
280
0
281
0
  0
CLASS
  1
TABLESTYLE
  2
AcDbTableStyle
  3
ObjectDBX Classes
 90
4095
 91
0
280
0
281
0
  0
CLASS
  1
MLEADERSTYLE
  2
AcDbMLeaderStyle
  3
ACDB_MLEADERSTYLE_CLASS
 90
4095
 91
0
280
0
281
0
  0
CLASS
  1
DICTIONARYVAR
  2
AcDbDictionaryVar
  3
ObjectDBX Classes
 90
0
 91
0
280
0
281
0
  0
CLASS
  1
CELLSTYLEMAP
  2
AcDbCellStyleMap
  3
ObjectDBX Classes
 90
1152
 91
0
280
0
281
0
  0
CLASS
  1
MENTALRAYRENDERSETTINGS
  2
AcDbMentalRayRenderSettings
  3
SCENEOE
 90
1024
 91
0
280
0
281
0
  0
CLASS
  1
ACDBDETAILVIEWSTYLE
  2
AcDbDetailViewStyle
  3
ObjectDBX Classes
 90
1025
 91
0
280
0
281
0
  0
CLASS
  1
ACDBSECTIONVIEWSTYLE
  2
AcDbSectionViewStyle
  3
ObjectDBX Classes
 90
1025
 91
0
280
0
281
0
  0
CLASS
  1
RASTERVARIABLES
  2
AcDbRasterVariables
  3
ISM
 90
0
 91
0
280
0
281
0
  0
CLASS
  1
ACDBPLACEHOLDER
  2
AcDbPlaceHolder
  3
ObjectDBX Classes
 90
0
 91
0
280
0
281
0
  0
CLASS
  1
LAYOUT
  2
AcDbLayout
  3
ObjectDBX Classes
 90
0
 91
0
280
0
281
0
  0
ENDSEC
  0
SECTION
  2
TABLES
  0
TABLE
  2
VPORT
  5
8
330
0
100
AcDbSymbolTable
 70
1
  0
VPORT
  5
23
330
8
100
AcDbSymbolTableRecord
100
AcDbViewportTableRecord
  2
*Active
 70
0
 10
0.0
 20
0.0
 11
1.0
 21
1.0
 12
0.0
 22
0.0
 13
0.0
 23
0.0
 14
0.5
 24
0.5
 15
0.5
 25
0.5
 16
0.0
 26
0.0
 36
1.0
 17
0.0
 27
0.0
 37
0.0
 40
1000.0
 41
1.34
 42
50.0
 43
0.0
 44
0.0
 50
0.0
 51
0.0
 71
0
 72
1000
 73
1
 74
3
 75
0
 76
0
 77
0
 78
0
281
0
 65
0
146
0.0
  0
ENDTAB
  0
TABLE
  2
LTYPE
  5
2
330
0
100
AcDbSymbolTable
 70
3
  0
LTYPE
  5
24
330
2
100
AcDbSymbolTableRecord
100
AcDbLinetypeTableRecord
  2
ByBlock
 70
0
  3

 72
65
 73
0
 40
0.0
  0
LTYPE
  5
25
330
2
100
AcDbSymbolTableRecord
100
AcDbLinetypeTableRecord
  2
ByLayer
 70
0
  3

 72
65
 73
0
 40
0.0
  0
LTYPE
  5
26
330
2
100
AcDbSymbolTableRecord
100
AcDbLinetypeTableRecord
  2
Continuous
 70
0
  3

 72
65
 73
0
 40
0.0
  0
ENDTAB
  0
TABLE
  2
LAYER
  5
1
330
0
100
AcDbSymbolTable
 70
3
  0
LAYER
  5
27
330
1
100
AcDbSymbolTableRecord
100
AcDbLayerTableRecord
  2
0
 70
0
 62
7
  6
Continuous
370
-3
390
13
347
21
  0
LAYER
  5
28
330
1
100
AcDbSymbolTableRecord
100
AcDbLayerTableRecord
  2
Defpoints
 70
0
 62
7
  6
Continuous
290
0
370
-3
390
13
347
21
  0
LAYER
  5
2F
330
1
100
AcDbSymbolTableRecord
100
AcDbLayerTableRecord
  2
contour_grooves
 70
0
 62
7
  6
Continuous
370
-3
390
13
347
21
  0
ENDTAB
  0
TABLE
  2
STYLE
  5
5
330
0
100
AcDbSymbolTable
 70
1
  0
STYLE
  5
29
330
5
100
AcDbSymbolTableRecord
100
AcDbTextStyleTableRecord
  2
Standard
 70
0
 40
0.0
 41
1.0
 50
0.0
 71
0
 42
2.5
  3
txt
  4

  0
ENDTAB
  0
TABLE
  2
VIEW
  5
7
330
0
100
AcDbSymbolTable
 70
0
  0
ENDTAB
  0
TABLE
  2
UCS
  5
6
330
0
100
AcDbSymbolTable
 70
0
  0
ENDTAB
  0
TABLE
  2
APPID
  5
3
330
0
100
AcDbSymbolTable
 70
3
  0
APPID
  5
2A
330
3
100
AcDbSymbolTableRecord
100
AcDbRegAppTableRecord
  2
ACAD
 70
0
  0
APPID
  5
3E
330
3
100
AcDbSymbolTableRecord
100
AcDbRegAppTableRecord
  2
HATCHBACKGROUNDCOLOR
 70
0
  0
APPID
  5
3F
330
3
100
AcDbSymbolTableRecord
100
AcDbRegAppTableRecord
  2
EZDXF
 70
0
  0
ENDTAB
  0
TABLE
  2
DIMSTYLE
  5
4
330
0
100
AcDbSymbolTable
 70
1
100
AcDbDimStyleTable
  0
DIMSTYLE
105
2B
330
4
100
AcDbSymbolTableRecord
100
AcDbDimStyleTableRecord
  2
Standard
 70
0
 40
1.0
 41
2.5
 42
0.625
 43
3.75
 44
1.25
 45
0.0
 46
0.0
 47
0.0
 48
0.0
 49
2.5
140
2.5
141
2.5
142
0.0
143
0.03937007874
144
1.0
145
0.0
146
1.0
147
0.625
148
0.0
 69
0
 70
0
 71
0
 72
0
 73
0
 74
0
 75
0
 76
0
 77
1
 78
8
 79
3
170
0
171
3
172
1
173
0
174
0
175
0
176
0
177
0
178
0
179
2
271
2
272
2
273
2
274
3
275
0
276
0
277
2
278
44
279
0
280
0
281
0
282
0
283
0
284
8
285
0
286
0
288
0
289
3
290
0
371
-2
372
-2
  0
ENDTAB
  0
TABLE
  2
BLOCK_RECORD
  5
9
330
0
100
AcDbSymbolTable
 70
2
  0
BLOCK_RECORD
  5
17
330
9
100
AcDbSymbolTableRecord
100
AcDbBlockTableRecord
  2
*Model_Space
340
1A
 70
0
280
1
281
0
  0
BLOCK_RECORD
  5
1B
330
9
100
AcDbSymbolTableRecord
100
AcDbBlockTableRecord
  2
*Paper_Space
340
1E
 70
0
280
1
281
0
  0
ENDTAB
  0
ENDSEC
  0
SECTION
  2
BLOCKS
  0
BLOCK
  5
18
330
17
100
AcDbEntity
  8
0
100
AcDbBlockBegin
  2
*Model_Space
 70
0
 10
0.0
 20
0.0
 30
0.0
  3
*Model_Space
  1

  0
ENDBLK
  5
19
330
17
100
AcDbEntity
  8
0
100
AcDbBlockEnd
  0
BLOCK
  5
1C
330
1B
100
AcDbEntity
  8
0
100
AcDbBlockBegin
  2
*Paper_Space
 70
0
 10
0.0
 20
0.0
 30
0.0
  3
*Paper_Space
  1

  0
ENDBLK
  5
1D
330
1B
100
AcDbEntity
  8
0
100
AcDbBlockEnd
  0
ENDSEC
  0
SECTION
  2
ENTITIES
  0
LWPOLYLINE
  5
30
330
17
100
AcDbEntity
  8
contour_grooves
100
AcDbPolyline
 90
532
 70
1
 10
168.18512801931968
 20
236.62260754402834
 10
168.18513224821507
 20
237.43651100502012
 10
169.0252073556241
 20
237.64669708547402
 10
170.53690755066592
 20
236.97873657996155
 10
171.33264633349026
 20
237.3504451434055
 10
172.128508231907
 20
238.937176645176
 10
173.01692135357536
 20
239.31827081628182
 10
174.70796568097649
 20
239.16136984040295
 10
175.20981411632036
 20
238.810015254428
 10
176.0909811540918
 20
238.71738458277832
 10
176.12603741524606
 20
239.21069653977034
 10
175.8209933195626
 20
240.7389408483987
 10
175.86772085400065
 20
241.79148280506976
 10
175.23038506453733
 20
243.45541535642062
 10
175.92489387035687
 20
243.80677152108356
 10
176.88210183457085
 20
244.7431822523007
 10
177.41700086731873
 20
246.3302840502732
 10
179.3484534827023
 20
247.14297906301334
 10
179.91897338961297
 20
247.70329089852916
 10
180.99804783786854
 20
249.47065323029062
 10
180.95570908818405
 20
249.72439901885147
 10
180.46885868437903
 20
250.06191525359546
 10
179.96721278137915
 20
250.83760840048993
 10
179.89043576767588
 20
251.4579951291825
 10
180.27980002686508
 20
254.05705872777008
 10
180.86843074354124
 20
253.94260275510146
 10
180.5461924794523
 20
251.06646347439448
 10
180.94330227377762
 20
250.47036290373492
 10
181.46233739684894
 20
250.12026852854748
 10
181.72311937974703
 20
249.33786025448967
 10
180.44522778696896
 20
247.3812551528785
 10
179.6693877038643
 20
246.60545936281537
 10
177.87952742575595
 20
245.87809841808414
 10
177.38705266338195
 20
244.41408337925105
 10
176.0454213358564
 20
243.1534936008248
 10
176.48024127492846
 20
241.79997079874406
 10
176.42174805691883
 20
240.77629837402435
 10
176.76546293862953
 20
238.65129132695787
 10
176.2249579702141
 20
237.83668442431087
 10
175.52960684739185
 20
238.17713096462703
 10
174.9966262925882
 20
238.21824077211704
 10
174.45622078687765
 20
238.59072048757815
 10
173.1187091700801
 20
238.72118649449243
 10
172.57117552048464
 20
238.5076134270596
 10
172.21629868491772
 20
237.59506660441883
 10
171.72731288965596
 20
236.87648186493138
 10
170.87621822642703
 20
236.44976471038166
 10
170.48860330781315
 20
236.0672658730209
 10
169.88881803332973
 20
236.66859797392502
 10
168.96552384736984
 20
237.00080657043276
 10
168.79098295317195
 20
236.89310001804455
 10
169.06475851606078
 20
235.77841126951682
 10
169.64706232895827
 20
235.615934041141
 10
169.97250139895206
 20
235.2905232973964
 10
169.96689015359962
 20
234.21982322192952
 10
170.73811764275501
 20
233.80493311785472
 10
171.5008749159588
 20
234.5341118628886
 10
172.20013515436875
 20
234.0744993478225
 10
173.21603513570034
 20
233.93908429945955
 10
173.78372917084852
 20
233.18218981206738
 10
173.5793697388152
 20
232.1839868392974
 10
174.2248023764512
 20
231.40222239026687
 10
174.39978107816836
 20
231.47153174453095
 10
174.634343121716
 20
232.16584446708842
 10
174.87001127263235
 20
231.4986850957608
 10
175.61270736452414
 20
231.77566524931862
 10
176.09355193328122
 20
233.24899914192181
 10
177.13677002286533
 20
234.3309711614736
 10
177.37724364981383
 20
235.35415921541053
 10
178.11762611370042
 20
235.79819978543026
 10
179.04902548168724
 20
235.63098623729633
 10
180.17171481986392
 20
236.1541580377466
 10
181.22431587534027
 20
235.92128586319507
 10
181.7818606706667
 20
236.27977174413397
 10
181.7239602621904
 20
237.62543701224226
 10
181.5581442396945
 20
238.09564586386972
 10
180.7874284882743
 20
238.47394736635727
 10
180.4306493715053
 20
238.83066994640654
 10
180.33888995045464
 20
239.1970876688038
 10
180.32187392033856
 20
241.17166101718132
 10
179.87203837457042
 20
242.32235822794257
 10
180.2143496663856
 20
243.00688902162454
 10
180.57157860013464
 20
243.2442289159617
 10
181.82234716117952
 20
243.54690660531045
 10
182.8358172113113
 20
242.59382847428074
 10
183.2172853249354
 20
242.50890591859167
 10
184.575139234166
 20
243.26442851508597
 10
184.825189137328
 20
243.83909018617916
 10
184.93115850612327
 20
244.93254652220074
 10
185.25288469119465
 20
245.4357014745183
 10
184.84185645969373
 20
246.40603281989422
 10
185.13232118437497
 20
246.75457480015132
 10
187.34653210927775
 20
246.89028772533027
 10
187.95840885492558
 20
246.79300612245703
 10
188.5193479149886
 20
246.2813996498172
 10
189.23582363288827
 20
246.14432647627024
 10
189.58997322455343
 20
247.02402375512366
 10
190.06132742086388
 20
247.51175911927697
 10
190.07290529051448
 20
247.96257008305767
 10
191.13793854569698
 20
250.6080568043592
 10
192.72043542052364
 20
252.2004611887435
 10
194.03852568194299
 20
252.85949591180528
 10
194.4867575406494
 20
252.23077000759858
 10
195.58711648376027
 20
252.26375056395455
 10
196.10093747597986
 20
251.7663278897687
 10
196.7807894952565
 20
251.75473739104856
 10
196.78077751854278
 20
250.76059555568605
 10
195.9127410372868
 20
250.3265583625964
 10
195.27742238812755
 20
250.9567787384383
 10
194.4292567112067
 20
251.37390061121258
 10
193.94770331444946
 20
250.2659634624586
 10
193.16815396939725
 20
249.5815858214327
 10
193.25247052946966
 20
249.39047791702558
 10
194.71741576932325
 20
248.9653622630745
 10
193.61235717097472
 20
248.4116885580786
 10
193.17156130443715
 20
247.85120709243884
 10
193.22376893292338
 20
247.0177232623608
 10
194.1336479332324
 20
246.39204216432213
 10
194.67516533533887
 20
245.58546384656327
 10
196.53793016688212
 20
244.9688645405487
 10
196.9243250932958
 20
244.9856528963791
 10
197.37480736393016
 20
245.39200707698066
 10
198.68139105414605
 20
245.28409332490492
 10
199.14005727332537
 20
244.77083662791182
 10
199.48963593793212
 20
244.73407893151258
 10
199.90132850726266
 20
244.93959875988466
 10
200.0783808722056
 20
246.46703332526423
 10
200.37916614226398
 20
246.8279612272708
 10
201.02310640662742
 20
247.0303672781616
 10
201.66836421358383
 20
246.99963461088757
 10
202.41301234793482
 20
246.49928374137193
 10
201.6272693462583
 20
244.1730908419572
 10
200.50070567346816
 20
243.1248240840125
 10
199.72330487362444
 20
242.13633490434952
 10
198.62723952944765
 20
241.4211374466109
 10
197.02878693504687
 20
241.33505311432918
 10
195.50612844027665
 20
240.76529728926883
 10
194.9567796484482
 20
240.80733092036883
 10
194.01299079826575
 20
240.39160266223644
 10
192.97976373275046
 20
240.38236082556827
 10
191.51859528336328
 20
240.08129623810495
 10
191.18075876694
 20
239.6551551584933
 10
190.98959758353902
 20
238.7446522568263
 10
191.1123375805451
 20
238.29435111024958
 10
191.57939581737187
 20
237.82357060214179
 10
193.0753921234702
 20
236.84949618775246
 10
193.1580597753914
 20
236.26075308015103
 10
194.23569445171879
 20
235.2905232973909
 10
194.23569445171879
 20
234.53312399720352
 10
193.58015169687724
 20
233.87754315907438
 10
193.05067115523363
 20
233.74195865009457
 10
192.50876347377968
 20
233.33943333022268
 10
191.58770498782695
 20
233.1848130456721
 10
190.92456129792888
 20
232.14318818658543
 10
191.56592934935603
 20
229.57253236485826
 10
191.33860740210986
 20
227.93974789565428
 10
189.5599952340554
 20
225.51695487680152
 10
189.01815021925734
 20
225.24196588155462
 10
188.24943389395727
 20
224.3696526735798
 10
188.21452851021928
 20
223.62007329593877
 10
189.383393251651
 20
222.9717376376539
 10
189.92431491603483
 20
223.00027046902346
 10
190.8084147642489
 20
222.58141602654726
 10
191.0203264990839
 20
222.65074319457304
 10
192.13796189179732
 20
224.10248494783963
 10
192.69540532192937
 20
225.36773958831472
 10
193.70717416707322
 20
226.08142820827888
 10
194.3246065339109
 20
226.83704542430323
 10
195.27415965132764
 20
226.80623389141323
 10
195.44621871505225
 20
228.6077939267047
 10
195.9996422892007
 20
230.0750838352233
 10
195.91470754866978
 20
230.6320467503155
 10
196.26833208021606
 20
231.33935264630662
 10
197.47745718923912
 20
231.94920040291353
 10
198.18559697116518
 20
231.59507778670633
 10
198.78778750224825
 20
230.9929773481754
 10
199.28433659272542
 20
229.48293704990783
 10
200.2922203807821
 20
228.74398422968707
 10
200.64161435484488
 20
227.6712354744694
 10
201.19023982247248
 20
227.2949156613514
 10
201.63779490201264
 20
227.13051746320792
 10
202.47802779989664
 20
227.11904490675826
 10
203.50204026296583
 20
227.83089064429672
 10
205.18291709669074
 20
227.83084805638288
 10
206.28805633700532
 20
227.46177074255328
 10
208.31737034171346
 20
225.80640805007874
 10
209.71543086171897
 20
225.90255012692427
 10
210.93349152899364
 20
225.5746711721028
 10
211.61348285111617
 20
224.20783845139522
 10
212.26329897398648
 20
223.81030902048192
 10
213.77353960050903
 20
224.1705087756008
 10
214.46094795375993
 20
224.07882108847076
 10
215.5665458136622
 20
222.46362190195097
 10
215.98085602333722
 20
220.97712921579424
 10
216.1083198184868
 20
219.54957620843422
 10
216.59473799511136
 20
219.0397209246221
 10
216.7802207441798
 20
218.51603019215568
 10
216.95629965472662
 20
218.46981683302394
 10
217.59686399390048
 20
219.0571977956926
 10
218.17010621102835
 20
221.04294431923907
 10
218.2921071934381
 20
221.99942926947648
 10
219.20504906814693
 20
224.6254432372939
 10
219.7281351679406
 20
225.2530803199132
 10
220.69899528892208
 20
225.5993324014605
 10
221.74259733538736
 20
226.7480237287536
 10
222.24777872242362
 20
227.05679309252992
 10
222.68875825861278
 20
227.68598299284324
 10
222.81816401285738
 20
228.0543276390217
 10
222.34223946262506
 20
230.057694027187
 10
222.40620848944548
 20
230.70648250748275
 10
222.7521236098498
 20
231.12150108215664
 10
223.91745388392823
 20
231.7507789652117
 10
224.4496412024174
 20
232.8190186747321
 10
225.0489225297937
 20
233.33386669373533
 10
225.30588972932435
 20
234.13414740265648
 10
224.6311323256785
 20
234.12351168340643
 10
224.0507076431829
 20
233.7526545145132
 10
223.45910781798386
 20
233.70247220269493
 10
221.5624852803151
 20
234.11443396899344
 10
221.36606092711907
 20
233.61294368628614
 10
221.27345254633738
 20
232.0615282164929
 10
220.98992177838744
 20
230.96385140849597
 10
220.04114505528634
 20
229.9513342202424
 10
219.4041511284987
 20
229.76926476360737
 10
218.7482836363448
 20
229.87863963772952
 10
217.35253638011676
 20
230.97395171183464
 10
216.26187881471856
 20
230.92160268530174
 10
215.63068801486824
 20
231.2372637410553
 10
215.17257051131878
 20
232.01569510662603
 10
215.02786871176144
 20
232.7344740581625
 10
214.20961590473513
 20
233.93258114656214
 10
213.88566378054503
 20
234.02569480331093
 10
212.92496054111857
 20
233.51514302333598
 10
212.5132520372025
 20
232.0941706323832
 10
212.6852550425997
 20
231.6032064128263
 10
212.49654714562337
 20
231.13152201601233
 10
210.79199803073223
 20
230.54420884785446
 10
210.19995061981223
 20
230.48498320503253
 10
209.49729453554508
 20
230.67239374692355
 10
209.20439641901135
 20
232.03329063639745
 10
208.61291046196038
 20
233.01039972614583
 10
208.5348580277154
 20
233.69193307054633
 10
209.01513450670285
 20
234.68508458125672
 10
208.9006459948722
 20
236.6283483297319
 10
208.47281212643767
 20
237.47709310130233
 10
207.52163878935207
 20
238.12077526660713
 10
206.77500054543725
 20
238.31428483342285
 10
206.4071149998422
 20
237.52776590728388
 10
205.77781026589756
 20
237.05555208819922
 10
204.7770585163739
 20
236.90586871758774
 10
204.7666692741933
 20
236.7258829950261
 10
205.21178423036076
 20
236.27633425848197
 10
204.89695903944505
 20
235.0162351313986
 10
203.98519903836657
 20
234.10224812706306
 10
203.63049597824082
 20
235.16633510388272
 10
203.81641687023114
 20
236.36966496535806
 10
204.7220862559246
 20
236.91135529181153
 10
203.88368834372156
 20
237.50613703047244
 10
203.5618815263159
 20
238.1496616522413
 10
203.56327884688
 20
239.31240814715883
 10
203.86985207300933
 20
239.9250759290992
 10
204.91490366205292
 20
240.87146716555242
 10
204.17251530952396
 20
242.8673311061127
 10
204.51504870729912
 20
243.32406107066345
 10
205.29624031922714
 20
243.06367193488057
 10
206.15147910953237
 20
242.37475768470435
 10
206.52895903391374
 20
242.44423770224603
 10
206.6100648325406
 20
242.7365647625921
 10
206.29649824236228
 20
243.3698240929729
 10
207.0461500493022
 20
244.11946198679706
 10
207.92515754061918
 20
244.11946564236322
 10
208.27993500597844
 20
242.96630851318147
 10
208.85514743736792
 20
243.0886352179027
 10
209.4867332853103
 20
243.51529594374512
 10
209.72469523418772
 20
243.8760642326319
 10
209.68514583114504
 20
244.21259284722595
 10
209.1683448408886
 20
245.1663901959272
 10
207.95606569689258
 20
245.63666414734732
 10
207.36605930434317
 20
246.81770745682002
 10
207.4644091246297
 20
247.9404321267465
 10
207.6933996916713
 20
248.62754014336167
 10
208.72673849247872
 20
248.84969601434813
 10
209.8262841440482
 20
248.3563171421774
 10
210.6267370770921
 20
248.38005707345667
 10
211.03719915472027
 20
248.88785474244676
 10
212.03182346565504
 20
249.4962578675803
 10
212.30923252695663
 20
250.0188209260956
 10
212.46971150675824
 20
253.28179149925384
 10
213.578384685632
 20
253.28179149925384
 10
213.5813180382587
 20
252.25962243669804
 10
213.83500931519757
 20
252.12629433134475
 10
214.08229128326403
 20
252.2434473768115
 10
215.0237119687068
 20
254.0725515871259
 10
215.6054629081728
 20
253.92711385225414
 10
215.4581281836027
 20
253.33768397447
 10
214.96370895132233
 20
252.82200154055815
 10
214.52333172650614
 20
251.72345981192623
 10
213.78757271174368
 20
251.478191369046
 10
213.09553973623198
 20
251.59366364354418
 10
212.88663637565972
 20
249.83092302503508
 10
212.48145599662902
 20
249.08258168960492
 10
211.4573173363169
 20
248.42371369071617
 10
210.86781021917068
 20
247.77179779589366
 10
209.613468940606
 20
247.7691027678692
 10
208.6945648058734
 20
248.23503918503312
 10
208.1719094147431
 20
248.1463164392547
 10
208.01270594607635
 20
246.89650262835127
 10
208.44458360875242
 20
246.06638264714383
 10
208.7759657207477
 20
245.90377464866944
 10
209.3505129498112
 20
245.90102070365305
 10
209.65373832607636
 20
245.5222798470742
 10
210.25826460100416
 20
244.42241584702683
 10
210.37002605729964
 20
243.75197572762542
 10
209.93314728623278
 20
243.09890856087418
 10
208.77005900126932
 20
242.43764283791688
 10
208.1240589095079
 20
242.314462189126
 10
207.68064661427806
 20
242.60986215964118
 10
207.31810487616164
 20
243.48106441501545
 10
207.05981874481728
 20
243.23865673683835
 10
207.21567358388128
 20
242.87238243592515
 10
207.2124550509364
 20
242.10548666752504
 10
206.11742354384
 20
241.72031759171222
 10
205.21625198754208
 20
242.2860341404594
 10
205.0381795751492
 20
242.25787366066007
 10
205.58700372856225
 20
240.69980316239455
 10
204.38000093454903
 20
239.5869993908984
 10
204.17755936822763
 20
239.19932840335247
 10
204.16236789220864
 20
238.31278196878753
 10
204.33111681018403
 20
237.95247454841683
 10
205.10482111413333
 20
237.52844838328264
 10
205.51045108924936
 20
237.6087427527026
 10
205.89153540495292
 20
237.8993746539707
 10
206.54679709166552
 20
239.09819463397565
 10
207.82048347575653
 20
238.66273762788484
 10
208.92088737581216
 20
237.9349119832956
 10
209.50625474621313
 20
236.76416600306797
 10
209.62909979936288
 20
234.62986153037028
 10
209.1612008480216
 20
233.5960834921575
 10
209.18658355095187
 20
233.2792784200288
 10
209.78738315262723
 20
232.19508868675697
 10
209.93234182336332
 20
231.23303430396527
 10
210.2357584321268
 20
231.09687442382418
 10
211.94379867398166
 20
231.53317849390027
 10
211.96515089644006
 20
231.7246259901058
 10
211.53538870806125
 20
232.15882534072176
 10
212.02435970344078
 20
232.50884231984327
 10
212.33402453489776
 20
233.76152560299488
 10
212.58407143068985
 20
234.0532267827751
 10
213.7327089184381
 20
234.6686582917314
 10
214.6428906554585
 20
234.35623931308186
 10
215.58838348886482
 20
233.02602776314166
 10
215.74715188660375
 20
232.21658309885402
 10
216.018993905197
 20
231.7175931643686
 10
216.42500641767055
 20
231.52208733110626
 10
217.39030450456556
 20
231.60506423891232
 10
218.0282027742379
 20
231.34969992823156
 10
218.98879075157404
 20
230.4600659884737
 10
219.34923193356641
 20
230.38714505154186
 10
219.77522390027636
 20
230.51336563489744
 10
220.4292630181644
 20
231.23300707674585
 10
220.68314197753222
 20
232.17639831502984
 10
220.7572078721465
 20
233.67829639898244
 10
221.27077868017267
 20
234.81694191270375
 10
223.4434427837037
 20
234.30402421026952
 10
223.89782749651803
 20
234.34759782523554
 10
224.3513111675471
 20
234.6860032810201
 10
225.6448928511381
 20
234.78744769291112
 10
226.10052921045627
 20
234.17994896769233
 10
225.54158815537616
 20
232.948489547416
 10
224.90800643817133
 20
232.41540007006301
 10
224.43884490078045
 20
231.43711403914352
 10
224.14374768336862
 20
231.0931406669828
 10
223.41740562376015
 20
230.82122754313718
 10
222.99753059699106
 20
230.4745287808984
 10
223.10021676207833
 20
229.11685133173452
 10
223.47643740736234
 20
228.04008016032222
 10
223.21666301470916
 20
227.3907365395116
 10
222.64149812429022
 20
226.59056152611683
 10
222.10482379160135
 20
226.2617220475436
 10
221.11911347054937
 20
225.13519134974072
 10
220.0677036691589
 20
224.71208347949613
 10
219.74799292465175
 20
224.33898066035147
 10
218.88465250475576
 20
221.87030467777035
 10
218.73870898883789
 20
220.8010716690857
 10
218.3513420472012
 20
219.8465985991404
 10
218.12800757105128
 20
218.72206186193034
 10
216.80348012639888
 20
217.64357684785483
 10
215.53888753065414
 20
219.24750215805219
 10
215.130206517361
 20
221.87579401025292
 10
214.78574448731786
 20
222.26347434982978
 10
214.68069488860235
 20
222.81570702649634
 10
214.13819460192065
 20
223.49844059015007
 10
213.77521518133258
 20
223.5555701618324
 10
212.22450983797359
 20
223.13086396865162
 10
211.20006268289245
 20
223.74550552232517
 10
210.50832114455656
 20
225.08090848983483
 10
209.71543086171897
 20
225.28788183095153
 10
208.06418612143466
 20
225.1951672717142
 10
206.17626769366788
 20
226.81518624968348
 10
205.09317248118728
 20
227.22762455432226
 10
203.722291713701
 20
227.2248340565294
 10
202.67223189811548
 20
226.51858723656377
 10
201.51316851071303
 20
226.5327482419844
 10
200.93426545565032
 20
226.74971942953493
 10
200.09000638089512
 20
227.38683300073131
 10
199.79871342208665
 20
228.33626039229037
 10
198.77054055273925
 20
229.14414191513876
 10
198.24123024466914
 20
230.6835218873777
 10
197.55771425512458
 20
231.23158735699025
 10
196.71339538892616
 20
230.8486301017125
 10
196.55394183050856
 20
230.5674875919348
 10
196.61765303824146
 20
230.06151941140197
 10
196.037060558468
 20
228.49959296806583
 10
195.78125975123052
 20
226.37705276534612
 10
195.62017578705328
 20
226.15587414116146
 10
194.55383689194136
 20
226.15855286958228
 10
194.1568066980207
 20
225.6677520302864
 10
193.14777037686244
 20
224.945564302541
 10
192.6708270944314
 20
223.82011736914973
 10
191.4910987797485
 20
222.22560199115946
 10
190.90088627737202
 20
221.8883553384191
 10
189.82515353954722
 20
222.3783085913025
 10
189.3066849800061
 20
222.35499265258645
 10
188.72488547460745
 20
222.59031792519562
 10
187.656210579723
 20
223.2963380762984
 10
187.52039966834306
 20
223.97525059164968
 10
187.67873034823765
 20
224.60840719112278
 10
188.66513905690326
 20
225.73870172280388
 10
189.16208748119843
 20
226.00285508657547
 10
190.33032790952578
 20
227.75349696050938
 10
190.76452653969287
 20
228.14937163782443
 10
190.95804972056078
 20
229.58127498398076
 10
190.59371455575422
 20
231.25972352871437
 10
190.19943288659834
 20
232.13823390878773
 10
191.1978594368733
 20
233.68143243544768
 10
192.32536195073183
 20
233.95484696082465
 10
192.7863823880416
 20
234.29722155556115
 10
193.28213759396107
 20
234.431277131383
 10
193.63298953553857
 20
234.81444718402432
 10
193.5919377606561
 20
235.08600257944065
 10
192.6883143895848
 20
235.85449692215383
 10
192.46789606877812
 20
236.566413157771
 10
191.2089203073902
 20
237.34199939657765
 10
190.6395716810603
 20
237.91235277212556
 10
190.37069751139128
 20
238.72111362196435
 10
190.60126002074597
 20
239.86757242183893
 10
191.28516500476553
 20
240.65956901173482
 10
192.8631197470655
 20
240.97851251791226
 10
193.84946201323743
 20
240.99785276886686
 10
196.94397651392558
 20
241.9379415167924
 10
198.42205718300337
 20
242.01383439815876
 10
199.35615831649193
 20
242.6308112703209
 10
200.0347400388512
 20
243.50738658682255
 10
200.8434330753441
 20
244.15376413893856
 10
201.6965118825689
 20
245.97619312265604
 10
201.7120729800111
 20
246.22820480705855
 10
201.47210686572572
 20
246.40300191697517
 10
200.74474455468766
 20
246.30142391167067
 10
200.471192541837
 20
244.72592964116498
 10
200.24498373832543
 20
244.33039943356505
 10
199.5717105040901
 20
244.128495244317
 10
198.89573059515098
 20
244.16225647751745
 10
198.28987150747852
 20
244.74107032965367
 10
197.6561305507492
 20
244.78930216080047
 10
197.0807588723233
 20
244.36818029164303
 10
196.43231336423528
 20
244.3682167398788
 10
194.22771440078566
 20
245.11066728322746
 10
193.74276870238106
 20
245.92276602570962
 10
192.63048796458457
 20
246.7229222156459
 10
192.57216465306695
 20
247.92215296769936
 10
192.91378044149684
 20
248.64707447329502
 10
192.28854836212918
 20
249.41883767534657
 10
193.4115117079222
 20
250.61832222756345
 10
193.91853978467327
 20
251.84257920518436
 10
193.83739112999314
 20
252.02698127819087
 10
193.1234260696774
 20
251.72843700219153
 10
191.64604887566077
 20
250.26404936293287
 10
190.67851232176693
 20
247.826745123314
 10
190.6725681992285
 20
247.2585748989964
 10
190.15048800165687
 20
246.7324700501446
 10
190.03149661507237
 20
246.2464707368122
 10
189.47327396201857
 20
245.46319336550332
 10
188.17470156454866
 20
245.76331537306604
 10
187.65493785426662
 20
246.23382287308434
 10
185.84118452558062
 20
246.20416037580478
 10
185.73761941149596
 20
246.05531661253193
 10
185.9093816278549
 20
245.26849205531366
 10
185.51083891527412
 20
244.74908680517785
 10
185.27591313889283
 20
243.17951251710952
 10
184.96272695301187
 20
242.77464612216494
 10
183.27509114285215
 20
241.87929581232225
 10
182.61197204840977
 20
242.01189554664595
 10
181.61076785243017
 20
242.8866807663316
 10
180.678490718116
 20
242.58677084003352
 10
180.52380406630152
 20
242.23400002057642
 10
180.91128255892747
 20
241.3605068924179
 10
180.96221524007728
 20
239.17764988568976
 10
181.92976411859595
 20
238.66283862169138
 10
182.106412495666
 20
238.34498520048223
 10
182.31119829789958
 20
237.77514262331533
 10
182.4010082138614
 20
236.0717211670059
 10
181.8868462147549
 20
235.4840694704678
 10
181.21376633882912
 20
235.29158498590132
 10
180.20578616211134
 20
235.52998446326137
 10
179.27157062640998
 20
235.04044554943462
 10
178.20373063414036
 20
235.13141642485422
 10
177.96784451668472
 20
235.00799776651442
 10
177.65485429962385
 20
233.9863248110311
 10
176.6646956951247
 20
233.02314752725312
 10
176.1121118548349
 20
231.42562547370977
 10
175.76452043434284
 20
231.07794396068425
 10
175.0382086289935
 20
230.8779541026772
 10
175.0459215642343
 20
230.51944244095085
 10
174.62562514905366
 20
229.95904944015166
 10
172.96988984178486
 20
232.0291709075034
 10
173.09362039202892
 20
233.06062601585833
 10
172.90121671399726
 20
233.32671894030258
 10
172.14993143954365
 20
233.38661504892548
 10
172.09340276903708
 20
232.43594625709733
 10
171.62152068070313
 20
232.19998719264603
 10
169.98785894223755
 20
231.97390975970677
 10
169.3193490735932
 20
232.1967594156596
 10
169.0261936912399
 20
232.59294725465946
 10
169.3031059282807
 20
233.14640807442333
 10
169.7893822482846
 20
233.23828713085524
 10
169.90844415993
 20
233.5025212335642
 10
169.1425029778364
 20
234.014937841286
 10
169.3607434043471
 20
234.9851549852178
 10
168.84993165900386
 20
235.14091298623953
 10
168.43965624966424
 20
235.55116006933483
 10
168.43371212712555
 20
236.11933029366347
 10
168.18512801931968
 20
236.62260754402834
  0
LWPOLYLINE
  5
31
330
17
100
AcDbEntity
  8
contour_grooves
100
AcDbPolyline
 90
10
 70
1
 10
197.14894191249303
 20
8.238591057840283
 10
198.5170340681432
 20
8.58059248728686
 10
199.041866901093
 20
8.466492741983586
 10
200.17744692822802
 20
8.844136968719525
 10
200.5812909028037
 20
8.17101871393319
 10
200.24707710395015
 20
7.335449204193506
 10
199.41448836487845
 20
7.335270541076544
 10
198.99575966235219
 20
7.734842540503434
 10
198.5170340681444
 20
7.554586549142265
 10
197.14894191249303
 20
8.238591057840283
  0
LWPOLYLINE
  5
32
330
17
100
AcDbEntity
  8
contour_grooves
100
AcDbPolyline
 90
38
 70
1
 10
167.07158253864566
 20
253.86575880893344
 10
167.6079304035908
 20
254.13393274141563
 10
167.96495837855431
 20
253.74773022748727
 10
168.68057885449372
 20
253.42759832886978
 10
169.14913114155883
 20
252.84796675299742
 10
170.16876758211194
 20
252.6659384447282
 10
170.67150380771685
 20
252.07943161960483
 10
170.81151575967542
 20
251.41831755006635
 10
171.46538451445647
 20
251.4559248907875
 10
172.41176075631418
 20
252.1614628023674
 10
173.09778463903808
 20
252.44221257720434
 10
173.83993375507228
 20
251.59856732924518
 10
174.18848760900923
 20
250.61730070541114
 10
174.64626725421235
 20
250.43916332434517
 10
175.96677307623716
 20
250.73343724371153
 10
176.85919311903447
 20
251.75741798222583
 10
176.9720736644906
 20
252.56147447259272
 10
177.51413813868285
 20
253.55779539288335
 10
177.55172683316664
 20
254.01977218668586
 10
178.1500538344909
 20
253.97988371992486
 10
178.11210764815195
 20
253.41085182589242
 10
177.56773676082997
 20
252.398187431351
 10
177.41553227239146
 20
251.4966736878024
 10
177.24142386159542
 20
251.26211224299888
 10
176.29623027901607
 20
250.17181895716382
 10
174.55688413985055
 20
249.82655825989144
 10
173.65153817165017
 20
250.2593012103535
 10
173.31400875959963
 20
251.29998895105936
 10
173.01655426875575
 20
251.6876080621124
 10
172.7042488350729
 20
251.61764756887644
 10
171.63126039433595
 20
250.8551455737085
 10
170.31327014901984
 20
250.815749462567
 10
170.07370350993588
 20
251.83834150724567
 10
169.88038547656495
 20
252.0795689506248
 10
168.837244441938
 20
252.2799533388522
 10
168.2856959229795
 20
252.9390091194476
 10
167.23040053469992
 20
253.5480907311432
 10
167.07158253864566
 20
253.86575880893344
  0
LWPOLYLINE
  5
33
330
17
100
AcDbEntity
  8
contour_grooves
100
AcDbPolyline
 90
11
 70
1
 10
158.1706764770265
 20
253.7317489551129
 10
158.43885040950147
 20
254.26809682006163
 10
159.44785300114268
 20
253.76547382642585
 10
160.33088196521516
 20
253.54224430533142
 10
160.72719647008427
 20
253.61008875599427
 10
160.9330371384286
 20
254.10657608209996
 10
161.49340751456367
 20
253.89310165308234
 10
161.00153772418216
 20
253.00123650497966
 10
160.33077272936248
 20
252.93413219019723
 10
159.21260090174835
 20
253.21143566085598
 10
158.1706764770265
 20
253.7317489551129
  0
LWPOLYLINE
  5
34
330
17
100
AcDbEntity
  8
contour_grooves
100
AcDbPolyline
 90
29
 70
1
 10
150.30822054404408
 20
253.96263986967526
 10
150.9032450759081
 20
254.0370179361609
 10
150.9896467257223
 20
253.69274735864087
 10
152.25364117385487
 20
252.90200397459878
 10
152.6421710294978
 20
253.1520179303467
 10
152.66010424499413
 20
253.67627819180356
 10
153.29713850834423
 20
253.99481104566217
 10
153.61082302649268
 20
253.602657651579
 10
153.68657870082203
 20
252.01959140699844
 10
153.925589095028
 20
251.6416582578119
 10
154.63493978511957
 20
252.13153979337173
 10
155.8667353389193
 20
252.24181059054936
 10
156.07729431812353
 20
253.07125080651542
 10
156.81993209390848
 20
254.2118881834997
 10
157.24395231175265
 20
253.7878679656402
 10
156.67200192288257
 20
252.90626019375867
 10
156.5422913044989
 20
252.06816061362233
 10
156.17854181351058
 20
251.7041775443844
 10
154.83673703004752
 20
251.52945613144243
 10
154.46795578338381
 20
251.24931942131255
 10
154.20144504941427
 20
250.722399197337
 10
153.589359927563
 20
250.41637637583312
 10
153.08425563014922
 20
251.90874852337527
 10
153.04020789029568
 20
252.5299446994715
 10
152.86352414724672
 20
252.55627775956654
 10
152.1581895452306
 20
252.0871306220714
 10
151.48552303149015
 20
252.7532178449691
 10
150.39376359826886
 20
253.27828664390086
 10
150.30822054404408
 20
253.96263986967526
  0
LWPOLYLINE
  5
35
330
17
100
AcDbEntity
  8
contour_grooves
100
AcDbPolyline
 90
15
 70
1
 10
112.61026693577433
 20
100.21913929259154
 10
112.7500874528524
 20
100.63863860202143
 10
114.2012942976609
 20
101.46243627317409
 10
114.4269659196832
 20
102.44554834907427
 10
115.16533124952578
 20
103.55309615889777
 10
115.54709418838831
 20
103.78211677733458
 10
116.0055011487901
 20
103.50707955311998
 10
115.86276737154026
 20
101.30644351534652
 10
116.37912778528231
 20
100.332503842634
 10
116.1702552754889
 20
99.05395423006485
 10
115.58330123459945
 20
98.80239699552719
 10
114.6332908741397
 20
98.98476280372445
 10
114.37192556146405
 20
99.21014384416502
 10
113.92926116773579
 20
99.21320367173963
 10
112.61026693577433
 20
100.21913929259154
  0
LWPOLYLINE
  5
36
330
17
100
AcDbEntity
  8
contour_grooves
100
AcDbPolyline
 90
14
 70
1
 10
114.65324874828306
 20
99.81284876034519
 10
114.96290088589997
 20
99.52666818017113
 10
115.46543864091626
 20
99.4347755714609
 10
115.60628529587876
 20
99.54350113463899
 10
115.72092692373369
 20
100.20267206279304
 10
115.23750167132867
 20
101.2753146453572
 10
115.37232018818901
 20
102.27955038462903
 10
115.26262787082445
 20
102.43157594611759
 10
114.98177385750098
 20
102.19635715305432
 10
114.83675562151805
 20
101.77801643225136
 10
114.82886448464726
 20
101.12484169700187
 10
113.4779330376033
 20
100.35087715256562
 10
114.09898325578774
 20
99.82440412651269
 10
114.65324874828306
 20
99.81284876034519
  0
LWPOLYLINE
  5
37
330
17
100
AcDbEntity
  8
contour_grooves
100
AcDbPolyline
 90
7
 70
1
 10
109.64805809991508
 20
104.07378555412711
 10
110.45691382764706
 20
104.27598326885301
 10
111.24089079715976
 20
104.07998090318316
 10
111.22296768973402
 20
102.41991960046423
 10
110.32399072908406
 20
102.71955109001946
 10
109.6480724280665
 20
103.17020072807573
 10
109.64805809991508
 20
104.07378555412711
  0
LWPOLYLINE
  5
38
330
17
100
AcDbEntity
  8
contour_grooves
100
AcDbPolyline
 90
59
 70
1
 10
89.73136798182233
 20
112.04317078634854
 10
90.46115410390328
 20
112.77291466907425
 10
90.98953890405835
 20
112.86879148152552
 10
91.39976393891897
 20
113.20628103009233
 10
91.90280597515996
 20
113.88827748107207
 10
93.31529585966803
 20
114.66373606987146
 10
93.36087403727554
 20
115.11200734555695
 10
93.99075573422844
 20
116.04798359833362
 10
94.65434939624947
 20
116.37982154627511
 10
96.07605117261119
 20
115.98525543133825
 10
96.16887709921073
 20
117.18717357257424
 10
96.60322506000955
 20
117.76627883952914
 10
97.43684723772279
 20
117.48583667259581
 10
97.64944044262994
 20
116.58071610825343
 10
97.56945837819869
 20
115.1851305774484
 10
98.47567166180262
 20
114.46259573967981
 10
98.98412617627754
 20
113.26928566545263
 10
99.91159138708309
 20
113.02742368710881
 10
100.50972704748276
 20
112.26672241936566
 10
100.8677088672846
 20
112.49012340358976
 10
101.37841576680576
 20
111.31027388020875
 10
102.40386236093782
 20
110.28194422357805
 10
102.75660484276214
 20
110.25366262236224
 10
103.76890012919299
 20
110.75675574821223
 10
104.23301080223985
 20
110.7746256379983
 10
105.34597878680856
 20
111.70691277637053
 10
106.58141335731275
 20
111.06243995861045
 10
106.9238851649894
 20
110.5732135202474
 10
107.04144352243421
 20
109.86756199653308
 10
106.54707846436229
 20
109.23190717613807
 10
106.11006891492426
 20
109.16299727965647
 10
105.95792401737538
 20
108.93068521910925
 10
106.32076457259488
 20
107.9467047126603
 10
106.1755917034773
 20
106.82300105921624
 10
105.85378660617954
 20
106.17948372384846
 10
105.48286669713612
 20
105.93196388633038
 10
104.94501675751556
 20
105.83767151715058
 10
102.95309656988321
 20
104.83604497749695
 10
102.2206597294925
 20
104.65294522856966
 10
101.66478851443509
 20
105.18757965143787
 10
100.7780526706397
 20
105.32049806350688
 10
100.34159155002762
 20
105.31547565419531
 10
99.17753961319234
 20
104.85403492887514
 10
98.83489740056989
 20
105.19666703898118
 10
98.51516925361469
 20
105.90567785789224
 10
97.2191647713565
 20
106.81452645576896
 10
96.61051857028296
 20
106.74233855168931
 10
95.5625552976698
 20
107.88724923126131
 10
94.23313397966828
 20
107.95229184176615
 10
93.59031308281416
 20
107.66820158413246
 10
93.20950345168293
 20
107.29249022632567
 10
92.3414669704489
 20
107.72652741942095
 10
92.33016031680111
 20
108.76744552766384
 10
91.97489824271747
 20
108.77046403782066
 10
91.71897517103487
 20
109.41027959863189
 10
91.81605359189047
 20
110.07475949880707
 10
91.04919001309824
 20
110.40565601490513
 10
90.41991419297337
 20
110.41160725099554
 10
89.73136798182233
 20
112.04317078634854
  0
LWPOLYLINE
  5
39
330
17
100
AcDbEntity
  8
contour_grooves
100
AcDbPolyline
 90
56
 70
1
 10
90.7474111741996
 20
111.12504250192832
 10
91.66185830001531
 20
110.7928205267323
 10
93.21796415210979
 20
111.11150902326253
 10
93.95914200078755
 20
110.6173744222179
 10
93.95914134551369
 20
109.82370515952182
 10
92.95270063526131
 20
108.80086613122246
 10
93.0205730546134
 20
108.10240450660154
 10
94.10033930697723
 20
108.54654242195264
 10
95.21870964693734
 20
108.59358717434745
 10
95.8232995920867
 20
108.44358838462031
 10
96.78376230921438
 20
107.42121072813322
 10
97.27286887755922
 20
107.45849479591776
 10
98.97299158423019
 20
106.3537496586429
 10
99.35724625267522
 20
105.59401749239497
 10
100.20577387668011
 20
105.9210844055371
 10
100.8042536240919
 20
105.92087050542958
 10
101.93394418269241
 20
105.74823841165988
 10
102.44104906253476
 20
105.33363705251783
 10
105.38964555445557
 20
106.59960190546738
 10
105.67580947806721
 20
107.86827178407876
 10
105.30348392439075
 20
108.9647407848006
 10
105.67783159105292
 20
109.71347696484226
 10
106.20367765305461
 20
109.79500843173342
 10
106.39768261964852
 20
110.06226704972713
 10
106.19460637892196
 20
110.56455548548544
 10
105.40386958462295
 20
110.95843840794754
 10
104.47288802684257
 20
110.15709111941001
 10
103.90471780253442
 20
110.15114699687092
 10
102.89242251610358
 20
109.64805387102093
 10
102.18843461843333
 20
109.6480730833416
 10
101.33813187994866
 20
110.47307681101492
 10
100.84477399277864
 20
110.09208942471382
 10
99.71567516584815
 20
110.65573110746553
 10
99.25868946266802
 20
110.66610429232854
 10
99.25868946266802
 20
111.26575943513497
 10
99.65184847759431
 20
111.28364367407956
 10
99.97009415656613
 20
111.6178033012864
 10
99.75827561854852
 20
112.33249037286912
 10
98.51248174765276
 20
112.76498675766263
 10
98.12711057803376
 20
113.90377198270204
 10
97.33031843670224
 20
114.57877835100896
 10
96.41358857285793
 20
113.80518447206975
 10
96.37125499570789
 20
115.15735397917479
 10
94.71596651645488
 20
115.72020552537336
 10
94.14949806345604
 20
115.34761461143856
 10
93.96189088113401
 20
114.95950522114128
 10
93.95914200078755
 20
114.36859752166542
 10
92.39810792353589
 20
113.49736852488999
 10
92.14239809846381
 20
113.14648187462016
 10
92.21935252675571
 20
112.95060324786604
 10
93.42282659100901
 20
112.54852859574622
 10
92.02961059058438
 20
111.85192693389563
 10
91.56979879536057
 20
112.47935515378626
 10
90.7527998796757
 20
112.2061917112454
 10
90.49375566903049
 20
111.89762713787428
 10
90.7474111741996
 20
111.12504250192832
  0
LWPOLYLINE
  5
3A
330
17
100
AcDbEntity
  8
contour_grooves
100
AcDbPolyline
 90
9
 70
1
 10
93.54900325235634
 20
117.01494544610645
 10
93.92195628142883
 20
117.76074727178684
 10
95.06218211343322
 20
118.90102511304906
 10
95.88068700943383
 20
118.90101799949778
 10
96.28509280957356
 20
118.09218436873986
 10
95.90189612890562
 20
117.32573345209036
 10
95.31920822938685
 20
117.17682838958544
 10
94.10913382286041
 20
116.45481487562249
 10
93.54900325235634
 20
117.01494544610645
  0
LWPOLYLINE
  5
3B
330
17
100
AcDbEntity
  8
contour_grooves
100
AcDbPolyline
 90
10
 70
1
 10
88.49285024301734
 20
96.75772656092778
 10
88.8728704974078
 20
97.3277345019706
 10
89.55857619180868
 20
97.63573424781542
 10
90.34651461215762
 20
97.47814977522852
 10
90.52666461494287
 20
96.6673393160607
 10
90.31927542363997
 20
96.29404880107508
 10
89.68883423751629
 20
95.9155476372363
 10
89.00271957337377
 20
95.83780799268634
 10
88.74140341810356
 20
96.01199600055541
 10
88.49285024301734
 20
96.75772656092778
  0
LWPOLYLINE
  5
3C
330
17
100
AcDbEntity
  8
contour_grooves
100
AcDbPolyline
 90
143
 70
1
 10
42.952841275409476
 20
0.2121320343438485
 10
43.167988707150286
 20
0.4272735152561397
 10
43.66940460345935
 20
0.3852582731789223
 10
43.8419080601473
 20
1.2039022564425998
 10
44.667743798260794
 20
1.5086470313961682
 10
45.17841457835792
 20
1.9541313254756993
 10
46.45301258529281
 20
1.8031942044582825
 10
46.96847801862652
 20
1.40079710208073
 10
47.71146528647696
 20
1.3186694427679013
 10
49.3224958411228
 20
2.264312228987626
 10
49.512103772980446
 20
2.6429942247817206
 10
49.534921559147875
 20
3.6140096623056484
 10
49.94465895790203
 20
4.537509429092838
 10
49.77147231346183
 20
5.085102002365853
 10
49.943883822472515
 20
5.664888090034205
 10
49.91172410605474
 20
6.009274076886989
 10
48.939350379765614
 20
7.608540404301414
 10
49.171769877307085
 20
8.270675368966273
 10
49.71420495058409
 20
8.987125138199138
 10
52.172208668889624
 20
10.116154677866817
 10
52.416345300040575
 20
10.778304362788306
 10
52.65965332100194
 20
12.87122636396137
 10
53.78428541451631
 20
14.080727935358338
 10
54.41722400859493
 20
14.35497203228929
 10
55.572446865993186
 20
14.255860839967497
 10
56.710003480745144
 20
13.540240231772199
 10
57.23862216323531
 20
12.708521665062804
 10
57.97916064509425
 20
12.527114683921605
 10
59.05310318903842
 20
12.776081674194852
 10
59.659745874712215
 20
12.646255115758429
 10
60.82673017576258
 20
11.894705458562377
 10
61.057956404676034
 20
11.195125795784195
 10
60.83521502106815
 20
10.527406975365256
 10
60.317206467212095
 20
9.99840802982766
 10
59.77859935802989
 20
8.55706853601495
 10
59.17028281642556
 20
8.098974886950932
 10
58.68266297122869
 20
8.064679455440485
 10
58.00514402471515
 20
7.420438174697237
 10
57.75576720038957
 20
6.927223184548662
 10
58.38625321294814
 20
5.680486380187731
 10
58.43301782267521
 20
5.057219840272987
 10
58.22372867090424
 20
4.4717356234839505
 10
58.35176543405557
 20
4.0491389753883515
 10
57.704334304019085
 20
2.754292621746137
 10
56.91006957474806
 20
2.754264531821763
 10
56.387898782693924
 20
3.1383877274280736
 10
55.890022046842866
 20
3.1859364352093347
 10
55.3077882916227
 20
3.795101642524657
 10
54.93687785381722
 20
3.898274931092026
 10
54.455351285847975
 20
3.8563727746236744
 10
54.14120805152876
 20
3.263310657814568
 10
52.0626930808438
 20
3.256667302864182
 10
51.68185927237408
 20
2.8759205901282034
 10
51.382894356013196
 20
1.1986662668856514
 10
51.62754230306732
 20
1.150002764561697
 10
51.82744362958832
 20
1.6890258903670412
 10
52.937875751502375
 20
2.7146013801808575
 10
53.45783884038629
 20
2.1946262897366586
 10
53.658117087063886
 20
1.5270541082178
 10
53.24364258228158
 20
0.44397959225360384
 10
53.23770332290559
 20
0.00017242859678866468
 10
52.63804818009916
 20
0.00017242859678871114
 10
52.63803555102915
 20
0.579804551997373
 10
53.0224537161296
 20
1.4980914784265447
 10
52.9089398988483
 20
1.7456188741191745
 10
52.36739509289459
 20
1.3797613910116706
 10
52.18190840784181
 20
0.8560642899968088
 10
51.36422075144892
 20
0.03839472010533793
 10
50.771653905525184
 20
0.9272571597272377
 10
51.134624820411
 20
3.2019242701826562
 10
51.79564904731024
 20
3.8629489607448346
 10
53.70778798182665
 20
3.8661551235679443
 10
53.986931704105075
 20
4.295636874800583
 10
54.39099866646553
 20
4.4978433975867285
 10
55.01084515730081
 20
4.499119150129934
 10
55.65895572990323
 20
4.337199078904378
 10
56.09650063704988
 20
3.7810899443019497
 10
56.61188247705274
 20
3.7275094885323217
 10
57.119174514850755
 20
3.3597765045051835
 10
57.3490680719067
 20
3.400163057332719
 10
57.690064911443045
 20
4.081424930705566
 10
57.51535757416601
 20
4.662139745510337
 10
57.824864916033235
 20
5.13713909449569
 10
57.78961051598521
 20
5.530940600789616
 10
57.26075358762649
 20
6.446922669540194
 10
56.99705589985629
 20
6.577913631732891
 10
56.65429999347372
 20
6.2192265258147605
 10
55.183129268613634
 20
5.623070520676037
 10
55.183143223617414
 20
6.741425101003597
 10
55.83001855435421
 20
7.388325169469529
 10
56.49773100620186
 20
7.611062617106139
 10
57.31326397637027
 20
7.444849493310053
 10
58.37661355373561
 20
8.698620958706353
 10
58.903238782892004
 20
8.705256544831588
 10
59.32078047604446
 20
9.005143785389814
 10
59.80622808200526
 20
10.346426066236576
 10
60.41077981695344
 20
11.150962628693257
 10
60.29198907919962
 20
11.538558983559295
 10
59.4531868112582
 20
12.073673196646242
 10
59.024915657973956
 20
12.162602125758328
 10
58.05571992360167
 20
11.909594813658464
 10
57.443092585021034
 20
11.99771450170485
 10
56.815628030484085
 20
12.221973078029093
 10
56.30175245439089
 20
13.083961247995914
 10
55.70243102092321
 20
13.490703606448694
 10
55.3727102572333
 20
13.668145825557518
 10
54.50592922539602
 20
13.736337498873064
 10
54.10742690292958
 20
13.555574323885603
 10
53.21626657642604
 20
12.56252547582427
 10
52.9994348738294
 20
10.619331467523299
 10
52.680139796928835
 20
9.739528285575968
 10
52.23662920504183
 20
9.408002486686643
 10
51.486777500751735
 20
9.206057166352453
 10
50.066212897491575
 20
8.496015796939481
 10
49.72193617577679
 20
8.010132418132192
 10
49.623721237422004
 20
7.671072873845736
 10
49.77219288908118
 20
7.262675287285504
 10
50.51783413824337
 20
6.22291900449923
 10
50.411759525635986
 20
5.088529222539969
 10
50.57817077173059
 20
4.595506306470552
 10
50.134286944386936
 20
3.521775212959185
 10
50.10957593738244
 20
2.4688055671410627
 10
49.77093974492233
 20
1.8223057276351422
 10
48.66947139944303
 20
1.2834320450515935
 10
47.94764122929434
 20
0.7181908452595815
 10
46.69932235037259
 20
0.8401383418623001
 10
46.182793202542236
 20
1.248727297642748
 10
45.75622571497419
 20
1.3543086172349206
 10
45.43159879862516
 20
1.3428905471121277
 10
44.92392414261128
 20
0.9419419490690046
 10
44.385489638669505
 20
0.7754566365424912
 10
44.40594256616308
 20
0.5573996588608028
 10
44.77049697070031
 20
0.3549031412676945
 10
45.25572880077703
 20
0.5662543751739868
 10
46.43152175560397
 20
0.418892254065102
 10
46.67007256122546
 20
0.23996551428374954
 10
46.31027947554989
 20
-0.2397585999676057
 10
45.36630205086068
 20
-0.06357335938478711
 10
44.793587174348275
 20
-0.33519300996648876
 10
43.92427213747144
 20
0.12846696050239104
 10
43.71658099755019
 20
-0.29397130652691134
 10
43.20790112176335
 20
-0.192235331365694
 10
42.952841275409476
 20
0.2121320343438485
  0
LWPOLYLINE
  5
3D
330
17
100
AcDbEntity
  8
contour_grooves
100
AcDbPolyline
 90
123
 70
1
 10
-0.26809682006459135
 20
133.2284842598497
 10
0.2682510448913787
 20
133.4966581923103
 10
0.5881909197778703
 20
132.85716400455934
 10
0.4667704458166195
 20
132.48478165670662
 10
1.0390360588984004
 20
131.83567134268765
 10
0.46151133484387746
 20
130.8398516525551
 10
0.5266470408204695
 20
130.4569968309688
 10
1.1785316712350906
 20
129.68160414096891
 10
1.5203493090600126
 20
129.5182199510272
 10
2.046959099168089
 20
129.9851026619699
 10
2.738272295092877
 20
131.36580185716963
 10
2.754287038415259
 20
132.0618268808484
 10
5.54633763114727
 20
132.56887415009632
 10
6.063916725640215
 20
132.8451591090218
 10
6.674202711964365
 20
132.64555124729705
 10
8.26083335584286
 20
132.57507072718934
 10
8.906813097833222
 20
134.42199034938858
 10
9.557521761160451
 20
134.97905996184784
 10
10.813569389569288
 20
135.0199295886662
 10
11.290796779359704
 20
134.54272693663944
 10
11.461703545584315
 20
134.06394717445002
 10
11.805494869802406
 20
133.85557057438547
 10
12.217917785353677
 20
134.04420232346138
 10
12.643313176816473
 20
134.88691699075397
 10
14.137474908702258
 20
133.25355128758468
 10
14.723319805739603
 20
133.74854072061484
 10
15.36862112232454
 20
133.346552538308
 10
16.378300176047667
 20
133.74279827012228
 10
17.39901321222528
 20
132.5066547923532
 10
17.945119108071353
 20
130.86009640686424
 10
18.041801146756068
 20
130.07980824968035
 10
19.066211455864988
 20
129.49586697754305
 10
19.388018273269477
 20
128.85234235577667
 10
19.390161506521594
 20
125.20134537463342
 10
19.645289735408625
 20
123.17411072115247
 10
19.478958266023636
 20
121.57368750432232
 10
18.48340425097174
 20
120.37396510053452
 10
17.33111150443857
 20
120.02806937738163
 10
16.68456991439318
 20
120.09272479459852
 10
16.19065698898987
 20
120.44086316337597
 10
15.567207620445515
 20
120.25043952409219
 10
15.000228611898837
 20
123.0427519485543
 10
14.207191319822943
 20
124.07621016954138
 10
14.200555078423259
 20
124.56656543619607
 10
13.732995691643602
 20
125.50567198997302
 10
13.194802314537426
 20
125.71510989385435
 10
11.751050858128364
 20
125.91897513042264
 10
10.718338015061228
 20
125.54718615939893
 10
9.415759211262579
 20
125.65422664444407
 10
8.31277191251778
 20
124.45390728620508
 10
7.608540404311625
 20
124.17221611122893
 10
6.000915198627623
 20
125.56018534451444
 10
5.559942590121027
 20
125.66674151793045
 10
4.759660462705526
 20
125.45584431102583
 10
3.768412067741282
 20
124.22236569843547
 10
3.0409827171957984
 20
123.85863373884597
 10
2.4582984720755743
 20
124.20489672248752
 10
1.3346412911009502
 20
124.45750228251188
 10
0.8254141345233778
 20
125.2195898032023
 10
0.5237455259873995
 20
125.38468096823438
 10
0.0718676002006684
 20
125.31272999999995
 10
-0.07255158712290476
 20
125.89111769061037
 10
0.5438991014332163
 20
126.04521347040844
 10
1.2233218873732947
 20
125.70549001298704
 10
1.7425241270514011
 20
124.95663498478403
 10
3.0980656887378415
 20
124.565340622176
 10
3.370504314866909
 20
124.70826590820882
 10
4.401808941738682
 20
125.9880521359798
 10
5.604416911918924
 20
126.28973445598405
 10
6.242740125619192
 20
126.12881664926758
 10
7.68641110513401
 20
124.85693011990463
 10
8.423551135831081
 20
125.4129454650689
 10
8.967712639747713
 20
126.15553814780895
 10
9.658289553394447
 20
126.33986839019784
 10
10.667209678649767
 20
126.16778269730385
 10
11.678816672779302
 20
126.54795869670512
 10
13.281466980861726
 20
126.31812226071239
 10
14.255428872556854
 20
125.93396025716092
 10
14.488175418174142
 20
125.16340743265378
 10
14.80683673630449
 20
124.83360946974345
 10
14.824725838410576
 20
124.31608739413893
 10
15.54349411303345
 20
123.31218893493455
 10
15.987313371735542
 20
121.12288076467523
 10
16.369554575159373
 20
121.14997308716443
 10
16.952293627985977
 20
120.66879195593401
 10
18.14197473030494
 20
120.89329009737384
 10
18.851948790286272
 20
121.71926280904663
 10
19.03813910533678
 20
123.18376908942152
 10
18.78733548558041
 20
125.21950835925546
 10
18.785604108846616
 20
128.70299219508357
 10
18.567823940184997
 20
129.10725496442814
 10
17.578614012177624
 20
129.56258194804997
 10
16.880924999491377
 20
132.16201481046227
 10
16.229727625755817
 20
132.92170789686148
 10
15.202877531249339
 20
132.7081302553096
 10
14.789531595779689
 20
132.9307720534953
 10
14.311707860500876
 20
132.48888301188197
 10
13.53820115873132
 20
132.87567231167105
 10
12.90664308236551
 20
133.75960582208185
 10
12.360489182679075
 20
133.33730577181223
 10
11.639751278712628
 20
133.217148291393
 10
10.946480238428059
 20
133.6793306698561
 10
10.58631818939763
 20
134.39482732227157
 10
9.802274757551878
 20
134.39115666064058
 10
9.309386287387117
 20
133.8133863881376
 10
9.233971472436597
 20
133.26556008422887
 10
8.956529160235792
 20
132.76512880083237
 10
8.953132977028943
 20
132.09889055556704
 10
8.144288577154775
 20
131.93712923180075
 10
6.162333923895493
 20
132.16734550727045
 10
4.6309826870273945
 20
131.75629669458704
 10
3.4352214374686794
 20
131.62948213910406
 10
2.5369615542461377
 20
129.6220182592883
 10
1.527054108221934
 20
128.61205192642586
 10
0.27849844221602993
 20
129.73310923255784
 10
-0.023704987838265783
 20
130.1855437363752
 10
-0.18772934495791854
 20
130.84127615394715
 10
0.25543828831779575
 20
131.8048685163284
 10
-0.13393274141136252
 20
132.07643833386902
 10
-0.058943623268321615
 20
132.3250415043326
 10
-0.2680968200632758
 20
132.47893056981445
 10
-0.10039412323729974
 20
132.87679761847312
 10
-0.26809682006459135
 20
133.2284842598497
  0
ENDSEC
  0
SECTION
  2
OBJECTS
  0
DICTIONARY
  5
A
330
0
100
AcDbDictionary
281
1
  3
ACAD_COLOR
350
B
  3
ACAD_GROUP
350
C
  3
ACAD_LAYOUT
350
D
  3
ACAD_MATERIAL
350
E
  3
ACAD_MLEADERSTYLE
350
F
  3
ACAD_MLINESTYLE
350
10
  3
ACAD_PLOTSETTINGS
350
11
  3
ACAD_PLOTSTYLENAME
350
12
  3
ACAD_SCALELIST
350
14
  3
ACAD_TABLESTYLE
350
15
  3
ACAD_VISUALSTYLE
350
16
  3
EZDXF_META
350
2D
  0
DICTIONARY
  5
B
330
A
100
AcDbDictionary
281
1
  0
DICTIONARY
  5
C
330
A
100
AcDbDictionary
281
1
  0
DICTIONARY
  5
D
330
A
100
AcDbDictionary
281
1
  3
Model
350
1A
  3
Layout1
350
1E
  0
DICTIONARY
  5
E
330
A
100
AcDbDictionary
281
1
  3
ByBlock
350
1F
  3
ByLayer
350
20
  3
Global
350
21
  0
DICTIONARY
  5
F
330
A
100
AcDbDictionary
281
1
  3
Standard
350
2C
  0
DICTIONARY
  5
10
330
A
100
AcDbDictionary
281
1
  3
Standard
350
22
  0
DICTIONARY
  5
11
330
A
100
AcDbDictionary
281
1
  0
ACDBDICTIONARYWDFLT
  5
12
330
A
100
AcDbDictionary
281
1
  3
Normal
350
13
100
AcDbDictionaryWithDefault
340
13
  0
ACDBPLACEHOLDER
  5
13
330
12
  0
DICTIONARY
  5
14
330
A
100
AcDbDictionary
281
1
  0
DICTIONARY
  5
15
330
A
100
AcDbDictionary
281
1
  0
DICTIONARY
  5
16
330
A
100
AcDbDictionary
281
1
  0
LAYOUT
  5
1A
330
D
100
AcDbPlotSettings
  1

  4
A3
  6

 40
7.5
 41
20.0
 42
7.5
 43
20.0
 44
420.0
 45
297.0
 46
0.0
 47
0.0
 48
0.0
 49
0.0
140
0.0
141
0.0
142
1.0
143
1.0
 70
1024
 72
1
 73
0
 74
5
  7

 75
16
 76
0
 77
2
 78
300
147
1.0
148
0.0
149
0.0
100
AcDbLayout
  1
Model
 70
1
 71
0
 10
0.0
 20
0.0
 11
420.0
 21
297.0
 12
0.0
 22
0.0
 32
0.0
 14
1e+20
 24
1e+20
 34
1e+20
 15
-1e+20
 25
-1e+20
 35
-1e+20
146
0.0
 13
0.0
 23
0.0
 33
0.0
 16
1.0
 26
0.0
 36
0.0
 17
0.0
 27
1.0
 37
0.0
 76
1
330
17
  0
LAYOUT
  5
1E
330
D
100
AcDbPlotSettings
  1

  4
A3
  6

 40
7.5
 41
20.0
 42
7.5
 43
20.0
 44
420.0
 45
297.0
 46
0.0
 47
0.0
 48
0.0
 49
0.0
140
0.0
141
0.0
142
1.0
143
1.0
 70
0
 72
1
 73
0
 74
5
  7

 75
16
 76
0
 77
2
 78
300
147
1.0
148
0.0
149
0.0
100
AcDbLayout
  1
Layout1
 70
1
 71
1
 10
0.0
 20
0.0
 11
420.0
 21
297.0
 12
0.0
 22
0.0
 32
0.0
 14
1e+20
 24
1e+20
 34
1e+20
 15
-1e+20
 25
-1e+20
 35
-1e+20
146
0.0
 13
0.0
 23
0.0
 33
0.0
 16
1.0
 26
0.0
 36
0.0
 17
0.0
 27
1.0
 37
0.0
 76
1
330
1B
  0
MATERIAL
  5
1F
102
{ACAD_REACTORS
330
E
102
}
330
E
100
AcDbMaterial
  1
ByBlock
  2

 70
0
 40
1.0
 71
1
 41
1.0
 91
-1023410177
 42
1.0
 72
1
  3

 73
1
 74
1
 75
1
 44
0.5
 73
0
 45
1.0
 46
1.0
 77
1
  4

 78
1
 79
1
170
1
 48
1.0
171
1
  6

172
1
173
1
174
1
140
1.0
141
1.0
175
1
  7

176
1
177
1
178
1
143
1.0
179
1
  8

270
1
271
1
272
1
145
1.0
146
1.0
273
1
  9

274
1
275
1
276
1
 42
1.0
 72
1
  3

 73
1
 74
1
 75
1
 94
63
  0
MATERIAL
  5
20
102
{ACAD_REACTORS
330
E
102
}
330
E
100
AcDbMaterial
  1
ByLayer
  2

 70
0
 40
1.0
 71
1
 41
1.0
 91
-1023410177
 42
1.0
 72
1
  3

 73
1
 74
1
 75
1
 44
0.5
 73
0
 45
1.0
 46
1.0
 77
1
  4

 78
1
 79
1
170
1
 48
1.0
171
1
  6

172
1
173
1
174
1
140
1.0
141
1.0
175
1
  7

176
1
177
1
178
1
143
1.0
179
1
  8

270
1
271
1
272
1
145
1.0
146
1.0
273
1
  9

274
1
275
1
276
1
 42
1.0
 72
1
  3

 73
1
 74
1
 75
1
 94
63
  0
MATERIAL
  5
21
102
{ACAD_REACTORS
330
E
102
}
330
E
100
AcDbMaterial
  1
Global
  2

 70
0
 40
1.0
 71
1
 41
1.0
 91
-1023410177
 42
1.0
 72
1
  3

 73
1
 74
1
 75
1
 44
0.5
 73
0
 45
1.0
 46
1.0
 77
1
  4

 78
1
 79
1
170
1
 48
1.0
171
1
  6

172
1
173
1
174
1
140
1.0
141
1.0
175
1
  7

176
1
177
1
178
1
143
1.0
179
1
  8

270
1
271
1
272
1
145
1.0
146
1.0
273
1
  9

274
1
275
1
276
1
 42
1.0
 72
1
  3

 73
1
 74
1
 75
1
 94
63
  0
MLINESTYLE
  5
22
102
{ACAD_REACTORS
330
10
102
}
330
10
100
AcDbMlineStyle
  2
Standard
 70
0
  3

 62
256
 51
90.0
 52
90.0
 71
2
 49
0.5
 62
256
  6
BYLAYER
 49
-0.5
 62
256
  6
BYLAYER
  0
MLEADERSTYLE
  5
2C
102
{ACAD_REACTORS
330
F
102
}
330
F
100
AcDbMLeaderStyle
179
2
170
2
171
1
172
0
 90
2
 40
0.0
 41
0.0
173
1
 91
-1056964608
 92
-2
290
1
 42
2.0
291
1
 43
8.0
  3
Standard
 44
4.0
300

342
29
174
1
175
1
176
0
178
1
 93
-1056964608
 45
4.0
292
0
297
0
 46
4.0
 94
-1056964608
 47
1.0
 49
1.0
140
1.0
294
1
141
0.0
177
0
142
1.0
295
0
296
0
143
3.75
271
0
272
9
273
9
  0
DICTIONARY
  5
2D
330
A
100
AcDbDictionary
280
1
281
1
  3
CREATED_BY_EZDXF
350
2E
  3
WRITTEN_BY_EZDXF
350
40
  0
DICTIONARYVAR
  5
2E
330
2D
100
DictionaryVariables
280
0
  1
1.4.3 @ 2026-04-02T16:42:43.673835+00:00
  0
DICTIONARYVAR
  5
40
330
2D
100
DictionaryVariables
280
0
  1
1.4.3 @ 2026-04-02T16:42:43.677019+00:00
  0
ENDSEC
  0
EOF
