  0
SECTION
  2
HEADER
  9
$ACADVER
  1
AC1024
  9
$ACADMAINTVER
 70
6
  9
$DWGCODEPAGE
  3
ANSI_1252
  9
$LASTSAVEDBY
  1
ezdxf
  9
$INSBASE
 10
0.0
 20
0.0
 30
0.0
  9
$EXTMIN
 10
1e+20
 20
1e+20
 30
1e+20
  9
$EXTMAX
 10
-1e+20
 20
-1e+20
 30
-1e+20
  9
$LIMMIN
 10
0.0
 20
0.0
  9
$LIMMAX
 10
420.0
 20
297.0
  9
$ORTHOMODE
 70
0
  9
$REGENMODE
 70
1
  9
$FILLMODE
 70
1
  9
$QTEXTMODE
 70
0
  9
$MIRRTEXT
 70
1
  9
$LTSCALE
 40
1.0
  9
$ATTMODE
 70
1
  9
$TEXTSIZE
 40
2.5
  9
$TRACEWID
 40
1.0
  9
$TEXTSTYLE
  7
Standard
  9
$CLAYER
  8
0
  9
$CELTYPE
  6
ByLayer
  9
$CECOLOR
 62
256
  9
$CELTSCALE
 40
1.0
  9
$DISPSILH
 70
0
  9
$DIMSCALE
 40
1.0
  9
$DIMASZ
 40
2.5
  9
$DIMEXO
 40
0.625
  9
$DIMDLI
 40
3.75
  9
$DIMRND
 40
0.0
  9
$DIMDLE
 40
0.0
  9
$DIMEXE
 40
1.25
  9
$DIMTP
 40
0.0
  9
$DIMTM
 40
0.0
  9
$DIMTXT
 40
2.5
  9
$DIMCEN
 40
2.5
  9
$DIMTSZ
 40
0.0
  9
$DIMTOL
 70
0
  9
$DIMLIM
 70
0
  9
$DIMTIH
 70
0
  9
$DIMTOH
 70
0
  9
$DIMSE1
 70
0
  9
$DIMSE2
 70
0
  9
$DIMTAD
 70
1
  9
$DIMZIN
 70
8
  9
$DIMBLK
  1

  9
$DIMASO
 70
1
  9
$DIMSHO
 70
1
  9
$DIMPOST
  1

  9
$DIMAPOST
  1

  9
$DIMALT
 70
0
  9
$DIMALTD
 70
3
  9
$DIMALTF
 40
0.03937007874
  9
$DIMLFAC
 40
1.0
  9
$DIMTOFL
 70
1
  9
$DIMTVP
 40
0.0
  9
$DIMTIX
 70
0
  9
$DIMSOXD
 70
0
  9
$DIMSAH
 70
0
  9
$DIMBLK1
  1

  9
$DIMBLK2
  1

  9
$DIMSTYLE
  2
ISO-25
  9
$DIMCLRD
 70
0
  9
$DIMCLRE
 70
0
  9
$DIMCLRT
 70
0
  9
$DIMTFAC
 40
1.0
  9
$DIMGAP
 40
0.625
  9
$DIMJUST
 70
0
  9
$DIMSD1
 70
0
  9
$DIMSD2
 70
0
  9
$DIMTOLJ
 70
0
  9
$DIMTZIN
 70
8
  9
$DIMALTZ
 70
0
  9
$DIMALTTZ
 70
0
  9
$DIMUPT
 70
0
  9
$DIMDEC
 70
2
  9
$DIMTDEC
 70
2
  9
$DIMALTU
 70
2
  9
$DIMALTTD
 70
3
  9
$DIMTXSTY
  7
Standard
  9
$DIMAUNIT
 70
0
  9
$DIMADEC
 70
0
  9
$DIMALTRND
 40
0.0
  9
$DIMAZIN
 70
0
  9
$DIMDSEP
 70
44
  9
$DIMATFIT
 70
3
  9
$DIMFRAC
 70
0
  9
$DIMLDRBLK
  1

  9
$DIMLUNIT
 70
2
  9
$DIMLWD
 70
-2
  9
$DIMLWE
 70
-2
  9
$DIMTMOVE
 70
0
  9
$DIMFXL
 40
1.0
  9
$DIMFXLON
 70
0
  9
$DIMJOGANG
 40
0.785398163397
  9
$DIMTFILL
 70
0
  9
$DIMTFILLCLR
 70
0
  9
$DIMARCSYM
 70
0
  9
$DIMLTYPE
  6

  9
$DIMLTEX1
  6

  9
$DIMLTEX2
  6

  9
$DIMTXTDIRECTION
 70
0
  9
$LUNITS
 70
2
  9
$LUPREC
 70
4
  9
$SKETCHINC
 40
1.0
  9
$FILLETRAD
 40
10.0
  9
$AUNITS
 70
0
  9
$AUPREC
 70
2
  9
$MENU
  1
.
  9
$ELEVATION
 40
0.0
  9
$PELEVATION
 40
0.0
  9
$THICKNESS
 40
0.0
  9
$LIMCHECK
 70
0
  9
$CHAMFERA
 40
0.0
  9
$CHAMFERB
 40
0.0
  9
$CHAMFERC
 40
0.0
  9
$CHAMFERD
 40
0.0
  9
$SKPOLY
 70
0
  9
$TDCREATE
 40
2461137.4355439814
  9
$TDUCREATE
 40
2458532.153996898
  9
$TDUPDATE
 40
2461137.4355439814
  9
$TDUUPDATE
 40
2458532.1544311
  9
$TDINDWG
 40
0.0
  9
$TDUSRTIMER
 40
0.0
  9
$USRTIMER
 70
1
  9
$ANGBASE
 50
0.0
  9
$ANGDIR
 70
0
  9
$PDMODE
 70
0
  9
$PDSIZE
 40
0.0
  9
$PLINEWID
 40
0.0
  9
$SPLFRAME
 70
0
  9
$SPLINETYPE
 70
6
  9
$SPLINESEGS
 70
8
  9
$HANDSEED
  5
68
  9
$SURFTAB1
 70
6
  9
$SURFTAB2
 70
6
  9
$SURFTYPE
 70
6
  9
$SURFU
 70
6
  9
$SURFV
 70
6
  9
$UCSBASE
  2

  9
$UCSNAME
  2

  9
$UCSORG
 10
0.0
 20
0.0
 30
0.0
  9
$UCSXDIR
 10
1.0
 20
0.0
 30
0.0
  9
$UCSYDIR
 10
0.0
 20
1.0
 30
0.0
  9
$UCSORTHOREF
  2

  9
$UCSORTHOVIEW
 70
0
  9
$UCSORGTOP
 10
0.0
 20
0.0
 30
0.0
  9
$UCSORGBOTTOM
 10
0.0
 20
0.0
 30
0.0
  9
$UCSORGLEFT
 10
0.0
 20
0.0
 30
0.0
  9
$UCSORGRIGHT
 10
0.0
 20
0.0
 30
0.0
  9
$UCSORGFRONT
 10
0.0
 20
0.0
 30
0.0
  9
$UCSORGBACK
 10
0.0
 20
0.0
 30
0.0
  9
$PUCSBASE
  2

  9
$PUCSNAME
  2

  9
$PUCSORG
 10
0.0
 20
0.0
 30
0.0
  9
$PUCSXDIR
 10
1.0
 20
0.0
 30
0.0
  9
$PUCSYDIR
 10
0.0
 20
1.0
 30
0.0
  9
$PUCSORTHOREF
  2

  9
$PUCSORTHOVIEW
 70
0
  9
$PUCSORGTOP
 10
0.0
 20
0.0
 30
0.0
  9
$PUCSORGBOTTOM
 10
0.0
 20
0.0
 30
0.0
  9
$PUCSORGLEFT
 10
0.0
 20
0.0
 30
0.0
  9
$PUCSORGRIGHT
 10
0.0
 20
0.0
 30
0.0
  9
$PUCSORGFRONT
 10
0.0
 20
0.0
 30
0.0
  9
$PUCSORGBACK
 10
0.0
 20
0.0
 30
0.0
  9
$USERI1
 70
0
  9
$USERI2
 70
0
  9
$USERI3
 70
0
  9
$USERI4
 70
0
  9
$USERI5
 70
0
  9
$USERR1
 40
0.0
  9
$USERR2
 40
0.0
  9
$USERR3
 40
0.0
  9
$USERR4
 40
0.0
  9
$USERR5
 40
0.0
  9
$WORLDVIEW
 70
1
  9
$SHADEDGE
 70
3
  9
$SHADEDIF
 70
70
  9
$TILEMODE
 70
1
  9
$MAXACTVP
 70
64
  9
$PINSBASE
 10
0.0
 20
0.0
 30
0.0
  9
$PLIMCHECK
 70
0
  9
$PEXTMIN
 10
1e+20
 20
1e+20
 30
1e+20
  9
$PEXTMAX
 10
-1e+20
 20
-1e+20
 30
-1e+20
  9
$PLIMMIN
 10
0.0
 20
0.0
  9
$PLIMMAX
 10
420.0
 20
297.0
  9
$UNITMODE
 70
0
  9
$VISRETAIN
 70
1
  9
$PLINEGEN
 70
0
  9
$PSLTSCALE
 70
1
  9
$TREEDEPTH
 70
3020
  9
$CMLSTYLE
  2
Standard
  9
$CMLJUST
 70
0
  9
$CMLSCALE
 40
20.0
  9
$PROXYGRAPHICS
 70
1
  9
$MEASUREMENT
 70
1
  9
$CELWEIGHT
370
-1
  9
$ENDCAPS
280
0
  9
$JOINSTYLE
280
0
  9
$LWDISPLAY
290
0
  9
$INSUNITS
 70
6
  9
$HYPERLINKBASE
  1

  9
$STYLESHEET
  1

  9
$XEDIT
290
1
  9
$CEPSNTYPE
380
0
  9
$PSTYLEMODE
290
1
  9
$FINGERPRINTGUID
  2
{71725835-5166-4999-8EC3-13E09CEEDCE3}
  9
$VERSIONGUID
  2
{E41B1AE2-3DCF-4219-9036-3ADB6AC32CF7}
  9
$EXTNAMES
290
1
  9
$PSVPSCALE
 40
0.0
  9
$OLESTARTUP
290
0
  9
$SORTENTS
280
127
  9
$INDEXCTL
280
0
  9
$HIDETEXT
280
1
  9
$XCLIPFRAME
280
1
  9
$HALOGAP
280
0
  9
$OBSCOLOR
 70
257
  9
$OBSLTYPE
280
0
  9
$INTERSECTIONDISPLAY
280
0
  9
$INTERSECTIONCOLOR
 70
257
  9
$DIMASSOC
280
2
  9
$PROJECTNAME
  1

  9
$CAMERADISPLAY
290
0
  9
$LENSLENGTH
 40
50.0
  9
$CAMERAHEIGHT
 40
0.0
  9
$STEPSPERSEC
 40
24.0
  9
$STEPSIZE
 40
100.0
  9
$3DDWFPREC
 40
2.0
  9
$PSOLWIDTH
 40
0.005
  9
$PSOLHEIGHT
 40
0.08
  9
$LOFTANG1
 40
1.570796326795
  9
$LOFTANG2
 40
1.570796326795
  9
$LOFTMAG1
 40
0.0
  9
$LOFTMAG2
 40
0.0
  9
$LOFTPARAM
 70
7
  9
$LOFTNORMALS
280
1
  9
$LATITUDE
 40
37.795
  9
$LONGITUDE
 40
-122.394
  9
$NORTHDIRECTION
 40
0.0
  9
$TIMEZONE
 70
-8000
  9
$LIGHTGLYPHDISPLAY
280
1
  9
$TILEMODELIGHTSYNCH
280
1
  9
$CMATERIAL
347
20
  9
$SOLIDHIST
280
0
  9
$SHOWHIST
280
1
  9
$DWFFRAME
280
2
  9
$DGNFRAME
280
2
  9
$REALWORLDSCALE
290
1
  9
$INTERFERECOLOR
 62
256
  9
$CSHADOW
280
0
  9
$SHADOWPLANELOCATION
 40
0.0
  0
ENDSEC
  0
SECTION
  2
CLASSES
  0
CLASS
  1
ACDBDICTIONARYWDFLT
  2
AcDbDictionaryWithDefault
  3
ObjectDBX Classes
 90
0
 91
0
280
0
281
0
  0
CLASS
  1
SUN
  2
AcDbSun
  3
SCENEOE
 90
1153
 91
0
280
0
281
0
  0
CLASS
  1
VISUALSTYLE
  2
AcDbVisualStyle
  3
ObjectDBX Classes
 90
4095
 91
0
280
0
281
0
  0
CLASS
  1
MATERIAL
  2
AcDbMaterial
  3
ObjectDBX Classes
 90
1153
 91
0
280
0
281
0
  0
CLASS
  1
SCALE
  2
AcDbScale
  3
ObjectDBX Classes
 90
1153
 91
0
280
0
281
0
  0
CLASS
  1
TABLESTYLE
  2
AcDbTableStyle
  3
ObjectDBX Classes
 90
4095
 91
0
280
0
281
0
  0
CLASS
  1
MLEADERSTYLE
  2
AcDbMLeaderStyle
  3
ACDB_MLEADERSTYLE_CLASS
 90
4095
 91
0
280
0
281
0
  0
CLASS
  1
DICTIONARYVAR
  2
AcDbDictionaryVar
  3
ObjectDBX Classes
 90
0
 91
0
280
0
281
0
  0
CLASS
  1
CELLSTYLEMAP
  2
AcDbCellStyleMap
  3
ObjectDBX Classes
 90
1152
 91
0
280
0
281
0
  0
CLASS
  1
MENTALRAYRENDERSETTINGS
  2
AcDbMentalRayRenderSettings
  3
SCENEOE
 90
1024
 91
0
280
0
281
0
  0
CLASS
  1
ACDBDETAILVIEWSTYLE
  2
AcDbDetailViewStyle
  3
ObjectDBX Classes
 90
1025
 91
0
280
0
281
0
  0
CLASS
  1
ACDBSECTIONVIEWSTYLE
  2
AcDbSectionViewStyle
  3
ObjectDBX Classes
 90
1025
 91
0
280
0
281
0
  0
CLASS
  1
RASTERVARIABLES
  2
AcDbRasterVariables
  3
ISM
 90
0
 91
0
280
0
281
0
  0
CLASS
  1
LAYOUT
  2
AcDbLayout
  3
ObjectDBX Classes
 90
0
 91
0
280
0
281
0
  0
CLASS
  1
ACDBPLACEHOLDER
  2
AcDbPlaceHolder
  3
ObjectDBX Classes
 90
0
 91
0
280
0
281
0
  0
ENDSEC
  0
SECTION
  2
TABLES
  0
TABLE
  2
VPORT
  5
8
330
0
100
AcDbSymbolTable
 70
1
  0
VPORT
  5
23
330
8
100
AcDbSymbolTableRecord
100
AcDbViewportTableRecord
  2
*Active
 70
0
 10
0.0
 20
0.0
 11
1.0
 21
1.0
 12
0.0
 22
0.0
 13
0.0
 23
0.0
 14
0.5
 24
0.5
 15
0.5
 25
0.5
 16
0.0
 26
0.0
 36
1.0
 17
0.0
 27
0.0
 37
0.0
 40
1000.0
 41
1.34
 42
50.0
 43
0.0
 44
0.0
 50
0.0
 51
0.0
 71
0
 72
1000
 73
1
 74
3
 75
0
 76
0
 77
0
 78
0
281
0
 65
0
146
0.0
  0
ENDTAB
  0
TABLE
  2
LTYPE
  5
2
330
0
100
AcDbSymbolTable
 70
3
  0
LTYPE
  5
24
330
2
100
AcDbSymbolTableRecord
100
AcDbLinetypeTableRecord
  2
ByBlock
 70
0
  3

 72
65
 73
0
 40
0.0
  0
LTYPE
  5
25
330
2
100
AcDbSymbolTableRecord
100
AcDbLinetypeTableRecord
  2
ByLayer
 70
0
  3

 72
65
 73
0
 40
0.0
  0
LTYPE
  5
26
330
2
100
AcDbSymbolTableRecord
100
AcDbLinetypeTableRecord
  2
Continuous
 70
0
  3

 72
65
 73
0
 40
0.0
  0
ENDTAB
  0
TABLE
  2
LAYER
  5
1
330
0
100
AcDbSymbolTable
 70
3
  0
LAYER
  5
27
330
1
100
AcDbSymbolTableRecord
100
AcDbLayerTableRecord
  2
0
 70
0
 62
7
  6
Continuous
370
-3
390
13
347
21
  0
LAYER
  5
28
330
1
100
AcDbSymbolTableRecord
100
AcDbLayerTableRecord
  2
Defpoints
 70
0
 62
7
  6
Continuous
290
0
370
-3
390
13
347
21
  0
LAYER
  5
2F
330
1
100
AcDbSymbolTableRecord
100
AcDbLayerTableRecord
  2
contours
 70
0
 62
7
  6
Continuous
370
-3
390
13
347
21
  0
ENDTAB
  0
TABLE
  2
STYLE
  5
5
330
0
100
AcDbSymbolTable
 70
1
  0
STYLE
  5
29
330
5
100
AcDbSymbolTableRecord
100
AcDbTextStyleTableRecord
  2
Standard
 70
0
 40
0.0
 41
1.0
 50
0.0
 71
0
 42
2.5
  3
txt
  4

  0
ENDTAB
  0
TABLE
  2
VIEW
  5
7
330
0
100
AcDbSymbolTable
 70
0
  0
ENDTAB
  0
TABLE
  2
UCS
  5
6
330
0
100
AcDbSymbolTable
 70
0
  0
ENDTAB
  0
TABLE
  2
APPID
  5
3
330
0
100
AcDbSymbolTable
 70
3
  0
APPID
  5
2A
330
3
100
AcDbSymbolTableRecord
100
AcDbRegAppTableRecord
  2
ACAD
 70
0
  0
APPID
  5
65
330
3
100
AcDbSymbolTableRecord
100
AcDbRegAppTableRecord
  2
HATCHBACKGROUNDCOLOR
 70
0
  0
APPID
  5
66
330
3
100
AcDbSymbolTableRecord
100
AcDbRegAppTableRecord
  2
EZDXF
 70
0
  0
ENDTAB
  0
TABLE
  2
DIMSTYLE
  5
4
330
0
100
AcDbSymbolTable
 70
1
100
AcDbDimStyleTable
  0
DIMSTYLE
105
2B
330
4
100
AcDbSymbolTableRecord
100
AcDbDimStyleTableRecord
  2
Standard
 70
0
 40
1.0
 41
2.5
 42
0.625
 43
3.75
 44
1.25
 45
0.0
 46
0.0
 47
0.0
 48
0.0
 49
2.5
140
2.5
141
2.5
142
0.0
143
0.03937007874
144
1.0
145
0.0
146
1.0
147
0.625
148
0.0
 69
0
 70
0
 71
0
 72
0
 73
0
 74
0
 75
0
 76
0
 77
1
 78
8
 79
3
170
0
171
3
172
1
173
0
174
0
175
0
176
0
177
0
178
0
179
2
271
2
272
2
273
2
274
3
275
0
276
0
277
2
278
44
279
0
280
0
281
0
282
0
283
0
284
8
285
0
286
0
288
0
289
3
290
0
371
-2
372
-2
  0
ENDTAB
  0
TABLE
  2
BLOCK_RECORD
  5
9
330
0
100
AcDbSymbolTable
 70
2
  0
BLOCK_RECORD
  5
17
330
9
100
AcDbSymbolTableRecord
100
AcDbBlockTableRecord
  2
*Model_Space
340
1A
 70
0
280
1
281
0
  0
BLOCK_RECORD
  5
1B
330
9
100
AcDbSymbolTableRecord
100
AcDbBlockTableRecord
  2
*Paper_Space
340
1E
 70
0
280
1
281
0
  0
ENDTAB
  0
ENDSEC
  0
SECTION
  2
BLOCKS
  0
BLOCK
  5
18
330
17
100
AcDbEntity
  8
0
100
AcDbBlockBegin
  2
*Model_Space
 70
0
 10
0.0
 20
0.0
 30
0.0
  3
*Model_Space
  1

  0
ENDBLK
  5
19
330
17
100
AcDbEntity
  8
0
100
AcDbBlockEnd
  0
BLOCK
  5
1C
330
1B
100
AcDbEntity
  8
0
100
AcDbBlockBegin
  2
*Paper_Space
 70
0
 10
0.0
 20
0.0
 30
0.0
  3
*Paper_Space
  1

  0
ENDBLK
  5
1D
330
1B
100
AcDbEntity
  8
0
100
AcDbBlockEnd
  0
ENDSEC
  0
SECTION
  2
ENTITIES
  0
LWPOLYLINE
  5
30
330
17
100
AcDbEntity
  8
contours
100
AcDbPolyline
 90
417
 70
1
 10
155.09264139519516
 20
238.83354211804004
 10
155.59158463326293
 20
239.16617094343053
 10
156.05079141294874
 20
238.1915248584959
 10
156.78121025910528
 20
237.82519498097986
 10
157.7335943010454
 20
236.73666370414833
 10
158.11663326653212
 20
235.71463700229276
 10
158.11647346700533
 20
235.09755015741737
 10
157.6781212731527
 20
234.1490780880118
 10
157.61415835326116
 20
232.46897641601544
 10
157.77022712153786
 20
232.26313918216314
 10
158.63459906084842
 20
232.10701726493616
 10
159.0904757615887
 20
231.84072445032996
 10
159.75002699555893
 20
232.0485036222934
 10
160.2348391011073
 20
232.80199075301047
 10
161.1848590317166
 20
233.3982217226879
 10
161.38883728197925
 20
234.32175827263765
 10
161.71701138450896
 20
234.8096124823673
 10
162.4248296339254
 20
234.90377950379406
 10
163.0641517505732
 20
234.55221157719424
 10
163.51600621755512
 20
233.97051474914744
 10
163.8974274416115
 20
233.73765315373294
 10
165.2375273879701
 20
233.32380937996302
 10
165.63251281459358
 20
233.42897694924443
 10
165.65907763521065
 20
233.8022494417853
 10
166.03778153127212
 20
234.5596338595816
 10
167.69560717785464
 20
233.91675915373315
 10
167.69562467418552
 20
233.07850511041156
 10
166.40185858198495
 20
232.00158958423725
 10
165.0145471444989
 20
230.4457776364683
 10
164.05378902059493
 20
228.77142698660884
 10
163.86412825651195
 20
228.03936546739942
 10
164.15282023233377
 20
226.86543684190315
 10
163.40939056919942
 20
226.4937058670129
 10
162.51781021165328
 20
226.36059629184732
 10
159.9949492009663
 20
224.626858480452
 10
158.9535449212886
 20
224.94471418216602
 10
157.68600887231608
 20
224.62096661112597
 10
156.4275289659679
 20
223.69598366812826
 10
156.28092232704535
 20
223.1627819293478
 10
156.33450955946114
 20
222.31607589240977
 10
156.79578464774846
 20
221.35636208077756
 10
156.82606136808388
 20
220.8839295493603
 10
157.72903578420616
 20
219.46178978311616
 10
157.81399209946787
 20
218.8669929687972
 10
157.7001984124913
 20
218.379708672046
 10
157.94991788597196
 20
217.61935262406948
 10
158.94208782174488
 20
216.91874845006868
 10
159.36879533987505
 20
217.26775857998007
 10
161.9863138610648
 20
217.1772484090622
 10
162.66655176577984
 20
216.6330780800691
 10
162.57877861396273
 20
215.5143481371051
 10
163.4811516062561
 20
214.78012588992752
 10
164.38124692258012
 20
214.84080599730405
 10
165.53777740254336
 20
215.97326650086936
 10
165.95829096936274
 20
216.67914528831304
 10
166.4779690278815
 20
217.12607856224383
 10
166.88555919113696
 20
218.3186286507896
 10
167.38889014917515
 20
219.06134847418832
 10
168.46743996005787
 20
220.24211303617437
 10
170.874475215897
 20
220.27807034054422
 10
172.2736056633311
 20
220.8512995132107
 10
172.99543528836398
 20
222.661377280449
 10
172.4645671435436
 20
224.09345094811758
 10
172.29755849622967
 20
225.16153382213176
 10
173.20518459195762
 20
226.55399562237352
 10
174.18807867758875
 20
227.19213628827907
 10
175.09542538632593
 20
227.5298514881622
 10
175.61583156471607
 20
228.08797332912758
 10
175.66931556830406
 20
229.0660743996012
 10
176.1241721663965
 20
229.52090709861392
 10
178.01062571467455
 20
229.4617862620565
 10
179.53953848610516
 20
230.94519887696282
 10
180.73720069648533
 20
230.31339919261106
 10
181.59070496680647
 20
229.41918663051453
 10
182.64493771400416
 20
229.20395249601424
 10
183.41080308689604
 20
228.4380646130233
 10
182.6133029001166
 20
227.80005818153347
 10
182.03001195205314
 20
227.68396793586962
 10
181.00971184061774
 20
227.78537940696725
 10
180.22916381993946
 20
227.57438793184758
 10
179.2886533682465
 20
227.07584845777015
 10
178.8789109823898
 20
226.6892679628134
 10
178.1312636769998
 20
225.06747050140666
 10
178.10815063733855
 20
224.6890599856809
 10
178.59578941333166
 20
223.7817280414275
 10
178.88236143810406
 20
222.6795044164723
 10
179.29223230319806
 20
222.498541674373
 10
179.9090411451153
 20
221.88170566211474
 10
179.90905612854058
 20
221.0444509188246
 10
179.26309600493468
 20
220.87973420120136
 10
178.88043252979273
 20
220.592949609919
 10
178.0551087321061
 20
218.97840493943497
 10
178.46616519007404
 20
217.99249814129257
 10
178.427893384049
 20
216.9916702147936
 10
178.68854380443753
 20
215.9743906884601
 10
177.74540378291928
 20
213.4164561790797
 10
177.3381808424491
 20
213.15937685408485
 10
176.2135046803933
 20
212.85121836346988
 10
175.81331761197615
 20
212.05396732549636
 10
175.4908327838456
 20
210.79865051844592
 10
176.04043686583395
 20
209.0835174511533
 10
177.26515601736722
 20
208.4898775457941
 10
179.57223904962285
 20
208.28295887626888
 10
180.6827245049244
 20
208.60320582436472
 10
181.29250597899545
 20
209.50989503366043
 10
181.9220475853675
 20
209.94965944921455
 10
182.28223093845594
 20
210.64872425200846
 10
183.92971348826916
 20
211.8608055127515
 10
184.14120389422982
 20
212.33659890504046
 10
186.25112009763097
 20
214.77398276382104
 10
186.99175849585703
 20
214.42834300178393
 10
187.5088327821386
 20
213.5023154643348
 10
188.43136259013147
 20
212.9689207776399
 10
188.7176486679241
 20
212.32172133236793
 10
189.23588924143374
 20
212.00626192073918
 10
191.67394524508367
 20
212.31852645518157
 10
192.1691610349463
 20
212.00227081106746
 10
193.5266692637902
 20
212.0062361773173
 10
194.08510153943487
 20
211.8202587157989
 10
195.55829451935
 20
211.2022775791211
 10
195.9871820181277
 20
210.87410940247096
 10
196.94545978594155
 20
210.95466073027447
 10
197.44573860748858
 20
210.56875311782218
 10
198.10944680987137
 20
210.56235262150102
 10
198.1273310488167
 20
209.89925372681685
 10
198.81714169495785
 20
209.26692226940105
 10
200.3234212014664
 20
209.10513112856668
 10
200.89236821019733
 20
208.72728097992362
 10
201.43850412069162
 20
207.99918875424612
 10
201.80763541213608
 20
206.98363463812208
 10
201.91876120702045
 20
206.08638070295325
 10
202.38974940462998
 20
205.15238082315534
 10
204.1867384226826
 20
203.8827440041408
 10
204.82207597245812
 20
204.2026011374847
 10
206.11198531486704
 20
205.99566408063006
 10
206.36225708045396
 20
207.48992814463068
 10
207.52655757370692
 20
209.29951863009202
 10
207.36505697295854
 20
209.86454455512543
 10
208.65558487464415
 20
211.15508255934296
 10
209.15542477320437
 20
211.3757810262951
 10
210.47225139790896
 20
212.82255520132168
 10
211.05432804168873
 20
215.0314857311373
 10
210.8967315599322
 20
215.55406743742432
 10
211.46287026164674
 20
216.68638395464802
 10
212.73298005582316
 20
217.62751800564737
 10
213.43465145626038
 20
218.6744541862881
 10
214.54388132366716
 20
218.9485327278025
 10
215.55162801396412
 20
218.7981401339297
 10
216.59041648072707
 20
219.11720286271486
 10
217.1576836116937
 20
218.3583084635571
 10
217.42299876549555
 20
218.26208017947368
 10
218.80282997686476
 20
218.75425863423246
 10
219.4245325818336
 20
218.88359527983812
 10
219.84702175395972
 20
218.64301450993122
 10
220.08693673593345
 20
218.83588047656096
 10
220.31247110661488
 20
219.59975153971715
 10
219.56635688324144
 20
220.14884984809288
 10
219.4533164456098
 20
220.66796062686174
 10
218.22599449861644
 20
221.02211311017044
 10
217.76738680749628
 20
221.5788829454924
 10
216.9586552296076
 20
221.97830806441272
 10
216.02220902398832
 20
221.72450372467043
 10
212.59083742326914
 20
221.8713596872358
 10
212.1001405666074
 20
222.09515688926805
 10
210.38320835457114
 20
221.83767137113563
 10
209.3254991518044
 20
221.38326936482053
 10
208.39609088966338
 20
221.4575150300563
 10
207.54195455595502
 20
221.3123213471315
 10
206.6237838496989
 20
220.26646335612975
 10
205.9707600649777
 20
219.8990858815879
 10
206.67577745180324
 20
219.06288717004617
 10
205.3932288951427
 20
219.06272545090368
 10
204.05205851598765
 20
219.61819422913757
 10
203.81148948114827
 20
220.0863115381643
 10
203.04026408424104
 20
220.65270631597315
 10
202.80366445012444
 20
221.63230731949267
 10
202.42681265620377
 20
222.25863394793853
 10
201.65351282915594
 20
222.39697429586082
 10
201.16232221074196
 20
222.23971441513658
 10
200.5213949513172
 20
222.45336213324828
 10
200.0327152856214
 20
222.8936664865534
 10
199.33927440064193
 20
222.88795258152618
 10
198.2655718411344
 20
222.39172153990376
 10
197.55218635788964
 20
222.7484044722886
 10
197.44070009787424
 20
223.1943887775526
 10
197.5445894519514
 20
223.68610776391344
 10
196.81265913048364
 20
224.58275900406997
 10
197.50316028882798
 20
225.92528287106566
 10
197.1878079211611
 20
226.24063523873312
 10
196.3665574946251
 20
226.2472575251288
 10
196.8448019728037
 20
227.20363304332525
 10
197.20647069058344
 20
227.56535377036815
 10
198.1327126974804
 20
227.4743165042387
 10
198.67121492631938
 20
228.00352181566078
 10
199.05608708639397
 20
228.0684676612553
 10
198.9156959344055
 20
228.41862614446734
 10
199.41901470576775
 20
229.51362309804492
 10
199.42562852143
 20
229.99057851161623
 10
200.11540269625198
 20
231.26283102562286
 10
199.80214791892723
 20
231.94971822876673
 10
200.96155689151965
 20
232.44057234118142
 10
202.14483509360446
 20
233.49355671273022
 10
202.1760264509606
 20
233.72646626676877
 10
201.69622026311538
 20
234.21042084168295
 10
202.6481912037289
 20
235.30794945425276
 10
202.74404441786376
 20
237.14963140072757
 10
202.83686371026246
 20
237.42818993443683
 10
203.32613756917306
 20
237.6397476658423
 10
203.65944045803786
 20
238.12849767653964
 10
203.64164578712303
 20
238.97328157830253
 10
204.2389458687238
 20
239.026374918882
 10
204.2645295189
 20
237.94435310808376
 10
203.77538821698593
 20
237.1696277805967
 10
203.32440412037738
 20
236.92414755987855
 10
203.26136884526173
 20
236.16329301752748
 10
203.39021512650726
 20
235.6353100295962
 10
203.19026854924485
 20
235.03541357478716
 10
202.6073588750331
 20
234.22512341273236
 10
202.96261492278734
 20
233.78747558458969
 10
202.59226356007284
 20
233.0472191947932
 10
201.34750760839003
 20
231.91207417110746
 10
200.67783292589812
 20
231.6886697147972
 10
200.76164633615628
 20
231.37155441205752
 10
200.60032776799693
 20
230.72626214755502
 10
200.036828976203
 20
229.82085642356486
 10
200.02527328215953
 20
229.33006277094194
 10
199.59663556052396
 20
228.5622489497053
 10
199.95161353288498
 20
227.94576469552808
 10
199.36230265267938
 20
227.35644109045396
 10
198.82450887199937
 20
227.34700225013293
 10
198.35825710508547
 20
226.4596107422594
 10
198.01773037747836
 20
226.67269566376223
 10
197.8450424706043
 20
226.5690390479045
 10
198.10944194670893
 20
226.19232690460575
 10
198.10944194670893
 20
225.4649877246586
 10
197.50908539603824
 20
224.69774350193495
 10
198.35508714679577
 20
223.71154993374324
 10
198.11340109549445
 20
223.1515931550448
 10
198.37053969430661
 20
223.05897947440658
 10
199.1557140735482
 20
223.4942111579174
 10
200.3285994497011
 20
223.4942114857934
 10
201.12815404382178
 20
222.8840638222115
 10
201.6292980055386
 20
223.02748967560927
 10
202.75828071560179
 20
222.84339897097945
 10
203.35363853275499
 20
221.8773709830371
 10
203.62135983915599
 20
220.92127115047006
 10
204.2595647305196
 20
220.5441304201588
 10
204.53184634234557
 20
220.04965407316848
 10
205.07785827472102
 20
219.941537395204
 10
205.78342047225976
 20
220.57615283403567
 10
206.24471347312755
 20
220.7724012345673
 10
207.2660805489278
 20
221.88589919216543
 10
208.31378620588765
 20
222.05729195262228
 10
209.29911066789163
 20
222.00038614319243
 10
210.1617945678856
 20
222.4007837683069
 10
212.22510901532885
 20
222.7496516126871
 10
212.7403839281447
 20
222.46436059199038
 10
215.98145727611194
 20
222.34194270006992
 10
216.99094118491314
 20
222.64000858702838
 10
218.09541428788663
 20
222.08632353498584
 10
218.61236689204262
 20
221.5263228764189
 10
219.46742856218012
 20
221.44687301620402
 10
220.03968593970558
 20
220.95634273240904
 10
220.15618742175724
 20
220.46555423786
 10
220.95324505249616
 20
220.03362530205928
 10
220.75845107280352
 20
218.76254375153653
 10
219.84168336673326
 20
217.25538610186996
 10
219.27441546762907
 20
218.23264801764591
 10
217.46989910076488
 20
217.60214238158767
 10
216.76791127662028
 20
217.83615047117755
 10
216.3572902817859
 20
218.3825626266021
 10
215.5310585051843
 20
218.17673713348682
 10
214.6027076919352
 20
218.3369626795985
 10
213.78008223222918
 20
218.10605861061902
 10
212.8510591041134
 20
216.89706891650349
 10
211.94379888884714
 20
216.29406271952038
 10
211.57212791049645
 20
215.56361578847535
 10
211.69615732835373
 20
215.0521017698624
 10
211.0097710981014
 20
212.50162098016045
 10
209.477366091238
 20
210.84919420690852
 10
208.98568214162614
 20
210.63589174696952
 10
208.0901285148363
 20
209.73175157932494
 10
208.19144479276875
 20
209.2816039052601
 10
207.63515794701286
 20
208.1691124476595
 10
206.93976813463252
 20
207.2943681203131
 10
206.73067116110244
 20
205.8742153788288
 10
206.20030560086568
 20
204.9195036340485
 10
205.1852989244057
 20
203.70153047210877
 10
203.98668598489988
 20
203.18119339378927
 10
201.8581678165082
 20
204.8320225623573
 10
201.36142408271377
 20
205.83113244768103
 10
200.88324121522498
 20
207.73489998705608
 10
200.1028539068246
 20
208.53279944893146
 10
199.2701309547508
 20
208.68229424601623
 10
198.68023326396687
 20
208.60733648303275
 10
197.51222301304247
 20
209.6566992909803
 10
197.45477823109266
 20
209.9284766181022
 10
196.78087952751937
 20
210.31470392477308
 10
195.80389702351496
 20
210.23785361018778
 10
195.27006234171003
 20
210.6614106270656
 10
193.49152832165086
 20
211.38498161799887
 10
191.97134533606592
 20
211.3995764172293
 10
191.44691729568027
 20
211.71870407481677
 10
189.1233097516719
 20
211.40089437955893
 10
188.53823578082103
 20
211.65182345837005
 10
188.17064132109215
 20
212.01943243481924
 10
188.0026890285879
 20
212.51266281244543
 10
187.04472563225036
 20
213.08745808759662
 10
186.4295645340432
 20
214.0211334075895
 10
184.67121910992108
 20
212.03864928903727
 10
184.44399194798942
 20
211.52559675990088
 10
182.67972787093157
 20
210.1897942133841
 10
182.45521573626735
 20
209.6096270641013
 10
181.76694956837548
 20
209.1014473835134
 10
181.0245754459831
 20
208.0927464319701
 10
179.637496417986
 20
207.67544193650622
 10
178.11748131264002
 20
207.90439073642196
 10
177.15084093614007
 20
207.86568858572986
 10
175.52171141164484
 20
208.594908875047
 10
174.84417927166623
 20
210.72135497012454
 10
175.25840458902397
 20
212.28882291861322
 10
175.8078623648415
 20
213.38830902894057
 10
177.27787476796166
 20
213.86318308384057
 10
178.06092273659473
 20
216.06092147457062
 10
177.74295759419581
 20
216.9412057349642
 10
177.92351915003195
 20
217.45167884021762
 10
177.87763048601485
 20
217.85900254958258
 10
177.35642785261697
 20
218.8486827118786
 10
178.4244212782441
 20
221.00422080307965
 10
179.2599170270073
 20
221.59214423190164
 10
178.971867673846
 20
221.96696402222952
 10
178.40883743617377
 20
222.16089654569456
 10
178.03506041569105
 20
223.56800109338903
 10
177.48218940496503
 20
224.5602060498443
 10
177.5343655073559
 20
225.16865943966084
 10
178.41477406924867
 20
227.1037186239944
 10
178.9682951074559
 20
227.6074300458971
 10
180.48832272731673
 20
228.27345506220684
 10
181.0460921843755
 20
228.41275681593893
 10
181.98886665518114
 20
228.28688083451644
 10
182.36946243345045
 20
228.37401891407706
 10
182.41305693274285
 20
228.58339164134802
 10
181.9629119601409
 20
228.7980988362117
 10
181.43427118777876
 20
228.80171402577844
 10
180.82988966172826
 20
229.20463916071793
 10
180.4071034295032
 20
229.79420838023765
 10
179.70995870870323
 20
230.10048306635707
 10
178.86829475842492
 20
229.5231015270241
 10
178.31640100631952
 20
228.9014340283268
 10
177.16976840567088
 20
228.8015364061432
 10
176.36051841929972
 20
228.90788233293372
 10
176.22885633039962
 20
227.85162707621026
 10
175.48378015349044
 20
227.00275553383247
 10
174.50064375001696
 20
226.6703591849684
 10
173.55522436755373
 20
226.05459113205552
 10
172.95963227062387
 20
225.09780363927393
 10
173.06152683366724
 20
224.19164661615116
 10
173.6267293910165
 20
222.7531864008996
 10
173.50310863443892
 20
222.1041498493684
 10
173.1544840896216
 20
221.680381274764
 10
172.88451293656524
 20
220.6547042632107
 10
172.60366482001976
 20
220.30367623641885
 10
171.08036687125914
 20
219.69180320110033
 10
168.69918277200114
 20
219.6651036321639
 10
167.43211644871457
 20
218.00917318998387
 10
166.99598256456812
 20
216.8129466926321
 10
164.9552675209484
 20
214.50227933733922
 10
164.3525544586009
 20
214.18243460026528
 10
163.18607487895707
 20
214.20786732516117
 10
162.35613929109536
 20
214.8249682309234
 10
161.8762837767527
 20
215.48676241701324
 10
162.0659906407984
 20
216.2876063704536
 10
161.807493835517
 20
216.54807912038794
 10
159.65011852670176
 20
216.66505366379974
 10
159.0522312964544
 20
216.10316268620343
 10
157.45051339565933
 20
217.269312848465
 10
157.07688008554038
 20
218.40827606274686
 10
157.14886130896366
 20
219.2627274242254
 10
156.2277464743541
 20
220.70968479531916
 10
156.19514870214812
 20
221.21464510828957
 10
155.7523919687833
 20
222.1672521376421
 10
155.68343168309326
 20
223.239937368761
 10
155.88053024978984
 20
223.99751308936996
 10
157.46282324043185
 20
225.1849805975516
 10
158.47954393740605
 20
225.52816810671987
 10
159.05075600703876
 20
225.5483644575195
 10
159.991024154329
 20
225.29632567805692
 10
162.2189174131967
 20
226.91908259441757
 10
163.38211045401746
 20
227.15770424833607
 10
163.2642880560387
 20
228.5337123676315
 10
164.0649744006961
 20
230.0219017166439
 10
164.5151426541691
 20
230.7958174120525
 10
167.03147123768102
 20
233.53103561024074
 10
166.37677658638228
 20
233.822583815018
 10
166.25874119919854
 20
233.09204441544117
 10
165.83219486398244
 20
232.80771719685816
 10
165.2282614108881
 20
232.70704927391964
 10
163.68968694765428
 20
233.16281685757804
 10
163.12869491325412
 20
233.49942808725663
 10
162.60182213636526
 20
234.12119141714845
 10
162.1154285088796
 20
234.2567501432442
 10
161.6272041663942
 20
232.95942579615001
 10
160.67524121635356
 20
232.36360493021647
 10
160.17755928672284
 20
231.5789189065043
 10
158.95332717944308
 20
231.20063097088615
 10
158.44064901284827
 20
231.51789809488702
 10
157.4112717449097
 20
231.7439276210951
 10
157.01727191226558
 20
232.17739873022833
 10
157.01094445436559
 20
232.78412218180756
 10
157.06872976871327
 20
234.26423967911393
 10
157.51086643575212
 20
235.23337511717048
 10
157.5108664357519
 20
235.58225614535834
 10
157.16289075532566
 20
236.4979091866116
 10
156.47194575974925
 20
237.28524351766993
 10
155.99179123165527
 20
237.45621807281287
 10
155.4838658903449
 20
237.87950440896205
 10
155.09264139519516
 20
238.83354211804004
  0
LWPOLYLINE
  5
31
330
17
100
AcDbEntity
  8
contours
100
AcDbPolyline
 90
16
 70
1
 10
182.493817479447
 20
7.660898034346584
 10
182.7298593206564
 20
8.444309846693319
 10
183.80114324694446
 20
9.140070532023495
 10
185.26063603382934
 20
9.41022771612424
 10
186.25688694663776
 20
9.974781612336102
 10
188.31520219245905
 20
9.919921387499404
 10
189.89248343024576
 20
9.161070633624297
 10
190.35615766575256
 20
7.712877000892697
 10
190.2789934245054
 20
6.1244909847048286
 10
189.84474208304968
 20
5.473119236836447
 10
188.71252631177427
 20
5.3269746027329585
 10
187.25165515680652
 20
5.304826765339076
 10
184.30866261330462
 20
5.697858318363973
 10
183.74225874024216
 20
5.980072513900389
 10
182.7071134570685
 20
6.880972320096498
 10
182.493817479447
 20
7.660898034346584
  0
LWPOLYLINE
  5
32
330
17
100
AcDbEntity
  8
contours
100
AcDbPolyline
 90
14
 70
1
 10
183.20193612556193
 20
7.301598675094366
 10
184.4860989218279
 20
6.27956295179378
 10
187.2936791354353
 20
5.920046710425372
 10
189.4692222396096
 20
6.0257068543442385
 10
189.6917790501942
 20
6.337306188138004
 10
189.79556219545074
 20
7.194555936820087
 10
189.44275200617975
 20
8.706218017798852
 10
188.15789681681417
 20
9.327232140368354
 10
187.74776046009464
 20
9.373254272670133
 10
186.3729252119468
 20
9.372243357815922
 10
185.4566592653579
 20
8.800355173916103
 10
184.03221261991814
 20
8.576214548766062
 10
183.20612435411311
 20
8.02676257828032
 10
183.20193612556193
 20
7.301598675094366
  0
LWPOLYLINE
  5
33
330
17
100
AcDbEntity
  8
contours
100
AcDbPolyline
 90
42
 70
1
 10
139.9282983149289
 20
238.95127678937897
 10
140.5200387078173
 20
239.04838290514095
 10
140.6240550910422
 20
238.4640788095627
 10
141.05276646055017
 20
237.74984050242378
 10
141.87884432040576
 20
237.01947397412735
 10
142.38195428529806
 20
236.88138989224473
 10
142.95898019959918
 20
236.4486092902757
 10
144.3039563077401
 20
234.4606598145039
 10
145.41770294925368
 20
234.9330008206741
 10
145.94081847777903
 20
235.451033827855
 10
146.8786207526735
 20
235.57532111441495
 10
147.3768920019813
 20
236.04885843264915
 10
147.89235298000247
 20
236.13961217367296
 10
148.21189911749084
 20
236.78120021889524
 10
148.867218342049
 20
237.2726608045141
 10
150.02764857951445
 20
237.18547278749438
 10
150.52553952665224
 20
236.8020345588654
 10
151.25761615596727
 20
236.79449202083416
 10
152.2991673493989
 20
237.37134724248148
 10
152.92949619273105
 20
239.07933496776786
 10
153.5076869152449
 20
238.92033251906633
 10
153.06994339739785
 20
237.44616549497155
 10
152.66407949321064
 20
236.8374100741816
 10
151.45163647709816
 20
236.18888450041226
 10
150.27653232439917
 20
236.21846238642314
 10
149.7973220107349
 20
236.5927891455003
 10
149.0401381333548
 20
236.6435798390055
 10
148.7459121561118
 20
236.41785702737613
 10
148.62355501785612
 20
235.95534221996903
 10
148.12226686355055
 20
235.5543691787347
 10
147.65105272810035
 20
235.4700278831684
 10
147.17725349604112
 20
235.00123070891019
 10
146.24629280637618
 20
234.88618403468928
 10
145.78078735193702
 20
234.442998365599
 10
144.74244479951244
 20
233.92358775422989
 10
144.09866911439047
 20
233.8153446841757
 10
143.43316785244969
 20
234.52832128690565
 10
142.48671004200054
 20
236.05207839940584
 10
141.6370193934162
 20
236.4508426693693
 10
140.57560265695454
 20
237.3772822625828
 10
140.05091622341183
 20
238.25168854049315
 10
139.9282983149289
 20
238.95127678937897
  0
LWPOLYLINE
  5
34
330
17
100
AcDbEntity
  8
contours
100
AcDbPolyline
 90
2146
 70
1
 10
-0.11119306860084645
 20
103.84700395209505
 10
0.1115132604680477
 20
104.40376977475918
 10
1.1591138070272762
 20
104.01632627146758
 10
1.2120480018490567
 20
104.19754321258026
 10
0.9662504315398801
 20
104.45942654314003
 10
1.959308311540161
 20
105.2699787214053
 10
1.6160089550864691
 20
105.72550876674451
 10
1.6160160686377603
 20
106.51395354250627
 10
2.283940618820341
 20
106.89011822382977
 10
2.2464548498838153
 20
107.31073825215252
 10
2.508402257633021
 20
108.13506227678995
 10
1.6160089550864687
 20
109.07821417756527
 10
1.6160040919240342
 20
109.98119029685506
 10
2.5189802112119293
 20
109.98118543369263
 10
3.5382088743958864
 20
108.96706895694666
 10
3.8239392840856685
 20
108.8372822322579
 10
4.065690798331221
 20
108.93921840773412
 10
4.479378402060355
 20
109.7332226297414
 10
4.489738957853103
 20
110.23110715721377
 10
4.728413670917728
 20
110.7316196441395
 10
4.71885735998305
 20
111.06637656865857
 10
4.304433246115509
 20
111.89703105202084
 10
5.718287328952086
 20
111.81952716107583
 10
6.102262273743193
 20
112.13649605493114
 10
8.211338384060662
 20
112.19281533233872
 10
8.881992584179955
 20
111.79039468700569
 10
9.058740524534684
 20
111.08335540757932
 10
8.458120490484454
 20
110.12117209072963
 10
8.521505880304813
 20
109.91098631111042
 10
9.4883794042113
 20
110.46014302164478
 10
9.993077788644154
 20
110.46608747205951
 10
10.537074148308681
 20
110.73499260915932
 10
11.522187531855641
 20
110.24245836626349
 10
10.772744556461888
 20
109.48188314851576
 10
10.598239635714748
 20
109.1100637226021
 10
10.665521526191517
 20
108.58829139528532
 10
10.85619681224346
 20
108.61037752696832
 10
11.370799347891664
 20
109.26274855995034
 10
12.044734411721215
 20
109.2627660521828
 10
12.50318327071139
 20
109.04554141443255
 10
13.480522051525988
 20
109.08823493949001
 10
14.665533058214523
 20
108.27692775431078
 10
14.01397019116939
 20
107.62536099250384
 10
13.114538295754217
 20
107.50951551385208
 10
12.577096443695853
 20
106.98675043804667
 10
11.883168983365001
 20
106.98675076592266
 10
11.28598850322571
 20
107.3849434689683
 10
10.578531459713837
 20
108.30559121074187
 10
10.403995323875963
 20
108.25881444483352
 10
10.202910346386826
 20
107.86365159761591
 10
8.32142689029004
 20
108.53815066590855
 10
8.318435662045218
 20
109.22160836595415
 10
8.145419848758117
 20
109.3404869767498
 10
6.396422910057029
 20
108.85634996872339
 10
6.05006723384189
 20
108.16591804678711
 10
6.050377197919966
 20
106.96474778522447
 10
6.35544649402088
 20
106.64007538475444
 10
6.890707049531648
 20
106.62847290932058
 10
7.300456625297269
 20
106.01644037190681
 10
8.442122849991648
 20
107.05253095879712
 10
8.602667208749072
 20
104.48804500861243
 10
8.939001045573338
 20
103.4200287542697
 10
8.47113731733805
 20
102.04650020072434
 10
8.670879156591527
 20
101.62921313819389
 10
8.841775882693055
 20
100.3347268325473
 10
9.471374042414482
 20
100.04478648945921
 10
9.933925600399776
 20
100.40202711705854
 10
12.127626253478118
 20
100.46886887386484
 10
12.150333567771304
 20
100.98154930931746
 10
11.913584933148616
 20
101.4682989267894
 10
11.83377815403771
 20
103.06673081623435
 10
12.191764270642404
 20
103.60983068823046
 10
12.39951749028041
 20
104.49756692191316
 10
12.779978304647509
 20
105.25846741480316
 10
13.753291039882075
 20
104.98533205304439
 10
14.309534624482056
 20
105.49608692798513
 10
15.025276329899109
 20
105.13816395904773
 10
15.588725971072932
 20
104.57479106490096
 10
15.78630594522862
 20
103.97852818751659
 10
15.67241118239926
 20
102.47791372141619
 10
15.81948835309739
 20
102.21065800977951
 10
16.626702884707708
 20
101.67134941475895
 10
16.43117024832035
 20
100.88920995545017
 10
15.332166329367393
 20
99.84240498204072
 10
15.445931601511798
 20
98.5008186868131
 10
15.606510829886963
 20
98.42753371341587
 10
17.88205814807603
 20
99.0145436792183
 10
18.77507276947975
 20
97.22845691382355
 10
18.4130306452523
 20
96.50433472844757
 10
17.80831398948598
 20
96.22097712829134
 10
18.416172315560505
 20
95.3180767367374
 10
19.25446800929245
 20
94.81715662111758
 10
20.116232464939156
 20
95.976124426259
 10
20.720535825803907
 20
95.37182810098317
 10
20.30152869281154
 20
94.53385173998308
 10
19.483596191421316
 20
94.4670028696255
 10
19.48359619142125
 20
93.49985415529103
 10
20.172657419008118
 20
92.92861137903336
 10
20.64206679040704
 20
92.99010207057476
 10
21.15271922776285
 20
92.74144999936966
 10
22.2795317343673
 20
92.73622391139797
 10
21.251729235706023
 20
91.71353944776709
 10
20.26382192376458
 20
91.35382030176159
 10
19.791285070135128
 20
90.86700400801607
 10
19.68732797183229
 20
90.51504775030801
 10
20.197520369416996
 20
89.7442537125542
 10
18.02980616429221
 20
89.85748984003008
 10
18.150231765841713
 20
89.08617234468741
 10
17.992196319873404
 20
88.45391643939413
 10
17.070313277200917
 20
87.4038486439144
 10
17.66958298148119
 20
87.24106247971358
 10
18.555168085378668
 20
87.9491213054319
 10
19.01546323178673
 20
87.95575754683132
 10
19.58365558512725
 20
88.29321668033293
 10
20.792997336393476
 20
87.89308513249817
 10
21.329169559803628
 20
87.00836139841289
 10
22.331891699668983
 20
86.991210336938
 10
22.343482198389044
 20
86.34141843790775
 10
22.875846447032952
 20
85.7926697843452
 10
22.517923478084857
 20
85.07692807893066
 10
22.13497241170648
 20
84.69390835795328
 10
20.944324091120247
 20
84.98155598717995
 10
20.52511807407905
 20
85.2473418733533
 10
20.226393143714798
 20
85.17988458601995
 10
19.833001930427216
 20
84.31856195944422
 10
19.937096929458562
 20
83.24789844229622
 10
19.42211287943611
 20
82.16584450595744
 10
19.554871632584476
 20
82.04289448105263
 10
21.14493481252651
 20
81.9621648497651
 10
21.881112014217308
 20
81.59674663634442
 10
22.464421152264617
 20
82.37242692318678
 10
23.28980266816069
 20
81.5470363234362
 10
23.425277388868796
 20
81.16256929586532
 10
23.892785736971387
 20
81.5570384644793
 10
24.221567892199452
 20
82.37382668633467
 10
25.008465561717845
 20
82.76731154307217
 10
25.615662243378292
 20
81.75551157557668
 10
26.26235528485403
 20
81.76677967420125
 10
26.842440724157434
 20
82.39501686782607
 10
26.595487748411312
 20
82.55989826084615
 10
26.372959222821112
 20
83.33867735471505
 10
26.595487748412836
 20
84.11745644857015
 10
27.220271116513118
 20
84.16156925336233
 10
27.535937055084467
 20
84.4820966499413
 10
28.073220806191898
 20
85.55432461272797
 10
31.43209210045662
 20
85.55433658944172
 10
31.46631296105049
 20
84.86678821264482
 10
31.767379916229462
 20
84.57239700984437
 10
32.2434783501914
 20
84.44760714152015
 10
32.74304129170893
 20
83.9440454443385
 10
33.32355557200261
 20
83.96243005104805
 10
33.50506047346246
 20
84.34759355652717
 10
33.45890479914887
 20
84.68469590498874
 10
32.66429726917762
 20
85.69198031463051
 10
32.485802741599905
 20
85.70074918847152
 10
32.090180360725874
 20
85.30944671601436
 10
30.832441820812644
 20
86.56719213347303
 10
30.786209688155253
 20
87.0003706771198
 10
30.12248879311138
 20
87.33909784092576
 10
29.85546368807066
 20
87.29185125535219
 10
29.298570590705665
 20
86.18522729781562
 10
28.162819864078262
 20
87.28660485726962
 10
27.773011366149266
 20
87.21750838608465
 10
27.293666365680334
 20
86.48609695031715
 10
26.751963335807236
 20
86.12494140357292
 10
25.879713826592607
 20
86.94685154376643
 10
25.44096069220539
 20
87.82441432402786
 10
26.79800718225526
 20
88.32350124669055
 10
27.4270217743282
 20
88.16937179248
 10
27.582694280515824
 20
88.29706554524562
 10
27.782746743545484
 20
89.90263504262842
 10
27.163458257760155
 20
90.55548486853893
 10
27.838106839690195
 20
91.14405572416591
 10
27.701096159846994
 20
91.82597008172165
 10
27.541500319175555
 20
91.93465646227482
 10
26.892422516095664
 20
91.66007791911856
 10
26.042685370746053
 20
91.66360213299633
 10
26.04283573356686
 20
92.5219312969023
 10
26.67512301154576
 20
93.4543986032899
 10
27.67213947223855
 20
93.54644777864631
 10
27.665197449913997
 20
93.95208859884782
 10
27.300598763846022
 20
93.87899297224534
 10
26.266576784365242
 20
94.2236759922726
 10
27.176410570337094
 20
95.13349004291334
 10
27.531287813722855
 20
95.17469527512337
 10
27.564279331829834
 20
95.4047105369248
 10
26.64406234745564
 20
95.78468173234532
 10
25.76404771234655
 20
96.61404327698439
 10
25.240713222126324
 20
96.70904925878364
 10
24.865361884047687
 20
97.08440059687739
 10
24.761739693220086
 20
97.58574287759832
 10
24.02134610815785
 20
98.31065280066599
 10
23.846503821522223
 20
98.2640505478789
 10
23.170532285787402
 20
97.22422412889202
 10
22.581801273615387
 20
96.92861499326376
 10
21.961277612335024
 20
96.92861671335197
 10
20.828984027046356
 20
97.49478498602922
 10
20.622558809379953
 20
98.11386263678283
 10
20.513547636511575
 20
98.76823894475667
 10
21.217391755172198
 20
99.32525030952773
 10
21.253278641017165
 20
99.62307406439282
 10
21.85293378382359
 20
99.62307406439282
 10
21.8645242825442
 20
98.79432424953812
 10
22.353889489327102
 20
98.48925495343285
 10
23.21591377734439
 20
99.31674741363831
 10
23.823705159534782
 20
100.16254815914446
 10
24.37499380313156
 20
100.17292620716906
 10
25.518856505306864
 20
100.74394426544193
 10
25.932127783848184
 20
100.14788563769564
 10
26.728861871895777
 20
100.16916164693048
 10
27.82616001007733
 20
101.29126459851634
 10
28.353837124160396
 20
100.6059507578156
 10
28.956518979704743
 20
100.82687598302861
 10
28.934143386028683
 20
101.38800141158924
 10
28.3159195489275
 20
101.99917981477843
 10
27.903749750306552
 20
101.71821336390146
 10
26.81545529018938
 20
101.71819940889769
 10
27.186765863932518
 20
102.50471803054046
 10
26.47861742720728
 20
103.37393239878382
 10
26.655530446495504
 20
103.91324925819279
 10
26.559444362400804
 20
104.24260497646532
 10
26.25634457275086
 20
104.49422028287137
 10
25.804524604441703
 20
104.28748020628449
 10
25.200228279136862
 20
104.89178356713481
 10
25.686146515808886
 20
105.37764291696314
 10
26.401888221227235
 20
105.73556588590114
 10
26.950636874786472
 20
105.20320163725815
 10
27.62214022143007
 20
105.21711545218173
 10
27.79599238198432
 20
105.47777826941773
 10
27.79904201509276
 20
105.94047831122691
 10
28.617087987817893
 20
106.95220638545155
 10
28.52170343595023
 20
107.5206006179769
 10
27.719215367927504
 20
108.12029834589835
 10
27.71903807616828
 20
108.79078930689128
 10
28.02597291286697
 20
109.40769062484264
 10
28.669154800675468
 20
109.83820235667112
 10
28.692140006491698
 20
110.03534496673105
 10
27.92241251972154
 20
110.09334064955422
 10
27.392566723395838
 20
109.58881697205796
 10
26.65073300153525
 20
109.77424057332695
 10
26.40444602746708
 20
110.0821193098192
 10
26.545446463702397
 20
110.78709461086393
 10
27.29244072416705
 20
111.61189695982607
 10
26.232284033658008
 20
112.89831640847916
 10
25.963430158373868
 20
113.7026536582888
 10
26.82164572512548
 20
113.98874249870273
 10
27.9848449334642
 20
113.50609121539155
 10
28.22434693141043
 20
113.14682412250107
 10
28.296962231152026
 20
112.1464877600994
 10
28.899446732049675
 20
111.85926311725242
 10
29.51625557396757
 20
111.2424271050087
 10
29.516248460416293
 20
110.45398232924886
 10
28.80748914887961
 20
110.09857229560616
 10
28.743427015925942
 20
109.9300527424397
 10
29.310323967382374
 20
109.81967114662126
 10
30.55190404071943
 20
108.7699260805239
 10
29.901545698335717
 20
107.62534256626707
 10
30.172755230534325
 20
106.44434390717204
 10
31.062467063790102
 20
105.46226169524586
 10
31.216329119190128
 20
104.15437226847492
 10
32.2754765886046
 20
104.23368333015617
 10
32.73704269577361
 20
103.31825634318483
 10
33.71235033610617
 20
103.27576749849982
 10
34.22682371484393
 20
102.38327312302515
 10
34.55178336883047
 20
102.16121256271873
 10
35.39052332513421
 20
102.15772870972879
 10
36.018755920704216
 20
102.54880954290826
 10
35.91035191302376
 20
103.02025161104011
 10
36.81851618595673
 20
104.10556126748956
 10
36.48322540194946
 20
105.34601388479767
 10
36.44022022421007
 20
106.33484992465947
 10
36.6457074528493
 20
107.31578539681095
 10
36.16237279819611
 20
108.37218363007653
 10
35.622016115975875
 20
108.4236193223805
 10
35.5779097045572
 20
109.12207472373395
 10
35.30003237007205
 20
109.37490377581166
 10
34.66410028430341
 20
109.38153515404863
 10
34.65746890606648
 20
110.49642515564048
 10
34.120145536944364
 20
111.05903362246467
 10
34.500959760187
 20
111.82068697500665
 10
35.4824888733124
 20
112.09604620283424
 10
36.22166502426212
 20
111.80018331638408
 10
36.23326175750201
 20
110.76827214533049
 10
36.82482182105487
 20
110.1603206412774
 10
36.656345487405126
 20
109.78265481752433
 10
37.99964713285753
 20
109.46447353809916
 10
39.54530253231137
 20
107.9188290515948
 10
39.94842225042294
 20
107.05201532170827
 10
41.01123844037593
 20
106.51395354250629
 10
41.18632532251417
 20
104.34516210038043
 10
40.88883025939842
 20
103.89897094022841
 10
40.0328837875908
 20
103.71002986707735
 10
39.86408993712911
 20
103.40255032212153
 10
39.877321978680655
 20
102.14715273606399
 10
40.35781037486993
 20
101.59828100679363
 10
39.976996151631816
 20
100.83662765426071
 10
39.502733486254506
 20
100.5624351704666
 10
39.63271738217662
 20
99.97450975669679
 10
40.53229250126258
 20
99.92307406439282
 10
40.57463678786834
 20
99.36435610764933
 10
41.23147681742064
 20
99.12842086985869
 10
42.257477862122435
 20
99.29565919324038
 10
42.32743180077229
 20
99.74743712505352
 10
42.79479435473462
 20
100.2311979970344
 10
42.80638971661767
 20
100.70535295670435
 10
43.27871139104556
 20
101.20297364196281
 10
43.28534763244474
 20
102.6211846200288
 10
43.902162842917214
 20
103.2380245682702
 10
44.494437612723345
 20
103.43539047454485
 10
45.17194695935309
 20
103.43541028476281
 10
45.86740899383907
 20
101.88417781436821
 10
46.583108467723854
 20
101.83890086455484
 10
47.2376984597524
 20
101.1843108725498
 10
47.238737620052554
 20
100.15917265184784
 10
47.48333148761561
 20
99.13206902612069
 10
47.405085103637326
 20
98.71292143144476
 10
48.85370741483361
 20
97.23589510105955
 10
49.50020517637005
 20
97.83640841788029
 10
49.51180053825163
 20
98.78952129338204
 10
50.7809956651542
 20
100.23754102350323
 10
50.992985442518155
 20
100.74964566000843
 10
51.56708999498251
 20
101.42404805499392
 10
50.98156569273992
 20
102.10045175845083
 10
50.885413885298235
 20
102.43628942709282
 10
50.82305272626849
 20
103.01468128685902
 10
50.977094519245185
 20
103.45506864562631
 10
50.780827084248116
 20
104.30244666448287
 10
49.724139800363616
 20
105.9193793495756
 10
50.406177536042385
 20
106.51416077820201
 10
50.760861961647386
 20
107.55753548927534
 10
50.279089387981706
 20
108.20018927072695
 10
50.91226851792392
 20
109.7052577475283
 10
50.46969887769166
 20
112.62589673637976
 10
50.762637644174575
 20
113.2116490753838
 10
51.189294143506864
 20
113.63837149712678
 10
51.94797778125648
 20
113.2592168971787
 10
52.30212687770962
 20
112.55511022044607
 10
52.24208175553963
 20
112.24885592722241
 10
53.02750448791321
 20
111.7294656472212
 10
52.884139197387626
 20
110.72878416954615
 10
53.35019484162021
 20
110.5929616793364
 10
53.805029550046044
 20
109.79180140393858
 10
53.95233597425859
 20
109.20240480962455
 10
53.839013954478744
 20
108.70147812071107
 10
54.237671473850575
 20
107.43575759151014
 10
55.479340406923704
 20
106.69944366687116
 10
55.79445408913671
 20
106.99311869402703
 10
56.20119814679437
 20
107.80467961267777
 10
56.21720649674147
 20
108.24431654935877
 10
56.816861639547895
 20
108.24431654935877
 10
57.04448848087351
 20
106.90910406853439
 10
57.47909300505848
 20
106.03520286236757
 10
58.134869548000765
 20
105.22749802438216
 10
58.55705636353225
 20
105.19160627537558
 10
59.652854227584676
 20
104.09583314906003
 10
60.101336409480794
 20
102.2328684385225
 10
60.46088976442369
 20
102.02224105193659
 10
61.23583399692949
 20
102.31787799270366
 10
62.00167821449564
 20
102.3178686184427
 10
62.261287588878474
 20
101.5390757177617
 10
61.769137878540256
 20
100.4741255381934
 10
61.613072176092174
 20
98.80818406280098
 10
62.03195153419073
 20
98.36395368460718
 10
62.489111721272295
 20
97.46278665821777
 10
63.419850888515434
 20
96.98602753395119
 10
63.83776482539731
 20
96.42882051296924
 10
64.13400847508031
 20
95.92140737179977
 10
64.4801466535801
 20
94.88231589429157
 10
64.48674896751169
 20
94.19397424714606
 10
64.62905822122259
 20
94.08728884050355
 10
65.84071858840362
 20
94.62340359726453
 10
65.95243254993511
 20
94.81941985597182
 10
65.78807428439339
 20
95.27568991744562
 10
65.87703620018426
 20
96.78752894088043
 10
66.21071781006623
 20
98.1987937357237
 10
65.84658021858374
 20
99.66344111555237
 10
66.16318847847086
 20
100.16954252425931
 10
66.15969850329896
 20
100.4879133732117
 10
65.79640645264864
 20
101.49042959670044
 10
65.78599162851175
 20
101.96617616785268
 10
65.25241006599185
 20
103.03515475429438
 10
65.81321184657683
 20
103.59962593308998
 10
65.90046500344458
 20
103.91189896239402
 10
65.47688710754746
 20
104.80462662757724
 10
65.47706439930667
 20
105.49493211502255
 10
65.86052197661061
 20
105.88952633712906
 10
65.8870618228196
 20
106.26708407457595
 10
65.19354561546238
 20
106.68423674516855
 10
65.5825160136107
 20
107.33770829655747
 10
65.57201052427456
 20
107.59036996622328
 10
65.04311880106629
 20
108.06083203953999
 10
64.81308409725453
 20
109.14936080207606
 10
64.54594662921885
 20
109.46750833046212
 10
63.401575234202504
 20
109.38153515404863
 10
63.4007583602745
 20
110.54693747010472
 10
63.24703950243202
 20
110.87718477023249
 10
62.02751180777392
 20
111.20052449981708
 10
61.90058533334515
 20
111.58116511543312
 10
62.015724170078165
 20
112.09916383455582
 10
64.55877363747273
 20
112.24011344533213
 10
64.79292692094332
 20
113.0407559474944
 10
64.08464666938674
 20
114.47094188376887
 10
64.47402240940579
 20
115.24971539428654
 10
65.28817942428009
 20
115.24970554194404
 10
65.77367446136783
 20
114.60239516707053
 10
66.07159777211659
 20
113.27511983899554
 10
66.79143148197504
 20
112.4958917835615
 10
67.539141420385
 20
112.69603796516823
 10
67.74995531962905
 20
113.43551887633538
 10
69.27131685647716
 20
114.95680123359887
 10
69.85392451817772
 20
115.24834439959434
 10
70.47760014319115
 20
115.24974000007026
 10
71.35647619503908
 20
114.93702893880221
 10
71.98562525056956
 20
115.03804639042208
 10
72.33413706494068
 20
114.51524159099748
 10
72.05979444697407
 20
113.69215142164023
 10
71.47176624537015
 20
113.68911195446734
 10
71.1027636963072
 20
113.45563325715591
 10
70.61944347086862
 20
112.46959858951448
 10
70.17270450569944
 20
112.3174606052621
 10
70.0464407326596
 20
112.11436376608175
 10
70.7790505499436
 20
110.76138121454073
 10
71.12235743739998
 20
109.61687378827507
 10
70.6118436720571
 20
108.97877236424603
 10
70.0424496969594
 20
108.57005115993498
 10
70.08066946325313
 20
107.31854450526093
 10
70.48538455842403
 20
107.11018747432055
 10
71.40162672042062
 20
107.10733558299962
 10
73.30695379685308
 20
106.64723910055717
 10
74.65969255787296
 20
107.10744694298863
 10
76.0472718307798
 20
107.11048724393264
 10
77.06357588927571
 20
107.58635907841648
 10
77.71537299679831
 20
107.5863958545282
 10
78.09940382886688
 20
107.29689354146743
 10
78.5490981963915
 20
107.71059336413975
 10
79.75192975638224
 20
106.50777694960175
 10
78.66478478893569
 20
106.48990342011146
 10
78.33233920473155
 20
106.15843663978605
 10
78.17255637042439
 20
105.6877276166537
 10
77.5064543532499
 20
105.11335365303997
 10
76.60059912570112
 20
104.90732669594118
 10
76.1438381716739
 20
105.01380005567864
 10
73.94502250164962
 20
103.92972463021756
 10
73.40518921104007
 20
103.04312692291849
 10
72.8398146678865
 20
103.33632479840335
 10
72.61069975114306
 20
103.26271930740614
 10
72.53284950847545
 20
102.84966646455436
 10
73.46584027171677
 20
102.79683983207966
 10
74.47218150053573
 20
101.25171213988715
 10
74.87582771694115
 20
100.85067124831117
 10
75.23748884145272
 20
100.724947255972
 10
75.60969583480532
 20
100.73915991041183
 10
76.5424876206425
 20
101.35994262085066
 10
77.2364150809517
 20
101.35994294872667
 10
77.52481383149193
 20
101.19662560783291
 10
78.01093743007938
 20
101.66442360134009
 10
78.84891379108097
 20
101.24541646836106
 10
78.84892090463227
 20
100.45697169258538
 10
78.69886644360274
 20
100.15232114337583
 10
79.69868193448517
 20
99.6231564963667
 10
79.7045665449908
 20
99.54305993737033
 10
78.30891074035729
 20
98.91401302137763
 10
78.0754610151667
 20
98.22923044988907
 10
78.24298638983416
 20
97.89905342511588
 10
78.81381142241422
 20
98.12726984456879
 10
79.76390193883927
 20
99.46783088208679
 10
80.51357841933434
 20
99.44407450927869
 10
82.1223264786595
 20
98.89047942222545
 10
82.37841359259461
 20
98.48390483096819
 10
82.73552880680744
 20
98.72567441164816
 10
83.4628679867815
 20
98.72567441164816
 10
83.94529306196196
 20
98.30287956891053
 10
84.75704798630254
 20
98.02981030097975
 10
85.25450901804493
 20
98.10896295257251
 10
85.90458110242382
 20
97.97892910255793
 10
86.41816605319774
 20
97.29418481352873
 10
86.24369932588223
 20
96.59620100853493
 10
85.8426550886069
 20
96.14211727013632
 10
85.97708899704156
 20
95.73760767197459
 10
86.33777029470846
 20
95.37182810098032
 10
86.01736765246469
 20
94.72864562361785
 10
85.82639234432392
 20
93.75148063142407
 10
85.3257804478536
 20
93.16379773518707
 10
84.28224920456054
 20
92.72493544072069
 10
83.64038527103916
 20
92.94963167562143
 10
83.26814118716868
 20
93.28811149825873
 10
82.46804713577072
 20
93.21028844029632
 10
82.05368903002996
 20
92.55115182367977
 10
80.48767320301457
 20
92.89045345392884
 10
79.7128564429743
 20
92.49880718908611
 10
78.12012252456759
 20
90.86323169414977
 10
78.13638320785682
 20
90.6757298999664
 10
79.16562643828455
 20
89.76636823106196
 10
79.84167269266878
 20
90.32116949692744
 10
80.56347421868544
 20
90.4653496675469
 10
80.8856601697994
 20
90.13907595688548
 10
80.73016332146405
 20
89.36254604554303
 10
79.74466364324896
 20
88.84132355041844
 10
79.60311590870019
 20
87.54602463595255
 10
79.24218024707255
 20
86.94411904997006
 10
78.75226003132047
 20
86.68896225527837
 10
77.97397769271586
 20
85.60762355777898
 10
77.89100474510212
 20
84.20581427394642
 10
77.5070677873898
 20
83.62958862904743
 10
77.2709794012612
 20
83.39467318337586
 10
75.80434428962276
 20
83.02725928459088
 10
75.51410459591335
 20
82.74403284632908
 10
75.76032175461424
 20
81.56251670101432
 10
76.29662551722139
 20
81.1068985141313
 10
77.35738659187788
 20
81.20101304829582
 10
77.92608396361366
 20
81.94225334641588
 10
78.85993861525579
 20
82.17266581285624
 10
80.1231998302507
 20
83.5792880338948
 10
80.92446333125484
 20
83.88537632456992
 10
81.7191290389129
 20
83.91399818021341
 10
82.19557856395645
 20
84.55936871466623
 10
83.83716085710726
 20
85.09828739706887
 10
85.33391807637906
 20
84.37532151444613
 10
86.00555825128583
 20
84.75857357567226
 10
86.5216352841708
 20
85.55431538646029
 10
87.29453131343348
 20
85.55433172627927
 10
88.05441419195351
 20
84.984296702552
 10
88.98639522536757
 20
85.14722393702908
 10
90.47300274408853
 20
86.81830646136676
 10
90.53199617480263
 20
87.49415720650379
 10
90.03718674235913
 20
87.95067557392322
 10
89.68688508446495
 20
88.65118813895565
 10
90.50159119145907
 20
89.6730556900377
 10
90.76331584526807
 20
90.81179695505733
 10
91.22887452375036
 20
91.20839132232666
 10
91.493395773542
 20
92.00392811528953
 10
91.46461482929757
 20
92.48695155666165
 10
91.77873158299367
 20
93.27219564428015
 10
92.3257995557221
 20
93.14854603007181
 10
92.65041302116384
 20
93.45964176004273
 10
92.61244221045001
 20
93.75295110988763
 10
91.93272228777013
 20
94.43684714381709
 10
92.67290522719904
 20
94.80995989069868
 10
93.70016504270409
 20
95.74792670283989
 10
94.80086654104568
 20
96.44936408470679
 10
95.8701540974997
 20
95.97441593123332
 10
96.18708539761643
 20
95.98741209108309
 10
96.69527854684672
 20
96.3651835991516
 10
98.3396707349462
 20
95.94259712147966
 10
98.94990965132108
 20
95.17418339512606
 10
99.05864390675058
 20
94.09708549755332
 10
99.99613888683209
 20
94.83232409621014
 10
100.56630317637679
 20
94.92995378507543
 10
101.64188243533525
 20
94.82358243714835
 10
102.08699314503845
 20
94.54544978807905
 10
102.29220973205814
 20
93.77158812903285
 10
102.53695022759968
 20
93.4791533814057
 10
103.91594753438147
 20
93.99961023933149
 10
104.58618215074385
 20
93.91676925334806
 10
104.99026476300952
 20
93.46185388057016
 10
106.00067162812314
 20
93.2866904065469
 10
106.51545957877153
 20
92.51874204760222
 10
107.40590723478
 20
92.36493200194951
 10
107.71567992096783
 20
92.16735101210763
 10
108.13294787503882
 20
92.51187091587587
 10
109.28787751749059
 20
92.32152133810457
 10
109.59797846275315
 20
92.2027087102362
 10
109.89427809441227
 20
91.74362373643207
 10
110.33123092632414
 20
91.62756303389259
 10
110.8618447601609
 20
90.98665214520057
 10
111.65483122573069
 20
90.5967671836358
 10
112.41646981192129
 20
90.74611915255564
 10
112.53211204137733
 20
91.02472981345203
 10
112.24785442349979
 20
91.95261161980501
 10
112.2652492955525
 20
92.82541703469803
 10
111.53125747479959
 20
93.78327901761376
 10
111.55545649349556
 20
94.2695863859603
 10
111.38513979796902
 20
94.59593784205791
 10
110.63843229958273
 20
95.17987263453581
 10
110.57177602104143
 20
95.84807562970332
 10
110.83269455466231
 20
96.37554762045426
 10
110.98985789672149
 20
97.33696759629147
 10
111.29647465869792
 20
97.8289873203729
 10
111.2973716805301
 20
99.74743712505355
 10
111.67858902034699
 20
100.18854520681514
 10
111.489689739852
 20
101.03644855588496
 10
111.52261259720783
 20
102.49765732988003
 10
110.99052768039202
 20
103.44339460777923
 10
110.73852514627879
 20
103.48028247447627
 10
109.85235625144205
 20
102.82435085353481
 10
109.27809120539747
 20
102.33891364755101
 10
109.11312565312453
 20
101.94497929150161
 10
109.10244293319776
 20
101.17879818753008
 10
109.74491105131095
 20
99.927088681967
 10
107.6424784399831
 20
99.43539855229935
 10
107.69385048025958
 20
98.63673250443945
 10
107.48956207390253
 20
98.12603036652438
 10
106.6834245984059
 20
98.12602899516662
 10
106.32175588062721
 20
98.4877497222084
 10
105.6185143044313
 20
99.75943627173885
 10
104.01034756019399
 20
100.2561192690212
 10
103.59844832613302
 20
100.01615843516146
 10
103.48980661488804
 20
99.44583907928131
 10
101.96461025413213
 20
98.65835926849044
 10
101.56760968962278
 20
98.99863936886686
 10
101.3991246824212
 20
100.15661301903111
 10
101.8088550899858
 20
100.90689286202584
 10
101.39126210256201
 20
101.07129816711101
 10
100.99568533660725
 20
101.4668665153381
 10
101.4552915134585
 20
102.58622703739621
 10
101.83520330723775
 20
104.01243866663513
 10
101.79123468566345
 20
104.96114606844496
 10
102.0860198377854
 20
105.53280526794065
 10
101.4200436887441
 20
105.69365563935996
 10
100.89885995446627
 20
106.14042258127209
 10
100.39685538786618
 20
108.11555131906557
 10
99.72307869452041
 20
108.26379425517827
 10
99.29233558100056
 20
108.07831025577681
 10
99.03229939403523
 20
107.57936553322303
 10
98.46998675796381
 20
107.05047075832721
 10
97.69027157411445
 20
106.72047254211043
 10
96.95780034241551
 20
107.08667306256135
 10
96.83005421209934
 20
108.32290339519999
 10
97.67690286804971
 20
110.70346391068203
 10
97.6399122935821
 20
111.17472893632416
 10
97.8170773538548
 20
111.56702139983993
 10
97.69628478184725
 20
111.73309411196618
 10
96.31227315685855
 20
111.09273806327671
 10
94.44724725861369
 20
110.98259818378774
 10
94.48005486386657
 20
110.58007570664253
 10
93.87575150300435
 20
109.97577938133949
 10
93.2714481421421
 20
110.58007570664253
 10
93.51768752385144
 20
111.08002501147223
 10
93.45298474028064
 20
111.29335219978147
 10
93.6411243247223
 20
111.38551813037748
 10
94.08916130680956
 20
112.22819126658877
 10
94.50868491323277
 20
114.12490706650578
 10
95.52242391441759
 20
114.86037994339652
 10
95.73068092921056
 20
115.91317955519074
 10
95.74285451465246
 20
118.17311954478184
 10
95.34358580438504
 20
118.2556739255948
 10
94.43401821890842
 20
117.8354739148034
 10
93.98804246007262
 20
117.85528305762597
 10
93.0177815098538
 20
117.04484415187167
 10
92.38113544363948
 20
117.04485766623209
 10
91.74959459882996
 20
117.29748201959897
 10
91.38889205537562
 20
118.2562009178076
 10
91.22443739405388
 20
119.52570964951543
 10
90.48956618385112
 20
120.10823508003
 10
90.66886706902832
 20
120.66709226280372
 10
90.47930369727514
 20
120.81584890489462
 10
89.66481000308224
 20
120.56193906856046
 10
89.18908062813055
 20
120.13679412949814
 10
88.6912128766698
 20
120.21357939430656
 10
88.47227929062791
 20
120.08375892011021
 10
88.42807922126529
 20
119.61528832585353
 10
87.61772869926298
 20
118.7133452657528
 10
88.07206535992461
 20
117.64853156774937
 10
87.32873352856944
 20
117.39448573231833
 10
86.62948474673422
 20
116.61935107100825
 10
86.21588143943434
 20
116.41231008221004
 10
85.70031040866662
 20
116.56698511731143
 10
85.18019002667937
 20
115.79949974869928
 10
85.00965729760135
 20
115.12902002375915
 10
84.35356142939818
 20
115.12799584688439
 10
83.73665784969775
 20
114.92617921745334
 10
83.37805393480467
 20
115.28480139847355
 10
83.15841683367852
 20
116.87509159128892
 10
83.4305675184041
 20
118.38218950903915
 10
83.6146463429286
 20
118.84190550522669
 10
84.61383212750036
 20
118.90233402425724
 10
84.91956299837702
 20
119.35001159602066
 10
84.4843938111161
 20
121.0423860392444
 10
83.7519804039389
 20
121.65696567408993
 10
83.24789844229493
 20
121.67479351809646
 10
82.82401685988886
 20
121.9605289994271
 10
82.71138470960109
 20
122.63739155877295
 10
82.93217862352405
 20
124.2192624013876
 10
83.58990487633105
 20
125.05560680220262
 10
83.5055764566595
 20
125.49895850747765
 10
83.67114722151287
 20
126.01789619988581
 10
83.49987670995088
 20
126.95872876076524
 10
83.62604044998733
 20
127.30577758876764
 10
83.13545250534656
 20
127.86410307157482
 10
82.9258267310371
 20
127.81911010873999
 10
82.84684857808774
 20
127.39455234734963
 10
83.24626945889212
 20
126.34223584108014
 10
82.06019645442126
 20
125.69642294006483
 10
81.70072842622284
 20
125.33968123069205
 10
80.69747398091963
 20
123.52550910797349
 10
80.0208530092563
 20
123.1336442450257
 10
79.30387839822721
 20
123.31269327011272
 10
78.72821419165712
 20
124.4582788867065
 10
78.72823373185379
 20
125.09879494448141
 10
79.20357645813206
 20
126.0070279196171
 10
79.20701402806395
 20
127.37788229906089
 10
79.03663521087505
 20
128.37675071622087
 10
79.18940316339418
 20
128.89802782799575
 10
78.68168922368189
 20
130.0374139001825
 10
78.24106871699784
 20
130.1360686043659
 10
77.58634018021918
 20
129.53870303094968
 10
77.15651709035109
 20
129.3535630343227
 10
76.0605500848309
 20
129.50927046913705
 10
75.45185811518046
 20
129.81358501069533
 10
75.23785266185641
 20
130.24167204085072
 10
75.61225741545402
 20
131.3130398690356
 10
75.52111985463242
 20
131.9820282165661
 10
74.7367094027402
 20
131.88279225248763
 10
74.0639050829013
 20
132.002057168659
 10
73.61064210714754
 20
131.17804398380056
 10
73.66384663971469
 20
130.75143745196362
 10
73.36105729180625
 20
129.41365928039465
 10
73.67791944790767
 20
128.3819076200439
 10
73.47739607649683
 20
127.5021924340873
 10
72.81382275743847
 20
127.33630779095647
 10
72.13677910628654
 20
127.44912248901
 10
71.68333594354769
 20
128.2831371364684
 10
71.63467601923925
 20
128.72662636218516
 10
71.24053882684782
 20
128.77933560839327
 10
70.67677006635512
 20
129.25735495862037
 10
69.88618314755325
 20
130.51560844237727
 10
69.37563299698544
 20
130.82000330247553
 10
69.06127717262208
 20
130.7744052973292
 10
68.14274324892597
 20
130.10274771728598
 10
67.21456881100201
 20
128.53985599520533
 10
66.02540586884712
 20
128.53983915824674
 10
65.41194865371374
 20
128.84661419542914
 10
64.84952913176897
 20
129.69017171375617
 10
64.76963996033611
 20
130.32944262331372
 10
65.20166883083931
 20
130.91255144518115
 10
65.31723446893233
 20
132.23694355065567
 10
65.30703371266637
 20
132.61948278107934
 10
64.93689158605933
 20
133.17922703419933
 10
63.83841846949104
 20
132.62357323845333
 10
63.353638314279614
 20
132.0878211728931
 10
63.20399595910117
 20
131.5583769878182
 10
62.42082709854938
 20
131.04390375154782
 10
61.995209420005295
 20
130.3982970297515
 10
60.83007582087817
 20
130.07339127129347
 10
60.35559882878549
 20
129.14105633543167
 10
59.709378551427804
 20
128.63390525894016
 10
59.69059715781491
 20
128.17542521500488
 10
58.911823647298355
 20
127.78604947499944
 10
58.36782728765241
 20
128.05495461210012
 10
57.76861158775149
 20
128.06090584819052
 10
57.46107276912629
 20
128.64705742108998
 10
56.46265093228337
 20
129.0988582449115
 10
56.12114394085287
 20
129.79759762892868
 10
56.254965339668196
 20
130.1990459304355
 10
56.58240342471986
 20
130.52490850217737
 10
58.031353604374026
 20
131.09755405097604
 10
58.38932302987886
 20
130.7694081589184
 10
58.62457524246847
 20
130.8925266859263
 10
59.48662338713261
 20
132.39802228105404
 10
59.9531540923644
 20
132.82750015670652
 10
60.21910833927577
 20
133.76163411734504
 10
61.23508581234795
 20
135.54509018036148
 10
61.103441418388535
 20
135.75972767015546
 10
60.65674502558446
 20
135.87744698615137
 10
60.23186449691134
 20
136.40829177451437
 10
60.172331068639075
 20
136.91000463000896
 10
59.96097658939913
 20
136.88739445377453
 10
59.30864383814282
 20
136.23632950223197
 10
58.833544044608935
 20
137.49580290905473
 10
59.088209319264
 20
138.01845069068256
 10
59.08399534003754
 20
138.66428762863075
 10
58.48040037185506
 20
139.24384218881636
 10
58.146054218887464
 20
140.28225067282727
 10
57.57958113782561
 20
139.9320846902627
 10
56.63592106948726
 20
139.6874229285383
 10
56.2832404218463
 20
137.7272499158755
 10
54.62420771800339
 20
137.13721252186622
 10
53.774140631829134
 20
137.2648347681609
 10
53.47435597263663
 20
136.88588653483419
 10
53.46415136555932
 20
136.3788153799712
 10
52.80956137355456
 20
135.72422538794885
 10
51.405629548757645
 20
135.72116588825008
 10
51.113473060986756
 20
135.46476009447173
 10
51.1947398288038
 20
134.7392133106718
 10
51.57151255482686
 20
134.16416716928947
 10
51.4049369864279
 20
133.49780523373715
 10
50.91944194934189
 20
132.85049485885008
 10
50.21979464638622
 20
132.85046040072385
 10
49.58813066026213
 20
133.1662904215161
 10
49.374846000689764
 20
133.5980391373609
 10
49.54086981238615
 20
134.2615144223303
 10
49.96530160416493
 20
134.69023491680812
 10
49.987698954379965
 20
134.9089997097681
 10
49.08774960232871
 20
135.844928461219
 10
50.13344860755807
 20
135.8479723883009
 10
50.36507407279604
 20
136.06785857242727
 10
50.21831476310203
 20
136.45612960239103
 10
50.21323638539579
 20
137.53817733470908
 10
51.18128265042298
 20
139.13550095500997
 10
51.392508890153145
 20
139.76622086891493
 10
50.88974165386449
 20
140.77223796940737
 10
50.87886289700502
 20
141.84866214096036
 10
51.60239264879348
 20
142.7111256430945
 10
53.15620083277401
 20
142.8720034451938
 10
53.08470914386676
 20
143.15107274024018
 10
53.38889616921615
 20
144.17467972814038
 10
54.05699880392058
 20
144.8487757869848
 10
54.45741747348374
 20
145.64430246870887
 10
54.45315753812394
 20
146.05657354648136
 10
54.04997808975499
 20
146.99320375067987
 10
54.353961212425
 20
148.72419510021135
 10
55.11504138601545
 20
148.9144519473666
 10
55.671172753792995
 20
148.75255940829516
 10
55.991387880865375
 20
149.07559527415754
 10
56.49168601979974
 20
150.12020191662157
 10
55.997170877652174
 20
150.7484211326267
 10
55.860863005636084
 20
152.85736509454836
 10
55.089440962777935
 20
152.92854186534535
 10
54.26550042074763
 20
152.61026732465086
 10
53.83066436875009
 20
152.30572639771975
 10
53.38954290824693
 20
151.61943701288246
 10
52.77614965391105
 20
151.2105316610613
 10
52.112521723990405
 20
151.21239298165122
 10
51.511252387174686
 20
151.61345679598685
 10
51.11018857281404
 20
152.21472613280505
 10
51.101713436562896
 20
152.6947937356353
 10
50.72430968395149
 20
153.75630672086407
 10
51.011968458038936
 20
154.54159437549552
 10
51.45722981694812
 20
154.87954467161416
 10
51.5626074730767
 20
155.1892569567017
 10
51.26136607517745
 20
156.52645706227963
 10
50.902503003909175
 20
157.07665558603202
 10
51.57561637506454
 20
158.17323233341628
 10
51.381081928978254
 20
158.83063946324074
 10
51.138396848592
 20
159.0668289337668
 10
49.36135828180102
 20
159.29545941300404
 10
48.47623833706932
 20
159.12518419781586
 10
47.73894359151727
 20
158.7722838087816
 10
46.969528126024215
 20
158.0643004488481
 10
45.96555142430011
 20
158.39207356384765
 10
44.45834490173068
 20
158.48168181891774
 10
43.62783100311947
 20
158.82371712178855
 10
42.791355602848
 20
158.5692457637522
 10
42.841436708943256
 20
158.2089719832026
 10
43.916403064091384
 20
157.7712550301424
 10
44.3471087947135
 20
156.76395459040256
 10
45.26423593419335
 20
155.84215624589388
 10
45.72562839586798
 20
154.72439566697096
 10
45.765676662953005
 20
153.4472731023968
 10
46.27978262807996
 20
152.9117657823657
 10
46.27979246613967
 20
152.0925101622447
 10
45.42002458316562
 20
151.80593873649335
 10
43.97134684183532
 20
153.27940214732922
 10
42.58604633981526
 20
153.4901350692032
 10
42.10687405080522
 20
153.1192403489272
 10
41.97277624729079
 20
152.74647909441543
 10
41.98705048770659
 20
152.424303827009
 10
42.410369257644604
 20
151.9916247322322
 10
42.59988608040122
 20
151.42321151151347
 10
42.69360907829058
 20
149.96404121227627
 10
42.86074883731474
 20
149.53034497595482
 10
43.780817856846994
 20
148.7279658351134
 10
44.025032759508335
 20
148.66632953603985
 10
44.54308861088832
 20
148.87284403510964
 10
44.99519497389872
 20
148.72211817736402
 10
45.32188600874646
 20
148.06877522151277
 10
45.321866796425795
 20
147.39484744408423
 10
44.72066711144971
 20
146.79369976840573
 10
43.58517034068551
 20
146.22592923452532
 10
43.03462602976864
 20
146.48929652779586
 10
42.123359718356404
 20
146.3739239666166
 10
41.141037287060186
 20
146.7913040500449
 10
40.50648468018956
 20
147.47175913212726
 10
39.12041537995912
 20
148.01311065976063
 10
37.65622687064311
 20
149.52423715882176
 10
37.4063082050015
 20
149.56635778215045
 10
37.09569095967591
 20
149.34089377807695
 10
36.21916410545653
 20
148.23057351590631
 10
35.47306326084271
 20
147.90894452262663
 10
35.6892557176887
 20
146.38779067529066
 10
36.64127724050597
 20
145.6435855101999
 10
37.06129655877606
 20
144.87869445636173
 10
37.73618651263117
 20
144.9332660359909
 10
38.28889719724842
 20
145.20612820175256
 10
39.882717699490826
 20
144.8294292172737
 10
38.54013252133443
 20
143.57293764343777
 10
38.06010570010094
 20
142.677016590708
 10
37.10231896152283
 20
142.02299317128632
 10
36.518043571433594
 20
139.9530616287835
 10
34.790967791563084
 20
141.9034054142753
 10
33.78357718777533
 20
142.67702129629126
 10
33.24599745016413
 20
143.70381997746162
 10
32.22155304724721
 20
144.48906269129276
 10
31.97209708063525
 20
145.6306139308957
 10
31.713565209706996
 20
145.65509474430442
 10
31.531603176910316
 20
145.14916511226897
 10
31.671587171589955
 20
144.06638219999144
 10
31.197550112496632
 20
143.1610660917651
 10
31.369129250497863
 20
142.27331046400803
 10
31.252568175355375
 20
140.85178475078104
 10
31.42571222063817
 20
139.96066641310432
 10
31.85835852962184
 20
139.30707355623574
 10
30.98902107047451
 20
138.7168338588041
 10
30.953129321467113
 20
138.29464704329564
 10
30.25231230752978
 20
137.41745422138337
 10
31.111393270163607
 20
136.81777961052333
 10
31.63352602404304
 20
137.69694794723375
 10
32.09018036072588
 20
137.87964382016366
 10
32.62948065551328
 20
137.66391077129546
 10
32.62949951910347
 20
136.9111774119272
 10
32.03552112500668
 20
135.83420822734368
 10
32.352253025185455
 20
135.46757663603972
 10
32.84400871720142
 20
134.2431589595678
 10
34.12244602426736
 20
132.34502045994492
 10
34.9944871585176
 20
132.0576345696677
 10
35.44288821010618
 20
132.18914330029983
 10
36.22167623367957
 20
131.92953392593307
 10
36.221666067743875
 20
131.143690025453
 10
35.688050041098116
 20
130.0639232625778
 10
35.03470708522989
 20
129.73723222772898
 10
33.93522550811619
 20
129.7372339478172
 10
33.44848317705588
 20
129.97398086235475
 10
32.74826862097681
 20
129.97672553481303
 10
32.74552394851892
 20
130.67694009088143
 10
32.555593136070094
 20
131.06201010138722
 10
31.884595948453658
 20
131.85183359978717
 10
30.93930524934183
 20
132.43265452261156
 10
30.41340403355914
 20
133.1086280373388
 10
29.70228300881499
 20
133.4644110803098
 10
28.545066244636747
 20
133.13951434696637
 10
28.193746905190398
 20
132.07385561089518
 10
28.370338190964038
 20
131.07838489971363
 10
29.38618034707884
 20
131.05531739046626
 10
29.995222494101547
 20
129.85533750224255
 10
29.995230982045396
 20
129.2478507586128
 10
29.534889431592735
 20
127.86953326301708
 10
29.64522174580135
 20
127.40280561122368
 10
29.542198344406284
 20
126.90322921811847
 10
29.71911136371377
 20
126.36391235869867
 10
29.216432865726798
 20
125.8612169231111
 10
28.71375436773984
 20
126.36391235869867
 10
28.851087628363643
 20
126.81442099423359
 10
28.63441438178458
 20
127.077526053069
 10
28.32355547789154
 20
127.09703878044381
 10
27.77955911824814
 20
126.8281336433444
 10
27.000785607710718
 20
127.21750938334533
 10
27.000763510734135
 20
128.1158697224575
 10
27.63484300479793
 20
128.2844835442122
 10
28.065624064340096
 20
128.8640325486807
 10
27.946523870615778
 20
129.57825159838674
 10
27.714520674426737
 20
129.7313073175105
 10
26.832428756686546
 20
129.6538456927238
 10
26.642525571219256
 20
127.81097701111655
 10
26.166299698780076
 20
126.84527676423254
 10
26.163560001219462
 20
125.7498247915043
 10
25.340469831842146
 20
125.47548217355742
 10
24.9009225676322
 20
125.68584783659199
 10
24.508991432407793
 20
124.98081848017057
 10
23.685823127133748
 20
125.80396645013224
 10
23.21494636103461
 20
127.53547692067512
 10
22.211194472689627
 20
127.58193595564865
 10
22.21118376323533
 20
129.08459508704604
 10
23.27848888626952
 20
128.02665300359362
 10
23.691880243308592
 20
128.303917053257
 10
23.656649323575955
 20
129.23604220710334
 10
23.472179344993386
 20
129.79759762892752
 10
24.030934757058766
 20
131.84488013701443
 10
24.60036886247793
 20
132.75594543231307
 10
24.452869831527785
 20
133.17490844852944
 10
23.9921954988237
 20
132.97915618824982
 10
22.64727108106405
 20
133.48891115565425
 10
22.217360356146536
 20
132.8504850065076
 10
21.428915580357287
 20
132.85047789295626
 10
21.016745781737608
 20
133.13144434383688
 10
20.60262856800633
 20
132.6713426853689
 10
21.019210598617576
 20
132.19238476954072
 10
20.175435315422845
 20
131.34860245077684
 10
19.45969360998541
 20
131.70652541971072
 10
19.032971188229034
 20
132.1331819190583
 10
19.331507718313567
 20
132.73638112918982
 10
19.337451840853003
 20
133.27449123325886
 10
19.992041832879398
 20
133.9290812252778
 10
20.89318656421845
 20
133.9649729742844
 10
21.01293264290894
 20
134.59963921326477
 10
20.896795306652102
 20
134.73150742020496
 10
20.660918280471257
 20
134.62091210311587
 10
19.931049505850908
 20
134.80335673623748
 10
19.411111917994884
 20
135.58329342070434
 10
19.807028846189716
 20
135.99560349717345
 10
19.6831494873631
 20
136.2022837210304
 10
19.099799407743085
 20
136.16729155478222
 10
18.745646590297138
 20
135.48005173654056
 10
18.750080515782468
 20
135.11799216882164
 10
19.164504629645098
 20
134.2873376854488
 10
17.984293729394352
 20
134.28734180239283
 10
17.749628329511793
 20
134.99080846693948
 10
17.649176486549468
 20
135.59196659000162
 10
18.01510457374019
 20
136.3238636908791
 10
19.065719148121467
 20
136.33546616631295
 10
19.158489061863488
 20
136.80283358343283
 10
20.037289289306965
 20
136.81438408643857
 10
20.467594614537965
 20
137.11897959174914
 10
20.567964661551954
 20
137.391656034408
 10
20.26051777038081
 20
137.9013520764198
 10
20.49527133112623
 20
138.80900662838118
 10
20.31738937375495
 20
139.20013457257804
 10
18.858482169465358
 20
138.33754977084783
 10
18.857192766769113
 20
139.33968346503642
 10
18.58708004204008
 20
140.11625393422895
 10
18.267626595353157
 20
140.17005623985324
 10
17.812221798183806
 20
139.8751943197082
 10
17.15170605752345
 20
139.8751943197082
 10
16.57840245976142
 20
140.29267113415605
 10
16.94176267894095
 20
141.12089163831968
 10
16.463704345872245
 20
141.6473524541164
 10
16.46369948270981
 20
142.55032857340618
 10
17.64287195460391
 20
142.55307324586408
 10
18.457024289448043
 20
142.90805106873015
 10
17.900578093371788
 20
143.56318411743868
 10
17.89751859367314
 20
144.48815802640496
 10
17.694245333894937
 20
144.72742830615329
 10
17.77854923883092
 20
144.95402782214822
 10
17.52579536960858
 20
145.1925418469202
 10
16.87243106006595
 20
145.3525224526003
 10
16.489854953504608
 20
144.65222541787662
 10
15.97807005892873
 20
144.39226648276286
 10
15.450843938676549
 20
143.8665099570866
 10
15.118326453531013
 20
143.842762696549
 10
15.043422772119863
 20
143.6654059764254
 10
15.131702102112135
 20
143.40870177372352
 10
15.865954972758646
 20
142.85364954988836
 10
15.92942618708517
 20
140.94274391843172
 10
16.44794107250852
 20
140.33317421611713
 10
16.210076227809363
 20
139.89952189908348
 10
16.530949530197084
 20
139.55433444612524
 10
17.144568591846568
 20
138.31637000955885
 10
17.845633517824766
 20
138.23970246775488
 10
18.924274445795827
 20
137.1610835628284
 10
17.59725225370621
 20
137.16109913544514
 10
16.79279060241283
 20
137.92955936433623
 10
16.365546559139478
 20
137.59685390014326
 10
15.621954284026703
 20
137.8447220074977
 10
15.073629208208159
 20
138.72533675469614
 10
14.368737474954708
 20
139.36931531978
 10
14.196238508754217
 20
139.23390010552947
 10
14.189602267354728
 20
138.77360495912166
 10
13.722239713410156
 20
138.28984408714112
 10
13.710644351527655
 20
137.81568912745357
 10
12.931863727459813
 20
137.03690162583362
 10
12.349845243517603
 20
137.6146002013594
 10
11.974120324384137
 20
137.64005218811087
 10
11.974120324384137
 20
138.23970733091733
 10
12.328114221220936
 20
138.2948299678327
 10
12.388660200917828
 20
138.77612363911427
 10
11.363536696655968
 20
139.22031351457076
 10
10.563440481476636
 20
139.8882459097297
 10
10.421614317704075
 20
139.7337469125009
 10
10.590184194277631
 20
138.98509691783065
 10
11.221773267656403
 20
138.00560765921674
 10
11.03025394232189
 20
137.23946865202095
 10
10.077882531887509
 20
136.96749834760703
 10
9.05332399116903
 20
136.9096975286316
 10
8.49577911704259
 20
137.08711885425174
 10
8.442107932648774
 20
136.34254541746262
 10
7.854262863440995
 20
135.92912476799404
 10
8.028151056242246
 20
135.60429303084496
 10
7.65828830486929
 20
134.86419309021383
 10
6.75201171348466
 20
133.87707207482302
 10
6.101107460789756
 20
134.5279714982093
 10
6.402528613713272
 20
135.38795762559195
 10
5.978097509843512
 20
135.84993849486514
 10
5.564186940709367
 20
136.87922600381737
 10
3.517061703939594
 20
137.1849230409459
 10
2.5189802112119155
 20
136.20318330378882
 10
2.1502968414476835
 20
136.16701062954732
 10
1.436873747500176
 20
135.36054892041514
 10
0.7733745717525722
 20
136.02404809618963
 10
1.4265593073733929
 20
136.6929510924903
 10
1.1370318269387254
 20
137.39014261416614
 10
1.1370335470269413
 20
138.01066627544301
 10
2.0398864378924526
 20
139.39984371065898
 10
1.416364468858683
 20
140.17425176689775
 10
0.5937372240491725
 20
139.70607934367396
 10
0.04257271738392701
 20
139.62734421484856
 10
-0.042231326178472764
 20
140.2209725198423
 10
0.36907321668464893
 20
140.28610265933816
 10
1.463603884276058
 20
140.85984801703287
 10
1.968273990455494
 20
140.55709968809057
 10
2.7299825891171325
 20
139.37675350700874
 10
1.7426405782793795
 20
137.87484131569929
 10
1.7470745037648048
 20
137.51278174797164
 10
2.1087684976086813
 20
136.8295368667299
 10
2.303552468713911
 20
136.8370544440237
 10
3.2048893570792423
 20
137.7371186665534
 10
3.860261483541084
 20
137.86819917766888
 10
4.8046325979431534
 20
137.53088411635906
 10
5.888619748306622
 20
137.41424063389604
 10
6.225216400822424
 20
137.13380225323445
 10
6.282411245319842
 20
136.5884909184727
 10
6.540511171289738
 20
136.15952583015252
 10
7.8081664293822515
 20
136.64859483495965
 10
7.651834878950974
 20
137.50522155091454
 10
8.065667451226467
 20
138.23462989307973
 10
6.527829882541123
 20
139.13037311509703
 10
5.9266301975667615
 20
139.73152079078858
 10
5.926630197566766
 20
140.45885997074242
 10
6.4602656333491835
 20
141.05787751552845
 10
6.283559258870364
 20
141.6013224113281
 10
5.781009475188743
 20
142.25050100199724
 10
6.716986353157571
 20
143.33184665982404
 10
7.227670016840736
 20
144.81307865197104
 10
7.965674065928187
 20
145.2305316509132
 10
8.47184054781485
 20
146.01467388277382
 10
9.140217157528477
 20
146.1578954685815
 10
9.945842164304706
 20
145.7550918356297
 10
9.747791277114251
 20
145.09007789152122
 10
10.218611831542631
 20
144.43010113495885
 10
10.615645079469394
 20
144.22942595127446
 10
11.63909010411984
 20
144.22667200625807
 10
12.257701011040208
 20
143.31811773875404
 10
12.608390606431724
 20
141.7682720883656
 10
12.134408490352424
 20
140.75328284890614
 10
11.02503113260671
 20
140.6965725316547
 10
11.260432155381292
 20
140.05062665923876
 10
12.63048675074109
 20
139.38365494101222
 10
13.176782082481877
 20
138.65855799726165
 10
13.572067748766258
 20
139.013482183726
 10
13.589956850873183
 20
139.50094413907215
 10
14.368737474963396
 20
140.27973164070377
 10
15.573033698528436
 20
139.07537653029271
 10
15.970947953516921
 20
138.38035555253154
 10
16.257900005954582
 20
138.3385482801988
 10
16.360490814564
 20
138.54791614740162
 10
16.048898730130922
 20
139.17727393007286
 10
15.440786819499758
 20
139.79650857237039
 10
15.646594080829436
 20
140.26270483303105
 10
15.360823409275723
 20
140.70087126827815
 10
15.262673066349594
 20
141.28851160025337
 10
15.259673314878027
 20
142.5866055163556
 10
14.590262510206358
 20
143.00191148632734
 10
14.418906510711873
 20
143.68737474949924
 10
14.61358919538484
 20
144.4661703569935
 10
15.210966714067094
 20
144.48404447567577
 10
16.16806231487582
 20
145.25190628842876
 10
16.33863724565487
 20
146.5117966639829
 10
16.236078493163113
 20
146.95216778046236
 10
16.062977381656882
 20
147.0485812128492
 10
15.90610922649557
 20
146.88444170272982
 10
15.747122786556353
 20
146.48590288718435
 10
15.796647639229107
 20
145.48952581367828
 10
15.470709623565384
 20
145.16362507709448
 10
14.800818981148812
 20
145.05198209776938
 10
14.126721777658
 20
145.38880406484952
 10
13.909084836344215
 20
146.03750387660094
 10
14.096972599720837
 20
147.1730032588856
 10
14.820162344381021
 20
148.257702257016
 10
15.831562595972974
 20
148.50211247221364
 10
16.698473837949894
 20
148.15536227831828
 10
16.504198836203702
 20
147.75147708924936
 10
16.60276874351651
 20
147.58538054197916
 10
17.171705740417504
 20
147.8188799967096
 10
17.905034920287267
 20
147.82284871053855
 10
18.296114853658594
 20
147.04008016032
 10
17.58430767945898
 20
145.99082660722627
 10
17.61862856696344
 20
145.8057768589842
 10
18.501400028365744
 20
145.15547890328943
 10
19.158316633266697
 20
146.2736720143612
 10
19.715554151760916
 20
145.15912956236477
 10
19.381805770861696
 20
144.18231903702588
 10
18.653739061059124
 20
143.755117836948
 10
19.283662078302793
 20
142.6702560673471
 10
18.80354934949723
 20
142.19015725167625
 10
17.327422539757077
 20
141.94404205236285
 10
17.22384744928422
 20
141.771237453702
 10
17.542307678180872
 20
141.41677580239323
 10
17.585835933120748
 20
140.57571878554185
 10
18.128072610445937
 20
140.80642382243028
 10
18.780441164715953
 20
140.71944335003232
 10
19.077814709142775
 20
140.54100299668858
 10
19.414959118260253
 20
139.8779582815951
 10
19.583642178202442
 20
139.9419603761061
 10
19.930936237066785
 20
140.634484933368
 10
20.811297452990587
 20
140.634501884979
 10
21.070906827343304
 20
139.85570898429913
 10
20.92717718571807
 20
139.41384456752337
 10
21.103616185339668
 20
138.9516073043088
 10
20.948458467829827
 20
137.98054816345078
 10
21.24529270954466
 20
137.50522155090985
 10
21.016911747835778
 20
136.81999214570152
 10
20.673286064118095
 20
136.41842299259335
 10
21.59355595164467
 20
135.68914649730723
 10
21.69736308947329
 20
135.0661322645339
 10
21.50593850770762
 20
133.6227107649349
 10
21.8262900284792
 20
133.46889758950036
 10
22.03899896496195
 20
133.83454433225106
 10
22.423865104512952
 20
134.08891115565427
 10
23.08075887234795
 20
134.08873353601902
 10
23.951590517281257
 20
133.67389176390867
 10
24.354933854466722
 20
134.0056029337468
 10
23.95113726082045
 20
135.06613470308685
 10
24.16478497894513
 20
135.70706196251302
 10
24.75571408931837
 20
136.29575663462884
 10
25.384769539072256
 20
136.45283697625894
 10
26.163565146585043
 20
136.25815429159528
 10
26.16354304960846
 20
135.35979395248313
 10
25.587931374001226
 20
135.06371175427446
 10
25.246318553024565
 20
134.54401620738574
 10
25.205661260425707
 20
132.58828914397301
 10
24.58045717436037
 20
131.56679996186952
 10
24.116528752072156
 20
129.8317657958514
 10
24.32874378530359
 20
128.3155427009285
 10
23.878002287776805
 20
127.38072334530996
 10
24.218657136153343
 20
126.16021601773969
 10
24.905811623246517
 20
126.48592984647702
 10
25.356456747207602
 20
126.1891701864379
 10
25.54603245071718
 20
126.25712857976914
 10
25.563887254445756
 20
126.994634211326
 10
26.040113126884624
 20
127.9603344582203
 10
26.24261995548304
 20
129.92993605002505
 10
26.710102183647894
 20
130.39744205816802
 10
27.901147054126607
 20
130.41448528206163
 10
27.573385023876913
 20
131.67678648989872
 10
27.603275254576754
 20
132.2763588306615
 10
28.011758771548568
 20
133.50576285994842
 10
28.646696037480293
 20
133.9290808974018
 10
29.695393220126313
 20
134.1049749636384
 10
30.30727179596768
 20
133.90102339227437
 10
32.69311054044161
 20
131.893979179574
 10
33.40293719975546
 20
130.61060153821185
 10
34.08458295522201
 20
130.3396463921519
 10
34.9247793051562
 20
130.35291006964079
 10
35.20523615636674
 20
130.52140190048428
 10
35.58917780317975
 20
131.48253414940498
 10
34.92791665160546
 20
131.3853729866954
 10
34.39817823159557
 20
131.6998867024472
 10
33.87086186603046
 20
131.74361822022288
 10
32.300120395079986
 20
133.96726372128126
 10
31.81229762589471
 20
135.1583185052417
 10
30.93315230975123
 20
135.66246446321279
 10
30.678555835312846
 20
136.34094212024843
 10
29.969062882175475
 20
136.74941980665682
 10
29.49469807605881
 20
137.46092184368592
 10
30.33559480287918
 20
138.5345242678956
 10
30.35349101853685
 20
139.0830918190574
 10
30.98101432210791
 20
139.46018070899652
 10
30.653705093987877
 20
140.77559223461253
 10
30.75519973883024
 20
142.22744097000154
 10
30.58978268162984
 20
143.2419051374708
 10
31.06921535327968
 20
144.28890915992525
 10
30.899463264123664
 20
145.1139907629529
 10
31.0590046632972
 20
145.7204525420045
 10
31.39594267252951
 20
146.3097360543029
 10
32.256988427238866
 20
146.7402620733508
 10
32.76133910906416
 20
144.8144601757606
 10
33.78495428274214
 20
144.0130927329121
 10
34.23594672955356
 20
143.0991918764829
 10
35.15319424776306
 20
142.38970709549656
 10
36.036102049555836
 20
141.37831279040086
 10
36.224930229122364
 20
141.36773358875988
 10
36.64721539783011
 20
142.45578681722532
 10
37.616895934019375
 20
143.10879350572986
 10
38.0870827679381
 20
143.9819244028454
 10
38.514349214411766
 20
144.42838781188078
 10
38.33133436418323
 20
144.550031236604
 10
37.37645369682956
 20
144.26495694795366
 10
36.765780662642314
 20
144.27967338702288
 10
36.563230987749094
 20
144.45325469910276
 10
36.15520077902009
 20
145.23925882038387
 10
35.189967280908874
 20
146.0323060764214
 10
34.98343608746751
 20
146.4975009792411
 10
34.7625863025441
 20
148.10046449006614
 10
35.29992915479818
 20
148.57066667738528
 10
35.86912432984812
 20
148.72997800621584
 10
36.669387371054114
 20
149.77166623200998
 10
37.2899881561112
 20
150.23728069623402
 10
38.00858563573855
 20
150.0604287653528
 10
39.21236567745451
 20
148.68477404158062
 10
40.896096090602256
 20
147.95737524750476
 10
41.80588971373328
 20
147.10603767405277
 10
42.18045722935685
 20
146.99160117572342
 10
43.16270488823783
 20
147.10758269640405
 10
43.60826054433347
 20
146.91602538575953
 10
44.35758270877571
 20
147.28370222348534
 10
44.71558513854458
 20
147.66189147763168
 10
44.5740562467693
 20
148.18232024517283
 10
44.10842796373607
 20
147.98650421764717
 10
43.42319855853546
 20
148.21488517934017
 10
42.384966806099946
 20
149.12208607440928
 10
42.085410576289156
 20
149.86418358579218
 10
42.012178995986574
 20
151.28932881220067
 10
41.878787669522715
 20
151.6712664714343
 10
41.36951596911813
 20
152.18442660240464
 10
41.36955274522989
 20
152.8362237099241
 10
41.56692258749891
 20
153.42850484828244
 10
42.26405386547413
 20
154.02214663846755
 10
42.62725450898839
 20
154.1257524863161
 10
44.154907168934926
 20
153.8856607237208
 10
44.77563029353996
 20
153.47181888135592
 10
44.95323823948905
 20
153.17274709978358
 10
45.176535193731695
 20
153.2810925101154
 10
45.112272181366166
 20
154.6961729403593
 10
44.78436122244065
 20
155.47140841330062
 10
43.793374822406335
 20
156.46594048748895
 10
43.43970757680181
 20
157.38003407019
 10
42.464945583723285
 20
157.63957966396578
 10
42.23860716065804
 20
157.93059428682616
 10
42.123073931494716
 20
158.5803537257046
 10
42.438895679448194
 20
159.2119505616489
 10
43.029819765883
 20
159.23528262521313
 10
43.56504234488341
 20
159.468445978834
 10
44.641836856293956
 20
159.06679396840187
 10
46.87814372661877
 20
158.79958955902978
 10
47.343528960185424
 20
159.25631575902045
 10
48.28461451711558
 20
159.7022752821733
 10
49.311540745684496
 20
159.9018567151453
 10
50.79910047752152
 20
159.6566244947546
 10
51.36003809691987
 20
159.70966650705614
 10
51.887174878134054
 20
159.182511391467
 10
52.141195172094335
 20
158.61751266467815
 10
52.194461579864026
 20
157.9803422206669
 10
51.61827148087705
 20
157.14269659738463
 10
51.86762465156866
 20
156.71001738937366
 10
51.871239841135605
 20
156.18137661701462
 10
52.20317135639646
 20
155.18236229090542
 10
51.98226530045572
 20
154.5197498752169
 10
51.492360055794805
 20
154.14812011580605
 10
51.35403726702559
 20
153.748141488612
 10
51.70797201295354
 20
152.87835406272052
 10
51.73334208843944
 20
152.36166124201284
 10
52.25945683319043
 20
151.83554649727458
 10
52.592589326817134
 20
151.81679023745252
 10
52.94060447996384
 20
152.0479958626393
 10
53.44255157974043
 20
152.77464275567863
 10
53.98036875981204
 20
153.15383495968416
 10
55.05715500746161
 20
153.59024238795394
 10
55.566010463716495
 20
153.43138050286967
 10
56.18996157510395
 20
153.63321691379915
 10
56.58453660422044
 20
152.84406761368643
 10
56.56034368737925
 20
151.00051234078444
 10
56.731162239316056
 20
150.79809448384728
 10
57.41875874669547
 20
150.5679012979741
 10
56.24707762903164
 20
148.41567159187844
 10
55.559118236472216
 20
148.05823193134196
 10
55.05169619206144
 20
148.26784063857008
 10
54.83103136412828
 20
148.15635492225044
 10
54.67980582431535
 20
147.10377700076734
 10
55.06064097554395
 20
146.13081288826444
 10
55.06064097554394
 20
145.55455785320999
 10
54.87296728005815
 20
144.9913253984305
 10
53.898553885686
 20
143.8338556421633
 10
53.73455939458401
 20
143.31657462968818
 10
54.07894320958949
 20
142.8972469886297
 10
54.210391079790114
 20
142.1085631261894
 10
53.64328657314561
 20
141.73050301926483
 10
53.00341150067709
 20
142.20169136301342
 10
52.239893762610315
 20
142.22451257809914
 10
51.825146537813616
 20
142.12837894143283
 10
51.49325582544472
 20
141.71209239139787
 10
51.520635016790806
 20
140.72252789307967
 10
52.05047047065448
 20
139.91166215928007
 10
51.64864611029509
 20
138.69498713768058
 10
50.864192958254606
 20
137.39502551814022
 10
50.86383025765696
 20
136.50628613045143
 10
51.03514656273615
 20
136.30892686443732
 10
52.54251734000894
 20
136.33050704583005
 10
52.85291058719562
 20
136.6319996002401
 10
52.86448497270467
 20
137.0819143931877
 10
53.521049464984245
 20
137.8429173878738
 10
54.151317864100484
 20
137.92695101549756
 10
54.59192176268323
 20
137.79891304447264
 10
55.750021691739214
 20
138.13207027174568
 10
55.89686692237355
 20
138.47580591838278
 10
55.85245579847566
 20
139.4309845321893
 10
56.12563554741833
 20
140.01947320886802
 10
56.36029053414308
 20
140.29319295375066
 10
57.46949841355499
 20
140.55044085262733
 10
57.83762684784432
 20
141.2514907314817
 10
58.641867208202626
 20
140.71525693184182
 10
58.8442429554831
 20
140.4455498117112
 10
59.03521407126322
 20
139.4930216044618
 10
59.69059715781491
 20
139.08309181905736
 10
59.636048865954955
 20
137.5864974146021
 10
60.47288802686222
 20
137.52126559401262
 10
60.900648470979206
 20
137.0935050307864
 10
60.88917650693127
 20
136.54712039758712
 10
61.49179618554473
 20
136.2868236244843
 10
61.98626384779249
 20
135.5450901803615
 10
60.771260927061775
 20
133.50303507934333
 10
60.49971134994204
 20
132.51804469590084
 10
59.916944678824684
 20
131.96183883595074
 10
59.17389237577644
 20
130.59353923989664
 10
58.432865731475346
 20
129.852532888368
 10
57.859442577866915
 20
130.38819189655854
 10
57.125683215526536
 20
130.12533059832128
 10
56.773006412053256
 20
129.85182152907475
 10
56.88676702677823
 20
129.54857198006508
 10
57.943887411599185
 20
129.04726211699864
 10
58.173251407614515
 20
128.67271460633685
 10
59.021004916234865
 20
128.51209205897078
 10
59.090965968435945
 20
129.02497558659513
 10
59.856194338474694
 20
129.4910961110405
 10
60.35563223149405
 20
130.48183892143024
 10
60.736876398178595
 20
130.73602812519826
 10
61.567978150188736
 20
130.8777124335601
 10
62.092902648972775
 20
131.56669987923593
 10
62.64800152078828
 20
131.85178969885777
 10
62.98725418989496
 20
132.61991036894813
 10
63.53688904822134
 20
133.17057195461246
 10
64.2496190045119
 20
133.41249952536296
 10
64.60644223811921
 20
133.76116722866624
 10
65.03973219412956
 20
134.52947792407383
 10
65.91706083273924
 20
134.35401525604834
 10
65.91707466940552
 20
133.5584720011032
 10
65.7310698074
 20
133.1580246437671
 10
65.91723446893232
 20
132.73868509848276
 10
65.79115033609179
 20
130.62518951298787
 10
65.39561880059144
 20
130.16370773339284
 10
65.80985640656365
 20
129.3325144052139
 10
66.16123082859423
 20
129.1454461894995
 10
66.89668931961636
 20
129.1650112437669
 10
67.81120358028609
 20
130.6197361860666
 10
68.86143583795179
 20
131.36285001574964
 10
69.51322782237405
 20
131.4497375047662
 10
70.29960331576646
 20
130.9779413714634
 10
71.10276369630164
 20
129.695335346731
 10
71.5075828603961
 20
129.38561726627458
 10
72.0289836026426
 20
129.37897391132353
 10
72.49843927865766
 20
128.02529087302713
 10
72.97657108773298
 20
127.99819550737232
 10
73.070888453624
 20
128.35833684768838
 10
72.72933680717561
 20
129.27176086490803
 10
73.05213934034818
 20
130.73085117394777
 10
72.9653112840258
 20
131.30213248880077
 10
73.31545153012897
 20
131.83257039152983
 10
73.56257660891008
 20
132.68078310556737
 10
74.69004322658755
 20
132.50709063500923
 10
75.15996494881342
 20
132.65592192560186
 10
75.81243786381397
 20
132.59930115480378
 10
76.06584361448165
 20
132.34568275900466
 10
76.21482965931511
 20
131.74576375515207
 10
76.21466985978833
 20
131.16368242194218
 10
75.89130787912147
 20
130.33682778835535
 10
76.24160994388478
 20
130.09018419427034
 10
77.10482843056798
 20
129.98397062539445
 10
77.91285938525267
 20
130.72621793962713
 10
78.62283846544629
 20
130.7735286988344
 10
79.0542474635261
 20
130.5145777037758
 10
79.6964278559669
 20
129.41689476615065
 10
79.81660654511558
 20
128.82040482571657
 10
79.66379570594391
 20
128.33088753872204
 10
79.80679996019295
 20
125.91728330410844
 10
79.32805611221856
 20
124.8717669950786
 10
79.33825686848452
 20
124.58091802052066
 10
79.76681345484147
 20
123.81613426523454
 10
80.23333292919196
 20
123.94562728956602
 10
81.16309538006207
 20
125.65148770528255
 10
81.73983819362162
 20
126.2280045281854
 10
82.41116156481527
 20
126.52695771645526
 10
82.23695496349146
 20
127.40687918130448
 10
82.3319157597275
 20
127.97552205945584
 10
82.72563247262823
 20
128.76298234159012
 10
83.54396316994335
 20
128.35378660616695
 10
84.44366424850256
 20
127.50545954970575
 10
84.14483180449066
 20
126.88029583217123
 10
84.2628554319715
 20
124.94228813233325
 10
83.51000099684249
 20
123.85616753820366
 10
83.36227219586416
 20
122.38524959285269
 10
83.91152637220269
 20
122.27257695823604
 10
85.04630453630462
 20
121.32965069487548
 10
85.57752457887985
 20
119.20457030565704
 10
84.91960741914092
 20
118.34198179052687
 10
84.01080551817947
 20
118.15327569501937
 10
83.75841683367851
 20
116.84701390247336
 10
83.92902731665977
 20
115.73045540230116
 10
84.504920039452
 20
115.75242768420382
 10
85.008128626142
 20
116.72400712482163
 10
85.38101671861205
 20
117.0961332804391
 10
85.70181455936334
 20
117.33650115435576
 10
86.27493657026292
 20
117.12177974018162
 10
87.12499904534228
 20
117.98474840820036
 10
86.93375478706045
 20
118.8460520634408
 10
87.81054470267682
 20
119.85516555045785
 10
87.82843314950989
 20
120.3788974683092
 10
88.53955087792266
 20
120.85299198917758
 10
88.96373708577995
 20
120.79332007801928
 10
89.4523742742737
 20
121.142182602737
 10
89.97044590018031
 20
121.2354628060359
 10
90.97035163351354
 20
121.88660135475682
 10
91.74065359635811
 20
121.50146215680441
 10
91.75981730141432
 20
120.74109156803829
 10
91.22727390847699
 20
120.35829447099746
 10
91.74601671418083
 20
119.91546875596254
 10
92.19392880249016
 20
117.76884687845389
 10
92.82175827832519
 20
117.65471669407981
 10
93.76207090385125
 20
118.49320742547867
 10
94.26613933484927
 20
118.45755693362233
 10
95.27489149480013
 20
118.87570884881158
 10
95.90433963159875
 20
118.79578131213243
 10
96.36867917560326
 20
118.46411508147229
 10
96.29280192548049
 20
115.37267001524481
 10
95.85286548225788
 20
114.26194040703551
 10
95.02281949596986
 20
113.76789427076912
 10
94.56259091419976
 20
111.75079098846258
 10
94.70232773015476
 20
111.64280640341306
 10
96.2380806317727
 20
111.69410851843546
 10
96.73869485569102
 20
111.84737619493725
 10
97.41052523630051
 20
112.34663441904316
 10
97.70741726824457
 20
112.44543365878931
 10
98.05948028537443
 20
112.32806885976865
 10
98.53236673557086
 20
111.61873519552958
 10
97.44163396168318
 20
108.16442716376203
 10
97.51400350873764
 20
107.49747062397003
 10
97.7406977335552
 20
107.38753391920866
 10
98.09358793372512
 20
107.52362330752563
 10
99.00682987745573
 20
108.60719207507928
 10
99.55674072266842
 20
108.86357324614049
 10
100.15085296842572
 20
108.86358018730732
 10
100.74313410681472
 20
108.66621034504702
 10
101.0511566572717
 20
108.3581695770943
 10
101.00691104583886
 20
107.78212129920114
 10
101.39333632040804
 20
106.50756913842896
 10
101.68093528242719
 20
106.28068852600997
 10
102.86252049228855
 20
106.07560720225511
 10
102.41179461564415
 20
104.82076870480606
 10
102.4376157515724
 20
103.86308121953134
 10
101.76004357160488
 20
101.74554138388893
 10
102.76122153716628
 20
101.15543657895267
 10
102.05811871836764
 20
100.0738929951562
 10
102.1686178272327
 20
99.5148170226185
 10
102.89910856809678
 20
99.77386086097692
 10
103.24962400441736
 20
100.57422748793466
 10
103.89499378053831
 20
100.89693956657834
 10
106.06497917116019
 20
100.21003665551028
 10
106.70971093752796
 20
99.05465013751004
 10
106.89229458166591
 20
98.99542113432983
 10
106.98675180940754
 20
99.8262354205974
 10
108.21439291505911
 20
100.24500964736282
 10
108.83885034134612
 20
100.30159006760319
 10
108.41769035404339
 20
101.53907815631408
 10
108.7537378268565
 20
102.66205916794463
 10
109.0052628931287
 20
102.91505107535883
 10
110.52559795796363
 20
104.12446995052757
 10
111.27731879175832
 20
104.06183584472113
 10
111.84846921198465
 20
103.29990835987755
 10
112.14389335863571
 20
102.51641843226142
 10
112.12891821690243
 20
100.67991300860308
 10
112.44097670755832
 20
100.04300155833535
 10
111.90365333841132
 20
99.4803930915061
 10
111.89701676913563
 20
97.616635917243
 10
111.56752700369559
 20
97.11204681872287
 10
111.20918083102752
 20
95.5023126927713
 10
111.82027742764845
 20
95.04943817287015
 10
112.16746366835056
 20
94.42458522280613
 10
112.1596081947069
 20
93.95014087506503
 10
112.5481753837433
 20
93.60207940239623
 10
112.84126783098655
 20
93.01601163314159
 10
112.95665834335168
 20
92.43887775550746
 10
112.86804973929738
 20
91.94751248623167
 10
113.20205687421125
 20
90.99514939932227
 10
112.6924599321834
 20
90.16737481703659
 10
111.54070192539146
 20
89.97658564027152
 10
110.44631927740042
 20
90.52383688734392
 10
109.97887216122484
 20
91.09137142736007
 10
109.48816242721668
 20
91.22021182464879
 10
109.15468285707674
 20
91.72981516501281
 10
108.38278259837003
 20
91.877560194287
 10
107.7900375368695
 20
91.40399249535763
 10
107.15843796895702
 20
91.79256451418787
 10
106.16607755527163
 20
91.97404625107427
 10
105.68038320756986
 20
92.73219178109603
 10
104.78244501762039
 20
92.86452894468029
 10
104.19913545123644
 20
93.35790692313621
 10
103.55677349649234
 20
93.30266883285867
 10
102.43348482710806
 20
92.71699920011145
 10
101.94249801086876
 20
93.20874694568376
 10
101.40336448581924
 20
94.24894818052313
 10
100.20923498974646
 20
94.25765855761831
 10
98.7652764998336
 20
93.09694836028649
 10
97.9702656732681
 20
93.0969610408758
 10
97.71065629888523
 20
93.87575394155685
 10
97.9702656732681
 20
94.65454196513309
 10
98.30574562187662
 20
94.66106011196699
 10
98.41304290365325
 20
94.80891116199149
 10
98.05240607932224
 20
95.38068639628871
 10
96.83570136300537
 20
95.67951719290598
 10
96.37048692065855
 20
95.37199846048206
 10
95.72079665039534
 20
95.37200348689865
 10
94.83955004055157
 20
95.74647599803777
 10
93.27921641087319
 20
94.63832072406422
 10
93.04947633440273
 20
94.24805773266486
 10
93.27775106547554
 20
93.35312849732392
 10
93.16922443170448
 20
93.1044005342864
 10
92.53084327650045
 20
92.4660714810831
 10
92.0985396166402
 20
92.45476289988693
 10
92.10363026999443
 20
91.91641469599436
 10
91.74126343523272
 20
90.8262980542035
 10
91.245354958815
 20
90.4142509135777
 10
91.08450113084463
 20
89.45217078115496
 10
90.43382407518688
 20
88.57397631788596
 10
90.54733560390035
 20
88.28875211211187
 10
91.20703399325166
 20
87.79314598081683
 10
91.05342755298418
 20
86.58722269769461
 10
89.2195163041162
 20
84.45363030691446
 10
88.62834847410875
 20
84.5345768223514
 10
88.15947589270534
 20
84.33877385639992
 10
87.49600060773098
 20
84.50479766809197
 10
86.91547545252938
 20
84.95133524444888
 10
85.87752325079586
 20
83.85701185064028
 10
85.20763260840963
 20
83.74536887131602
 10
83.73567273054621
 20
84.43200248951702
 10
82.58393333110287
 20
84.03227276033526
 10
82.06376902079197
 20
83.39590996747847
 10
80.50712893912043
 20
83.10993127183137
 10
79.20379485451947
 20
81.64432206669827
 10
78.19181223263891
 20
81.35860008066055
 10
77.7976877120808
 20
80.68645489496711
 10
76.63326653306488
 20
80.44913399381376
 10
76.0349745287484
 20
80.5388756132801
 10
75.21031757324532
 20
81.28474245680863
 10
74.89660685343635
 20
82.33211296342692
 10
74.8965700773246
 20
82.98391007093586
 10
75.55116006935098
 20
83.63850006295482
 10
76.11321256134748
 20
83.64211492464602
 10
77.04697876383986
 20
84.02112047635964
 10
77.28831035126387
 20
84.40362997283034
 10
77.40727261038899
 20
85.86380390212986
 10
78.34381238117152
 20
87.16340584465168
 10
78.81152141761828
 20
87.40417158123407
 10
79.01227090494034
 20
87.72712719204112
 10
79.0750294171799
 20
88.81535023909086
 10
78.6445481636306
 20
89.40463466143275
 10
77.94677125966822
 20
89.95036472016557
 10
76.71725374509572
 20
88.90554812661951
 10
75.99770748668575
 20
87.89873523127646
 10
75.75053718672932
 20
87.7574521950322
 10
75.14671012676197
 20
87.77646506058312
 10
74.84432732983561
 20
87.87633995785393
 10
73.8526616842037
 20
89.0479691043426
 10
74.79494841406654
 20
90.30616084081323
 10
76.022154209085
 20
90.4381544813255
 10
76.49077860246676
 20
90.79177788133369
 10
77.11222688744252
 20
90.99876253878509
 10
77.45170454085674
 20
90.95224281712197
 10
78.49666057485226
 20
92.18235467593752
 10
79.85502010606247
 20
93.28435640781781
 10
80.42172727114419
 20
93.51085501534524
 10
81.69694140763848
 20
93.31994930111036
 10
81.92121895573914
 20
93.6270873090299
 10
82.3014660274696
 20
93.79606729816126
 10
83.41043959788519
 20
93.9194835258401
 10
84.28250520704547
 20
93.36109641916987
 10
84.93128433327534
 20
93.62169191085219
 10
85.25525462003603
 20
94.0095520343285
 10
85.57493196414647
 20
95.21188497867848
 10
85.16196326465828
 20
96.36250660316374
 10
85.68996535357428
 20
96.89421511144268
 10
85.75249120841954
 20
97.1522073681524
 10
85.53585651557809
 20
97.4376814286279
 10
84.75256911700964
 20
97.39884772537842
 10
83.6847121719588
 20
97.75495523164957
 10
83.18154479994709
 20
98.12296949546774
 10
82.38076152304473
 20
97.76765076901896
 10
81.92410718634073
 20
97.95034664194341
 10
81.63347544991407
 20
98.46408454334845
 10
80.3919049126439
 20
98.84428857714965
 10
80.07720905433456
 20
98.81024014515397
 10
79.24411881471144
 20
97.67897117083422
 10
78.64904403490115
 20
97.28783012381834
 10
77.94594964849341
 20
97.28785264246736
 10
77.43485718443607
 20
98.16514054513087
 10
77.83411417701453
 20
99.36146395592628
 10
78.16750177819416
 20
99.65900161128008
 10
77.5639478959168
 20
100.02008750124698
 10
77.02098733844952
 20
100.72607180849077
 10
76.69892139967023
 20
100.74247001611458
 10
75.76612961383321
 20
100.1216873056757
 10
75.14389308070406
 20
100.1227818216444
 10
74.5529211123536
 20
100.32141201331741
 10
73.08762428795728
 20
102.17046313327009
 10
72.1065382183664
 20
102.1971614416699
 10
71.8469288439856
 20
102.97595434236396
 10
72.07748102103872
 20
103.66753966327765
 10
72.80160320641167
 20
104.0295817875191
 10
73.14046884429501
 20
103.92168026545775
 10
73.58193809897193
 20
104.41972708529295
 10
76.11829741313846
 20
105.6987953499812
 10
76.68523086922359
 20
105.51722953198801
 10
77.19248106784632
 20
105.62654051010422
 10
77.64097871828565
 20
106.00809224600323
 10
77.82617969470154
 20
106.58152105120799
 10
77.48812179662221
 20
106.96129358813275
 10
77.16919269191882
 20
106.98571127774662
 10
76.2450875296602
 20
106.50779285009449
 10
74.7757308231711
 20
106.5049086884689
 10
73.26857656265591
 20
106.01659850074626
 10
71.32765941693985
 20
106.50649136396177
 10
70.33602711132485
 20
106.50777502998605
 10
69.35635204219827
 20
107.19460762528522
 10
69.50343243308144
 20
107.79846546194736
 10
69.36075120476808
 20
108.86538476959747
 10
70.19462715397493
 20
109.42245188197641
 10
70.44112941513241
 20
109.7783908813389
 10
70.22234173974567
 20
110.5222857932382
 10
69.35318374354033
 20
112.07615230460281
 10
69.71522586779109
 20
112.80027448998797
 10
70.20617935958536
 20
112.99075952985486
 10
70.50539765617546
 20
113.6655135081694
 10
71.05969425394106
 20
114.1632782895851
 10
71.02690621039851
 20
114.36431953898028
 10
70.31447254023924
 20
114.64925535426578
 10
69.6344012591482
 20
114.46679877851591
 10
68.28990678293549
 20
113.12625437698101
 10
68.12837540733467
 20
112.38732214963643
 10
67.66451941556106
 20
112.03945179113452
 10
66.431050176448
 20
111.8960734847168
 10
65.87541296810961
 20
112.6547335483774
 10
65.4866961493259
 20
112.8870708518261
 10
65.12151464949623
 20
111.91115052571604
 10
64.7887905119403
 20
111.63415065977135
 10
63.70569621304901
 20
111.3970425874138
 10
64.00124472616717
 20
110.71005778663977
 10
64.03641156812095
 20
110.04973447208438
 10
64.74029605810465
 20
110.18404122342538
 10
65.43809893347002
 20
109.29318372204764
 10
65.54358546579392
 20
108.45861714913538
 10
66.14439897916745
 20
107.90185924068109
 10
66.10724240466563
 20
106.95787351303193
 10
66.49371542438652
 20
106.38156824085401
 10
66.47345486488744
 20
105.7742315093802
 10
66.07688710754745
 20
105.02803260411827
 10
66.52498126485206
 20
103.9338677354658
 10
66.36694581888318
 20
103.3016118301704
 10
66.01479775319922
 20
102.88961110581151
 10
66.39603430533916
 20
102.08881530166684
 10
66.39962995470887
 20
101.58017421219918
 10
66.75258906476138
 20
100.64509278062057
 10
66.78354159767353
 20
100.02216220713144
 10
66.52052150240065
 20
99.55897266105687
 10
66.81810965596821
 20
98.18107320322292
 10
66.47598605124685
 20
96.71134378512679
 10
66.4087860657901
 20
95.37367674184459
 10
66.61070594443862
 20
94.83366733467393
 10
66.31189869543572
 20
94.08671671606622
 10
65.19049976033422
 20
93.72125892735467
 10
64.8333185368775
 20
92.85748153824181
 10
63.11727072389414
 20
92.90538190079975
 10
62.70610481870454
 20
93.23435197217177
 10
62.582017910413725
 20
93.97865978643812
 10
63.09825425771491
 20
94.49487948846792
 10
63.77779488635105
 20
94.53674857315565
 10
63.8794988529102
 20
94.77669909164248
 10
63.59074297394477
 20
95.65197038542463
 10
63.04618324370256
 20
96.48451452609717
 10
62.04103647189566
 20
97.0049677762294
 10
61.541949079116534
 20
98.00086928192553
 10
61.00679051821126
 20
98.54114002926093
 10
61.16644348470238
 20
100.67194123706375
 10
61.51525867200223
 20
101.19973302138753
 10
61.58417739312459
 20
101.65396519362196
 10
61.385184157618056
 20
101.71546382828093
 10
60.281033843872876
 20
101.3834809567068
 10
59.63719535774941
 20
101.81275025691981
 10
59.33041860048666
 20
102.4262147584506
 10
59.12127263946187
 20
103.77547488826585
 10
58.32980516335615
 20
104.56650400898012
 10
57.76861158775352
 20
104.59196797244532
 10
56.480873711098354
 20
106.64915063650356
 10
56.30353594801625
 20
106.64704018787894
 10
55.640095657324856
 20
105.98563145526263
 10
54.94723722207954
 20
106.21654507799734
 10
53.711084654457096
 20
107.11381627347359
 10
53.21449769307128
 20
108.72344689378282
 10
53.24299418177199
 20
109.56435940787998
 10
52.976712190107186
 20
110.02837490873122
 10
52.485470657765696
 20
110.12914302777637
 10
52.265789341968684
 20
110.56849932759839
 10
52.3180365719438
 20
111.4324739187184
 10
52.078755034213984
 20
111.64034020397482
 10
51.541970574078405
 20
111.81884164452468
 10
51.37759205173463
 20
111.70851197005949
 10
51.26633352001533
 20
111.08108640419519
 10
51.57220631581297
 20
109.65835741227396
 10
50.96486074731287
 20
108.32670808408946
 10
51.67218584744802
 20
107.88890954741949
 10
50.898154995163054
 20
106.1545477133017
 10
50.56885561099925
 20
105.74895912697619
 10
51.35414346546403
 20
104.52212981875877
 10
51.51450026115521
 20
103.78207127390763
 10
51.83216985044557
 20
103.4549098196307
 10
51.44282321352932
 20
102.95720994281358
 10
51.50983313867592
 20
102.43766070917323
 10
52.33175827068375
 20
101.59828100679648
 10
51.377368611357326
 20
100.00122490714136
 10
52.42251989786428
 20
99.9230790392901
 10
52.75763714070918
 20
98.61845425168134
 10
52.28855055062494
 20
97.68021727777415
 10
50.83923061899118
 20
99.12929088343893
 10
50.660003174102656
 20
99.15417296855877
 10
50.309437419680584
 20
98.60792814646176
 10
51.19355929602168
 20
97.70741482966775
 10
50.29058116231541
 20
96.80443669597175
 10
49.76808054490351
 20
97.2145597769483
 10
48.8537074148423
 20
96.32547878014876
 10
46.73213454801129
 20
98.59960276161586
 10
46.86779667331745
 20
99.17201623034843
 10
46.603827319514565
 20
100.96888313003961
 10
46.12281332131916
 20
101.23261920667387
 10
45.41886427903326
 20
100.55396477276672
 10
44.92633003612068
 20
101.53907815631408
 10
45.16397303529867
 20
102.071325338447
 10
44.818729256694475
 20
102.82916834638885
 10
44.24680282480571
 20
102.71993635553243
 10
43.90288215103266
 20
102.38130739542882
 10
43.884993048926276
 20
100.93592960842749
 10
43.431491983012215
 20
100.47810175653326
 10
43.406035133099195
 20
99.97801377675385
 10
42.944966319361576
 20
99.50755990044236
 10
42.927070103702526
 20
98.95899234927447
 10
41.691070458801924
 20
98.52498329992694
 10
41.14173220191394
 20
98.52519736779792
 10
39.96727714367004
 20
98.90370711937436
 10
39.29608990495574
 20
98.47898930984093
 10
38.418039300222944
 20
98.988783591294
 10
38.31552423941114
 20
99.75772395969578
 10
38.89444061734417
 20
100.20625668071865
 10
38.83705105865007
 20
100.61604339001477
 10
39.051059960610246
 20
101.0441338687875
 10
39.59314209919111
 20
101.42404805500038
 10
39.30871920086424
 20
101.90528008591862
 10
39.214537196116694
 20
102.46911038895243
 10
39.268936113489964
 20
103.53021520516015
 10
39.526768473882214
 20
104.17433577924857
 10
40.5338714526127
 20
104.54176767322768
 10
40.41066370694838
 20
106.06561402453062
 10
39.55610101529549
 20
106.57108669450511
 10
39.1181091057692
 20
107.15511986298648
 10
38.98339180712165
 20
107.63156439595963
 10
37.690382633498025
 20
108.92452207478988
 10
36.912422941976985
 20
109.11913496876569
 10
36.6699763271217
 20
108.92925994266118
 10
36.79960317797257
 20
108.36517228241887
 10
37.39975750178323
 20
107.28657314628745
 10
37.15699849255318
 20
106.91507990613925
 10
37.0472472516135
 20
106.31549366601668
 10
37.41906118519668
 20
103.80967710340278
 10
36.612846750233736
 20
102.99266589094823
 10
36.74382746257594
 20
102.41601656711967
 10
36.08380910097266
 20
101.75596340768178
 10
35.50121083076661
 20
101.56173994531952
 10
34.40483980184163
 20
101.5632430532503
 10
33.98511233681122
 20
101.77432432928859
 10
33.2640108181169
 20
102.67519276507224
 10
32.68482486909936
 20
102.65824009346201
 10
32.09018036072587
 20
102.0729737701129
 10
31.22418436754914
 20
102.93763036355352
 10
31.04840826974071
 20
102.95180194502724
 10
30.59991829185359
 20
103.84912646486073
 10
30.479069480068635
 20
105.28602990192705
 10
29.555220711946546
 20
106.2044666825733
 10
29.54734591489439
 20
106.78202444828507
 10
29.32887654311751
 20
107.00854205319195
 10
28.80128576448804
 20
106.12301980311807
 10
28.416514619829403
 20
105.78404453219623
 10
28.398686775822313
 20
105.27996257054332
 10
27.940019712815754
 20
104.59196020362016
 10
27.16043053566151
 20
104.52332341319563
 10
27.297359733150213
 20
103.93386529691315
 10
27.188962412057414
 20
103.54937505740368
 10
27.805208151447474
 20
102.6638307819827
 10
28.25851703407266
 20
102.9210142058227
 10
29.49262968859699
 20
101.68689421005857
 10
29.617980988635143
 20
101.0601202404866
 10
29.493692151724737
 20
100.30840710803429
 10
30.3214197594948
 20
99.7259004314608
 10
30.096194550378968
 20
99.20203258391558
 10
30.598368915250596
 20
98.66533066132149
 10
29.695390781576247
 20
97.76235252764505
 10
28.47540228544028
 20
98.98232316355532
 10
28.28000045521752
 20
99.8633780434541
 10
27.754348529639696
 20
100.29360972884767
 10
26.912422198995547
 20
99.56290307053891
 10
25.885818425527837
 20
99.43253012901367
 10
25.20534653468365
 20
99.90463175466519
 10
24.000850743240417
 20
99.42753448229037
 10
24.610720505192383
 20
98.63586091292375
 10
25.897493953458493
 20
99.30130279099686
 10
26.527226630666586
 20
98.66533066132149
 10
25.922930305406524
 20
98.06102730046975
 10
25.163090259904624
 20
98.43996791739889
 10
24.992070010797548
 20
98.39344179558987
 10
24.98478637206175
 20
98.21635550526223
 10
25.345392958966073
 20
97.85147114660582
 10
25.439879593701338
 20
97.36264968693051
 10
25.979860685150165
 20
97.19228461067621
 10
27.339749752952226
 20
96.1074190876803
 10
28.013665313647174
 20
96.09142085799498
 10
28.208347998320136
 20
95.31262525050074
 10
28.029521515188645
 20
94.54371524650696
 10
28.42966144702401
 20
93.92005121022838
 10
27.869898960438174
 20
92.74041175296166
 10
28.46540938329935
 20
91.53144823066279
 10
28.43243290123227
 20
90.87168249895547
 10
28.126981453527087
 20
90.51779208340773
 10
28.40708596364951
 20
90.15989784306174
 10
28.2021579674027
 20
88.01245966059435
 10
29.065157104786888
 20
87.3036930784612
 10
29.513755752361554
 20
87.94929859719113
 10
30.24513521333247
 20
87.94913879766435
 10
31.428887916670035
 20
87.35743918417943
 10
31.449976339401406
 20
86.8070693580798
 10
31.984114343547773
 20
86.26379701975743
 10
32.17351589567893
 20
86.24514259508999
 10
32.569138276552934
 20
86.63644506754714
 10
34.05657380259175
 20
84.88857637817637
 10
34.12007345221332
 20
84.25339059779624
 10
33.884721458614884
 20
83.66503258541331
 10
33.697964393262346
 20
83.43155520258799
 10
33.06031574340541
 20
83.27217953444705
 10
32.40135020575262
 20
83.38197863409029
 10
31.956213694559917
 20
83.88569641632964
 10
31.457924455437258
 20
84.02583975226257
 10
30.930141379008944
 20
84.54444848079822
 10
30.710134101310537
 20
84.43028225000845
 10
31.18111029237089
 20
83.43243588711746
 10
31.212387343515545
 20
82.42881928320459
 10
31.3960329986801
 20
82.06229920630358
 10
32.11054183252317
 20
81.37869599855752
 10
33.05155278211395
 20
81.99600655104754
 10
33.78448698880976
 20
81.62935103872478
 10
33.96455214775703
 20
80.90900671018542
 10
33.75054324582688
 20
80.48091623140749
 10
33.122027385633
 20
80.16648525972407
 10
32.38384204868056
 20
80.16511426503197
 10
31.81918936904344
 20
81.04409838819765
 10
30.95619494643067
 20
80.2533914936666
 10
30.956178626699543
 20
79.6140508145081
 10
31.245564921297927
 20
79.15788031769549
 10
31.476198511877335
 20
78.15047036644981
 10
32.067090157077914
 20
77.7066065480825
 10
32.498359047030384
 20
77.89102428529033
 10
33.17228682443761
 20
77.89100507296968
 10
33.951074326082214
 20
77.11222444890333
 10
33.50553437962303
 20
76.60430861723317
 10
34.08429162672235
 20
75.71023176676819
 10
33.826876816466175
 20
73.6353284060182
 10
32.71695433029768
 20
72.52540638354161
 10
32.090180360725874
 20
72.40005508350428
 10
31.408638229928407
 20
72.53636974466599
 10
30.639761472728644
 20
74.06601811742073
 10
29.449010389659716
 20
75.01881184646406
 10
28.299611472920393
 20
76.74954750083779
 10
29.20497052088722
 20
77.21519030567376
 10
29.056359959228338
 20
77.7126929387181
 10
28.13432640200956
 20
77.77031757231629
 10
27.66387252569917
 20
78.23138638604867
 10
27.173733359113807
 20
78.25170197097128
 10
26.575262894658206
 20
78.85047517311467
 10
26.207229649734295
 20
79.88629220132032
 10
25.738382009881306
 20
80.40572700923903
 10
25.97767858895518
 20
81.05779116254755
 10
25.16866246685539
 20
81.12301314507731
 10
24.83607877377819
 20
81.92466025451351
 10
24.610179905308637
 20
81.8754391706496
 10
24.467303446644195
 20
81.27878937443252
 10
24.02612864401822
 20
80.82820118300238
 10
23.80692907653736
 20
79.97669130176021
 10
24.29092165096369
 20
78.46812077554601
 10
23.589519651141785
 20
77.77014028055706
 10
22.276915848689857
 20
77.770302588891
 10
22.10287586642843
 20
78.92128409519657
 10
20.91368770202823
 20
78.96771170662461
 10
20.585595220229592
 20
79.45953199335236
 10
20.828984027046285
 20
80.19860178753187
 10
21.380647375934345
 20
80.47847500021115
 10
21.61868597592764
 20
80.78795186413375
 10
21.367602748856463
 20
81.17922362821244
 10
20.995577365427263
 20
81.3597524054306
 10
19.766268137304603
 20
81.43073289847754
 10
19.28935005983069
 20
80.38882127332776
 10
18.4329783255269
 20
81.24526475226507
 10
18.088164574495824
 20
82.13485049690271
 10
17.91107828416956
 20
82.142134135646
 10
17.558995680832922
 20
81.79427556902516
 10
17.259569660384987
 20
82.99199069731529
 10
17.657225489464437
 20
83.25438678408166
 10
18.82462942479902
 20
83.05963514104492
 10
18.664297938502422
 20
82.78721882145915
 10
18.938249102771852
 20
82.72293338105379
 10
18.94839244998789
 20
82.98030502856427
 10
19.334402535620672
 20
83.44571414116656
 10
19.208485669019225
 20
84.29659318637039
 10
19.354429379635086
 20
84.88018234022464
 10
19.972176147994592
 20
85.77391667307761
 10
20.662853931694254
 20
85.8890641334744
 10
21.213761077500216
 20
85.5248214883135
 10
21.867110996760562
 20
85.34734685996263
 10
22.107985804533566
 20
85.60438846181923
 10
21.677223120890318
 20
86.35733433353919
 10
20.858041224376784
 20
86.3915502192343
 10
20.414136713687903
 20
87.37868513980933
 10
19.756396215002443
 20
87.62635460292117
 10
19.529488958675707
 20
87.49820941870485
 10
19.587105513341246
 20
87.17034068136296
 10
19.320763838198076
 20
86.10489681150256
 10
18.433365280837197
 20
86.9324300357085
 10
17.792222115287334
 20
86.63101980288742
 10
16.807337530347663
 20
86.765875675998
 10
16.15353571173516
 20
86.13631626332608
 10
15.808852691686571
 20
87.17034311991533
 10
16.153535711735163
 20
88.20436509939984
 10
16.581450611054635
 20
87.90763381247051
 10
17.45676822682628
 20
88.78795446512272
 10
17.45175755647623
 20
89.39693227700555
 10
16.820824675805568
 20
90.04669195093244
 10
17.68323964541867
 20
90.90886136188834
 10
18.293182216283824
 20
90.51017701099882
 10
18.937636195155342
 20
90.4816952870093
 10
19.413830948203575
 20
91.36247711445112
 10
19.9721761479934
 20
91.92054325959622
 10
20.52154810459912
 20
92.01902994030739
 10
20.688440322862636
 20
92.24899149491239
 10
20.53149354031799
 20
92.36027433601352
 10
20.048568914014147
 20
92.2832805559127
 10
18.860920407840908
 20
93.26992574389034
 10
18.833037075112923
 20
94.25164885071996
 10
17.976908215385198
 20
94.84965715499014
 10
16.771861653979812
 20
96.31714197400227
 10
18.077116474507626
 20
97.17552947944225
 10
17.589790741645796
 20
98.24383390090838
 10
16.34594172890109
 20
98.05025514828768
 10
15.28845006626786
 20
97.48125219855763
 10
14.673094862085373
 20
98.0965954320363
 10
14.823223204173704
 20
98.68206037095365
 10
14.662058430510102
 20
99.63792940696109
 10
14.829741468129246
 20
100.30870975616229
 10
15.92098092301323
 20
101.34631567183187
 10
15.33358814331599
 20
101.81275025691738
 10
15.00294398479303
 20
102.47398867479136
 10
15.185444076687746
 20
103.03292014683906
 10
15.185444076687746
 20
103.87689949243799
 10
15.057144382949257
 20
104.25443280410478
 10
14.662191927219329
 20
104.64816150397094
 10
14.399029916813536
 20
104.72181648840531
 10
13.992687842542086
 20
104.33118290706246
 10
13.165210572201739
 20
104.4913607523217
 10
12.992206737411532
 20
104.3402615463
 10
12.937476712192725
 20
103.85856234993994
 10
12.433600534402478
 20
102.83970286682687
 10
12.515999097571477
 20
101.61764908748249
 10
12.752747732194164
 20
101.13089947001055
 10
12.853912559748078
 20
100.09857437951011
 10
12.637007173991268
 20
99.0149297293438
 10
12.469969008320474
 20
98.90070878873755
 10
12.578251256652095
 20
98.60612781083906
 10
12.033150746264633
 20
98.06102730047117
 10
10.988834512237842
 20
98.58319293633801
 10
11.941230150401877
 20
99.53991095803426
 10
11.858261303246607
 20
99.78449259847082
 10
10.215248787226471
 20
99.79932220087824
 10
9.625637503379066
 20
99.24569114966984
 10
8.26597448218077
 20
99.96503107308978
 10
8.093788072235238
 20
101.43758931823486
 10
7.824526008540325
 20
101.9831550067734
 10
8.29404595103246
 20
103.49846168286197
 10
8.002118253407048
 20
104.35286186043756
 10
7.953333175256257
 20
105.46787028238931
 10
7.7721564077447685
 20
105.56531120476481
 10
7.125165887002709
 20
105.2453960379526
 10
6.5244490892707585
 20
105.99294285738186
 10
6.10226227374657
 20
106.02883460639033
 10
5.4476722817396865
 20
106.6834245983987
 10
5.447494989980458
 20
108.31183139106928
 10
6.0411566779267725
 20
109.50222040431314
 10
6.62683989048688
 20
109.50497705348496
 10
7.806570111885953
 20
109.86232445782993
 10
7.843839969136954
 20
110.23425183453627
 10
8.404300431537477
 20
111.11741097326949
 10
8.330670820490896
 20
111.41831907060585
 10
8.051121838028578
 20
111.57144265800524
 10
6.398146437830959
 20
111.53595105569119
 10
5.776093146860248
 20
111.18991705480867
 10
5.3839597804076575
 20
111.21217974533688
 10
5.089419358799521
 20
109.61057620951655
 10
4.534110380075916
 20
108.49995430755409
 10
3.831663326653851
 20
108.14877492590315
 10
3.2295454553985303
 20
108.32520186381602
 10
2.8679021036518875
 20
107.26930169977882
 10
2.9553902392360496
 20
106.70470694702409
 10
2.2187138712666625
 20
106.00683195356537
 10
2.7806048488648334
 20
105.40894472330054
 10
2.7313966040975743
 20
105.05987227665595
 10
3.3970051180533654
 20
105.22258061869947
 10
4.472593024632308
 20
104.67489437978065
 10
5.089401866567082
 20
104.05805836752846
 10
5.089401866567078
 20
103.3307191875746
 10
4.708635170120585
 20
102.87521163198103
 10
5.042603256727604
 20
102.19049490863212
 10
5.633361477088581
 20
101.59828100679752
 10
5.329702561580233
 20
100.96777915347067
 10
5.633361477088581
 20
100.04300155833431
 10
5.45211042863582
 20
99.74908780354527
 10
5.9473729515716185
 20
98.89033724828127
 10
6.839009878329434
 20
99.43405479686186
 10
7.495854488287984
 20
97.73601298655318
 10
7.290203021340606
 20
96.62521370845771
 10
8.657133397316812
 20
96.77065432935046
 10
9.81170243783659
 20
96.15652162016701
 10
9.970729993081113
 20
95.83845957596584
 10
9.915785565738354
 20
95.22550103861428
 10
10.720731086725726
 20
94.92882508668703
 10
11.102033788671415
 20
94.420437318535
 10
10.790638868964646
 20
93.29248242257715
 10
11.951696905866447
 20
93.60236333568679
 10
12.618650663910485
 20
93.56898187464355
 10
13.038378759643967
 20
92.93937647809796
 10
12.676394949226573
 20
92.21538516927626
 10
11.429262080252007
 20
91.75417863617582
 10
10.716226321786205
 20
92.28897488433486
 10
10.70340049501311
 20
93.24499935576107
 10
10.543571844803038
 20
93.3007732866323
 10
9.92402926621722
 20
92.9945326884662
 10
9.527145779382812
 20
93.7879141001035
 10
9.462495288907714
 20
94.42376323375753
 10
9.642766903316357
 20
94.77448575765747
 10
9.497710753414125
 20
94.9163481828696
 10
8.692021714502067
 20
94.53382541411113
 10
7.885305567769379
 20
94.45109103991858
 10
8.202805611211442
 20
93.99633327839659
 10
7.96620886124657
 20
92.11705239444521
 10
8.442107277374907
 20
91.60515255591238
 10
8.442107277374907
 20
90.8778133759513
 10
7.663326653307063
 20
90.09902587433142
 10
4.96871436591261
 20
92.7936450392897
 10
4.843336323515052
 20
93.7237125410256
 10
4.402887375281574
 20
94.30800923912022
 10
4.182873559288066
 20
94.16115600383158
 10
4.481765655432276
 20
93.35249387995235
 10
3.994263200190932
 20
92.62090279033136
 10
3.2028025396519246
 20
92.61802992900112
 10
2.7173075025642057
 20
93.2653403038746
 10
2.541722783689831
 20
93.9677170240022
 10
3.29350256034559
 20
94.71953382177078
 10
3.909944652778406
 20
94.41476301125607
 10
4.068675804521308
 20
94.46854778739575
 10
3.706317881616185
 20
95.37182810098318
 10
5.326164433416711
 20
96.90089925268863
 10
5.281389611150506
 20
97.76158510418965
 10
5.123260444401484
 20
97.8673524217295
 10
4.207712959051957
 20
97.62577208542179
 10
3.7713195763174663
 20
98.0621821134294
 10
3.745862726406411
 20
99.04122800904233
 10
2.573924131485071
 20
99.9417438142508
 10
2.1560191193625426
 20
102.98515530594865
 10
1.7115564874265083
 20
103.21471858549471
 10
1.4960765979813497
 20
103.09008541670033
 10
-0.11119306860084645
 20
103.84700395209505
  0
LWPOLYLINE
  5
35
330
17
100
AcDbEntity
  8
contours
100
AcDbPolyline
 90
10
 70
1
 10
75.19061160114096
 20
88.43828202306764
 10
75.62322315346066
 20
88.40368509412187
 10
76.24309430059667
 20
89.27991681954738
 10
77.23317558565655
 20
90.11134015982903
 10
77.22559074005522
 20
90.31049254492027
 10
76.79191724320691
 20
90.2590866287899
 10
76.26384228255442
 20
89.84351814412719
 10
75.09392949154933
 20
89.75683977153466
 10
74.66826501092712
 20
89.12872974904303
 10
75.19061160114096
 20
88.43828202306764
  0
LWPOLYLINE
  5
36
330
17
100
AcDbEntity
  8
contours
100
AcDbPolyline
 90
49
 70
1
 10
26.503050285582546
 20
80.57995996104161
 10
27.05731369473183
 20
79.22753568916035
 10
27.40366177051534
 20
78.8743777545517
 10
27.90374975030869
 20
78.84892090463778
 10
28.401370435555197
 20
78.37659923019744
 10
29.40172909359918
 20
78.36995587524655
 10
29.855463688070664
 20
77.46967179073967
 10
30.17417626880248
 20
77.41205202030393
 10
30.17417626880248
 20
76.8123968774975
 10
29.73453933212063
 20
76.79638852755167
 10
29.302325382249734
 20
76.57695759495633
 10
29.26218651167131
 20
76.38837514815796
 10
29.959159251198827
 20
75.35688838466018
 10
31.13916596304369
 20
74.41605789301937
 10
31.80727853891146
 20
73.09561594732459
 10
32.442462048767375
 20
73.10020889936882
 10
33.21563603810194
 20
73.88851262629422
 10
33.4345078238058
 20
75.66172968784053
 10
33.15115676049516
 20
75.82902905907791
 10
32.269299995695434
 20
74.95147705723842
 10
32.251235146284536
 20
76.94037388645424
 10
31.433641505788714
 20
77.34480197281464
 10
30.832441820812647
 20
77.94594964849313
 10
30.824567023760473
 20
78.52350741422282
 10
30.35348423286155
 20
79.41623511563371
 10
30.353483249711697
 20
80.62539045428844
 10
31.118387398401996
 20
81.13650971319039
 10
31.210418676081677
 20
81.36510168461737
 10
30.581040213990317
 20
82.33388511340577
 10
30.66617747401055
 20
82.86797270274867
 10
30.493233706720655
 20
83.46018792870031
 10
29.68920278518846
 20
83.51779860729768
 10
30.060513358930304
 20
84.3043172289388
 10
29.579704189025758
 20
84.93679720769016
 10
29.296762951618824
 20
84.91057503521506
 10
28.744376383890007
 20
84.11901224725915
 10
28.07955911824559
 20
83.53951997560505
 10
28.20029556994317
 20
83.16260164681361
 10
29.70157877792102
 20
83.15955610211863
 10
29.37496783545119
 20
82.48150179486817
 10
29.721420297363117
 20
81.39909535432027
 10
29.419421793331548
 20
80.64406643866661
 10
28.574875076367746
 20
80.64695489453271
 10
28.1183472923047
 20
81.3320667789538
 10
28.175247193205728
 20
82.34809810010536
 10
27.787935995905503
 20
82.88601968038996
 10
27.13306135669643
 20
82.46712195372885
 10
27.121465994813892
 20
81.29865505931724
 10
26.503050285582546
 20
80.57995996104161
  0
LWPOLYLINE
  5
37
330
17
100
AcDbEntity
  8
contours
100
AcDbPolyline
 90
31
 70
1
 10
6.602665149346296
 20
142.26998949660828
 10
6.917964368915858
 20
141.65817679501953
 10
7.093031016053573
 20
141.6344078798598
 10
7.963164934164573
 20
142.49541673035344
 10
7.963154224710275
 20
140.9927575989316
 10
7.287429305597324
 20
140.9673056121803
 10
6.56050133780462
 20
140.24343222823225
 10
6.527175196806711
 20
140.02740495487018
 10
6.890914285218891
 20
139.62037557017482
 10
8.496731702914449
 20
138.7837223426105
 10
8.79731819286709
 20
139.0549281459474
 10
8.800384806117114
 20
140.0410076507255
 10
9.80911910756643
 20
140.49418418839355
 10
9.582399785861746
 20
141.29258760888604
 10
9.92708280590595
 20
142.32660958838284
 10
11.081070507952033
 20
141.35887304320067
 10
11.78567213711158
 20
141.36404827252028
 10
11.968753097673625
 20
141.76465085892903
 10
11.690743439541356
 20
143.08973888662544
 10
11.433404329663798
 20
143.5236014524677
 10
10.466287632375344
 20
143.62701350694007
 10
9.880535293347984
 20
143.91995227341374
 10
9.317085652174423
 20
144.48332516757404
 10
9.103441870034294
 20
145.1242509355479
 10
9.170120674478952
 20
145.40790615175212
 10
9.024320976908937
 20
145.51654657671955
 10
8.743040118054177
 20
145.4310830356023
 10
8.333060105632178
 20
144.71931302574438
 10
7.789818277692891
 20
144.46375141927547
 10
7.2622935525868035
 20
143.07473400850847
 10
6.602665149346296
 20
142.26998949660828
  0
LWPOLYLINE
  5
38
330
17
100
AcDbEntity
  8
contours
100
AcDbPolyline
 90
7
 70
1
 10
9.400023109047373
 20
138.77360495912168
 10
8.58454650474115
 20
137.82743827940612
 10
9.148258160962577
 20
137.5410446581562
 10
10.524116844005823
 20
137.71716580668962
 10
9.770061771900664
 20
139.66352091061876
 10
9.42673125550751
 20
139.66277458856555
 10
9.400023109047373
 20
138.77360495912168
  0
LWPOLYLINE
  5
39
330
17
100
AcDbEntity
  8
contours
100
AcDbPolyline
 90
24
 70
1
 10
4.546291650635979
 20
95.03314691161005
 10
5.3806550723671105
 20
94.00866282119561
 10
5.602585506147856
 20
93.0090727817893
 10
7.5572606361289605
 20
91.05337617807446
 10
7.758485645931718
 20
91.043490627248
 10
7.824572758786438
 20
91.36527533130804
 10
7.3635039450662925
 20
91.83572920761944
 10
7.363486452833837
 20
92.9886221872786
 10
7.599923403272074
 20
93.71861894824357
 10
6.884553142790508
 20
94.16941319095744
 10
6.884553142790507
 20
95.01896356254774
 10
7.663326653307063
 20
95.40833930255314
 10
8.207323012953024
 20
95.13943416545244
 10
8.556204041160637
 20
95.13943416545244
 10
9.274786513207859
 20
95.50250179241071
 10
9.298376461505192
 20
95.76984262345067
 10
8.57679293726835
 20
96.14871252874372
 10
7.7002239148170375
 20
95.97082072962853
 10
6.220264909458698
 20
95.97070441892433
 10
6.3316078322130975
 20
96.39600445008942
 10
5.8260659211465
 20
96.44692675413573
 10
5.440995910644333
 20
96.25699594168073
 10
4.502932495680136
 20
95.31917300259664
 10
4.546291650635979
 20
95.03314691161005
  0
LWPOLYLINE
  5
3A
330
17
100
AcDbEntity
  8
contours
100
AcDbPolyline
 90
13
 70
1
 10
2.528141976258404
 20
103.60618558058454
 10
3.185189594901063
 20
100.2855766065746
 10
4.248284278384848
 20
99.52236327138478
 10
4.8709737898944185
 20
100.18854520681495
 10
4.72905811624901
 20
100.51381991153684
 10
4.864072068792688
 20
101.49526768007674
 10
3.9457968395404523
 20
103.03515475429438
 10
4.464299600170573
 20
103.55797038775653
 10
4.478161088202843
 20
103.80487414725246
 10
4.140400567636246
 20
104.15062672713988
 10
3.2533823128219215
 20
104.54164099257407
 10
2.816641141936886
 20
104.24260497645999
 10
2.528141976258404
 20
103.60618558058454
  0
LWPOLYLINE
  5
3B
330
17
100
AcDbEntity
  8
contours
100
AcDbPolyline
 90
11
 70
1
 10
18.00700493001525
 20
148.0341023034145
 10
17.80882912516433
 20
148.43007749817454
 10
17.92974423019825
 20
149.1558119073709
 10
18.94348426688433
 20
149.6664666700075
 10
19.526394076056572
 20
150.32520487931555
 10
20.152660301691053
 20
150.3773648113737
 10
20.84613731795524
 20
150.146212333442
 10
21.240201006774544
 20
148.34645753713545
 10
20.719538540170937
 20
147.95573606945482
 10
19.61554276765116
 20
147.85764863059356
 10
18.00700493001525
 20
148.0341023034145
  0
LWPOLYLINE
  5
3C
330
17
100
AcDbEntity
  8
contours
100
AcDbPolyline
 90
102
 70
1
 10
87.8446053762868
 20
235.33035911681736
 10
88.96329885639031
 20
236.24490475114146
 10
89.16190485136676
 20
238.0999629887483
 10
89.48746948866642
 20
238.75757541720256
 10
91.38598454062758
 20
239.28438688257594
 10
91.57561214681398
 20
238.71550406400414
 10
89.84894522877553
 20
238.23980940322397
 10
89.5227227087641
 20
236.0011658834444
 10
88.40738628775155
 20
234.95681827721035
 10
88.4206759738811
 20
234.40716855017757
 10
89.34448830742593
 20
233.52936504545733
 10
89.76683262752402
 20
232.5643669277474
 10
91.15618242588074
 20
232.01509887103407
 10
91.86020749362254
 20
232.00049512833888
 10
92.08984948866869
 20
232.33368467536798
 10
91.96316130890543
 20
232.77354953273905
 10
92.18406736487272
 20
233.4361619484314
 10
92.82914218975456
 20
233.9199553936961
 10
93.74080897630165
 20
234.0063333665039
 10
94.79546409433719
 20
234.91554138861468
 10
95.54516937170422
 20
234.41570665690554
 10
96.47203702545873
 20
232.7351436068144
 10
97.35380235886656
 20
231.87483411301432
 10
97.04067217650469
 20
231.23965533334973
 10
97.03601923490722
 20
230.50527294431726
 10
97.37157579233676
 20
229.5307980823734
 10
97.78111030863376
 20
229.09484868953442
 10
98.81862865080035
 20
228.97315824373
 10
99.37672204222795
 20
228.22952621091548
 10
100.05010137761313
 20
228.09652423251762
 10
101.35640358801699
 20
228.39963612275284
 10
102.03957687888571
 20
228.88874616109408
 10
102.40055107939345
 20
228.64810881078856
 10
102.92484166422422
 20
227.24316555049404
 10
103.12788453612856
 20
227.05047510315174
 10
105.73828745173618
 20
225.99135642830547
 10
106.01743019261896
 20
226.22196565915047
 10
106.02883460639568
 20
226.67128482043174
 10
106.54034566835527
 20
227.1841324446299
 10
107.02522794631669
 20
228.02703078895894
 10
107.04136781906418
 20
229.30520533756123
 10
105.72409545190243
 20
230.31480853689925
 10
104.92334378249089
 20
230.66636057775432
 10
104.87376589035772
 20
231.4104136157382
 10
105.5386872421996
 20
232.39602807327677
 10
105.72283817367956
 20
233.7668837107412
 10
105.56927332759382
 20
236.1746945599611
 10
105.22976722631451
 20
236.9569759462938
 10
104.823292833383
 20
237.28680347094115
 10
103.5468809104476
 20
236.6062637182378
 10
101.98468308232162
 20
236.15276659255187
 10
100.99978089954334
 20
236.94006821251747
 10
100.99975899791485
 20
237.633912768439
 10
101.23835586531159
 20
238.34934855215366
 10
100.8482320569876
 20
238.7878679656443
 10
101.27225227483991
 20
239.2118881834956
 10
101.83890086455153
 20
238.64523271623236
 10
101.83891835678398
 20
237.9712976523966
 10
101.60034202452475
 20
237.28553992213307
 10
102.04733726685583
 20
236.8423669940464
 10
103.77894686687894
 20
237.34530987766914
 10
104.94265303250765
 20
238.00219454782876
 10
105.59266580037824
 20
237.4811969746522
 10
106.12947779792623
 20
236.39685887532113
 10
106.32374291378483
 20
234.7137520661146
 10
106.14952791883395
 20
232.18941501247147
 10
105.49712802079397
 20
231.11722546946353
 10
107.53848970145876
 20
229.77290713908997
 10
107.63179024345709
 20
227.91949647876547
 10
107.06312678194088
 20
226.85756876885446
 10
106.6463691249836
 20
226.43140759583179
 10
106.62848344878257
 20
225.92770522315564
 10
105.94245449588237
 20
225.35603517468016
 10
105.27764915744196
 20
225.43515878633235
 10
104.34101578212804
 20
225.96822030908166
 10
103.85307557313777
 20
226.01280104672435
 10
102.81078224875328
 20
226.53402617122694
 10
102.43837176444832
 20
226.84428113058752
 10
101.88734013708378
 20
227.95252358140795
 10
100.13026825215756
 20
227.4900578639981
 10
98.9350263309879
 20
227.73749425190834
 10
98.52061454787668
 20
228.41942427142038
 10
98.17902632569603
 20
228.50811489807757
 10
97.593476469781
 20
228.3648570237687
 10
96.77912913239832
 20
229.30012539228736
 10
96.38742344256882
 20
230.8577207749532
 10
96.58451295055731
 20
231.7718207862927
 10
95.82056448093911
 20
232.6195424747641
 10
95.0467818560242
 20
234.0270946437906
 10
94.82026622098294
 20
234.08294039989775
 10
94.0167042145885
 20
233.46244504438155
 10
93.00206198105171
 20
233.29087442818116
 10
92.71970090990399
 20
233.08716827893565
 10
92.60372519223428
 20
232.766654866942
 10
92.76967480707285
 20
232.2502894711299
 10
92.0708003127207
 20
231.40425403852575
 10
90.8763612677768
 20
231.45260727341386
 10
90.4055116496252
 20
231.74795725355747
 10
89.36033826911459
 20
232.04390178474685
 10
88.81565764012451
 20
233.23015355188042
 10
87.84667910934046
 20
234.02973311960295
 10
87.8446053762868
 20
235.33035911681736
  0
LWPOLYLINE
  5
3D
330
17
100
AcDbEntity
  8
contours
100
AcDbPolyline
 90
12
 70
1
 10
89.17931499081824
 20
125.04621927240154
 10
89.88212276275326
 20
125.74904661235657
 10
90.68995388651297
 20
126.01830418052576
 10
90.98253324735602
 20
125.03631728663031
 10
90.8945289317038
 20
124.06302298923755
 10
91.00404823610401
 20
123.5983252065065
 10
90.97805050659929
 20
122.97824272806166
 10
90.58898218436671
 20
122.51139719730263
 10
89.7957327803895
 20
123.07772740602637
 10
89.56072621591355
 20
123.54813697139264
 10
89.71204902203122
 20
124.097534365307
 10
89.17931499081824
 20
125.04621927240154
  0
LWPOLYLINE
  5
3E
330
17
100
AcDbEntity
  8
contours
100
AcDbPolyline
 90
10
 70
1
 10
82.13327639406414
 20
238.47017261881683
 10
82.38968932284457
 20
239.1111930686054
 10
82.9464551455056
 20
238.8884867395287
 10
82.84460198625709
 20
238.56831183698046
 10
83.06109102432849
 20
238.3428269944686
 10
84.91482189371341
 20
239.23975859996762
 10
85.27461497938897
 20
238.76003448571626
 10
83.43862319322326
 20
237.74223894144205
 10
82.71561931471435
 20
237.74226586948714
 10
82.13327639406414
 20
238.47017261881683
  0
LWPOLYLINE
  5
3F
330
17
100
AcDbEntity
  8
contours
100
AcDbPolyline
 90
13
 70
1
 10
68.49422343315948
 20
117.34469181731505
 10
68.67011230835524
 20
118.30243278182101
 10
69.26976745116167
 20
118.30243278182101
 10
69.33971652664907
 20
117.97501791068035
 10
70.4671502640431
 20
117.5299856066398
 10
70.46715737759438
 20
116.74154083085759
 10
69.78461225283466
 20
116.2058118147116
 10
69.74874317276749
 20
115.90821753957316
 10
69.53569105535402
 20
116.07687823370208
 10
69.14905990938777
 20
115.90807542065859
 10
69.13747972546226
 20
116.25777995888042
 10
68.70786721529903
 20
116.70376604932714
 10
68.49422343315948
 20
117.34469181731505
  0
LWPOLYLINE
  5
40
330
17
100
AcDbEntity
  8
contours
100
AcDbPolyline
 90
8
 70
1
 10
59.91931029959054
 20
94.38143955560615
 10
60.74667788974321
 20
95.33634583266394
 10
61.519243070095136
 20
95.078831604218
 10
61.85783754149575
 20
94.40158582846614
 10
61.54180392634453
 20
93.4482259036078
 10
60.79600293611239
 20
92.9260238957458
 10
60.42271983936348
 20
93.20601805067405
 10
59.91931029959054
 20
94.38143955560615
  0
LWPOLYLINE
  5
41
330
17
100
AcDbEntity
  8
contours
100
AcDbPolyline
 90
97
 70
1
 10
39.14881572931379
 20
0.04257271738716699
 10
39.49143828555703
 20
1.3593665717309156
 10
40.77679220228786
 20
2.643144975117674
 10
43.605240350330405
 20
3.2904783570578493
 10
44.9547078141502
 20
3.072209115255623
 10
44.978094410093966
 20
3.872324103087933
 10
45.387166665543155
 20
4.797303200885441
 10
44.71852111415363
 20
6.680266412442068
 10
44.97135905532044
 20
8.70508729944824
 10
45.24352046349132
 20
9.355765462416691
 10
45.846507895038805
 20
9.858222064883252
 10
46.4734452962709
 20
9.983615804270157
 10
46.967225266836515
 20
9.85320886434371
 10
47.82588473862231
 20
10.277882831417664
 10
48.30316603674808
 20
11.023187981136667
 10
48.49803613967556
 20
12.59025552334956
 10
49.10134695738674
 20
13.13402541636615
 10
49.76227977203658
 20
14.138555669396075
 10
51.20896617567682
 20
14.847510071267324
 10
52.284178688659985
 20
14.749754020156296
 10
53.300623873532324
 20
14.3419792099848
 10
54.73515216277334
 20
13.393493018529227
 10
56.13150153947852
 20
13.152898324515306
 10
57.64972756274904
 20
12.527968456076787
 10
57.98704275258093
 20
12.14841347517265
 10
58.48402184710826
 20
11.095848483880438
 10
58.64189434910788
 20
9.533868244718132
 10
58.17933287840482
 20
8.524320849309186
 10
58.09581568480015
 20
7.709565219485465
 10
58.81755218494532
 20
5.932497445592392
 10
59.595910377906705
 20
4.837087677291933
 10
60.55575664781327
 20
4.263877237615866
 10
60.78291011649992
 20
3.9394277690365
 10
60.840130198318896
 20
2.790693953595277
 10
60.560881934872725
 20
2.3253089509913636
 10
59.40613243576108
 20
1.8424230672875546
 10
58.807192409271636
 20
1.9922049307368255
 10
58.23990645175863
 20
2.2758408953528426
 10
57.293138617420084
 20
3.558738776629381
 10
56.96182137849697
 20
3.6630303661695973
 10
56.571431995180404
 20
3.2696387874858135
 10
56.15018838892266
 20
1.7829085647588871
 10
55.75692519209944
 20
1.1930872121892495
 10
54.75450039429322
 20
0.5674229186079073
 10
53.52903824502714
 20
0.08662255008172817
 10
52.80493015446924
 20
1.0618349405578364
 10
52.47716625975297
 20
0.32565992636372365
 10
51.93958694417521
 20
-0.21188818349560173
 10
51.515566726322916
 20
0.21213203435572014
 10
51.93060900217275
 20
0.6351153871619309
 10
52.280435270234165
 20
1.627649284001657
 10
52.68537074149147
 20
1.9313915176460519
 10
53.79472652194666
 20
0.9191542516735323
 10
54.43300442129392
 20
1.1078616819984615
 10
55.356734785471055
 20
1.686300569554215
 10
56.30777182197358
 20
4.078137010606755
 10
56.995994422524106
 20
4.307379773250893
 10
57.6673627169198
 20
4.083579881816593
 10
58.616177275143876
 20
2.76702558875362
 10
59.34577417073575
 20
2.4765372720355083
 10
60.13216270019873
 20
2.788273117640789
 10
60.24028056113972
 20
3.3302613813086763
 10
60.15055120519552
 20
3.795271352684487
 10
59.17471886063063
 20
4.377969166820659
 10
58.31686783285204
 20
5.576311933125249
 10
57.49687878396094
 20
7.606772534408136
 10
57.60548860381872
 20
8.704525503199585
 10
58.02959352833824
 20
9.645975411921201
 10
57.90179141080186
 20
10.935951922442339
 10
57.48386455805907
 20
11.811707805941978
 10
57.27866407967318
 20
12.025749374900249
 10
55.95192489434236
 20
12.568812907857218
 10
55.02241800877978
 20
12.632032014925455
 10
54.47025056699092
 20
12.852717740491343
 10
53.03864286959215
 20
13.787895489716647
 10
52.15174370971054
 20
14.151132713069574
 10
51.28853285254615
 20
14.234406303384914
 10
50.07621016311784
 20
13.621470055006947
 10
49.56206167357202
 20
12.73138180526763
 10
49.06293182129437
 20
12.324098459378357
 10
48.73299845627999
 20
10.367901411169582
 10
48.242349982539295
 20
9.842984884979757
 10
47.201276517382595
 20
9.297513259702322
 10
46.150842977678096
 20
9.307393757387992
 10
45.75279340130056
 20
8.986389203584288
 10
45.548029727098495
 20
8.51545381191996
 10
45.32845805538206
 20
6.734243190582637
 10
46.075673971903534
 20
4.789579158317036
 10
45.611174960941895
 20
3.8181476008024595
 10
45.6713452780166
 20
3.3300680883039186
 10
45.47762022327333
 20
2.7137190487369853
 10
45.13174364946041
 20
2.367858542822135
 10
43.54150706902391
 20
2.6739958606391463
 10
41.23709799563209
 20
2.2016681419152717
 10
40.023015937696016
 20
1.0390019423823866
 10
39.742444034306345
 20
-0.042231326183000406
 10
39.14881572931379
 20
0.04257271738716699
  0
LWPOLYLINE
  5
42
330
17
100
AcDbEntity
  8
contours
100
AcDbPolyline
 90
9
 70
1
 10
55.70605144098931
 20
103.06791742481259
 10
56.392843436087084
 20
103.7547325278793
 10
57.660246127677546
 20
103.75472541432799
 10
58.01427077826467
 20
103.04673113333016
 10
58.014269058176424
 20
102.42620747203989
 10
57.687579743438555
 20
101.77287180259277
 10
56.38367531626167
 20
101.33822776073822
 10
56.05116225551907
 20
101.89359134293555
 10
55.70605144098931
 20
103.06791742481259
  0
LWPOLYLINE
  5
43
330
17
100
AcDbEntity
  8
contours
100
AcDbPolyline
 90
26
 70
1
 10
47.85475151624287
 20
92.91783567134812
 10
49.08208393298582
 20
94.77757696961531
 10
49.00719542263461
 20
95.41116960946849
 10
49.687432614431444
 20
96.09140587456967
 10
50.361367678250275
 20
96.09142336680213
 10
50.99303166439107
 20
95.77559334601364
 10
51.499078391668036
 20
94.5380980117005
 10
52.1878360294162
 20
93.7438505773873
 10
53.17123009130989
 20
93.09541661045826
 10
53.68904600131231
 20
91.67665870705704
 10
54.04126706811916
 20
91.82398778322265
 10
54.85214934201041
 20
91.55369396336485
 10
54.9888416644505
 20
90.48862254472766
 10
54.819173660001844
 20
89.86344906130739
 10
53.97818817202885
 20
90.00363843714388
 10
53.29715592906495
 20
90.87036334496212
 10
52.80956137355579
 20
90.46270234185704
 10
51.078749512639895
 20
90.2232397237619
 10
50.644367760365036
 20
90.94713777615969
 10
50.94763512545103
 20
92.49584599853823
 10
50.85804851228759
 20
93.0458293848403
 10
49.98552626164838
 20
92.79142549755183
 10
49.47880074585822
 20
92.13887775550816
 10
48.779776221581784
 20
92.14043315551102
 10
48.16946368377247
 20
92.4458125922318
 10
47.85475151624287
 20
92.91783567134812
  0
LWPOLYLINE
  5
44
330
17
100
AcDbEntity
  8
contours
100
AcDbPolyline
 90
9
 70
1
 10
51.55991506411521
 20
92.78884208313521
 10
51.28733124879291
 20
91.1000926382568
 10
51.42937784227811
 20
90.84251610617031
 10
52.55637715327441
 20
91.07394312022168
 10
53.03875452653258
 20
91.55022716304488
 10
52.88042793872849
 20
92.33385604444473
 10
52.4858911645518
 20
92.9216442211059
 10
51.8431415023632
 20
93.07908177682847
 10
51.55991506411521
 20
92.78884208313521
  0
LWPOLYLINE
  5
45
330
17
100
AcDbEntity
  8
contours
100
AcDbPolyline
 90
10
 70
1
 10
48.66764516288836
 20
93.05582543378351
 10
48.71234790791179
 20
92.84580076408241
 10
49.15329531481201
 20
92.74598652223514
 10
49.643835175692075
 20
93.35349230780004
 10
51.20701037475635
 20
93.78059251038003
 10
50.52460863401743
 20
95.33633269446113
 10
49.98331677851113
 20
95.49086087532973
 10
49.7051962901796
 20
95.25986849147863
 10
49.58817688214273
 20
94.42570504138524
 10
48.66764516288836
 20
93.05582543378351
  0
LWPOLYLINE
  5
46
330
17
100
AcDbEntity
  8
contours
100
AcDbPolyline
 90
8
 70
1
 10
39.29403166717641
 20
143.33260746573717
 10
39.6725295931858
 20
143.71109533164295
 10
40.91670866090817
 20
143.20148199694546
 10
41.201872535869605
 20
142.7737586250597
 10
40.92752991790298
 20
141.95066845570247
 10
39.53739994181576
 20
141.95066845570247
 10
39.294068443288154
 20
142.68081035821217
 10
39.29403166717641
 20
143.33260746573717
  0
LWPOLYLINE
  5
47
330
17
100
AcDbEntity
  8
contours
100
AcDbPolyline
 90
80
 70
1
 10
7.239306435458346
 20
166.6773547094137
 10
8.083081718647994
 20
167.5211370281932
 10
8.97112192875579
 20
167.08039094897944
 10
9.1697122799862
 20
167.1866050671087
 10
9.08665526030892
 20
167.46281170459696
 10
8.448783648495363
 20
168.10068331642094
 10
7.740023670419246
 20
168.4590994065003
 10
8.374862093067852
 20
169.72868314352266
 10
8.976009768745655
 20
170.32988282847782
 10
9.70334894869459
 20
170.32988282847782
 10
10.400208689508489
 20
169.74276153630368
 10
11.370799347897174
 20
170.80884074431782
 10
12.159244123661773
 20
170.8088336307665
 10
13.045350265658694
 20
168.88998696216302
 10
13.732647004349769
 20
168.89606858068026
 10
15.202462674552566
 20
170.32988282847782
 10
15.461677239618542
 20
170.37399410305906
 10
15.812546059163006
 20
171.1932617671279
 10
16.284569138285956
 20
171.50797393465479
 10
17.382824859494956
 20
170.4447652806506
 10
17.591464477601615
 20
170.45481630972924
 10
17.660410745094286
 20
170.96310489300183
 10
17.42165695363815
 20
171.89724322394255
 10
17.424819498150566
 20
172.61194820222104
 10
18.67935871743963
 20
173.0480644922942
 10
19.30237295021747
 20
172.94425735443951
 10
19.72332052275552
 20
172.56838820589013
 10
20.036823406594944
 20
172.5035780274653
 10
20.770306107613408
 20
172.84761646213445
 10
21.085640070923684
 20
171.9015920763358
 10
20.339721602531522
 20
170.7644833656725
 10
19.840436384021395
 20
170.50659752581814
 10
19.318777227839046
 20
169.7302367567224
 10
18.782419285554745
 20
169.70478056208233
 10
17.72144288576311
 20
168.64812407073245
 10
17.086341546979597
 20
169.27890550109967
 10
16.828921257439593
 20
169.23047256995463
 10
16.44493405312245
 20
168.22925855823274
 10
16.92710447847411
 20
167.32185244248782
 10
18.344457118563767
 20
167.19676236446898
 10
18.739702467757724
 20
166.8015453414692
 10
18.73971995999016
 20
166.12761027765768
 10
18.507187024700453
 20
165.47398892447148
 10
19.165218067275926
 20
164.93910398520492
 10
19.523141036200638
 20
164.22336227978275
 10
18.803549349502735
 20
163.5037845061829
 10
17.655714986060865
 20
163.35838705300728
 10
17.285786249300845
 20
163.63581914362
 10
16.989460871538828
 20
164.5890642096019
 10
16.657461036934915
 20
164.71015087602925
 10
16.067810146607698
 20
164.11234445541595
 10
15.874380365715995
 20
163.3493091466922
 10
15.882905690393455
 20
162.5829790482553
 10
16.243109261995713
 20
161.3739365699023
 10
15.866893538367522
 20
160.7208582427096
 10
15.385470253891592
 20
160.35969380576566
 10
14.478031601442998
 20
160.5152101808912
 10
13.924660624478975
 20
160.25288272196545
 10
13.225638684196372
 20
160.42760523323633
 10
12.632041347095024
 20
161.31803872285144
 10
12.632048132770324
 20
162.5520296948144
 10
13.410821643286882
 20
162.94140543481979
 10
14.113272145342748
 20
162.590222604535
 10
14.395909185773675
 20
162.0971419379652
 10
14.859291374109983
 20
162.24285356732332
 10
14.371978944187035
 20
163.32465173714792
 10
14.623298976420308
 20
164.2956096922969
 10
14.39902991681354
 20
164.35207700944827
 10
14.051744972704551
 20
164.0204924658022
 10
13.480462776419929
 20
163.83038122066563
 10
12.377582014042469
 20
163.83179265817185
 10
11.80943413840558
 20
164.02281481893343
 10
10.864933700989424
 20
165.24031802864857
 10
10.616017323935566
 20
165.24840816474625
 10
10.148895144883006
 20
164.94065858155523
 10
9.454967684570606
 20
164.9406582536792
 10
8.80037769256582
 20
165.59524824570155
 10
8.745359393431146
 20
165.86434836159253
 10
8.0180939370732
 20
165.89857408534735
 10
7.239306435458346
 20
166.6773547094137
  0
LWPOLYLINE
  5
48
330
17
100
AcDbEntity
  8
contours
100
AcDbPolyline
 90
9
 70
1
 10
18.078890227608902
 20
172.2647767928962
 10
18.38654900189501
 20
170.24071947288695
 10
19.012727810330855
 20
170.3641782599908
 10
19.43198873387519
 20
170.981041115196
 10
19.900460950992553
 20
171.23290639605884
 10
20.122335195830612
 20
171.83654873162246
 10
19.524518562867314
 20
171.98006188623393
 10
18.96674978540267
 20
172.3921183387792
 10
18.078890227608902
 20
172.2647767928962
  0
LWPOLYLINE
  5
49
330
17
100
AcDbEntity
  8
contours
100
AcDbPolyline
 90
38
 70
1
 10
8.605929691461357
 20
168.84804113236714
 10
9.58605975062399
 20
167.8128514801956
 10
9.943982719572533
 20
167.09710977478022
 10
9.403082608746107
 20
166.52022215465107
 10
9.40665935044655
 20
165.86229227923684
 10
9.708151904849384
 20
165.55189903204374
 10
9.979173056831309
 20
165.55185903632827
 10
10.44629523588387
 20
165.8596086195193
 10
11.16593493528269
 20
165.85959198150152
 10
12.121240612991688
 20
164.56044786509918
 10
12.940116991334
 20
164.34952058877772
 10
13.719558884273345
 20
164.54476405443373
 10
14.309534624482048
 20
165.12634744902806
 10
15.48993548716203
 20
164.41620174610725
 10
16.763527054113023
 20
165.66450117977232
 10
17.488865361851783
 20
164.9391039852056
 10
17.862841478455596
 20
164.0838229931687
 10
18.536505315957097
 20
164.11006616406414
 10
18.74887059662607
 20
164.3128575721222
 10
18.50689988095359
 20
164.74797790560217
 10
17.900585206923076
 20
165.05518473404484
 10
18.10583132752513
 20
166.58611759898017
 10
16.613624182938338
 20
166.69685424429198
 10
15.680265777421209
 20
168.05502560643018
 10
16.11845629820849
 20
169.0515258113044
 10
15.85681442169575
 20
169.71911806013708
 10
15.429713874728604
 20
169.70478056208233
 10
14.013970191173705
 20
168.2933636645
 10
13.513882211402017
 20
168.26790681458607
 10
12.800830300909023
 20
167.55916195470388
 10
12.399795765657728
 20
168.98484296193885
 10
11.740439933236884
 20
170.20223181298914
 10
11.249736610757669
 20
169.83846822083575
 10
10.639728086773415
 20
168.9250732264751
 10
9.880535293349787
 20
169.30472181249428
 10
9.463471724089498
 20
169.71234830988922
 10
9.215886993350768
 20
169.71234830988922
 10
8.605929691461357
 20
168.84804113236714
  0
LWPOLYLINE
  5
4A
330
17
100
AcDbEntity
  8
contours
100
AcDbPolyline
 90
119
 70
1
 10
20.88908917801709
 20
173.08252996605114
 10
20.570900869042394
 20
173.7012278478161
 10
19.81641687024968
 20
174.15538513485075
 10
19.816409756698384
 20
174.9438299106125
 10
20.351951593288337
 20
175.48369853318488
 10
20.343182719445853
 20
175.6621930607614
 10
19.99204183288156
 20
175.71721135989551
 10
19.106905963385056
 20
176.50450654231497
 10
18.039940207045305
 20
176.43564757836387
 10
17.18214121962201
 20
177.56919614148947
 10
17.182123727389556
 20
178.24313120530374
 10
17.58735591952363
 20
179.0535635039314
 10
18.757929648605643
 20
178.47491693323613
 10
19.238606028412608
 20
178.67797173753965
 10
18.965694695630496
 20
179.59534130622015
 10
18.455866131212282
 20
179.86468721511451
 10
18.176111289890333
 20
180.406638669456
 10
17.698352682122287
 20
180.6911890431015
 10
16.993576870992786
 20
180.43047104751034
 10
17.063349434477793
 20
179.51843952444713
 10
16.415602564853224
 20
178.09623610300272
 10
15.505788514199798
 20
179.006069888979
 10
15.505771021967348
 20
179.68000495280486
 10
15.931254841894301
 20
180.57485831110765
 10
15.481901900618416
 20
181.50204478701144
 10
15.70319513258124
 20
182.16597979818823
 10
16.292451165681527
 20
182.6977982982468
 10
16.68138932912468
 20
183.46807931542054
 10
17.724723004189446
 20
182.5772571113636
 10
18.77311724984628
 20
182.531811695189
 10
19.76626813730948
 20
181.8364681703193
 10
20.423496848744513
 20
181.8257723911948
 10
20.949957664530217
 20
182.30383072427634
 10
21.45004564430849
 20
182.32928757418904
 10
22.03206412826983
 20
182.90698614971194
 10
22.64001563230618
 20
182.31542608615888
 10
23.5499145415591
 20
182.32207801636036
 10
23.582007242542524
 20
182.56260963789822
 10
22.962782408017116
 20
182.87978612270499
 10
23.94789579159641
 20
183.86490198138526
 10
24.933009175137073
 20
182.87978612270595
 10
23.68213323918816
 20
182.27608639385227
 10
24.279920502902584
 20
181.61701562119467
 10
23.944726214649695
 20
180.53067481429136
 10
24.01098907753111
 20
179.68778936803957
 10
24.51711148301681
 20
178.49088940343876
 10
24.80507135142607
 20
178.3308796590941
 10
27.176410570337104
 20
180.38799906095187
 10
27.573785018469177
 20
180.406773341013
 10
27.789579522273304
 20
180.77471702681842
 10
29.431070355538964
 20
181.72822190826287
 10
29.405320691828294
 20
182.4044929030443
 10
28.93910377641743
 20
183.31478642886103
 10
28.155863095601358
 20
183.05433174350554
 10
27.532423033530335
 20
183.9895196301307
 10
28.204296582911837
 20
184.49344011216854
 10
30.17547043514472
 20
184.06397332122862
 10
30.184596373796108
 20
183.8738892166652
 10
30.995826556117677
 20
183.10871610360454
 10
31.399534091161357
 20
182.1620883564546
 10
32.313672946953226
 20
181.50906027987804
 10
32.749878312817835
 20
180.95154840643775
 10
33.43252607688894
 20
180.95105445901305
 10
34.952239067553414
 20
181.68531807205903
 10
35.477958316382825
 20
181.5137012209328
 10
36.48041792571464
 20
181.55116025522358
 10
37.410577339164526
 20
180.87733502480395
 10
38.083474173894444
 20
180.86696063234618
 10
38.23346693386743
 20
180.1141802887328
 10
38.083474173894444
 20
178.830434157236
 10
37.17342120700625
 20
178.83044492635347
 10
36.83835855634555
 20
179.2893446055295
 10
36.70063414950663
 20
178.9141534488198
 10
35.885122918414005
 20
178.55623060782494
 10
35.93572081805108
 20
178.36496662700958
 10
36.78735162323342
 20
177.796040712012
 10
36.11149484369868
 20
176.12502627735662
 10
35.35325138714033
 20
176.0889181302495
 10
34.03618501297929
 20
177.0846124240044
 10
33.18100751056889
 20
176.4637003050482
 10
32.440347460863904
 20
176.17167274817535
 10
32.78757187416488
 20
175.51703079200814
 10
33.73463686651125
 20
174.92935835349044
 10
34.42911356619799
 20
173.44642481883264
 10
34.39750402663466
 20
172.81389321213553
 10
33.854706448254056
 20
172.17045929548132
 10
32.548689490675926
 20
171.93269761531735
 10
31.894370740581202
 20
172.17809143691156
 10
31.396390078523083
 20
172.91168964261374
 10
30.46179892753155
 20
173.3827655310512
 10
31.69236619841631
 20
174.02543635872922
 10
31.642575628324877
 20
174.22829693291612
 10
31.107393470150793
 20
174.35947554135305
 10
29.501056560099432
 20
174.25488076248539
 10
29.55945872509659
 20
173.94270086774847
 10
29.31159061774533
 20
173.19910859264382
 10
28.180204526463154
 20
172.52942629096856
 10
27.555945506155087
 20
173.27858949266474
 10
27.719197875695055
 20
175.36938371032448
 10
28.197484893381688
 20
176.76034200077626
 10
28.203962510414637
 20
177.35925981279797
 10
28.072368833756144
 20
177.48272742086232
 10
27.63464963439578
 20
177.33854576617117
 10
27.307502636391558
 20
176.5578900027684
 10
26.883427408903593
 20
176.13351203757688
 10
26.56665668325694
 20
176.10659771724156
 10
27.186467689506745
 20
175.3578000448791
 10
26.82854472058345
 20
174.64205833944212
 10
26.520266309856073
 20
174.3337799287257
 10
25.934506684441573
 20
174.0408394421645
 10
25.56814173682809
 20
174.02923926282477
 10
25.395545246757155
 20
173.8052984928292
 10
25.55722837556268
 20
173.3963106715479
 10
26.645271480789674
 20
172.84826499143296
 10
24.858935213608934
 20
172.3525833001753
 10
23.306966093596344
 20
173.12069680258108
 10
22.611762315913335
 20
173.70318847717843
 10
21.62388544194361
 20
173.08292361049638
 10
20.88908917801709
 20
173.08252996605114
  0
LWPOLYLINE
  5
4B
330
17
100
AcDbEntity
  8
contours
100
AcDbPolyline
 90
60
 70
1
 10
25.39976723279718
 20
178.00255727229256
 10
25.413526829103166
 20
177.77825621519452
 10
26.74944642459675
 20
176.9055679158124
 10
26.99802895853887
 20
177.2929997888852
 10
27.00077363099698
 20
177.99321434494988
 10
27.6638725257014
 20
178.01109858389447
 10
28.25851703407266
 20
178.59636490722713
 10
29.102299352839832
 20
177.75258962402518
 10
28.80376282275724
 20
177.14939041389758
 10
28.71010652128774
 20
176.18400291734528
 10
28.324804906947733
 20
175.23355875057774
 10
28.34449212802648
 20
174.60240543047533
 10
29.69539078157945
 20
174.9530976823295
 10
31.70498097730498
 20
174.86848504187967
 10
32.38999595541536
 20
174.52597759060106
 10
32.38999595541536
 20
173.6764272190226
 10
31.879832252763592
 20
173.3444476746475
 10
32.26859533563991
 20
172.69952113016606
 10
32.59003642523768
 20
172.5646514873561
 10
33.46115163264613
 20
172.65930934793204
 10
33.78661299006538
 20
172.96158510948302
 10
33.82020305030242
 20
173.2951251055303
 10
33.343727910333584
 20
174.43405640511116
 10
32.352935753907126
 20
175.0823946717461
 10
31.995108363319556
 20
175.57479692126688
 10
30.832436957650195
 20
175.47772753881898
 10
30.832436957650195
 20
176.5563405974536
 10
31.57012638901146
 20
176.55995059598192
 10
32.90848341147831
 20
177.0057834121564
 10
33.98447121730802
 20
177.79990180571775
 10
34.66255087899404
 20
177.4608092496305
 10
35.502250893289514
 20
176.7204638487176
 10
35.71293320554081
 20
176.72364002445548
 10
35.963603787666216
 20
177.5847625688917
 10
35.449820608273036
 20
177.9670588741532
 10
35.05633575152902
 20
178.7539565436774
 10
36.05862974519644
 20
179.35032805154583
 10
36.097919395266686
 20
179.7494806716786
 10
35.88009209268434
 20
179.85250531302978
 10
35.442885771552014
 20
179.42467717695277
 10
34.83858241068727
 20
180.02897350222864
 10
35.230095356998554
 20
180.8275772640963
 10
34.95313392568759
 20
181.03250645222496
 10
33.59100538051728
 20
180.3342135048862
 10
34.04705209097269
 20
179.60921843686702
 10
33.687514702790494
 20
179.0699161154424
 10
32.923905560315696
 20
179.06991677071625
 10
32.443792831543966
 20
179.55001558638997
 10
32.71632700808246
 20
180.30809671706783
 10
32.41584028708737
 20
180.4161203133895
 10
30.879275412601405
 20
181.83273306377515
 10
30.46110552704076
 20
182.82913226459104
 10
29.936895240763523
 20
183.25939030529526
 10
29.81155542104752
 20
183.09195015854618
 10
30.124179661646522
 20
182.0040080160364
 10
29.958166309865856
 20
181.33986714109966
 10
28.272394164743464
 20
180.37451233090826
 10
27.964855346117968
 20
179.78836075802158
 10
27.403661770517402
 20
179.7628967945556
 10
25.39976723279718
 20
178.00255727229256
  0
LWPOLYLINE
  5
4C
330
17
100
AcDbEntity
  8
contours
100
AcDbPolyline
 90
49
 70
1
 10
16.704324203631845
 20
181.4109165873056
 10
17.234760927371912
 20
181.15992752284157
 10
17.721442885764613
 20
181.38128519433263
 10
18.377981740726206
 20
181.05299361836654
 10
18.913688461829636
 20
180.3127590158604
 10
19.363602448489925
 20
180.08124151599816
 10
19.765461817215176
 20
179.35089481287136
 10
20.780486608644946
 20
179.43007611573245
 10
21.43897269953183
 20
178.11314183889473
 10
20.94967530440186
 20
177.51130381269977
 10
21.648820264484737
 20
176.25651302605038
 10
21.320528688505007
 20
175.59997417110844
 10
20.416991603677232
 20
174.6037246528264
 10
21.267085130877152
 20
173.70929638575856
 10
21.84656066469516
 20
173.86586655214558
 10
22.451819193615542
 20
174.46602680774805
 10
23.16756089903435
 20
174.10810383880977
 10
23.639158550591976
 20
173.64496445522784
 10
24.74363499840732
 20
173.12025032724614
 10
24.858439309416944
 20
173.26086357419203
 10
24.750214423626907
 20
173.929386997823
 10
25.224308944508515
 20
174.64050472624055
 10
25.79868901110013
 20
174.64644819350582
 10
26.33854226550319
 20
175.00514274212176
 10
26.417178281214632
 20
175.25478671815483
 10
26.21369178253271
 20
175.46613704009886
 10
25.168662466857054
 20
175.47772256392173
 10
24.757476893955864
 20
176.7113058360173
 10
24.888354452220433
 20
177.59875203381898
 10
24.348282776253438
 20
177.86977244551352
 10
23.462749879386905
 20
177.87250802613028
 10
23.83406045312462
 20
178.65902664778136
 10
23.40857491310825
 20
179.53843920734647
 10
23.318658562780232
 20
180.60287825379106
 10
23.59922867894883
 20
181.39662628815734
 10
23.365877307632996
 20
181.67872845788125
 10
22.386831412031885
 20
181.70418530779475
 10
22.017361557211835
 20
181.99584753780215
 10
21.67729684447798
 20
181.70418530779475
 10
21.1898348891397
 20
181.68629620568717
 10
20.719381012829327
 20
181.22522739195477
 10
19.51308391703068
 20
181.22522739195477
 10
18.59205739079266
 20
181.9508979700556
 10
17.674566476128582
 20
181.9317416168099
 10
16.8734998110592
 20
182.35203854548615
 10
16.252512265881446
 20
181.86699235214758
 10
16.145195699334334
 20
181.5928361481336
 10
16.362047527136188
 20
181.18397163123137
 10
16.704324203631845
 20
181.4109165873056
  0
LWPOLYLINE
  5
4D
330
17
100
AcDbEntity
  8
contours
100
AcDbPolyline
 90
15
 70
1
 10
18.608572201506394
 20
177.8725044889016
 10
17.971957891790822
 20
178.18749678213445
 10
17.788254605927783
 20
178.0859108652199
 10
17.799675738209643
 20
177.80907336608698
 10
18.357819698424827
 20
177.06080282692471
 10
19.224044532971714
 20
177.18069110329597
 10
20.273365019700545
 20
176.3199162760757
 10
20.581645240268568
 20
176.42897186253785
 10
21.0129939149056
 20
177.29030509860155
 10
20.8383035546681
 20
177.47714625769262
 10
20.513052655777894
 20
177.187231305818
 10
20.112089359697386
 20
177.98684122580633
 10
19.766353021146433
 20
178.24826636565587
 10
19.28250726532979
 20
177.872521981134
 10
18.608572201506394
 20
177.8725044889016
  0
LWPOLYLINE
  5
4E
330
17
100
AcDbEntity
  8
contours
100
AcDbPolyline
 90
7
 70
1
 10
35.078061368611905
 20
83.75843242006367
 10
35.74129136151507
 20
84.77978388713365
 10
36.460004453687326
 20
85.14037550513673
 10
37.78273765273804
 20
83.81763527054221
 10
37.000341294425915
 20
83.03867735471404
 10
35.797653055318136
 20
83.03885464647327
 10
35.078061368611905
 20
83.75843242006367
  0
LWPOLYLINE
  5
4F
330
17
100
AcDbEntity
  8
contours
100
AcDbPolyline
 90
8
 70
1
 10
30.73664442584876
 20
177.5882126076635
 10
30.85606770618331
 20
178.7991186589618
 10
31.693360169881412
 20
179.63641598875464
 10
32.42386226247911
 20
178.1688880996367
 10
32.08324552402333
 20
177.48810095832178
 10
31.690531244976206
 20
177.22625547793254
 10
30.978766386063747
 20
177.2855892590764
 10
30.73664442584876
 20
177.5882126076635
  0
LWPOLYLINE
  5
50
330
17
100
AcDbEntity
  8
contours
100
AcDbPolyline
 90
9
 70
1
 10
25.04174367970228
 20
71.92466479559472
 10
25.739536822859222
 20
72.62246799882446
 10
26.50314596531841
 20
72.62246865409831
 10
26.97724048616661
 20
71.9113509256727
 10
26.865895525205406
 20
71.24332071675622
 10
26.526342309158892
 20
70.79061379105785
 10
25.741290013371014
 20
70.52892317257
 10
25.272651540861187
 20
71.23181814072053
 10
25.04174367970228
 20
71.92466479559472
  0
LWPOLYLINE
  5
51
330
17
100
AcDbEntity
  8
contours
100
AcDbPolyline
 90
10
 70
1
 10
24.845450380695983
 20
146.1529508445808
 10
25.141057796221435
 20
146.74167457035273
 10
26.490751748289863
 20
147.81843927687913
 10
26.753539296216708
 20
147.11641477826853
 10
26.969978015841964
 20
145.57904130695184
 10
26.445339309223705
 20
144.49821951905201
 10
25.83983243283488
 20
144.78802002092925
 10
25.30379211822543
 20
144.62156999902533
 10
24.947745714171006
 20
144.9773556145671
 10
24.845450380695983
 20
146.1529508445808
  0
LWPOLYLINE
  5
52
330
17
100
AcDbEntity
  8
contours
100
AcDbPolyline
 90
8
 70
1
 10
20.49947632870271
 20
186.7935871743542
 10
20.856972917814215
 20
187.5085711937273
 10
21.505039040278536
 20
187.76785114975456
 10
22.18934502352887
 20
187.72220992357856
 10
22.50283381970839
 20
187.30419746469713
 10
21.730687151532553
 20
186.30772782452627
 10
20.94006133036004
 20
185.91236835979595
 10
20.49947632870271
 20
186.7935871743542
  0
LWPOLYLINE
  5
53
330
17
100
AcDbEntity
  8
contours
100
AcDbPolyline
 90
7
 70
1
 10
20.610351410264226
 20
147.12432323996876
 10
20.917279387304063
 20
147.5795591182341
 10
21.65305667774861
 20
147.579402802848
 10
22.172217231997635
 20
147.18998303149672
 10
22.17223387001542
 20
146.4703433320697
 10
20.874180826623608
 20
144.9792149109615
 10
20.610351410264226
 20
147.12432323996876
  0
LWPOLYLINE
  5
54
330
17
100
AcDbEntity
  8
contours
100
AcDbPolyline
 90
11
 70
1
 10
17.754957370957825
 20
184.8777555110106
 10
18.34852302195261
 20
185.60955644427438
 10
19.225715983561003
 20
185.73805321851574
 10
19.523255087089638
 20
185.58925754805156
 10
19.98537771167183
 20
184.9557348896756
 10
20.729277347007695
 20
185.2800164097305
 10
21.221219358695222
 20
184.29614365670997
 10
20.674499180824444
 20
183.93166629957344
 10
20.067094185646766
 20
183.98223598658652
 10
18.003852406201297
 20
184.46739123819953
 10
17.754957370957825
 20
184.8777555110106
  0
LWPOLYLINE
  5
55
330
17
100
AcDbEntity
  8
contours
100
AcDbPolyline
 90
12
 70
1
 10
16.463688773255512
 20
104.65774137963271
 10
17.34554553805525
 20
103.7801893777932
 10
17.900359705600238
 20
103.70000936893037
 10
18.925739109352115
 20
102.67457492708257
 10
19.254030685331063
 20
102.01803607214222
 10
18.831244140241704
 20
101.17239430864304
 10
18.000376206498313
 20
101.44937692410002
 10
17.67522212324727
 20
101.99130593536506
 10
17.897694259622003
 20
102.55528994140546
 10
17.848376728055616
 20
103.12132801826169
 10
16.46369948270981
 20
103.1550822482353
 10
16.463688773255512
 20
104.65774137963271
  0
LWPOLYLINE
  5
56
330
17
100
AcDbEntity
  8
contours
100
AcDbPolyline
 90
12
 70
1
 10
9.51879358994249
 20
161.50876810059808
 10
9.908213361282513
 20
162.02792865484082
 10
11.19343947785287
 20
161.92267234633314
 10
11.840983970045412
 20
160.9514005261979
 10
11.49419918481368
 20
160.25794252389053
 10
10.528360941100892
 20
159.75485978404143
 10
10.560794730446386
 20
159.41200855109807
 10
9.998590180828938
 20
158.84979692851402
 10
9.645570165180148
 20
159.43811974009816
 10
9.739991876997529
 20
159.9427362267386
 10
9.571891968652851
 20
160.3823500919101
 10
9.51879358994249
 20
161.50876810059808
  0
LWPOLYLINE
  5
57
330
17
100
AcDbEntity
  8
contours
100
AcDbPolyline
 90
9
 70
1
 10
9.039837438149545
 20
173.31198630153318
 10
9.039856650470213
 20
173.98591407896163
 10
9.579158316633672
 20
174.52522262265603
 10
10.230575068952279
 20
173.87526858738525
 10
10.83688974299562
 20
173.5680617589321
 10
10.836906694606611
 20
172.68770054300649
 10
10.058113793906498
 20
172.42809116864237
 10
9.369896070464057
 20
172.65733393126848
 10
9.039837438149545
 20
173.31198630153318
  0
LWPOLYLINE
  5
58
330
17
100
AcDbEntity
  8
contours
100
AcDbPolyline
 90
8
 70
1
 10
8.321400564418099
 20
68.42020273439833
 10
8.321409873302708
 20
69.23462677789199
 10
9.752514816072491
 20
69.25043658802271
 10
10.198285974210403
 20
68.5817608763408
 10
10.401142091831613
 20
67.45208871141702
 10
9.57915831663367
 20
66.63008799858618
 10
8.853820008891674
 20
67.35548519315614
 10
8.321400564418099
 20
68.42020273439833
  0
LWPOLYLINE
  5
59
330
17
100
AcDbEntity
  8
contours
100
AcDbPolyline
 90
9
 70
1
 10
8.560879522340773
 20
206.360082493929
 10
8.560900106019188
 20
207.11280856688657
 10
9.054814794914956
 20
207.3086940823669
 10
9.721916359209459
 20
207.27039218460936
 10
9.916479464378304
 20
207.04801342092995
 10
10.048803537366775
 20
206.41280672997127
 10
9.795265388858013
 20
205.65207126132023
 10
8.914904172927885
 20
205.6520882129312
 10
8.560879522340773
 20
206.360082493929
  0
LWPOLYLINE
  5
5A
330
17
100
AcDbEntity
  8
contours
100
AcDbPolyline
 90
8
 70
1
 10
6.708652290881006
 20
164.28256756881723
 10
6.932452182310774
 20
164.95393586320972
 10
7.572547740884667
 20
165.38065070367935
 10
8.266475201192828
 20
165.38065103155532
 10
8.795843013682031
 20
164.8513003595544
 10
8.345273496740742
 20
163.50378587754068
 10
6.968261665261794
 20
163.5037746681232
 10
6.708652290881006
 20
164.28256756881723
  0
LWPOLYLINE
  5
5B
330
17
100
AcDbEntity
  8
contours
100
AcDbPolyline
 90
41
 70
1
 10
-0.21188818349804503
 20
149.2227377051313
 10
0.15211650687174738
 20
149.697849743459
 10
-0.21188818349543842
 20
150.12595968966832
 10
0.31699250223535796
 20
150.65485823560235
 10
1.1368737475001738
 20
151.11257617828656
 10
1.0471462208578035
 20
151.67528911877753
 10
0.5526001919787182
 20
151.61089657940144
 10
0.21213203435627068
 20
151.2984658579299
 10
-0.21188818349485644
 20
151.7224860757824
 10
0.14519567588130813
 20
152.07801471459382
 10
0.8477551528990419
 20
152.3034153471838
 10
1.2044890693667551
 20
153.03852208748842
 10
1.9158316633272459
 20
153.21636403037482
 10
2.311448381549925
 20
153.14626166075462
 10
2.770839211571591
 20
153.58765476829157
 10
3.878539736291414
 20
153.57827842327356
 10
4.402962329499679
 20
153.32769855355053
 10
5.350909904925436
 20
153.4539542020116
 10
6.6567621158371155
 20
152.50851731819083
 10
6.777677220870624
 20
151.7827829089969
 10
5.979879668118993
 20
150.14183863395874
 10
5.268537074153387
 20
149.96399669107112
 10
4.81804328690501
 20
150.06393282293982
 10
4.251418392001161
 20
149.78848221029287
 10
3.3135568602768
 20
150.5559075656188
 10
2.270598947091257
 20
150.5719207787281
 10
1.8868737475015227
 20
150.89326321556027
 10
1.070506938565633
 20
150.26365034554178
 10
1.0410696207134136
 20
150.09130313619113
 10
1.448365521830566
 20
149.47916944671016
 10
1.226706498977389
 20
148.60278897894182
 10
2.6487739607782346
 20
148.7767724180604
 10
2.789865736674236
 20
147.93033244107815
 10
2.015777501833386
 20
147.21919284925835
 10
1.1287255408857253
 20
147.19782349252586
 10
0.6031485478853267
 20
146.50077849416513
 10
0.00017242859742845601
 20
146.5007736310027
 10
0.1113981267202455
 20
147.974440282133
 10
-0.09465022296267037
 20
148.60179720520668
 10
0.15426117008959503
 20
148.8094073018242
 10
-0.21188818349804503
 20
149.2227377051313
  0
LWPOLYLINE
  5
5C
330
17
100
AcDbEntity
  8
contours
100
AcDbPolyline
 90
17
 70
1
 10
1.2996353631232083
 20
151.90676741998507
 10
1.3482988654486017
 20
151.662119472932
 10
2.0400222953903056
 20
151.65052411104966
 10
2.5519221339228113
 20
151.17462569490854
 10
3.4234919267598625
 20
151.17158368744214
 10
4.3969620404736425
 20
150.55086989748347
 10
4.754698092961032
 20
150.71054413173277
 10
5.4890759692117195
 20
150.64971714907054
 10
6.1478494863102515
 20
151.89335615908436
 10
6.081687549954384
 20
152.1219303678606
 10
5.203595317104533
 20
152.7810173380534
 10
4.239834726547851
 20
152.727213907746
 10
3.767966486209481
 20
152.94845068871365
 10
2.969067585080527
 20
152.9224393557438
 10
2.4867551001499564
 20
152.45555043899716
 10
1.7209889583200233
 20
152.54626395944538
 10
1.2996353631232083
 20
151.90676741998507
  0
LWPOLYLINE
  5
5D
330
17
100
AcDbEntity
  8
contours
100
AcDbPolyline
 90
8
 70
1
 10
3.75002058239995
 20
68.86703159633234
 10
3.87798020442829
 20
69.63476397988472
 10
4.2275677010839745
 20
69.84453901594298
 10
5.197541451612788
 20
69.70440934706643
 10
5.9320362498957895
 20
68.96993987976815
 10
5.371445357590031
 20
68.40933921967365
 10
4.207712959050579
 20
68.40933921967567
 10
3.75002058239995
 20
68.86703159633234
  0
LWPOLYLINE
  5
5E
330
17
100
AcDbEntity
  8
contours
100
AcDbPolyline
 90
11
 70
1
 10
2.4939542910008026
 20
87.7087373443282
 10
2.676912540761386
 20
88.02886969016065
 10
3.502993107714784
 20
88.22804493725967
 10
4.186430610419957
 20
88.90703713710002
 10
4.9748753861987
 20
88.90703002354874
 10
5.458802265333136
 20
87.93921132426226
 10
4.20090254588233
 20
87.66452232722874
 10
3.8247284899487974
 20
86.96505486613309
 10
3.39700511802393
 20
86.67989099119474
 10
2.603150042704077
 20
86.94450644637686
 10
2.4939542910008026
 20
87.7087373443282
  0
LWPOLYLINE
  5
5F
330
17
100
AcDbEntity
  8
contours
100
AcDbPolyline
 90
7
 70
1
 10
2.444958614925381
 20
165.24048096191913
 10
2.573909803333648
 20
166.43250298899162
 10
3.3491397342991354
 20
166.62647777533465
 10
4.038168674003427
 20
166.45582967416783
 10
4.435966687488972
 20
165.6602360272854
 10
2.711300290068342
 20
164.1750370920596
 10
2.444958614925381
 20
165.24048096191913
  0
LWPOLYLINE
  5
60
330
17
100
AcDbEntity
  8
contours
100
AcDbPolyline
 90
32
 70
1
 10
-0.06487340973921947
 20
202.83864865831174
 10
0.06521005490711593
 20
203.4240242492957
 10
0.5509224214713142
 20
203.23717345423537
 10
0.9158403349913466
 20
203.3923446248524
 10
2.2899250876427786
 20
203.10339408113933
 10
2.790693953605736
 20
203.37800594980735
 10
3.2370188182825945
 20
203.39586812297594
 10
3.560625697560742
 20
203.73530185475983
 10
3.7926104048145732
 20
204.98697823439937
 10
3.652100867215585
 20
207.27833864595272
 10
2.847872780999637
 20
207.85866470664666
 10
2.5473364171401287
 20
207.82681129555303
 10
1.6276519879883389
 20
207.23460706188305
 10
1.1291035554407514
 20
206.6469165257907
 10
0.5036507684053214
 20
206.46802491166733
 10
-0.042231326178458074
 20
206.54455854228507
 10
0.042572717383906805
 20
207.1381868472788
 10
0.7699181311386735
 20
207.17119726560423
 10
1.2551027738677814
 20
207.73477452813214
 10
1.7685752027846458
 20
207.94345775662177
 10
2.2453876419758854
 20
208.3818367800007
 10
2.9365553618847944
 20
208.53011754794056
 10
4.054746365532122
 20
207.79613155963435
 10
4.320903342243243
 20
206.94821383295476
 10
4.413572966780475
 20
204.9939879759526
 10
4.107860149524032
 20
203.40929817471178
 10
3.476896042887725
 20
202.77833360438734
 10
2.958350241941857
 20
202.77271355185974
 10
2.4638387104530257
 20
202.48253431985506
 10
1.0223426410804297
 20
202.75660952189293
 10
0.4197550653479621
 20
202.47385295178026
 10
-0.06487340973921947
 20
202.83864865831174
  0
LWPOLYLINE
  5
61
330
17
100
AcDbEntity
  8
contours
100
AcDbPolyline
 90
38
 70
1
 10
-0.2397585999672822
 20
4.011697812363711
 10
1.240038793242059
 20
6.725763477734898
 10
2.1602744890733065
 20
6.998755106014306
 10
2.572589176506676
 20
8.630653261512256
 10
2.267995831143335
 20
10.44291418307524
 10
1.0847338052797921
 20
12.423640842715107
 10
1.1491881951877032
 20
13.068191906005605
 10
1.5905521051726987
 20
13.51388221139774
 10
1.6093727136870954
 20
13.74692615764345
 10
0.7823503420073067
 20
14.80998916932528
 10
1.214318994095254
 20
15.88783098926765
 10
3.271014453226581
 20
16.52034903889075
 10
3.401875269633759
 20
16.720969649756135
 10
2.9602391621848128
 20
17.12987180659089
 10
2.4264419536618296
 20
16.771715278509415
 10
1.934787749811363
 20
17.017336209039748
 10
1.3570959179516664
 20
17.82961444935996
 10
0.03979724325972299
 20
17.743573497630656
 10
-0.039455411186419306
 20
18.33796840596806
 10
0.9352247049608694
 20
18.35201569864991
 10
1.5178511683528362
 20
18.543426660968485
 10
2.3258119790597807
 20
17.613047878046626
 10
2.8355442546600713
 20
17.947605516875367
 10
4.217478596364355
 20
16.801730294441278
 10
3.7047708665404406
 20
16.03265258310658
 10
1.7103325539716656
 20
15.420188761124919
 10
1.4805009030745264
 20
14.957685337343209
 10
2.2156543715680166
 20
14.01397019118349
 10
2.2156543715680166
 20
13.286631011222429
 10
1.7439719895126964
 20
12.81063948829441
 10
1.6984191865054763
 20
12.467959251240472
 10
2.8381996793569875
 20
10.635619994287602
 10
3.172994656405093
 20
9.126790614527811
 10
3.1098753920298803
 20
8.091588336735471
 10
2.635513076753844
 20
6.456529509298414
 10
1.619619845709247
 20
6.174941046823485
 10
0.23996551428470203
 20
3.6519047266889846
 10
-0.2397585999672822
 20
4.011697812363711
  0
LWPOLYLINE
  5
62
330
17
100
AcDbEntity
  8
contours
100
AcDbPolyline
 90
23
 70
1
 10
-0.26809682006462354
 20
75.06215159452053
 10
0.2682510448913696
 20
75.33032552698106
 10
0.8453940996275069
 20
74.37644442355135
 10
1.525659430857916
 20
75.39013726043511
 10
2.4329928194926707
 20
76.06116597111254
 10
3.137056943560994
 20
75.35514773794952
 10
3.386185319143634
 20
74.60723307603125
 10
2.4498996337820658
 20
73.62532626497467
 10
2.355412999045778
 20
73.13650480529334
 10
1.5208568245436391
 20
72.4819757800678
 10
1.497238474209654
 20
71.74373690941066
 10
1.1078187028444768
 20
71.22457635517402
 10
0.3881790034053423
 20
71.22455971715625
 10
-0.16617094342742644
 20
71.59412010953174
 10
0.1664578819581214
 20
72.0930633476028
 10
0.806817468543653
 20
71.84385030802773
 10
0.8973947895957972
 20
72.21641470070537
 10
0.709791989843381
 20
72.49857433534797
 10
-0.24491572835550823
 20
72.50176492555435
 10
0.4715197285976773
 20
73.28056112224301
 10
0.17913520758694376
 20
73.6353284060182
 10
0.1731910850475058
 20
74.17343851008722
 10
-0.26809682006462354
 20
75.06215159452053
  0
LWPOLYLINE
  5
63
330
17
100
AcDbEntity
  8
contours
100
AcDbPolyline
 90
24
 70
1
 10
-0.2118881835047165
 20
179.6365653604505
 10
0.2121320343661148
 20
180.06058557828328
 10
0.579795591916313
 20
179.7989219620565
 10
1.9435677326148617
 20
180.17005605746908
 10
2.6308156826991826
 20
179.82639381565028
 10
2.9387711713015796
 20
178.62123894930295
 10
2.5946896628821006
 20
177.7420354793557
 10
1.3503241796486303
 20
177.4358065490526
 10
1.3221495182634226
 20
176.8518900114376
 10
1.518973700131011
 20
176.76273547805403
 10
2.078613604109766
 20
175.64346814398715
 10
1.4717548128705416
 20
175.34005707067186
 10
1.0271810708652986
 20
175.41250202151642
 10
0.16645788195811914
 20
174.7299159443123
 10
-0.16617094342742186
 20
175.2288591823833
 10
0.651456882032639
 20
175.92040851170572
 10
0.7636259201302008
 20
177.22177527750787
 10
0.599707066500243
 20
177.89002400361431
 10
2.148427718006532
 20
178.2823658461864
 10
2.326180348179371
 20
178.71722180785875
 10
2.173265479743851
 20
179.35307983404627
 10
1.928343535646503
 20
179.50628476538697
 10
0.4200675697151906
 20
179.1836859829476
 10
-0.2118881835047165
 20
179.6365653604505
  0
LWPOLYLINE
  5
64
330
17
100
AcDbEntity
  8
contours
100
AcDbPolyline
 90
16
 70
1
 10
-0.28438688257365063
 20
193.1150174633939
 10
-0.04884576333659975
 20
194.07171444422568
 10
0.3626769480487236
 20
194.8947773046306
 10
1.198391468981691
 20
194.3376402864016
 10
1.762343655530883
 20
191.96357988953
 10
1.2756276420207973
 20
191.46747974012584
 10
1.2577314263625816
 20
190.9189121889513
 10
0.07288614774417324
 20
190.45415633030242
 10
-0.0725515871229311
 20
191.03590726976958
 10
0.611860990773734
 20
191.27417842107636
 10
0.6580931234323295
 20
191.70735696473014
 10
1.0976450684056778
 20
192.2248709679699
 10
0.7285544395063865
 20
193.8056161390725
 10
0.5118947139219264
 20
193.7473619878907
 10
0.28449593599485146
 20
192.9253898571976
 10
-0.28438688257365063
 20
193.1150174633939
  0
ENDSEC
  0
SECTION
  2
OBJECTS
  0
DICTIONARY
  5
A
330
0
100
AcDbDictionary
281
1
  3
ACAD_COLOR
350
B
  3
ACAD_GROUP
350
C
  3
ACAD_LAYOUT
350
D
  3
ACAD_MATERIAL
350
E
  3
ACAD_MLEADERSTYLE
350
F
  3
ACAD_MLINESTYLE
350
10
  3
ACAD_PLOTSETTINGS
350
11
  3
ACAD_PLOTSTYLENAME
350
12
  3
ACAD_SCALELIST
350
14
  3
ACAD_TABLESTYLE
350
15
  3
ACAD_VISUALSTYLE
350
16
  3
EZDXF_META
350
2D
  0
DICTIONARY
  5
B
330
A
100
AcDbDictionary
281
1
  0
DICTIONARY
  5
C
330
A
100
AcDbDictionary
281
1
  0
DICTIONARY
  5
D
330
A
100
AcDbDictionary
281
1
  3
Model
350
1A
  3
Layout1
350
1E
  0
DICTIONARY
  5
E
330
A
100
AcDbDictionary
281
1
  3
ByBlock
350
1F
  3
ByLayer
350
20
  3
Global
350
21
  0
DICTIONARY
  5
F
330
A
100
AcDbDictionary
281
1
  3
Standard
350
2C
  0
DICTIONARY
  5
10
330
A
100
AcDbDictionary
281
1
  3
Standard
350
22
  0
DICTIONARY
  5
11
330
A
100
AcDbDictionary
281
1
  0
ACDBDICTIONARYWDFLT
  5
12
330
A
100
AcDbDictionary
281
1
  3
Normal
350
13
100
AcDbDictionaryWithDefault
340
13
  0
ACDBPLACEHOLDER
  5
13
330
12
  0
DICTIONARY
  5
14
330
A
100
AcDbDictionary
281
1
  0
DICTIONARY
  5
15
330
A
100
AcDbDictionary
281
1
  0
DICTIONARY
  5
16
330
A
100
AcDbDictionary
281
1
  0
LAYOUT
  5
1A
330
D
100
AcDbPlotSettings
  1

  4
A3
  6

 40
7.5
 41
20.0
 42
7.5
 43
20.0
 44
420.0
 45
297.0
 46
0.0
 47
0.0
 48
0.0
 49
0.0
140
0.0
141
0.0
142
1.0
143
1.0
 70
1024
 72
1
 73
0
 74
5
  7

 75
16
 76
0
 77
2
 78
300
147
1.0
148
0.0
149
0.0
100
AcDbLayout
  1
Model
 70
1
 71
0
 10
0.0
 20
0.0
 11
420.0
 21
297.0
 12
0.0
 22
0.0
 32
0.0
 14
1e+20
 24
1e+20
 34
1e+20
 15
-1e+20
 25
-1e+20
 35
-1e+20
146
0.0
 13
0.0
 23
0.0
 33
0.0
 16
1.0
 26
0.0
 36
0.0
 17
0.0
 27
1.0
 37
0.0
 76
1
330
17
  0
LAYOUT
  5
1E
330
D
100
AcDbPlotSettings
  1

  4
A3
  6

 40
7.5
 41
20.0
 42
7.5
 43
20.0
 44
420.0
 45
297.0
 46
0.0
 47
0.0
 48
0.0
 49
0.0
140
0.0
141
0.0
142
1.0
143
1.0
 70
0
 72
1
 73
0
 74
5
  7

 75
16
 76
0
 77
2
 78
300
147
1.0
148
0.0
149
0.0
100
AcDbLayout
  1
Layout1
 70
1
 71
1
 10
0.0
 20
0.0
 11
420.0
 21
297.0
 12
0.0
 22
0.0
 32
0.0
 14
1e+20
 24
1e+20
 34
1e+20
 15
-1e+20
 25
-1e+20
 35
-1e+20
146
0.0
 13
0.0
 23
0.0
 33
0.0
 16
1.0
 26
0.0
 36
0.0
 17
0.0
 27
1.0
 37
0.0
 76
1
330
1B
  0
MATERIAL
  5
1F
102
{ACAD_REACTORS
330
E
102
}
330
E
100
AcDbMaterial
  1
ByBlock
  2

 70
0
 40
1.0
 71
1
 41
1.0
 91
-1023410177
 42
1.0
 72
1
  3

 73
1
 74
1
 75
1
 44
0.5
 73
0
 45
1.0
 46
1.0
 77
1
  4

 78
1
 79
1
170
1
 48
1.0
171
1
  6

172
1
173
1
174
1
140
1.0
141
1.0
175
1
  7

176
1
177
1
178
1
143
1.0
179
1
  8

270
1
271
1
272
1
145
1.0
146
1.0
273
1
  9

274
1
275
1
276
1
 42
1.0
 72
1
  3

 73
1
 74
1
 75
1
 94
63
  0
MATERIAL
  5
20
102
{ACAD_REACTORS
330
E
102
}
330
E
100
AcDbMaterial
  1
ByLayer
  2

 70
0
 40
1.0
 71
1
 41
1.0
 91
-1023410177
 42
1.0
 72
1
  3

 73
1
 74
1
 75
1
 44
0.5
 73
0
 45
1.0
 46
1.0
 77
1
  4

 78
1
 79
1
170
1
 48
1.0
171
1
  6

172
1
173
1
174
1
140
1.0
141
1.0
175
1
  7

176
1
177
1
178
1
143
1.0
179
1
  8

270
1
271
1
272
1
145
1.0
146
1.0
273
1
  9

274
1
275
1
276
1
 42
1.0
 72
1
  3

 73
1
 74
1
 75
1
 94
63
  0
MATERIAL
  5
21
102
{ACAD_REACTORS
330
E
102
}
330
E
100
AcDbMaterial
  1
Global
  2

 70
0
 40
1.0
 71
1
 41
1.0
 91
-1023410177
 42
1.0
 72
1
  3

 73
1
 74
1
 75
1
 44
0.5
 73
0
 45
1.0
 46
1.0
 77
1
  4

 78
1
 79
1
170
1
 48
1.0
171
1
  6

172
1
173
1
174
1
140
1.0
141
1.0
175
1
  7

176
1
177
1
178
1
143
1.0
179
1
  8

270
1
271
1
272
1
145
1.0
146
1.0
273
1
  9

274
1
275
1
276
1
 42
1.0
 72
1
  3

 73
1
 74
1
 75
1
 94
63
  0
MLINESTYLE
  5
22
102
{ACAD_REACTORS
330
10
102
}
330
10
100
AcDbMlineStyle
  2
Standard
 70
0
  3

 62
256
 51
90.0
 52
90.0
 71
2
 49
0.5
 62
256
  6
BYLAYER
 49
-0.5
 62
256
  6
BYLAYER
  0
MLEADERSTYLE
  5
2C
102
{ACAD_REACTORS
330
F
102
}
330
F
100
AcDbMLeaderStyle
179
2
170
2
171
1
172
0
 90
2
 40
0.0
 41
0.0
173
1
 91
-1056964608
 92
-2
290
1
 42
2.0
291
1
 43
8.0
  3
Standard
 44
4.0
300

342
29
174
1
175
1
176
0
178
1
 93
-1056964608
 45
4.0
292
0
297
0
 46
4.0
 94
-1056964608
 47
1.0
 49
1.0
140
1.0
294
1
141
0.0
177
0
142
1.0
295
0
296
0
143
3.75
271
0
272
9
273
9
  0
DICTIONARY
  5
2D
330
A
100
AcDbDictionary
280
1
281
1
  3
CREATED_BY_EZDXF
350
2E
  3
WRITTEN_BY_EZDXF
350
67
  0
DICTIONARYVAR
  5
2E
330
2D
100
DictionaryVariables
280
0
  1
1.4.3 @ 2026-04-06T15:27:11.040868+00:00
  0
DICTIONARYVAR
  5
67
330
2D
100
DictionaryVariables
280
0
  1
1.4.3 @ 2026-04-06T15:27:11.055796+00:00
  0
ENDSEC
  0
EOF
