  0
SECTION
  2
HEADER
  9
$ACADVER
  1
AC1024
  9
$ACADMAINTVER
 70
6
  9
$DWGCODEPAGE
  3
ANSI_1252
  9
$LASTSAVEDBY
  1
ezdxf
  9
$INSBASE
 10
0.0
 20
0.0
 30
0.0
  9
$EXTMIN
 10
1e+20
 20
1e+20
 30
1e+20
  9
$EXTMAX
 10
-1e+20
 20
-1e+20
 30
-1e+20
  9
$LIMMIN
 10
0.0
 20
0.0
  9
$LIMMAX
 10
420.0
 20
297.0
  9
$ORTHOMODE
 70
0
  9
$REGENMODE
 70
1
  9
$FILLMODE
 70
1
  9
$QTEXTMODE
 70
0
  9
$MIRRTEXT
 70
1
  9
$LTSCALE
 40
1.0
  9
$ATTMODE
 70
1
  9
$TEXTSIZE
 40
2.5
  9
$TRACEWID
 40
1.0
  9
$TEXTSTYLE
  7
Standard
  9
$CLAYER
  8
0
  9
$CELTYPE
  6
ByLayer
  9
$CECOLOR
 62
256
  9
$CELTSCALE
 40
1.0
  9
$DISPSILH
 70
0
  9
$DIMSCALE
 40
1.0
  9
$DIMASZ
 40
2.5
  9
$DIMEXO
 40
0.625
  9
$DIMDLI
 40
3.75
  9
$DIMRND
 40
0.0
  9
$DIMDLE
 40
0.0
  9
$DIMEXE
 40
1.25
  9
$DIMTP
 40
0.0
  9
$DIMTM
 40
0.0
  9
$DIMTXT
 40
2.5
  9
$DIMCEN
 40
2.5
  9
$DIMTSZ
 40
0.0
  9
$DIMTOL
 70
0
  9
$DIMLIM
 70
0
  9
$DIMTIH
 70
0
  9
$DIMTOH
 70
0
  9
$DIMSE1
 70
0
  9
$DIMSE2
 70
0
  9
$DIMTAD
 70
1
  9
$DIMZIN
 70
8
  9
$DIMBLK
  1

  9
$DIMASO
 70
1
  9
$DIMSHO
 70
1
  9
$DIMPOST
  1

  9
$DIMAPOST
  1

  9
$DIMALT
 70
0
  9
$DIMALTD
 70
3
  9
$DIMALTF
 40
0.03937007874
  9
$DIMLFAC
 40
1.0
  9
$DIMTOFL
 70
1
  9
$DIMTVP
 40
0.0
  9
$DIMTIX
 70
0
  9
$DIMSOXD
 70
0
  9
$DIMSAH
 70
0
  9
$DIMBLK1
  1

  9
$DIMBLK2
  1

  9
$DIMSTYLE
  2
ISO-25
  9
$DIMCLRD
 70
0
  9
$DIMCLRE
 70
0
  9
$DIMCLRT
 70
0
  9
$DIMTFAC
 40
1.0
  9
$DIMGAP
 40
0.625
  9
$DIMJUST
 70
0
  9
$DIMSD1
 70
0
  9
$DIMSD2
 70
0
  9
$DIMTOLJ
 70
0
  9
$DIMTZIN
 70
8
  9
$DIMALTZ
 70
0
  9
$DIMALTTZ
 70
0
  9
$DIMUPT
 70
0
  9
$DIMDEC
 70
2
  9
$DIMTDEC
 70
2
  9
$DIMALTU
 70
2
  9
$DIMALTTD
 70
3
  9
$DIMTXSTY
  7
Standard
  9
$DIMAUNIT
 70
0
  9
$DIMADEC
 70
0
  9
$DIMALTRND
 40
0.0
  9
$DIMAZIN
 70
0
  9
$DIMDSEP
 70
44
  9
$DIMATFIT
 70
3
  9
$DIMFRAC
 70
0
  9
$DIMLDRBLK
  1

  9
$DIMLUNIT
 70
2
  9
$DIMLWD
 70
-2
  9
$DIMLWE
 70
-2
  9
$DIMTMOVE
 70
0
  9
$DIMFXL
 40
1.0
  9
$DIMFXLON
 70
0
  9
$DIMJOGANG
 40
0.785398163397
  9
$DIMTFILL
 70
0
  9
$DIMTFILLCLR
 70
0
  9
$DIMARCSYM
 70
0
  9
$DIMLTYPE
  6

  9
$DIMLTEX1
  6

  9
$DIMLTEX2
  6

  9
$DIMTXTDIRECTION
 70
0
  9
$LUNITS
 70
2
  9
$LUPREC
 70
4
  9
$SKETCHINC
 40
1.0
  9
$FILLETRAD
 40
10.0
  9
$AUNITS
 70
0
  9
$AUPREC
 70
2
  9
$MENU
  1
.
  9
$ELEVATION
 40
0.0
  9
$PELEVATION
 40
0.0
  9
$THICKNESS
 40
0.0
  9
$LIMCHECK
 70
0
  9
$CHAMFERA
 40
0.0
  9
$CHAMFERB
 40
0.0
  9
$CHAMFERC
 40
0.0
  9
$CHAMFERD
 40
0.0
  9
$SKPOLY
 70
0
  9
$TDCREATE
 40
2461133.892974537
  9
$TDUCREATE
 40
2458532.153996898
  9
$TDUPDATE
 40
2461133.892974537
  9
$TDUUPDATE
 40
2458532.1544311
  9
$TDINDWG
 40
0.0
  9
$TDUSRTIMER
 40
0.0
  9
$USRTIMER
 70
1
  9
$ANGBASE
 50
0.0
  9
$ANGDIR
 70
0
  9
$PDMODE
 70
0
  9
$PDSIZE
 40
0.0
  9
$PLINEWID
 40
0.0
  9
$SPLFRAME
 70
0
  9
$SPLINETYPE
 70
6
  9
$SPLINESEGS
 70
8
  9
$HANDSEED
  5
6D
  9
$SURFTAB1
 70
6
  9
$SURFTAB2
 70
6
  9
$SURFTYPE
 70
6
  9
$SURFU
 70
6
  9
$SURFV
 70
6
  9
$UCSBASE
  2

  9
$UCSNAME
  2

  9
$UCSORG
 10
0.0
 20
0.0
 30
0.0
  9
$UCSXDIR
 10
1.0
 20
0.0
 30
0.0
  9
$UCSYDIR
 10
0.0
 20
1.0
 30
0.0
  9
$UCSORTHOREF
  2

  9
$UCSORTHOVIEW
 70
0
  9
$UCSORGTOP
 10
0.0
 20
0.0
 30
0.0
  9
$UCSORGBOTTOM
 10
0.0
 20
0.0
 30
0.0
  9
$UCSORGLEFT
 10
0.0
 20
0.0
 30
0.0
  9
$UCSORGRIGHT
 10
0.0
 20
0.0
 30
0.0
  9
$UCSORGFRONT
 10
0.0
 20
0.0
 30
0.0
  9
$UCSORGBACK
 10
0.0
 20
0.0
 30
0.0
  9
$PUCSBASE
  2

  9
$PUCSNAME
  2

  9
$PUCSORG
 10
0.0
 20
0.0
 30
0.0
  9
$PUCSXDIR
 10
1.0
 20
0.0
 30
0.0
  9
$PUCSYDIR
 10
0.0
 20
1.0
 30
0.0
  9
$PUCSORTHOREF
  2

  9
$PUCSORTHOVIEW
 70
0
  9
$PUCSORGTOP
 10
0.0
 20
0.0
 30
0.0
  9
$PUCSORGBOTTOM
 10
0.0
 20
0.0
 30
0.0
  9
$PUCSORGLEFT
 10
0.0
 20
0.0
 30
0.0
  9
$PUCSORGRIGHT
 10
0.0
 20
0.0
 30
0.0
  9
$PUCSORGFRONT
 10
0.0
 20
0.0
 30
0.0
  9
$PUCSORGBACK
 10
0.0
 20
0.0
 30
0.0
  9
$USERI1
 70
0
  9
$USERI2
 70
0
  9
$USERI3
 70
0
  9
$USERI4
 70
0
  9
$USERI5
 70
0
  9
$USERR1
 40
0.0
  9
$USERR2
 40
0.0
  9
$USERR3
 40
0.0
  9
$USERR4
 40
0.0
  9
$USERR5
 40
0.0
  9
$WORLDVIEW
 70
1
  9
$SHADEDGE
 70
3
  9
$SHADEDIF
 70
70
  9
$TILEMODE
 70
1
  9
$MAXACTVP
 70
64
  9
$PINSBASE
 10
0.0
 20
0.0
 30
0.0
  9
$PLIMCHECK
 70
0
  9
$PEXTMIN
 10
1e+20
 20
1e+20
 30
1e+20
  9
$PEXTMAX
 10
-1e+20
 20
-1e+20
 30
-1e+20
  9
$PLIMMIN
 10
0.0
 20
0.0
  9
$PLIMMAX
 10
420.0
 20
297.0
  9
$UNITMODE
 70
0
  9
$VISRETAIN
 70
1
  9
$PLINEGEN
 70
0
  9
$PSLTSCALE
 70
1
  9
$TREEDEPTH
 70
3020
  9
$CMLSTYLE
  2
Standard
  9
$CMLJUST
 70
0
  9
$CMLSCALE
 40
20.0
  9
$PROXYGRAPHICS
 70
1
  9
$MEASUREMENT
 70
1
  9
$CELWEIGHT
370
-1
  9
$ENDCAPS
280
0
  9
$JOINSTYLE
280
0
  9
$LWDISPLAY
290
0
  9
$INSUNITS
 70
6
  9
$HYPERLINKBASE
  1

  9
$STYLESHEET
  1

  9
$XEDIT
290
1
  9
$CEPSNTYPE
380
0
  9
$PSTYLEMODE
290
1
  9
$FINGERPRINTGUID
  2
{F5513661-5700-480E-B2DF-EFC2F7204223}
  9
$VERSIONGUID
  2
{C01A8D23-9AC7-4E85-B075-758020058B55}
  9
$EXTNAMES
290
1
  9
$PSVPSCALE
 40
0.0
  9
$OLESTARTUP
290
0
  9
$SORTENTS
280
127
  9
$INDEXCTL
280
0
  9
$HIDETEXT
280
1
  9
$XCLIPFRAME
280
1
  9
$HALOGAP
280
0
  9
$OBSCOLOR
 70
257
  9
$OBSLTYPE
280
0
  9
$INTERSECTIONDISPLAY
280
0
  9
$INTERSECTIONCOLOR
 70
257
  9
$DIMASSOC
280
2
  9
$PROJECTNAME
  1

  9
$CAMERADISPLAY
290
0
  9
$LENSLENGTH
 40
50.0
  9
$CAMERAHEIGHT
 40
0.0
  9
$STEPSPERSEC
 40
24.0
  9
$STEPSIZE
 40
100.0
  9
$3DDWFPREC
 40
2.0
  9
$PSOLWIDTH
 40
0.005
  9
$PSOLHEIGHT
 40
0.08
  9
$LOFTANG1
 40
1.570796326795
  9
$LOFTANG2
 40
1.570796326795
  9
$LOFTMAG1
 40
0.0
  9
$LOFTMAG2
 40
0.0
  9
$LOFTPARAM
 70
7
  9
$LOFTNORMALS
280
1
  9
$LATITUDE
 40
37.795
  9
$LONGITUDE
 40
-122.394
  9
$NORTHDIRECTION
 40
0.0
  9
$TIMEZONE
 70
-8000
  9
$LIGHTGLYPHDISPLAY
280
1
  9
$TILEMODELIGHTSYNCH
280
1
  9
$CMATERIAL
347
20
  9
$SOLIDHIST
280
0
  9
$SHOWHIST
280
1
  9
$DWFFRAME
280
2
  9
$DGNFRAME
280
2
  9
$REALWORLDSCALE
290
1
  9
$INTERFERECOLOR
 62
256
  9
$CSHADOW
280
0
  9
$SHADOWPLANELOCATION
 40
0.0
  0
ENDSEC
  0
SECTION
  2
CLASSES
  0
CLASS
  1
ACDBDICTIONARYWDFLT
  2
AcDbDictionaryWithDefault
  3
ObjectDBX Classes
 90
0
 91
0
280
0
281
0
  0
CLASS
  1
SUN
  2
AcDbSun
  3
SCENEOE
 90
1153
 91
0
280
0
281
0
  0
CLASS
  1
VISUALSTYLE
  2
AcDbVisualStyle
  3
ObjectDBX Classes
 90
4095
 91
0
280
0
281
0
  0
CLASS
  1
MATERIAL
  2
AcDbMaterial
  3
ObjectDBX Classes
 90
1153
 91
0
280
0
281
0
  0
CLASS
  1
SCALE
  2
AcDbScale
  3
ObjectDBX Classes
 90
1153
 91
0
280
0
281
0
  0
CLASS
  1
TABLESTYLE
  2
AcDbTableStyle
  3
ObjectDBX Classes
 90
4095
 91
0
280
0
281
0
  0
CLASS
  1
MLEADERSTYLE
  2
AcDbMLeaderStyle
  3
ACDB_MLEADERSTYLE_CLASS
 90
4095
 91
0
280
0
281
0
  0
CLASS
  1
DICTIONARYVAR
  2
AcDbDictionaryVar
  3
ObjectDBX Classes
 90
0
 91
0
280
0
281
0
  0
CLASS
  1
CELLSTYLEMAP
  2
AcDbCellStyleMap
  3
ObjectDBX Classes
 90
1152
 91
0
280
0
281
0
  0
CLASS
  1
MENTALRAYRENDERSETTINGS
  2
AcDbMentalRayRenderSettings
  3
SCENEOE
 90
1024
 91
0
280
0
281
0
  0
CLASS
  1
ACDBDETAILVIEWSTYLE
  2
AcDbDetailViewStyle
  3
ObjectDBX Classes
 90
1025
 91
0
280
0
281
0
  0
CLASS
  1
ACDBSECTIONVIEWSTYLE
  2
AcDbSectionViewStyle
  3
ObjectDBX Classes
 90
1025
 91
0
280
0
281
0
  0
CLASS
  1
RASTERVARIABLES
  2
AcDbRasterVariables
  3
ISM
 90
0
 91
0
280
0
281
0
  0
CLASS
  1
LAYOUT
  2
AcDbLayout
  3
ObjectDBX Classes
 90
0
 91
0
280
0
281
0
  0
CLASS
  1
ACDBPLACEHOLDER
  2
AcDbPlaceHolder
  3
ObjectDBX Classes
 90
0
 91
0
280
0
281
0
  0
ENDSEC
  0
SECTION
  2
TABLES
  0
TABLE
  2
VPORT
  5
8
330
0
100
AcDbSymbolTable
 70
1
  0
VPORT
  5
23
330
8
100
AcDbSymbolTableRecord
100
AcDbViewportTableRecord
  2
*Active
 70
0
 10
0.0
 20
0.0
 11
1.0
 21
1.0
 12
0.0
 22
0.0
 13
0.0
 23
0.0
 14
0.5
 24
0.5
 15
0.5
 25
0.5
 16
0.0
 26
0.0
 36
1.0
 17
0.0
 27
0.0
 37
0.0
 40
1000.0
 41
1.34
 42
50.0
 43
0.0
 44
0.0
 50
0.0
 51
0.0
 71
0
 72
1000
 73
1
 74
3
 75
0
 76
0
 77
0
 78
0
281
0
 65
0
146
0.0
  0
ENDTAB
  0
TABLE
  2
LTYPE
  5
2
330
0
100
AcDbSymbolTable
 70
3
  0
LTYPE
  5
24
330
2
100
AcDbSymbolTableRecord
100
AcDbLinetypeTableRecord
  2
ByBlock
 70
0
  3

 72
65
 73
0
 40
0.0
  0
LTYPE
  5
25
330
2
100
AcDbSymbolTableRecord
100
AcDbLinetypeTableRecord
  2
ByLayer
 70
0
  3

 72
65
 73
0
 40
0.0
  0
LTYPE
  5
26
330
2
100
AcDbSymbolTableRecord
100
AcDbLinetypeTableRecord
  2
Continuous
 70
0
  3

 72
65
 73
0
 40
0.0
  0
ENDTAB
  0
TABLE
  2
LAYER
  5
1
330
0
100
AcDbSymbolTable
 70
3
  0
LAYER
  5
27
330
1
100
AcDbSymbolTableRecord
100
AcDbLayerTableRecord
  2
0
 70
0
 62
7
  6
Continuous
370
-3
390
13
347
21
  0
LAYER
  5
28
330
1
100
AcDbSymbolTableRecord
100
AcDbLayerTableRecord
  2
Defpoints
 70
0
 62
7
  6
Continuous
290
0
370
-3
390
13
347
21
  0
LAYER
  5
2F
330
1
100
AcDbSymbolTableRecord
100
AcDbLayerTableRecord
  2
contours
 70
0
 62
7
  6
Continuous
370
-3
390
13
347
21
  0
ENDTAB
  0
TABLE
  2
STYLE
  5
5
330
0
100
AcDbSymbolTable
 70
1
  0
STYLE
  5
29
330
5
100
AcDbSymbolTableRecord
100
AcDbTextStyleTableRecord
  2
Standard
 70
0
 40
0.0
 41
1.0
 50
0.0
 71
0
 42
2.5
  3
txt
  4

  0
ENDTAB
  0
TABLE
  2
VIEW
  5
7
330
0
100
AcDbSymbolTable
 70
0
  0
ENDTAB
  0
TABLE
  2
UCS
  5
6
330
0
100
AcDbSymbolTable
 70
0
  0
ENDTAB
  0
TABLE
  2
APPID
  5
3
330
0
100
AcDbSymbolTable
 70
3
  0
APPID
  5
2A
330
3
100
AcDbSymbolTableRecord
100
AcDbRegAppTableRecord
  2
ACAD
 70
0
  0
APPID
  5
6A
330
3
100
AcDbSymbolTableRecord
100
AcDbRegAppTableRecord
  2
HATCHBACKGROUNDCOLOR
 70
0
  0
APPID
  5
6B
330
3
100
AcDbSymbolTableRecord
100
AcDbRegAppTableRecord
  2
EZDXF
 70
0
  0
ENDTAB
  0
TABLE
  2
DIMSTYLE
  5
4
330
0
100
AcDbSymbolTable
 70
1
100
AcDbDimStyleTable
  0
DIMSTYLE
105
2B
330
4
100
AcDbSymbolTableRecord
100
AcDbDimStyleTableRecord
  2
Standard
 70
0
 40
1.0
 41
2.5
 42
0.625
 43
3.75
 44
1.25
 45
0.0
 46
0.0
 47
0.0
 48
0.0
 49
2.5
140
2.5
141
2.5
142
0.0
143
0.03937007874
144
1.0
145
0.0
146
1.0
147
0.625
148
0.0
 69
0
 70
0
 71
0
 72
0
 73
0
 74
0
 75
0
 76
0
 77
1
 78
8
 79
3
170
0
171
3
172
1
173
0
174
0
175
0
176
0
177
0
178
0
179
2
271
2
272
2
273
2
274
3
275
0
276
0
277
2
278
44
279
0
280
0
281
0
282
0
283
0
284
8
285
0
286
0
288
0
289
3
290
0
371
-2
372
-2
  0
ENDTAB
  0
TABLE
  2
BLOCK_RECORD
  5
9
330
0
100
AcDbSymbolTable
 70
2
  0
BLOCK_RECORD
  5
17
330
9
100
AcDbSymbolTableRecord
100
AcDbBlockTableRecord
  2
*Model_Space
340
1A
 70
0
280
1
281
0
  0
BLOCK_RECORD
  5
1B
330
9
100
AcDbSymbolTableRecord
100
AcDbBlockTableRecord
  2
*Paper_Space
340
1E
 70
0
280
1
281
0
  0
ENDTAB
  0
ENDSEC
  0
SECTION
  2
BLOCKS
  0
BLOCK
  5
18
330
17
100
AcDbEntity
  8
0
100
AcDbBlockBegin
  2
*Model_Space
 70
0
 10
0.0
 20
0.0
 30
0.0
  3
*Model_Space
  1

  0
ENDBLK
  5
19
330
17
100
AcDbEntity
  8
0
100
AcDbBlockEnd
  0
BLOCK
  5
1C
330
1B
100
AcDbEntity
  8
0
100
AcDbBlockBegin
  2
*Paper_Space
 70
0
 10
0.0
 20
0.0
 30
0.0
  3
*Paper_Space
  1

  0
ENDBLK
  5
1D
330
1B
100
AcDbEntity
  8
0
100
AcDbBlockEnd
  0
ENDSEC
  0
SECTION
  2
ENTITIES
  0
LWPOLYLINE
  5
30
330
17
100
AcDbEntity
  8
contours
100
AcDbPolyline
 90
440
 70
1
 10
164.84214039319008
 20
253.83354211804007
 10
165.34108363125785
 20
254.16617094343053
 10
165.82634251515236
 20
253.13140461801464
 10
166.6108695777426
 20
252.73501462025837
 10
167.61585883010287
 20
251.58636310294634
 10
168.0214428857705
 20
250.50421616060947
 10
168.02128308624373
 20
249.85706919549378
 10
167.55501792359607
 20
248.84847688560694
 10
167.48754148315672
 20
247.04813473264883
 10
167.66000668065564
 20
246.82426142665253
 10
168.5844988604477
 20
246.65611546132928
 10
169.07043568142808
 20
246.37103507157255
 10
169.7901071558799
 20
246.5976018186865
 10
170.30497938166846
 20
247.39918514178788
 10
171.31746369057726
 20
248.03405301830833
 10
171.53579786982158
 20
249.0211570702329
 10
171.87733202579193
 20
249.5290513601229
 10
172.6152103954485
 20
249.62722639758175
 10
173.28459263233657
 20
249.25912540484944
 10
173.76650721955866
 20
248.63985342650236
 10
174.17798856385642
 20
248.3889557589431
 10
175.6082688709355
 20
247.94805787695682
 10
176.04834447792106
 20
248.0607404762987
 10
176.07490929853813
 20
248.4715881191402
 10
176.4686432547191
 20
249.2590326571768
 10
178.20161920190264
 20
248.58609783108804
 10
178.20163669823353
 20
247.71778366752548
 10
176.83272030543196
 20
246.5764535979789
 10
175.35522850722418
 20
244.9197255322601
 10
174.33435014283987
 20
243.140164461559
 10
174.12965931863613
 20
242.34798270186826
 10
174.43338135457864
 20
241.11393383589143
 10
173.65989157120293
 20
240.72717280088034
 10
172.70819097317644
 20
240.5850451896431
 10
170.0350293612873
 20
238.74509495339794
 10
168.93350484112807
 20
239.08155930097462
 10
167.57578843143384
 20
238.73634021547713
 10
166.22712816436513
 20
237.7440798605132
 10
166.07050148536206
 20
237.17079796141195
 10
166.12809673380943
 20
236.26397168399316
 10
166.61792893632557
 20
235.2441376318796
 10
166.64970866267228
 20
234.74164498022225
 10
167.610226737541
 20
233.22932485325654
 10
167.6994773556942
 20
232.60446791869813
 10
167.5779539235122
 20
232.08712350170515
 10
167.84721247515
 20
231.26664721324812
 10
168.92204774158438
 20
230.50592279876605
 10
169.37881537995474
 20
230.8849930489177
 10
172.14663450234656
 20
230.78847085395208
 10
172.85693252730294
 20
230.22025242876649
 10
172.75913933540534
 20
229.04140224532122
 10
173.73452189778712
 20
228.24136022594683
 10
174.70689822518582
 20
228.30773986503957
 10
175.93857900575009
 20
229.5123446571817
 10
176.38915269280972
 20
230.2663196370104
 10
176.94138683823172
 20
230.74038298336117
 10
177.37654115506436
 20
232.01101342032865
 10
177.90993223334385
 20
232.79882342408843
 10
179.0486022847071
 20
234.04722325661518
 10
179.66010504507338
 20
234.15742914400258
 10
180.74655474484595
 20
234.00943189208985
 10
181.6059381417482
 20
234.08468356699728
 10
183.095248949904
 20
234.69398488395177
 10
183.41668130391093
 20
235.76991886490487
 10
183.87290451252696
 20
236.63933319227277
 10
183.30725251428504
 20
238.16158722066277
 10
183.1312258308982
 20
239.28979033515753
 10
184.0869481190121
 20
240.75740243600075
 10
185.1299624451236
 20
241.4346212582196
 10
186.09742939434236
 20
241.79337854227063
 10
186.65791573305194
 20
242.3965905635964
 10
186.7134037446562
 20
243.4348118745513
 10
187.18629641489323
 20
243.907680645708
 10
189.19299044413327
 20
243.84555379712674
 10
190.81208357628563
 20
245.41413675271428
 10
192.06986602714608
 20
244.75227694812227
 10
192.9834905379488
 20
243.79794414554445
 10
194.09784352562687
 20
243.57268997096432
 10
194.8937690187601
 20
242.77674196773236
 10
194.06620871173925
 20
242.11468744005074
 10
193.45285764343566
 20
241.99258517033843
 10
192.37243729151987
 20
242.10151167149613
 10
191.53176903036007
 20
241.87441656053358
 10
190.53113833818674
 20
241.34438553191887
 10
190.09133583208865
 20
240.93024992674162
 10
189.2921568920012
 20
239.1957270144324
 10
189.26646727060492
 20
238.78725637846637
 10
189.78717217886182
 20
237.8198041937332
 10
190.09478628780292
 20
236.63742024813558
 10
190.53471727313826
 20
236.44643746595648
 10
191.18158623529573
 20
235.79954133345717
 10
191.181601218721
 20
234.93222646992683
 10
190.50558097487493
 20
234.7599947222435
 10
190.09285737949165
 20
234.450665040781
 10
189.20741334132455
 20
232.71587988933516
 10
189.6485299195327
 20
231.66985285071146
 10
189.60490654973347
 20
230.6056796193175
 10
189.88379144257064
 20
229.5315049169172
 10
188.88568434404206
 20
226.82326980633383
 10
188.46042533142744
 20
226.55491793624944
 10
187.26059886877053
 20
226.22797187048394
 10
186.83035168011207
 20
225.37060059202923
 10
186.48424818607907
 20
224.0251034242572
 10
187.07250099409052
 20
222.18972987600281
 10
188.38740050634553
 20
221.55509889758846
 10
189.39398510510662
 20
221.56898093656386
 10
190.84478413980327
 20
221.33598801146235
 10
192.03342590772974
 20
221.67935812897394
 10
192.68529155013783
 20
222.64616757875098
 10
193.35691732484563
 20
223.1159921145453
 10
193.73513675007862
 20
223.8551370776593
 10
195.4899768721795
 20
225.14737865904414
 10
195.71435018681447
 20
225.65323217157328
 10
197.94450687117762
 20
228.23089659147675
 10
198.71520538964495
 20
227.871228773327
 10
199.2623397961667
 20
226.88908901142867
 10
200.24498984463983
 20
226.320624184454
 10
200.54415883110693
 20
225.6383545989007
 10
201.10963673642377
 20
225.2928350670317
 10
203.6979933412758
 20
225.62513968163452
 10
204.22326925137867
 20
225.28884395735997
 10
205.6709578409443
 20
225.29280932360982
 10
206.25945023682934
 20
225.09681182201152
 10
207.82282357746593
 20
224.4407545330286
 10
208.28177119648387
 20
224.08853826018594
 10
209.30016920477922
 20
224.17510161203802
 10
209.83050814656656
 20
223.76514590339318
 10
210.52427646918943
 20
223.758745407072
 10
210.54216070813476
 20
223.06558639214762
 10
211.29209159475744
 20
222.37914671829904
 10
212.88855146198776
 20
222.21134355341616
 10
213.48755859095894
 20
221.8134533246126
 10
214.06375462169333
 20
221.04528093861515
 10
214.45474781876746
 20
219.9696065820098
 10
214.57407182826236
 20
219.01223240636054
 10
215.07512014611325
 20
218.01811228608125
 10
215.50320565343623
 20
217.58775156405258
 10
216.51012520748367
 20
217.0953354555181
 10
216.99190098661558
 20
216.65380852123477
 10
217.68780743538372
 20
217.0022003358816
 10
218.62867094698203
 20
218.13226700090325
 10
219.06789713851433
 20
218.9215157840372
 10
219.33183259512035
 20
220.5059602087586
 10
220.16118755606624
 20
221.6083491549503
 10
220.572649758076
 20
222.43579117518254
 10
220.40112911724714
 20
223.0308772204562
 10
221.76179729949348
 20
224.39155550523478
 10
222.29169731829393
 20
224.62477902228727
 10
223.69870430372023
 20
226.1692485880954
 10
224.32086110782078
 20
228.5284797191132
 10
224.15324458598374
 20
229.08112154564046
 10
224.74944340793962
 20
230.2735583033454
 10
226.09971352275616
 20
231.274812594826
 10
226.8414650835152
 20
232.38186901594727
 10
228.01081519140237
 20
232.6709776175825
 10
229.07868212218085
 20
232.51056498362914
 10
230.17759082942422
 20
232.84716278255496
 10
230.77491808063104
 20
232.04568321305578
 10
231.07029335467413
 20
231.93943488889258
 10
232.5403049267639
 20
232.46543097892203
 10
233.19206765197416
 20
232.60103014957787
 10
233.64762295636442
 20
232.33840529149464
 10
233.9145920465544
 20
232.55832536634097
 10
234.16016649739552
 20
233.39734673009784
 10
233.3639520736222
 20
233.97650515871385
 10
233.24590161595034
 20
234.52567605772367
 10
233.02180010069404
 20
234.70478710617743
 10
231.9334093282756
 20
234.90988866127265
 10
231.433147064305
 20
235.51047541710264
 10
230.57588969854396
 20
235.9312138760366
 10
229.57932325244514
 20
235.65951660757923
 10
225.9375308100424
 20
235.8149611759275
 10
225.41677383314047
 20
236.05507672894777
 10
223.5796011401424
 20
235.77805213265907
 10
222.46177169689395
 20
235.2968107332712
 10
221.4722431942726
 20
235.37535070139876
 10
220.55798662008272
 20
235.22013697839412
 10
219.57969567334618
 20
234.10614271484692
 10
218.86655164814348
 20
233.69668107196856
 10
219.60162915521033
 20
232.83042224018658
 10
218.28902047830852
 20
232.8302605210441
 10
216.8726997985535
 20
233.41578941951826
 10
216.61710070359345
 20
233.91396684878524
 10
215.8007851263241
 20
234.51042174683525
 10
215.549155432088
 20
235.55014299083533
 10
215.14224351792723
 20
236.22656981968242
 10
214.30882345039788
 20
236.37493020768454
 10
213.7875727117437
 20
236.2076502868804
 10
213.1165853320788
 20
236.43131804507198
 10
212.5978455461428
 20
236.90168251861738
 10
211.8442844206817
 20
236.89596861359016
 10
210.71046162069388
 20
236.36967745172748
 10
209.9670160172077
 20
236.74139044423248
 10
209.85177224216218
 20
237.20240480961655
 10
209.96766324375815
 20
237.71986175107662
 10
209.18615612447098
 20
238.68095539685544
 10
209.4575306872015
 20
239.40454229869377
 10
209.90673708743904
 20
239.8631815825253
 10
209.91798994814604
 20
240.11365962457276
 10
209.57257746023902
 20
240.4590721124804
 10
208.7212669134628
 20
240.46569439887608
 10
209.214541451761
 20
241.45213003731374
 10
209.59124022966137
 20
241.8288808244766
 10
210.5806084890645
 20
241.7047774260823
 10
211.14616482611902
 20
242.29410297798563
 10
211.59605073461984
 20
242.35471457368425
 10
211.4216984130917
 20
242.76087272569592
 10
211.95408484604772
 20
243.91242069323522
 10
211.96069866170996
 20
244.41943622704682
 10
212.69556301689397
 20
245.781869101775
 10
212.36727817944862
 20
246.49881642515984
 10
213.59606269252762
 20
247.01825010396615
 10
214.8452358952072
 20
248.1328352698441
 10
214.8989283426439
 20
248.38348700446738
 10
214.38159100459868
 20
248.90981963927814
 10
215.38366214561208
 20
250.0674684923292
 10
215.5051907287186
 20
250.44910401153072
 10
215.39472286282646
 20
250.91638232218205
 10
215.4870303898073
 20
252.0293909197658
 10
215.58235469222618
 20
252.3154644835352
 10
216.1016886713769
 20
252.53954726504097
 10
216.46075737759156
 20
253.0683774360584
 10
216.44124498552043
 20
253.97328157830253
 10
217.0385450671212
 20
254.026374918882
 10
217.0658464384537
 20
252.88423286760246
 10
216.55093931918975
 20
252.06942737979534
 10
216.0681836502396
 20
251.81070900393453
 10
215.99934479716504
 20
250.98293229608444
 10
216.1357061084709
 20
250.424889187913
 10
215.9257394911281
 20
249.7949326128637
 10
215.29272961651634
 20
248.92452221032752
 10
215.6780457845108
 20
248.4568142619446
 10
215.29266436167558
 20
247.68649775190713
 10
213.97275810939178
 20
246.4837174576808
 10
213.24296318641947
 20
246.23776791119028
 10
213.3418066567983
 20
245.89059248820973
 10
213.17297305857858
 20
245.21524010346698
 10
212.57189911648297
 20
244.24971413899544
 10
212.5603434224395
 20
243.72886036613232
 10
212.10164558056383
 20
242.90092630441433
 10
212.47666363308454
 20
242.25438192999692
 10
211.8673126727192
 20
241.64501824476233
 10
211.28763183924465
 20
241.63837187462823
 10
210.80314688464492
 20
240.69808769616714
 10
210.23399605314654
 20
241.07452781109774
 10
210.0416252096378
 20
240.97899059849627
 10
210.52427160602699
 20
240.38070365811276
 10
210.52427160602699
 20
239.62330435792538
 10
209.9857990013709
 20
239.08337559422733
 10
209.88396676213546
 20
238.78097601055688
 10
210.77993684619432
 20
237.74962608604827
 10
210.52275867723583
 20
237.14651078097063
 10
210.81542947386612
 20
237.03693538623034
 10
211.66072409358807
 20
237.50222718998137
 10
212.89372971022243
 20
237.50222751785736
 10
213.42584983143473
 20
236.971269508382
 10
213.75340454482352
 20
236.85199969395538
 10
214.28460862678054
 20
237.005445587433
 10
215.4737115773252
 20
236.8113348427233
 10
216.0991295147187
 20
235.79520665437948
 10
216.38188088123923
 20
234.77898658133202
 10
217.06517595296478
 20
234.37178573077975
 10
217.3524876249114
 20
233.84724926354923
 10
217.95927327864084
 20
233.7247560063392
 10
218.7092721756669
 20
234.4038081446566
 10
219.20062529677483
 20
234.61208059328447
 10
220.28211261305543
 20
235.79371482342805
 10
221.3899385104968
 20
235.97512762396474
 10
222.43538321298124
 20
235.9139275116431
 10
223.35818735345663
 20
236.34116452983022
 10
225.54174228186196
 20
236.70957145236682
 10
226.08707731491793
 20
236.40796208068207
 10
229.53857150456886
 20
236.2769555829788
 10
230.6081756538504
 20
236.59291439865208
 10
231.77276899730526
 20
236.00916922636873
 10
232.3197817217017
 20
235.41409842752108
 10
233.2349636323206
 20
235.32605996152338
 10
233.83227111004612
 20
234.81405816327103
 10
233.95378261213804
 20
234.29320954848097
 10
234.8009404432769
 20
233.83122049244
 10
234.59612642350382
 20
232.50001870143683
 10
233.63927855711404
 20
230.93274081128882
 10
233.05102529105017
 20
231.95197346098578
 10
231.11719368994358
 20
231.27949709100656
 10
230.38514574555757
 20
231.5235252206763
 10
229.94446463048308
 20
232.1125225464422
 10
229.05811261340105
 20
231.88916198318626
 10
228.06964155967034
 20
232.05940756937852
 10
227.18689585948394
 20
231.81347344027816
 10
226.197752490887
 20
230.52432342552203
 10
225.23037203514002
 20
229.88123706821773
 10
224.828640936548
 20
229.09066989669148
 10
224.96269039448575
 20
228.5490957578383
 10
224.2362240039127
 20
225.84831436693426
 10
222.61363863632792
 20
224.0981922029011
 10
222.09189456647564
 20
223.87236469286134
 10
221.1262006591251
 20
222.89808424465494
 10
221.2375369771378
 20
222.41787645035058
 10
220.65119001114059
 20
221.2452647522688
 10
219.90934364929893
 20
220.31040018444108
 10
219.68658298474972
 20
218.800067082236
 10
219.12615730427285
 20
217.79124712102217
 10
218.05103038733125
 20
216.5011296705056
 10
216.79229720734503
 20
215.95373848396977
 10
216.15837227074917
 20
216.57939114696867
 10
215.13026358269556
 20
217.11215565774685
 10
214.54353855799147
 20
217.69775402528322
 10
214.0167347039557
 20
218.7569841510882
 10
213.85759354810253
 20
219.82118150874584
 10
213.50849171622676
 20
220.780992171425
 10
212.66798416734596
 20
221.63901187378096
 10
211.7751409747906
 20
221.79852671094628
 10
211.15518316376648
 20
221.71956093193074
 10
209.92705267236053
 20
222.82303195631098
 10
209.86960789041072
 20
223.1248694036732
 10
209.13558894635707
 20
223.53514480653658
 10
208.0984862018712
 20
223.4522824679028
 10
207.53459139982596
 20
223.89988758097317
 10
205.63581689880493
 20
224.6715547642914
 10
204.02545355249825
 20
224.6861495635218
 10
203.47096539187237
 20
225.02531730126972
 10
200.99705724666194
 20
224.68746752585145
 10
200.38192315557086
 20
224.95127951333643
 10
199.99715148427495
 20
225.33606570135203
 10
199.81899885374526
 20
225.86289719247563
 10
198.79823264627834
 20
226.47423163469057
 10
198.34015531071637
 20
227.3573527941815
 10
198.12295130758977
 20
227.47804723524524
 10
196.24436540250568
 20
225.35528255557003
 10
196.00425533189966
 20
224.81216990619333
 10
194.1326336825542
 20
223.3962070390349
 10
193.89008547574548
 20
222.77595972943203
 10
193.15973513951778
 20
222.23771992860387
 10
192.3752768487884
 20
221.1688987365793
 10
190.91004150816642
 20
220.7284710716997
 10
189.29984604209884
 20
220.9715250049588
 10
188.27308542511838
 20
220.93090993752423
 10
186.55377553990147
 20
221.70112129989644
 10
186.29603283037767
 20
222.85702156105674
 10
185.83759467389967
 20
223.94780787593584
 10
186.27543865715984
 20
225.60545618514593
 10
186.8549565532187
 20
226.76506253595463
 10
188.41815532908444
 20
227.26999671109482
 10
189.25617037472784
 20
229.61803570302766
 10
188.91931029960674
 20
230.55844020390182
 10
189.1096413945208
 20
231.0989734293963
 10
189.05999521547358
 20
231.53635725900142
 10
188.50873246183542
 20
232.58615766177874
 10
188.98339783019418
 20
233.77296138227416
 10
189.6368461279429
 20
234.86193623394163
 10
190.55651021337945
 20
235.48593180705177
 10
190.21435264378627
 20
235.91485981381294
 10
189.62126228587258
 20
236.11881237735787
 10
189.22644318122158
 20
237.6060772456937
 10
188.64050603823136
 20
238.65840244262978
 10
188.69626938128
 20
239.30087798881323
 10
189.62719891894753
 20
241.3447005879228
 10
190.2107800773961
 20
241.87596712004583
 10
191.82098805797776
 20
242.5820722966757
 10
192.40881763527764
 20
242.7288890804678
 10
193.41171234656366
 20
242.59549806898525
 10
193.82236824507288
 20
242.68864817259416
 10
193.89602286460695
 20
242.92206899605705
 10
193.3857576515234
 20
243.1768563512416
 10
192.8270567589211
 20
243.18047154080836
 10
192.1926151126304
 20
243.60343675590832
 10
191.73976876016405
 20
244.2330861357488
 10
190.98250379888358
 20
244.56691593208933
 10
190.0807196081238
 20
243.9419392023749
 10
189.49876573577822
 20
243.28520156339698
 10
188.2920128946492
 20
243.18029392117313
 10
187.42264266779642
 20
243.2946558800278
 10
187.27094049873548
 20
242.16024431067908
 10
186.4857841615069
 20
241.2662825879409
 10
185.44252751755184
 20
240.91284415490895
 10
184.43698789460814
 20
240.25799794568266
 10
183.7932996052924
 20
239.22606015229968
 10
183.90421220440868
 20
238.25978288869646
 10
184.50419861517958
 20
236.73114231272334
 10
184.37485212141294
 20
236.05204564095206
 10
184.00370546815824
 20
235.60125053622326
 10
183.71818027123376
 20
234.5124196940727
 10
183.42530810659267
 20
234.14636160715992
 10
181.81182979711033
 20
233.4984164275534
 10
179.2803450966501
 20
233.47021385260456
 10
177.92309841264193
 20
231.7015579595229
 10
177.46066192328556
 20
230.4301811615698
 10
175.29594888367404
 20
227.979233245155
 10
174.66317570108592
 20
227.64335644395308
 10
173.4365758809606
 20
227.6697911728565
 10
172.55854410071404
 20
228.3219622188993
 10
172.05664449819534
 20
229.01381652522934
 10
172.2563714023215
 20
229.87478071915098
 10
171.96781447679876
 20
230.15930156527781
 10
170.48842107138037
 20
230.13730306177266
 10
169.6601385667814
 20
230.28228813273736
 10
169.03219121629385
 20
229.6903370349008
 10
167.3478079848374
 20
230.9166074376436
 10
166.95463559656133
 20
232.11569089240604
 10
167.0300522622985
 20
233.0302624943659
 10
166.05139376894246
 20
234.56740022618115
 10
166.0172929907252
 20
235.1024206593918
 10
165.54597914313155
 20
236.1151479292255
 10
165.47301084140997
 20
237.24795340082483
 10
165.68012944818653
 20
238.04560928175434
 10
167.3526027995496
 20
239.30035420190276
 10
168.4294437370053
 20
239.6639396498057
 10
169.03071592687823
 20
239.6852095763281
 10
170.03110431465
 20
239.41456215100285
 10
172.40929817471977
 20
241.14353149221336
 10
173.66267157626234
 20
241.40620124232433
 10
173.5298191181629
 20
242.8723897223406
 10
174.3793531582113
 20
244.4507594320745
 10
174.85582401689433
 20
245.2697653078442
 10
177.56586180922662
 20
248.1842877173346
 10
176.80763830982926
 20
248.5219826126132
 10
176.67457286252602
 20
247.7313229725551
 10
176.23299646718922
 20
247.43697571389225
 10
175.5990028938535
 20
247.33129777091344
 10
173.97024806989913
 20
247.8141194627882
 10
173.37919591525767
 20
248.16876676461155
 10
172.82226301812858
 20
248.8281052448037
 10
172.27574915016257
 20
248.9761890209998
 10
171.75746468743463
 20
247.59369433322362
 10
170.7453814969148
 20
246.96079931899388
 10
170.21763944704384
 20
246.12801710289742
 10
168.93328709928252
 20
245.73094159212874
 10
168.39054881244746
 20
246.06699629128013
 10
167.30105130402742
 20
246.3050498655845
 10
166.89065504216114
 20
246.75655704686173
 10
166.88402394668378
 20
247.3933406186812
 10
166.94562641915664
 20
248.96363847670918
 10
167.4156760549905
 20
249.99289415524697
 10
167.41567605499029
 20
250.37183530367506
 10
167.04515528438316
 20
251.34760858540955
 10
166.30160507838667
 20
252.19506315694838
 10
165.7913904300524
 20
252.37605775217122
 10
165.25941699254852
 20
252.8193841684808
 10
165.1456408692751
 20
253.37283961786474
 10
164.84214039319008
 20
253.83354211804007
  0
LWPOLYLINE
  5
31
330
17
100
AcDbEntity
  8
contours
100
AcDbPolyline
 90
16
 70
1
 10
193.96676337123054
 20
8.141859958194482
 10
194.21282525251922
 20
8.961343914829921
 10
195.34422941928898
 20
9.69618275647278
 10
196.89390256689558
 20
9.981370000693653
 10
197.95027372018438
 20
10.581996041194268
 10
200.12882944696744
 20
10.5241298043337
 10
201.79629104547604
 20
9.722192878112988
 10
202.2845599248156
 20
8.193838924740593
 10
202.2028411198953
 20
6.5152725478311435
 10
201.74854969827993
 20
5.833840679722547
 10
200.5562136865241
 20
5.680181015558992
 10
199.00516217083455
 20
5.656959602441605
 10
195.88180890588924
 20
6.073609821370195
 10
195.28534491258654
 20
6.3708540770267925
 10
194.19007938893256
 20
7.324359093643287
 10
193.96676337123054
 20
8.141859958194482
  0
LWPOLYLINE
  5
32
330
17
100
AcDbEntity
  8
contours
100
AcDbPolyline
 90
14
 70
1
 10
194.684131285112
 20
7.745563527876689
 10
196.05924521441258
 20
6.655314454800008
 10
199.06293434656664
 20
6.271932647335546
 10
201.37302985483976
 20
6.3864282972303315
 10
201.6156267455842
 20
6.728087751264411
 10
201.72642391889727
 20
7.645457740427003
 10
201.34655962140997
 20
9.267340262287696
 10
199.9715240713225
 20
9.931440557202711
 10
199.5313275943629
 20
9.980468701528299
 10
198.0663119854934
 20
9.97945778667409
 10
197.08992579842408
 20
9.371497458485504
 10
195.57529879226266
 20
9.132326773215356
 10
194.68719673509491
 20
8.54255231298089
 10
194.684131285112
 20
7.745563527876689
  0
LWPOLYLINE
  5
33
330
17
100
AcDbEntity
  8
contours
100
AcDbPolyline
 90
43
 70
1
 10
148.72897659456527
 20
253.95127678937897
 10
149.32071698745366
 20
254.04838290514095
 10
149.43167032150265
 20
253.4239986492425
 10
149.8904418112521
 20
252.65966014170212
 10
150.77663991158784
 20
251.87668840298542
 10
151.30980999672045
 20
251.73108929104274
 10
151.91689603126292
 20
251.27576359889275
 10
153.34871248676492
 20
249.15449192316635
 10
154.5559795023597
 20
249.66245973850954
 10
155.1091551511252
 20
250.21055286593148
 10
156.10707766650123
 20
250.34235518255144
 10
156.63540903604928
 20
250.84595262102593
 10
157.1809301343106
 20
250.9412153800859
 10
157.40489504102644
 20
251.13972686393325
 10
157.53053639204032
 20
251.63089961769322
 10
158.21591573683867
 20
252.14490529349223
 10
159.43646621478453
 20
252.05320825843634
 10
159.96441728216251
 20
251.6457219336156
 10
160.75661415195904
 20
251.63667638957205
 10
161.86830562595156
 20
252.2511067615197
 10
162.54572865766082
 20
254.0793349677678
 10
163.1239193801747
 20
253.92033251906636
 10
162.65912175411134
 20
252.35598513425003
 10
162.23321776976334
 20
251.7171695932199
 10
160.95063447308993
 20
251.03106886915015
 10
159.71541007990942
 20
251.06214976117334
 10
159.2061396460049
 20
251.46052461644226
 10
158.38883552814443
 20
251.51582432798364
 10
158.0645494306613
 20
251.2675564261741
 10
157.93467726234525
 20
250.774981498526
 10
157.41084401785872
 20
250.35597238514765
 10
156.90956976216822
 20
250.26712207154515
 10
156.40571040986887
 20
249.76826477704668
 10
155.4146294797223
 20
249.64570307276574
 10
154.9155925672555
 20
249.170482279385
 10
153.81720542619698
 20
248.6214949180368
 10
153.14676530677482
 20
248.50973346173137
 10
152.45120392459376
 20
249.25778020474118
 10
151.4446258736643
 20
250.87923270802293
 10
150.5348149845988
 20
251.308057098227
 10
149.41327800765632
 20
252.2871019018613
 10
148.8585314538723
 20
253.21160838017306
 10
148.72897659456527
 20
253.95127678937897
  0
LWPOLYLINE
  5
34
330
17
100
AcDbEntity
  8
contours
100
AcDbPolyline
 90
2215
 70
1
 10
-0.1111930686008242
 20
110.38207409237542
 10
0.11151326046808444
 20
110.93883991503955
 10
1.369534648700969
 20
110.44919200293555
 10
1.4161919678236932
 20
110.64356823268189
 10
1.0564307922616472
 20
111.01253275556516
 10
2.1096089127423108
 20
111.88320517431094
 10
1.7362494360484186
 20
112.36879533989116
 10
1.7362565495997093
 20
113.18730023589315
 10
2.449271280143143
 20
113.59352503745693
 10
2.4067754911664054
 20
114.04420518601994
 10
2.6887629790765057
 20
114.92864945113864
 10
1.7362494360484186
 20
115.93192159239521
 10
1.7362445728859834
 20
116.86495783192527
 10
2.6692808124140694
 20
116.86495296876284
 10
3.748629716079573
 20
115.79071625153561
 10
4.064420246009536
 20
115.64589946672672
 10
4.336231880495292
 20
115.76286570232307
 10
4.779979604465761
 20
116.61699016481161
 10
4.790340160258508
 20
117.14493481252424
 10
5.044044933443805
 20
117.67550741969096
 10
5.034488622509127
 20
118.0403244644503
 10
4.605034448520905
 20
118.90103906805282
 10
6.079008771837847
 20
118.81752315306007
 10
6.493043836869198
 20
119.15553413108326
 10
8.722360428148566
 20
119.21485942051473
 10
9.423074748509201
 20
118.79440270303768
 10
9.607337718924269
 20
118.05730330337104
 10
8.96914253457236
 20
117.0349997460401
 10
9.032527924392726
 20
116.76469372593878
 10
10.089581809020956
 20
117.37397067695525
 10
10.624340313693986
 20
117.37991512736998
 10
11.198396793599853
 20
117.66385032458992
 10
12.213570297387005
 20
117.15628602157396
 10
11.434067201753056
 20
116.36565068358597
 10
11.24646001941537
 20
115.97754129328519
 10
11.243727976027142
 20
115.47630767243734
 10
10.834172871436651
 20
114.6572387719646
 10
8.862509054619288
 20
115.3617979604975
 10
8.75828034174987
 20
116.2343107979079
 10
6.823008568720096
 20
115.73751523615034
 10
6.410788676727682
 20
114.9595052211358
 10
6.419634502989525
 20
113.64001563229932
 10
6.746228057146865
 20
113.31342207814133
 10
7.311548732898966
 20
113.30181960270747
 10
7.745346404856011
 20
112.64169087290892
 10
8.953144894079553
 20
113.725877652184
 10
9.123709292917425
 20
111.04115122103755
 10
9.480083209902585
 20
109.91301472621355
 10
8.982159361425953
 20
108.44930581194667
 10
9.196931260800104
 20
108.00195862917593
 10
9.378915219078918
 20
106.61401152995947
 10
10.072576447224112
 20
106.29729149947948
 10
10.5651881254496
 20
106.68459224731907
 10
12.917509771538207
 20
106.76018646079734
 10
12.931896694024394
 20
107.32423468005925
 10
12.680117999281036
 20
107.84104441777144
 10
12.595301200129905
 20
109.52965666793794
 10
12.973327396895497
 20
110.10281666017431
 10
13.196110676654168
 20
111.05067313433828
 10
13.591601551140789
 20
111.84163374746852
 10
14.625034526855744
 20
111.55346832558963
 10
15.211338231697068
 20
112.09428332077063
 10
15.957140057354309
 20
111.7213302917131
 10
16.550649818768346
 20
111.12789727732607
 10
16.758249833004463
 20
110.50157427970068
 10
16.634335030094654
 20
108.91077945287877
 10
16.79644226091232
 20
108.61346362100181
 10
17.648746972884638
 20
108.044094905741
 10
17.445699306436946
 20
107.23189532619197
 10
16.27906011694327
 20
106.12497011230126
 10
16.376982893285025
 20
104.62252155200298
 10
16.537562121660223
 20
104.54923657860579
 10
18.99428259697354
 20
105.20692844875731
 10
19.932387398738125
 20
103.33066132264103
 10
19.555315214391157
 20
102.57647901702484
 10
18.88388581368259
 20
102.27203311363301
 10
19.558456884699357
 20
101.28501060447296
 10
20.466892858990924
 20
100.72898026841253
 10
20.877868105086247
 20
101.47217011747287
 10
21.378757515039936
 20
101.97311841423486
 10
21.998090936025356
 20
101.35379202883888
 10
21.564053742912314
 20
100.48575554759852
 10
20.686001001040555
 20
100.41890667724094
 10
20.686001001040488
 20
99.36157760218495
 10
21.435182469108902
 20
98.7402346255266
 10
21.93465196074801
 20
98.8067353371083
 10
22.47536451834402
 20
98.54305320578231
 10
23.629685267405403
 20
98.54031924277832
 10
22.57437452628714
 20
97.48508253393946
 10
21.51295028814228
 20
97.0975285559412
 10
21.016234969934235
 20
96.57842685370721
 10
20.894806567091443
 20
96.21029152351497
 10
21.429985299276435
 20
95.39555631776481
 10
19.12135867663553
 20
95.51607670000028
 10
19.269971244799557
 20
94.67735470941676
 10
19.104420768770918
 20
94.01503868388322
 10
18.12241748561804
 20
92.87479052768195
 10
18.389687742416296
 20
92.69254037787617
 10
18.781807430378713
 20
92.696974303361
 10
19.727512774757727
 20
93.45012330943972
 10
20.217868041405982
 20
93.45675955083914
 10
20.816120514986682
 20
93.81425876450191
 10
22.085582506734443
 20
93.39408713650599
 10
22.651814850384785
 20
92.44924316194019
 10
23.714657230731678
 20
92.4320921004653
 10
23.72624772945174
 20
91.75224008119405
 10
24.28867209833584
 20
91.17343130739123
 10
23.915719069267062
 20
90.4276294817364
 10
23.517737942769177
 20
90.02957970063818
 10
22.26696938170149
 20
90.3322573899857
 10
21.817703244420013
 20
90.6180833563195
 10
21.488918193815568
 20
90.54561604894586
 10
21.057951830226312
 20
89.60914312176872
 10
21.169561859317994
 20
88.4783593641402
 10
20.611157635614582
 20
87.29610502699931
 10
20.743916388762948
 20
87.1731550020945
 10
22.467580103107668
 20
87.08741535076669
 10
23.257865521231288
 20
86.68291898103413
 10
23.877246803567502
 20
87.51270748430922
 10
24.73268843970377
 20
86.65725676431767
 10
24.868163160411886
 20
86.19763943614724
 10
25.410821809116683
 20
86.6672589053608
 10
25.75463402446426
 20
87.52913730757724
 10
26.571591814222845
 20
87.93765222443491
 10
27.208848616123486
 20
86.86573201645814
 10
27.91566189808075
 20
86.87700011508271
 10
28.58592769810326
 20
87.59541766942905
 10
28.278854481878234
 20
87.76029906244914
 10
28.047737350505123
 20
88.56913827655903
 10
28.27885448187976
 20
89.3779774906544
 10
28.93369797022024
 20
89.42209029544658
 10
29.279424029032924
 20
89.7726778122658
 10
29.846767900380552
 20
90.90502601553375
 10
33.38599991608758
 20
90.90503799224749
 10
33.42022077668145
 20
90.18742949520959
 10
33.75134785210177
 20
89.86297817216887
 10
34.2575064063039
 20
89.73067327378459
 10
34.7871294680616
 20
89.19454644634291
 10
35.41853995225844
 20
89.20970920783543
 10
35.62528960892744
 20
89.6239167327567
 10
35.57814327610261
 20
90.00533718755352
 10
34.7083854455303
 20
91.10280195791682
 10
34.52989091795258
 20
91.11157083175783
 10
34.10420841683837
 20
90.69020823906041
 10
32.786349636443596
 20
92.00807389700032
 10
32.74011750378621
 20
92.47131256088736
 10
32.01627636826194
 20
92.84009984493358
 10
31.719191142981042
 20
92.79285325936
 10
31.132237925374703
 20
91.62610906134293
 10
29.914861999714137
 20
92.80908436408016
 10
29.51649834009772
 20
92.71851039009246
 10
28.992063159266774
 20
91.92697871384443
 10
28.43533006927417
 20
91.55580312701962
 10
27.51799037969864
 20
92.41779342753401
 10
27.064207185191925
 20
93.32541632803567
 10
28.481373915722184
 20
93.84704834087931
 10
29.179042919870586
 20
93.67350979384143
 10
29.32809035348505
 20
93.7873864307016
 10
29.546273797653686
 20
95.55393764783902
 10
28.896925191628167
 20
96.2368475939898
 10
29.60413890381851
 20
96.85547856985704
 10
29.4566071818922
 20
97.59751316789408
 10
29.284987293124015
 20
97.72623962860763
 10
28.575789249562593
 20
97.43162100529095
 10
27.69599198397278
 20
97.43514521916872
 10
27.69614234679359
 20
98.32353450331495
 10
28.35848974501269
 20
99.30109199006368
 10
29.422406300592492
 20
99.39812981496927
 10
29.51586045313951
 20
99.69826926086068
 10
29.408684423862454
 20
99.87393228622226
 10
29.01402561755316
 20
99.79081661953994
 10
27.949943517832164
 20
100.14551967964708
 10
28.889837424044195
 20
101.08539385052877
 10
29.274774787671312
 20
101.1265990827388
 10
29.30776630577829
 20
101.41673458502076
 10
28.3274290809226
 20
101.81173584056212
 10
27.387294205333124
 20
102.69620760564217
 10
26.833899594871543
 20
102.79622360748098
 10
26.44351819667336
 20
103.18660500569489
 10
26.33488598580439
 20
103.71800740665681
 10
25.517672093461975
 20
104.51973763700474
 10
25.342829806826344
 20
104.47313538421764
 10
24.61341805733054
 20
103.34145859782967
 10
23.994626924918276
 20
103.03081940208125
 10
23.344043143397723
 20
103.03082112216946
 10
22.151629317627517
 20
103.6270495150877
 10
21.935184059880665
 20
104.27618728608158
 10
21.821162866972063
 20
104.96062371429568
 10
22.570097165993552
 20
105.54769519930701
 10
22.60598405183852
 20
105.8755790744131
 10
23.205639194644945
 20
105.8755790744131
 10
23.217229693365553
 20
104.98670901907713
 10
23.51789022744035
 20
104.67397695294557
 10
23.766715140629998
 20
104.6515796027316
 10
24.688859669127655
 20
105.53919230341758
 10
25.326711171559396
 20
106.43008322928488
 10
25.908059935396377
 20
106.44046127730947
 10
27.11204287805206
 20
107.04153945582259
 10
27.55537427683471
 20
106.41241469581216
 10
28.4122286053627
 20
106.43669671707089
 10
29.56964698402578
 20
107.61891990913725
 10
30.127384218349032
 20
106.898535928156
 10
30.77565525504161
 20
107.11294313840077
 10
30.76781072069772
 20
107.76074690257128
 10
30.08946664311615
 20
108.43204554624103
 10
29.647236724255002
 20
108.12101897512379
 10
28.52888214389649
 20
108.12100502012002
 10
28.913633932880884
 20
108.9529499230831
 10
28.1619841606742
 20
109.86691837072767
 10
28.350182623377602
 20
110.45002160040815
 10
28.24281109586773
 20
110.79571118889042
 10
27.92402747832713
 20
111.07645380027219
 10
27.427771097428238
 20
110.85561647882973
 10
26.808444712002725
 20
111.47494989980018
 10
27.30939300879547
 20
111.97583930974868
 10
28.055194834453957
 20
112.34879233880679
 10
28.662142574805777
 20
111.77783210773971
 10
29.32580114431535
 20
111.78142252045575
 10
29.537198993717233
 20
112.03701194341302
 10
29.562569069200965
 20
112.58376488437355
 10
30.16455164714486
 20
113.23254994160307
 10
30.47738389637798
 20
113.94063102181819
 10
30.306752419936828
 20
114.30447545308715
 10
29.477732401996636
 20
114.91388552024705
 10
29.477714909764185
 20
115.61788070430161
 10
29.799520007055616
 20
116.2613980396726
 10
30.450303251906195
 20
116.69527996220152
 10
31.140879112815348
 20
116.69527996220152
 10
32.44569161586999
 20
115.59357337511287
 10
31.755570051941934
 20
114.38791880404665
 10
32.04650272552515
 20
113.11769060055894
 10
32.8208660514702
 20
112.41902927977291
 10
32.99382978924121
 20
112.07548814815146
 10
33.14839622749224
 20
110.64629532514587
 10
34.28950464471709
 20
110.75672942234027
 10
34.79177246801514
 20
109.76318821823192
 10
35.81655875294039
 20
109.7386933502034
 10
36.4954567033842
 20
108.66446374653108
 10
37.62723349297124
 20
108.55402971190338
 10
38.286702220800805
 20
108.95652885176172
 10
38.18490101121984
 20
109.48317746274368
 10
39.14601558765368
 20
110.61404638242036
 10
38.79184263641837
 20
111.9592403377033
 10
38.74626087694387
 20
113.00819661804638
 10
38.972509034846986
 20
114.0347166264281
 10
38.44694193647264
 20
115.19583092466549
 10
37.87652513401221
 20
115.24726661696945
 10
37.83241872259354
 20
115.97578213856387
 10
37.524481267868204
 20
116.25867131088187
 10
36.85848906185821
 20
116.26530268911884
 10
36.851857683621276
 20
117.44031293119194
 10
36.28447419425896
 20
118.0329815182564
 10
36.68031847762116
 20
118.82469499103868
 10
37.06679642098172
 20
119.01787788542893
 10
37.703225581685444
 20
119.11333970008616
 10
38.47617404229846
 20
118.80419133241607
 10
38.487770775538344
 20
117.71215992088196
 10
39.10939095933141
 20
117.07414829658788
 10
38.79623288190302
 20
116.75178466556525
 10
38.82067414472087
 20
116.57624199187366
 10
40.37439663185579
 20
116.3181809529291
 10
42.010232392031355
 20
114.6823561057032
 10
42.145816901016126
 20
114.15287556404395
 10
42.44341223038312
 20
113.75542213533542
 10
43.56634866081649
 20
113.18730023589318
 10
43.75145558303518
 20
110.89826831280557
 10
43.443940479838986
 20
110.43704709253264
 10
42.52787376755099
 20
110.23307595926146
 10
42.34705586899367
 20
109.89553629406537
 10
42.36229191856039
 20
108.54995834728632
 10
42.86783041494963
 20
107.97102649777568
 10
42.471986131592004
 20
107.17931302500253
 10
41.95764330589414
 20
106.88508046104712
 10
42.10516227195693
 20
106.22701476671706
 10
43.05734260146295
 20
106.1755790744131
 10
43.09968688806871
 20
105.5868009974286
 10
43.81664715810255
 20
105.33082567947754
 10
44.93282856352492
 20
105.51810408301967
 10
45.002782502174774
 20
105.9999421350738
 10
45.500205176378444
 20
106.51376312729494
 10
45.5118005382615
 20
107.01797820720515
 10
46.01418233292958
 20
107.54565901270462
 10
46.02081857432876
 20
109.05405035149138
 10
46.6676939050414
 20
109.70095041997378
 10
47.290028795087785
 20
109.90833636632829
 10
47.99759826195884
 20
109.90835617654625
 10
48.71899850578291
 20
108.2567931644019
 10
49.49894013105018
 20
108.2116463555369
 10
50.18359024332007
 20
107.5269962432916
 10
50.18462940362022
 20
106.44173778210838
 10
50.44425333130395
 20
105.35451391589997
 10
50.358491917265326
 20
104.90530620098377
 10
51.94910322766528
 20
103.31092159757651
 10
52.62645768138003
 20
103.96867294693878
 10
52.63805304326161
 20
104.98190606292104
 10
53.19386968916703
 20
105.53919230341758
 10
53.47791366801916
 20
106.09924408924178
 10
53.98540448278915
 20
106.52010615376378
 10
54.20941830824987
 20
107.06227091050924
 10
54.82861304107508
 20
107.79679354597599
 10
54.197998558471625
 20
108.51828742979329
 10
54.09755244813848
 20
108.86915515855537
 10
54.031970561939865
 20
109.4776071385626
 10
54.19686739833523
 20
109.94694127978347
 10
53.98598740488932
 20
110.85555287690798
 10
52.87043238553334
 20
112.56266592272225
 10
53.58503525147357
 20
113.1875074715889
 10
53.9772948273791
 20
114.32106254338376
 10
53.45544209339277
 20
114.99377644507564
 10
54.128701383655624
 20
116.5890252825985
 10
53.8569106983212
 20
118.10330508014286
 10
53.933741586757826
 20
118.544460861403
 10
53.656062186477165
 20
119.02716689948538
 10
53.65607162318317
 20
119.69002499289302
 10
53.96404044978675
 20
120.30583745213731
 10
54.40572700923857
 20
120.74758993400043
 10
55.19744048201826
 20
120.35174565062263
 10
55.563649923802174
 20
119.61923847695931
 10
55.4885747415115
 20
119.28292406349468
 10
56.33411771436664
 20
118.73347366325319
 10
56.17148273673321
 20
117.68657216699307
 10
56.686868188313824
 20
117.51680937472744
 10
57.16424798691953
 20
116.67556893900878
 10
57.319069441192404
 20
116.0561122244545
 10
57.19823239135223
 20
115.52512541530001
 10
57.624445020944144
 20
114.16922452537757
 10
58.96631435481944
 20
113.37279036025805
 10
59.31148815727266
 20
113.69652550765421
 10
59.74829233517164
 20
114.5682066667862
 10
59.76430068511874
 20
115.03790372370746
 10
60.36395582792517
 20
115.03790372370746
 10
60.606612729370305
 20
113.61251088216154
 10
61.07127737379662
 20
112.67848943551421
 10
61.77214409709862
 20
111.81066435704753
 10
62.22439103287144
 20
111.77477260804095
 10
63.38030913740426
 20
110.61887924124413
 10
63.85885143954061
 20
108.6356740497448
 10
64.24846491472478
 20
108.4050065829985
 10
65.08352938771097
 20
108.72068360392599
 10
65.87943372551733
 20
108.72067422966504
 10
66.14906313998063
 20
107.91182120874373
 10
65.62685330940222
 20
106.78675078869419
 10
65.46076756687368
 20
105.00056883233998
 10
65.90970704521241
 20
104.52627833390594
 10
66.39692735253534
 20
103.56499106703525
 10
67.38778676025886
 20
103.05817182252842
 10
67.82635118561532
 20
102.47368272110862
 10
68.50714469807204
 20
100.83807084715215
 10
68.51212574612158
 20
100.06044407871454
 10
67.3060673540691
 20
99.78916861717326
 10
67.21703176136667
 20
99.43746427107693
 10
68.47349745788887
 20
99.30682891382553
 10
68.6893215321276
 20
99.94633661326762
 10
70.00232364125642
 20
100.55293712768925
 10
70.11275319121876
 20
100.77132366358727
 10
69.93637087758027
 20
101.25765384530132
 10
70.03034281341023
 20
102.85967322945766
 10
70.38531700846313
 20
104.36111838502245
 10
69.99988683180972
 20
105.91594612557265
 10
70.33553316785013
 20
106.45210765451985
 10
70.3305401866657
 20
106.80053862371251
 10
69.94470304583554
 20
107.86317508768242
 10
69.93428822169864
 20
108.368981779075
 10
69.3706465389374
 20
109.49808060599797
 10
69.96150843976372
 20
110.09261190503383
 10
70.0562766266918
 20
110.43494505457815
 10
69.60514362057343
 20
111.3877929602426
 10
69.60532091233264
 20
112.1081585679282
 10
70.00881856979753
 20
112.52279287019593
 10
70.04114094257666
 20
112.94849332590877
 10
69.31178208840791
 20
113.3876435587957
 10
69.71878855870081
 20
114.07117523042487
 10
69.70527705734077
 20
114.3538970203317
 10
69.14131519385093
 20
114.85441921388868
 10
68.92001670978358
 20
115.9633308097746
 10
68.69578565199635
 20
116.30992000511031
 10
67.39957122618613
 20
116.26530268911884
 10
67.39875435225811
 20
117.49082524565621
 10
67.22233033707427
 20
117.86467653802647
 10
65.93532743903697
 20
118.19451247576922
 10
65.80506095124804
 20
118.5851731314651
 10
65.9235398013412
 20
119.11820191070792
 10
67.22643582164073
 20
119.24054776219141
 10
67.75109027709134
 20
119.1114750358213
 10
68.63639767887622
 20
119.27790295120698
 10
68.88110327364866
 20
120.13494432424794
 10
68.12773284173123
 20
121.6553106212439
 10
68.53213864187094
 20
122.46414425200184
 10
69.37877165669842
 20
122.46123698946367
 10
69.88439590425303
 20
121.78676390454558
 10
70.2048643051828
 20
120.36930821574907
 10
70.9697881954021
 20
119.53747494989383
 10
71.79765845445334
 20
119.76016622168149
 10
72.01849239377783
 20
120.54473731320901
 10
73.63003429134653
 20
122.15620003119406
 10
74.24270207328846
 20
122.46277325730965
 10
74.89643781854205
 20
122.46416885778557
 10
75.83543411087037
 20
122.13141771635709
 10
76.4967124162769
 20
122.23464182242196
 10
76.85317514109376
 20
121.6996103284725
 10
76.56881248304671
 20
120.84646003887501
 10
75.93646878942072
 20
120.8398563891487
 10
75.55166149189829
 20
120.58990179423026
 10
75.03828114621838
 20
119.54374688610831
 10
74.54906673161591
 20
119.37368020191842
 10
74.42018822764966
 20
119.148431902354
 10
75.20390024934234
 20
117.70526899009215
 10
75.5652432089433
 20
116.50064132334528
 10
75.03068134740799
 20
115.83247977907597
 10
74.41619719194945
 20
115.39369845452393
 10
74.5021367301056
 20
114.00915312528596
 10
74.90422223377492
 20
113.81359428794771
 10
75.88058463625191
 20
113.81074239662678
 10
77.90615219364628
 20
113.32058579394406
 10
79.3490713153879
 20
113.81085375661578
 10
80.82683094901647
 20
113.81389405755979
 10
81.90325524799277
 20
114.3198260122839
 10
82.5851124757567
 20
114.31986278839562
 10
82.99920342806547
 20
114.00030035509458
 10
83.47895791583028
 20
114.44406029800717
 10
84.7118495960612
 20
113.2111837632289
 10
83.59464450837447
 20
113.19331023373861
 10
83.23213880393014
 20
112.83178333317294
 10
83.06233592954254
 20
112.33101418980033
 10
82.35311007357303
 20
111.72190636320373
 10
81.41021836417804
 20
111.51053310876698
 10
80.9233972899106
 20
111.62702650858428
 10
78.5742810186842
 20
110.46780078252182
 10
78.01384648526523
 20
109.5456348928723
 10
77.36301744039653
 20
109.84909051322832
 10
77.11636921450143
 20
109.72704268827613
 10
77.01781624688203
 20
109.45949623279002
 10
77.15741802787849
 20
109.23262064346285
 10
78.06505574690435
 20
109.22967531412247
 10
79.13150013781043
 20
107.594397510629
 10
79.56520647445609
 20
107.16329649881197
 10
79.94142244549312
 20
107.03181240175356
 10
80.3591948328018
 20
107.04176512083279
 10
81.35210685911937
 20
107.70262799159246
 10
82.07609443966876
 20
107.70262831946847
 10
82.37924536330596
 20
107.5090142972448
 10
82.91073702927797
 20
108.02213903220202
 10
83.77877351051976
 20
107.58810183910286
 10
83.77878062407105
 20
106.76959694308619
 10
83.59866604280134
 20
106.43488627363638
 10
84.65844155341208
 20
105.87575150300988
 10
83.20871033955588
 20
105.13645791115691
 10
82.95522053420555
 20
104.39155509918778
 10
83.10069066318263
 20
104.04635724027159
 10
83.36980344105204
 20
104.01809313777673
 10
83.76363653916121
 20
104.26164557079743
 10
84.88182139199058
 20
105.6665561751697
 10
85.56367861973504
 20
105.66651939905798
 10
87.26260703978195
 20
105.08286419176443
 10
87.54374425391703
 20
104.62618940010522
 10
87.93592960841028
 20
104.90302912106704
 10
88.69332890862565
 20
104.90302912106704
 10
89.20581410404516
 20
104.45518417812943
 10
90.07768926886727
 20
104.16207483003822
 10
90.60521042085101
 20
104.24723950567875
 10
91.28534262547011
 20
104.11119363161642
 10
91.82147266642389
 20
103.39638922234622
 10
91.63949090904805
 20
102.66834529711218
 10
91.20838655153365
 20
102.1842014384733
 10
91.35785052008784
 20
101.73460165995043
 10
91.73356187787427
 20
101.35379202883603
 10
91.39812917551096
 20
100.68054943123329
 10
91.19512981927458
 20
99.64326419855824
 10
90.66896682059942
 20
99.02552118208105
 10
90.2192658828518
 20
98.72579401017119
 10
89.57283036688511
 20
98.56411379743442
 10
88.90090631312351
 20
98.7993310744191
 10
88.4986021090129
 20
99.16319499859317
 10
87.63838781713334
 20
99.07869191391013
 10
87.19396959115238
 20
98.38281515033343
 10
85.53777340341529
 20
98.7401528527265
 10
84.7028364028946
 20
98.31844646764348
 10
82.97858945843714
 20
96.54835193463033
 10
82.99485014172639
 20
96.36085014044694
 10
84.13055629800309
 20
95.37508566593111
 10
84.86171277282921
 20
95.97247210213806
 10
85.61357441908612
 20
96.12266429680524
 10
85.94177239424788
 20
95.79037856209595
 10
85.78026352186473
 20
94.98378853051261
 10
84.73464360316925
 20
94.43250591514777
 10
84.58107182052375
 20
93.04702663996035
 10
84.20210008675151
 20
92.4150609337376
 10
83.68211975075927
 20
92.1448740789258
 10
82.84972919572206
 20
90.98838508082501
 10
82.76074422406052
 20
89.49639543627092
 10
82.35676718618744
 20
88.8901096711319
 10
82.11065875997825
 20
88.64517418538027
 10
80.55384328761924
 20
88.25772020643487
 10
80.23354347366849
 20
87.94443364793206
 10
80.49779670451396
 20
86.67273714189578
 10
81.04831959762332
 20
86.1896123394125
 10
82.21441504855697
 20
86.27448348031577
 10
82.82588356281224
 20
87.06750384741746
 10
83.81985845493473
 20
87.31294637397868
 10
85.16327999057098
 20
88.80974895573881
 10
86.00462365189573
 20
89.13086730653404
 10
86.8594096000342
 20
89.16449918221784
 10
87.36591924531908
 20
89.84994987699073
 10
89.09768189919163
 20
90.41892867963364
 10
90.68461947918513
 20
89.6508726166505
 10
91.4163798945723
 20
90.06418479811691
 10
91.96251704769746
 20
90.90501678926606
 10
92.76547319720149
 20
90.90503312908504
 10
93.29501671465539
 20
90.37917292296532
 10
93.58547631620192
 20
90.2974229550567
 10
94.5775775900975
 20
90.46786521959386
 10
96.16939552965974
 20
92.2591882248941
 10
96.23590399043414
 20
92.9951592105116
 10
95.7035194076901
 20
93.48173769817208
 10
95.33818768967522
 20
94.21231038344472
 10
96.20013112847656
 20
95.29429817500733
 10
96.4747386909599
 20
96.49917170455595
 10
96.97035748968241
 20
96.91981416801781
 10
97.25491881963379
 20
97.77547120146193
 10
97.22413386737419
 20
98.2885547630743
 10
97.55027466916592
 20
99.1038589709338
 10
98.14248362305683
 20
98.97604597667066
 10
98.4858338628477
 20
99.31760769190656
 10
98.44410553710378
 20
99.64473467702183
 10
97.73432549418258
 20
100.35869083119155
 10
98.50456855385282
 20
100.74683363819328
 10
99.59194860983828
 20
101.74191467879187
 10
100.75277034866137
 20
102.48142821296317
 10
101.88217814559576
 20
101.97892494926923
 10
102.2291695659527
 20
101.99192110911899
 10
102.76742283542433
 20
102.39223770736844
 10
104.50199538424438
 20
101.94710613951557
 10
105.14229442086061
 20
101.14111726286167
 10
105.2448398280053
 20
99.96322955036563
 10
106.27870401709225
 20
100.76619183168087
 10
106.87892842687826
 20
100.86897468401551
 10
108.01462792631705
 20
100.75669866961327
 10
108.47777470816374
 20
100.4672934754535
 10
108.69501534328016
 20
99.64834163604692
 10
108.96981595906306
 20
99.32083674813919
 10
110.43899362656543
 20
99.88012126137593
 10
111.13928836316913
 20
99.79352276036212
 10
111.573431095675
 20
99.30854726734394
 10
112.64395820126904
 20
99.1243657572483
 10
113.18880627215874
 20
98.30832120591862
 10
114.13937416864756
 20
98.14399011818199
 10
114.48108573259059
 20
97.92574279567476
 10
114.926535049388
 20
98.29844406216839
 10
116.14158493232024
 20
98.09768905815994
 10
116.46370992567944
 20
97.97425179640855
 10
116.778045629482
 20
97.4851067023642
 10
117.2450585816352
 20
97.36153096976466
 10
117.80573253571218
 20
96.68304493077156
 10
118.65883924176234
 20
96.26309984896655
 10
119.48472102756973
 20
96.42343388176529
 10
119.61628037805026
 20
96.73615265914316
 10
119.31198268001296
 20
97.7241547059774
 10
119.32937755206568
 20
98.65708036135165
 10
118.55029555095192
 20
99.67506258474793
 10
118.57366244448123
 20
100.20526541075387
 10
118.38914781400068
 20
100.54784164967333
 10
117.60035614727856
 20
101.16183656239151
 10
117.53069385671334
 20
101.86009967779928
 10
117.80664245045378
 20
102.41763178879123
 10
117.97382583259224
 20
103.43917200510896
 10
118.30048267472957
 20
103.96125184943139
 10
118.30137969656175
 20
105.9999421350738
 10
118.71265715661998
 20
106.47111033707569
 10
118.50572180398045
 20
107.37913392662637
 10
118.54165067336014
 20
108.93052306134263
 10
117.96447557618346
 20
109.95642065988349
 10
117.68241292183006
 20
109.99581353660032
 10
116.73612378651181
 20
109.29328872928693
 10
116.11977457213139
 20
108.77177937901357
 10
115.94278497176167
 20
108.3477849027239
 10
115.9321022518349
 20
107.52148355827188
 10
116.60613349620081
 20
106.20965381222754
 10
114.3759453738507
 20
105.68790356231963
 10
114.43332943817501
 20
104.82911727397844
 10
114.22302900777012
 20
104.30338507594325
 10
113.38683141203332
 20
104.3033837045855
 10
113.01013263413395
 20
104.68013449174741
 10
112.24976227885486
 20
106.04291199729536
 10
110.53339365237795
 20
106.568744519522
 10
110.08141425799636
 20
106.29872356542201
 10
109.96776252671228
 20
105.69834408930159
 10
108.36741586535415
 20
104.87221555248688
 10
107.96039526076437
 20
105.22108425864613
 10
107.78314271849355
 20
106.43917814929162
 10
108.23641609434779
 20
107.25665120223614
 10
107.76400759354385
 20
107.43201960999681
 10
107.3564067794935
 20
107.83961200632014
 10
107.84091991311472
 20
109.01909276885877
 10
108.24552394852012
 20
110.53548475881924
 10
108.1990503169257
 20
111.54431240111032
 10
108.52880437891709
 20
112.17859810735547
 10
107.79278917972599
 20
112.3455308182894
 10
107.24655534524813
 20
112.813769274659
 10
106.98761738997058
 20
113.425825205332
 10
106.72004230223514
 20
114.91563797887254
 10
105.97558370454034
 20
115.07742150968737
 10
105.51478047078027
 20
114.87790945417397
 10
105.23219919363514
 20
114.34289258733145
 10
104.6383234313097
 20
113.78393769219454
 10
103.82253610317244
 20
113.43890941585772
 10
103.06000475123327
 20
113.82013999642878
 10
102.92624659686935
 20
115.11649056954867
 10
103.8272034692523
 20
117.64735168623345
 10
103.78720688276077
 20
118.1486768321159
 10
103.97940200315298
 20
118.57102941587193
 10
103.83188932426435
 20
118.77718228831831
 10
102.93134910968078
 20
118.23580878038413
 10
102.35435732519484
 20
118.08386317063409
 10
100.33671850880565
 20
117.96117071346373
 10
100.38686849112142
 20
117.52396348219398
 10
99.7675350701385
 20
116.90463709677007
 10
99.1482016491556
 20
117.52396348219398
 10
99.40947109098559
 20
118.05397290726394
 10
99.3447683074148
 20
118.2673000955732
 10
99.53290789185644
 20
118.3594660261692
 10
100.0110049941839
 20
119.26225940286102
 10
100.45724870748836
 20
121.27921568374065
 10
101.53444796251367
 20
122.0597787409917
 10
101.75773503742616
 20
123.18772865338732
 10
101.77291463489313
 20
125.59796924418045
 10
101.32554973224093
 20
125.69722369179391
 10
100.35586190628277
 20
125.25030357412217
 10
99.87982602720678
 20
125.27261772696451
 10
98.84944483650756
 20
124.40957361078976
 10
98.18273865005192
 20
124.40958712515018
 10
97.5211376850022
 20
124.67423552661332
 10
97.14325792998203
 20
125.68105061720622
 10
96.96034772575275
 20
127.05425089765077
 10
96.19096898946252
 20
127.65332526039039
 10
96.39832598686483
 20
128.29635077983843
 10
96.20876261511164
 20
128.44510742192932
 10
95.28605248805117
 20
128.14710940924172
 10
94.78026299286047
 20
127.69691436997866
 10
94.25233512115837
 20
127.77870965482738
 10
94.0033414148763
 20
127.62884910047062
 10
93.95914134551369
 20
127.13031838597367
 10
93.09468260707881
 20
126.16825508539245
 10
93.57306736393281
 20
125.04332114690773
 10
92.79967541233745
 20
124.77925527139685
 10
92.05533645014135
 20
123.95402040968533
 10
91.62670308272081
 20
123.73946439082707
 10
91.07940192503209
 20
123.91000448938841
 10
90.50834633930447
 20
123.07404884689586
 10
90.3302985801661
 20
122.37350900171472
 10
89.64414259172274
 20
122.37248482483996
 10
88.99717889178211
 20
122.16064815532907
 10
88.62855493680854
 20
122.52929037642913
 10
88.39639278558302
 20
124.20976092996601
 10
88.68507653644069
 20
125.80703920843783
 10
88.87516738501296
 20
126.28178526474618
 10
89.93447341006514
 20
126.34722380381703
 10
90.27026440118311
 20
126.83498153590055
 10
89.80503509368086
 20
128.64759646008605
 10
89.01250144602326
 20
129.31227629533228
 10
88.47835936413908
 20
129.3301041393388
 10
88.03944772161239
 20
129.62585966074982
 10
87.92180555128436
 20
130.33278234033608
 10
88.09860372932484
 20
130.87460351356836
 10
88.15512451530788
 20
132.00483354367228
 10
88.85794094847574
 20
132.9012981849678
 10
88.76609749874386
 20
133.37471001048388
 10
88.94168830367653
 20
133.9237078231323
 10
88.76039775203525
 20
134.924660624493
 10
88.89992154551152
 20
135.29842955937409
 10
88.34405654863428
 20
135.9379694307997
 10
88.13442782480148
 20
135.89296878762136
 10
88.02720929953082
 20
135.39054433131767
 10
88.44667026049491
 20
134.27810758456692
 10
87.20047701554368
 20
133.60223456331136
 10
86.8109488671051
 20
133.2154327336983
 10
85.74757418132033
 20
131.2910401700985
 10
85.0408930894168
 20
130.8816402370101
 10
84.2938583581472
 20
131.06820429215722
 10
83.6881340313361
 20
132.27391014923143
 10
83.68815357153277
 20
132.94448632724664
 10
84.19613211944335
 20
133.92871173000398
 10
84.19607654818525
 20
135.39043901194077
 10
84.01659513071492
 20
136.43286294066942
 10
84.18228812251802
 20
136.9532433465613
 10
83.6315890232804
 20
138.21376660559358
 10
83.14086831619527
 20
138.32244134985757
 10
82.44605961909693
 20
137.68499561611964
 10
81.99619644906811
 20
137.49126701370992
 10
80.84010920306758
 20
137.65556305430712
 10
80.20135711317693
 20
137.97490765598553
 10
79.97983662979254
 20
138.4180247462618
 10
80.37678647357004
 20
139.5495128149272
 10
80.27637504586691
 20
140.2856567502291
 10
79.95265483287643
 20
140.35146821289737
 10
79.42608816025516
 20
140.1793854388605
 10
78.69153872857157
 20
140.30888704462768
 10
78.20984050394075
 20
139.41451692969218
 10
78.26805505654814
 20
138.95785027761497
 10
77.9452256284788
 20
137.52989174532445
 10
78.2831298687487
 20
136.43801984449246
 10
78.24780523619062
 20
135.82028828738805
 10
78.07659447329006
 20
135.52072950823555
 10
77.38296103399148
 20
135.34732983504463
 10
76.67585726259935
 20
135.4651545531384
 10
76.20094258540325
 20
136.33924936091697
 10
76.15067229750922
 20
136.82782876699486
 10
75.7194967426791
 20
136.88053801320297
 10
75.1256678619462
 20
137.3836074636308
 10
74.28498074274323
 20
138.72202126802867
 10
73.73435043185484
 20
139.05046422431937
 10
73.38993448725127
 20
139.00085820314095
 10
72.40376529301442
 20
138.279100422697
 10
71.42298564466927
 20
136.62602833989487
 10
70.17370246203397
 20
136.62601150293628
 10
69.53018512665919
 20
136.94781660023895
 10
68.93770548447432
 20
137.83646429892624
 10
68.85405879801131
 20
138.50579532872482
 10
69.31239027372452
 20
139.1189642708325
 10
69.43547094187787
 20
140.53353673702853
 10
69.42527018561191
 20
140.94613608769245
 10
69.02005791872408
 20
141.57602062137147
 10
68.62489126529437
 20
141.2449413635927
 10
67.83641446147467
 20
140.9652566051866
 10
67.31155414594255
 20
140.38441435926586
 10
67.1538957587
 20
139.82491005395082
 10
66.32642992367803
 20
139.28442783482197
 10
65.87296493102703
 20
138.59719482534277
 10
64.63268103129876
 20
138.2497439767045
 10
64.12814391896593
 20
137.25728880036147
 10
63.43683346124739
 20
136.7200776036297
 10
63.4180520676345
 20
136.23153743945343
 10
62.60921843687775
 20
135.82713163932786
 10
62.035161956991644
 20
136.11106683654867
 10
61.40588613684933
 20
136.1170180726391
 10
61.08331725810347
 20
136.73322976577953
 10
60.01976516073996
 20
137.21509070984132
 10
59.66322810918992
 20
137.94389021409876
 10
59.802059528045476
 20
138.3603685757257
 10
60.14452767321645
 20
138.70126120758835
 10
61.66862815347187
 20
139.30396687662738
 10
62.05665769921806
 20
138.9457608643295
 10
62.32197003204787
 20
139.09893951157767
 10
63.23411837711195
 20
140.6946154674269
 10
63.73321421260518
 20
141.15415346331963
 10
64.01570152564865
 20
142.1484076644395
 10
65.1028212832892
 20
144.05210420841763
 10
64.95113680917002
 20
144.29680181845188
 10
64.47438029612577
 20
144.42203616450783
 10
64.03146369530916
 20
144.9754260430519
 10
63.97643928507109
 20
145.52222907890678
 10
63.718491619458895
 20
145.49961890267235
 10
63.03609874796241
 20
144.81849383088957
 10
62.54596889430784
 20
146.1230574180727
 10
62.81566422908359
 20
146.67576531994078
 10
62.811450249857124
 20
147.38172249837024
 10
62.16777512135399
 20
147.99133717879613
 10
61.79390923300627
 20
149.14144528501987
 10
61.18679556668327
 20
148.73218489066366
 10
60.178748660151854
 20
148.47428697922092
 10
59.994574444561096
 20
148.07668613956352
 10
60.02456883125981
 20
147.05756386523538
 10
59.800274489982236
 20
146.3845645451337
 10
58.05106142541874
 20
145.7644670308842
 10
57.49634694943293
 20
145.94658149573561
 10
57.13753408540299
 20
145.8976559661128
 10
56.811029319330245
 20
145.48308092361185
 10
56.80082471225294
 20
144.94594964850862
 10
56.11617460000799
 20
144.26129953624528
 10
54.62206241448935
 20
144.2582400365465
 10
54.29984580647826
 20
143.97177412252788
 10
54.391132614375756
 20
143.1861070982467
 10
54.787945420558565
 20
142.58100083662407
 10
54.61385482209927
 20
141.8845787808315
 10
54.105814694833406
 20
141.20720828570344
 10
53.37610727163643
 20
141.2071738275772
 10
52.71438316527211
 20
141.53803390848958
 10
52.493583475639404
 20
141.98481268445533
 10
52.66712231739615
 20
142.67834808966495
 10
53.1216142294151
 20
143.137128704383
 10
53.14401157963014
 20
143.385953617584
 10
52.21400210733867
 20
144.35194248927516
 10
53.28976123280826
 20
144.35498641635704
 10
53.55144681828756
 20
144.60493272072367
 10
53.38965744847287
 20
145.02326387092845
 10
53.38457907076662
 20
146.16543184372708
 10
54.40773555623397
 20
147.85293582474944
 10
54.63900187612504
 20
148.54377597913566
 10
54.10241700456603
 20
149.60991332010857
 10
54.09100145984526
 20
150.74645773214286
 10
54.84888563476539
 20
151.65025389960704
 10
56.54118508699494
 20
151.81005812598423
 10
56.43582309691519
 20
152.1354226112313
 10
56.755629636149976
 20
153.21275588044512
 10
57.463812431175064
 20
153.9269320996104
 10
57.89429122097839
 20
154.78257902181497
 10
57.89003128561859
 20
155.22491021982773
 10
57.46180173704967
 20
156.22166066450748
 10
57.780814919840346
 20
158.04283237476045
 10
58.57195521367104
 20
158.24060425197584
 10
59.17317676180952
 20
158.07119668284437
 10
59.52345200912199
 20
158.42429266894698
 10
59.65565215191577
 20
158.92200445659665
 10
60.080112873506
 20
159.55532215710272
 10
59.52923500590877
 20
160.21735900837794
 10
59.39788669064217
 20
160.83120772757687
 10
59.49831456386795
 20
162.3051671119267
 10
59.37789707377196
 20
162.47660357150235
 10
59.04608974581568
 20
162.40003505641957
 10
58.546354790433455
 20
162.54778034229935
 10
57.66229400792163
 20
162.2054577054131
 10
57.19739783568391
 20
161.8798746943126
 10
56.72621625494062
 20
161.148495129115
 10
56.08276288036448
 20
160.7195496971341
 10
55.389074830202496
 20
160.72141101772402
 10
54.75774537314659
 20
161.14251491221933
 10
54.33664147862515
 20
161.7738443692776
 10
54.3281663423739
 20
162.28397209234905
 10
53.92738249624261
 20
163.4056053180583
 10
54.22840132377062
 20
164.22846812299076
 10
54.70372280292001
 20
164.58896350928967
 10
54.81912049912789
 20
164.92873591461748
 10
54.4978390210689
 20
166.35611638091694
 10
54.11893586964088
 20
166.93637502490958
 10
54.832129401115736
 20
168.0930720127751
 10
54.621562890902354
 20
168.81059938308005
 10
54.35482971432371
 20
169.07083694979863
 10
52.45755066657081
 20
169.31215947980428
 10
51.51231048135748
 20
169.1301942178559
 10
50.72241052538548
 20
168.75224372862093
 10
49.91541990959188
 20
168.00668521838708
 10
48.85132296738625
 20
168.35199340352656
 10
47.25393608409513
 20
168.4466116786369
 10
46.36330194500346
 20
168.81226564741073
 10
45.46670630425044
 20
168.54319365954376
 10
45.511499962485736
 20
168.12097840647286
 10
46.65788603002323
 20
167.66103458926096
 10
47.1126398568377
 20
166.5936139090399
 10
48.08812237144562
 20
165.61449060058058
 10
48.417090383940774
 20
165.03908981655064
 10
48.57632979867369
 20
164.43381450464722
 10
48.53196402706464
 20
163.42170082992962
 10
48.63969396505898
 20
163.0304876565358
 10
49.16555417116609
 20
162.5009441390794
 10
49.165564009225804
 20
161.6516283987174
 10
48.27573600601156
 20
161.35503693288618
 10
46.7766153110904
 20
162.89992444462052
 10
45.316500244065466
 20
163.14885441736595
 10
44.72375074064022
 20
162.727378695887
 10
44.587451346220504
 20
162.02486802570317
 10
45.055659838806896
 20
161.52068284846467
 10
45.254379686530946
 20
160.92502319639098
 10
45.35392971957239
 20
159.37285884754692
 10
45.544349457740154
 20
158.88874319071942
 10
46.51628879873103
 20
158.0466031096625
 10
46.790563821632546
 20
157.97494677050912
 10
47.33867979325274
 20
158.19649132969909
 10
47.805816216383825
 20
158.0407554519131
 10
48.14753731135221
 20
157.35735237582165
 10
48.147518099031544
 20
156.6533644781521
 10
47.51625829381415
 20
156.02215668223337
 10
46.320641282569525
 20
155.4243260281127
 10
45.74003685141246
 20
155.70272338150335
 10
44.7686502995187
 20
155.57983579026404
 10
43.733722657801366
 20
156.01976096387247
 10
43.061594900630055
 20
156.74230021429148
 10
41.58534523967914
 20
157.31886502563515
 10
40.030976369641415
 20
158.92553976403232
 10
39.750997583759585
 20
158.9751754174211
 10
39.41032021819262
 20
158.72716632316747
 10
38.481188153553305
 20
157.54921079045553
 10
37.67604064418042
 20
157.1975216769355
 10
37.91370461548487
 20
155.56364237869704
 10
38.9258463787825
 20
154.77184202322616
 10
39.359871419009615
 20
153.95759812737296
 10
40.11093601162954
 20
154.01142234861655
 10
40.69370681648688
 20
154.2993145744983
 10
42.3476475592108
 20
153.90758552989934
 10
40.94494214057284
 20
152.59698573963053
 10
40.434855199098074
 20
151.64495246245167
 10
39.41694822003955
 20
150.95084888270912
 10
38.80261270971013
 20
148.77069689932512
 10
36.98535656911789
 20
150.82524910165037
 10
35.917845724848625
 20
151.6449571680349
 10
35.35020586699832
 20
152.7318760896866
 10
34.26063120355967
 20
153.56721900391835
 10
33.98124288903306
 20
154.84301188115884
 10
33.72271101810481
 20
154.86749269456757
 10
33.490521012581496
 20
154.25738154513482
 10
33.640525047341576
 20
153.11447839237593
 10
33.13642786800692
 20
152.14904204366914
 10
33.3187427632362
 20
151.20116617543084
 10
33.195203445895835
 20
149.68946010148233
 10
33.37962003626913
 20
148.73822152332505
 10
33.83230642541368
 20
148.0545685462155
 10
32.91286876586527
 20
147.4342687285436
 10
32.87697701685787
 20
146.98202179279485
 10
32.12605980252061
 20
146.04470873040134
 10
33.08821418227279
 20
145.35968077290534
 10
33.632524020036
 20
146.3242024562517
 10
34.10420841683837
 20
146.5129103532294
 10
34.65853877174529
 20
146.29116528031344
 10
34.658557635335484
 20
145.50837180070494
 10
34.18634614182671
 20
144.56398481283838
 10
33.369641769185534
 20
145.33341576884027
 10
33.20487066225846
 20
145.2030834570396
 10
33.28689247418186
 20
144.71424663797936
 10
34.366281081297956
 20
143.95956060397575
 10
34.8880968935541
 20
142.65999262690244
 10
36.21424773307847
 20
140.66960217397664
 10
37.17481308083192
 20
140.3270935202184
 10
37.66733710790228
 20
140.46569640651225
 10
38.476185251715904
 20
140.19606699206565
 10
38.47617508578021
 20
139.3801629713446
 10
37.912498938894245
 20
138.24027596798888
 10
37.229095862784696
 20
137.89855487301918
 10
36.069494045190595
 20
137.8985565931074
 10
35.552691593890074
 20
138.15033356776584
 10
34.82241691756969
 20
138.15307824022412
 10
34.8196722451118
 20
138.88335291653277
 10
34.61471137254346
 20
139.2984830472788
 10
33.89862400456627
 20
140.14091175609985
 10
32.893213064972855
 20
140.7593078292246
 10
32.33725172894992
 20
141.4753615042727
 10
31.566010463725366
 20
141.86120466748474
 10
30.633863579002792
 20
141.70959586810497
 10
30.315449115642384
 20
141.5041383317791
 10
29.944748909199195
 20
140.37044879726807
 10
30.140545271791986
 20
139.26809765856447
 10
31.219847681747872
 20
139.2617302161176
 10
31.858949949011926
 20
138.00163008741262
 10
31.858958436955778
 20
137.36408322354265
 10
31.368556766261776
 20
135.89558536722538
 10
31.486404110530717
 20
135.39879759519172
 10
31.375865679075332
 20
134.86916108184624
 10
31.562798738463258
 20
134.29978410218544
 10
31.050100200395836
 20
133.78706862651802
 10
30.537401662328424
 20
134.29978410218544
 10
30.68475496303268
 20
134.7803528579614
 10
30.438021596213453
 20
135.07351803703702
 10
30.097102572080168
 20
135.09303076441182
 10
29.523046092196598
 20
134.8090955671923
 10
28.714212461417834
 20
135.21350136731337
 10
28.71419036444125
 20
136.14192182666582
 10
29.378329978746404
 20
136.31805067848057
 10
29.849191198608043
 20
136.95020489337026
 10
29.720070964804428
 20
137.72454418355682
 10
29.458007648375197
 20
137.8926299628007
 10
28.65789154235123
 20
137.92960782186736
 10
28.497759418008894
 20
137.80013827789386
 10
28.296853852513692
 20
136.86888346037946
 10
28.295832184445985
 20
135.8370291153248
 10
27.78954619176661
 20
134.81120862796033
 10
27.786806494205997
 20
133.65563641475083
 10
26.93365620458731
 20
133.37127375672407
 10
26.456533790076744
 20
133.60668951995953
 10
26.042057564672614
 20
132.8565699831768
 10
25.18882913915837
 20
133.70977807337877
 10
24.70739216902933
 20
135.55314300497133
 10
23.624020123992516
 20
135.60798805985692
 10
23.624009414538218
 20
137.1407073114946
 10
24.743282058690767
 20
136.03027514421487
 10
25.194886255333195
 20
136.34499921758538
 10
25.15965533560058
 20
137.35227467203313
 10
24.965165316937558
 20
137.9438902140976
 10
25.556485859263248
 20
140.1114132031471
 10
26.163495114982933
 20
141.08259873892618
 10
25.985935963792617
 20
141.5616819956238
 10
25.49520151084835
 20
141.34588965518378
 10
24.060096732365814
 20
141.8857047428292
 10
23.600125887209224
 20
141.20719843336096
 10
22.781620991178638
 20
141.20719131980962
 10
22.339391072318772
 20
141.51821789093125
 10
21.865153618107108
 20
140.997995991982
 10
22.311795768958543
 20
140.48897795591358
 10
21.43796036552362
 20
139.61513551690945
 10
20.692158539844844
 20
139.98808854596345
 10
20.250406057967794
 20
140.42977510543116
 10
20.563972648173
 20
141.06303443580293
 10
20.569916770712435
 20
141.6312046601122
 10
21.254566882980193
 20
142.31585477237218
 10
22.215831854799614
 20
142.35174652137877
 10
22.353261779707672
 20
143.11071368877452
 10
22.22693570974325
 20
143.23925274565343
 10
21.953503450812185
 20
143.09035098087173
 10
21.19357455595172
 20
143.28031064405332
 10
20.653596887934775
 20
144.09030744876046
 10
21.10334031638767
 20
144.54943077004174
 10
20.98575469778566
 20
144.7694179895678
 10
20.299149259149747
 20
144.7436094258667
 10
19.902961219555515
 20
143.9870657645967
 10
19.907395145040844
 20
143.59494607663754
 10
20.336849319024143
 20
142.7342314730237
 10
19.126578298533204
 20
142.73423558996774
 10
18.881892858570197
 20
143.46776237475538
 10
18.77643099556765
 20
144.09898061805777
 10
19.157389142879037
 20
144.86093783917553
 10
20.268123957740706
 20
144.87254031460938
 10
20.360893871482727
 20
145.36996785197024
 10
21.299814339407728
 20
145.38151835497598
 10
21.77956549495208
 20
145.72645103384784
 10
21.880589912052667
 20
146.01891054342596
 10
21.55310294072178
 20
146.55866670567804
 10
21.800739410141563
 20
147.52644149812068
 10
21.60991525105159
 20
147.96424208724602
 10
20.060886979084597
 20
147.05498464058732
 10
20.059597576388352
 20
148.08717845501616
 10
19.767381822069858
 20
148.92882024331834
 10
19.424946335044908
 20
148.99117584317568
 10
18.92444624708139
 20
148.67278951008942
 10
18.23387038618077
 20
148.6727895100894
 10
17.683590260522664
 20
149.03963063066587
 10
18.023927007598267
 20
149.98862710926122
 10
17.515808554289368
 20
150.54514804529893
 10
17.515803691126933
 20
151.47818428482898
 10
18.755096403501422
 20
151.4809289572869
 10
19.65191406900788
 20
151.85093684027294
 10
19.04286266251064
 20
152.581220189583
 10
19.039803162811996
 20
153.56631433903053
 10
18.8365299030338
 20
153.80558461877885
 10
18.910813767889305
 20
154.0622442550141
 10
18.638019818506088
 20
154.32079835994645
 10
17.918523244434322
 20
154.50282305380244
 10
17.511899041681527
 20
153.74541179062234
 10
16.97005402686433
 20
153.47042279538846
 10
16.412767786371976
 20
152.91460614947118
 10
16.050190180986217
 20
152.89085888893356
 10
15.967771469514732
 20
152.68344204856973
 10
16.063565829567345
 20
152.39667772562754
 10
16.84290888057356
 20
151.81156538155136
 10
16.907962112361112
 20
149.79589376021073
 10
17.416928611361563
 20
149.20148741962194
 10
17.202060195744952
 20
148.6770770093042
 10
17.552993618374007
 20
148.30182943610498
 10
18.19981606881169
 20
146.97365608539388
 10
18.95785796672227
 20
146.8970170970131
 10
20.066559014934686
 20
145.78833807184637
 10
18.709476702603727
 20
145.78835364446311
 10
17.844894810829587
 20
146.6169341138351
 10
17.38759064731638
 20
146.25416852940148
 10
16.61393825196228
 20
146.5120566768365
 10
16.03555305590354
 20
147.44277162443566
 10
15.285243653219222
 20
148.14614813900138
 10
15.067981995727887
 20
147.9813950955092
 10
15.061345754328396
 20
147.49103982886118
 10
14.563923080143631
 20
146.97721883664036
 10
14.55232771826113
 20
146.4730037567118
 10
13.743486973953093
 20
145.6641561348516
 10
13.131408369770698
 20
146.27191483061762
 10
12.725623330395885
 20
146.2973668173691
 10
12.725623330395885
 20
146.89702196017555
 10
13.109677347474031
 20
146.95214459709092
 10
13.24965153860496
 20
147.19021087266995
 10
13.194388943386105
 20
147.48103768781968
 10
12.084979582427527
 20
147.97532353461057
 10
11.470881496634796
 20
148.43586628225333
 10
11.037901194514712
 20
149.1330251175423
 10
10.444214487965553
 20
149.43867276156624
 10
10.203642270831132
 20
150.16032307982758
 10
10.558345330955763
 20
151.22440517956534
 10
11.746563380214546
 20
150.22164754459226
 10
12.579862078871137
 20
150.23992976299343
 10
12.740296183846217
 20
150.67623090460071
 10
12.442246445553097
 20
152.07771483852954
 10
12.058322130633764
 20
152.64818118344388
 10
11.127610277666522
 20
152.66007963920453
 10
10.508826431649021
 20
152.97071711486075
 10
9.918288056984052
 20
153.56148148019963
 10
9.694624234763475
 20
154.23246736841375
 10
9.775378881007937
 20
154.550613419033
 10
9.608536842746414
 20
154.6728812774854
 10
9.27901291350263
 20
154.57685332973102
 10
8.844082149720085
 20
153.81750941853036
 10
8.270165190871847
 20
153.55783216128222
 10
7.701171308098718
 20
152.06270996041255
 10
7.3486828544307246
 20
151.47527978374623
 10
6.98142266437555
 20
151.19984921604765
 10
7.466220929086448
 20
150.46247229683863
 10
8.444126858012286
 20
151.39321232153594
 10
8.444288577154776
 20
149.86400293459272
 10
7.738331109204832
 20
149.83504108312184
 10
6.951282900930606
 20
149.05104745869326
 10
6.9201166768730715
 20
148.79039908783784
 10
7.311755968586215
 20
148.36787056015456
 10
9.037813867243717
 20
147.47109709210972
 10
9.368460477436532
 20
147.77236301568692
 10
9.371527090686552
 20
148.8185627609462
 10
10.180360721443304
 20
149.22296856107175
 10
10.934398966465785
 20
148.85498765674512
 10
11.242476834093583
 20
147.68887273709453
 10
11.90564100312858
 20
146.66292228847496
 10
11.706606647732574
 20
145.8667231610389
 10
10.712396913218042
 20
145.58323159859967
 10
9.624466275738468
 20
145.52192197752944
 10
9.006801161130495
 20
145.72940342339044
 10
8.95312997673668
 20
144.909679686
 10
8.311176691096366
 20
144.4601868922426
 10
8.509112980089963
 20
144.1113070589011
 10
8.12422016859748
 20
143.34114699802973
 10
7.172853396851987
 20
142.30893580227774
 10
6.506919084036411
 20
142.97486528578423
 10
6.8233702970806
 20
143.89497165364807
 10
6.368879072969449
 20
144.38701264316165
 10
5.936232401493069
 20
145.48342069456976
 10
5.060915391816391
 20
145.52942318402987
 10
4.057237867800695
 20
145.86984441920265
 10
3.7274825456232517
 20
145.81217754996388
 10
2.669280812414047
 20
144.77031757232623
 10
2.2465080736320795
 20
144.73443992941912
 10
1.5270541082219304
 20
143.88259300859147
 10
0.8485248723548179
 20
144.56112224448603
 10
1.5417897682951045
 20
145.27010540110788
 10
1.227212187660484
 20
146.01739712318405
 10
1.2272139077486968
 20
146.66798090470124
 10
2.1901870390945937
 20
148.14733870063873
 10
1.5363576121818983
 20
148.98680218171614
 10
0.6237973442894416
 20
148.49222305967754
 10
0.04257271738393991
 20
148.4091936279611
 10
-0.042231326178436425
 20
149.00282193295482
 10
0.39913333692484715
 20
149.0722463753417
 10
1.5537842449977823
 20
149.67948729559012
 10
2.0784944313370373
 20
149.3647149185515
 10
2.8802831903192763
 20
148.12424849698849
 10
1.832820939001136
 20
146.5321559449575
 10
1.8372548644865612
 20
146.14003625698965
 10
2.229008978570638
 20
145.39667113526733
 10
2.4538530699160432
 20
145.40418871256114
 10
3.4153101987629726
 20
146.3643731755714
 10
4.100742445464936
 20
146.50146571073535
 10
5.105233800348559
 20
146.14310856525688
 10
6.249341191192446
 20
146.02145506275428
 10
6.597961891803831
 20
145.73099664201217
 10
6.658162748326306
 20
145.15562518701012
 10
6.952590698127258
 20
144.67418939855895
 10
8.319188473470154
 20
145.21572910349707
 10
8.152836882958434
 20
146.13247605993251
 10
8.619297212167904
 20
146.91237390449353
 10
6.948671565908456
 20
147.87786810507677
 10
6.317411760692747
 20
148.50907590100928
 10
6.3174117606927505
 20
149.26647520120343
 10
6.888622346776712
 20
149.90306789628968
 10
6.694380902157238
 20
150.49911800251067
 10
6.165779014266922
 20
151.17835671342007
 10
7.1558641086694506
 20
152.31982261172803
 10
7.698611900608
 20
153.89123496459663
 10
8.476696110016059
 20
154.3287280436992
 10
9.01292271214409
 20
155.16153904166276
 10
9.711359442097944
 20
155.31120208180772
 10
10.54704456911434
 20
154.8933683887358
 10
10.338973641843435
 20
154.1982943243871
 10
10.849874356592473
 20
153.47819732734342
 10
11.276967724760558
 20
153.26249208353892
 10
12.360532989891391
 20
153.25973813852252
 10
13.009204017051953
 20
152.3060936906581
 10
13.379933692604364
 20
150.66606767954812
 10
12.88591149636418
 20
149.60598825972752
 10
11.659823292582589
 20
149.55097061586756
 10
11.951814920912659
 20
148.8281817694595
 10
13.412049876994242
 20
148.11611987087178
 10
13.984111026082441
 20
147.31157832362786
 10
14.443811235739927
 20
147.73091705346548
 10
14.461700337846853
 20
148.2484391290519
 10
15.270541082178406
 20
149.0572867509245
 10
16.534957546223808
 20
147.7928114000322
 10
16.9629319214525
 20
147.04769022187034
 10
17.279944094131505
 20
146.99586290945703
 10
17.415787389783578
 20
147.22124252616882
 10
17.07094281830786
 20
147.9247689200526
 10
16.432770787435345
 20
148.57406368259112
 10
16.653608108885695
 20
149.07032006349206
 10
16.341938180802494
 20
149.54237983138913
 10
16.236627222692945
 20
151.54452134801872
 10
15.522126237661567
 20
151.9898874382314
 10
15.343255208106742
 20
152.70541082164357
 10
15.545452922840044
 20
153.51426654937808
 10
16.172890561762483
 20
153.53214066806035
 10
17.2001264431332
 20
154.3601227212946
 10
17.383692954137757
 20
155.7265846382626
 10
17.252648806893053
 20
156.2540891541871
 10
17.05757688905441
 20
156.32838379175652
 10
16.88807315435073
 20
156.11289861655743
 10
16.716561664310934
 20
155.6842996807717
 10
16.768591527003803
 20
154.62780236678438
 10
16.432633471260765
 20
154.29188159012074
 10
15.732682708604019
 20
154.17522859075538
 10
15.02852538487314
 20
154.52708061795556
 10
14.800868403478779
 20
155.2058405499473
 10
14.99877620693585
 20
156.4014601727132
 10
15.762046111916716
 20
157.54627941132492
 10
16.823546563908565
 20
157.8027136746188
 10
17.720517926126817
 20
157.44393943262716
 10
17.48616276405914
 20
156.95989392291617
 10
17.58473267137195
 20
156.79379737564597
 10
18.253870069074825
 20
157.07739703077746
 10
19.018963562537046
 20
157.07737070490552
 10
19.423369362676777
 20
156.26853707414762
 10
19.0800477265771
 20
155.58193809896693
 10
18.643926917936433
 20
155.13661819039214
 10
18.6782478054409
 20
154.95156844215006
 10
19.64744211253449
 20
154.2223626708258
 10
20.360721442885936
 20
155.41194856746728
 10
20.932989021499676
 20
154.2673459952306
 10
20.58421058048095
 20
153.24544528953132
 10
19.78600359011857
 20
152.78317394917175
 10
20.47103682780251
 20
151.62817189901017
 10
19.97589403887627
 20
151.1330430232192
 10
18.349466627934724
 20
150.87189776378565
 10
18.245891537461873
 20
150.69909316512482
 10
18.62447200683819
 20
150.28451127333477
 10
18.61680742019244
 20
149.33111273689155
 10
19.270357179584792
 20
149.62405909297186
 10
19.952785854094934
 20
149.53307060454182
 10
20.26017943860112
 20
149.3486182271496
 10
20.625177260376535
 20
148.57980741141657
 10
20.796410863384143
 20
148.63261660795803
 10
21.19346128716754
 20
149.442100163829
 10
22.103882623331558
 20
149.44211711544
 10
22.373512037763575
 20
148.63326409451986
 10
22.219762356059043
 20
148.16133955750308
 10
22.409084264355002
 20
147.6690421740483
 10
22.241043638170794
 20
146.637862792709
 10
22.557917960045373
 20
146.13247605992782
 10
22.31951695825605
 20
145.41718653447924
 10
21.935811114218843
 20
144.9855572611308
 10
22.931231302346504
 20
144.19616052536335
 10
23.040048460214194
 20
143.5430861723498
 10
22.828583798288772
 20
142.00948431202926
 10
23.195486067331885
 20
141.81900719150792
 10
23.43679455614418
 20
142.22131787934543
 10
23.836690755814693
 20
142.48570474282923
 10
24.523644643891032
 20
142.48552712319398
 10
25.454596529305846
 20
142.0406252308426
 10
25.910545076911397
 20
142.4074065409613
 10
25.47418335300481
 20
143.54308861090274
 10
25.69785111120997
 20
144.21407599056923
 10
26.318840341823368
 20
144.83283078292527
 10
26.97795591181745
 20
144.99742615461543
 10
27.786811639571578
 20
144.7952284398917
 10
27.786789542594995
 20
143.86680798053928
 10
27.181117746746423
 20
143.5556957222105
 10
26.80944480552956
 20
142.99090999496065
 10
26.9052417858864
 20
142.52505010019982
 10
26.71560649113118
 20
141.7526890342299
 10
26.76878751293071
 20
140.91494245058612
 10
26.106008276564832
 20
139.8333330280021
 10
25.60951472401632
 20
137.9780583810215
 10
25.83675981736728
 20
136.37165492537704
 10
25.35696020360789
 20
135.376715329278
 10
25.736532211190347
 20
134.01954522448676
 10
25.913956066935125
 20
133.99814510915215
 10
26.46893787575152
 20
134.40176150980412
 10
26.9797032401941
 20
134.06492168944337
 10
27.169278943703713
 20
134.1328800827746
 10
27.18713374743229
 20
134.96056607505375
 10
27.693419740111352
 20
135.9863865624286
 10
27.907950616805383
 20
138.0762286351951
 10
28.393468917114873
 20
138.56177071548282
 10
29.68972420843632
 20
138.57580792735183
 10
29.322884021873183
 20
139.94331955603133
 10
29.354277258585544
 20
140.57295201703434
 10
29.63262055524354
 20
141.08644342007327
 10
29.785305865736067
 20
141.87249632688236
 10
30.450303251909123
 20
142.31585444449618
 10
31.5591206750367
 20
142.50176855081335
 10
32.201059371118184
 20
142.2877969393688
 10
32.79958914488089
 20
141.88877696689917
 10
33.28151895529187
 20
141.23963725254492
 10
34.72968368673404
 20
140.1605122457065
 10
35.477085496348344
 20
138.78695424362294
 10
36.218851492296444
 20
138.5009690374421
 10
37.11916808271099
 20
138.51423271493098
 10
37.42968505416288
 20
138.69775460589537
 10
37.843686821216046
 20
139.74906721553762
 10
37.646716192070265
 20
139.8238671198537
 10
37.122305429160264
 20
139.65190605282797
 10
36.56250688891018
 20
139.98445584072383
 10
36.00513040310354
 20
140.03019136651602
 10
34.34420857143267
 20
142.3840973886159
 10
33.8263256820072
 20
143.65030247317773
 10
32.88706012538219
 20
144.19202358144912
 10
32.62244361086337
 20
144.9080763887858
 10
31.862850457326033
 20
145.34661419543454
 10
31.368445571049627
 20
146.08817635270393
 10
32.25944249826995
 20
147.2218990173948
 10
32.27733871392761
 20
147.80052668879685
 10
32.957467227919615
 20
148.2039181839465
 10
32.59634036452833
 20
149.61326758531382
 10
32.70481325207264
 20
151.1552966746781
 10
32.52866043714011
 20
152.22988108937489
 10
33.038153229031316
 20
153.33700535230986
 10
32.85838109979485
 20
154.22220719581875
 10
33.0257953876025
 20
154.8587290951105
 10
33.379910608401794
 20
155.47807272764922
 10
34.271016483351346
 20
155.92362880681728
 10
34.801102747364894
 20
153.89017074483883
 10
35.889162699576374
 20
153.041148845137
 10
36.370215266626815
 20
152.06712774822654
 10
37.34758302531773
 20
151.3115507828717
 10
38.31936422608238
 20
150.1780862503605
 10
38.508192405648906
 20
150.16750704871953
 10
38.96184465634684
 20
151.38364252864812
 10
39.99164543301649
 20
152.0767293774735
 10
40.49189238717667
 20
153.00597249903842
 10
40.98201181233482
 20
153.50271829102036
 10
40.75017140069537
 20
153.64509846753992
 10
39.72114307558762
 20
153.3381032405397
 10
39.08040992115906
 20
153.35353539675745
 10
38.87285022622569
 20
153.53141101172892
 10
38.439769917296616
 20
154.36751533341013
 10
37.41441617870501
 20
155.20815777982787
 10
37.197864945183206
 20
155.69589777282846
 10
36.96556368588181
 20
157.38904164437503
 10
37.52437805259434
 20
157.87803140684468
 10
38.13114837794474
 20
158.04861528076495
 10
38.98401662957083
 20
159.15793877710044
 10
39.63467753486929
 20
159.6460983315047
 10
40.38333513473678
 20
159.46173137056346
 10
41.6592594650299
 20
158.00341131612976
 10
43.45120631104289
 20
157.22791632966886
 10
43.98715411163153
 20
156.58621806736116
 10
44.421120174655464
 20
156.32161167920574
 10
44.825747810519154
 20
156.19751299937087
 10
45.86811570988165
 20
156.32100955011154
 10
46.34373148621748
 20
156.1144221793469
 10
47.15317389114011
 20
156.51215913731295
 10
47.54123644115033
 20
156.92040851169955
 10
47.36906925575869
 20
157.51969435039985
 10
46.87395902586021
 20
157.29512145211652
 10
46.158669500419464
 20
157.53352245388933
 10
45.060317507502454
 20
158.49332855937962
 10
44.74573121757097
 20
159.27300122106283
 10
44.66748961722931
 20
160.78832680819292
 10
44.52407825068502
 20
161.20032458766678
 10
43.98474643004023
 20
161.74354483887737
 10
43.98478320615199
 20
162.42540206663782
 10
44.192173088501455
 20
163.04774332523647
 10
44.917429524410274
 20
163.66823359472792
 10
45.302605210389714
 20
163.77934538640213
 10
45.90685789146758
 20
163.58294293829334
 10
46.92043823105914
 20
163.5249392808352
 10
47.57122147590437
 20
163.0910573583099
 10
47.85902976722693
 20
162.56007970491137
 10
48.093192602317714
 20
162.66848793396406
 10
47.930634509781456
 20
163.356517569012
 10
47.96297358417188
 20
164.40559177803556
 10
47.61712133728912
 20
165.2296969859474
 10
46.558905884530574
 20
166.2955998061262
 10
46.179367601291645
 20
167.27312806829408
 10
45.14029628512578
 20
167.55083073754176
 10
44.90727783534022
 20
167.85043396618502
 10
44.78640058480043
 20
168.5302535253037
 10
45.11424638085068
 20
169.1858984574405
 10
45.73523058752688
 20
169.2102325250122
 10
46.300513286767426
 20
169.4569945044562
 10
47.437428038658354
 20
169.0317238281211
 10
49.825705516867096
 20
168.7411393252286
 10
50.326995894053574
 20
169.23627567885976
 10
51.32068666140391
 20
169.7072853022134
 10
52.40773313045428
 20
169.91855678194554
 10
53.985473223013045
 20
169.65762649876257
 10
54.576470962651584
 20
169.71367452308797
 10
55.127655840058125
 20
169.16247131130635
 10
55.395203188126565
 20
168.56741246427723
 10
55.45097460591522
 20
167.90018190002573
 10
54.83470434660875
 20
167.0024160362622
 10
55.10409759746011
 20
166.53967670801097
 10
55.107712787027054
 20
165.98097581541168
 10
55.45968438244766
 20
164.92184124882118
 10
55.22875828642761
 20
164.2291687128924
 10
54.70042071324445
 20
163.82547172592004
 10
54.55711007931669
 20
163.39744008580627
 10
54.93442491876454
 20
162.4675324194342
 10
54.959794994250444
 20
161.92077947848557
 10
55.536009939402526
 20
161.34456453334738
 10
55.899202553270555
 20
161.32580827352533
 10
56.27727782665744
 20
161.5770539788718
 10
56.80928504667426
 20
162.34879105227148
 10
57.377162346986005
 20
162.7490253404463
 10
58.51406883511718
 20
163.20948086490793
 10
59.052984411612236
 20
163.04059893974383
 10
59.70699564323989
 20
163.25245539075314
 10
60.11660073247704
 20
162.43324597040015
 10
60.09240781563586
 20
160.46945021653562
 10
60.2647866074921
 20
160.2538877268148
 10
60.995913055312926
 20
160.00677905348505
 10
59.76411169716758
 20
157.74432890650743
 10
59.04609218436796
 20
157.37085718184332
 10
58.50861001971696
 20
157.5939929431793
 10
58.25788507154363
 20
157.4749921967996
 10
58.091629471610034
 20
156.33223391459495
 10
58.4975147230386
 20
155.2991495616108
 10
58.4975147230386
 20
154.69283440631617
 10
57.92390145472511
 20
153.53540025229842
 10
57.25786137474617
 20
152.8597537234206
 10
57.08626280139831
 20
152.30455058159217
 10
57.45569671660261
 20
151.85516282029275
 10
57.59215460684344
 20
151.0364188376123
 10
57.01002004007942
 20
150.6483386906078
 10
56.340084847370726
 20
151.14457713455636
 10
55.51644686882239
 20
151.16954550108758
 10
55.07163952378549
 20
151.06750719794536
 10
54.70688837097588
 20
150.61360923766102
 10
54.73706788252252
 20
149.5451731836608
 10
55.29696345662638
 20
148.68921726950083
 10
54.8750990161061
 20
147.4124220074201
 10
54.03553564362545
 20
146.02228002715816
 10
54.035172943027796
 20
145.07342039898884
 10
54.22898454886947
 20
144.8314902283333
 10
55.84913056646238
 20
144.86758119412647
 10
56.189583933889246
 20
145.19913386877752
 10
56.201158319398296
 20
145.6791087819654
 10
56.88778293191808
 20
146.47618392094026
 10
57.54811145127455
 20
146.56422556459535
 10
58.0187754700986
 20
146.42616755349061
 10
59.26705575987516
 20
146.7893849010039
 10
59.42392103058993
 20
147.163180667882
 10
59.37700489667193
 20
148.17847952216906
 10
59.66414113001159
 20
148.79702831908887
 10
59.907384722520305
 20
149.08076810405197
 10
61.09174290253215
 20
149.35805608308831
 10
61.47490139694217
 20
150.08916608218297
 10
62.30920187754182
 20
149.5328922023834
 10
62.51909265488263
 20
149.2531650421722
 10
62.72258882076217
 20
148.24051659444154
 10
63.4180520676345
 20
147.80052668879685
 10
63.34013994169916
 20
146.18978068057814
 10
64.26046317716332
 20
146.13349004291044
 10
64.70325368139983
 20
145.6906994195641
 10
64.68877570532914
 20
145.1142546661245
 10
65.3394915763262
 20
144.82389777278078
 10
65.85399931873374
 20
144.05210420841763
 10
64.56785411343463
 20
141.8898086264378
 10
64.2797714701828
 20
140.8446980025139
 10
63.66443966880397
 20
140.25843202232355
 10
62.87128716535583
 20
138.79995206554798
 10
62.10020040081454
 20
138.02888559377908
 10
61.496717126964796
 20
138.59460472220985
 10
60.69344779251405
 20
138.30490087398212
 10
60.32014380480147
 20
138.01572222529802
 10
60.44388125523478
 20
137.66480444499493
 10
61.566131900576366
 20
137.13343446168818
 10
61.81052595671237
 20
136.7288268307854
 10
62.748459826054415
 20
136.56820428341933
 10
62.81842087825553
 20
137.11114793128468
 10
63.62873942865514
 20
137.6073285759703
 10
64.15823744191471
 20
138.6581916268414
 10
64.55451166871882
 20
138.92240087068993
 10
65.44258566453065
 20
139.07409045369226
 10
66.0007182802346
 20
139.80818284516783
 10
66.59790132038717
 20
140.11832276499047
 10
66.9551900616382
 20
140.93153361544086
 10
67.53488504020484
 20
141.51225532134558
 10
68.29270517685639
 20
141.76921295221632
 10
68.67958853070503
 20
142.14794077576065
 10
68.85919522773538
 20
142.68360424564065
 10
69.12790854683489
 20
142.95232361545698
 10
70.03529730568478
 20
142.77084892338297
 10
70.03531114235106
 20
141.94524554819762
 10
69.83427622022488
 20
141.5147380706205
 10
70.03547094187786
 20
141.06533840509587
 10
69.90187177897697
 20
138.83160233863924
 10
69.47962013659662
 20
138.34340045216376
 10
69.92809287950912
 20
137.43371681002364
 10
70.30952742178114
 20
137.23161853418904
 10
71.10510615328361
 20
137.25118358845646
 10
72.0797406544349
 20
138.80360392153776
 10
73.19009315258097
 20
139.5893029215614
 10
73.87194525724342
 20
139.68019842661005
 10
74.6984009109565
 20
139.1843541971147
 10
75.55166149189279
 20
137.82158785174136
 10
75.9865407762274
 20
137.48681967108428
 10
76.53800163871524
 20
137.48017631613322
 10
77.03657805621313
 20
136.04147950028187
 10
77.57969036977494
 20
136.01771280283268
 10
77.67609887446503
 20
136.41444907213693
 10
77.31350514384819
 20
137.38799332983788
 10
77.65634775718162
 20
138.9372639995991
 10
77.56450968081903
 20
139.5386054346923
 10
77.93469000708309
 20
140.0991034576624
 10
78.19183512594462
 20
140.9873963320208
 10
79.37942198410246
 20
140.8036838213821
 10
79.87940382656856
 20
140.9625351520553
 10
80.56193686181022
 20
140.90340937123693
 10
80.82285764253847
 20
140.64227594537755
 10
80.97935871743113
 20
140.01229682128468
 10
80.97919891790434
 20
139.40015536783375
 10
80.63078683703738
 20
138.50316045368587
 10
81.02116906212143
 20
138.2364767794404
 10
81.9445077892851
 20
138.12167460478167
 10
82.81265898445014
 20
138.9125906851188
 10
83.55269818488507
 20
138.96190545234174
 10
84.0041472631246
 20
138.69093040918693
 10
84.68039579183942
 20
137.53312723108047
 10
84.8065865050359
 20
136.9065771704061
 10
84.64375562578378
 20
136.3869997631706
 10
84.79677992011328
 20
133.82309492735496
 10
84.28797595189754
 20
132.71745837784383
 10
84.2981767081635
 20
132.39654928304566
 10
84.75679341476179
 20
131.57164528727898
 10
85.28343312959267
 20
131.71115835169104
 10
86.27331582094453
 20
133.52723920828902
 10
86.88011875474406
 20
134.1338161514319
 10
87.61156236641811
 20
134.46282945994201
 10
87.41731568493454
 20
135.40287116527253
 10
87.51728650121078
 20
136.00157416366406
 10
87.92603327423107
 20
136.81909456603864
 10
88.77442409178752
 20
136.39486877049538
 10
89.71921535070756
 20
135.5014515336738
 10
89.40535284657503
 20
134.846227695899
 10
89.55171350874579
 20
133.83531565022088
 10
89.39673809855465
 20
133.33633277629573
 10
89.53089150411618
 20
132.78797951509853
 10
88.73261448811054
 20
131.63861091460925
 10
88.57937306426783
 20
130.04056021409505
 10
89.17204741428695
 20
129.92788757947847
 10
90.36694581886938
 20
128.9348611157171
 10
90.92822598168591
 20
126.68954024553688
 10
90.24024870170568
 20
125.78687157008667
 10
89.26731854423247
 20
125.59315545453886
 10
88.99639278558301
 20
124.18168324115045
 10
89.18163780078582
 20
122.96228748752418
 10
89.82556132201675
 20
122.99691666215939
 10
90.35883002894808
 20
124.03863638333834
 10
90.75175820157773
 20
124.43080261911606
 10
91.0825760824096
 20
124.67868552309291
 10
91.69076823359012
 20
124.44642903877836
 10
92.62600104935049
 20
125.37953798735874
 10
92.41070869487628
 20
126.30096188308042
 10
93.34160682692522
 20
127.370195610578
 10
93.35949527375828
 20
127.92398764866965
 10
94.1006731224113
 20
128.4181222496984
 10
94.55491945050986
 20
128.35344031849976
 10
95.07361675924271
 20
128.72735294341825
 10
95.62174850539063
 20
128.82564316675743
 10
96.68177447920539
 20
129.5143568657787
 10
97.48213656229015
 20
129.11418760770619
 10
97.5013002673464
 20
128.33127192875983
 10
96.9251113142253
 20
127.90522402221404
 10
97.48749968011288
 20
127.43049881608268
 10
97.9654718886624
 20
125.14560038546823
 10
98.65342160497897
 20
125.0194461529979
 10
99.65385447098541
 20
125.91054209481722
 10
100.18798302222362
 20
125.8723865929411
 10
101.25685542265603
 20
126.31725861501069
 10
101.91636367969595
 20
126.23351392020565
 10
102.39873929584391
 20
125.88896478087088
 10
102.31770888225209
 20
122.61715899320035
 10
101.85486949027353
 20
121.44630914451055
 10
100.97284454607055
 20
120.92658665553921
 10
100.44685945127327
 20
118.72849639928558
 10
100.58659626722829
 20
118.62051181423607
 10
102.28016480010896
 20
118.68523362579283
 10
102.82085918434906
 20
118.85138421096926
 10
103.53276972527803
 20
119.38070255531537
 10
103.83968179730371
 20
119.48284180842153
 10
104.20176485451172
 20
119.36213699604089
 10
104.69469138486905
 20
118.62274321156157
 10
104.40738842612488
 20
118.03454753178356
 10
104.45333637443194
 20
117.51411251774185
 10
104.11876349450759
 20
116.95055652126001
 10
103.53782634645319
 20
114.9580143381107
 10
103.61620791755547
 20
114.23093755783744
 10
103.8729622626132
 20
114.10597079295596
 10
104.26192460707115
 20
114.2570902413931
 10
104.73809299159083
 20
114.72436670645685
 10
104.95825743513355
 20
115.24440981031928
 10
105.2292747672356
 20
115.40679127347651
 10
105.80924573268835
 20
115.67720050064959
 10
106.43341809868585
 20
115.67720744181642
 10
107.05575935731616
 20
115.46981755947628
 10
107.37380194785246
 20
115.15175675144297
 10
107.32705132639951
 20
114.54564835330957
 10
107.74103171118988
 20
113.1809158318159
 10
108.05368077340904
 20
112.93256370493943
 10
109.29538622375195
 20
112.71889377540175
 10
108.81961024690641
 20
111.40393503747143
 10
108.84793639285476
 20
110.38612731171544
 10
108.11720233357373
 20
108.1093801725772
 10
109.18406722854921
 20
107.49812194969448
 10
108.44213675443999
 20
106.35645812541674
 10
108.56237307967201
 20
105.72271669292576
 10
109.37706447992102
 20
106.0263658709972
 10
109.74260997636112
 20
106.87182267831533
 10
110.41803987272228
 20
107.20956481707914
 10
112.70826574430608
 20
106.48508675571074
 10
113.47160278340945
 20
105.10000361073169
 10
113.65411917302173
 20
105.04074240039485
 10
113.72021874327514
 20
106.07874043061766
 10
115.00798008940828
 20
106.51755473754352
 10
115.69874660446004
 20
106.58371313727211
 10
115.24133764863272
 20
107.91182364729612
 10
115.59542119359041
 20
109.09492489940723
 10
115.8527941606627
 20
109.35441293879123
 10
117.46948573351489
 20
110.64000101265161
 10
118.25126668754977
 20
110.5748618968254
 10
118.8524772280162
 20
109.77285425166113
 10
119.16293143478802
 20
108.94928416372399
 10
119.14795629305475
 20
106.99253825910385
 10
119.47504484383128
 20
106.32556668859587
 10
118.90766135444296
 20
105.73289810152639
 10
118.90102478516728
 20
103.74890044630149
 10
118.55149493956634
 20
103.21425122754034
 10
118.17110467872335
 20
101.48427662062703
 10
118.82428544368011
 20
101.00134198048558
 10
119.18817175118295
 20
100.34642891018058
 10
119.1786462708592
 20
99.84192444219917
 10
119.59727358013697
 20
99.46380284929015
 10
119.90539608749972
 20
98.84767495979528
 10
120.02679862391265
 20
98.24048096192011
 10
119.93217799581055
 20
97.71905557240406
 10
120.2862252108842
 20
96.70657224501339
 10
119.7565881886966
 20
95.84372752244792
 10
118.54470994142311
 20
95.64291830560227
 10
117.39020705295167
 20
96.22022967291491
 10
116.89269981653591
 20
96.82533936323215
 10
116.37192996228639
 20
96.96169479058092
 10
116.02041432000301
 20
97.50135825118521
 10
115.17636977271918
 20
97.66413334057955
 10
114.55356459097732
 20
97.16351153343378
 10
113.8919049028246
 20
97.57162263042034
 10
112.83942424865884
 20
97.76362540939067
 10
112.32725904880391
 20
98.56904672766296
 10
111.36561135028587
 20
98.71122233145407
 10
110.75224166366175
 20
99.23466043015026
 10
110.0497594684361
 20
99.17641632784884
 10
108.86635055857144
 20
98.55868256684494
 10
108.35532366217123
 20
99.07047039257769
 10
107.96180362137362
 20
100.05442109817326
 10
107.77610997680111
 20
100.18206441298804
 10
106.49180012000657
 20
100.19152629308901
 10
104.95766126937315
 20
98.95867180718041
 10
104.13259032256629
 20
98.95868448776972
 10
103.86296090810299
 20
99.767537508691
 10
104.13259032256629
 20
100.57638565250754
 10
104.51188708043149
 20
100.58778087133796
 10
104.60876768655294
 20
100.76081496960695
 10
104.21473072862041
 20
101.38519541432461
 10
102.90784565158295
 20
101.70657130112282
 10
102.41257108899478
 20
101.37650747851796
 10
101.73282069849151
 20
101.37651250493455
 10
100.79145384816727
 20
101.77854012629415
 10
99.11839476758732
 20
100.59022453167965
 10
98.85107954081514
 20
100.16990142003925
 10
99.03644218440903
 20
99.90166193393325
 10
99.11298055786514
 20
99.21094153405888
 10
99.00088775835826
 20
98.95860895112025
 10
98.3324464829129
 20
98.2902197776767
 10
97.87008270281245
 20
98.28642622654063
 10
97.86515331608621
 20
97.68795778216673
 10
97.48274640116477
 20
96.53772089989464
 10
96.95431681822065
 20
96.09963048905063
 10
96.7830410678621
 20
95.07341326612455
 10
96.08512668039721
 20
94.13509856237503
 10
96.21366826923139
 20
93.81981423636061
 10
96.91094180888317
 20
93.29414798482465
 10
96.74982033855537
 20
92.0281044612219
 10
94.81069866884613
 20
89.77427158947923
 10
94.18947071859735
 20
89.85951240780796
 10
93.69053801695372
 20
89.65190010890463
 10
92.99700261173918
 20
89.82543895065673
 10
92.35635721605604
 20
90.30203664725465
 10
91.258284773841
 20
89.13757297288494
 10
90.5583340112157
 20
89.02091997352039
 10
88.99619377263058
 20
89.75264377208178
 10
87.7542740124655
 20
89.32285392265976
 10
87.20404958191324
 20
88.64641096948287
 10
85.54720909944074
 20
88.34039219367538
 10
84.16371469419848
 20
86.78460262782073
 10
83.09161183183748
 20
86.48385058166214
 10
82.6674271910392
 20
85.7666152156083
 10
81.44288577154175
 20
85.51727026635871
 10
80.81453364698508
 20
85.61152090386122
 10
79.94779252314504
 20
86.39496289769009
 10
79.61604573119149
 20
87.50245364478965
 10
79.61600895507974
 20
88.18431087253884
 10
80.30065906734747
 20
88.8689609847988
 10
80.89277167958417
 20
88.87257584649001
 10
81.89667816263736
 20
89.28164151844388
 10
82.15804983022227
 20
89.69421113515484
 10
82.2830241133952
 20
91.24456542517589
 10
83.27367210061028
 20
92.6193176682991
 10
83.77144125729725
 20
92.8751134650016
 10
83.99022681676391
 20
93.22812919604893
 10
84.07481831575849
 20
94.4394519728132
 10
82.84994896416944
 20
95.63104377585519
 10
81.51685294349217
 20
94.4967304913489
 10
80.7547215147426
 20
93.4297973555253
 10
80.50003618472579
 20
93.28422001638924
 10
79.86614900451826
 20
93.304187171472
 10
79.5537461675103
 20
93.40740208210275
 10
78.51198032147845
 20
94.63915146907193
 10
79.49935723170212
 20
95.95746344602382
 10
80.80171332732166
 20
96.09546911058385
 10
81.30039784094363
 20
96.47314060678457
 10
81.95190624615958
 20
96.69014530431653
 10
82.32144401981513
 20
96.63360554257284
 10
83.4365403343715
 20
97.95389776210989
 10
84.8750601862231
 20
99.12203175852002
 10
85.47182747154488
 20
99.3605544141429
 10
86.83722196876093
 20
99.15161262776401
 10
87.0765295769811
 20
99.48881075592382
 10
87.47180670883223
 20
99.66447077177507
 10
88.64090051972936
 20
99.79456702617455
 10
89.58735695878455
 20
99.19751158646417
 10
90.274470706021
 20
99.48341535774601
 10
90.62399209498668
 20
99.90133560146265
 10
90.97072354731226
 20
101.19384890653419
 10
90.52769472758506
 20
102.40459077150071
 10
91.08575693674007
 20
102.96635940001985
 10
91.15579782164569
 20
103.25441177696989
 10
90.91661803862435
 20
103.56994595768637
 10
90.07321039957439
 20
103.53111225443692
 10
88.94523321404205
 20
103.90725984086849
 10
88.41200572179129
 20
104.30032420488662
 10
87.55110220440734
 20
103.92396339426992
 10
87.07941780758267
 20
104.11267129124217
 10
86.7737560110365
 20
104.65646931288748
 10
85.4420051130446
 20
105.06673346692894
 10
85.09724913449507
 20
105.03268503493325
 10
84.20403865439042
 20
103.82325974798896
 10
83.57890375433993
 20
103.41257962281675
 10
82.84574924769198
 20
103.41260214146577
 10
82.31461670347493
 20
104.32746519442965
 10
82.73391377621313
 20
105.58390884570557
 10
83.1274216178724
 20
105.91150662130072
 10
82.46374749511536
 20
106.30265263150753
 10
81.86066669716658
 20
107.06875717923258
 10
81.5085406381471
 20
107.08515538685639
 10
80.51562861182968
 20
106.42429251609667
 10
79.8633319584592
 20
106.42538703206536
 10
79.24484184510139
 20
106.63171884667126
 10
78.6672759973285
 20
107.20906113637372
 10
77.68682268475051
 20
108.60332886473267
 10
76.64561637467926
 20
108.63002717313249
 10
76.37598696021797
 20
109.43888019406755
 10
76.61655917735156
 20
110.1605256352215
 10
77.3707414829647
 20
110.53759781958308
 10
77.73966724108824
 20
110.41466623740159
 10
78.21119661600646
 20
110.95780323759715
 10
80.89785653137513
 20
112.31202180288683
 10
81.49485010770047
 20
112.12043594481376
 10
82.04719048668413
 20
112.23976696300991
 10
82.5307582774038
 20
112.65137881914988
 10
82.73800884578947
 20
113.27307701839455
 10
82.3578612755806
 20
113.69476052200017
 10
82.00887205063589
 20
113.71917821161404
 10
81.02464664789689
 20
113.21119966372164
 10
79.46510958068605
 20
113.20831550209606
 10
77.86777495944916
 20
112.68994519413314
 10
75.80661733277114
 20
113.20989817758893
 10
74.75486478667574
 20
113.2111818436132
 10
74.13905232743161
 20
113.51915067020634
 10
73.7300995371883
 20
113.92807455915262
 10
73.88469495813183
 20
114.5619925160558
 10
73.73449869975812
 20
115.6890320641864
 10
74.61346482932585
 20
116.27615929680636
 10
74.8840151866757
 20
116.6621584164091
 10
74.64719143914438
 20
117.4661735687897
 10
73.72693123853036
 20
119.11022044087507
 10
74.1040034229018
 20
119.86440274650121
 10
74.61543206842201
 20
120.05373573100331
 10
74.94678042170624
 20
120.78976200516314
 10
75.58674836215542
 20
121.3496510350757
 10
75.55396031861288
 20
121.55069228447088
 10
74.73331021559014
 20
121.86368421198108
 10
73.99311869401764
 20
121.66619757611112
 10
72.5584438570843
 20
120.23547281385467
 10
72.38689244140302
 20
119.45145040614969
 10
71.90299636946851
 20
119.08854998752766
 10
70.60940688987506
 20
118.93765665104912
 10
70.02370956129649
 20
119.73890188505106
 10
69.58291415240075
 20
120.02634716000819
 10
69.19165493005703
 20
118.9452186619883
 10
68.84690674440431
 20
118.65819875596375
 10
67.66933778190199
 20
118.40963920922927
 10
67.99924071815079
 20
117.65394556219124
 10
68.03440756010457
 20
116.92348196707398
 10
68.79841229056866
 20
117.07782879857547
 10
69.52627528617536
 20
116.14689113687758
 10
69.64178185857858
 20
115.25220432348407
 10
70.27766551223365
 20
114.66538629478951
 10
70.34912795759419
 20
113.9509862652232
 10
70.22547887761117
 20
113.66128032665908
 10
70.48051508151224
 20
113.47368840483442
 10
70.6480240416212
 20
113.0549149342409
 10
70.62676147811341
 20
112.41751808252751
 10
70.22285543092089
 20
111.86828134332582
 10
70.20514362057342
 20
111.61119893678365
 10
70.68079288809928
 20
110.45691382764988
 10
70.51524241207007
 20
109.79459780211425
 10
70.13303422614477
 20
109.3525369575151
 10
70.54433089852604
 20
108.49162091288919
 10
70.54792654789576
 20
107.95291970318128
 10
70.92343074812813
 20
106.9577180311214
 10
70.9558862870528
 20
106.30472733739197
 10
70.67382811562662
 20
105.81147767107713
 10
70.99270885436512
 20
104.34339785252168
 10
70.62929266447281
 20
102.78348807370404
 10
70.55708265897698
 20
101.35564066970029
 10
70.77102658572227
 20
100.78557114228937
 10
70.4601952886226
 20
100.00856040344067
 10
69.26364605292002
 20
99.61304249448884
 10
68.89143476934264
 20
98.7041749250156
 10
67.08520659563757
 20
98.7550812995974
 10
66.6590106303273
 20
99.09607541906568
 10
66.5299137019974
 20
99.87044335357227
 10
67.06619012945836
 20
100.40670313576251
 10
67.83215491272907
 20
100.47027050137436
 10
67.90755496513515
 20
100.72860289925794
 10
67.59875900600882
 20
101.6639944335206
 10
67.014119115446
 20
102.5566588146744
 10
65.94885210315871
 20
103.10717218504689
 10
65.41970459013822
 20
104.1631939312243
 10
64.85448590899276
 20
104.73352479879995
 10
65.02415891556431
 20
106.98456648756454
 10
65.39301418302392
 20
107.54241839212936
 10
65.4619329041463
 20
108.05677080484428
 10
65.23287954839955
 20
108.11826943950327
 10
64.068608994174
 20
107.76624648776871
 10
63.394710387809184
 20
108.21555586814216
 10
63.07290357042692
 20
108.85908048991318
 10
62.848727549281456
 20
110.29852098044995
 10
61.99713983269533
 20
111.14967034164549
 10
61.40588613685137
 20
111.17513430511069
 10
60.024733159158004
 20
113.38989450834603
 10
59.837734679132765
 20
113.38088602195502
 10
59.127069605220605
 20
112.65897814864952
 10
58.40415104973507
 20
112.8999118114641
 10
57.097858201550665
 20
113.847283207341
 10
56.57371612994476
 20
115.54709418837179
 10
56.695990649575215
 20
116.04876580466242
 10
56.602212618645474
 20
116.44812694295018
 10
56.31393709863955
 20
116.95213067714916
 10
55.792083884219124
 20
117.05800074320696
 10
55.56488753836178
 20
117.51238710314985
 10
55.62464979839722
 20
118.4364819347504
 10
55.35530814042605
 20
118.66438830016722
 10
54.73074328878215
 20
118.87194344844323
 10
54.56912046970517
 20
118.76758980782989
 10
54.46473031360361
 20
118.05503429998693
 10
54.788639181544674
 20
116.54212494734416
 10
54.13835058412958
 20
115.11170665265541
 10
54.88861871317972
 20
114.65243660152791
 10
54.445784489478214
 20
113.91248689335053
 10
54.07701271059425
 20
112.82789440668863
 10
53.71765320618934
 20
112.39224570012306
 10
54.55930378610522
 20
111.0752360311839
 10
54.730933126885766
 20
110.28507728593205
 10
55.058622756256575
 20
109.94789579157454
 10
54.65174104920069
 20
109.42013579451717
 10
54.726266004407634
 20
108.85549638051569
 10
55.59328131677631
 20
107.97102649777854
 10
55.220328287703374
 20
107.22522467211549
 10
54.71551125739964
 20
106.71039898228058
 10
54.53579570049643
 20
106.17227880968883
 10
54.679455120777355
 20
106.06713319781375
 10
55.69907300407637
 20
106.17558404931037
 10
56.049220307041935
 20
104.81083902122035
 10
55.56510365683704
 20
103.84254192707292
 10
54.01286437170933
 20
105.40115648933546
 10
53.83673945729551
 20
105.42018364597301
 10
53.430730804206604
 20
104.81417272926686
 10
54.37993204151318
 20
103.83967935872623
 10
53.446893787565585
 20
102.90664110478922
 10
52.894333049913485
 20
103.3468243060068
 10
51.91983967937189
 20
102.397623068726
 10
49.68554136163929
 20
104.79198753115485
 10
49.82871851700579
 20
105.39446112012772
 10
49.58398160295031
 20
106.33612097945931
 10
49.54971910308223
 20
107.31156850078142
 10
49.259062906451845
 20
107.59411183694917
 10
49.008584864405286
 20
107.60536469765593
 10
48.27457570187919
 20
106.89665014350854
 10
47.76701139884594
 20
107.91182364729612
 10
48.01968445814462
 20
108.47413094966933
 10
47.64772057266096
 20
109.3021142381723
 10
47.01233388692994
 20
109.18286220723603
 10
46.638353092916674
 20
108.8141731268914
 10
46.62046399081029
 20
107.27861497916929
 10
46.13690280465604
 20
106.79072700703406
 10
46.11144595474302
 20
106.26057890701439
 10
45.62031702076406
 20
105.76006491046263
 10
45.60242080510501
 20
105.18143723905376
 10
44.887345706755134
 20
104.8238997276554
 10
44.30630091972402
 20
104.7273881095458
 10
43.726902542595816
 20
104.72760217741678
 10
42.47228716371005
 20
105.13283203587362
 10
41.76101976467572
 20
104.68139411945978
 10
40.846897015653774
 20
105.21122848107329
 10
40.740373938809334
 20
106.01022896971605
 10
41.35937047706416
 20
106.48882181097919
 10
41.294465888309716
 20
106.92866864051557
 10
41.51598982033021
 20
107.3717891794084
 10
42.10316213927081
 20
107.79679354598242
 10
41.79368914074398
 20
108.30808569714092
 10
41.694497115957354
 20
108.90197612041501
 10
41.75190204535453
 20
110.02320117710403
 10
42.021758453842374
 20
110.69738187143267
 10
43.101168208286374
 20
111.08187491473724
 10
42.96577392738894
 20
112.73896071791751
 10
42.051090995255656
 20
113.27449350813227
 10
41.59055399554952
 20
113.8885867968539
 10
41.44832166684162
 20
114.39509145006807
 10
40.065132132496274
 20
115.77822948961982
 10
39.22705220049371
 20
115.98787244371577
 10
38.94786543867781
 20
115.77962734413092
 10
39.091687346309435
 20
115.15875945676756
 10
39.72440680038039
 20
114.02004008015486
 10
39.4716277510699
 20
113.63351677988653
 10
39.353287904347305
 20
112.98884035940357
 10
39.47674440661019
 20
111.59287760857923
 10
39.74873971615475
 20
111.03671109325641
 10
39.74872050383407
 20
110.33272319558688
 10
38.88739584842985
 20
109.45559174265186
 10
39.028396600852474
 20
108.84888229858224
 10
38.33831811900902
 20
108.15876901890415
 10
37.72565972856285
 20
107.95452551646204
 10
36.569168459156224
 20
107.95602862439279
 10
36.12940091396596
 20
108.17712994051105
 10
35.36821923495113
 20
109.13811861677583
 10
34.728913045452046
 20
109.1211659451656
 10
34.10420841683836
 20
108.50583950157548
 10
33.178092183181285
 20
109.43061633549809
 10
33.002316085371675
 20
109.44478791697108
 10
32.538796047363874
 20
110.37217255704482
 10
32.41043220551974
 20
111.89925635483269
 10
31.428968206937373
 20
112.87781337596019
 10
31.421093409885216
 20
113.48543126191223
 10
31.16254387778961
 20
113.83218934777095
 10
30.59487293883643
 20
112.79636649650496
 10
30.180041673937616
 20
112.42733110534287
 10
30.16221382993052
 20
111.89318902344895
 10
29.68350668676421
 20
111.17512653628553
 10
28.83377722904939
 20
111.106489745861
 10
28.99074650669643
 20
110.45691138909726
 10
28.872329145524336
 20
110.04236102934753
 10
29.54869512539569
 20
109.06663639320477
 10
29.716464422246116
 20
109.04792501061019
 10
30.03206412826131
 20
109.35387993728527
 10
31.326297023266026
 20
108.05963970104064
 10
31.45766034735199
 20
107.40280561122842
 10
31.317812462973187
 20
106.6050086193315
 10
32.200177274524705
 20
105.97840544148107
 10
31.959922005289346
 20
105.42447747369485
 10
32.49215649040117
 20
104.8577154308605
 10
31.559118236486626
 20
103.92467717694382
 10
30.27900949986911
 20
105.20476805333462
 10
30.04061243406573
 20
105.9200512102396
 10
30.10550031512833
 20
106.15715267290052
 10
29.495330493568492
 20
106.618760029449
 10
28.595788932462465
 20
105.83043814067932
 10
27.395147671448804
 20
105.76885314274614
 10
26.79159595660396
 20
106.1987584696334
 10
25.473475431783825
 20
105.68048868784717
 10
26.16502868324488
 20
104.7862755847622
 10
27.546176798393056
 20
105.47704885183236
 10
28.165503183772643
 20
104.8577154308605
 10
27.546176798393056
 20
104.23838200988862
 10
26.58210639106216
 20
104.71706873117733
 10
26.398232786756758
 20
104.61452819693599
 10
26.918539251550374
 20
103.98373567566428
 10
27.018035906327015
 20
103.46485409574798
 10
27.603107178136693
 20
103.27444893933404
 10
29.053176606659363
 20
102.11944313577627
 10
29.75715228759563
 20
102.10344490609094
 10
29.95935000232893
 20
101.29458917835645
 10
29.76754301272954
 20
100.47375714849292
 10
30.193188501132216
 20
99.81183477736255
 10
29.965671801731
 20
99.12869282860346
 10
29.683506686769327
 20
98.70418465252136
 10
28.6496660202161
 20
98.68580267988206
 10
28.37269258711016
 20
98.2352479955753
 10
28.54734258342196
 20
98.09538663354263
 10
29.675113103395795
 20
98.4001082453725
 10
30.23294445344019
 20
97.27293119659494
 10
30.198464965360586
 20
96.5831053446466
 10
29.861700892405818
 20
96.1979023038488
 10
30.17061301775772
 20
95.81120044827239
 10
29.95124419304103
 20
94.61767755950358
 10
29.948634187966043
 20
93.51450025345488
 10
30.898824439455915
 20
92.74457484198848
 10
31.377483207271933
 20
93.45030060119895
 10
32.138922788483036
 20
93.45014080167216
 10
33.38279573230112
 20
92.8283810679469
 10
33.40388415503236
 20
92.24795112160712
 10
33.99814239966026
 20
91.64455854280347
 10
34.18754395179142
 20
91.625904118136
 10
34.61322645290563
 20
92.04726671083343
 10
36.17581227954549
 20
90.20921766074113
 10
36.24231794119096
 20
89.54397176012073
 10
35.99494189949692
 20
88.92555362749758
 10
35.802172810096565
 20
88.68456121461217
 10
35.13446403999829
 20
88.51767051641117
 10
34.44543838210531
 20
88.6324796360947
 10
33.959492303389545
 20
89.17693930147574
 10
33.44189239130954
 20
89.31642091458708
 10
32.78629659091319
 20
89.97036702801392
 10
32.719507879637305
 20
90.27993086268965
 10
32.39277897536353
 20
90.17281307960857
 10
33.11998804788117
 20
88.66289680896145
 10
33.16543346405685
 20
87.55438232283157
 10
33.9600147837119
 20
86.59226898273921
 10
33.57322548392553
 20
85.81876228096326
 10
32.880042641821426
 20
85.30349169406753
 10
32.8800263220903
 20
84.6040307744278
 10
33.18945269684846
 20
84.11780015737483
 10
33.397590414808185
 20
83.09893346797183
 10
34.081118213190415
 20
82.56131596692026
 10
34.54244722338309
 20
82.76076376424821
 10
35.246435121030494
 20
82.76074455192756
 10
36.05528274291643
 20
81.95190380762097
 10
35.5496225559753
 20
81.38386773546954
 10
35.81655875293835
 20
81.23368333015844
 10
36.20353010367609
 20
80.45973076476429
 10
35.931085233300394
 20
78.26458692305252
 10
34.76104250665037
 20
77.09454466009466
 10
34.10420841683837
 20
76.96318133600957
 10
33.39260616580071
 20
77.10550802121904
 10
32.57863922823893
 20
78.72533675469529
 10
31.312737844570094
 20
79.7382507242199
 10
30.10321868734923
 20
81.55916673931443
 10
31.077785468359913
 20
82.06645002615987
 10
30.890027293897376
 20
82.61249253791625
 10
29.90787349619821
 20
82.67011717151443
 10
29.407359499647626
 20
83.16124610548782
 10
28.887160212820923
 20
83.18156169041043
 10
28.258629628125128
 20
83.81039501279409
 10
27.870556303041475
 20
84.90633228148097
 10
27.376658562987362
 20
85.45582720963996
 10
27.64601526230258
 20
86.16801160342901
 10
26.761848839600585
 20
86.23323358595877
 10
26.3992050262832
 20
87.09500093587621
 10
26.143246037573462
 20
87.03074979189219
 10
25.98533951878948
 20
86.38900981531397
 10
25.502851735214087
 20
85.88119469470733
 10
25.278912736242727
 20
84.95272275774828
 10
25.793927662988306
 20
83.39798049498518
 10
25.062465542925068
 20
82.6699398797552
 10
23.689741499992746
 20
82.67010218808915
 10
23.519459032761485
 20
83.89623399499611
 10
22.236332992609384
 20
83.94266160642415
 10
21.8982204707303
 20
84.44951195327201
 10
22.151629317627442
 20
85.21864186769255
 10
22.733352786755695
 20
85.51354514049194
 10
23.001451506990332
 20
85.86811218477493
 10
22.720308159677792
 20
86.28944406909393
 10
22.318222656008434
 20
86.48500290643219
 10
20.99873306716403
 20
86.56099341951942
 10
20.786409669842115
 20
86.35039156396746
 10
20.491754869449927
 20
85.46898159396893
 10
19.60532301490595
 20
86.35548519314652
 10
19.262001378807398
 20
87.04208416834186
 10
19.320629504356422
 20
87.4254316592242
 10
19.143543214030156
 20
87.43271529796749
 10
18.671220129730433
 20
86.96461625038789
 10
18.36427907922216
 20
88.19239149891827
 10
18.76600378373586
 20
88.46020641803857
 10
19.963345426028717
 20
88.26081502444451
 10
19.78777524810737
 20
87.93039269388584
 10
20.140653912391087
 20
87.89327406241651
 10
20.566867465480104
 20
88.67617506301055
 10
20.43343556881832
 20
89.58717434869489
 10
20.586894309494518
 20
90.2008236227894
 10
21.234701198095358
 20
91.13964813600352
 10
21.955439102035225
 20
91.2598056164406
 10
22.536406368081394
 20
90.87552289111926
 10
23.249876527823254
 20
90.68301820264753
 10
23.520811455836455
 20
90.98514998486526
 10
23.059988651953013
 20
91.79821609706649
 10
22.180686514957944
 20
91.8324319827616
 10
21.70672188402887
 20
92.87968714381715
 10
20.988861144861875
 20
93.14739668709015
 10
20.731893768294945
 20
92.99921142271265
 10
20.79702535302082
 20
92.64128256513051
 10
20.523168647817315
 20
91.54577857502987
 10
19.590489589625914
 20
92.41364377643117
 10
18.90444656418484
 20
92.08693162653485
 10
17.859441738764783
 20
92.23681755976556
 10
17.175579799912086
 20
91.5771980268534
 10
16.82087673978306
 20
92.64128500368288
 10
17.17557979991209
 20
93.70536710340765
 10
17.61852475935184
 20
93.39360575635801
 10
18.568992675723788
 20
94.34907670961178
 10
18.563982005373735
 20
95.01817476197517
 10
17.90298900446277
 20
95.69799455614296
 10
18.79546409431618
 20
96.59022408733921
 10
19.435466785422676
 20
96.17149965629001
 10
20.137841483782324
 20
96.13373106588404
 10
20.481850561983283
 20
96.86591430977165
 10
21.231864632613384
 20
97.66948875476804
 10
21.81413327494006
 20
97.77554296635962
 10
22.041145733683262
 20
98.0355646412045
 10
21.824078710658956
 20
98.17690760254705
 10
21.311093964114924
 20
98.09490380240594
 10
20.063325217460147
 20
99.13164919078426
 10
20.035441884732162
 20
100.17349253809438
 10
19.11919278452405
 20
100.8165910227257
 10
18.612855643867793
 20
101.59802280215499
 10
17.85402598263711
 20
102.35922614233921
 10
19.11025190567476
 20
103.06720156162064
 10
19.234431103766
 20
103.27773388825973
 10
18.7020151905433
 20
104.4362186704474
 10
17.36798581707801
 20
104.22259983766627
 10
16.250373913963255
 20
103.62353676769598
 10
15.614978629621024
 20
104.25892008133505
 10
15.773123003773486
 20
104.87444514049265
 10
15.60143718802564
 20
105.89043441698136
 10
15.776635255705123
 20
106.59127488642282
 10
16.1052656106306
 20
106.76452057873415
 10
16.943025011190162
 20
107.71906116281393
 10
16.31054205113091
 20
108.21555586813973
 10
15.964867832488425
 20
108.90685440625393
 10
16.15738796446359
 20
109.49584599854265
 10
16.15738796446359
 20
110.39994558462209
 10
16.019068230644645
 20
110.8075390165299
 10
15.59405565467453
 20
111.23132783663631
 10
15.300833524028551
 20
111.3200128811908
 10
14.864431329515751
 20
110.8993191796077
 10
13.976833818695027
 20
111.07452708498708
 10
13.788799923785286
 20
110.89336775872509
 10
13.73106388654259
 20
110.38160844212406
 10
13.195123580494673
 20
109.30262871853046
 10
13.282532163703896
 20
107.99039457846456
 10
13.534310858447254
 20
107.47358484075237
 10
13.641487710048976
 20
106.38113950977065
 10
13.418587797572606
 20
105.26750429088524
 10
13.196868909854581
 20
105.17211616370241
 10
13.34478432278451
 20
104.79851258037806
 10
12.78465375227638
 20
104.23838200989005
 10
11.710277398009396
 20
104.77557770587701
 10
12.722793276654746
 20
105.79241596805474
 10
12.609764309258354
 20
106.06705772873136
 10
10.846511312276299
 20
106.08188733113877
 10
10.2268399081887
 20
105.49819615969011
 10
8.802762343618564
 20
106.24759620335033
 10
8.619840176443812
 20
107.81033480921693
 10
8.33554805262823
 20
108.38596061799574
 10
8.83512811536171
 20
109.99144765480582
 10
8.523160337575401
 20
110.90596807286269
 10
8.460060916452655
 20
112.12403976421032
 10
8.278884148941168
 20
112.22148068658582
 10
7.576067690610229
 20
111.87365255097912
 10
6.945290772638091
 20
112.66628955076875
 10
6.493043836872552
 20
112.70218129977722
 10
5.808393724625479
 20
113.38683141202584
 10
5.80821643286625
 20
115.10541856541796
 10
6.431938241052754
 20
116.35592781914308
 10
7.047681573854213
 20
116.3586844683149
 10
8.317592155973859
 20
116.74609199290013
 10
8.354862013224835
 20
117.1480794898467
 10
8.952897625927067
 20
118.09135886906122
 10
8.871752984820148
 20
118.42232708663784
 10
8.562143882116482
 20
118.59348674618124
 10
6.788928000956934
 20
118.5549891318433
 10
6.136814589746028
 20
118.18791304679291
 10
5.699591042933733
 20
118.21919377339263
 10
5.390020561204927
 20
116.49434374458676
 10
4.804651462239986
 20
115.32360160214306
 10
4.072144288577711
 20
114.95739216037197
 10
3.422789085516807
 20
115.15743776418769
 10
3.028222744934477
 20
114.00276863364624
 10
3.1207209005588625
 20
113.40811376065125
 10
2.3360721442891945
 20
112.72388871308083
 10
2.930905450066965
 20
112.02217117620614
 10
2.8387541763834396
 20
111.60868418618948
 10
3.607425959737053
 20
111.80574695136484
 10
4.7431341067963775
 20
111.22800059220577
 10
5.3900030689724865
 20
110.58110445971256
 10
5.390003068972484
 20
109.82370515951845
 10
4.979176252284648
 20
109.33813748368462
 10
5.333802423894311
 20
108.60634514693231
 10
5.964022799734177
 20
107.97102649777958
 10
5.64533382410631
 20
107.31046452421248
 10
5.650456209554536
 20
106.95882601896304
 10
5.964022799734178
 20
106.32556668859485
 10
5.765739997644951
 20
106.01306123409792
 10
6.293677907341052
 20
105.06564956775127
 10
7.259851561696766
 20
105.64647964656129
 10
7.946756291895504
 20
103.86827751561168
 10
7.717056728754586
 20
102.66729787679466
 10
9.198215561646071
 20
102.82476254578368
 10
9.811668270116686
 20
102.57938846561191
 10
10.414801330908478
 20
102.17521906744318
 10
10.576942417930969
 20
101.8504836240618
 10
10.52350497955518
 20
101.17683212892088
 10
11.382053732016896
 20
100.87070885422189
 10
11.778386494082106
 20
100.34228100590944
 10
11.42188593119879
 20
99.28953346587636
 10
10.555291791267042
 20
98.85625613536013
 10
10.142002460211808
 20
99.68279379953177
 10
10.075721741814114
 20
100.34560692113197
 10
10.30419012181648
 20
100.73238535168252
 10
10.250746893209413
 20
100.90432248233306
 10
9.23310387883131
 20
100.48572922172657
 10
8.01090709485901
 20
100.61892153591585
 10
8.019915581250446
 20
100.43192305588857
 10
8.698620303419457
 20
99.8917257021958
 10
8.445010868153945
 20
97.90315645787057
 10
8.953306613222042
 20
97.34302666517935
 10
8.953129321462812
 20
96.58923622164244
 10
8.144288577154773
 20
95.78038859978228
 10
5.299375688558209
 20
98.62530836594337
 10
5.153366256081029
 20
99.6398772787038
 10
4.334781932733849
 20
100.60799020317319
 10
3.9618289036595793
 20
101.35379202883888
 10
5.686885876302499
 20
102.97304354126587
 10
5.620848749969433
 20
103.97444567985058
 10
5.459406124941697
 20
104.05091040331855
 10
4.4782540412160206
 20
103.77306667460041
 10
4.026830598360858
 20
104.22450676272815
 10
4.001373748449808
 20
105.26367289882161
 10
2.7542848529285564
 20
106.22430894451132
 10
2.306319720564677
 20
109.4631112177724
 10
1.8117568882283317
 20
109.71772459751865
 10
1.5862569587030984
 20
109.58307138864419
 10
-0.1111930686008242
 20
110.38207409237542
  0
LWPOLYLINE
  5
35
330
17
100
AcDbEntity
  8
contours
100
AcDbPolyline
 90
10
 70
1
 10
79.90208860921027
 20
93.96625689172447
 10
80.37691658683956
 20
93.93031975880005
 10
81.04269349899306
 20
94.87109918427669
 10
82.12546015479525
 20
95.78518785521969
 10
82.11787530919399
 20
95.98434024031089
 10
81.60153648168378
 20
95.94044935424077
 10
81.0434014007911
 20
95.50083277338554
 10
79.80861536250491
 20
95.41750804673737
 10
79.32758364820188
 20
94.71991211377237
 10
79.90208860921027
 20
93.96625689172447
  0
LWPOLYLINE
  5
36
330
17
100
AcDbEntity
  8
contours
100
AcDbPolyline
 90
50
 70
1
 10
28.14132683868861
 20
85.63006016144254
 10
28.740680428198747
 20
84.18745552883978
 10
29.10526516655084
 20
83.81300634783184
 10
29.647236724257148
 20
83.77878062407693
 10
30.174917529743848
 20
83.27639882939559
 10
31.235396428268217
 20
83.2697554744447
 10
31.71919114298104
 20
82.3093511494573
 10
32.06796384395305
 20
82.25173137902156
 10
32.06796384395305
 20
81.65207623621514
 10
31.598266787031015
 20
81.6360678862693
 10
31.105932596678567
 20
81.38657683343293
 10
31.06579372610016
 20
81.19799438663458
 10
31.822886706109205
 20
80.07632726241602
 10
33.078043718553985
 20
79.07537653029392
 10
33.79124647478376
 20
77.66475422387764
 10
34.48655022512008
 20
77.66934717592189
 10
35.31984445493616
 20
78.51777114332855
 10
35.55374630075954
 20
80.41122868583662
 10
35.43832569077071
 20
80.60733688076724
 10
35.2379310815171
 20
80.61615592512116
 10
34.31338817204812
 20
79.7009760552345
 10
34.29516957384552
 20
81.80466456517367
 10
33.417609441661064
 20
82.21454145177249
 10
32.78634963644361
 20
82.84574924769129
 10
32.778474839391436
 20
83.45336713366193
 10
32.277331928252316
 20
84.40621507555335
 10
32.27733094510246
 20
85.67549065468937
 10
33.087325274153635
 20
86.21667003383159
 10
33.19438661195398
 20
86.4753221254988
 10
32.5199179695006
 20
87.50422579476852
 10
32.61006524956106
 20
88.06837350435167
 10
32.42578369252229
 20
88.70837966573387
 10
31.582990360339014
 20
88.77831964938193
 10
31.96933099420155
 20
89.5948983912633
 10
31.44343164393615
 20
90.28749861049593
 10
31.13043028628786
 20
90.26127643802083
 10
30.532953538198186
 20
89.40959340958366
 10
29.823046092194048
 20
88.8000410176893
 10
29.929503390605877
 20
88.36657919011725
 10
31.535246112590062
 20
88.35995690372161
 10
31.1936051100007
 20
87.6518424762309
 10
31.567111680128924
 20
86.50931579520172
 10
31.253089128000596
 20
85.7242267593078
 10
30.378482290796626
 20
85.72711521517384
 10
29.901914426572652
 20
86.4422872198353
 10
29.963824347513903
 20
87.51843878146809
 10
29.541443009934333
 20
88.12650064231421
 10
28.816428090163352
 20
87.66752275533183
 10
28.804832728280815
 20
86.40887550019869
 10
28.14132683868861
 20
85.63006016144254
  0
LWPOLYLINE
  5
37
330
17
100
AcDbEntity
  8
contours
100
AcDbPolyline
 90
11
 70
1
 10
29.867103632995658
 20
135.9548636123689
 10
29.943906101872113
 20
135.70167980313124
 10
30.741375066679087
 20
135.79591720137117
 10
31.25911823648257
 20
137.54110032935628
 10
31.248389740114778
 20
137.91293429539326
 10
30.84094660621588
 20
138.65481441284163
 10
30.133202963714282
 20
138.37524399992006
 10
30.331879722950795
 20
138.12918400342156
 10
30.332925996802036
 20
137.49183798250175
 10
30.53253385849883
 20
136.8815519961849
 10
29.867103632995658
 20
135.9548636123689
  0
LWPOLYLINE
  5
38
330
17
100
AcDbEntity
  8
contours
100
AcDbPolyline
 90
12
 70
1
 10
9.243302070163114
 20
146.76318656548648
 10
8.790027731763473
 20
146.78987208059084
 10
8.816172352771652
 20
146.60367947633267
 10
9.719400445532003
 20
146.15326910705403
 10
11.099048831774484
 20
146.27244432394588
 10
11.24004677116177
 20
146.47668310246746
 10
10.655563054314854
 20
147.52147192851305
 10
10.458382804758443
 20
148.37528700858797
 10
10.203450925091262
 20
148.53287240983764
 10
9.974371556440001
 20
148.38514269123755
 10
9.971165393616813
 20
147.49103982886118
 10
9.243302070163114
 20
146.76318656548648
  0
LWPOLYLINE
  5
39
330
17
100
AcDbEntity
  8
contours
100
AcDbPolyline
 90
31
 70
1
 10
4.816832732800031
 20
100.98505071922551
 10
5.701296354932273
 20
99.90044638832977
 10
5.933246828793456
 20
98.84073610844294
 10
8.038222559976672
 20
96.73473890352533
 10
8.239447569779434
 20
96.72485335269887
 10
8.341888543098765
 20
97.09345130157105
 10
7.844465868914003
 20
97.60727229379182
 10
7.844448376681549
 20
98.82028551393225
 10
8.095915387239307
 20
99.61040251537776
 10
7.335454946398027
 20
100.09125687833189
 10
7.335454946398027
 20
100.97086737016318
 10
8.144288577154773
 20
101.37527317028871
 10
8.718345057040924
 20
101.09133797306788
 10
9.09728620548989
 20
101.09133797306788
 10
9.875988918017494
 20
101.48446572026641
 10
9.905583345287715
 20
101.78853660016348
 10
9.11787510159759
 20
102.20282074517694
 10
8.18118583866475
 20
102.01290489796548
 10
6.641106592826029
 20
102.01278858726128
 10
7.100335451849578
 20
102.93285387024062
 10
7.317008812435952
 20
103.78162158363195
 10
7.0434797317931235
 20
104.57333411375771
 10
6.892735772231614
 20
104.64964533629198
 10
6.239263484243631
 20
103.71810686801338
 10
6.309610182020748
 20
103.18571416509454
 10
6.617062040336726
 20
103.12147085797747
 10
6.637685526726361
 20
102.52552112781676
 10
6.173254876685135
 20
102.51587645579438
 10
5.771657233289943
 20
102.31411017013784
 10
4.749825252441358
 20
101.28959251926878
 10
4.816832732800031
 20
100.98505071922551
  0
LWPOLYLINE
  5
3A
330
17
100
AcDbEntity
  8
contours
100
AcDbPolyline
 90
14
 70
1
 10
2.648382457220362
 20
110.09917155252839
 10
3.3655503163445473
 20
106.56814173683513
 10
4.511310330488452
 20
105.73729313110316
 10
5.201635112540018
 20
106.47111033707549
 10
5.044689378775087
 20
106.82644516203764
 10
5.194733391438287
 20
107.86801317105879
 10
4.84379996882007
 20
108.24326074425072
 10
4.2163379217045165
 20
109.49808060599797
 10
4.764900802575979
 20
110.05095635970038
 10
4.778762290608252
 20
110.32792023943657
 10
4.410941649800302
 20
110.70373293956501
 10
3.463803154505594
 20
111.12480732523946
 10
2.9769617832194766
 20
110.79571118888511
 10
2.648382457220362
 20
110.09917155252839
  0
LWPOLYLINE
  5
3B
330
17
100
AcDbEntity
  8
contours
100
AcDbPolyline
 90
8
 70
1
 10
4.282989424684074
 20
100.25273590229371
 10
4.742286697515892
 20
99.21421732684627
 10
4.23260488314789
 20
98.44967563448712
 10
3.4132233813355977
 20
98.44969325565478
 10
2.905183254068026
 20
99.12706375076851
 10
2.7220835051333134
 20
99.85950059113637
 10
3.503923402029284
 20
100.64137750914524
 10
4.282989424684074
 20
100.25273590229371
  0
LWPOLYLINE
  5
3C
330
17
100
AcDbEntity
  8
contours
100
AcDbPolyline
 90
109
 70
1
 10
93.37566750053519
 20
250.08987815489382
 10
94.5645012612007
 20
251.06454402969845
 10
94.77646730961773
 20
253.039842748267
 10
95.11622700369688
 20
253.7275152969623
 10
95.59833343760813
 20
253.96752582506124
 10
97.12746750655965
 20
254.28438688257592
 10
97.317095112746
 20
253.71550406400414
 10
95.81470138842809
 20
253.40120861399637
 10
95.47018771374569
 20
253.19972924290317
 10
95.12392511357446
 20
250.82080516200128
 10
94.60339801724038
 20
250.19316200464198
 10
93.93844841199994
 20
249.71633731528678
 10
93.9517380981295
 20
249.10656734777274
 10
94.93567067215585
 20
248.17615863263134
 10
95.38807511249416
 20
247.14352524438078
 10
96.86760527157257
 20
246.55918704738696
 10
97.631202878988
 20
246.5405412825593
 10
97.89145269508113
 20
246.91284299200137
 10
97.75474447523739
 20
247.3827679696127
 10
97.98567057128518
 20
248.07544050554532
 10
98.66080551640833
 20
248.58177904099097
 10
99.6325925434358
 20
248.6756720438588
 10
100.74736790195286
 20
249.63498026637026
 10
101.52713329956005
 20
249.11510545450076
 10
102.51412119379498
 20
247.3271848321224
 10
103.44097670756483
 20
246.42393230940746
 10
103.1128164650823
 20
245.7586934095019
 10
103.10816352348482
 20
244.96419077998885
 10
103.4048311085609
 20
244.4213452845665
 10
103.46376016107413
 20
243.92959567756375
 10
103.91337483769178
 20
243.44855610436437
 10
105.01101342033989
 20
243.32686565855997
 10
105.59916693200769
 20
242.5381434453843
 10
106.33266650787317
 20
242.3931174188902
 10
107.72914907899882
 20
242.7182733973015
 10
108.44238249010775
 20
243.23243353584346
 10
108.81087172067582
 20
242.98678616549765
 10
109.36973144378321
 20
241.49166254448232
 10
109.59081038783224
 20
241.2839420370191
 10
112.38157402488207
 20
240.15468308161255
 10
112.67714038746782
 20
240.38457209971725
 10
112.7021812997829
 20
240.88972169417903
 10
113.24375248198268
 20
241.4326294386182
 10
113.76160392407834
 20
242.33176929823514
 10
113.77806551351847
 20
243.71186913244028
 10
112.36738202504837
 20
244.78708642601137
 10
111.52655019531613
 20
245.15533853366622
 10
111.47496829516778
 20
245.92945169189034
 10
112.18197381534547
 20
246.97518638991016
 10
112.37705569964027
 20
248.43622238809613
 10
112.21255990073975
 20
251.0043538785984
 10
111.85158228500312
 20
251.83673546533197
 10
111.40372642784467
 20
252.20482132482962
 10
110.5937203751606
 20
251.6955405862907
 10
108.38748869354366
 20
250.99495096128973
 10
107.35749633040452
 20
251.8198277315557
 10
107.35747442877603
 20
252.54373240771747
 10
107.61110135629343
 20
253.3192884319134
 10
107.19091742772926
 20
253.7878679656443
 10
107.61493764558155
 20
254.2118881834956
 10
108.21164635553338
 20
253.6151725959921
 10
108.21166384776582
 20
252.91117741191533
 10
107.95805745538593
 20
252.1652994411713
 10
108.44686359223401
 20
251.68332163059287
 10
110.30199295906301
 20
252.22506939670743
 10
111.52581936517312
 20
252.9180262111558
 10
112.20589225328384
 20
252.3729805417868
 10
112.77276437107209
 20
251.22651819395875
 10
112.97796043974553
 20
249.44321098395008
 10
112.79281449197983
 20
246.76857332910487
 10
112.11011435185607
 20
245.82220561737805
 10
112.10041063164262
 20
245.60506045502376
 10
114.27195663532636
 20
244.18172477436016
 10
114.3682631893486
 20
242.22811371323428
 10
113.76653359556829
 20
241.10606576284275
 10
113.31971581837081
 20
240.64984446957908
 10
113.30183014216979
 20
240.11608197666268
 10
112.58574106902824
 20
239.51936182798724
 10
111.89087561034765
 20
239.60206402538196
 10
110.89412199455332
 20
240.16947997126329
 10
110.37612166532173
 20
240.21620786035152
 10
109.27370810045674
 20
240.76749310509447
 10
108.88326154400734
 20
241.09277812457577
 10
108.29861734041387
 20
242.29900417098574
 10
106.4128333824176
 20
241.78665105037064
 10
105.15747122076763
 20
242.04611148637716
 10
104.71299931741622
 20
242.77313168625034
 10
104.34135097499427
 20
242.86933734296758
 10
103.72574099883902
 20
242.71856443859863
 10
102.87131350113567
 20
243.69892298747772
 10
102.45581021611741
 20
245.34669873086509
 10
102.6716872992556
 20
246.32091898268584
 10
101.85062460117844
 20
247.22876091163803
 10
101.02874578388008
 20
248.72649344138583
 10
100.7854652600949
 20
248.80867170886836
 10
99.90848778172266
 20
248.13178372173647
 10
99.29494487080099
 20
247.9272444070678
 10
98.83372530770548
 20
247.952698075476
 10
98.52130411631643
 20
247.72644683604958
 10
98.39530835856627
 20
247.37587330381567
 10
98.57127801348528
 20
246.8294477877633
 10
97.8423433988929
 20
245.9458372048588
 10
96.58778411346867
 20
245.99669544976672
 10
96.08687437507557
 20
246.31041550339117
 10
94.98158075408472
 20
246.62306010138025
 10
94.40684000485443
 20
247.87694713905444
 10
93.9816224234242
 20
248.36526961160186
 10
93.37774123358885
 20
248.72913191719812
 10
93.37566750053519
 20
250.08987815489382
  0
LWPOLYLINE
  5
3D
330
17
100
AcDbEntity
  8
contours
100
AcDbPolyline
 90
12
 70
1
 10
94.80055747578835
 20
132.89191065516678
 10
95.53342536796355
 20
133.62479811536284
 10
96.37131661196346
 20
133.9040757236126
 10
96.67391601288698
 20
132.8820086693956
 10
96.57964917218449
 20
131.84859413152225
 10
96.69668350664502
 20
131.353836228551
 10
96.66943327213025
 20
130.7036936298652
 10
96.2703449098172
 20
130.22482405100982
 10
95.44703538559986
 20
130.81319834791032
 10
95.2020087810434
 20
131.3036479934371
 10
95.36335162724154
 20
131.88310550759172
 10
94.80055747578835
 20
132.89191065516678
  0
LWPOLYLINE
  5
3E
330
17
100
AcDbEntity
  8
contours
100
AcDbPolyline
 90
12
 70
1
 10
87.30962909947458
 20
253.44011249857658
 10
87.57806607635179
 20
254.1111930686054
 10
88.13483189901281
 20
253.8884867395287
 10
88.02095469166753
 20
253.5382517167402
 10
88.26149182593133
 20
253.28270675398733
 10
90.25550325643907
 20
254.2397585999676
 10
90.61529634211463
 20
253.76003448571623
 10
90.21760112692303
 20
253.46175978543212
 10
89.68685409126863
 20
253.36554628299083
 10
88.66908411506743
 20
252.68211870096079
 10
87.91602011631716
 20
252.68214562900587
 10
87.30962909947458
 20
253.44011249857658
  0
LWPOLYLINE
  5
3F
330
17
100
AcDbEntity
  8
contours
100
AcDbPolyline
 90
13
 70
1
 10
72.81286070770821
 20
124.70942127623313
 10
72.99876962298443
 20
125.72728248121962
 10
73.59842476579085
 20
125.72728248121962
 10
73.66837384127825
 20
125.3698074898387
 10
74.8709578792745
 20
124.89471506555789
 10
74.87096499282578
 20
124.07621016953466
 10
74.14332968770404
 20
123.51042103314843
 10
74.1074585240798
 20
123.18278578889849
 10
73.88039366047187
 20
123.36391300687124
 10
73.50778295845124
 20
123.1826457613758
 10
73.49619716033163
 20
123.56238917731726
 10
73.0365245299282
 20
124.03843538800425
 10
72.81286070770821
 20
124.70942127623313
  0
LWPOLYLINE
  5
40
330
17
100
AcDbEntity
  8
contours
100
AcDbPolyline
 90
9
 70
1
 10
63.70087342584271
 20
100.3032832429806
 10
64.56431316028338
 20
101.29826968035995
 10
65.36693846087667
 20
101.0307354118334
 10
65.72056299239676
 20
100.32342951584062
 10
65.60911647046079
 20
99.6547790839183
 10
65.38949931712617
 20
99.32497941062208
 10
64.61363820665368
 20
98.78023231257967
 10
64.23033506982432
 20
99.067741497568
 10
63.70087342584271
 20
100.3032832429806
  0
LWPOLYLINE
  5
41
330
17
100
AcDbEntity
  8
contours
100
AcDbPolyline
 90
105
 70
1
 10
41.62448134626299
 20
0.04257271738716857
 10
41.98642826551721
 20
1.4345168723323307
 10
43.346932482849105
 20
2.793445576319729
 10
46.34400463888076
 20
3.478112765462733
 10
46.9453883871772
 20
3.275731309745453
 10
47.788318297528065
 20
3.2396361679427117
 10
47.82044577949931
 20
4.112805065011508
 10
48.25790814850977
 20
5.097904403290277
 10
47.54417241675938
 20
7.101108095808694
 10
47.812040418045704
 20
9.246169463776662
 10
48.09923188633725
 20
9.931917767026382
 10
48.73227943812494
 20
10.459424469692921
 10
49.38927695959723
 20
10.59083023312832
 10
49.917938140550575
 20
10.452088760972394
 10
50.84048536845328
 20
10.909145356467596
 10
51.354268241156994
 20
11.714570746667865
 10
51.559158384164924
 20
13.371818649602258
 10
52.197539342156524
 20
13.945648662859137
 10
52.89604730710691
 20
15.010299156370333
 10
54.425399041408525
 20
15.760244631296672
 10
55.56073179487323
 20
15.657023103777853
 10
56.637297220225946
 20
15.22499524204877
 10
58.16200587018869
 20
14.217140313118461
 10
59.64853560761445
 20
13.960227268116505
 10
61.25694199160672
 20
13.298259037239028
 10
61.61095724823931
 20
12.899916481184409
 10
62.13632645632678
 20
11.787231249411608
 10
62.303216994399264
 20
10.135070649527803
 10
61.8128499124725
 20
9.065403013637592
 10
61.723070193817556
 20
8.190527143333348
 10
62.49347546006741
 20
6.293218888478504
 10
63.323365287726304
 20
5.125664831600507
 10
64.34333179811439
 20
4.517241108214047
 10
64.57950330287274
 20
4.179908730960117
 10
64.63972939671677
 20
2.9710546750383258
 10
64.34845708517383
 20
2.4856295922739884
 10
63.13358734558067
 20
1.9776936083694714
 10
62.50458719885101
 20
2.1349905018788116
 10
61.90724112109783
 20
2.4336565266149517
 10
60.90035304627774
 20
3.7992197385529525
 10
60.53897568711443
 20
3.913531368173749
 10
60.2743474906988
 20
3.807319713223266
 10
60.103496123437004
 20
3.4800596291691206
 10
59.65720241697815
 20
1.9031490457206763
 10
59.24389913999518
 20
1.2832675729107756
 10
58.684330608842
 20
1.0561414417773987
 10
58.18135410170857
 20
0.6200281290291033
 10
56.89577171196096
 20
0.11668267032199063
 10
56.451440401809776
 20
0.8542627751197567
 10
56.06346910809592
 20
1.160260654046289
 10
55.75371936596506
 20
0.3557200466039837
 10
55.18607993014711
 20
-0.21188818349560182
 10
54.762059712294814
 20
0.2121320343557214
 10
55.20716210838484
 20
0.6651755074021934
 10
55.57702845660715
 20
1.7178296447231853
 10
55.99198396794489
 20
2.0290869084276446
 10
57.16145998888047
 20
0.9492143719137942
 10
57.85985812870927
 20
1.1604668924196582
 10
58.843708733366796
 20
1.7764809302757396
 10
59.115125071463375
 20
2.1756849251898642
 10
59.85486601035085
 20
4.318617972530328
 10
60.57314873114158
 20
4.557880775255045
 10
61.274577145777464
 20
4.324060843740164
 10
62.28351194448307
 20
2.924841220015736
 10
63.073229080555336
 20
2.6118078131174256
 10
63.91973785049984
 20
2.948593758923421
 10
64.0398797595376
 20
3.5406822229920616
 10
63.938126355496614
 20
4.048635223282681
 10
62.90217377045021
 20
4.666546321129243
 10
62.480668368810825
 20
5.435145239177014
 10
61.992791107974135
 20
5.937033376011345
 10
61.12413329297834
 20
8.087734458256007
 10
61.23900563788639
 20
9.24560766752794
 10
61.690916173629624
 20
10.247177816730867
 10
61.55409602002038
 20
11.627334687973551
 10
61.10777905371747
 20
12.563210811953699
 10
60.88587850853084
 20
12.7960399560625
 10
59.468958962478304
 20
13.376141851458417
 10
58.47933183643533
 20
13.443655261418437
 10
57.897104274406274
 20
13.676365035080577
 10
56.37531621628579
 20
14.670911521780614
 10
55.42829681592376
 20
15.058401796691133
 10
54.50496571827785
 20
15.147140863414261
 10
53.20246266812785
 20
14.487201517932727
 10
52.658254058341804
 20
13.54300505176061
 10
52.12462898611663
 20
13.108125529914822
 10
51.77508262461604
 20
11.02922405646051
 10
51.25695061237026
 20
10.474247410029689
 10
49.88376509652694
 20
9.807739353900747
 10
49.367310753407274
 20
9.96820229777908
 10
49.02215350276468
 20
9.904947837522075
 10
48.609388945330174
 20
9.563278275847045
 10
48.38871108982376
 20
9.05653597624835
 10
48.15410935798781
 20
7.155084873949248
 10
48.94641545487015
 20
5.090180360721871
 10
48.453526330347245
 20
4.0586285627260335
 10
48.51846809507963
 20
3.5404889299872213
 10
48.315295573974694
 20
2.89407977018004
 10
47.95739495206617
 20
2.5361952161689305
 10
46.276978010909076
 20
2.861293532906701
 10
44.32134276967146
 20
2.357252870090871
 10
43.822268336313996
 20
2.3594837731773852
 10
42.51800591765618
 20
1.114152242983789
 10
42.218109651255546
 20
-0.04223132618300166
 10
41.62448134626299
 20
0.04257271738716857
  0
LWPOLYLINE
  5
42
330
17
100
AcDbEntity
  8
contours
100
AcDbPolyline
 90
9
 70
1
 10
59.22308550912525
 20
109.53084327651618
 10
59.939937624464356
 20
110.24771849982315
 10
61.267460556535205
 20
110.24771138627185
 10
61.63651526724185
 20
109.50965698503374
 10
61.636513547153605
 20
108.85907320350248
 10
61.29479417229622
 20
108.17567741381512
 10
59.93076950463894
 20
107.72099329180011
 10
59.58623239579958
 20
108.29639695415786
 10
59.22308550912525
 20
109.53084327651618
  0
LWPOLYLINE
  5
43
330
17
100
AcDbEntity
  8
contours
100
AcDbPolyline
 90
28
 70
1
 10
50.88080362045066
 20
98.74949899800177
 10
52.17827631775561
 20
100.7144507171099
 10
52.1033878074044
 20
101.39313353732419
 10
52.81368511944142
 20
102.10342992266564
 10
53.51768030350044
 20
102.1034474148981
 10
54.17940440988258
 20
101.77258733398948
 10
54.71551125739975
 20
100.45994169907492
 10
55.42790177024491
 20
99.60455392968827
 10
56.492873377882844
 20
98.9270799371119
 10
57.04976744419902
 20
97.3820695287009
 10
57.43806065529317
 20
97.56547074915478
 10
58.27900304942576
 20
97.2851568892164
 10
58.42116084827441
 20
96.16998527017853
 10
58.2460273674172
 20
95.52477170659785
 10
57.374981759202846
 20
95.66997110247462
 10
56.648859335879244
 20
96.61184631089351
 10
56.11617460000924
 20
96.15909512742803
 10
55.548004375677046
 20
96.15315100488891
 10
55.044727125313436
 20
95.90456689707314
 10
54.29518237837161
 20
95.90460244921277
 10
53.84276455395216
 20
96.65856062185084
 10
54.16406799118273
 20
98.29744920495088
 10
54.07448137801929
 20
98.92258289185378
 10
53.111778766658354
 20
98.63310886428532
 10
52.57876058661219
 20
97.94067521957382
 10
51.84590848611138
 20
97.94203636192367
 10
51.20553582806072
 20
98.26244585876533
 10
50.88080362045066
 20
98.74949899800177
  0
LWPOLYLINE
  5
44
330
17
100
AcDbEntity
  8
contours
100
AcDbPolyline
 90
9
 70
1
 10
54.776347929846914
 20
98.62050540978886
 10
54.48572804238003
 20
96.81151548394793
 10
54.645810708009805
 20
96.52387883162118
 10
55.86299037972783
 20
96.77033590579268
 10
56.390457933346866
 20
97.291710128977
 10
56.2171012854221
 20
98.1354592508574
 10
55.792504391005274
 20
98.76833760787964
 10
55.0896344883351
 20
98.94080522372239
 10
54.776347929846914
 20
98.62050540978886
  0
LWPOLYLINE
  5
45
330
17
100
AcDbEntity
  8
contours
100
AcDbPolyline
 90
11
 70
1
 10
51.68868724705613
 20
98.87997373037739
 10
51.733389992079545
 20
98.66994906067629
 10
52.2494876995818
 20
98.5475897286478
 10
52.77008768070205
 20
99.19517567453353
 10
54.45350336072824
 20
99.67237607751419
 10
53.710981379508944
 20
101.33332668243696
 10
53.10956928352111
 20
101.5028849234257
 10
52.801388674949386
 20
101.24183241933434
 10
52.84214707345138
 20
100.75697298540867
 10
52.68436926691251
 20
100.3625787888798
 10
51.68868724705613
 20
98.87997373037739
  0
LWPOLYLINE
  5
46
330
17
100
AcDbEntity
  8
contours
100
AcDbPolyline
 90
8
 70
1
 10
41.779001607056145
 20
152.32058341764122
 10
42.167519573145974
 20
152.70909132362684
 10
43.47181888134873
 20
152.17442788872864
 10
43.76700279639061
 20
151.7316744567228
 10
43.48264013834353
 20
150.87852416712528
 10
42.03238992177593
 20
150.87852416712528
 10
41.77903838316789
 20
151.63872618987523
 10
41.779001607056145
 20
152.32058341764122
  0
LWPOLYLINE
  5
47
330
17
100
AcDbEntity
  8
contours
100
AcDbPolyline
 90
122
 70
1
 10
16.47388586855401
 20
192.89483035815343
 10
16.705199140597266
 20
193.58882548957124
 10
17.32952531397913
 20
194.15070410987005
 10
17.7334935375418
 20
194.95104524728404
 10
18.524128875533567
 20
194.17154215164376
 10
18.881725094821597
 20
194.0009644978365
 10
19.945461939225435
 20
193.9696874466921
 10
21.041433010974938
 20
193.21855796233677
 10
21.772088958560804
 20
193.23554748168593
 10
22.272602955111374
 20
193.72667641565934
 10
22.80275105512985
 20
193.75213326557204
 10
23.41482965933252
 20
194.35989196133522
 10
24.052841283609062
 20
193.73827177754188
 10
25.067709124267257
 20
193.72672946118797
 10
25.782926514927198
 20
193.00980119233662
 10
25.427692146513415
 20
191.86334014495284
 10
25.498965029435055
 20
190.9603344582198
 10
26.02612951908953
 20
189.68527818099352
 10
26.411193868994125
 20
189.50100416960936
 10
28.889837424044217
 20
191.6906042713731
 10
29.31727199241765
 20
191.70937855143424
 10
29.548096556342745
 20
192.10738235748013
 10
31.29479781044935
 20
193.12100747940488
 10
31.26904814673867
 20
193.85739871466754
 10
30.75774105096623
 20
194.85035757114565
 10
29.929410189790012
 20
194.56735779561006
 10
29.28593004755924
 20
195.53260580247547
 10
29.977843677100466
 20
196.05155634463347
 10
32.00910715562418
 20
195.60706612995045
 10
32.00606632418971
 20
195.4024497080441
 10
32.92468427154749
 20
194.59168203546807
 10
33.35344190679232
 20
193.5849340478376
 10
34.32770100306572
 20
192.8868157908999
 10
34.781424436418945
 20
192.296739437509
 10
35.53673449372199
 20
192.28973181372302
 10
37.14662784510816
 20
193.0680836031212
 10
37.70240721417894
 20
192.8864467119151
 10
38.76498706399114
 20
192.9267686147999
 10
39.75526671792258
 20
192.21000035546544
 10
40.4582236728927
 20
192.19962596300766
 10
40.61404651271664
 20
190.85207568900057
 10
40.4582236728927
 20
190.07291912717596
 10
39.51811058576432
 20
190.07292989629343
 10
39.12292769462208
 20
190.6520700564282
 10
38.98520328778316
 20
190.15663841875983
 10
38.12343593787346
 20
189.79399460545596
 10
38.17519977596791
 20
189.54733135646825
 10
39.07192076150994
 20
188.94834532123048
 10
38.36600386173502
 20
187.19717056593336
 10
37.577700284936505
 20
187.15963098452923
 10
36.17045355005372
 20
188.22188697310264
 10
35.25515580716176
 20
187.55588467378539
 10
34.4479642285061
 20
187.25181541098868
 10
34.83166005051757
 20
186.5190348000245
 10
35.83884528334548
 20
185.89378721120573
 10
36.57089713333159
 20
184.3281883458865
 10
36.53778458775688
 20
183.6655966189491
 10
35.972118260607644
 20
182.9936499685567
 10
34.59277766702862
 20
182.7430683568002
 10
33.90839879669371
 20
182.99973472348492
 10
33.38035801439539
 20
183.77842310954745
 10
32.41570674316253
 20
184.26452905810504
 10
33.736454374768975
 20
184.95229006614423
 10
33.67407790235768
 20
185.16222019087672
 10
33.061301285781724
 20
185.3213993890486
 10
31.28963371440819
 20
185.2117945901406
 10
31.229428199001223
 20
185.0435314467072
 10
31.393126059765624
 20
184.85452451504332
 10
31.135237912333917
 20
184.08087211969766
 10
29.953751620651786
 20
183.38112969778214
 10
29.304370937955873
 20
184.16418286236555
 10
29.477714909764188
 20
186.37138771834086
 10
29.984532234860808
 20
187.84023860115167
 10
30.06541700090053
 20
188.62066301153786
 10
29.91536495093331
 20
188.75273650024548
 10
29.348076488102897
 20
188.4908503753896
 10
29.00589942997799
 20
187.65007437150558
 10
28.56421287052511
 20
187.20832188964138
 10
27.8184110448584
 20
187.58127491870366
 10
27.2874943709673
 20
188.1010029385396
 10
26.998698748776704
 20
188.0936098445711
 10
27.198023442313634
 20
187.1517910964867
 10
28.1218173407148
 20
187.109494992249
 10
28.86983442297366
 20
186.35980405289547
 10
28.173572923082794
 20
185.29069375638093
 10
27.557753177428104
 20
184.9827232096996
 10
27.14800991430486
 20
184.96481632007678
 10
26.965082976340053
 20
184.70347478750801
 10
27.15041474830786
 20
184.2630441384816
 10
28.26851797377622
 20
183.69996839824654
 10
26.42206146611393
 20
183.18925664686878
 10
24.779911985379655
 20
184.00246032963489
 10
24.038877796707833
 20
184.62821223947643
 10
22.976590852764982
 20
183.96468713755021
 10
22.211497359300047
 20
183.96471346342216
 10
21.72727995202212
 20
184.76428764259788
 10
21.078941920350452
 20
185.09726890238585
 10
21.078934806799158
 20
185.91577379838785
 10
21.6808580701477
 20
186.51896926388997
 10
21.680858070145987
 20
186.70928724913816
 10
21.25456688298234
 20
186.76430554827226
 10
20.29665863976449
 20
187.60959196588024
 10
19.18222477618417
 20
187.52783194710105
 10
18.2793356084
 20
188.72150075070792
 10
18.279318116167545
 20
189.42549593476244
 10
18.699580368421145
 20
190.2659883536311
 10
19.930274337984677
 20
189.65728166269483
 10
20.231727854670236
 20
189.66612748895724
 10
20.460950233595653
 20
189.87920227826356
 10
20.247351058998355
 20
190.76549542960714
 10
19.628210820591296
 20
191.1672924255358
 10
19.143205793811767
 20
191.9186382090786
 10
18.825943292099304
 20
192.05550333888274
 10
18.32464929859741
 20
191.81911560726846
 10
17.985524036812542
 20
191.91523291715967
 10
18.115453642894916
 20
190.79098461462735
 10
17.746598375416863
 20
190.23313271007817
 10
17.437646653030153
 20
189.30866095270238
 10
16.49777248213539
 20
190.248554858919
 10
16.497754989902937
 20
190.95255004298508
 10
16.953298930071234
 20
191.90752364176913
 10
16.47388586855401
 20
192.89483035815343
  0
LWPOLYLINE
  5
48
330
17
100
AcDbEntity
  8
contours
100
AcDbPolyline
 90
69
 70
1
 10
26.952873445222586
 20
189.15987190155
 10
26.966633041528567
 20
188.93557084445195
 10
28.438825182111145
 20
187.9797162124057
 10
28.708261225327348
 20
188.4017117905161
 10
28.714200484704097
 20
189.14551895416832
 10
29.407359499649868
 20
189.1634031931129
 10
30.03206412826131
 20
189.77872963668582
 10
30.905906567268673
 20
188.90489423324362
 10
30.592339977065414
 20
188.27163490287572
 10
30.49367365555684
 20
187.24612716584218
 10
30.083321941016866
 20
186.2355627585941
 10
30.093444578382485
 20
185.51696181597396
 10
30.979320970873204
 20
185.83691606885665
 10
33.688948913177185
 20
185.82539886953492
 10
34.40402401152785
 20
185.46786135813616
 10
34.40402401152785
 20
184.58825086631745
 10
33.84877012851498
 20
184.23372623176178
 10
34.28262339175241
 20
183.52116441673937
 10
34.634124601590315
 20
183.37502222883893
 10
35.5690564400112
 20
183.4768394652545
 10
35.92689355118759
 20
183.81328851629655
 10
35.96198661743602
 20
184.1768886325841
 10
35.44793632716781
 20
185.39848526282645
 10
34.39702393025981
 20
186.08439867976247
 10
34.00913641943117
 20
186.6218911096432
 10
32.78634477328116
 20
186.5097916670756
 10
32.78634477328116
 20
187.6184648459505
 10
33.55409432488376
 20
187.62207484447882
 10
34.98263170807114
 20
188.09796778089355
 10
36.118739754382425
 20
188.93717635481602
 10
36.82687953630863
 20
188.58305373860864
 10
37.726699791085636
 20
187.79117670299732
 10
37.954638278197756
 20
187.7891014770671
 10
38.24817292594275
 20
188.73706717811012
 10
37.68929956618985
 20
189.1494236036119
 10
37.28078464932516
 20
189.96638139337708
 10
38.34319888347297
 20
190.59281302148574
 10
38.38162304761956
 20
191.10100712878543
 10
39.28798353384239
 20
191.51720325092722
 10
39.89141225050114
 20
190.90981655326163
 10
40.01131555826738
 20
191.37564020228683
 10
39.90087418881785
 20
191.58839867835124
 10
39.357745430635234
 20
191.65665035414085
 10
38.62638873019129
 20
192.31421649822775
 10
37.996670242140105
 20
192.30567301780394
 10
37.89482737799686
 20
192.12192327036803
 10
38.26518109228495
 20
191.2148395798262
 10
37.66733466934816
 20
190.71225232725382
 10
37.048001248362745
 20
191.33157871264987
 10
37.473395262481674
 20
192.20960960812835
 10
37.147522703242416
 20
192.41527198328714
 10
35.639463309981785
 20
191.64790504064177
 10
36.16128054788737
 20
190.88176352704724
 10
35.7917231196247
 20
190.3274311455025
 10
34.998053856908584
 20
190.32743180077634
 10
34.502911068017326
 20
190.8225606765702
 10
34.79047530467534
 20
191.64076204772928
 10
34.459928463440114
 20
191.75630067411097
 10
33.869878672448365
 20
192.43874399015402
 10
32.833183228232336
 20
193.25557875515818
 10
32.35225598493487
 20
194.36865908276908
 10
31.7745708305897
 20
194.78563339237124
 10
31.6510634859298
 20
194.61238938693518
 10
31.995422146617237
 20
193.4268537074194
 10
31.82189376477625
 20
192.73265271224167
 10
30.030911198812582
 20
191.70717766156974
 10
29.708342320066418
 20
191.09096596844282
 10
29.117088624224525
 20
191.06550200497682
 10
26.952873445222586
 20
189.15987190155
  0
LWPOLYLINE
  5
49
330
17
100
AcDbEntity
  8
contours
100
AcDbPolyline
 90
62
 70
1
 10
17.29572731007583
 20
192.5923918252047
 10
17.48649863544114
 20
192.52056519086722
 10
17.756428412048972
 20
192.77364203820733
 10
18.332373341165592
 20
192.50762291362318
 10
18.833667334662124
 20
192.74401064523437
 10
19.52026630986505
 20
192.40068900914815
 10
20.086033151208696
 20
191.6153642262816
 10
20.566007258109195
 20
191.3688166662992
 10
20.985338537261985
 20
190.57056834532827
 10
22.073071778985916
 20
190.6725610856724
 10
22.761617990113002
 20
189.29550656835343
 10
21.80563782611886
 20
188.33953591503644
 10
21.389644469918835
 20
189.16920595526503
 10
20.99881795100585
 20
189.46069121535558
 10
20.48130321828421
 20
189.0547094188335
 10
19.780916890885553
 20
189.0548692183603
 10
19.001655779807376
 20
189.40625573147986
 10
18.87988060763991
 20
189.0173849147786
 10
19.500104267563692
 20
188.15298719566186
 10
20.426449342590946
 20
188.28039050209318
 10
21.550451047053997
 20
187.3648505475122
 10
21.88926047072903
 20
187.4910961110347
 10
22.39679358717447
 20
188.49812091211217
 10
22.986495615186563
 20
187.31863727454729
 10
22.64317397908617
 20
186.6320382993651
 10
21.679516653778006
 20
185.5456084203615
 10
22.385996311983238
 20
184.9540994200511
 10
22.602567686953357
 20
184.58312604641392
 10
23.229326195757903
 20
184.76266013932036
 10
23.864644844918434
 20
185.39288051516303
 10
24.610446670577375
 20
185.01992748610468
 10
25.11210444237523
 20
184.5267279822817
 10
26.329525553837787
 20
183.94396770975595
 10
26.446534669505606
 20
184.0934629141676
 10
26.32336071621121
 20
184.84121064511785
 10
26.817495317253712
 20
185.58238849377565
 10
27.421935504086665
 20
185.58833196104092
 10
28.006878938850626
 20
185.9770866298972
 10
28.100545014681565
 20
186.2567907261712
 10
27.866998395759452
 20
186.49820116835548
 10
26.761848839602244
 20
186.50978669217835
 10
26.330623186540166
 20
187.80349020475452
 10
26.49156086504548
 20
188.74604662299748
 10
25.881348908518255
 20
189.05213717497222
 10
24.965755891411515
 20
189.05487275558897
 10
25.352096525269907
 20
189.87145149748105
 10
24.896550865012195
 20
190.8109842975267
 10
24.801624494643953
 20
191.93554358445255
 10
25.10223469097345
 20
192.78941185929935
 10
24.838823199416293
 20
193.10157414926425
 10
23.799657063334774
 20
193.12703099917775
 10
23.400127088274537
 20
193.4487533494254
 10
23.030002255299312
 20
193.12703099917775
 10
22.512480179720868
 20
193.10914189707017
 10
22.011966183170298
 20
192.61801296309676
 10
20.74554884689011
 20
192.61801296309676
 10
19.764402080171713
 20
193.38877372155872
 10
18.786790925026096
 20
193.36961736831302
 10
17.922282948702307
 20
193.83429120066637
 10
17.22946679323916
 20
193.25663303257187
 10
17.133823666446037
 20
192.9417306934206
 10
17.29572731007583
 20
192.5923918252047
  0
LWPOLYLINE
  5
4A
330
17
100
AcDbEntity
  8
contours
100
AcDbPolyline
 90
7
 70
1
 10
37.30251026640804
 20
89.01895346214793
 10
37.995800379551476
 20
90.08539510957836
 10
38.74457359196387
 20
90.4610167877015
 10
40.1274270314961
 20
89.07815631262648
 10
39.31497055294263
 20
88.26913827655802
 10
38.052162073354474
 20
88.26931556831725
 10
37.30251026640804
 20
89.01895346214793
  0
LWPOLYLINE
  5
4B
330
17
100
AcDbEntity
  8
contours
100
AcDbPolyline
 90
9
 70
1
 10
34.02352442489352
 20
86.02404809619081
 10
34.389737315312104
 20
86.75655871848961
 10
35.12224448897036
 20
87.12276816025869
 10
35.88869540564398
 20
86.73957147960624
 10
36.07627559465044
 20
85.98916703082662
 10
35.85475166266109
 20
85.54604649192855
 10
35.19617568222587
 20
85.216585460125
 10
34.43159142369499
 20
85.2150300601224
 10
34.02352442489352
 20
86.02404809619081
  0
LWPOLYLINE
  5
4C
330
17
100
AcDbEntity
  8
contours
100
AcDbPolyline
 90
8
 70
1
 10
32.68454021743191
 20
188.74051721688198
 10
32.80997552181426
 20
190.0115435086615
 10
33.677328105753716
 20
190.8789009586946
 10
34.437890318591606
 20
189.35125282909536
 10
34.08224352001635
 20
188.64040556754028
 10
33.67449918084855
 20
188.36854004707112
 10
32.93267420169468
 20
188.43037883823476
 10
32.68454021743191
 20
188.74051721688198
  0
LWPOLYLINE
  5
4D
330
17
100
AcDbEntity
  8
contours
100
AcDbPolyline
 90
17
 70
1
 10
27.61673677160059
 20
120.82690215528258
 10
28.505012458592446
 20
121.1230110357771
 10
29.728331907412656
 20
120.61530965226518
 10
29.977853945439335
 20
120.24101249925461
 10
30.050469245180924
 20
119.18055589637166
 10
30.703053946478537
 20
118.8632711332844
 10
31.349922908636607
 20
118.21637500080043
 10
31.349915795085327
 20
117.3978701048003
 10
30.611861393854248
 20
117.02881539406327
 10
29.652039680403682
 20
117.0172392445019
 10
29.105993577102936
 20
116.4876145672483
 10
28.334099735002184
 20
116.68055319857736
 10
28.081800736886194
 20
116.99594696512968
 10
28.228813197169323
 20
117.7309823864154
 10
29.03376778117506
 20
118.63046595311137
 10
27.895610686964016
 20
119.99250478523273
 10
27.61673677160059
 20
120.82690215528258
  0
LWPOLYLINE
  5
4E
330
17
100
AcDbEntity
  8
contours
100
AcDbPolyline
 90
9
 70
1
 10
26.634930052447473
 20
76.4336828316665
 10
27.36278331584577
 20
77.16154615513726
 10
28.156452578545142
 20
77.16154681041111
 10
28.65058717955309
 20
76.42036896174449
 10
28.534232198552807
 20
75.72227863258776
 10
28.179648922385613
 20
75.24953162672895
 10
27.364536506357545
 20
74.97782096816127
 10
26.87585795368683
 20
75.71077605655206
 10
26.634930052447473
 20
76.4336828316665
  0
LWPOLYLINE
  5
4F
330
17
100
AcDbEntity
  8
contours
100
AcDbPolyline
 90
10
 70
1
 10
26.423606693321656
 20
155.32128751792715
 10
26.734244168966683
 20
155.94007136394015
 10
28.1440583615166
 20
157.0669362708672
 10
28.414360939503776
 20
156.34487169209615
 10
28.643324709228445
 20
154.7173178600579
 10
28.09864592245043
 20
153.59140589179776
 10
27.463078925821392
 20
153.8962364537951
 10
26.896978490970618
 20
153.71976639181133
 10
26.530912046835986
 20
154.08557204743272
 10
26.423606693321656
 20
155.32128751792715
  0
LWPOLYLINE
  5
50
330
17
100
AcDbEntity
  8
contours
100
AcDbPolyline
 90
9
 70
1
 10
21.807091559163197
 20
198.51703406814204
 10
22.17961820839537
 20
199.26207820775537
 10
22.857744451099965
 20
199.53338221187892
 10
23.57211055459154
 20
199.4857369776865
 10
23.89311438083142
 20
199.0577044787252
 10
23.661210051238754
 20
198.59396214705814
 10
23.083392562353993
 20
198.01614465819404
 10
22.262706620941216
 20
197.60575513334274
 10
21.807091559163197
 20
198.51703406814204
  0
LWPOLYLINE
  5
51
330
17
100
AcDbEntity
  8
contours
100
AcDbPolyline
 90
7
 70
1
 10
21.922976660764938
 20
156.35278015379637
 10
22.239924677885227
 20
156.82304609218184
 10
23.005762088569956
 20
156.82288977679573
 10
23.54496272297988
 20
156.41843994532437
 10
23.544979360997665
 20
155.66874012565705
 10
22.196826117204765
 20
154.1174914640676
 10
21.922976660764938
 20
156.35278015379637
  0
LWPOLYLINE
  5
52
330
17
100
AcDbEntity
  8
contours
100
AcDbPolyline
 90
11
 70
1
 10
18.946103674262957
 20
157.74871477272367
 10
19.07202879933709
 20
158.50450930216027
 10
20.14588907650356
 20
159.0452241850379
 10
20.758859005916005
 20
159.74153754464632
 10
21.41518535179187
 20
159.79620248672495
 10
22.13872248829621
 20
159.55502996871266
 10
22.552826257275257
 20
157.66509481168458
 10
22.00918429327148
 20
157.25735096779832
 10
19.823819807794322
 20
157.2415913043202
 10
19.14278528702909
 20
157.35526193226553
 10
18.946103674262957
 20
157.74871477272367
  0
LWPOLYLINE
  5
53
330
17
100
AcDbEntity
  8
contours
100
AcDbPolyline
 90
11
 70
1
 10
18.891229916047717
 20
196.4809619238359
 10
19.51084767125117
 20
197.24282297734064
 10
20.42812079318025
 20
197.37632977162235
 10
20.735679936788205
 20
197.22252408111783
 10
21.232872701651775
 20
196.53639621232034
 10
22.021862517348662
 20
196.8832228225558
 10
22.528834589155714
 20
195.86928994929502
 10
21.967084351164257
 20
195.49479255207865
 10
21.329619235747547
 20
195.5478672491115
 10
19.146136975340152
 20
196.060577610945
 10
18.891229916047717
 20
196.4809619238359
  0
LWPOLYLINE
  5
54
330
17
100
AcDbEntity
  8
contours
100
AcDbPolyline
 90
84
 70
1
 10
7.720268359306061
 20
177.13827655310092
 10
8.594103762735884
 20
178.01211899212146
 10
9.54226421332522
 20
177.54131279266667
 10
9.770914684795837
 20
177.67758703103695
 10
9.672827604997886
 20
177.98385378876546
 10
8.989865812824616
 20
178.66681558094982
 10
8.251045714507152
 20
179.0402617311493
 10
8.915944257397147
 20
180.36996570865304
 10
9.547152053315088
 20
181.00122551384837
 10
10.304551353504262
 20
181.00122551384837
 10
11.06153133480007
 20
180.3690140413136
 10
12.09224223366876
 20
181.51024354992936
 10
12.910747129673517
 20
181.51023643637802
 10
13.852679209259144
 20
179.4367948636789
 10
14.604390491323452
 20
179.47723090532926
 10
16.164386522247934
 20
181.00122551384837
 10
16.453661207554134
 20
181.0453367884296
 10
16.81956008721925
 20
181.92472469297968
 10
17.30661322646288
 20
182.24945690058718
 10
17.754866719366238
 20
181.94995847160965
 10
18.480019248272374
 20
181.08604784578125
 10
18.688658866379047
 20
181.09609887485993
 10
18.78766525411247
 20
181.6945678188536
 10
18.53388140253566
 20
182.6888263902749
 10
18.537043947048076
 20
183.43359148879438
 10
19.248926838346925
 20
183.78932672524874
 10
19.851703406818675
 20
183.88974785902795
 10
20.5047777598367
 20
183.78093070113297
 10
20.969419221524905
 20
183.37192866690364
 10
21.299348456695714
 20
183.31019125391776
 10
22.06289127795437
 20
183.66925974870782
 10
22.38824528134396
 20
182.69317524266808
 10
21.60224665263228
 20
181.49594629152432
 10
21.07290131388084
 20
181.22303039154983
 10
20.521182037458296
 20
180.40157944209295
 10
19.954763974933797
 20
180.37612324745288
 10
18.83366733466062
 20
179.25934651562247
 10
18.15347581551682
 20
179.93521812635007
 10
17.846550117307313
 20
179.8663841114691
 10
17.451948081178706
 20
178.7803607626415
 10
17.975868673531295
 20
177.80281436633547
 10
19.486741687702686
 20
177.67271426827708
 10
19.8970170970161
 20
177.26246718515645
 10
19.897034589248538
 20
176.55847200110463
 10
19.649471593839305
 20
175.8447304074372
 10
20.352592816775637
 20
175.27978534793039
 10
20.72554584581987
 20
174.53398352226787
 10
19.975894038881748
 20
173.7843456284271
 10
18.767939434958382
 20
173.63143314519138
 10
18.38799065811791
 20
173.91638026586423
 10
18.07162520019611
 20
174.92974557232745
 10
17.70956524535205
 20
175.080892358995
 10
17.059794114543312
 20
174.42296569790113
 10
16.851334273530913
 20
173.59981014869615
 10
16.94317234989307
 20
172.9984687136055
 10
16.832842274884783
 20
172.75558652922524
 10
17.242608259991638
 20
171.50419709094442
 10
16.848857466222583
 20
170.82105864351138
 10
16.347394101587003
 20
170.4448641464474
 10
15.734124915897414
 20
170.62463850335692
 10
14.796404111452642
 20
170.3305380325864
 10
14.06732205092985
 20
170.51277557391808
 10
13.443664593588307
 20
171.44829924389356
 10
13.443671379263607
 20
172.74241045633778
 10
14.252505010020355
 20
173.1468162564633
 10
14.985015632316408
 20
172.78060336605841
 10
15.289124187205223
 20
172.2445796705733
 10
15.836245281926319
 20
172.41820426872573
 10
15.293822631561795
 20
173.57515273915186
 10
15.5731987760201
 20
174.6122429588299
 10
15.300833524028562
 20
174.6927583721737
 10
14.92348845967831
 20
174.33111370828743
 10
14.322146143153512
 20
174.130982423071
 10
13.159145140294953
 20
174.1323938605774
 10
12.560937144417405
 20
174.33343606141852
 10
11.970052473816901
 20
174.9246234697068
 10
11.556316466519641
 20
175.63109959177544
 10
11.277339969226727
 20
175.63918972787312
 10
10.780157669932837
 20
175.31140006452094
 10
10.056170089380243
 20
175.31139973664492
 10
9.37151997713526
 20
175.99604984890823
 10
9.316501678000586
 20
176.2952100850395
 10
8.52911598116109
 20
176.32943580879433
 10
7.720268359306061
 20
177.13827655310092
  0
LWPOLYLINE
  5
55
330
17
100
AcDbEntity
  8
contours
100
AcDbPolyline
 90
12
 70
1
 10
19.32409387680866
 20
181.0114354966406
 10
19.459384548029977
 20
180.79435768807738
 10
19.727512774757727
 20
181.00122551384837
 10
20.215132619950097
 20
181.03552094536136
 10
20.664453663734577
 20
181.6974739809276
 10
21.16298600109332
 20
181.96436932191062
 10
21.437884086910206
 20
182.6322245207892
 10
20.75698349272679
 20
182.79168513272666
 10
20.169154595021915
 20
183.22879168547266
 10
19.191114676506412
 20
183.08642007946955
 10
19.38804885049012
 20
181.74425708444113
 10
19.32409387680866
 20
181.0114354966406
  0
LWPOLYLINE
  5
56
330
17
100
AcDbEntity
  8
contours
100
AcDbPolyline
 90
41
 70
1
 10
9.11695173554925
 20
179.42920345701611
 10
10.172232095312902
 20
178.3338935643642
 10
10.54518512438216
 20
177.58809173870847
 10
9.97206497637521
 20
176.96658302108537
 10
9.977801635015991
 20
176.26309388244354
 10
10.309354309659021
 20
175.92264051500942
 10
10.610435581881143
 20
175.92260051929398
 10
11.107617881175033
 20
176.25039018264616
 10
11.8573177008129
 20
176.2503735446284
 10
12.872743619003387
 20
174.8710691075844
 10
13.75174023782728
 20
174.64511177114272
 10
14.591302371247016
 20
174.85538529691888
 10
15.211338231697061
 20
175.46702881175352
 10
16.46412824310338
 20
174.70451196981804
 10
17.815631262530147
 20
176.03524266273803
 10
18.571029690509114
 20
175.27978534793104
 10
18.966649093685135
 20
174.35476487693592
 10
19.70885000533616
 20
174.39062728630833
 10
19.951275406245315
 20
174.62347881460738
 10
19.679244570332646
 20
175.10368932844776
 10
19.042869776061927
 20
175.42592621701056
 10
19.042845170278184
 20
176.19102699689714
 10
19.29142755799586
 20
176.69429696085143
 10
19.26314595678342
 20
177.0470394426675
 10
17.665728391355483
 20
177.17781616813963
 10
17.08171490278998
 20
178.20733643747394
 10
16.687279805477473
 20
178.60612781083893
 10
17.15052042646472
 20
179.66274825619445
 10
16.868838469793378
 20
180.39046074550762
 10
16.39163772242401
 20
180.37612324745288
 10
14.885713678147352
 20
178.874525989149
 10
14.355565578135483
 20
178.84906913923507
 10
13.612453547402298
 20
178.11026415911266
 10
13.196388952031489
 20
179.59606540682887
 10
12.477327059966576
 20
180.9073919706246
 10
11.941119376289043
 20
180.5098109062063
 10
11.301050732064574
 20
179.55132573148524
 10
10.511797818399662
 20
179.94600437762452
 10
10.064674128899124
 20
180.38369099525977
 10
9.78702927792022
 20
180.38369099525977
 10
9.11695173554925
 20
179.42920345701611
  0
LWPOLYLINE
  5
57
330
17
100
AcDbEntity
  8
contours
100
AcDbPolyline
 90
12
 70
1
 10
17.515792981672636
 20
111.1807874718168
 10
18.427709866712558
 20
110.27317534973706
 10
19.042653485650636
 20
110.16292687235034
 10
20.098083798731167
 20
109.10744065854516
 10
20.441405434830777
 20
108.42084168336456
 10
20.003588829620735
 20
107.54513979962508
 10
19.142660775637147
 20
107.8321424551627
 10
18.80548264428936
 20
108.39411154658741
 10
19.039978828760855
 20
108.98815567286805
 10
18.985260065074808
 20
109.6281030537183
 10
17.515803691126933
 20
109.64806822017916
 10
17.515792981672636
 20
111.1807874718168
  0
LWPOLYLINE
  5
58
330
17
100
AcDbEntity
  8
contours
100
AcDbPolyline
 90
13
 70
1
 10
11.356384617186645
 20
115.00642377779457
 10
11.715543455793227
 20
115.72467512748051
 10
12.095851090328377
 20
116.1016032064194
 10
12.796237417732936
 20
116.10144340689261
 10
13.28474639696448
 20
115.8691887090215
 10
14.322205418259454
 20
115.91617653697074
 10
15.557316625349085
 20
115.07051492865946
 10
14.885713678143063
 20
114.39890808669284
 10
13.926161542247502
 20
114.2730425679605
 10
13.355050713283896
 20
113.72004008015486
 10
12.63155980014054
 20
113.72207902038012
 10
12.00743138899729
 20
114.13845048299615
 10
11.356384617186645
 20
115.00642377779457
  0
LWPOLYLINE
  5
59
330
17
100
AcDbEntity
  8
contours
100
AcDbPolyline
 90
8
 70
1
 10
11.407608461242784
 20
98.91924647935635
 10
12.110848687211682
 20
99.33973415475114
 10
13.39680758837528
 20
99.42352035844495
 10
13.834971946017726
 20
98.77103980475161
 10
13.457958075479644
 20
98.01698837568887
 10
12.150704966023538
 20
97.53323675240829
 10
11.407609087317567
 20
98.0905780907475
 10
11.407608461242784
 20
98.91924647935635
  0
LWPOLYLINE
  5
5A
330
17
100
AcDbEntity
  8
contours
100
AcDbPolyline
 90
12
 70
1
 10
10.135026054872794
 20
171.63902862164016
 10
10.539475886332367
 20
172.17822925604338
 10
11.884822243384233
 20
172.06796292749536
 10
12.562426855816966
 20
171.05160092699973
 10
12.200612010465715
 20
170.3280828044514
 10
11.159623466150752
 20
169.79493994436208
 10
11.202077295576665
 20
169.42202859117842
 10
10.62985270587876
 20
168.8497969285138
 10
10.270820666182166
 20
169.4481397801785
 10
10.371254402047354
 20
169.9828163870592
 10
10.19113044560591
 20
170.45249037247095
 10
10.135026054872794
 20
171.63902862164016
  0
LWPOLYLINE
  5
5B
330
17
100
AcDbEntity
  8
contours
100
AcDbPolyline
 90
9
 70
1
 10
9.626009782838507
 20
184.193749828587
 10
9.626028995159176
 20
184.89773772625654
 10
10.180360721443304
 20
185.45207633007098
 10
10.86183759400207
 20
184.77206217456
 10
11.498212388286792
 20
184.44982528598592
 10
11.498229339897781
 20
183.53940394982007
 10
10.689376318956322
 20
183.26977453537611
 10
9.971098475273694
 20
183.50903733808207
 10
9.626009782838507
 20
184.193749828587
  0
LWPOLYLINE
  5
5C
330
17
100
AcDbEntity
  8
contours
100
AcDbPolyline
 90
8
 70
1
 10
8.862482728747347
 20
72.71879992878681
 10
8.862492037631956
 20
73.56328409252147
 10
10.353717220882125
 20
73.57909390265219
 10
10.819528459179782
 20
72.88035807072927
 10
11.032404616881438
 20
71.69056566532497
 10
10.180360721443304
 20
70.83850483225389
 10
9.424962293461087
 20
71.59396214706415
 10
8.862482728747347
 20
72.71879992878681
  0
LWPOLYLINE
  5
5D
330
17
100
AcDbEntity
  8
contours
100
AcDbPolyline
 90
9
 70
1
 10
9.116991746790692
 20
219.3159943175765
 10
9.117012330469107
 20
220.09878051077425
 10
9.625957079484403
 20
220.30067805030237
 10
10.323118764019073
 20
220.26065843138886
 10
10.521439384216952
 20
220.03398536481765
 10
10.660025982255707
 20
219.36871855361872
 10
10.39646779366765
 20
218.5779229647274
 10
9.486046457497334
 20
218.57793991633838
 10
9.116991746790692
 20
219.3159943175765
  0
LWPOLYLINE
  5
5E
330
17
100
AcDbEntity
  8
contours
100
AcDbPolyline
 90
8
 70
1
 10
7.14953405440807
 20
174.59318881130238
 10
7.3833539859182915
 20
175.2946172259352
 10
8.053509664732445
 20
175.7413721465652
 10
8.777497245280742
 20
175.74137247444116
 10
9.326905137930831
 20
175.19198172227988
 10
8.856295540828635
 20
173.78434699978487
 10
7.4191634688693195
 20
173.7843357903674
 10
7.14953405440807
 20
174.59318881130238
  0
LWPOLYLINE
  5
5F
330
17
100
AcDbEntity
  8
contours
100
AcDbPolyline
 90
46
 70
1
 10
-0.21188818349803368
 20
158.60149522016172
 10
0.18217662711206833
 20
159.07660725848945
 10
-0.2118881834954259
 20
159.53477732493894
 10
0.347052622475709
 20
160.09373599111342
 10
0.8903782807220018
 20
160.27749546736197
 10
1.2270541082219304
 20
160.58151405403777
 10
1.1373265815795663
 20
161.219377295129
 10
0.5826603122176834
 20
161.1449647156742
 10
0.2121320343562977
 20
160.8074838940027
 10
-0.21188818349483832
 20
161.2315041118552
 10
0.16523575604100535
 20
161.60707283082627
 10
0.9078753933806102
 20
161.8424935034961
 10
1.294669430088514
 20
162.62770044420213
 10
2.036072144289195
 20
162.8130574171486
 10
2.4617489827520553
 20
162.73544001746833
 10
2.9511999330150713
 20
163.20689324524557
 10
4.119020698215306
 20
163.19751690022753
 10
4.6735034116637335
 20
162.9319069703844
 10
5.681571227571012
 20
163.06460407318278
 10
7.057563719043549
 20
162.06763555466355
 10
7.1834888441172815
 20
161.31184102522934
 10
6.340601111004787
 20
159.58071638946973
 10
5.599198396798985
 20
159.39535941652196
 10
5.118644489310454
 20
159.50281057845078
 10
4.52195947416524
 20
159.21232990568367
 10
3.5239777019604843
 20
160.02484544137002
 10
2.420899548293377
 20
160.0408586544793
 10
1.9770541082232793
 20
160.42232133179348
 10
1.0848774358825646
 20
159.68850824366876
 10
1.0645276869245421
 20
159.5100736857479
 10
1.518505802391426
 20
158.85792696174056
 10
1.282997478911159
 20
157.8579911819635
 10
1.965292914766562
 20
158.09543310292685
 10
2.799074561980372
 20
158.09540969260954
 10
2.9451763579166026
 20
157.2189095953878
 10
2.1360179827953116
 20
156.4777098833262
 10
1.2787555438747789
 20
156.49531365317378
 10
1.0265843779590775
 20
157.33087285352676
 10
1.1962945411386152
 20
157.67022649724666
 10
1.01642055092204
 20
157.86581308133262
 10
0.8342975942224325
 20
157.8105666864084
 10
0.8088505823684143
 20
157.57948411014493
 10
0.11266542068063765
 20
157.32331406694516
 10
-0.09465022296263452
 20
157.910414439676
 10
0.2046139532611504
 20
158.149909972264
 10
-0.21188818349803368
 20
158.60149522016172
  0
LWPOLYLINE
  5
60
330
17
100
AcDbEntity
  8
contours
100
AcDbPolyline
 90
17
 70
1
 10
1.3196754432860447
 20
161.40576541597727
 10
1.3550319499423782
 20
161.16741120914855
 10
2.1602627763522775
 20
161.14952210704186
 10
2.6879435818389665
 20
160.64714031236053
 10
3.63391276844353
 20
160.64052156319335
 10
4.667503122637759
 20
159.9747175928743
 10
5.0552992953663844
 20
160.14942188724373
 10
5.8497974120975025
 20
160.08859490458147
 10
6.553661109556907
 20
161.42241427531684
 10
6.482738098255988
 20
161.67955493376238
 10
5.534256639750143
 20
162.39166720922458
 10
4.510375808711917
 20
162.33142232457988
 10
4.008447448133326
 20
162.56768916566764
 10
3.1494283065240336
 20
162.5416778326978
 10
2.637055701352106
 20
162.04472879571088
 10
1.8111693190417817
 20
162.1354423161591
 10
1.3196754432860447
 20
161.40576541597727
  0
LWPOLYLINE
  5
61
330
17
100
AcDbEntity
  8
contours
100
AcDbPolyline
 90
8
 70
1
 10
4.005531604443342
 20
73.19568891096182
 10
4.138501246511907
 20
73.99348141475444
 10
4.4981087832480595
 20
74.20926847486123
 10
5.513172714138836
 20
74.06312678193619
 10
6.277727632660908
 20
73.29859719439763
 10
5.702106680235636
 20
72.72296647418226
 10
4.478254041214637
 20
72.72296647418428
 10
4.005531604443342
 20
73.19568891096182
  0
LWPOLYLINE
  5
62
330
17
100
AcDbEntity
  8
contours
100
AcDbPolyline
 90
11
 70
1
 10
2.6700207095516837
 20
93.209739348336
 10
2.8572732622048735
 20
93.53738672422855
 10
3.7252629985192534
 20
93.74090848432898
 10
4.456971692584024
 20
94.46815938158909
 10
5.275476588604108
 20
94.46815226803781
 10
5.774433527859222
 20
93.47027344851108
 10
4.454003751134155
 20
93.18994408644002
 10
4.050179391753147
 20
92.43599674990062
 10
3.6074259597064566
 20
92.14081283488245
 10
2.7835107641475596
 20
92.41544833014441
 10
2.6700207095516837
 20
93.209739348336
  0
LWPOLYLINE
  5
63
330
17
100
AcDbEntity
  8
contours
100
AcDbPolyline
 90
7
 70
1
 10
2.6178043063085275
 20
175.61122244488485
 10
2.7542705247771324
 20
176.86336471243862
 10
3.5595605759827356
 20
177.06485452884164
 10
4.27864963592729
 20
176.8866913976148
 10
4.69147770953237
 20
176.06103763049208
 10
2.8916610115118218
 20
174.51571845478512
 10
2.6178043063085275
 20
175.61122244488485
  0
LWPOLYLINE
  5
64
330
17
100
AcDbEntity
  8
contours
100
AcDbPolyline
 90
32
 70
1
 10
-0.06487340973804058
 20
215.58747965363506
 10
0.06521005490829236
 20
216.17285524461903
 10
0.5809825417115396
 20
215.96763437607936
 10
0.975960575472903
 20
216.1378356068165
 10
2.4402256888449263
 20
215.83084899095869
 10
2.97105467504923
 20
216.12349693177146
 10
3.4474396599662898
 20
216.14135910494005
 10
3.801106659484598
 20
216.51085295696416
 10
4.050268578304269
 20
217.85270969732528
 10
3.8992618558597454
 20
220.2943707100807
 10
3.028233502443124
 20
220.92622840547307
 10
2.697637018342263
 20
220.88793354004213
 10
1.7178323487100422
 20
220.2566511500595
 10
1.189223795922351
 20
219.63288846967842
 10
0.533710888645486
 20
219.44540824977219
 10
-0.04223132617843643
 20
219.526236183281
 10
0.042572717383940195
 20
220.11986448827471
 10
0.8300383716202087
 20
220.1571692094919
 10
1.3452831345895915
 20
220.7568186163086
 10
1.8888156837465861
 20
220.97752589289448
 10
2.395688243178032
 20
221.44295902448977
 10
3.1169160833282796
 20
221.59768124676697
 10
4.2952273274560255
 20
220.82418767185848
 10
4.573408352262731
 20
219.93418577684247
 10
4.6712311402701685
 20
217.8597194388785
 10
4.348341111447894
 20
216.18484927691617
 10
3.687316884571408
 20
215.52382458635145
 10
3.1387109633853707
 20
215.51820453382385
 10
2.614139311655186
 20
215.20998922967448
 10
1.0824628815619493
 20
215.502100503857
 10
0.4498151855881675
 20
215.20431387362424
 10
-0.06487340973804058
 20
215.58747965363506
  0
LWPOLYLINE
  5
65
330
17
100
AcDbEntity
  8
contours
100
AcDbPolyline
 90
38
 70
1
 10
-0.2397585999672536
 20
4.252178774287284
 10
1.3302191539638157
 20
7.131575100981388
 10
2.310575090275449
 20
7.419596789380927
 10
2.752949897950161
 20
9.171735425840664
 10
2.428316472425924
 20
11.104236828366174
 10
1.1719081539776446
 20
13.205203968967826
 10
1.239368555909459
 20
13.879815152498585
 10
1.710792586134648
 20
14.355565578130983
 10
1.7296131946490447
 20
14.618669644617695
 10
0.8524906225681682
 20
15.741852896780047
 10
1.304499354815857
 20
16.86979491712383
 10
3.491455334989535
 20
17.542393127067033
 10
3.6423562315576294
 20
17.77307385817269
 10
3.1405998836282976
 20
18.232076215408867
 10
2.5767425548639755
 20
17.846364577106904
 10
2.070058290893979
 20
18.099500537697306
 10
1.4472762786734232
 20
18.971899018498036
 10
0.039797243259751876
 20
18.875838026688893
 10
-0.03945541118639153
 20
19.470232935026296
 10
0.9953449454424335
 20
19.484280227708147
 10
1.6080315290745923
 20
19.685711230106563
 10
2.4694325535424597
 20
18.678512139904665
 10
3.0159049761035557
 20
19.049809925693342
 10
4.457959558288225
 20
17.853834502857833
 10
3.925211748303417
 20
17.05469667128287
 10
1.8005129146922694
 20
16.402152688981104
 10
1.5506411836353875
 20
15.889549064797977
 10
2.335894852529966
 20
14.885713678157733
 10
2.335894852529966
 20
14.128314377955672
 10
1.834152350234453
 20
13.622262734787391
 10
1.7855935352033283
 20
13.249522377493195
 10
2.998520320639578
 20
11.29694263957853
 10
3.353355377848578
 20
9.69793289909722
 10
3.286478598443197
 20
8.602610380823617
 10
2.7858136779559852
 20
6.877371192665035
 10
1.7098002064310036
 20
6.580752670069976
 10
0.23996551428473048
 20
3.892385688612557
 10
-0.2397585999672536
 20
4.252178774287284
  0
LWPOLYLINE
  5
66
330
17
100
AcDbEntity
  8
contours
100
AcDbPolyline
 90
24
 70
1
 10
-0.2680968200645943
 20
79.78159047227636
 10
0.26825104489139645
 20
80.04976440473688
 10
0.897999310049602
 20
78.99067288046379
 10
1.6358798717395278
 20
80.10957613819104
 10
2.5832934206948113
 20
80.81066496910864
 10
3.317417665004491
 20
80.07458661570533
 10
3.5765660806664186
 20
79.29661183354608
 10
2.585170174864687
 20
78.25458478200899
 10
2.48567352008703
 20
77.73570320208668
 10
1.5942959010034075
 20
77.0402192639001
 10
1.57238877481189
 20
76.25275494548245
 10
1.16793894332603
 20
75.71355431108539
 10
0.4182391236455793
 20
75.71353767306762
 10
-0.16617094342739644
 20
76.10313814560352
 10
0.16645788195816166
 20
76.60208138367457
 10
0.5879612116974514
 20
76.32473812784066
 10
0.8669377090252223
 20
76.33282826393909
 10
0.9725450901980324
 20
76.75549285701815
 10
0.784528109606878
 20
77.06395525987716
 10
-0.21485560811528495
 20
77.0709032021074
 10
0.5316399690792419
 20
77.87975951903633
 10
0.2091953278271646
 20
78.26458692305253
 10
0.2032512052877272
 20
78.8327571473618
 10
-0.2680968200645943
 20
79.78159047227636
  0
LWPOLYLINE
  5
67
330
17
100
AcDbEntity
  8
contours
100
AcDbPolyline
 90
24
 70
1
 10
-0.21188818350468247
 20
190.92414051075158
 10
0.21213203436611933
 20
191.3481607285844
 10
0.6098557121565601
 20
191.06395202217666
 10
2.063808213576806
 20
191.45763120777016
 10
2.7811162839012984
 20
191.09893890583052
 10
3.1041018326243925
 20
189.83366379900264
 10
2.7449902640842456
 20
188.91438016873448
 10
1.4104444201302098
 20
188.58811115827103
 10
1.3678788264865076
 20
187.88595748133181
 10
1.609180837867433
 20
187.82481224106073
 10
2.1838240249510745
 20
186.67553227224374
 10
1.5619351735922646
 20
186.36460616886845
 10
1.0873013113468544
 20
186.44456614977304
 10
0.16645788195813646
 20
185.71187987216825
 10
-0.1661709434273908
 20
186.2108231102393
 10
0.7115771225142027
 20
186.95247263996234
 10
0.8312611906721004
 20
188.344019766486
 10
0.659827306981813
 20
189.04232861283276
 10
2.3004965615756787
 20
189.4550052426265
 10
2.491511009502185
 20
189.92964665755844
 10
2.323566080945996
 20
190.62562492422649
 10
2.048584016608464
 20
190.79385991568805
 10
0.450127689955385
 20
190.4487160430677
 10
-0.21188818350468247
 20
190.92414051075158
  0
LWPOLYLINE
  5
68
330
17
100
AcDbEntity
  8
contours
100
AcDbPolyline
 90
6
 70
1
 10
1.0208986405055507
 20
141.933894339154
 10
1.9154903688932468
 20
142.82505010019983
 10
2.761197252572984
 20
142.8248826465003
 10
3.030826667035899
 20
142.0160296255802
 10
2.720205907195056
 20
141.0842472653293
 10
1.0208986405055507
 20
141.933894339154
  0
LWPOLYLINE
  5
69
330
17
100
AcDbEntity
  8
contours
100
AcDbPolyline
 90
16
 70
1
 10
-0.28438688257362754
 20
205.22924592030813
 10
-0.033815703217050255
 20
206.2460631416204
 10
0.3927370682889396
 20
207.09918612226554
 10
1.258511709463262
 20
206.52200902387617
 10
1.852524016252634
 20
204.01768810596297
 10
1.3357478825023592
 20
203.49152783631848
 10
1.3178516668441458
 20
202.912900164903
 10
0.07288614774422209
 20
202.42559921607392
 10
-0.07255158712291376
 20
203.00735015554102
 10
0.6719812312552991
 20
203.26816639702804
 10
0.7182133639138955
 20
203.7314050609228
 10
1.1856977567472835
 20
204.2349648775602
 10
0.7943301892227325
 20
206.05567316841888
 10
0.5445023019763033
 20
206.02717585291472
 10
0.28449593599487605
 20
205.0396183141118
 10
-0.28438688257362754
 20
205.22924592030813
  0
ENDSEC
  0
SECTION
  2
OBJECTS
  0
DICTIONARY
  5
A
330
0
100
AcDbDictionary
281
1
  3
ACAD_COLOR
350
B
  3
ACAD_GROUP
350
C
  3
ACAD_LAYOUT
350
D
  3
ACAD_MATERIAL
350
E
  3
ACAD_MLEADERSTYLE
350
F
  3
ACAD_MLINESTYLE
350
10
  3
ACAD_PLOTSETTINGS
350
11
  3
ACAD_PLOTSTYLENAME
350
12
  3
ACAD_SCALELIST
350
14
  3
ACAD_TABLESTYLE
350
15
  3
ACAD_VISUALSTYLE
350
16
  3
EZDXF_META
350
2D
  0
DICTIONARY
  5
B
330
A
100
AcDbDictionary
281
1
  0
DICTIONARY
  5
C
330
A
100
AcDbDictionary
281
1
  0
DICTIONARY
  5
D
330
A
100
AcDbDictionary
281
1
  3
Model
350
1A
  3
Layout1
350
1E
  0
DICTIONARY
  5
E
330
A
100
AcDbDictionary
281
1
  3
ByBlock
350
1F
  3
ByLayer
350
20
  3
Global
350
21
  0
DICTIONARY
  5
F
330
A
100
AcDbDictionary
281
1
  3
Standard
350
2C
  0
DICTIONARY
  5
10
330
A
100
AcDbDictionary
281
1
  3
Standard
350
22
  0
DICTIONARY
  5
11
330
A
100
AcDbDictionary
281
1
  0
ACDBDICTIONARYWDFLT
  5
12
330
A
100
AcDbDictionary
281
1
  3
Normal
350
13
100
AcDbDictionaryWithDefault
340
13
  0
ACDBPLACEHOLDER
  5
13
330
12
  0
DICTIONARY
  5
14
330
A
100
AcDbDictionary
281
1
  0
DICTIONARY
  5
15
330
A
100
AcDbDictionary
281
1
  0
DICTIONARY
  5
16
330
A
100
AcDbDictionary
281
1
  0
LAYOUT
  5
1A
330
D
100
AcDbPlotSettings
  1

  4
A3
  6

 40
7.5
 41
20.0
 42
7.5
 43
20.0
 44
420.0
 45
297.0
 46
0.0
 47
0.0
 48
0.0
 49
0.0
140
0.0
141
0.0
142
1.0
143
1.0
 70
1024
 72
1
 73
0
 74
5
  7

 75
16
 76
0
 77
2
 78
300
147
1.0
148
0.0
149
0.0
100
AcDbLayout
  1
Model
 70
1
 71
0
 10
0.0
 20
0.0
 11
420.0
 21
297.0
 12
0.0
 22
0.0
 32
0.0
 14
1e+20
 24
1e+20
 34
1e+20
 15
-1e+20
 25
-1e+20
 35
-1e+20
146
0.0
 13
0.0
 23
0.0
 33
0.0
 16
1.0
 26
0.0
 36
0.0
 17
0.0
 27
1.0
 37
0.0
 76
1
330
17
  0
LAYOUT
  5
1E
330
D
100
AcDbPlotSettings
  1

  4
A3
  6

 40
7.5
 41
20.0
 42
7.5
 43
20.0
 44
420.0
 45
297.0
 46
0.0
 47
0.0
 48
0.0
 49
0.0
140
0.0
141
0.0
142
1.0
143
1.0
 70
0
 72
1
 73
0
 74
5
  7

 75
16
 76
0
 77
2
 78
300
147
1.0
148
0.0
149
0.0
100
AcDbLayout
  1
Layout1
 70
1
 71
1
 10
0.0
 20
0.0
 11
420.0
 21
297.0
 12
0.0
 22
0.0
 32
0.0
 14
1e+20
 24
1e+20
 34
1e+20
 15
-1e+20
 25
-1e+20
 35
-1e+20
146
0.0
 13
0.0
 23
0.0
 33
0.0
 16
1.0
 26
0.0
 36
0.0
 17
0.0
 27
1.0
 37
0.0
 76
1
330
1B
  0
MATERIAL
  5
1F
102
{ACAD_REACTORS
330
E
102
}
330
E
100
AcDbMaterial
  1
ByBlock
  2

 70
0
 40
1.0
 71
1
 41
1.0
 91
-1023410177
 42
1.0
 72
1
  3

 73
1
 74
1
 75
1
 44
0.5
 73
0
 45
1.0
 46
1.0
 77
1
  4

 78
1
 79
1
170
1
 48
1.0
171
1
  6

172
1
173
1
174
1
140
1.0
141
1.0
175
1
  7

176
1
177
1
178
1
143
1.0
179
1
  8

270
1
271
1
272
1
145
1.0
146
1.0
273
1
  9

274
1
275
1
276
1
 42
1.0
 72
1
  3

 73
1
 74
1
 75
1
 94
63
  0
MATERIAL
  5
20
102
{ACAD_REACTORS
330
E
102
}
330
E
100
AcDbMaterial
  1
ByLayer
  2

 70
0
 40
1.0
 71
1
 41
1.0
 91
-1023410177
 42
1.0
 72
1
  3

 73
1
 74
1
 75
1
 44
0.5
 73
0
 45
1.0
 46
1.0
 77
1
  4

 78
1
 79
1
170
1
 48
1.0
171
1
  6

172
1
173
1
174
1
140
1.0
141
1.0
175
1
  7

176
1
177
1
178
1
143
1.0
179
1
  8

270
1
271
1
272
1
145
1.0
146
1.0
273
1
  9

274
1
275
1
276
1
 42
1.0
 72
1
  3

 73
1
 74
1
 75
1
 94
63
  0
MATERIAL
  5
21
102
{ACAD_REACTORS
330
E
102
}
330
E
100
AcDbMaterial
  1
Global
  2

 70
0
 40
1.0
 71
1
 41
1.0
 91
-1023410177
 42
1.0
 72
1
  3

 73
1
 74
1
 75
1
 44
0.5
 73
0
 45
1.0
 46
1.0
 77
1
  4

 78
1
 79
1
170
1
 48
1.0
171
1
  6

172
1
173
1
174
1
140
1.0
141
1.0
175
1
  7

176
1
177
1
178
1
143
1.0
179
1
  8

270
1
271
1
272
1
145
1.0
146
1.0
273
1
  9

274
1
275
1
276
1
 42
1.0
 72
1
  3

 73
1
 74
1
 75
1
 94
63
  0
MLINESTYLE
  5
22
102
{ACAD_REACTORS
330
10
102
}
330
10
100
AcDbMlineStyle
  2
Standard
 70
0
  3

 62
256
 51
90.0
 52
90.0
 71
2
 49
0.5
 62
256
  6
BYLAYER
 49
-0.5
 62
256
  6
BYLAYER
  0
MLEADERSTYLE
  5
2C
102
{ACAD_REACTORS
330
F
102
}
330
F
100
AcDbMLeaderStyle
179
2
170
2
171
1
172
0
 90
2
 40
0.0
 41
0.0
173
1
 91
-1056964608
 92
-2
290
1
 42
2.0
291
1
 43
8.0
  3
Standard
 44
4.0
300

342
29
174
1
175
1
176
0
178
1
 93
-1056964608
 45
4.0
292
0
297
0
 46
4.0
 94
-1056964608
 47
1.0
 49
1.0
140
1.0
294
1
141
0.0
177
0
142
1.0
295
0
296
0
143
3.75
271
0
272
9
273
9
  0
DICTIONARY
  5
2D
330
A
100
AcDbDictionary
280
1
281
1
  3
CREATED_BY_EZDXF
350
2E
  3
WRITTEN_BY_EZDXF
350
6C
  0
DICTIONARYVAR
  5
2E
330
2D
100
DictionaryVariables
280
0
  1
1.4.3 @ 2026-04-03T02:25:53.219714+00:00
  0
DICTIONARYVAR
  5
6C
330
2D
100
DictionaryVariables
280
0
  1
1.4.3 @ 2026-04-03T02:25:53.234952+00:00
  0
ENDSEC
  0
EOF
