  0
SECTION
  2
HEADER
  9
$ACADVER
  1
AC1024
  9
$ACADMAINTVER
 70
6
  9
$DWGCODEPAGE
  3
ANSI_1252
  9
$LASTSAVEDBY
  1
ezdxf
  9
$INSBASE
 10
0.0
 20
0.0
 30
0.0
  9
$EXTMIN
 10
1e+20
 20
1e+20
 30
1e+20
  9
$EXTMAX
 10
-1e+20
 20
-1e+20
 30
-1e+20
  9
$LIMMIN
 10
0.0
 20
0.0
  9
$LIMMAX
 10
420.0
 20
297.0
  9
$ORTHOMODE
 70
0
  9
$REGENMODE
 70
1
  9
$FILLMODE
 70
1
  9
$QTEXTMODE
 70
0
  9
$MIRRTEXT
 70
1
  9
$LTSCALE
 40
1.0
  9
$ATTMODE
 70
1
  9
$TEXTSIZE
 40
2.5
  9
$TRACEWID
 40
1.0
  9
$TEXTSTYLE
  7
Standard
  9
$CLAYER
  8
0
  9
$CELTYPE
  6
ByLayer
  9
$CECOLOR
 62
256
  9
$CELTSCALE
 40
1.0
  9
$DISPSILH
 70
0
  9
$DIMSCALE
 40
1.0
  9
$DIMASZ
 40
2.5
  9
$DIMEXO
 40
0.625
  9
$DIMDLI
 40
3.75
  9
$DIMRND
 40
0.0
  9
$DIMDLE
 40
0.0
  9
$DIMEXE
 40
1.25
  9
$DIMTP
 40
0.0
  9
$DIMTM
 40
0.0
  9
$DIMTXT
 40
2.5
  9
$DIMCEN
 40
2.5
  9
$DIMTSZ
 40
0.0
  9
$DIMTOL
 70
0
  9
$DIMLIM
 70
0
  9
$DIMTIH
 70
0
  9
$DIMTOH
 70
0
  9
$DIMSE1
 70
0
  9
$DIMSE2
 70
0
  9
$DIMTAD
 70
1
  9
$DIMZIN
 70
8
  9
$DIMBLK
  1

  9
$DIMASO
 70
1
  9
$DIMSHO
 70
1
  9
$DIMPOST
  1

  9
$DIMAPOST
  1

  9
$DIMALT
 70
0
  9
$DIMALTD
 70
3
  9
$DIMALTF
 40
0.03937007874
  9
$DIMLFAC
 40
1.0
  9
$DIMTOFL
 70
1
  9
$DIMTVP
 40
0.0
  9
$DIMTIX
 70
0
  9
$DIMSOXD
 70
0
  9
$DIMSAH
 70
0
  9
$DIMBLK1
  1

  9
$DIMBLK2
  1

  9
$DIMSTYLE
  2
ISO-25
  9
$DIMCLRD
 70
0
  9
$DIMCLRE
 70
0
  9
$DIMCLRT
 70
0
  9
$DIMTFAC
 40
1.0
  9
$DIMGAP
 40
0.625
  9
$DIMJUST
 70
0
  9
$DIMSD1
 70
0
  9
$DIMSD2
 70
0
  9
$DIMTOLJ
 70
0
  9
$DIMTZIN
 70
8
  9
$DIMALTZ
 70
0
  9
$DIMALTTZ
 70
0
  9
$DIMUPT
 70
0
  9
$DIMDEC
 70
2
  9
$DIMTDEC
 70
2
  9
$DIMALTU
 70
2
  9
$DIMALTTD
 70
3
  9
$DIMTXSTY
  7
Standard
  9
$DIMAUNIT
 70
0
  9
$DIMADEC
 70
0
  9
$DIMALTRND
 40
0.0
  9
$DIMAZIN
 70
0
  9
$DIMDSEP
 70
44
  9
$DIMATFIT
 70
3
  9
$DIMFRAC
 70
0
  9
$DIMLDRBLK
  1

  9
$DIMLUNIT
 70
2
  9
$DIMLWD
 70
-2
  9
$DIMLWE
 70
-2
  9
$DIMTMOVE
 70
0
  9
$DIMFXL
 40
1.0
  9
$DIMFXLON
 70
0
  9
$DIMJOGANG
 40
0.785398163397
  9
$DIMTFILL
 70
0
  9
$DIMTFILLCLR
 70
0
  9
$DIMARCSYM
 70
0
  9
$DIMLTYPE
  6

  9
$DIMLTEX1
  6

  9
$DIMLTEX2
  6

  9
$DIMTXTDIRECTION
 70
0
  9
$LUNITS
 70
2
  9
$LUPREC
 70
4
  9
$SKETCHINC
 40
1.0
  9
$FILLETRAD
 40
10.0
  9
$AUNITS
 70
0
  9
$AUPREC
 70
2
  9
$MENU
  1
.
  9
$ELEVATION
 40
0.0
  9
$PELEVATION
 40
0.0
  9
$THICKNESS
 40
0.0
  9
$LIMCHECK
 70
0
  9
$CHAMFERA
 40
0.0
  9
$CHAMFERB
 40
0.0
  9
$CHAMFERC
 40
0.0
  9
$CHAMFERD
 40
0.0
  9
$SKPOLY
 70
0
  9
$TDCREATE
 40
2461133.4205324072
  9
$TDUCREATE
 40
2458532.153996898
  9
$TDUPDATE
 40
2461133.4205324072
  9
$TDUUPDATE
 40
2458532.1544311
  9
$TDINDWG
 40
0.0
  9
$TDUSRTIMER
 40
0.0
  9
$USRTIMER
 70
1
  9
$ANGBASE
 50
0.0
  9
$ANGDIR
 70
0
  9
$PDMODE
 70
0
  9
$PDSIZE
 40
0.0
  9
$PLINEWID
 40
0.0
  9
$SPLFRAME
 70
0
  9
$SPLINETYPE
 70
6
  9
$SPLINESEGS
 70
8
  9
$HANDSEED
  5
36
  9
$SURFTAB1
 70
6
  9
$SURFTAB2
 70
6
  9
$SURFTYPE
 70
6
  9
$SURFU
 70
6
  9
$SURFV
 70
6
  9
$UCSBASE
  2

  9
$UCSNAME
  2

  9
$UCSORG
 10
0.0
 20
0.0
 30
0.0
  9
$UCSXDIR
 10
1.0
 20
0.0
 30
0.0
  9
$UCSYDIR
 10
0.0
 20
1.0
 30
0.0
  9
$UCSORTHOREF
  2

  9
$UCSORTHOVIEW
 70
0
  9
$UCSORGTOP
 10
0.0
 20
0.0
 30
0.0
  9
$UCSORGBOTTOM
 10
0.0
 20
0.0
 30
0.0
  9
$UCSORGLEFT
 10
0.0
 20
0.0
 30
0.0
  9
$UCSORGRIGHT
 10
0.0
 20
0.0
 30
0.0
  9
$UCSORGFRONT
 10
0.0
 20
0.0
 30
0.0
  9
$UCSORGBACK
 10
0.0
 20
0.0
 30
0.0
  9
$PUCSBASE
  2

  9
$PUCSNAME
  2

  9
$PUCSORG
 10
0.0
 20
0.0
 30
0.0
  9
$PUCSXDIR
 10
1.0
 20
0.0
 30
0.0
  9
$PUCSYDIR
 10
0.0
 20
1.0
 30
0.0
  9
$PUCSORTHOREF
  2

  9
$PUCSORTHOVIEW
 70
0
  9
$PUCSORGTOP
 10
0.0
 20
0.0
 30
0.0
  9
$PUCSORGBOTTOM
 10
0.0
 20
0.0
 30
0.0
  9
$PUCSORGLEFT
 10
0.0
 20
0.0
 30
0.0
  9
$PUCSORGRIGHT
 10
0.0
 20
0.0
 30
0.0
  9
$PUCSORGFRONT
 10
0.0
 20
0.0
 30
0.0
  9
$PUCSORGBACK
 10
0.0
 20
0.0
 30
0.0
  9
$USERI1
 70
0
  9
$USERI2
 70
0
  9
$USERI3
 70
0
  9
$USERI4
 70
0
  9
$USERI5
 70
0
  9
$USERR1
 40
0.0
  9
$USERR2
 40
0.0
  9
$USERR3
 40
0.0
  9
$USERR4
 40
0.0
  9
$USERR5
 40
0.0
  9
$WORLDVIEW
 70
1
  9
$SHADEDGE
 70
3
  9
$SHADEDIF
 70
70
  9
$TILEMODE
 70
1
  9
$MAXACTVP
 70
64
  9
$PINSBASE
 10
0.0
 20
0.0
 30
0.0
  9
$PLIMCHECK
 70
0
  9
$PEXTMIN
 10
1e+20
 20
1e+20
 30
1e+20
  9
$PEXTMAX
 10
-1e+20
 20
-1e+20
 30
-1e+20
  9
$PLIMMIN
 10
0.0
 20
0.0
  9
$PLIMMAX
 10
420.0
 20
297.0
  9
$UNITMODE
 70
0
  9
$VISRETAIN
 70
1
  9
$PLINEGEN
 70
0
  9
$PSLTSCALE
 70
1
  9
$TREEDEPTH
 70
3020
  9
$CMLSTYLE
  2
Standard
  9
$CMLJUST
 70
0
  9
$CMLSCALE
 40
20.0
  9
$PROXYGRAPHICS
 70
1
  9
$MEASUREMENT
 70
1
  9
$CELWEIGHT
370
-1
  9
$ENDCAPS
280
0
  9
$JOINSTYLE
280
0
  9
$LWDISPLAY
290
0
  9
$INSUNITS
 70
6
  9
$HYPERLINKBASE
  1

  9
$STYLESHEET
  1

  9
$XEDIT
290
1
  9
$CEPSNTYPE
380
0
  9
$PSTYLEMODE
290
1
  9
$FINGERPRINTGUID
  2
{EF668A48-B72C-45D0-9AEE-8D79E04A750A}
  9
$VERSIONGUID
  2
{4FA82A9D-B85A-4B03-A4F1-E30190EB1E11}
  9
$EXTNAMES
290
1
  9
$PSVPSCALE
 40
0.0
  9
$OLESTARTUP
290
0
  9
$SORTENTS
280
127
  9
$INDEXCTL
280
0
  9
$HIDETEXT
280
1
  9
$XCLIPFRAME
280
1
  9
$HALOGAP
280
0
  9
$OBSCOLOR
 70
257
  9
$OBSLTYPE
280
0
  9
$INTERSECTIONDISPLAY
280
0
  9
$INTERSECTIONCOLOR
 70
257
  9
$DIMASSOC
280
2
  9
$PROJECTNAME
  1

  9
$CAMERADISPLAY
290
0
  9
$LENSLENGTH
 40
50.0
  9
$CAMERAHEIGHT
 40
0.0
  9
$STEPSPERSEC
 40
24.0
  9
$STEPSIZE
 40
100.0
  9
$3DDWFPREC
 40
2.0
  9
$PSOLWIDTH
 40
0.005
  9
$PSOLHEIGHT
 40
0.08
  9
$LOFTANG1
 40
1.570796326795
  9
$LOFTANG2
 40
1.570796326795
  9
$LOFTMAG1
 40
0.0
  9
$LOFTMAG2
 40
0.0
  9
$LOFTPARAM
 70
7
  9
$LOFTNORMALS
280
1
  9
$LATITUDE
 40
37.795
  9
$LONGITUDE
 40
-122.394
  9
$NORTHDIRECTION
 40
0.0
  9
$TIMEZONE
 70
-8000
  9
$LIGHTGLYPHDISPLAY
280
1
  9
$TILEMODELIGHTSYNCH
280
1
  9
$CMATERIAL
347
20
  9
$SOLIDHIST
280
0
  9
$SHOWHIST
280
1
  9
$DWFFRAME
280
2
  9
$DGNFRAME
280
2
  9
$REALWORLDSCALE
290
1
  9
$INTERFERECOLOR
 62
256
  9
$CSHADOW
280
0
  9
$SHADOWPLANELOCATION
 40
0.0
  0
ENDSEC
  0
SECTION
  2
CLASSES
  0
CLASS
  1
ACDBDICTIONARYWDFLT
  2
AcDbDictionaryWithDefault
  3
ObjectDBX Classes
 90
0
 91
0
280
0
281
0
  0
CLASS
  1
SUN
  2
AcDbSun
  3
SCENEOE
 90
1153
 91
0
280
0
281
0
  0
CLASS
  1
VISUALSTYLE
  2
AcDbVisualStyle
  3
ObjectDBX Classes
 90
4095
 91
0
280
0
281
0
  0
CLASS
  1
MATERIAL
  2
AcDbMaterial
  3
ObjectDBX Classes
 90
1153
 91
0
280
0
281
0
  0
CLASS
  1
SCALE
  2
AcDbScale
  3
ObjectDBX Classes
 90
1153
 91
0
280
0
281
0
  0
CLASS
  1
TABLESTYLE
  2
AcDbTableStyle
  3
ObjectDBX Classes
 90
4095
 91
0
280
0
281
0
  0
CLASS
  1
MLEADERSTYLE
  2
AcDbMLeaderStyle
  3
ACDB_MLEADERSTYLE_CLASS
 90
4095
 91
0
280
0
281
0
  0
CLASS
  1
DICTIONARYVAR
  2
AcDbDictionaryVar
  3
ObjectDBX Classes
 90
0
 91
0
280
0
281
0
  0
CLASS
  1
CELLSTYLEMAP
  2
AcDbCellStyleMap
  3
ObjectDBX Classes
 90
1152
 91
0
280
0
281
0
  0
CLASS
  1
MENTALRAYRENDERSETTINGS
  2
AcDbMentalRayRenderSettings
  3
SCENEOE
 90
1024
 91
0
280
0
281
0
  0
CLASS
  1
ACDBDETAILVIEWSTYLE
  2
AcDbDetailViewStyle
  3
ObjectDBX Classes
 90
1025
 91
0
280
0
281
0
  0
CLASS
  1
ACDBSECTIONVIEWSTYLE
  2
AcDbSectionViewStyle
  3
ObjectDBX Classes
 90
1025
 91
0
280
0
281
0
  0
CLASS
  1
RASTERVARIABLES
  2
AcDbRasterVariables
  3
ISM
 90
0
 91
0
280
0
281
0
  0
CLASS
  1
ACDBPLACEHOLDER
  2
AcDbPlaceHolder
  3
ObjectDBX Classes
 90
0
 91
0
280
0
281
0
  0
CLASS
  1
LAYOUT
  2
AcDbLayout
  3
ObjectDBX Classes
 90
0
 91
0
280
0
281
0
  0
ENDSEC
  0
SECTION
  2
TABLES
  0
TABLE
  2
VPORT
  5
8
330
0
100
AcDbSymbolTable
 70
1
  0
VPORT
  5
23
330
8
100
AcDbSymbolTableRecord
100
AcDbViewportTableRecord
  2
*Active
 70
0
 10
0.0
 20
0.0
 11
1.0
 21
1.0
 12
0.0
 22
0.0
 13
0.0
 23
0.0
 14
0.5
 24
0.5
 15
0.5
 25
0.5
 16
0.0
 26
0.0
 36
1.0
 17
0.0
 27
0.0
 37
0.0
 40
1000.0
 41
1.34
 42
50.0
 43
0.0
 44
0.0
 50
0.0
 51
0.0
 71
0
 72
1000
 73
1
 74
3
 75
0
 76
0
 77
0
 78
0
281
0
 65
0
146
0.0
  0
ENDTAB
  0
TABLE
  2
LTYPE
  5
2
330
0
100
AcDbSymbolTable
 70
3
  0
LTYPE
  5
24
330
2
100
AcDbSymbolTableRecord
100
AcDbLinetypeTableRecord
  2
ByBlock
 70
0
  3

 72
65
 73
0
 40
0.0
  0
LTYPE
  5
25
330
2
100
AcDbSymbolTableRecord
100
AcDbLinetypeTableRecord
  2
ByLayer
 70
0
  3

 72
65
 73
0
 40
0.0
  0
LTYPE
  5
26
330
2
100
AcDbSymbolTableRecord
100
AcDbLinetypeTableRecord
  2
Continuous
 70
0
  3

 72
65
 73
0
 40
0.0
  0
ENDTAB
  0
TABLE
  2
LAYER
  5
1
330
0
100
AcDbSymbolTable
 70
3
  0
LAYER
  5
27
330
1
100
AcDbSymbolTableRecord
100
AcDbLayerTableRecord
  2
0
 70
0
 62
7
  6
Continuous
370
-3
390
13
347
21
  0
LAYER
  5
28
330
1
100
AcDbSymbolTableRecord
100
AcDbLayerTableRecord
  2
Defpoints
 70
0
 62
7
  6
Continuous
290
0
370
-3
390
13
347
21
  0
LAYER
  5
2F
330
1
100
AcDbSymbolTableRecord
100
AcDbLayerTableRecord
  2
relief
 70
0
 62
7
  6
Continuous
370
-3
390
13
347
21
  0
ENDTAB
  0
TABLE
  2
STYLE
  5
5
330
0
100
AcDbSymbolTable
 70
1
  0
STYLE
  5
29
330
5
100
AcDbSymbolTableRecord
100
AcDbTextStyleTableRecord
  2
Standard
 70
0
 40
0.0
 41
1.0
 50
0.0
 71
0
 42
2.5
  3
txt
  4

  0
ENDTAB
  0
TABLE
  2
VIEW
  5
7
330
0
100
AcDbSymbolTable
 70
0
  0
ENDTAB
  0
TABLE
  2
UCS
  5
6
330
0
100
AcDbSymbolTable
 70
0
  0
ENDTAB
  0
TABLE
  2
APPID
  5
3
330
0
100
AcDbSymbolTable
 70
3
  0
APPID
  5
2A
330
3
100
AcDbSymbolTableRecord
100
AcDbRegAppTableRecord
  2
ACAD
 70
0
  0
APPID
  5
33
330
3
100
AcDbSymbolTableRecord
100
AcDbRegAppTableRecord
  2
HATCHBACKGROUNDCOLOR
 70
0
  0
APPID
  5
34
330
3
100
AcDbSymbolTableRecord
100
AcDbRegAppTableRecord
  2
EZDXF
 70
0
  0
ENDTAB
  0
TABLE
  2
DIMSTYLE
  5
4
330
0
100
AcDbSymbolTable
 70
1
100
AcDbDimStyleTable
  0
DIMSTYLE
105
2B
330
4
100
AcDbSymbolTableRecord
100
AcDbDimStyleTableRecord
  2
Standard
 70
0
 40
1.0
 41
2.5
 42
0.625
 43
3.75
 44
1.25
 45
0.0
 46
0.0
 47
0.0
 48
0.0
 49
2.5
140
2.5
141
2.5
142
0.0
143
0.03937007874
144
1.0
145
0.0
146
1.0
147
0.625
148
0.0
 69
0
 70
0
 71
0
 72
0
 73
0
 74
0
 75
0
 76
0
 77
1
 78
8
 79
3
170
0
171
3
172
1
173
0
174
0
175
0
176
0
177
0
178
0
179
2
271
2
272
2
273
2
274
3
275
0
276
0
277
2
278
44
279
0
280
0
281
0
282
0
283
0
284
8
285
0
286
0
288
0
289
3
290
0
371
-2
372
-2
  0
ENDTAB
  0
TABLE
  2
BLOCK_RECORD
  5
9
330
0
100
AcDbSymbolTable
 70
2
  0
BLOCK_RECORD
  5
17
330
9
100
AcDbSymbolTableRecord
100
AcDbBlockTableRecord
  2
*Model_Space
340
1A
 70
0
280
1
281
0
  0
BLOCK_RECORD
  5
1B
330
9
100
AcDbSymbolTableRecord
100
AcDbBlockTableRecord
  2
*Paper_Space
340
1E
 70
0
280
1
281
0
  0
ENDTAB
  0
ENDSEC
  0
SECTION
  2
BLOCKS
  0
BLOCK
  5
18
330
17
100
AcDbEntity
  8
0
100
AcDbBlockBegin
  2
*Model_Space
 70
0
 10
0.0
 20
0.0
 30
0.0
  3
*Model_Space
  1

  0
ENDBLK
  5
19
330
17
100
AcDbEntity
  8
0
100
AcDbBlockEnd
  0
BLOCK
  5
1C
330
1B
100
AcDbEntity
  8
0
100
AcDbBlockBegin
  2
*Paper_Space
 70
0
 10
0.0
 20
0.0
 30
0.0
  3
*Paper_Space
  1

  0
ENDBLK
  5
1D
330
1B
100
AcDbEntity
  8
0
100
AcDbBlockEnd
  0
ENDSEC
  0
SECTION
  2
ENTITIES
  0
LWPOLYLINE
  5
30
330
17
100
AcDbEntity
  8
relief
100
AcDbPolyline
 90
1997
 70
1
 10
0.5090180360679326
 20
0.0
 10
1.0180360721546657
 20
0.0
 10
1.5270541082219304
 20
0.0
 10
2.0360721442891947
 20
0.0
 10
2.5450901803564596
 20
0.0
 10
3.054108216443193
 20
0.0
 10
3.5631262525104574
 20
0.0
 10
4.0721442885777215
 20
0.0
 10
4.581162324644986
 20
0.0
 10
5.09018036073172
 20
0.0
 10
5.599198396798985
 20
0.0
 10
6.10821643286625
 20
0.0
 10
6.617234468933514
 20
0.0
 10
7.126252505020247
 20
0.0
 10
7.635270541087512
 20
0.0
 10
8.144288577154775
 20
0.0
 10
8.65330661322204
 20
0.0
 10
9.162324649308774
 20
0.0
 10
9.67134268537604
 20
0.0
 10
10.180360721443304
 20
0.0
 10
10.689378757510568
 20
0.0
 10
11.198396793597302
 20
0.0
 10
11.707414829664566
 20
0.0
 10
12.216432865731832
 20
0.0
 10
12.725450901799096
 20
0.0
 10
13.234468937885827
 20
0.0
 10
13.743486973953093
 20
0.0
 10
14.252505010020357
 20
0.0
 10
14.761523046087623
 20
0.0
 10
15.270541082174356
 20
0.0
 10
15.77955911824162
 20
0.0
 10
16.288577154308882
 20
0.0
 10
16.79759519037615
 20
0.0
 10
17.306613226462883
 20
0.0
 10
17.815631262530147
 20
0.0
 10
18.32464929859741
 20
0.0
 10
18.833667334664675
 20
0.0
 10
19.34268537075141
 20
0.0
 10
19.851703406818675
 20
0.0
 10
20.36072144288594
 20
0.0
 10
20.869739478953203
 20
0.0
 10
21.378757515039936
 20
0.0
 10
21.887775551107204
 20
0.0
 10
22.396793587174468
 20
0.0
 10
22.905811623241732
 20
0.0
 10
23.414829659328465
 20
0.0
 10
23.92384769539573
 20
0.0
 10
24.432865731462996
 20
0.0
 10
24.94188376753026
 20
0.0
 10
25.450901803616993
 20
0.0
 10
25.959919839684257
 20
0.0
 10
26.46893787575152
 20
0.0
 10
26.977955911818785
 20
0.0
 10
27.48697394790552
 20
0.0
 10
27.995991983972782
 20
0.0
 10
28.505010020040046
 20
0.0
 10
29.01402805610731
 20
0.0
 10
29.523046092194047
 20
0.0
 10
30.03206412826131
 20
0.0
 10
30.541082164328575
 20
0.0
 10
31.05010020039584
 20
0.0
 10
31.559118236482572
 20
0.0
 10
32.068136272549836
 20
0.0
 10
32.5771543086171
 20
0.0
 10
33.086172344684364
 20
0.0
 10
33.5951903807711
 20
0.0
 10
34.10420841683837
 20
0.0
 10
34.61322645290563
 20
0.0
 10
35.122244488972896
 20
0.0
 10
35.631262525059626
 20
0.0
 10
36.14028056112689
 20
0.0
 10
36.649298597194154
 20
0.0
 10
37.15831663326142
 20
0.0
 10
37.66733466934816
 20
0.0
 10
38.176352705415425
 20
0.0
 10
38.685370741482686
 20
0.0
 10
39.19438877754995
 20
0.0
 10
39.70340681363668
 20
0.0
 10
40.21242484970394
 20
0.0
 10
40.72144288577121
 20
0.0
 10
41.23046092183848
 20
0.0
 10
41.73947895792521
 20
0.0
 10
42.24849699399247
 20
0.0
 10
42.757515030059736
 20
0.0
 10
43.266533066127
 20
0.0
 10
43.77555110221374
 20
0.0
 10
44.284569138281
 20
0.0
 10
44.79358717434827
 20
0.0
 10
45.30260521041553
 20
0.0
 10
45.811623246502265
 20
0.0
 10
46.320641282569525
 20
0.0
 10
46.82965931863679
 20
0.0
 10
47.33867735470405
 20
0.0
 10
47.84769539079079
 20
0.0
 10
48.35671342685806
 20
0.0
 10
48.865731462925325
 20
0.0
 10
49.374749498992585
 20
0.0
 10
49.883767535079315
 20
0.0
 10
50.39278557114658
 20
0.0
 10
50.90180360721385
 20
0.0
 10
51.41082164328111
 20
0.0
 10
51.91983967936785
 20
0.0
 10
52.428857715435115
 20
0.0
 10
52.937875751502375
 20
0.0
 10
53.44689378756964
 20
0.0
 10
53.95591182365637
 20
0.0
 10
54.46492985972364
 20
0.0
 10
54.9739478957909
 20
0.0
 10
55.48296593185817
 20
0.0
 10
55.9919839679449
 20
0.0
 10
56.501002004012165
 20
0.0
 10
57.010020040079425
 20
0.0
 10
57.51903807614669
 20
0.0
 10
58.02805611223343
 20
0.0
 10
58.5370741483007
 20
0.0
 10
59.04609218436796
 20
0.0
 10
59.555110220435225
 20
0.0
 10
60.064128256521954
 20
0.0
 10
60.573146292589215
 20
0.0
 10
61.08216432865648
 20
0.0
 10
61.59118236472375
 20
0.0
 10
62.100200400810486
 20
0.0
 10
62.60921843687775
 20
0.0
 10
63.118236472945014
 20
0.0
 10
63.62725450901228
 20
0.0
 10
64.136272545099
 20
0.0
 10
64.64529058116626
 20
0.0
 10
65.15430861723353
 20
0.0
 10
65.6633266533008
 20
0.0
 10
66.17234468938754
 20
0.0
 10
66.6813627254548
 20
0.0
 10
67.19038076152206
 20
0.0
 10
67.69939879758934
 20
0.0
 10
68.20841683367607
 20
0.0
 10
68.71743486974333
 20
0.0
 10
69.22645290581059
 20
0.0
 10
69.73547094187786
 20
0.0
 10
70.2444889779646
 20
0.0
 10
70.75350701403185
 20
0.0
 10
71.26252505009911
 20
0.0
 10
71.77154308616639
 20
0.0
 10
72.28056112225312
 20
0.0
 10
72.78957915832038
 20
0.0
 10
73.29859719438764
 20
0.0
 10
73.80761523045491
 20
0.0
 10
74.31663326654164
 20
0.0
 10
74.8256513026089
 20
0.0
 10
75.33466933867616
 20
0.0
 10
75.84368737474342
 20
0.0
 10
76.35270541083018
 20
0.0
 10
76.86172344689744
 20
0.0
 10
77.3707414829647
 20
0.0
 10
77.87975951903196
 20
0.0
 10
78.3887775551187
 20
0.0
 10
78.89779559118597
 20
0.0
 10
79.40681362725323
 20
0.0
 10
79.91583166332049
 20
0.0
 10
80.42484969940722
 20
0.0
 10
80.9338677354745
 20
0.0
 10
81.44288577154175
 20
0.0
 10
81.95190380760901
 20
0.0
 10
82.46092184369574
 20
0.0
 10
82.96993987976302
 20
0.0
 10
83.47895791583028
 20
0.0
 10
83.98797595189754
 20
0.0
 10
84.49699398798427
 20
0.0
 10
85.00601202405154
 20
0.0
 10
85.5150300601188
 20
0.0
 10
86.02404809618606
 20
0.0
 10
86.53306613227281
 20
0.0
 10
87.04208416834008
 20
0.0
 10
87.55110220440734
 20
0.0
 10
88.0601202404746
 20
0.0
 10
88.56913827656133
 20
0.0
 10
89.07815631262861
 20
0.0
 10
89.58717434869587
 20
0.0
 10
90.09619238476313
 20
0.0
 10
90.60521042084986
 20
0.0
 10
91.11422845691712
 20
0.0
 10
91.62324649298439
 20
0.0
 10
92.13226452905165
 20
0.0
 10
92.64128256513838
 20
0.0
 10
93.15030060120564
 20
0.0
 10
93.65931863727292
 20
0.0
 10
94.16833667334018
 20
0.0
 10
94.67735470942692
 20
0.0
 10
95.18637274549418
 20
0.0
 10
95.69539078156144
 20
0.0
 10
96.2044088176287
 20
0.0
 10
96.71342685371545
 20
0.0
 10
97.22244488978271
 20
0.0
 10
97.73146292584998
 20
0.0
 10
98.24048096191724
 20
0.0
 10
98.74949899800397
 20
0.0
 10
99.25851703407123
 20
0.0
 10
99.7675350701385
 20
0.0
 10
100.27655310620577
 20
0.0
 10
100.7855711422925
 20
0.0
 10
101.29458917835976
 20
0.0
 10
101.80360721442703
 20
0.0
 10
102.31262525049429
 20
0.0
 10
102.82164328658102
 20
0.0
 10
103.33066132264828
 20
0.0
 10
103.83967935871554
 20
0.0
 10
104.34869739478282
 20
0.0
 10
104.85771543086956
 20
0.0
 10
105.36673346693682
 20
0.0
 10
105.87575150300408
 20
0.0
 10
106.38476953907136
 20
0.0
 10
106.89378757515809
 20
0.0
 10
107.40280561122535
 20
0.0
 10
107.91182364729261
 20
0.0
 10
108.42084168335988
 20
0.0
 10
108.92985971944661
 20
0.0
 10
109.43887775551387
 20
0.0
 10
109.94789579158113
 20
0.0
 10
110.4569138276484
 20
0.0
 10
110.96593186373514
 20
0.0
 10
111.4749498998024
 20
0.0
 10
111.98396793586966
 20
0.0
 10
112.49298597193693
 20
0.0
 10
113.00200400802366
 20
0.0
 10
113.51102204409092
 20
0.0
 10
114.02004008015818
 20
0.0
 10
114.52905811622546
 20
0.0
 10
115.0380761523122
 20
0.0
 10
115.54709418837946
 20
0.0
 10
116.05611222444672
 20
0.0
 10
116.56513026051398
 20
0.0
 10
117.07414829660073
 20
0.0
 10
117.58316633266799
 20
0.0
 10
118.09218436873525
 20
0.0
 10
118.6012024048025
 20
0.0
 10
119.11022044088924
 20
0.0
 10
119.61923847695651
 20
0.0
 10
120.12825651302377
 20
0.0
 10
120.63727454909103
 20
0.0
 10
121.14629258517776
 20
0.0
 10
121.65531062124504
 20
0.0
 10
122.1643286573123
 20
0.0
 10
122.67334669337956
 20
0.0
 10
123.18236472946629
 20
0.0
 10
123.69138276553356
 20
0.0
 10
124.20040080160082
 20
0.0
 10
124.70941883766808
 20
0.0
 10
125.21843687375483
 20
0.0
 10
125.7274549098221
 20
0.0
 10
126.23647294588936
 20
0.0
 10
126.74549098195662
 20
0.0
 10
127.25450901804335
 20
0.0
 10
127.76352705411063
 20
0.0
 10
128.27254509017786
 20
0.0
 10
128.78156312624515
 20
0.0
 10
129.29058116233188
 20
0.0
 10
129.79959919839916
 20
0.0
 10
130.3086172344664
 20
0.0
 10
130.81763527053369
 20
0.0
 10
131.32665330662041
 20
0.0
 10
131.8356713426877
 20
0.0
 10
132.34468937875494
 20
0.0
 10
132.85370741482222
 20
0.0
 10
133.36272545090895
 20
0.0
 10
133.8717434869762
 20
0.0
 10
134.38076152304347
 20
0.0
 10
134.8897795591107
 20
0.0
 10
135.39879759519744
 20
0.0
 10
135.90781563126473
 20
0.0
 10
136.41683366733196
 20
0.0
 10
136.92585170339925
 20
0.0
 10
137.43486973948598
 20
0.0
 10
137.94388777555326
 20
0.0
 10
138.4529058116205
 20
0.0
 10
138.96192384768779
 20
0.0
 10
139.47094188377451
 20
0.0
 10
139.9799599198418
 20
0.0
 10
140.48897795590904
 20
0.0
 10
140.99799599197632
 20
0.0
 10
141.50701402806305
 20
0.0
 10
142.01603206413034
 20
0.0
 10
142.52505010019757
 20
0.0
 10
143.03406813626486
 20
0.0
 10
143.5430861723516
 20
0.0
 10
144.05210420841883
 20
0.0
 10
144.5611222444861
 20
0.0
 10
145.07014028055335
 20
0.0
 10
145.57915831664008
 20
0.0
 10
146.08817635270736
 20
0.0
 10
146.5971943887746
 20
0.0
 10
147.10621242484189
 20
0.0
 10
147.61523046092861
 20
0.0
 10
148.1242484969959
 20
0.0
 10
148.63326653306314
 20
0.0
 10
149.14228456913042
 20
0.0
 10
149.65130260521715
 20
0.0
 10
150.16032064128444
 20
0.0
 10
150.66933867735167
 20
0.0
 10
151.17835671341896
 20
0.0
 10
151.6873747495057
 20
0.0
 10
152.19639278557298
 20
0.0
 10
152.7054108216402
 20
0.0
 10
153.2144288577075
 20
0.0
 10
153.72344689379423
 20
0.0
 10
154.23246492986146
 20
0.0
 10
154.74148296592875
 20
0.0
 10
155.25050100199599
 20
0.0
 10
155.75951903808271
 20
0.0
 10
156.26853707415
 20
0.0
 10
156.77755511021724
 20
0.0
 10
157.28657314628452
 20
0.0
 10
157.79559118237125
 20
0.0
 10
158.3046092184385
 20
0.0
 10
158.81362725450577
 20
0.0
 10
159.32264529057306
 20
0.0
 10
159.8316633266598
 20
0.0
 10
160.34068136272703
 20
0.0
 10
160.84969939879431
 20
0.0
 10
161.3587174348616
 20
0.0
 10
161.86773547094833
 20
0.0
 10
162.37675350701556
 20
0.0
 10
162.88577154308285
 20
0.0
 10
163.39478957915014
 20
0.0
 10
163.90380761523687
 20
0.0
 10
164.4128256513041
 20
0.0
 10
164.9218436873714
 20
0.0
 10
165.43086172343862
 20
0.0
 10
165.93987975952535
 20
0.0
 10
166.44889779559264
 20
0.0
 10
166.95791583165988
 20
0.0
 10
167.46693386772716
 20
0.0
 10
167.9759519038139
 20
0.0
 10
168.48496993988113
 20
0.0
 10
168.99398797594841
 20
0.0
 10
169.5030060120157
 20
0.0
 10
170.01202404810243
 20
0.0
 10
170.52104208416966
 20
0.0
 10
171.03006012023695
 20
0.0
 10
171.53907815630424
 20
0.0
 10
172.04809619239097
 20
0.0
 10
172.5571142284582
 20
0.0
 10
173.0661322645255
 20
0.0
 10
173.57515030059278
 20
0.0
 10
174.0841683366795
 20
0.0
 10
174.59318637274674
 20
0.0
 10
175.10220440881403
 20
0.0
 10
175.61122244488126
 20
0.0
 10
176.120240480968
 20
0.0
 10
176.62925851703528
 20
0.0
 10
177.13827655310251
 20
0.0
 10
177.6472945891698
 20
0.0
 10
178.15631262525653
 20
0.0
 10
178.66533066132376
 20
0.0
 10
179.17434869739105
 20
0.0
 10
179.68336673345829
 20
0.0
 10
180.19238476954507
 20
0.0
 10
180.7014028056123
 20
0.0
 10
181.2104208416796
 20
0.0
 10
181.71943887774682
 20
0.0
 10
182.22845691383355
 20
0.0
 10
182.73747494990084
 20
0.0
 10
183.24649298596813
 20
0.0
 10
183.75551102203536
 20
0.0
 10
184.2645290581221
 20
0.0
 10
184.77354709418938
 20
0.0
 10
185.28256513025667
 20
0.0
 10
185.7915831663239
 20
0.0
 10
186.30060120241063
 20
0.0
 10
186.80961923847792
 20
0.0
 10
187.31863727454515
 20
0.0
 10
187.82765531061244
 20
0.0
 10
188.33667334669917
 20
0.0
 10
188.8456913827664
 20
0.0
 10
189.3547094188337
 20
0.0
 10
189.86372745490092
 20
0.0
 10
190.3727454909877
 20
0.0
 10
190.88176352705494
 20
0.0
 10
191.39078156312223
 20
0.0
 10
191.89979959918946
 20
0.0
 10
192.4088176352762
 20
0.0
 10
192.91783567134348
 20
0.0
 10
193.42685370741077
 20
0.0
 10
193.935871743478
 20
0.0
 10
194.44488977956473
 20
0.0
 10
194.95390781563202
 20
0.0
 10
195.4629258516993
 20
0.0
 10
195.97194388776654
 20
0.0
 10
196.48096192385327
 20
0.0
 10
196.98997995992056
 20
0.0
 10
197.4989979959878
 20
0.0
 10
198.00801603205508
 20
0.0
 10
198.5170340681418
 20
0.0
 10
199.02605210420904
 20
0.0
 10
199.53507014027633
 20
0.0
 10
200.04408817634356
 20
0.0
 10
200.55310621243035
 20
0.0
 10
201.06212424849758
 20
0.0
 10
201.57114228456487
 20
0.0
 10
202.0801603206321
 20
0.0
 10
202.58917835671883
 20
0.0
 10
203.09819639278612
 20
0.0
 10
203.6072144288534
 20
0.0
 10
204.11623246492064
 20
0.0
 10
204.62525050100737
 20
0.0
 10
205.13426853707466
 20
0.0
 10
205.64328657314195
 20
0.0
 10
206.15230460920918
 20
0.0
 10
206.6613226452959
 20
0.0
 10
207.1703406813632
 20
0.0
 10
207.67935871743043
 20
0.0
 10
208.18837675349772
 20
0.0
 10
208.69739478958445
 20
0.0
 10
209.20641282565168
 20
0.0
 10
209.71543086171897
 20
0.0
 10
210.2244488977862
 20
0.0
 10
210.733466933873
 20
0.0
 10
211.24248496994022
 20
0.0
 10
211.7515030060075
 20
0.0
 10
212.26052104207474
 20
0.0
 10
212.76953907816147
 20
0.0
 10
213.27855711422876
 20
0.0
 10
213.787575150296
 20
0.0
 10
214.29659318636328
 20
0.0
 10
214.80561122245
 20
0.0
 10
215.3146292585173
 20
0.0
 10
215.82364729458453
 20
0.0
 10
216.33266533065182
 20
0.0
 10
216.84168336673855
 20
0.0
 10
217.35070140280584
 20
0.0
 10
217.85971943887307
 20
0.0
 10
218.36873747494036
 20
0.0
 10
218.8777555110271
 20
0.0
 10
219.38677354709432
 20
0.0
 10
219.8957915831616
 20
0.0
 10
220.40480961922884
 20
0.0
 10
220.91382765531563
 20
0.0
 10
221.42284569138286
 20
0.0
 10
221.93186372745015
 20
0.0
 10
222.44088176351738
 20
0.0
 10
222.9498997996041
 20
0.0
 10
223.4589178356714
 20
0.0
 10
223.96793587173863
 20
0.0
 10
224.47695390780592
 20
0.0
 10
224.98597194389265
 20
0.0
 10
225.49498997995994
 20
0.0
 10
226.00400801602717
 20
0.0
 10
226.51302605209446
 20
0.0
 10
227.0220440881812
 20
0.0
 10
227.53106212424848
 20
0.0
 10
228.0400801603157
 20
0.0
 10
228.549098196383
 20
0.0
 10
229.05811623246973
 20
0.0
 10
229.56713426853696
 20
0.0
 10
230.07615230460425
 20
0.0
 10
230.58517034067148
 20
0.0
 10
231.09418837675827
 20
0.0
 10
231.6032064128255
 20
0.0
 10
232.1122244488928
 20
0.0
 10
232.62124248496002
 20
0.0
 10
233.13026052104675
 20
0.0
 10
233.63927855711404
 20
0.0
 10
234.14829659318127
 20
0.0
 10
234.65731462924856
 20
0.0
 10
235.1663326653353
 20
0.0
 10
235.67535070140252
 20
0.0
 10
236.1843687374698
 20
0.0
 10
236.6933867735371
 20
0.0
 10
237.20240480962383
 20
0.0
 10
237.71142284569106
 20
0.0
 10
238.22044088175835
 20
0.0
 10
238.72945891782564
 20
0.0
 10
239.23847695391237
 20
0.0
 10
239.7474949899796
 20
0.0
 10
240.2565130260469
 20
0.0
 10
240.76553106211412
 20
0.0
 10
241.2745490982009
 20
0.0
 10
241.78356713426814
 20
0.0
 10
242.29258517033543
 20
0.0
 10
242.80160320640266
 20
0.0
 10
243.3106212424894
 20
0.0
 10
243.81963927855668
 20
0.0
 10
244.3286573146239
 20
0.0
 10
244.8376753506912
 20
0.0
 10
245.34669338677793
 20
0.0
 10
245.85571142284516
 20
0.0
 10
246.36472945891245
 20
0.0
 10
246.87374749497974
 20
0.0
 10
247.38276553106647
 20
0.0
 10
247.8917835671337
 20
0.0
 10
248.400801603201
 20
0.0
 10
248.90981963926828
 20
0.0
 10
249.418837675355
 20
0.0
 10
249.92785571142224
 20
0.0
 10
250.43687374748953
 20
0.0
 10
250.94589178355676
 20
0.0
 10
251.45490981964355
 20
0.0
 10
251.96392785571078
 20
0.0
 10
252.47294589177807
 20
0.0
 10
252.9819639278453
 20
0.0
 10
253.49098196393203
 20
0.0
 10
253.99999999999932
 20
0.0
 10
253.99999999999932
 20
0.5090180360684308
 10
253.99999999999932
 20
1.0180360721493822
 10
253.99999999999932
 20
1.5270541082178128
 10
253.99999999999932
 20
2.0360721442862437
 10
253.99999999999932
 20
2.5450901803546744
 10
253.99999999999932
 20
3.0541082164356257
 10
253.99999999999932
 20
3.563126252504057
 10
253.99999999999932
 20
4.0721442885724874
 10
253.99999999999932
 20
4.581162324653439
 10
253.99999999999932
 20
5.090180360721869
 10
253.99999999999932
 20
5.5991983967903005
 10
253.99999999999932
 20
6.108216432871251
 10
253.99999999999932
 20
6.6172344689396825
 10
253.99999999999932
 20
7.126252505008114
 10
253.99999999999932
 20
7.635270541076544
 10
253.99999999999932
 20
8.144288577157495
 10
253.99999999999932
 20
8.653306613225926
 10
253.99999999999932
 20
9.162324649294357
 10
253.99999999999932
 20
9.671342685375308
 10
253.99999999999932
 20
10.180360721443739
 10
253.99999999999932
 20
10.68937875751217
 10
253.99999999999932
 20
11.19839679359312
 10
253.99999999999932
 20
11.707414829661552
 10
253.99999999999932
 20
12.216432865729983
 10
253.99999999999932
 20
12.725450901798414
 10
253.99999999999932
 20
13.234468937879365
 10
253.99999999999932
 20
13.743486973947796
 10
253.99999999999932
 20
14.252505010016227
 10
253.99999999999932
 20
14.761523046097178
 10
253.99999999999932
 20
15.27054108216561
 10
253.99999999999932
 20
15.77955911823404
 10
253.99999999999932
 20
16.28857715430247
 10
253.99999999999932
 20
16.797595190383422
 10
253.99999999999932
 20
17.30661322645185
 10
253.99999999999932
 20
17.815631262520284
 10
253.99999999999932
 20
18.324649298601233
 10
253.99999999999932
 20
18.833667334669666
 10
253.99999999999932
 20
19.342685370738096
 10
253.99999999999932
 20
19.85170340681905
 10
253.99999999999932
 20
20.360721442887478
 10
253.99999999999932
 20
20.86973947895591
 10
253.99999999999932
 20
21.37875751502434
 10
253.99999999999932
 20
21.887775551105292
 10
253.99999999999932
 20
22.396793587173722
 10
253.99999999999932
 20
22.90581162324215
 10
253.99999999999932
 20
23.414829659323104
 10
253.99999999999932
 20
23.923847695391537
 10
253.99999999999932
 20
24.432865731459966
 10
253.99999999999932
 20
24.94188376754092
 10
253.99999999999932
 20
25.450901803609348
 10
253.99999999999932
 20
25.959919839677777
 10
253.99999999999932
 20
26.46893787574621
 10
253.99999999999932
 20
26.97795591182716
 10
253.99999999999932
 20
27.486973947895592
 10
253.99999999999932
 20
27.99599198396402
 10
253.99999999999932
 20
28.505010020044974
 10
253.99999999999932
 20
29.014028056113403
 10
253.99999999999932
 20
29.523046092181836
 10
253.99999999999932
 20
30.032064128250266
 10
253.99999999999932
 20
30.54108216433122
 10
253.99999999999932
 20
31.050100200399648
 10
253.99999999999932
 20
31.55911823646808
 10
253.99999999999932
 20
32.06813627254903
 10
253.99999999999932
 20
32.57715430861746
 10
253.99999999999932
 20
33.08617234468589
 10
253.99999999999932
 20
33.595190380766844
 10
253.99999999999932
 20
34.10420841683528
 10
253.99999999999932
 20
34.6132264529037
 10
253.99999999999932
 20
35.122244488972136
 10
253.99999999999932
 20
35.63126252505309
 10
253.99999999999932
 20
36.140280561121514
 10
253.99999999999932
 20
36.64929859718995
 10
253.99999999999932
 20
37.1583166332709
 10
253.99999999999932
 20
37.66733466933933
 10
253.99999999999932
 20
38.17635270540776
 10
253.99999999999932
 20
38.68537074148871
 10
253.99999999999932
 20
39.194388777557144
 10
253.99999999999932
 20
39.70340681362558
 10
253.99999999999932
 20
40.212424849694
 10
253.99999999999932
 20
40.721442885774955
 10
253.99999999999932
 20
41.23046092184339
 10
253.99999999999932
 20
41.73947895791182
 10
253.99999999999932
 20
42.24849699399277
 10
253.99999999999932
 20
42.7575150300612
 10
253.99999999999932
 20
43.26653306612963
 10
253.99999999999932
 20
43.775551102210585
 10
253.99999999999932
 20
44.28456913827901
 10
253.99999999999932
 20
44.793587174347444
 10
253.99999999999932
 20
45.30260521041588
 10
253.99999999999932
 20
45.81162324649683
 10
253.99999999999932
 20
46.320641282565255
 10
253.99999999999932
 20
46.82965931863369
 10
253.99999999999932
 20
47.33867735471464
 10
253.99999999999932
 20
47.84769539078307
 10
253.99999999999932
 20
48.3567134268515
 10
253.99999999999932
 20
48.86573146291993
 10
253.99999999999932
 20
49.374749499000885
 10
253.99999999999932
 20
49.88376753506931
 10
253.99999999999932
 20
50.39278557113774
 10
253.99999999999932
 20
50.901803607218696
 10
253.99999999999932
 20
51.41082164328713
 10
253.99999999999932
 20
51.919839679355555
 10
253.99999999999932
 20
52.42885771543651
 10
253.99999999999932
 20
52.93787575150494
 10
253.99999999999932
 20
53.44689378757337
 10
253.99999999999932
 20
53.9559118236418
 10
253.99999999999932
 20
54.46492985972275
 10
253.99999999999932
 20
54.973947895791184
 10
253.99999999999932
 20
55.48296593185962
 10
253.99999999999932
 20
55.99198396794056
 10
253.99999999999932
 20
56.501002004008996
 10
253.99999999999932
 20
57.01002004007743
 10
253.99999999999932
 20
57.51903807615838
 10
253.99999999999932
 20
58.02805611222681
 10
253.99999999999932
 20
58.53707414829524
 10
253.99999999999932
 20
59.04609218436367
 10
253.99999999999932
 20
59.555110220444625
 10
253.99999999999932
 20
60.06412825651305
 10
253.99999999999932
 20
60.573146292581484
 10
253.99999999999932
 20
61.08216432866244
 10
253.99999999999932
 20
61.59118236473086
 10
253.99999999999932
 20
62.100200400799295
 10
253.99999999999932
 20
62.60921843686773
 10
253.99999999999932
 20
63.11823647294868
 10
253.99999999999932
 20
63.627254509017106
 10
253.99999999999932
 20
64.13627254508555
 10
253.99999999999932
 20
64.64529058116649
 10
253.99999999999932
 20
65.15430861723492
 10
253.99999999999932
 20
65.66332665330336
 10
253.99999999999932
 20
66.1723446893843
 10
253.99999999999932
 20
66.68136272545273
 10
253.99999999999932
 20
67.19038076152117
 10
253.99999999999932
 20
67.6993987975896
 10
253.99999999999932
 20
68.20841683367055
 10
253.99999999999932
 20
68.71743486973898
 10
253.99999999999932
 20
69.2264529058074
 10
253.99999999999932
 20
69.73547094188837
 10
253.99999999999932
 20
70.24448897795679
 10
253.99999999999932
 20
70.75350701402522
 10
253.99999999999932
 20
71.26252505010618
 10
253.99999999999932
 20
71.7715430861746
 10
253.99999999999932
 20
72.28056112224303
 10
253.99999999999932
 20
72.78957915831147
 10
253.99999999999932
 20
73.29859719439241
 10
253.99999999999932
 20
73.80761523046085
 10
253.99999999999932
 20
74.31663326652928
 10
253.99999999999932
 20
74.82565130261023
 10
253.99999999999932
 20
75.33466933867867
 10
253.99999999999932
 20
75.84368737474709
 10
253.99999999999932
 20
76.35270541081552
 10
253.99999999999932
 20
76.86172344689648
 10
253.99999999999932
 20
77.3707414829649
 10
253.99999999999932
 20
77.87975951903334
 10
253.99999999999932
 20
78.38877755511429
 10
253.99999999999932
 20
78.89779559118271
 10
253.99999999999932
 20
79.40681362725115
 10
253.99999999999932
 20
79.9158316633321
 10
253.99999999999932
 20
80.42484969940053
 10
253.99999999999932
 20
80.93386773546897
 10
253.99999999999932
 20
81.44288577153739
 10
253.99999999999932
 20
81.95190380761835
 10
253.99999999999932
 20
82.46092184368678
 10
253.99999999999932
 20
82.9699398797552
 10
253.99999999999932
 20
83.47895791583616
 10
253.99999999999932
 20
83.98797595190459
 10
253.99999999999932
 20
84.49699398797301
 10
253.99999999999932
 20
85.00601202405397
 10
253.99999999999932
 20
85.5150300601224
 10
253.99999999999932
 20
86.02404809619082
 10
253.99999999999932
 20
86.53306613225926
 10
253.99999999999932
 20
87.04208416834021
 10
253.99999999999932
 20
87.55110220440865
 10
253.99999999999932
 20
88.06012024047708
 10
253.99999999999932
 20
88.56913827655802
 10
253.99999999999932
 20
89.07815631262646
 10
253.99999999999932
 20
89.58717434869489
 10
253.99999999999932
 20
90.09619238476331
 10
253.99999999999932
 20
90.60521042084427
 10
253.99999999999932
 20
91.1142284569127
 10
253.99999999999932
 20
91.62324649298114
 10
253.99999999999932
 20
92.13226452906208
 10
253.99999999999932
 20
92.64128256513051
 10
253.99999999999932
 20
93.15030060119895
 10
253.99999999999932
 20
93.6593186372799
 10
253.99999999999932
 20
94.16833667334832
 10
253.99999999999932
 20
94.67735470941676
 10
253.99999999999932
 20
95.18637274548519
 10
253.99999999999932
 20
95.69539078156615
 10
253.99999999999932
 20
96.20440881763457
 10
253.99999999999932
 20
96.713426853703
 10
253.99999999999932
 20
97.22244488978396
 10
253.99999999999932
 20
97.73146292585238
 10
253.99999999999932
 20
98.24048096192081
 10
253.99999999999932
 20
98.74949899800177
 10
253.99999999999932
 20
99.2585170340702
 10
253.99999999999932
 20
99.76753507013862
 10
253.99999999999932
 20
100.27655310620706
 10
253.99999999999932
 20
100.785571142288
 10
253.99999999999932
 20
101.29458917835645
 10
253.99999999999932
 20
101.80360721442487
 10
253.99999999999932
 20
102.31262525050582
 10
253.99999999999932
 20
102.82164328657426
 10
253.99999999999932
 20
103.33066132264268
 10
253.99999999999932
 20
103.83967935872363
 10
253.99999999999932
 20
104.34869739479207
 10
253.99999999999932
 20
104.8577154308605
 10
253.99999999999932
 20
105.36673346692893
 10
253.99999999999932
 20
105.87575150300988
 10
253.99999999999932
 20
106.3847695390783
 10
253.99999999999932
 20
106.89378757514675
 10
253.99999999999932
 20
107.40280561122769
 10
253.99999999999932
 20
107.91182364729612
 10
253.99999999999932
 20
108.42084168336456
 10
253.99999999999932
 20
108.92985971943298
 10
253.99999999999932
 20
109.43887775551394
 10
253.99999999999932
 20
109.94789579158237
 10
253.99999999999932
 20
110.4569138276508
 10
253.99999999999932
 20
110.96593186373175
 10
253.99999999999932
 20
111.47494989980018
 10
253.99999999999932
 20
111.9839679358686
 10
253.99999999999932
 20
112.49298597194957
 10
253.99999999999932
 20
113.00200400801799
 10
253.99999999999932
 20
113.51102204408642
 10
253.99999999999932
 20
114.02004008015486
 10
253.99999999999932
 20
114.5290581162358
 10
253.99999999999932
 20
115.03807615230424
 10
253.99999999999932
 20
115.54709418837267
 10
253.99999999999932
 20
116.05611222445361
 10
253.99999999999932
 20
116.56513026052205
 10
253.99999999999932
 20
117.07414829659048
 10
253.99999999999932
 20
117.58316633267142
 10
253.99999999999932
 20
118.09218436873986
 10
253.99999999999932
 20
118.60120240480829
 10
253.99999999999932
 20
119.11022044087672
 10
253.99999999999932
 20
119.61923847695768
 10
253.99999999999932
 20
120.1282565130261
 10
253.99999999999932
 20
120.63727454909454
 10
253.99999999999932
 20
121.14629258517549
 10
253.99999999999932
 20
121.65531062124391
 10
253.99999999999932
 20
122.16432865731235
 10
253.99999999999932
 20
122.67334669338078
 10
253.99999999999932
 20
123.18236472946172
 10
253.99999999999932
 20
123.69138276553016
 10
253.99999999999932
 20
124.20040080159859
 10
253.99999999999932
 20
124.70941883767955
 10
253.99999999999932
 20
125.21843687374798
 10
253.99999999999932
 20
125.7274549098164
 10
253.99999999999932
 20
126.23647294589736
 10
253.99999999999932
 20
126.74549098196579
 10
253.99999999999932
 20
127.25450901803421
 10
253.99999999999932
 20
127.76352705410265
 10
253.99999999999932
 20
128.2725450901836
 10
253.99999999999932
 20
128.78156312625202
 10
253.99999999999932
 20
129.29058116232045
 10
253.99999999999932
 20
129.7995991984014
 10
253.99999999999932
 20
130.30861723446984
 10
253.99999999999932
 20
130.8176352705383
 10
253.99999999999932
 20
131.32665330661922
 10
253.99999999999932
 20
131.83567134268765
 10
253.99999999999932
 20
132.3446893787561
 10
253.99999999999932
 20
132.85370741482453
 10
253.99999999999932
 20
133.36272545090546
 10
253.99999999999932
 20
133.8717434869739
 10
253.99999999999932
 20
134.38076152304234
 10
253.99999999999932
 20
134.8897795591233
 10
253.99999999999932
 20
135.39879759519172
 10
253.99999999999932
 20
135.90781563126015
 10
253.99999999999932
 20
136.41683366732858
 10
253.99999999999932
 20
136.92585170340953
 10
253.99999999999932
 20
137.43486973947796
 10
253.99999999999932
 20
137.9438877755464
 10
253.99999999999932
 20
138.45290581162735
 10
253.99999999999932
 20
138.96192384769577
 10
253.99999999999932
 20
139.4709418837642
 10
253.99999999999932
 20
139.97995991984516
 10
253.99999999999932
 20
140.48897795591358
 10
253.99999999999932
 20
140.997995991982
 10
253.99999999999932
 20
141.50701402805043
 10
253.99999999999932
 20
142.0160320641314
 10
253.99999999999932
 20
142.52505010019982
 10
253.99999999999932
 20
143.03406813626825
 10
253.99999999999932
 20
143.5430861723492
 10
253.99999999999932
 20
144.05210420841763
 10
253.99999999999932
 20
144.56112224448606
 10
253.99999999999932
 20
145.07014028056702
 10
253.99999999999932
 20
145.57915831663544
 10
253.99999999999932
 20
146.0881763527039
 10
253.99999999999932
 20
146.59719438877232
 10
253.99999999999932
 20
147.10621242485325
 10
253.99999999999932
 20
147.6152304609217
 10
253.99999999999932
 20
148.12424849699013
 10
253.99999999999932
 20
148.63326653307107
 10
253.99999999999932
 20
149.14228456913952
 10
253.99999999999932
 20
149.65130260520795
 10
253.99999999999932
 20
150.16032064127637
 10
253.99999999999932
 20
150.66933867735733
 10
253.99999999999932
 20
151.17835671342576
 10
253.99999999999932
 20
151.68737474949418
 10
253.99999999999932
 20
152.19639278557514
 10
253.99999999999932
 20
152.70541082164357
 10
253.99999999999932
 20
153.214428857712
 10
253.99999999999932
 20
153.72344689379295
 10
253.99999999999932
 20
154.23246492986138
 10
253.99999999999932
 20
154.7414829659298
 10
253.99999999999932
 20
155.25050100199823
 10
253.99999999999932
 20
155.7595190380792
 10
253.99999999999932
 20
156.26853707414762
 10
253.99999999999932
 20
156.77755511021604
 10
253.99999999999932
 20
157.286573146297
 10
253.99999999999932
 20
157.79559118236543
 10
253.99999999999932
 20
158.30460921843385
 10
253.99999999999932
 20
158.8136272545148
 10
253.99999999999932
 20
159.32264529058324
 10
253.99999999999932
 20
159.8316633266517
 10
253.99999999999932
 20
160.34068136272012
 10
253.99999999999932
 20
160.84969939880105
 10
253.99999999999932
 20
161.3587174348695
 10
253.99999999999932
 20
161.86773547093793
 10
253.99999999999932
 20
162.37675350701886
 10
253.99999999999932
 20
162.88577154308732
 10
253.99999999999932
 20
163.39478957915574
 10
253.99999999999932
 20
163.9038076152367
 10
253.99999999999932
 20
164.41282565130513
 10
253.99999999999932
 20
164.92184368737355
 10
253.99999999999932
 20
165.43086172344198
 10
253.99999999999932
 20
165.93987975952294
 10
253.99999999999932
 20
166.44889779559136
 10
253.99999999999932
 20
166.9579158316598
 10
253.99999999999932
 20
167.46693386774075
 10
253.99999999999932
 20
167.97595190380918
 10
253.99999999999932
 20
168.4849699398776
 10
253.99999999999932
 20
168.99398797594603
 10
253.99999999999932
 20
169.503006012027
 10
253.99999999999932
 20
170.0120240480954
 10
253.99999999999932
 20
170.52104208416384
 10
253.99999999999932
 20
171.0300601202448
 10
253.99999999999932
 20
171.53907815631322
 10
253.99999999999932
 20
172.04809619238165
 10
253.99999999999932
 20
172.5571142284626
 10
253.99999999999932
 20
173.06613226453103
 10
253.99999999999932
 20
173.5751503005995
 10
253.99999999999932
 20
174.08416833666791
 10
253.99999999999932
 20
174.59318637274885
 10
253.99999999999932
 20
175.1022044088173
 10
253.99999999999932
 20
175.61122244488573
 10
253.99999999999932
 20
176.12024048096666
 10
253.99999999999932
 20
176.6292585170351
 10
253.99999999999932
 20
177.13827655310354
 10
253.99999999999932
 20
177.6472945891845
 10
253.99999999999932
 20
178.15631262525292
 10
253.99999999999932
 20
178.66533066132135
 10
253.99999999999932
 20
179.17434869738977
 10
253.99999999999932
 20
179.68336673347073
 10
253.99999999999932
 20
180.19238476953916
 10
253.99999999999932
 20
180.7014028056076
 10
253.99999999999932
 20
181.21042084168855
 10
253.99999999999932
 20
181.71943887775697
 10
253.99999999999932
 20
182.2284569138254
 10
253.99999999999932
 20
182.73747494989382
 10
253.99999999999932
 20
183.24649298597478
 10
253.99999999999932
 20
183.7555110220432
 10
253.99999999999932
 20
184.26452905811163
 10
253.99999999999932
 20
184.7735470941926
 10
253.99999999999932
 20
185.28256513026102
 10
253.99999999999932
 20
185.79158316632945
 10
253.99999999999932
 20
186.3006012024104
 10
253.99999999999932
 20
186.80961923847883
 10
253.99999999999932
 20
187.31863727454729
 10
253.99999999999932
 20
187.8276553106157
 10
253.99999999999932
 20
188.33667334669664
 10
253.99999999999932
 20
188.8456913827651
 10
253.99999999999932
 20
189.35470941883352
 10
253.99999999999932
 20
189.86372745491445
 10
253.99999999999932
 20
190.3727454909829
 10
253.99999999999932
 20
190.88176352705133
 10
253.99999999999932
 20
191.3907815631323
 10
253.99999999999932
 20
191.89979959920072
 10
253.99999999999932
 20
192.40881763526914
 10
253.99999999999932
 20
192.91783567133757
 10
253.99999999999932
 20
193.42685370741853
 10
253.99999999999932
 20
193.93587174348696
 10
253.99999999999932
 20
194.44488977955538
 10
253.99999999999932
 20
194.95390781563634
 10
253.99999999999932
 20
195.46292585170477
 10
253.99999999999932
 20
195.9719438877732
 10
253.99999999999932
 20
196.48096192384162
 10
253.99999999999932
 20
196.98997995992258
 10
253.99999999999932
 20
197.498997995991
 10
253.99999999999932
 20
198.00801603205943
 10
253.99999999999932
 20
198.5170340681404
 10
253.99999999999932
 20
199.02605210420882
 10
253.99999999999932
 20
199.53507014027724
 10
253.99999999999932
 20
200.0440881763582
 10
253.99999999999932
 20
200.55310621242663
 10
253.99999999999932
 20
201.06212424849508
 10
253.99999999999932
 20
201.5711422845635
 10
253.99999999999932
 20
202.08016032064444
 10
253.99999999999932
 20
202.5891783567129
 10
253.99999999999932
 20
203.09819639278132
 10
253.99999999999932
 20
203.60721442886225
 10
253.99999999999932
 20
204.1162324649307
 10
253.99999999999932
 20
204.62525050099913
 10
253.99999999999932
 20
205.1342685370801
 10
253.99999999999932
 20
205.64328657314852
 10
253.99999999999932
 20
206.15230460921694
 10
253.99999999999932
 20
206.66132264528537
 10
253.99999999999932
 20
207.17034068136633
 10
253.99999999999932
 20
207.67935871743475
 10
253.99999999999932
 20
208.18837675350318
 10
253.99999999999932
 20
208.69739478958414
 10
253.99999999999932
 20
209.20641282565256
 10
253.99999999999932
 20
209.715430861721
 10
253.99999999999932
 20
210.22444889778942
 10
253.99999999999932
 20
210.73346693387037
 10
253.99999999999932
 20
211.2424849699388
 10
253.99999999999932
 20
211.75150300600723
 10
253.99999999999932
 20
212.2605210420882
 10
253.99999999999932
 20
212.7695390781566
 10
253.99999999999932
 20
213.27855711422504
 10
253.99999999999932
 20
213.787575150306
 10
253.99999999999932
 20
214.29659318637442
 10
253.99999999999932
 20
214.80561122244288
 10
253.99999999999932
 20
215.3146292585113
 10
253.99999999999932
 20
215.82364729459223
 10
253.99999999999932
 20
216.3326653306607
 10
253.99999999999932
 20
216.84168336672911
 10
253.99999999999932
 20
217.35070140281005
 10
253.99999999999932
 20
217.8597194388785
 10
253.99999999999932
 20
218.36873747494693
 10
253.99999999999932
 20
218.87775551102789
 10
253.99999999999932
 20
219.3867735470963
 10
253.99999999999932
 20
219.89579158316474
 10
253.99999999999932
 20
220.40480961923316
 10
253.99999999999932
 20
220.91382765531412
 10
253.99999999999932
 20
221.42284569138255
 10
253.99999999999932
 20
221.93186372745097
 10
253.99999999999932
 20
222.44088176353193
 10
253.99999999999932
 20
222.94989979960036
 10
253.99999999999932
 20
223.45891783566879
 10
253.99999999999932
 20
223.9679358717372
 10
253.99999999999932
 20
224.47695390781817
 10
253.99999999999932
 20
224.9859719438866
 10
253.99999999999932
 20
225.49498997995502
 10
253.99999999999932
 20
226.00400801603598
 10
253.99999999999932
 20
226.5130260521044
 10
253.99999999999932
 20
227.02204408817283
 10
253.99999999999932
 20
227.5310621242538
 10
253.99999999999932
 20
228.04008016032222
 10
253.99999999999932
 20
228.54909819639067
 10
253.99999999999932
 20
229.0581162324591
 10
253.99999999999932
 20
229.56713426854003
 10
253.99999999999932
 20
230.07615230460848
 10
253.99999999999932
 20
230.5851703406769
 10
253.99999999999932
 20
231.09418837675784
 10
253.99999999999932
 20
231.6032064128263
 10
253.99999999999932
 20
232.11222444889472
 10
253.99999999999932
 20
232.62124248497565
 10
253.99999999999932
 20
233.1302605210441
 10
253.99999999999932
 20
233.63927855711253
 10
253.99999999999932
 20
234.14829659318096
 10
253.99999999999932
 20
234.65731462926192
 10
253.99999999999932
 20
235.16633266533034
 10
253.99999999999932
 20
235.67535070139877
 10
253.99999999999932
 20
236.18436873747973
 10
253.99999999999932
 20
236.69338677354816
 10
253.99999999999932
 20
237.20240480961658
 10
253.99999999999932
 20
237.71142284569754
 10
253.99999999999932
 20
238.22044088176597
 10
253.99999999999932
 20
238.7294589178344
 10
253.99999999999932
 20
239.23847695390282
 10
253.99999999999932
 20
239.74749498998378
 10
253.99999999999932
 20
240.2565130260522
 10
253.99999999999932
 20
240.76553106212063
 10
253.99999999999932
 20
241.2745490982016
 10
253.99999999999932
 20
241.78356713427002
 10
253.99999999999932
 20
242.29258517033844
 10
253.99999999999932
 20
242.8016032064069
 10
253.99999999999932
 20
243.31062124248783
 10
253.99999999999932
 20
243.81963927855628
 10
253.99999999999932
 20
244.3286573146247
 10
253.99999999999932
 20
244.83767535070564
 10
253.99999999999932
 20
245.3466933867741
 10
253.99999999999932
 20
245.85571142284252
 10
253.99999999999932
 20
246.36472945892345
 10
253.99999999999932
 20
246.8737474949919
 10
253.99999999999932
 20
247.38276553106033
 10
253.99999999999932
 20
247.89178356712875
 10
253.99999999999932
 20
248.40080160320971
 10
253.99999999999932
 20
248.90981963927814
 10
253.99999999999932
 20
249.41883767534657
 10
253.99999999999932
 20
249.92785571142753
 10
253.99999999999932
 20
250.43687374749595
 10
253.99999999999932
 20
250.94589178356438
 10
253.99999999999932
 20
251.45490981964534
 10
253.99999999999932
 20
251.96392785571376
 10
253.99999999999932
 20
252.4729458917822
 10
253.99999999999932
 20
252.98196392785061
 10
253.99999999999932
 20
253.49098196393157
 10
253.99999999999932
 20
254.0
 10
253.49098196393203
 20
254.0
 10
252.9819639278453
 20
254.0
 10
252.47294589177807
 20
254.0
 10
251.96392785571078
 20
254.0
 10
251.45490981964355
 20
254.0
 10
250.94589178355676
 20
254.0
 10
250.43687374748953
 20
254.0
 10
249.92785571142224
 20
254.0
 10
249.418837675355
 20
254.0
 10
248.90981963926828
 20
254.0
 10
248.400801603201
 20
254.0
 10
247.8917835671337
 20
254.0
 10
247.38276553106647
 20
254.0
 10
246.87374749497974
 20
254.0
 10
246.36472945891245
 20
254.0
 10
245.85571142284516
 20
254.0
 10
245.34669338677793
 20
254.0
 10
244.8376753506912
 20
254.0
 10
244.3286573146239
 20
254.0
 10
243.81963927855668
 20
254.0
 10
243.3106212424894
 20
254.0
 10
242.80160320640266
 20
254.0
 10
242.29258517033543
 20
254.0
 10
241.78356713426814
 20
254.0
 10
241.2745490982009
 20
254.0
 10
240.76553106211412
 20
254.0
 10
240.2565130260469
 20
254.0
 10
239.7474949899796
 20
254.0
 10
239.23847695391237
 20
254.0
 10
238.72945891782564
 20
254.0
 10
238.22044088175835
 20
254.0
 10
237.71142284569106
 20
254.0
 10
237.20240480962383
 20
254.0
 10
236.6933867735371
 20
254.0
 10
236.1843687374698
 20
254.0
 10
235.67535070140252
 20
254.0
 10
235.1663326653353
 20
254.0
 10
234.65731462924856
 20
254.0
 10
234.14829659318127
 20
254.0
 10
233.63927855711404
 20
254.0
 10
233.13026052104675
 20
254.0
 10
232.62124248496002
 20
254.0
 10
232.1122244488928
 20
254.0
 10
231.6032064128255
 20
254.0
 10
231.09418837675827
 20
254.0
 10
230.58517034067148
 20
254.0
 10
230.07615230460425
 20
254.0
 10
229.56713426853696
 20
254.0
 10
229.05811623246973
 20
254.0
 10
228.549098196383
 20
254.0
 10
228.0400801603157
 20
254.0
 10
227.53106212424848
 20
254.0
 10
227.0220440881812
 20
254.0
 10
226.51302605209446
 20
254.0
 10
226.00400801602717
 20
254.0
 10
225.49498997995994
 20
254.0
 10
224.98597194389265
 20
254.0
 10
224.47695390780592
 20
254.0
 10
223.96793587173863
 20
254.0
 10
223.4589178356714
 20
254.0
 10
222.9498997996041
 20
254.0
 10
222.44088176351738
 20
254.0
 10
221.93186372745015
 20
254.0
 10
221.42284569138286
 20
254.0
 10
220.91382765531563
 20
254.0
 10
220.40480961922884
 20
254.0
 10
219.8957915831616
 20
254.0
 10
219.38677354709432
 20
254.0
 10
218.8777555110271
 20
254.0
 10
218.36873747494036
 20
254.0
 10
217.85971943887307
 20
254.0
 10
217.35070140280584
 20
254.0
 10
216.84168336673855
 20
254.0
 10
216.33266533065182
 20
254.0
 10
215.82364729458453
 20
254.0
 10
215.3146292585173
 20
254.0
 10
214.80561122245
 20
254.0
 10
214.29659318636328
 20
254.0
 10
213.787575150296
 20
254.0
 10
213.27855711422876
 20
254.0
 10
212.76953907816147
 20
254.0
 10
212.26052104207474
 20
254.0
 10
211.7515030060075
 20
254.0
 10
211.24248496994022
 20
254.0
 10
210.733466933873
 20
254.0
 10
210.2244488977862
 20
254.0
 10
209.71543086171897
 20
254.0
 10
209.20641282565168
 20
254.0
 10
208.69739478958445
 20
254.0
 10
208.18837675349772
 20
254.0
 10
207.67935871743043
 20
254.0
 10
207.1703406813632
 20
254.0
 10
206.6613226452959
 20
254.0
 10
206.15230460920918
 20
254.0
 10
205.64328657314195
 20
254.0
 10
205.13426853707466
 20
254.0
 10
204.62525050100737
 20
254.0
 10
204.11623246492064
 20
254.0
 10
203.6072144288534
 20
254.0
 10
203.09819639278612
 20
254.0
 10
202.58917835671883
 20
254.0
 10
202.0801603206321
 20
254.0
 10
201.57114228456487
 20
254.0
 10
201.06212424849758
 20
254.0
 10
200.55310621243035
 20
254.0
 10
200.04408817634356
 20
254.0
 10
199.53507014027633
 20
254.0
 10
199.02605210420904
 20
254.0
 10
198.5170340681418
 20
254.0
 10
198.00801603205508
 20
254.0
 10
197.4989979959878
 20
254.0
 10
196.98997995992056
 20
254.0
 10
196.48096192385327
 20
254.0
 10
195.97194388776654
 20
254.0
 10
195.4629258516993
 20
254.0
 10
194.95390781563202
 20
254.0
 10
194.44488977956473
 20
254.0
 10
193.935871743478
 20
254.0
 10
193.42685370741077
 20
254.0
 10
192.91783567134348
 20
254.0
 10
192.4088176352762
 20
254.0
 10
191.89979959918946
 20
254.0
 10
191.39078156312223
 20
254.0
 10
190.88176352705494
 20
254.0
 10
190.3727454909877
 20
254.0
 10
189.86372745490092
 20
254.0
 10
189.3547094188337
 20
254.0
 10
188.8456913827664
 20
254.0
 10
188.33667334669917
 20
254.0
 10
187.82765531061244
 20
254.0
 10
187.31863727454515
 20
254.0
 10
186.80961923847792
 20
254.0
 10
186.30060120241063
 20
254.0
 10
185.7915831663239
 20
254.0
 10
185.28256513025667
 20
254.0
 10
184.77354709418938
 20
254.0
 10
184.2645290581221
 20
254.0
 10
183.75551102203536
 20
254.0
 10
183.24649298596813
 20
254.0
 10
182.73747494990084
 20
254.0
 10
182.22845691383355
 20
254.0
 10
181.71943887774682
 20
254.0
 10
181.2104208416796
 20
254.0
 10
180.7014028056123
 20
254.0
 10
180.19238476954507
 20
254.0
 10
179.68336673345829
 20
254.0
 10
179.17434869739105
 20
254.0
 10
178.66533066132376
 20
254.0
 10
178.15631262525653
 20
254.0
 10
177.6472945891698
 20
254.0
 10
177.13827655310251
 20
254.0
 10
176.62925851703528
 20
254.0
 10
176.120240480968
 20
254.0
 10
175.61122244488126
 20
254.0
 10
175.10220440881403
 20
254.0
 10
174.59318637274674
 20
254.0
 10
174.0841683366795
 20
254.0
 10
173.57515030059278
 20
254.0
 10
173.0661322645255
 20
254.0
 10
172.5571142284582
 20
254.0
 10
172.04809619239097
 20
254.0
 10
171.53907815630424
 20
254.0
 10
171.03006012023695
 20
254.0
 10
170.52104208416966
 20
254.0
 10
170.01202404810243
 20
254.0
 10
169.5030060120157
 20
254.0
 10
168.99398797594841
 20
254.0
 10
168.48496993988113
 20
254.0
 10
167.9759519038139
 20
254.0
 10
167.46693386772716
 20
254.0
 10
166.95791583165988
 20
254.0
 10
166.44889779559264
 20
254.0
 10
165.93987975952535
 20
254.0
 10
165.43086172343862
 20
254.0
 10
164.9218436873714
 20
254.0
 10
164.4128256513041
 20
254.0
 10
163.90380761523687
 20
254.0
 10
163.39478957915014
 20
254.0
 10
162.88577154308285
 20
254.0
 10
162.37675350701556
 20
254.0
 10
161.86773547094833
 20
254.0
 10
161.3587174348616
 20
254.0
 10
160.84969939879431
 20
254.0
 10
160.34068136272703
 20
254.0
 10
159.8316633266598
 20
254.0
 10
159.32264529057306
 20
254.0
 10
158.81362725450577
 20
254.0
 10
158.3046092184385
 20
254.0
 10
157.79559118237125
 20
254.0
 10
157.28657314628452
 20
254.0
 10
156.77755511021724
 20
254.0
 10
156.26853707415
 20
254.0
 10
155.75951903808271
 20
254.0
 10
155.25050100199599
 20
254.0
 10
154.74148296592875
 20
254.0
 10
154.23246492986146
 20
254.0
 10
153.72344689379423
 20
254.0
 10
153.2144288577075
 20
254.0
 10
152.7054108216402
 20
254.0
 10
152.19639278557298
 20
254.0
 10
151.6873747495057
 20
254.0
 10
151.17835671341896
 20
254.0
 10
150.66933867735167
 20
254.0
 10
150.16032064128444
 20
254.0
 10
149.65130260521715
 20
254.0
 10
149.14228456913042
 20
254.0
 10
148.63326653306314
 20
254.0
 10
148.1242484969959
 20
254.0
 10
147.61523046092861
 20
254.0
 10
147.10621242484189
 20
254.0
 10
146.5971943887746
 20
254.0
 10
146.08817635270736
 20
254.0
 10
145.57915831664008
 20
254.0
 10
145.07014028055335
 20
254.0
 10
144.5611222444861
 20
254.0
 10
144.05210420841883
 20
254.0
 10
143.5430861723516
 20
254.0
 10
143.03406813626486
 20
254.0
 10
142.52505010019757
 20
254.0
 10
142.01603206413034
 20
254.0
 10
141.50701402806305
 20
254.0
 10
140.99799599197632
 20
254.0
 10
140.48897795590904
 20
254.0
 10
139.9799599198418
 20
254.0
 10
139.47094188377451
 20
254.0
 10
138.96192384768779
 20
254.0
 10
138.4529058116205
 20
254.0
 10
137.94388777555326
 20
254.0
 10
137.43486973948598
 20
254.0
 10
136.92585170339925
 20
254.0
 10
136.41683366733196
 20
254.0
 10
135.90781563126473
 20
254.0
 10
135.39879759519744
 20
254.0
 10
134.8897795591107
 20
254.0
 10
134.38076152304347
 20
254.0
 10
133.8717434869762
 20
254.0
 10
133.36272545090895
 20
254.0
 10
132.85370741482222
 20
254.0
 10
132.34468937875494
 20
254.0
 10
131.8356713426877
 20
254.0
 10
131.32665330662041
 20
254.0
 10
130.81763527053369
 20
254.0
 10
130.3086172344664
 20
254.0
 10
129.79959919839916
 20
254.0
 10
129.29058116233188
 20
254.0
 10
128.78156312624515
 20
254.0
 10
128.27254509017786
 20
254.0
 10
127.76352705411063
 20
254.0
 10
127.25450901804335
 20
254.0
 10
126.74549098195662
 20
254.0
 10
126.23647294588936
 20
254.0
 10
125.7274549098221
 20
254.0
 10
125.21843687375483
 20
254.0
 10
124.70941883766808
 20
254.0
 10
124.20040080160082
 20
254.0
 10
123.69138276553356
 20
254.0
 10
123.18236472946629
 20
254.0
 10
122.67334669337956
 20
254.0
 10
122.1643286573123
 20
254.0
 10
121.65531062124504
 20
254.0
 10
121.14629258517776
 20
254.0
 10
120.63727454909103
 20
254.0
 10
120.12825651302377
 20
254.0
 10
119.61923847695651
 20
254.0
 10
119.11022044088924
 20
254.0
 10
118.6012024048025
 20
254.0
 10
118.09218436873525
 20
254.0
 10
117.58316633266799
 20
254.0
 10
117.07414829660073
 20
254.0
 10
116.56513026051398
 20
254.0
 10
116.05611222444672
 20
254.0
 10
115.54709418837946
 20
254.0
 10
115.0380761523122
 20
254.0
 10
114.52905811622546
 20
254.0
 10
114.02004008015818
 20
254.0
 10
113.51102204409092
 20
254.0
 10
113.00200400802366
 20
254.0
 10
112.49298597193693
 20
254.0
 10
111.98396793586966
 20
254.0
 10
111.4749498998024
 20
254.0
 10
110.96593186373514
 20
254.0
 10
110.4569138276484
 20
254.0
 10
109.94789579158113
 20
254.0
 10
109.43887775551387
 20
254.0
 10
108.92985971944661
 20
254.0
 10
108.42084168335988
 20
254.0
 10
107.91182364729261
 20
254.0
 10
107.40280561122535
 20
254.0
 10
106.89378757515809
 20
254.0
 10
106.38476953907136
 20
254.0
 10
105.87575150300408
 20
254.0
 10
105.36673346693682
 20
254.0
 10
104.85771543086956
 20
254.0
 10
104.34869739478282
 20
254.0
 10
103.83967935871554
 20
254.0
 10
103.33066132264828
 20
254.0
 10
102.82164328658102
 20
254.0
 10
102.31262525049429
 20
254.0
 10
101.80360721442703
 20
254.0
 10
101.29458917835976
 20
254.0
 10
100.7855711422925
 20
254.0
 10
100.27655310620577
 20
254.0
 10
99.7675350701385
 20
254.0
 10
99.25851703407123
 20
254.0
 10
98.74949899800397
 20
254.0
 10
98.24048096191724
 20
254.0
 10
97.73146292584998
 20
254.0
 10
97.22244488978271
 20
254.0
 10
96.71342685371545
 20
254.0
 10
96.2044088176287
 20
254.0
 10
95.69539078156144
 20
254.0
 10
95.18637274549418
 20
254.0
 10
94.67735470942692
 20
254.0
 10
94.16833667334018
 20
254.0
 10
93.65931863727292
 20
254.0
 10
93.15030060120564
 20
254.0
 10
92.64128256513838
 20
254.0
 10
92.13226452905165
 20
254.0
 10
91.62324649298439
 20
254.0
 10
91.11422845691712
 20
254.0
 10
90.60521042084986
 20
254.0
 10
90.09619238476313
 20
254.0
 10
89.58717434869587
 20
254.0
 10
89.07815631262861
 20
254.0
 10
88.56913827656133
 20
254.0
 10
88.0601202404746
 20
254.0
 10
87.55110220440734
 20
254.0
 10
87.04208416834008
 20
254.0
 10
86.53306613227281
 20
254.0
 10
86.02404809618606
 20
254.0
 10
85.5150300601188
 20
254.0
 10
85.00601202405154
 20
254.0
 10
84.49699398798427
 20
254.0
 10
83.98797595189754
 20
254.0
 10
83.47895791583028
 20
254.0
 10
82.96993987976302
 20
254.0
 10
82.46092184369574
 20
254.0
 10
81.95190380760901
 20
254.0
 10
81.44288577154175
 20
254.0
 10
80.9338677354745
 20
254.0
 10
80.42484969940722
 20
254.0
 10
79.91583166332049
 20
254.0
 10
79.40681362725323
 20
254.0
 10
78.89779559118597
 20
254.0
 10
78.3887775551187
 20
254.0
 10
77.87975951903196
 20
254.0
 10
77.3707414829647
 20
254.0
 10
76.86172344689744
 20
254.0
 10
76.35270541083018
 20
254.0
 10
75.84368737474342
 20
254.0
 10
75.33466933867616
 20
254.0
 10
74.8256513026089
 20
254.0
 10
74.31663326654164
 20
254.0
 10
73.80761523045491
 20
254.0
 10
73.29859719438764
 20
254.0
 10
72.78957915832038
 20
254.0
 10
72.28056112225312
 20
254.0
 10
71.77154308616639
 20
254.0
 10
71.26252505009911
 20
254.0
 10
70.75350701403185
 20
254.0
 10
70.2444889779646
 20
254.0
 10
69.73547094187786
 20
254.0
 10
69.22645290581059
 20
254.0
 10
68.71743486974333
 20
254.0
 10
68.20841683367607
 20
254.0
 10
67.69939879758934
 20
254.0
 10
67.19038076152206
 20
254.0
 10
66.6813627254548
 20
254.0
 10
66.17234468938754
 20
254.0
 10
65.6633266533008
 20
254.0
 10
65.15430861723353
 20
254.0
 10
64.64529058116626
 20
254.0
 10
64.136272545099
 20
254.0
 10
63.62725450901228
 20
254.0
 10
63.118236472945014
 20
254.0
 10
62.60921843687775
 20
254.0
 10
62.100200400810486
 20
254.0
 10
61.59118236472375
 20
254.0
 10
61.08216432865648
 20
254.0
 10
60.573146292589215
 20
254.0
 10
60.064128256521954
 20
254.0
 10
59.555110220435225
 20
254.0
 10
59.04609218436796
 20
254.0
 10
58.5370741483007
 20
254.0
 10
58.02805611223343
 20
254.0
 10
57.51903807614669
 20
254.0
 10
57.010020040079425
 20
254.0
 10
56.501002004012165
 20
254.0
 10
55.9919839679449
 20
254.0
 10
55.48296593185817
 20
254.0
 10
54.9739478957909
 20
254.0
 10
54.46492985972364
 20
254.0
 10
53.95591182365637
 20
254.0
 10
53.44689378756964
 20
254.0
 10
52.937875751502375
 20
254.0
 10
52.428857715435115
 20
254.0
 10
51.91983967936785
 20
254.0
 10
51.41082164328111
 20
254.0
 10
50.90180360721385
 20
254.0
 10
50.39278557114658
 20
254.0
 10
49.883767535079315
 20
254.0
 10
49.374749498992585
 20
254.0
 10
48.865731462925325
 20
254.0
 10
48.35671342685806
 20
254.0
 10
47.84769539079079
 20
254.0
 10
47.33867735470405
 20
254.0
 10
46.82965931863679
 20
254.0
 10
46.320641282569525
 20
254.0
 10
45.811623246502265
 20
254.0
 10
45.30260521041553
 20
254.0
 10
44.79358717434827
 20
254.0
 10
44.284569138281
 20
254.0
 10
43.77555110221374
 20
254.0
 10
43.266533066127
 20
254.0
 10
42.757515030059736
 20
254.0
 10
42.24849699399247
 20
254.0
 10
41.73947895792521
 20
254.0
 10
41.23046092183848
 20
254.0
 10
40.72144288577121
 20
254.0
 10
40.21242484970394
 20
254.0
 10
39.70340681363668
 20
254.0
 10
39.19438877754995
 20
254.0
 10
38.685370741482686
 20
254.0
 10
38.176352705415425
 20
254.0
 10
37.66733466934816
 20
254.0
 10
37.15831663326142
 20
254.0
 10
36.649298597194154
 20
254.0
 10
36.14028056112689
 20
254.0
 10
35.631262525059626
 20
254.0
 10
35.122244488972896
 20
254.0
 10
34.61322645290563
 20
254.0
 10
34.10420841683837
 20
254.0
 10
33.5951903807711
 20
254.0
 10
33.086172344684364
 20
254.0
 10
32.5771543086171
 20
254.0
 10
32.068136272549836
 20
254.0
 10
31.559118236482572
 20
254.0
 10
31.05010020039584
 20
254.0
 10
30.541082164328575
 20
254.0
 10
30.03206412826131
 20
254.0
 10
29.523046092194047
 20
254.0
 10
29.01402805610731
 20
254.0
 10
28.505010020040046
 20
254.0
 10
27.995991983972782
 20
254.0
 10
27.48697394790552
 20
254.0
 10
26.977955911818785
 20
254.0
 10
26.46893787575152
 20
254.0
 10
25.959919839684257
 20
254.0
 10
25.450901803616993
 20
254.0
 10
24.94188376753026
 20
254.0
 10
24.432865731462996
 20
254.0
 10
23.92384769539573
 20
254.0
 10
23.414829659328465
 20
254.0
 10
22.905811623241732
 20
254.0
 10
22.396793587174468
 20
254.0
 10
21.887775551107204
 20
254.0
 10
21.378757515039936
 20
254.0
 10
20.869739478953203
 20
254.0
 10
20.36072144288594
 20
254.0
 10
19.851703406818675
 20
254.0
 10
19.34268537075141
 20
254.0
 10
18.833667334664675
 20
254.0
 10
18.32464929859741
 20
254.0
 10
17.815631262530147
 20
254.0
 10
17.306613226462883
 20
254.0
 10
16.79759519037615
 20
254.0
 10
16.288577154308882
 20
254.0
 10
15.77955911824162
 20
254.0
 10
15.270541082174356
 20
254.0
 10
14.761523046087623
 20
254.0
 10
14.252505010020357
 20
254.0
 10
13.743486973953093
 20
254.0
 10
13.234468937885827
 20
254.0
 10
12.725450901799096
 20
254.0
 10
12.216432865731832
 20
254.0
 10
11.707414829664566
 20
254.0
 10
11.198396793597302
 20
254.0
 10
10.689378757510568
 20
254.0
 10
10.180360721443304
 20
254.0
 10
9.67134268537604
 20
254.0
 10
9.162324649308774
 20
254.0
 10
8.65330661322204
 20
254.0
 10
8.144288577154775
 20
254.0
 10
7.635270541087512
 20
254.0
 10
7.126252505020247
 20
254.0
 10
6.617234468933514
 20
254.0
 10
6.10821643286625
 20
254.0
 10
5.599198396798985
 20
254.0
 10
5.09018036073172
 20
254.0
 10
4.581162324644986
 20
254.0
 10
4.0721442885777215
 20
254.0
 10
3.5631262525104574
 20
254.0
 10
3.054108216443193
 20
254.0
 10
2.5450901803564596
 20
254.0
 10
2.0360721442891947
 20
254.0
 10
1.5270541082219304
 20
254.0
 10
1.0180360721546657
 20
254.0
 10
0.5090180360679326
 20
254.0
 10
6.679101716144942e-13
 20
254.0
 10
6.679101716144942e-13
 20
253.49098196393157
 10
6.679101716144942e-13
 20
252.98196392785061
 10
6.679101716144942e-13
 20
252.4729458917822
 10
6.679101716144942e-13
 20
251.96392785571376
 10
6.679101716144942e-13
 20
251.45490981964534
 10
6.679101716144942e-13
 20
250.94589178356438
 10
6.679101716144942e-13
 20
250.43687374749595
 10
6.679101716144942e-13
 20
249.92785571142753
 10
6.679101716144942e-13
 20
249.41883767534657
 10
6.679101716144942e-13
 20
248.90981963927814
 10
6.679101716144942e-13
 20
248.40080160320971
 10
6.679101716144942e-13
 20
247.89178356712875
 10
6.679101716144942e-13
 20
247.38276553106033
 10
6.679101716144942e-13
 20
246.8737474949919
 10
6.679101716144942e-13
 20
246.36472945892345
 10
6.679101716144942e-13
 20
245.85571142284252
 10
6.679101716144942e-13
 20
245.3466933867741
 10
6.679101716144942e-13
 20
244.83767535070564
 10
6.679101716144942e-13
 20
244.3286573146247
 10
6.679101716144942e-13
 20
243.81963927855628
 10
6.679101716144942e-13
 20
243.31062124248783
 10
6.679101716144942e-13
 20
242.8016032064069
 10
6.679101716144942e-13
 20
242.29258517033844
 10
6.679101716144942e-13
 20
241.78356713427002
 10
6.679101716144942e-13
 20
241.2745490982016
 10
6.679101716144942e-13
 20
240.76553106212063
 10
6.679101716144942e-13
 20
240.2565130260522
 10
6.679101716144942e-13
 20
239.74749498998378
 10
6.679101716144942e-13
 20
239.23847695390282
 10
6.679101716144942e-13
 20
238.7294589178344
 10
6.679101716144942e-13
 20
238.22044088176597
 10
6.679101716144942e-13
 20
237.71142284569754
 10
6.679101716144942e-13
 20
237.20240480961658
 10
6.679101716144942e-13
 20
236.69338677354816
 10
6.679101716144942e-13
 20
236.18436873747973
 10
6.679101716144942e-13
 20
235.67535070139877
 10
6.679101716144942e-13
 20
235.16633266533034
 10
6.679101716144942e-13
 20
234.65731462926192
 10
6.679101716144942e-13
 20
234.14829659318096
 10
6.679101716144942e-13
 20
233.63927855711253
 10
6.679101716144942e-13
 20
233.1302605210441
 10
6.679101716144942e-13
 20
232.62124248497565
 10
6.679101716144942e-13
 20
232.11222444889472
 10
6.679101716144942e-13
 20
231.6032064128263
 10
6.679101716144942e-13
 20
231.09418837675784
 10
6.679101716144942e-13
 20
230.5851703406769
 10
6.679101716144942e-13
 20
230.07615230460848
 10
6.679101716144942e-13
 20
229.56713426854003
 10
6.679101716144942e-13
 20
229.0581162324591
 10
6.679101716144942e-13
 20
228.54909819639067
 10
6.679101716144942e-13
 20
228.04008016032222
 10
6.679101716144942e-13
 20
227.5310621242538
 10
6.679101716144942e-13
 20
227.02204408817283
 10
6.679101716144942e-13
 20
226.5130260521044
 10
6.679101716144942e-13
 20
226.00400801603598
 10
6.679101716144942e-13
 20
225.49498997995502
 10
6.679101716144942e-13
 20
224.9859719438866
 10
6.679101716144942e-13
 20
224.47695390781817
 10
6.679101716144942e-13
 20
223.9679358717372
 10
6.679101716144942e-13
 20
223.45891783566879
 10
6.679101716144942e-13
 20
222.94989979960036
 10
6.679101716144942e-13
 20
222.44088176353193
 10
6.679101716144942e-13
 20
221.93186372745097
 10
6.679101716144942e-13
 20
221.42284569138255
 10
6.679101716144942e-13
 20
220.91382765531412
 10
6.679101716144942e-13
 20
220.40480961923316
 10
6.679101716144942e-13
 20
219.89579158316474
 10
6.679101716144942e-13
 20
219.3867735470963
 10
6.679101716144942e-13
 20
218.87775551102789
 10
6.679101716144942e-13
 20
218.36873747494693
 10
6.679101716144942e-13
 20
217.8597194388785
 10
6.679101716144942e-13
 20
217.35070140281005
 10
6.679101716144942e-13
 20
216.84168336672911
 10
6.679101716144942e-13
 20
216.3326653306607
 10
6.679101716144942e-13
 20
215.82364729459223
 10
6.679101716144942e-13
 20
215.3146292585113
 10
6.679101716144942e-13
 20
214.80561122244288
 10
6.679101716144942e-13
 20
214.29659318637442
 10
6.679101716144942e-13
 20
213.787575150306
 10
6.679101716144942e-13
 20
213.27855711422504
 10
6.679101716144942e-13
 20
212.7695390781566
 10
6.679101716144942e-13
 20
212.2605210420882
 10
6.679101716144942e-13
 20
211.75150300600723
 10
6.679101716144942e-13
 20
211.2424849699388
 10
6.679101716144942e-13
 20
210.73346693387037
 10
6.679101716144942e-13
 20
210.22444889778942
 10
6.679101716144942e-13
 20
209.715430861721
 10
6.679101716144942e-13
 20
209.20641282565256
 10
6.679101716144942e-13
 20
208.69739478958414
 10
6.679101716144942e-13
 20
208.18837675350318
 10
6.679101716144942e-13
 20
207.67935871743475
 10
6.679101716144942e-13
 20
207.17034068136633
 10
6.679101716144942e-13
 20
206.66132264528537
 10
6.679101716144942e-13
 20
206.15230460921694
 10
6.679101716144942e-13
 20
205.64328657314852
 10
6.679101716144942e-13
 20
205.1342685370801
 10
6.679101716144942e-13
 20
204.62525050099913
 10
6.679101716144942e-13
 20
204.1162324649307
 10
6.679101716144942e-13
 20
203.60721442886225
 10
6.679101716144942e-13
 20
203.09819639278132
 10
6.679101716144942e-13
 20
202.5891783567129
 10
6.679101716144942e-13
 20
202.08016032064444
 10
6.679101716144942e-13
 20
201.5711422845635
 10
6.679101716144942e-13
 20
201.06212424849508
 10
6.679101716144942e-13
 20
200.55310621242663
 10
6.679101716144942e-13
 20
200.0440881763582
 10
6.679101716144942e-13
 20
199.53507014027724
 10
6.679101716144942e-13
 20
199.02605210420882
 10
6.679101716144942e-13
 20
198.5170340681404
 10
6.679101716144942e-13
 20
198.00801603205943
 10
6.679101716144942e-13
 20
197.498997995991
 10
6.679101716144942e-13
 20
196.98997995992258
 10
6.679101716144942e-13
 20
196.48096192384162
 10
6.679101716144942e-13
 20
195.9719438877732
 10
6.679101716144942e-13
 20
195.46292585170477
 10
6.679101716144942e-13
 20
194.95390781563634
 10
6.679101716144942e-13
 20
194.44488977955538
 10
6.679101716144942e-13
 20
193.93587174348696
 10
6.679101716144942e-13
 20
193.42685370741853
 10
6.679101716144942e-13
 20
192.91783567133757
 10
6.679101716144942e-13
 20
192.40881763526914
 10
6.679101716144942e-13
 20
191.89979959920072
 10
6.679101716144942e-13
 20
191.3907815631323
 10
6.679101716144942e-13
 20
190.88176352705133
 10
6.679101716144942e-13
 20
190.3727454909829
 10
6.679101716144942e-13
 20
189.86372745491445
 10
6.679101716144942e-13
 20
189.35470941883352
 10
6.679101716144942e-13
 20
188.8456913827651
 10
6.679101716144942e-13
 20
188.33667334669664
 10
6.679101716144942e-13
 20
187.8276553106157
 10
6.679101716144942e-13
 20
187.31863727454729
 10
6.679101716144942e-13
 20
186.80961923847883
 10
6.679101716144942e-13
 20
186.3006012024104
 10
6.679101716144942e-13
 20
185.79158316632945
 10
6.679101716144942e-13
 20
185.28256513026102
 10
6.679101716144942e-13
 20
184.7735470941926
 10
6.679101716144942e-13
 20
184.26452905811163
 10
6.679101716144942e-13
 20
183.7555110220432
 10
6.679101716144942e-13
 20
183.24649298597478
 10
6.679101716144942e-13
 20
182.73747494989382
 10
6.679101716144942e-13
 20
182.2284569138254
 10
6.679101716144942e-13
 20
181.71943887775697
 10
6.679101716144942e-13
 20
181.21042084168855
 10
6.679101716144942e-13
 20
180.7014028056076
 10
6.679101716144942e-13
 20
180.19238476953916
 10
6.679101716144942e-13
 20
179.68336673347073
 10
6.679101716144942e-13
 20
179.17434869738977
 10
6.679101716144942e-13
 20
178.66533066132135
 10
6.679101716144942e-13
 20
178.15631262525292
 10
6.679101716144942e-13
 20
177.6472945891845
 10
6.679101716144942e-13
 20
177.13827655310354
 10
6.679101716144942e-13
 20
176.6292585170351
 10
6.679101716144942e-13
 20
176.12024048096666
 10
6.679101716144942e-13
 20
175.61122244488573
 10
6.679101716144942e-13
 20
175.1022044088173
 10
6.679101716144942e-13
 20
174.59318637274885
 10
6.679101716144942e-13
 20
174.08416833666791
 10
6.679101716144942e-13
 20
173.5751503005995
 10
6.679101716144942e-13
 20
173.06613226453103
 10
6.679101716144942e-13
 20
172.5571142284626
 10
6.679101716144942e-13
 20
172.04809619238165
 10
6.679101716144942e-13
 20
171.53907815631322
 10
6.679101716144942e-13
 20
171.0300601202448
 10
6.679101716144942e-13
 20
170.52104208416384
 10
6.679101716144942e-13
 20
170.0120240480954
 10
6.679101716144942e-13
 20
169.503006012027
 10
6.679101716144942e-13
 20
168.99398797594603
 10
6.679101716144942e-13
 20
168.4849699398776
 10
6.679101716144942e-13
 20
167.97595190380918
 10
6.679101716144942e-13
 20
167.46693386774075
 10
6.679101716144942e-13
 20
166.9579158316598
 10
6.679101716144942e-13
 20
166.44889779559136
 10
6.679101716144942e-13
 20
165.93987975952294
 10
6.679101716144942e-13
 20
165.43086172344198
 10
6.679101716144942e-13
 20
164.92184368737355
 10
6.679101716144942e-13
 20
164.41282565130513
 10
6.679101716144942e-13
 20
163.9038076152367
 10
6.679101716144942e-13
 20
163.39478957915574
 10
6.679101716144942e-13
 20
162.88577154308732
 10
6.679101716144942e-13
 20
162.37675350701886
 10
6.679101716144942e-13
 20
161.86773547093793
 10
6.679101716144942e-13
 20
161.3587174348695
 10
6.679101716144942e-13
 20
160.84969939880105
 10
6.679101716144942e-13
 20
160.34068136272012
 10
6.679101716144942e-13
 20
159.8316633266517
 10
6.679101716144942e-13
 20
159.32264529058324
 10
6.679101716144942e-13
 20
158.8136272545148
 10
6.679101716144942e-13
 20
158.30460921843385
 10
6.679101716144942e-13
 20
157.79559118236543
 10
6.679101716144942e-13
 20
157.286573146297
 10
6.679101716144942e-13
 20
156.77755511021604
 10
6.679101716144942e-13
 20
156.26853707414762
 10
6.679101716144942e-13
 20
155.7595190380792
 10
6.679101716144942e-13
 20
155.25050100199823
 10
6.679101716144942e-13
 20
154.7414829659298
 10
6.679101716144942e-13
 20
154.23246492986138
 10
6.679101716144942e-13
 20
153.72344689379295
 10
6.679101716144942e-13
 20
153.214428857712
 10
6.679101716144942e-13
 20
152.70541082164357
 10
6.679101716144942e-13
 20
152.19639278557514
 10
6.679101716144942e-13
 20
151.68737474949418
 10
6.679101716144942e-13
 20
151.17835671342576
 10
6.679101716144942e-13
 20
150.66933867735733
 10
6.679101716144942e-13
 20
150.16032064127637
 10
6.679101716144942e-13
 20
149.65130260520795
 10
6.679101716144942e-13
 20
149.14228456913952
 10
6.679101716144942e-13
 20
148.63326653307107
 10
6.679101716144942e-13
 20
148.12424849699013
 10
6.679101716144942e-13
 20
147.6152304609217
 10
6.679101716144942e-13
 20
147.10621242485325
 10
6.679101716144942e-13
 20
146.59719438877232
 10
6.679101716144942e-13
 20
146.0881763527039
 10
6.679101716144942e-13
 20
145.57915831663544
 10
6.679101716144942e-13
 20
145.07014028056702
 10
6.679101716144942e-13
 20
144.56112224448606
 10
6.679101716144942e-13
 20
144.05210420841763
 10
6.679101716144942e-13
 20
143.5430861723492
 10
6.679101716144942e-13
 20
143.03406813626825
 10
6.679101716144942e-13
 20
142.52505010019982
 10
6.679101716144942e-13
 20
142.0160320641314
 10
6.679101716144942e-13
 20
141.50701402805043
 10
6.679101716144942e-13
 20
140.997995991982
 10
6.679101716144942e-13
 20
140.48897795591358
 10
6.679101716144942e-13
 20
139.97995991984516
 10
6.679101716144942e-13
 20
139.4709418837642
 10
6.679101716144942e-13
 20
138.96192384769577
 10
6.679101716144942e-13
 20
138.45290581162735
 10
6.679101716144942e-13
 20
137.9438877755464
 10
6.679101716144942e-13
 20
137.43486973947796
 10
6.679101716144942e-13
 20
136.92585170340953
 10
6.679101716144942e-13
 20
136.41683366732858
 10
6.679101716144942e-13
 20
135.90781563126015
 10
6.679101716144942e-13
 20
135.39879759519172
 10
6.679101716144942e-13
 20
134.8897795591233
 10
6.679101716144942e-13
 20
134.38076152304234
 10
6.679101716144942e-13
 20
133.8717434869739
 10
6.679101716144942e-13
 20
133.36272545090546
 10
6.679101716144942e-13
 20
132.85370741482453
 10
6.679101716144942e-13
 20
132.3446893787561
 10
6.679101716144942e-13
 20
131.83567134268765
 10
6.679101716144942e-13
 20
131.32665330661922
 10
6.679101716144942e-13
 20
130.8176352705383
 10
6.679101716144942e-13
 20
130.30861723446984
 10
6.679101716144942e-13
 20
129.7995991984014
 10
6.679101716144942e-13
 20
129.29058116232045
 10
6.679101716144942e-13
 20
128.78156312625202
 10
6.679101716144942e-13
 20
128.2725450901836
 10
6.679101716144942e-13
 20
127.76352705410265
 10
6.679101716144942e-13
 20
127.25450901803421
 10
6.679101716144942e-13
 20
126.74549098196579
 10
6.679101716144942e-13
 20
126.23647294589736
 10
6.679101716144942e-13
 20
125.7274549098164
 10
6.679101716144942e-13
 20
125.21843687374798
 10
6.679101716144942e-13
 20
124.70941883767955
 10
6.679101716144942e-13
 20
124.20040080159859
 10
6.679101716144942e-13
 20
123.69138276553016
 10
6.679101716144942e-13
 20
123.18236472946172
 10
6.679101716144942e-13
 20
122.67334669338078
 10
6.679101716144942e-13
 20
122.16432865731235
 10
6.679101716144942e-13
 20
121.65531062124391
 10
6.679101716144942e-13
 20
121.14629258517549
 10
6.679101716144942e-13
 20
120.63727454909454
 10
6.679101716144942e-13
 20
120.1282565130261
 10
6.679101716144942e-13
 20
119.61923847695768
 10
6.679101716144942e-13
 20
119.11022044087672
 10
6.679101716144942e-13
 20
118.60120240480829
 10
6.679101716144942e-13
 20
118.09218436873986
 10
6.679101716144942e-13
 20
117.58316633267142
 10
6.679101716144942e-13
 20
117.07414829659048
 10
6.679101716144942e-13
 20
116.56513026052205
 10
6.679101716144942e-13
 20
116.05611222445361
 10
6.679101716144942e-13
 20
115.54709418837267
 10
6.679101716144942e-13
 20
115.03807615230424
 10
6.679101716144942e-13
 20
114.5290581162358
 10
6.679101716144942e-13
 20
114.02004008015486
 10
6.679101716144942e-13
 20
113.51102204408642
 10
6.679101716144942e-13
 20
113.00200400801799
 10
6.679101716144942e-13
 20
112.49298597194957
 10
6.679101716144942e-13
 20
111.9839679358686
 10
6.679101716144942e-13
 20
111.47494989980018
 10
6.679101716144942e-13
 20
110.96593186373175
 10
6.679101716144942e-13
 20
110.4569138276508
 10
6.679101716144942e-13
 20
109.94789579158237
 10
6.679101716144942e-13
 20
109.43887775551394
 10
6.679101716144942e-13
 20
108.92985971943298
 10
6.679101716144942e-13
 20
108.42084168336456
 10
6.679101716144942e-13
 20
107.91182364729612
 10
6.679101716144942e-13
 20
107.40280561122769
 10
6.679101716144942e-13
 20
106.89378757514675
 10
6.679101716144942e-13
 20
106.3847695390783
 10
6.679101716144942e-13
 20
105.87575150300988
 10
6.679101716144942e-13
 20
105.36673346692893
 10
6.679101716144942e-13
 20
104.8577154308605
 10
6.679101716144942e-13
 20
104.34869739479207
 10
6.679101716144942e-13
 20
103.83967935872363
 10
6.679101716144942e-13
 20
103.33066132264268
 10
6.679101716144942e-13
 20
102.82164328657426
 10
6.679101716144942e-13
 20
102.31262525050582
 10
6.679101716144942e-13
 20
101.80360721442487
 10
6.679101716144942e-13
 20
101.29458917835645
 10
6.679101716144942e-13
 20
100.785571142288
 10
6.679101716144942e-13
 20
100.27655310620706
 10
6.679101716144942e-13
 20
99.76753507013862
 10
6.679101716144942e-13
 20
99.2585170340702
 10
6.679101716144942e-13
 20
98.74949899800177
 10
6.679101716144942e-13
 20
98.24048096192081
 10
6.679101716144942e-13
 20
97.73146292585238
 10
6.679101716144942e-13
 20
97.22244488978396
 10
6.679101716144942e-13
 20
96.713426853703
 10
6.679101716144942e-13
 20
96.20440881763457
 10
6.679101716144942e-13
 20
95.69539078156615
 10
6.679101716144942e-13
 20
95.18637274548519
 10
6.679101716144942e-13
 20
94.67735470941676
 10
6.679101716144942e-13
 20
94.16833667334832
 10
6.679101716144942e-13
 20
93.6593186372799
 10
6.679101716144942e-13
 20
93.15030060119895
 10
6.679101716144942e-13
 20
92.64128256513051
 10
6.679101716144942e-13
 20
92.13226452906208
 10
6.679101716144942e-13
 20
91.62324649298114
 10
6.679101716144942e-13
 20
91.1142284569127
 10
6.679101716144942e-13
 20
90.60521042084427
 10
6.679101716144942e-13
 20
90.09619238476331
 10
6.679101716144942e-13
 20
89.58717434869489
 10
6.679101716144942e-13
 20
89.07815631262646
 10
6.679101716144942e-13
 20
88.56913827655802
 10
6.679101716144942e-13
 20
88.06012024047708
 10
6.679101716144942e-13
 20
87.55110220440865
 10
6.679101716144942e-13
 20
87.04208416834021
 10
6.679101716144942e-13
 20
86.53306613225926
 10
6.679101716144942e-13
 20
86.02404809619082
 10
6.679101716144942e-13
 20
85.5150300601224
 10
6.679101716144942e-13
 20
85.00601202405397
 10
6.679101716144942e-13
 20
84.49699398797301
 10
6.679101716144942e-13
 20
83.98797595190459
 10
6.679101716144942e-13
 20
83.47895791583616
 10
6.679101716144942e-13
 20
82.9699398797552
 10
6.679101716144942e-13
 20
82.46092184368678
 10
6.679101716144942e-13
 20
81.95190380761835
 10
6.679101716144942e-13
 20
81.44288577153739
 10
6.679101716144942e-13
 20
80.93386773546897
 10
6.679101716144942e-13
 20
80.42484969940053
 10
6.679101716144942e-13
 20
79.9158316633321
 10
6.679101716144942e-13
 20
79.40681362725115
 10
6.679101716144942e-13
 20
78.89779559118271
 10
6.679101716144942e-13
 20
78.38877755511429
 10
6.679101716144942e-13
 20
77.87975951903334
 10
6.679101716144942e-13
 20
77.3707414829649
 10
6.679101716144942e-13
 20
76.86172344689648
 10
6.679101716144942e-13
 20
76.35270541081552
 10
6.679101716144942e-13
 20
75.84368737474709
 10
6.679101716144942e-13
 20
75.33466933867867
 10
6.679101716144942e-13
 20
74.82565130261023
 10
6.679101716144942e-13
 20
74.31663326652928
 10
6.679101716144942e-13
 20
73.80761523046085
 10
6.679101716144942e-13
 20
73.29859719439241
 10
6.679101716144942e-13
 20
72.78957915831147
 10
6.679101716144942e-13
 20
72.28056112224303
 10
6.679101716144942e-13
 20
71.7715430861746
 10
6.679101716144942e-13
 20
71.26252505010618
 10
6.679101716144942e-13
 20
70.75350701402522
 10
6.679101716144942e-13
 20
70.24448897795679
 10
6.679101716144942e-13
 20
69.73547094188837
 10
6.679101716144942e-13
 20
69.2264529058074
 10
6.679101716144942e-13
 20
68.71743486973898
 10
6.679101716144942e-13
 20
68.20841683367055
 10
6.679101716144942e-13
 20
67.6993987975896
 10
6.679101716144942e-13
 20
67.19038076152117
 10
6.679101716144942e-13
 20
66.68136272545273
 10
6.679101716144942e-13
 20
66.1723446893843
 10
6.679101716144942e-13
 20
65.66332665330336
 10
6.679101716144942e-13
 20
65.15430861723492
 10
6.679101716144942e-13
 20
64.64529058116649
 10
6.679101716144942e-13
 20
64.13627254508555
 10
6.679101716144942e-13
 20
63.627254509017106
 10
6.679101716144942e-13
 20
63.11823647294868
 10
6.679101716144942e-13
 20
62.60921843686773
 10
6.679101716144942e-13
 20
62.100200400799295
 10
6.679101716144942e-13
 20
61.59118236473086
 10
6.679101716144942e-13
 20
61.08216432866244
 10
6.679101716144942e-13
 20
60.573146292581484
 10
6.679101716144942e-13
 20
60.06412825651305
 10
6.679101716144942e-13
 20
59.555110220444625
 10
6.679101716144942e-13
 20
59.04609218436367
 10
6.679101716144942e-13
 20
58.53707414829524
 10
6.679101716144942e-13
 20
58.02805611222681
 10
6.679101716144942e-13
 20
57.51903807615838
 10
6.679101716144942e-13
 20
57.01002004007743
 10
6.679101716144942e-13
 20
56.501002004008996
 10
6.679101716144942e-13
 20
55.99198396794056
 10
6.679101716144942e-13
 20
55.48296593185962
 10
6.679101716144942e-13
 20
54.973947895791184
 10
6.679101716144942e-13
 20
54.46492985972275
 10
6.679101716144942e-13
 20
53.9559118236418
 10
6.679101716144942e-13
 20
53.44689378757337
 10
6.679101716144942e-13
 20
52.93787575150494
 10
6.679101716144942e-13
 20
52.42885771543651
 10
6.679101716144942e-13
 20
51.919839679355555
 10
6.679101716144942e-13
 20
51.41082164328713
 10
6.679101716144942e-13
 20
50.901803607218696
 10
6.679101716144942e-13
 20
50.39278557113774
 10
6.679101716144942e-13
 20
49.88376753506931
 10
6.679101716144942e-13
 20
49.374749499000885
 10
6.679101716144942e-13
 20
48.86573146291993
 10
6.679101716144942e-13
 20
48.3567134268515
 10
6.679101716144942e-13
 20
47.84769539078307
 10
6.679101716144942e-13
 20
47.33867735471464
 10
6.679101716144942e-13
 20
46.82965931863369
 10
6.679101716144942e-13
 20
46.320641282565255
 10
6.679101716144942e-13
 20
45.81162324649683
 10
6.679101716144942e-13
 20
45.30260521041588
 10
6.679101716144942e-13
 20
44.793587174347444
 10
6.679101716144942e-13
 20
44.28456913827901
 10
6.679101716144942e-13
 20
43.775551102210585
 10
6.679101716144942e-13
 20
43.26653306612963
 10
6.679101716144942e-13
 20
42.7575150300612
 10
6.679101716144942e-13
 20
42.24849699399277
 10
6.679101716144942e-13
 20
41.73947895791182
 10
6.679101716144942e-13
 20
41.23046092184339
 10
6.679101716144942e-13
 20
40.721442885774955
 10
6.679101716144942e-13
 20
40.212424849694
 10
6.679101716144942e-13
 20
39.70340681362558
 10
6.679101716144942e-13
 20
39.194388777557144
 10
6.679101716144942e-13
 20
38.68537074148871
 10
6.679101716144942e-13
 20
38.17635270540776
 10
6.679101716144942e-13
 20
37.66733466933933
 10
6.679101716144942e-13
 20
37.1583166332709
 10
6.679101716144942e-13
 20
36.64929859718995
 10
6.679101716144942e-13
 20
36.140280561121514
 10
6.679101716144942e-13
 20
35.63126252505309
 10
6.679101716144942e-13
 20
35.122244488972136
 10
6.679101716144942e-13
 20
34.6132264529037
 10
6.679101716144942e-13
 20
34.10420841683528
 10
6.679101716144942e-13
 20
33.595190380766844
 10
6.679101716144942e-13
 20
33.08617234468589
 10
6.679101716144942e-13
 20
32.57715430861746
 10
6.679101716144942e-13
 20
32.06813627254903
 10
6.679101716144942e-13
 20
31.55911823646808
 10
6.679101716144942e-13
 20
31.050100200399648
 10
6.679101716144942e-13
 20
30.54108216433122
 10
6.679101716144942e-13
 20
30.032064128250266
 10
6.679101716144942e-13
 20
29.523046092181836
 10
6.679101716144942e-13
 20
29.014028056113403
 10
6.679101716144942e-13
 20
28.505010020044974
 10
6.679101716144942e-13
 20
27.99599198396402
 10
6.679101716144942e-13
 20
27.486973947895592
 10
6.679101716144942e-13
 20
26.97795591182716
 10
6.679101716144942e-13
 20
26.46893787574621
 10
6.679101716144942e-13
 20
25.959919839677777
 10
6.679101716144942e-13
 20
25.450901803609348
 10
6.679101716144942e-13
 20
24.94188376754092
 10
6.679101716144942e-13
 20
24.432865731459966
 10
6.679101716144942e-13
 20
23.923847695391537
 10
6.679101716144942e-13
 20
23.414829659323104
 10
6.679101716144942e-13
 20
22.90581162324215
 10
6.679101716144942e-13
 20
22.396793587173722
 10
6.679101716144942e-13
 20
21.887775551105292
 10
6.679101716144942e-13
 20
21.37875751502434
 10
6.679101716144942e-13
 20
20.86973947895591
 10
6.679101716144942e-13
 20
20.360721442887478
 10
6.679101716144942e-13
 20
19.85170340681905
 10
6.679101716144942e-13
 20
19.342685370738096
 10
6.679101716144942e-13
 20
18.833667334669666
 10
6.679101716144942e-13
 20
18.324649298601233
 10
6.679101716144942e-13
 20
17.815631262520284
 10
6.679101716144942e-13
 20
17.30661322645185
 10
6.679101716144942e-13
 20
16.797595190383422
 10
6.679101716144942e-13
 20
16.28857715430247
 10
6.679101716144942e-13
 20
15.77955911823404
 10
6.679101716144942e-13
 20
15.27054108216561
 10
6.679101716144942e-13
 20
14.761523046097178
 10
6.679101716144942e-13
 20
14.252505010016227
 10
6.679101716144942e-13
 20
13.743486973947796
 10
6.679101716144942e-13
 20
13.234468937879365
 10
6.679101716144942e-13
 20
12.725450901798414
 10
6.679101716144942e-13
 20
12.216432865729983
 10
6.679101716144942e-13
 20
11.707414829661552
 10
6.679101716144942e-13
 20
11.19839679359312
 10
6.679101716144942e-13
 20
10.68937875751217
 10
6.679101716144942e-13
 20
10.180360721443739
 10
6.679101716144942e-13
 20
9.671342685375308
 10
6.679101716144942e-13
 20
9.162324649294357
 10
6.679101716144942e-13
 20
8.653306613225926
 10
6.679101716144942e-13
 20
8.144288577157495
 10
6.679101716144942e-13
 20
7.635270541076544
 10
6.679101716144942e-13
 20
7.126252505008114
 10
6.679101716144942e-13
 20
6.6172344689396825
 10
6.679101716144942e-13
 20
6.108216432871251
 10
6.679101716144942e-13
 20
5.5991983967903005
 10
6.679101716144942e-13
 20
5.090180360721869
 10
6.679101716144942e-13
 20
4.581162324653439
 10
6.679101716144942e-13
 20
4.0721442885724874
 10
6.679101716144942e-13
 20
3.563126252504057
 10
6.679101716144942e-13
 20
3.0541082164356257
 10
6.679101716144942e-13
 20
2.5450901803546744
 10
6.679101716144942e-13
 20
2.0360721442862437
 10
6.679101716144942e-13
 20
1.5270541082178128
 10
6.679101716144942e-13
 20
1.0180360721493822
 10
6.679101716144942e-13
 20
0.5090180360684308
 10
6.679101716144942e-13
 20
0.0
 10
0.5090180360679326
 20
0.0
  0
LWPOLYLINE
  5
31
330
17
100
AcDbEntity
  8
relief
100
AcDbPolyline
 90
5
 70
1
 10
52.937875751502375
 20
201.74774037871913
 10
53.251117619846966
 20
202.08016032064444
 10
52.937875751502375
 20
202.4085590535971
 10
52.610795888981784
 20
202.08016032064444
 10
52.937875751502375
 20
201.74774037871913
  0
LWPOLYLINE
  5
32
330
17
100
AcDbEntity
  8
relief
100
AcDbPolyline
 90
5
 70
1
 10
24.432865731462996
 20
211.42177472353595
 10
24.752249597237178
 20
211.75150300600723
 10
24.432865731462996
 20
212.09014286369805
 10
24.108392082978867
 20
211.75150300600723
 10
24.432865731462996
 20
211.42177472353595
  0
ENDSEC
  0
SECTION
  2
OBJECTS
  0
DICTIONARY
  5
A
330
0
100
AcDbDictionary
281
1
  3
ACAD_COLOR
350
B
  3
ACAD_GROUP
350
C
  3
ACAD_LAYOUT
350
D
  3
ACAD_MATERIAL
350
E
  3
ACAD_MLEADERSTYLE
350
F
  3
ACAD_MLINESTYLE
350
10
  3
ACAD_PLOTSETTINGS
350
11
  3
ACAD_PLOTSTYLENAME
350
12
  3
ACAD_SCALELIST
350
14
  3
ACAD_TABLESTYLE
350
15
  3
ACAD_VISUALSTYLE
350
16
  3
EZDXF_META
350
2D
  0
DICTIONARY
  5
B
330
A
100
AcDbDictionary
281
1
  0
DICTIONARY
  5
C
330
A
100
AcDbDictionary
281
1
  0
DICTIONARY
  5
D
330
A
100
AcDbDictionary
281
1
  3
Model
350
1A
  3
Layout1
350
1E
  0
DICTIONARY
  5
E
330
A
100
AcDbDictionary
281
1
  3
ByBlock
350
1F
  3
ByLayer
350
20
  3
Global
350
21
  0
DICTIONARY
  5
F
330
A
100
AcDbDictionary
281
1
  3
Standard
350
2C
  0
DICTIONARY
  5
10
330
A
100
AcDbDictionary
281
1
  3
Standard
350
22
  0
DICTIONARY
  5
11
330
A
100
AcDbDictionary
281
1
  0
ACDBDICTIONARYWDFLT
  5
12
330
A
100
AcDbDictionary
281
1
  3
Normal
350
13
100
AcDbDictionaryWithDefault
340
13
  0
ACDBPLACEHOLDER
  5
13
330
12
  0
DICTIONARY
  5
14
330
A
100
AcDbDictionary
281
1
  0
DICTIONARY
  5
15
330
A
100
AcDbDictionary
281
1
  0
DICTIONARY
  5
16
330
A
100
AcDbDictionary
281
1
  0
LAYOUT
  5
1A
330
D
100
AcDbPlotSettings
  1

  4
A3
  6

 40
7.5
 41
20.0
 42
7.5
 43
20.0
 44
420.0
 45
297.0
 46
0.0
 47
0.0
 48
0.0
 49
0.0
140
0.0
141
0.0
142
1.0
143
1.0
 70
1024
 72
1
 73
0
 74
5
  7

 75
16
 76
0
 77
2
 78
300
147
1.0
148
0.0
149
0.0
100
AcDbLayout
  1
Model
 70
1
 71
0
 10
0.0
 20
0.0
 11
420.0
 21
297.0
 12
0.0
 22
0.0
 32
0.0
 14
1e+20
 24
1e+20
 34
1e+20
 15
-1e+20
 25
-1e+20
 35
-1e+20
146
0.0
 13
0.0
 23
0.0
 33
0.0
 16
1.0
 26
0.0
 36
0.0
 17
0.0
 27
1.0
 37
0.0
 76
1
330
17
  0
LAYOUT
  5
1E
330
D
100
AcDbPlotSettings
  1

  4
A3
  6

 40
7.5
 41
20.0
 42
7.5
 43
20.0
 44
420.0
 45
297.0
 46
0.0
 47
0.0
 48
0.0
 49
0.0
140
0.0
141
0.0
142
1.0
143
1.0
 70
0
 72
1
 73
0
 74
5
  7

 75
16
 76
0
 77
2
 78
300
147
1.0
148
0.0
149
0.0
100
AcDbLayout
  1
Layout1
 70
1
 71
1
 10
0.0
 20
0.0
 11
420.0
 21
297.0
 12
0.0
 22
0.0
 32
0.0
 14
1e+20
 24
1e+20
 34
1e+20
 15
-1e+20
 25
-1e+20
 35
-1e+20
146
0.0
 13
0.0
 23
0.0
 33
0.0
 16
1.0
 26
0.0
 36
0.0
 17
0.0
 27
1.0
 37
0.0
 76
1
330
1B
  0
MATERIAL
  5
1F
102
{ACAD_REACTORS
330
E
102
}
330
E
100
AcDbMaterial
  1
ByBlock
  2

 70
0
 40
1.0
 71
1
 41
1.0
 91
-1023410177
 42
1.0
 72
1
  3

 73
1
 74
1
 75
1
 44
0.5
 73
0
 45
1.0
 46
1.0
 77
1
  4

 78
1
 79
1
170
1
 48
1.0
171
1
  6

172
1
173
1
174
1
140
1.0
141
1.0
175
1
  7

176
1
177
1
178
1
143
1.0
179
1
  8

270
1
271
1
272
1
145
1.0
146
1.0
273
1
  9

274
1
275
1
276
1
 42
1.0
 72
1
  3

 73
1
 74
1
 75
1
 94
63
  0
MATERIAL
  5
20
102
{ACAD_REACTORS
330
E
102
}
330
E
100
AcDbMaterial
  1
ByLayer
  2

 70
0
 40
1.0
 71
1
 41
1.0
 91
-1023410177
 42
1.0
 72
1
  3

 73
1
 74
1
 75
1
 44
0.5
 73
0
 45
1.0
 46
1.0
 77
1
  4

 78
1
 79
1
170
1
 48
1.0
171
1
  6

172
1
173
1
174
1
140
1.0
141
1.0
175
1
  7

176
1
177
1
178
1
143
1.0
179
1
  8

270
1
271
1
272
1
145
1.0
146
1.0
273
1
  9

274
1
275
1
276
1
 42
1.0
 72
1
  3

 73
1
 74
1
 75
1
 94
63
  0
MATERIAL
  5
21
102
{ACAD_REACTORS
330
E
102
}
330
E
100
AcDbMaterial
  1
Global
  2

 70
0
 40
1.0
 71
1
 41
1.0
 91
-1023410177
 42
1.0
 72
1
  3

 73
1
 74
1
 75
1
 44
0.5
 73
0
 45
1.0
 46
1.0
 77
1
  4

 78
1
 79
1
170
1
 48
1.0
171
1
  6

172
1
173
1
174
1
140
1.0
141
1.0
175
1
  7

176
1
177
1
178
1
143
1.0
179
1
  8

270
1
271
1
272
1
145
1.0
146
1.0
273
1
  9

274
1
275
1
276
1
 42
1.0
 72
1
  3

 73
1
 74
1
 75
1
 94
63
  0
MLINESTYLE
  5
22
102
{ACAD_REACTORS
330
10
102
}
330
10
100
AcDbMlineStyle
  2
Standard
 70
0
  3

 62
256
 51
90.0
 52
90.0
 71
2
 49
0.5
 62
256
  6
BYLAYER
 49
-0.5
 62
256
  6
BYLAYER
  0
MLEADERSTYLE
  5
2C
102
{ACAD_REACTORS
330
F
102
}
330
F
100
AcDbMLeaderStyle
179
2
170
2
171
1
172
0
 90
2
 40
0.0
 41
0.0
173
1
 91
-1056964608
 92
-2
290
1
 42
2.0
291
1
 43
8.0
  3
Standard
 44
4.0
300

342
29
174
1
175
1
176
0
178
1
 93
-1056964608
 45
4.0
292
0
297
0
 46
4.0
 94
-1056964608
 47
1.0
 49
1.0
140
1.0
294
1
141
0.0
177
0
142
1.0
295
0
296
0
143
3.75
271
0
272
9
273
9
  0
DICTIONARY
  5
2D
330
A
100
AcDbDictionary
280
1
281
1
  3
CREATED_BY_EZDXF
350
2E
  3
WRITTEN_BY_EZDXF
350
35
  0
DICTIONARYVAR
  5
2E
330
2D
100
DictionaryVariables
280
0
  1
1.4.3 @ 2026-04-02T15:05:34.055504+00:00
  0
DICTIONARYVAR
  5
35
330
2D
100
DictionaryVariables
280
0
  1
1.4.3 @ 2026-04-02T15:05:34.063700+00:00
  0
ENDSEC
  0
EOF
