  0
SECTION
  2
HEADER
  9
$ACADVER
  1
AC1024
  9
$ACADMAINTVER
 70
6
  9
$DWGCODEPAGE
  3
ANSI_1252
  9
$LASTSAVEDBY
  1
ezdxf
  9
$INSBASE
 10
0.0
 20
0.0
 30
0.0
  9
$EXTMIN
 10
1e+20
 20
1e+20
 30
1e+20
  9
$EXTMAX
 10
-1e+20
 20
-1e+20
 30
-1e+20
  9
$LIMMIN
 10
0.0
 20
0.0
  9
$LIMMAX
 10
420.0
 20
297.0
  9
$ORTHOMODE
 70
0
  9
$REGENMODE
 70
1
  9
$FILLMODE
 70
1
  9
$QTEXTMODE
 70
0
  9
$MIRRTEXT
 70
1
  9
$LTSCALE
 40
1.0
  9
$ATTMODE
 70
1
  9
$TEXTSIZE
 40
2.5
  9
$TRACEWID
 40
1.0
  9
$TEXTSTYLE
  7
Standard
  9
$CLAYER
  8
0
  9
$CELTYPE
  6
ByLayer
  9
$CECOLOR
 62
256
  9
$CELTSCALE
 40
1.0
  9
$DISPSILH
 70
0
  9
$DIMSCALE
 40
1.0
  9
$DIMASZ
 40
2.5
  9
$DIMEXO
 40
0.625
  9
$DIMDLI
 40
3.75
  9
$DIMRND
 40
0.0
  9
$DIMDLE
 40
0.0
  9
$DIMEXE
 40
1.25
  9
$DIMTP
 40
0.0
  9
$DIMTM
 40
0.0
  9
$DIMTXT
 40
2.5
  9
$DIMCEN
 40
2.5
  9
$DIMTSZ
 40
0.0
  9
$DIMTOL
 70
0
  9
$DIMLIM
 70
0
  9
$DIMTIH
 70
0
  9
$DIMTOH
 70
0
  9
$DIMSE1
 70
0
  9
$DIMSE2
 70
0
  9
$DIMTAD
 70
1
  9
$DIMZIN
 70
8
  9
$DIMBLK
  1

  9
$DIMASO
 70
1
  9
$DIMSHO
 70
1
  9
$DIMPOST
  1

  9
$DIMAPOST
  1

  9
$DIMALT
 70
0
  9
$DIMALTD
 70
3
  9
$DIMALTF
 40
0.03937007874
  9
$DIMLFAC
 40
1.0
  9
$DIMTOFL
 70
1
  9
$DIMTVP
 40
0.0
  9
$DIMTIX
 70
0
  9
$DIMSOXD
 70
0
  9
$DIMSAH
 70
0
  9
$DIMBLK1
  1

  9
$DIMBLK2
  1

  9
$DIMSTYLE
  2
ISO-25
  9
$DIMCLRD
 70
0
  9
$DIMCLRE
 70
0
  9
$DIMCLRT
 70
0
  9
$DIMTFAC
 40
1.0
  9
$DIMGAP
 40
0.625
  9
$DIMJUST
 70
0
  9
$DIMSD1
 70
0
  9
$DIMSD2
 70
0
  9
$DIMTOLJ
 70
0
  9
$DIMTZIN
 70
8
  9
$DIMALTZ
 70
0
  9
$DIMALTTZ
 70
0
  9
$DIMUPT
 70
0
  9
$DIMDEC
 70
2
  9
$DIMTDEC
 70
2
  9
$DIMALTU
 70
2
  9
$DIMALTTD
 70
3
  9
$DIMTXSTY
  7
Standard
  9
$DIMAUNIT
 70
0
  9
$DIMADEC
 70
0
  9
$DIMALTRND
 40
0.0
  9
$DIMAZIN
 70
0
  9
$DIMDSEP
 70
44
  9
$DIMATFIT
 70
3
  9
$DIMFRAC
 70
0
  9
$DIMLDRBLK
  1

  9
$DIMLUNIT
 70
2
  9
$DIMLWD
 70
-2
  9
$DIMLWE
 70
-2
  9
$DIMTMOVE
 70
0
  9
$DIMFXL
 40
1.0
  9
$DIMFXLON
 70
0
  9
$DIMJOGANG
 40
0.785398163397
  9
$DIMTFILL
 70
0
  9
$DIMTFILLCLR
 70
0
  9
$DIMARCSYM
 70
0
  9
$DIMLTYPE
  6

  9
$DIMLTEX1
  6

  9
$DIMLTEX2
  6

  9
$DIMTXTDIRECTION
 70
0
  9
$LUNITS
 70
2
  9
$LUPREC
 70
4
  9
$SKETCHINC
 40
1.0
  9
$FILLETRAD
 40
10.0
  9
$AUNITS
 70
0
  9
$AUPREC
 70
2
  9
$MENU
  1
.
  9
$ELEVATION
 40
0.0
  9
$PELEVATION
 40
0.0
  9
$THICKNESS
 40
0.0
  9
$LIMCHECK
 70
0
  9
$CHAMFERA
 40
0.0
  9
$CHAMFERB
 40
0.0
  9
$CHAMFERC
 40
0.0
  9
$CHAMFERD
 40
0.0
  9
$SKPOLY
 70
0
  9
$TDCREATE
 40
2461133.487997685
  9
$TDUCREATE
 40
2458532.153996898
  9
$TDUPDATE
 40
2461133.487997685
  9
$TDUUPDATE
 40
2458532.1544311
  9
$TDINDWG
 40
0.0
  9
$TDUSRTIMER
 40
0.0
  9
$USRTIMER
 70
1
  9
$ANGBASE
 50
0.0
  9
$ANGDIR
 70
0
  9
$PDMODE
 70
0
  9
$PDSIZE
 40
0.0
  9
$PLINEWID
 40
0.0
  9
$SPLFRAME
 70
0
  9
$SPLINETYPE
 70
6
  9
$SPLINESEGS
 70
8
  9
$HANDSEED
  5
3B
  9
$SURFTAB1
 70
6
  9
$SURFTAB2
 70
6
  9
$SURFTYPE
 70
6
  9
$SURFU
 70
6
  9
$SURFV
 70
6
  9
$UCSBASE
  2

  9
$UCSNAME
  2

  9
$UCSORG
 10
0.0
 20
0.0
 30
0.0
  9
$UCSXDIR
 10
1.0
 20
0.0
 30
0.0
  9
$UCSYDIR
 10
0.0
 20
1.0
 30
0.0
  9
$UCSORTHOREF
  2

  9
$UCSORTHOVIEW
 70
0
  9
$UCSORGTOP
 10
0.0
 20
0.0
 30
0.0
  9
$UCSORGBOTTOM
 10
0.0
 20
0.0
 30
0.0
  9
$UCSORGLEFT
 10
0.0
 20
0.0
 30
0.0
  9
$UCSORGRIGHT
 10
0.0
 20
0.0
 30
0.0
  9
$UCSORGFRONT
 10
0.0
 20
0.0
 30
0.0
  9
$UCSORGBACK
 10
0.0
 20
0.0
 30
0.0
  9
$PUCSBASE
  2

  9
$PUCSNAME
  2

  9
$PUCSORG
 10
0.0
 20
0.0
 30
0.0
  9
$PUCSXDIR
 10
1.0
 20
0.0
 30
0.0
  9
$PUCSYDIR
 10
0.0
 20
1.0
 30
0.0
  9
$PUCSORTHOREF
  2

  9
$PUCSORTHOVIEW
 70
0
  9
$PUCSORGTOP
 10
0.0
 20
0.0
 30
0.0
  9
$PUCSORGBOTTOM
 10
0.0
 20
0.0
 30
0.0
  9
$PUCSORGLEFT
 10
0.0
 20
0.0
 30
0.0
  9
$PUCSORGRIGHT
 10
0.0
 20
0.0
 30
0.0
  9
$PUCSORGFRONT
 10
0.0
 20
0.0
 30
0.0
  9
$PUCSORGBACK
 10
0.0
 20
0.0
 30
0.0
  9
$USERI1
 70
0
  9
$USERI2
 70
0
  9
$USERI3
 70
0
  9
$USERI4
 70
0
  9
$USERI5
 70
0
  9
$USERR1
 40
0.0
  9
$USERR2
 40
0.0
  9
$USERR3
 40
0.0
  9
$USERR4
 40
0.0
  9
$USERR5
 40
0.0
  9
$WORLDVIEW
 70
1
  9
$SHADEDGE
 70
3
  9
$SHADEDIF
 70
70
  9
$TILEMODE
 70
1
  9
$MAXACTVP
 70
64
  9
$PINSBASE
 10
0.0
 20
0.0
 30
0.0
  9
$PLIMCHECK
 70
0
  9
$PEXTMIN
 10
1e+20
 20
1e+20
 30
1e+20
  9
$PEXTMAX
 10
-1e+20
 20
-1e+20
 30
-1e+20
  9
$PLIMMIN
 10
0.0
 20
0.0
  9
$PLIMMAX
 10
420.0
 20
297.0
  9
$UNITMODE
 70
0
  9
$VISRETAIN
 70
1
  9
$PLINEGEN
 70
0
  9
$PSLTSCALE
 70
1
  9
$TREEDEPTH
 70
3020
  9
$CMLSTYLE
  2
Standard
  9
$CMLJUST
 70
0
  9
$CMLSCALE
 40
20.0
  9
$PROXYGRAPHICS
 70
1
  9
$MEASUREMENT
 70
1
  9
$CELWEIGHT
370
-1
  9
$ENDCAPS
280
0
  9
$JOINSTYLE
280
0
  9
$LWDISPLAY
290
0
  9
$INSUNITS
 70
6
  9
$HYPERLINKBASE
  1

  9
$STYLESHEET
  1

  9
$XEDIT
290
1
  9
$CEPSNTYPE
380
0
  9
$PSTYLEMODE
290
1
  9
$FINGERPRINTGUID
  2
{ABF350B2-D2B4-40F5-A537-B5BF12DAA4F6}
  9
$VERSIONGUID
  2
{23EE76A7-22A5-4CC1-A8F9-D647F1ACCD5C}
  9
$EXTNAMES
290
1
  9
$PSVPSCALE
 40
0.0
  9
$OLESTARTUP
290
0
  9
$SORTENTS
280
127
  9
$INDEXCTL
280
0
  9
$HIDETEXT
280
1
  9
$XCLIPFRAME
280
1
  9
$HALOGAP
280
0
  9
$OBSCOLOR
 70
257
  9
$OBSLTYPE
280
0
  9
$INTERSECTIONDISPLAY
280
0
  9
$INTERSECTIONCOLOR
 70
257
  9
$DIMASSOC
280
2
  9
$PROJECTNAME
  1

  9
$CAMERADISPLAY
290
0
  9
$LENSLENGTH
 40
50.0
  9
$CAMERAHEIGHT
 40
0.0
  9
$STEPSPERSEC
 40
24.0
  9
$STEPSIZE
 40
100.0
  9
$3DDWFPREC
 40
2.0
  9
$PSOLWIDTH
 40
0.005
  9
$PSOLHEIGHT
 40
0.08
  9
$LOFTANG1
 40
1.570796326795
  9
$LOFTANG2
 40
1.570796326795
  9
$LOFTMAG1
 40
0.0
  9
$LOFTMAG2
 40
0.0
  9
$LOFTPARAM
 70
7
  9
$LOFTNORMALS
280
1
  9
$LATITUDE
 40
37.795
  9
$LONGITUDE
 40
-122.394
  9
$NORTHDIRECTION
 40
0.0
  9
$TIMEZONE
 70
-8000
  9
$LIGHTGLYPHDISPLAY
280
1
  9
$TILEMODELIGHTSYNCH
280
1
  9
$CMATERIAL
347
20
  9
$SOLIDHIST
280
0
  9
$SHOWHIST
280
1
  9
$DWFFRAME
280
2
  9
$DGNFRAME
280
2
  9
$REALWORLDSCALE
290
1
  9
$INTERFERECOLOR
 62
256
  9
$CSHADOW
280
0
  9
$SHADOWPLANELOCATION
 40
0.0
  0
ENDSEC
  0
SECTION
  2
CLASSES
  0
CLASS
  1
ACDBDICTIONARYWDFLT
  2
AcDbDictionaryWithDefault
  3
ObjectDBX Classes
 90
0
 91
0
280
0
281
0
  0
CLASS
  1
SUN
  2
AcDbSun
  3
SCENEOE
 90
1153
 91
0
280
0
281
0
  0
CLASS
  1
VISUALSTYLE
  2
AcDbVisualStyle
  3
ObjectDBX Classes
 90
4095
 91
0
280
0
281
0
  0
CLASS
  1
MATERIAL
  2
AcDbMaterial
  3
ObjectDBX Classes
 90
1153
 91
0
280
0
281
0
  0
CLASS
  1
SCALE
  2
AcDbScale
  3
ObjectDBX Classes
 90
1153
 91
0
280
0
281
0
  0
CLASS
  1
TABLESTYLE
  2
AcDbTableStyle
  3
ObjectDBX Classes
 90
4095
 91
0
280
0
281
0
  0
CLASS
  1
MLEADERSTYLE
  2
AcDbMLeaderStyle
  3
ACDB_MLEADERSTYLE_CLASS
 90
4095
 91
0
280
0
281
0
  0
CLASS
  1
DICTIONARYVAR
  2
AcDbDictionaryVar
  3
ObjectDBX Classes
 90
0
 91
0
280
0
281
0
  0
CLASS
  1
CELLSTYLEMAP
  2
AcDbCellStyleMap
  3
ObjectDBX Classes
 90
1152
 91
0
280
0
281
0
  0
CLASS
  1
MENTALRAYRENDERSETTINGS
  2
AcDbMentalRayRenderSettings
  3
SCENEOE
 90
1024
 91
0
280
0
281
0
  0
CLASS
  1
ACDBDETAILVIEWSTYLE
  2
AcDbDetailViewStyle
  3
ObjectDBX Classes
 90
1025
 91
0
280
0
281
0
  0
CLASS
  1
ACDBSECTIONVIEWSTYLE
  2
AcDbSectionViewStyle
  3
ObjectDBX Classes
 90
1025
 91
0
280
0
281
0
  0
CLASS
  1
RASTERVARIABLES
  2
AcDbRasterVariables
  3
ISM
 90
0
 91
0
280
0
281
0
  0
CLASS
  1
ACDBPLACEHOLDER
  2
AcDbPlaceHolder
  3
ObjectDBX Classes
 90
0
 91
0
280
0
281
0
  0
CLASS
  1
LAYOUT
  2
AcDbLayout
  3
ObjectDBX Classes
 90
0
 91
0
280
0
281
0
  0
ENDSEC
  0
SECTION
  2
TABLES
  0
TABLE
  2
VPORT
  5
8
330
0
100
AcDbSymbolTable
 70
1
  0
VPORT
  5
23
330
8
100
AcDbSymbolTableRecord
100
AcDbViewportTableRecord
  2
*Active
 70
0
 10
0.0
 20
0.0
 11
1.0
 21
1.0
 12
0.0
 22
0.0
 13
0.0
 23
0.0
 14
0.5
 24
0.5
 15
0.5
 25
0.5
 16
0.0
 26
0.0
 36
1.0
 17
0.0
 27
0.0
 37
0.0
 40
1000.0
 41
1.34
 42
50.0
 43
0.0
 44
0.0
 50
0.0
 51
0.0
 71
0
 72
1000
 73
1
 74
3
 75
0
 76
0
 77
0
 78
0
281
0
 65
0
146
0.0
  0
ENDTAB
  0
TABLE
  2
LTYPE
  5
2
330
0
100
AcDbSymbolTable
 70
3
  0
LTYPE
  5
24
330
2
100
AcDbSymbolTableRecord
100
AcDbLinetypeTableRecord
  2
ByBlock
 70
0
  3

 72
65
 73
0
 40
0.0
  0
LTYPE
  5
25
330
2
100
AcDbSymbolTableRecord
100
AcDbLinetypeTableRecord
  2
ByLayer
 70
0
  3

 72
65
 73
0
 40
0.0
  0
LTYPE
  5
26
330
2
100
AcDbSymbolTableRecord
100
AcDbLinetypeTableRecord
  2
Continuous
 70
0
  3

 72
65
 73
0
 40
0.0
  0
ENDTAB
  0
TABLE
  2
LAYER
  5
1
330
0
100
AcDbSymbolTable
 70
3
  0
LAYER
  5
27
330
1
100
AcDbSymbolTableRecord
100
AcDbLayerTableRecord
  2
0
 70
0
 62
7
  6
Continuous
370
-3
390
13
347
21
  0
LAYER
  5
28
330
1
100
AcDbSymbolTableRecord
100
AcDbLayerTableRecord
  2
Defpoints
 70
0
 62
7
  6
Continuous
290
0
370
-3
390
13
347
21
  0
LAYER
  5
2F
330
1
100
AcDbSymbolTableRecord
100
AcDbLayerTableRecord
  2
relief
 70
0
 62
7
  6
Continuous
370
-3
390
13
347
21
  0
ENDTAB
  0
TABLE
  2
STYLE
  5
5
330
0
100
AcDbSymbolTable
 70
1
  0
STYLE
  5
29
330
5
100
AcDbSymbolTableRecord
100
AcDbTextStyleTableRecord
  2
Standard
 70
0
 40
0.0
 41
1.0
 50
0.0
 71
0
 42
2.5
  3
txt
  4

  0
ENDTAB
  0
TABLE
  2
VIEW
  5
7
330
0
100
AcDbSymbolTable
 70
0
  0
ENDTAB
  0
TABLE
  2
UCS
  5
6
330
0
100
AcDbSymbolTable
 70
0
  0
ENDTAB
  0
TABLE
  2
APPID
  5
3
330
0
100
AcDbSymbolTable
 70
3
  0
APPID
  5
2A
330
3
100
AcDbSymbolTableRecord
100
AcDbRegAppTableRecord
  2
ACAD
 70
0
  0
APPID
  5
38
330
3
100
AcDbSymbolTableRecord
100
AcDbRegAppTableRecord
  2
HATCHBACKGROUNDCOLOR
 70
0
  0
APPID
  5
39
330
3
100
AcDbSymbolTableRecord
100
AcDbRegAppTableRecord
  2
EZDXF
 70
0
  0
ENDTAB
  0
TABLE
  2
DIMSTYLE
  5
4
330
0
100
AcDbSymbolTable
 70
1
100
AcDbDimStyleTable
  0
DIMSTYLE
105
2B
330
4
100
AcDbSymbolTableRecord
100
AcDbDimStyleTableRecord
  2
Standard
 70
0
 40
1.0
 41
2.5
 42
0.625
 43
3.75
 44
1.25
 45
0.0
 46
0.0
 47
0.0
 48
0.0
 49
2.5
140
2.5
141
2.5
142
0.0
143
0.03937007874
144
1.0
145
0.0
146
1.0
147
0.625
148
0.0
 69
0
 70
0
 71
0
 72
0
 73
0
 74
0
 75
0
 76
0
 77
1
 78
8
 79
3
170
0
171
3
172
1
173
0
174
0
175
0
176
0
177
0
178
0
179
2
271
2
272
2
273
2
274
3
275
0
276
0
277
2
278
44
279
0
280
0
281
0
282
0
283
0
284
8
285
0
286
0
288
0
289
3
290
0
371
-2
372
-2
  0
ENDTAB
  0
TABLE
  2
BLOCK_RECORD
  5
9
330
0
100
AcDbSymbolTable
 70
2
  0
BLOCK_RECORD
  5
17
330
9
100
AcDbSymbolTableRecord
100
AcDbBlockTableRecord
  2
*Model_Space
340
1A
 70
0
280
1
281
0
  0
BLOCK_RECORD
  5
1B
330
9
100
AcDbSymbolTableRecord
100
AcDbBlockTableRecord
  2
*Paper_Space
340
1E
 70
0
280
1
281
0
  0
ENDTAB
  0
ENDSEC
  0
SECTION
  2
BLOCKS
  0
BLOCK
  5
18
330
17
100
AcDbEntity
  8
0
100
AcDbBlockBegin
  2
*Model_Space
 70
0
 10
0.0
 20
0.0
 30
0.0
  3
*Model_Space
  1

  0
ENDBLK
  5
19
330
17
100
AcDbEntity
  8
0
100
AcDbBlockEnd
  0
BLOCK
  5
1C
330
1B
100
AcDbEntity
  8
0
100
AcDbBlockBegin
  2
*Paper_Space
 70
0
 10
0.0
 20
0.0
 30
0.0
  3
*Paper_Space
  1

  0
ENDBLK
  5
1D
330
1B
100
AcDbEntity
  8
0
100
AcDbBlockEnd
  0
ENDSEC
  0
SECTION
  2
ENTITIES
  0
LWPOLYLINE
  5
30
330
17
100
AcDbEntity
  8
relief
100
AcDbPolyline
 90
147
 70
1
 10
15.652304609219938
 20
121.65531062124391
 10
15.397795591196038
 20
122.16432865731235
 10
15.440213760869934
 20
122.67334669338078
 10
15.270541082174356
 20
123.18236472946172
 10
14.931195724783201
 20
123.69138276553016
 10
14.761523046087623
 20
123.94589178356438
 10
14.507014028063724
 20
124.20040080159859
 10
14.507014028063724
 20
124.70941883767955
 10
14.252505010020357
 20
124.96392785571376
 10
14.125250500998675
 20
125.21843687374798
 10
13.99799599197699
 20
125.7274549098164
 10
13.743486973953093
 20
125.85470941883351
 10
13.234468937885827
 20
126.01832235900731
 10
12.725450901799096
 20
126.01832235900731
 10
12.216432865731832
 20
126.13466933868868
 10
11.707414829664566
 20
126.23647294589736
 10
11.198396793597302
 20
126.03286573146748
 10
10.689378757510568
 20
125.85470941883351
 10
10.180360721443304
 20
125.93106212424628
 10
9.67134268537604
 20
126.03286573146748
 10
9.162324649308774
 20
125.89712758851422
 10
9.060521042099214
 20
125.7274549098164
 10
8.65330661322204
 20
125.21843687374798
 10
8.144288577154775
 20
124.70941883767955
 10
7.635270541087512
 20
124.50581162324967
 10
7.295925183715824
 20
124.70941883767955
 10
7.126252505020247
 20
124.87909151636485
 10
6.786907147629091
 20
125.21843687374798
 10
6.617234468933514
 20
125.38810955243328
 10
6.277889111561827
 20
125.7274549098164
 10
6.10821643286625
 20
125.85470941883351
 10
5.599198396798985
 20
125.98196392786315
 10
5.09018036073172
 20
125.8728886344056
 10
4.581162324644986
 20
125.7274549098164
 10
4.199398797599406
 20
125.21843687374798
 10
4.0721442885777215
 20
125.04876419506267
 10
3.732798931186567
 20
124.70941883767955
 10
3.5631262525104574
 20
124.4549098196328
 10
3.054108216443193
 20
124.20040080159859
 10
2.5450901803564596
 20
124.50581162324967
 10
2.0360721442891947
 20
124.53974615898171
 10
1.5270541082219304
 20
124.70941883767955
 10
1.1877087508502435
 20
125.21843687374798
 10
1.0180360721546657
 20
125.47294589178219
 10
0.5090180360679326
 20
125.7274549098164
 10
6.679101716144942e-13
 20
125.6002004007993
 10
6.679101716144942e-13
 20
125.7274549098164
 10
6.679101716144942e-13
 20
126.23647294589736
 10
6.679101716144942e-13
 20
126.74549098196579
 10
6.679101716144942e-13
 20
127.25450901803421
 10
6.679101716144942e-13
 20
127.76352705410265
 10
6.679101716144942e-13
 20
128.2725450901836
 10
6.679101716144942e-13
 20
128.78156312625202
 10
6.679101716144942e-13
 20
129.29058116232045
 10
6.679101716144942e-13
 20
129.7995991984014
 10
6.679101716144942e-13
 20
130.30861723446984
 10
6.679101716144942e-13
 20
130.8176352705383
 10
6.679101716144942e-13
 20
131.32665330661922
 10
6.679101716144942e-13
 20
131.83567134268765
 10
6.679101716144942e-13
 20
132.3446893787561
 10
0.5090180360679326
 20
132.09018036072186
 10
0.6786907147635103
 20
131.83567134268765
 10
0.5090180360679326
 20
131.58116232465343
 10
0.33934535737235483
 20
131.32665330661922
 10
0.12725450900288268
 20
130.8176352705383
 10
0.25450901802456594
 20
130.30861723446984
 10
0.5090180360679326
 20
129.92685370741853
 10
0.6362725450896158
 20
129.7995991984014
 10
1.0180360721546657
 20
129.41783567133757
 10
1.2725450901980324
 20
129.29058116232045
 10
1.5270541082219304
 20
129.03607214428624
 10
1.7815631262458285
 20
129.29058116232045
 10
2.0360721442891947
 20
129.5450901803672
 10
2.2905811623325616
 20
129.7995991984014
 10
2.5450901803564596
 20
130.30861723446984
 10
2.7995991983998265
 20
130.8176352705383
 10
3.054108216443193
 20
131.32665330661922
 10
3.054108216443193
 20
131.83567134268765
 10
3.5631262525104574
 20
131.98110506727684
 10
4.0721442885777215
 20
132.02655310620705
 10
4.581162324664455
 20
132.0538219295777
 10
5.09018036073172
 20
132.1992556541669
 10
5.599198396798985
 20
132.27197251645524
 10
5.853707414822883
 20
132.3446893787561
 10
6.10821643286625
 20
132.51436205745392
 10
6.617234468933514
 20
132.3446893787561
 10
7.126252505020247
 20
132.3446893787561
 10
7.635270541087512
 20
132.3446893787561
 10
8.144288577154775
 20
132.2428857715474
 10
8.65330661322204
 20
132.3446893787561
 10
8.65330661322204
 20
132.85370741482453
 10
8.944174062422805
 20
133.36272545090546
 10
9.009619238494436
 20
133.8717434869739
 10
9.162324649308774
 20
134.25350701402522
 10
9.289579158330458
 20
134.38076152304234
 10
9.67134268537604
 20
134.6861723446934
 10
10.180360721443304
 20
134.72010688042545
 10
10.689378757510568
 20
134.72010688042545
 10
11.028724114901724
 20
134.38076152304234
 10
11.198396793597302
 20
133.8717434869739
 10
11.707414829645097
 20
133.5323981296033
 10
12.216432865731832
 20
133.6172344689397
 10
12.47094188375573
 20
133.8717434869739
 10
12.725450901799096
 20
134.38076152304234
 10
13.234468937885827
 20
133.8717434869739
 10
13.573814295257515
 20
133.36272545090546
 10
13.743486973953093
 20
133.10821643287125
 10
14.252505010020357
 20
132.85370741482453
 10
14.761523046087623
 20
133.36272545090546
 10
15.270541082174356
 20
133.02338009352235
 10
15.77955911824162
 20
133.10821643287125
 10
16.288577154308882
 20
133.36272545090546
 10
16.670340681354467
 20
132.85370741482453
 10
16.79759519037615
 20
132.6840347361392
 10
17.136940547767306
 20
132.3446893787561
 10
17.306613226462883
 20
131.83567134268765
 10
17.51022044090147
 20
131.32665330661922
 10
17.64595858383457
 20
130.8176352705383
 10
17.64595858383457
 20
130.30861723446984
 10
17.815631262530147
 20
129.7995991984014
 10
18.32464929859741
 20
129.6299265197036
 10
18.833667334664675
 20
129.29058116232045
 10
19.088176352708047
 20
128.78156312625202
 10
19.088176352708047
 20
128.2725450901836
 10
19.088176352708047
 20
127.76352705410265
 10
19.088176352708047
 20
127.25450901803421
 10
19.037274549103266
 20
126.74549098196579
 10
19.139078156312824
 20
126.23647294589736
 10
19.139078156312824
 20
125.7274549098164
 10
19.088176352708047
 20
125.21843687374798
 10
19.12453478384597
 20
124.70941883767955
 10
19.240881763541854
 20
124.20040080159859
 10
19.28612781118622
 20
123.69138276553016
 10
19.34268537075141
 20
123.18236472946172
 10
19.25784903140362
 20
122.67334669338078
 10
19.139078156312824
 20
122.16432865731235
 10
19.17301269205583
 20
121.65531062124391
 10
18.833667334664675
 20
121.14629258517549
 10
18.32464929859741
 20
120.63727454909454
 10
17.815631262510678
 20
120.46760187040924
 10
17.306613226462883
 20
120.33186372745598
 10
16.79759519037615
 20
120.38276553106031
 10
16.458249833004462
 20
120.63727454909454
 10
16.288577154308882
 20
120.80694722779236
 10
15.77955911824162
 20
120.63727454909454
 10
15.652304609219938
 20
121.14629258517549
 10
15.652304609219938
 20
121.65531062124391
  0
LWPOLYLINE
  5
31
330
17
100
AcDbEntity
  8
relief
100
AcDbPolyline
 90
28
 70
1
 10
113.51102204409092
 20
99.85237140948755
 10
113.00200400802366
 20
100.2038362439062
 10
112.94544644845847
 20
100.27655310620706
 10
113.00200400802366
 20
100.44622578490488
 10
113.51102204409092
 20
100.785571142288
 10
114.02004008015818
 20
100.98917835671789
 10
114.52905811622546
 20
101.29458917835645
 10
114.52905811622546
 20
101.80360721442487
 10
114.69873079492103
 20
102.31262525050582
 10
115.0380761523122
 20
102.82164328657426
 10
115.37742150968387
 20
103.33066132264268
 10
115.54709418837946
 20
103.43246492986388
 10
115.71676686705557
 20
103.33066132264268
 10
115.75070140279857
 20
102.82164328657426
 10
115.67434869740113
 20
102.31262525050582
 10
115.64889779558901
 20
101.80360721442487
 10
115.54709418837946
 20
101.29458917835645
 10
115.71676686705557
 20
100.785571142288
 10
116.05611222444672
 20
100.27655310620706
 10
115.92885771542504
 20
99.76753507013862
 10
115.88643954575113
 20
99.2585170340702
 10
115.54709418837946
 20
99.113083309481
 10
115.0380761523122
 20
99.20195947449591
 10
114.78356713426882
 20
99.2585170340702
 10
114.52905811622546
 20
99.51302605210441
 10
114.02004008015818
 20
99.51302605210441
 10
113.6382765531126
 20
99.76753507013862
 10
113.51102204409092
 20
99.85237140948755
  0
LWPOLYLINE
  5
32
330
17
100
AcDbEntity
  8
relief
100
AcDbPolyline
 90
667
 70
1
 10
173.26973947896408
 20
232.62124248497565
 10
173.44789579157106
 20
233.1302605210441
 10
173.0661322645255
 20
233.63927855711253
 10
172.5571142284582
 20
233.63927855711253
 10
172.04809619239097
 20
233.80895123579782
 10
171.53907815630424
 20
234.14829659318096
 10
171.03006012023695
 20
233.63927855711253
 10
171.53907815630424
 20
233.2575150300612
 10
171.79358717434758
 20
233.1302605210441
 10
171.79358717434758
 20
232.62124248497565
 10
171.53907815630424
 20
232.49398797595856
 10
171.03006012023695
 20
232.45156980629037
 10
170.52104208416966
 20
232.36673346694144
 10
170.01202404810243
 20
232.28189712759254
 10
169.5030060120157
 20
232.45156980629037
 10
169.37575150301348
 20
232.62124248497565
 10
169.5030060120157
 20
232.8757515030099
 10
170.01202404810243
 20
232.9605878423588
 10
170.0968603874502
 20
233.1302605210441
 10
170.3513694054741
 20
233.63927855711253
 10
170.01202404810243
 20
233.8428857715424
 10
169.5030060120157
 20
234.14829659318096
 10
169.67267869071128
 20
234.65731462926192
 10
169.67267869071128
 20
235.16633266533034
 10
169.5030060120157
 20
235.33600534401563
 10
168.99398797594841
 20
235.42084168336456
 10
168.73947895790502
 20
235.67535070139877
 10
168.73947895790502
 20
236.18436873747973
 10
168.48496993988113
 20
236.69338677354816
 10
168.48496993988113
 20
237.20240480961658
 10
168.99398797594841
 20
237.3296593186337
 10
169.24849699399175
 20
237.20240480961658
 10
169.5030060120157
 20
237.10060120240792
 10
170.01202404810243
 20
236.94789579158237
 10
170.393787575148
 20
236.69338677354816
 10
170.52104208416966
 20
236.52371409486284
 10
170.6907147628653
 20
236.69338677354816
 10
171.03006012023695
 20
236.86305945223347
 10
171.53907815630424
 20
237.11756847026768
 10
171.61179501859954
 20
237.20240480961658
 10
171.9349810732606
 20
237.71142284569754
 10
172.04809619239097
 20
238.22044088176597
 10
172.3535070140391
 20
238.7294589178344
 10
172.5571142284582
 20
238.8748926424236
 10
173.0661322645255
 20
239.02032636701279
 10
173.57515030059278
 20
239.03486973947295
 10
174.08416833669895
 20
238.94760950472445
 10
174.59318637274674
 20
238.8748926424236
 10
174.7967935871659
 20
238.7294589178344
 10
175.10220440881403
 20
238.51130833094436
 10
175.61122244488126
 20
238.47494989980018
 10
176.120240480968
 20
238.22044088176597
 10
176.4595858383397
 20
238.7294589178344
 10
176.42565130261613
 20
239.23847695390282
 10
176.338391067854
 20
239.74749498998378
 10
176.19295734326334
 20
240.2565130260522
 10
176.120240480968
 20
240.76553106212063
 10
176.120240480968
 20
241.2745490982016
 10
176.17679804053319
 20
241.78356713427002
 10
176.120240480968
 20
242.03807615230423
 10
176.03540414160074
 20
242.29258517033844
 10
175.81482965931986
 20
242.8016032064069
 10
175.61122244488126
 20
243.31062124248783
 10
176.120240480968
 20
243.56513026052204
 10
176.32384769538714
 20
243.81963927855628
 10
176.62925851703528
 20
244.0741482965905
 10
176.93466933868342
 20
244.3286573146247
 10
177.13827655310251
 20
244.58316633265892
 10
177.28371027769316
 20
244.83767535070564
 10
177.42106435090903
 20
245.3466933867741
 10
177.53417947003942
 20
245.85571142284252
 10
177.6472945891698
 20
246.11022044088924
 10
178.15631262525653
 20
246.36472945892345
 10
178.66533066132376
 20
246.517434869749
 10
179.17434869739105
 20
246.78119876116583
 10
179.51369405476277
 20
246.8737474949919
 10
179.68336673345829
 20
247.04342017368973
 10
180.0227120908495
 20
247.38276553106033
 10
180.19238476954507
 20
247.55243820974562
 10
180.33781849413572
 20
247.89178356712875
 10
180.63777555110147
 20
248.40080160320971
 10
180.7014028056123
 20
248.50260521043091
 10
181.04074816298402
 20
248.90981963927814
 10
181.2104208416796
 20
249.24916499666128
 10
181.38009352037517
 20
249.41883767534657
 10
181.2104208416796
 20
249.92785571142753
 10
180.70140280559286
 20
250.26720106881064
 10
180.61656646626454
 20
250.43687374750846
 10
180.2560120240559
 20
250.94589178356438
 10
180.19238476954507
 20
251.45490981964534
 10
180.2560120240559
 20
251.96392785571376
 10
180.36205744824065
 20
252.4729458917822
 10
180.4237566041158
 20
252.98196392785061
 10
180.47517256737103
 20
253.49098196393157
 10
180.57414829659064
 20
254.0
 10
180.7014028056123
 20
254.0
 10
181.2104208416796
 20
254.0
 10
181.71943887774682
 20
254.0
 10
182.22845691383355
 20
254.0
 10
182.73747494990084
 20
254.0
 10
183.24649298596813
 20
254.0
 10
183.75551102203536
 20
254.0
 10
184.2645290581221
 20
254.0
 10
184.77354709418938
 20
254.0
 10
185.28256513025667
 20
254.0
 10
185.7915831663239
 20
254.0
 10
186.30060120241063
 20
254.0
 10
186.80961923847792
 20
254.0
 10
187.31863727454515
 20
254.0
 10
187.82765531061244
 20
254.0
 10
188.33667334669917
 20
254.0
 10
188.8456913827664
 20
254.0
 10
189.3547094188337
 20
254.0
 10
189.86372745490092
 20
254.0
 10
190.3727454909877
 20
254.0
 10
190.88176352705494
 20
254.0
 10
191.39078156312223
 20
254.0
 10
191.89979959918946
 20
254.0
 10
192.4088176352762
 20
254.0
 10
192.91783567134348
 20
254.0
 10
193.42685370741077
 20
254.0
 10
193.935871743478
 20
254.0
 10
194.44488977956473
 20
254.0
 10
194.95390781563202
 20
254.0
 10
195.4629258516993
 20
254.0
 10
195.97194388776654
 20
254.0
 10
196.48096192385327
 20
254.0
 10
196.98997995992056
 20
254.0
 10
197.4989979959878
 20
254.0
 10
198.00801603205508
 20
254.0
 10
198.5170340681418
 20
254.0
 10
199.02605210420904
 20
254.0
 10
199.53507014027633
 20
254.0
 10
200.04408817634356
 20
254.0
 10
200.55310621243035
 20
254.0
 10
201.06212424849758
 20
254.0
 10
201.57114228456487
 20
254.0
 10
202.0801603206321
 20
254.0
 10
202.58917835671883
 20
254.0
 10
203.09819639278612
 20
254.0
 10
203.6072144288534
 20
254.0
 10
204.11623246492064
 20
253.49098196393157
 10
204.62525050100737
 20
253.49098196393157
 10
204.7949231796835
 20
254.0
 10
205.13426853707466
 20
254.0
 10
205.64328657314195
 20
254.0
 10
206.15230460920918
 20
254.0
 10
206.6613226452959
 20
254.0
 10
207.00066800266757
 20
254.0
 10
207.00066800266757
 20
253.49098196393157
 10
207.1703406813632
 20
253.23647294589736
 10
207.67935871743043
 20
252.98196392785061
 10
208.18837675349772
 20
253.32130928523375
 10
208.44288577154106
 20
253.49098196393157
 10
208.3580494321933
 20
254.0
 10
208.69739478958445
 20
254.0
 10
209.20641282565168
 20
254.0
 10
209.71543086171897
 20
254.0
 10
210.2244488977862
 20
254.0
 10
210.733466933873
 20
254.0
 10
211.24248496994022
 20
254.0
 10
211.7515030060075
 20
254.0
 10
212.26052104207474
 20
254.0
 10
212.76953907816147
 20
254.0
 10
213.27855711422876
 20
254.0
 10
213.787575150296
 20
254.0
 10
214.29659318636328
 20
254.0
 10
214.80561122245
 20
254.0
 10
215.3146292585173
 20
254.0
 10
215.18737474949558
 20
253.49098196393157
 10
214.80561122245
 20
253.10921843686774
 10
214.70380761524046
 20
252.98196392785061
 10
214.50020040080187
 20
252.4729458917822
 10
214.29659318636328
 20
251.96392785571376
 10
213.787575150296
 20
251.79425517702845
 10
213.27855711422876
 20
251.96392785571376
 10
213.27855711422876
 20
252.4729458917822
 10
213.27855711422876
 20
252.98196392785061
 10
212.76953907816147
 20
252.98196392785061
 10
212.76953907816147
 20
252.4729458917822
 10
212.76953907816147
 20
251.96392785571376
 10
212.76953907816147
 20
251.45490981964534
 10
212.66773547095192
 20
250.94589178356438
 10
212.69682221586618
 20
250.43687374749595
 10
212.5998663994659
 20
249.92785571142753
 10
212.34535738140306
 20
249.41883767534657
 10
212.26052104207474
 20
249.29158316632947
 10
211.7515030060075
 20
248.90981963927814
 10
211.24248496994022
 20
248.65531062124393
 10
211.07281229124465
 20
248.40080160320971
 10
210.733466933873
 20
248.06145624582658
 10
210.2244488977862
 20
248.01903807614588
 10
209.71543086171897
 20
248.06145624582658
 10
209.20641282565168
 20
248.40080160320971
 10
208.69739478958445
 20
248.5462353277989
 10
208.18837675349772
 20
248.50260521041838
 10
207.93386773545433
 20
248.40080160320971
 10
207.76419505675875
 20
247.89178356712875
 10
207.76419505675875
 20
247.38276553106033
 10
207.67935871743043
 20
246.8737474949919
 10
207.97022616661172
 20
246.36472945892345
 10
208.18837675349772
 20
245.85571142284252
 10
208.69739478958445
 20
245.6012024048083
 10
209.20641282565168
 20
245.6012024048083
 10
209.41002004007083
 20
245.3466933867741
 10
209.71543086171897
 20
244.83767535070564
 10
209.9699398797623
 20
244.3286573146247
 10
210.05477621909068
 20
243.81963927855628
 10
209.71543086171897
 20
243.31062124248783
 10
209.20641282565168
 20
242.928857715424
 10
208.9519038076278
 20
242.8016032064069
 10
208.69739478958445
 20
242.72888634411856
 10
208.18837675349772
 20
242.63193052772158
 10
207.93386773545433
 20
242.8016032064069
 10
207.78116232463998
 20
243.31062124248783
 10
207.67935871743043
 20
243.81963927855628
 10
207.1703406813632
 20
243.81963927855628
 10
206.6613226452959
 20
243.31062124248783
 10
206.9158316633198
 20
242.8016032064069
 10
206.9158316633198
 20
242.29258517033844
 10
206.6613226452959
 20
242.16533066132135
 10
206.15230460920918
 20
242.03807615230423
 10
205.64328657314195
 20
242.29258517033844
 10
205.13426853707466
 20
242.8016032064069
 10
204.62525050100737
 20
242.97127588510472
 10
204.4979959919857
 20
242.8016032064069
 10
204.62525050100737
 20
242.29258517033844
 10
204.7949231796835
 20
241.78356713427002
 10
205.13426853707466
 20
241.2745490982016
 10
205.26152304609633
 20
240.76553106212063
 10
205.13426853705516
 20
240.59585838343534
 10
204.62525050100737
 20
240.2565130260522
 10
204.11623246492064
 20
239.74749498998378
 10
203.8617234468773
 20
239.23847695390282
 10
203.8617234468773
 20
238.7294589178344
 10
203.8617234468773
 20
238.22044088176597
 10
204.11623246492064
 20
237.71142284569754
 10
204.62525050100737
 20
237.3720774883144
 10
205.13426853707466
 20
237.20240480961658
 10
205.64328657314195
 20
237.3296593186337
 10
206.15230460920918
 20
237.71142284569754
 10
206.32197728790476
 20
238.22044088176597
 10
206.6613226452959
 20
238.7294589178344
 10
207.1703406813632
 20
238.52585170340453
 10
207.67935871743043
 20
238.3901135604638
 10
207.88296593184958
 20
238.22044088176597
 10
208.18837675349772
 20
237.96593186373175
 10
208.69739478958445
 20
237.71142284569754
 10
208.9519038076278
 20
237.20240480961658
 10
209.20641282565168
 20
236.69338677354816
 10
209.20641282565168
 20
236.18436873747973
 10
209.20641282565168
 20
235.67535070139877
 10
209.26297038521687
 20
235.16633266533034
 10
209.32387852627363
 20
234.65731462926192
 10
209.20641282565168
 20
234.27555110219808
 10
209.10460921844214
 20
234.14829659318096
 10
208.8428285141751
 20
233.63927855711253
 10
208.90100200402304
 20
233.1302605210441
 10
209.20641282565168
 20
232.74849699399277
 10
209.2912491649995
 20
232.6212424849882
 10
209.49728027483297
 20
232.11222444889472
 10
209.56999713712833
 20
231.6032064128263
 10
209.64271399942368
 20
231.09418837675784
 10
209.71543086171897
 20
230.92451569806002
 10
210.2244488977862
 20
230.78877755510678
 10
210.733466933873
 20
230.83967935871112
 10
211.24248496994022
 20
230.99238476953664
 10
211.7515030060075
 20
231.09418837675784
 10
212.26052104207474
 20
231.34869739479208
 10
212.3623246492843
 20
231.6032064128263
 10
212.26052104207474
 20
231.8577154308605
 10
212.0060120240314
 20
232.11222444889472
 10
212.26052104207474
 20
232.28189712759254
 10
212.3877755510964
 20
232.62124248497565
 10
212.57865731462897
 20
233.1302605210441
 10
212.62410535357083
 20
233.63927855711253
 10
212.76953907816147
 20
233.80895123581035
 10
213.27855711422876
 20
234.0464929859723
 10
213.44822979292434
 20
234.14829659318096
 10
213.787575150296
 20
234.35190380761082
 10
214.29659318636328
 20
234.25010020040216
 10
214.42384769538495
 20
234.14829659318096
 10
214.80561122245
 20
233.63927855711253
 10
215.0601202404739
 20
233.1302605210441
 10
215.3146292585173
 20
232.8757515030099
 10
215.3711868180825
 20
232.62124248497565
 10
215.46006298310795
 20
232.11222444889472
 10
215.72184368737499
 20
231.6032064128263
 10
215.82364729458453
 20
231.47595190380918
 10
216.33266533065182
 20
231.22144288577496
 10
216.84168336673855
 20
231.22144288577496
 10
217.35070140280584
 20
231.29779559118774
 10
217.85971943887307
 20
231.09418837675784
 10
218.36873747494036
 20
230.5851703406769
 10
218.8777555110271
 20
230.16098864395738
 10
219.38677354709432
 20
230.07615230460848
 10
219.8957915831616
 20
230.22158602919765
 10
220.31997327988108
 20
230.58517034068942
 10
220.40480961922884
 20
230.712424849694
 10
220.71022044087704
 20
231.09418837675784
 10
220.81202404808658
 20
231.6032064128263
 10
220.91382765531563
 20
231.8577154308605
 10
220.97745490982646
 20
232.11222444889472
 10
221.0410821643373
 20
232.62124248497565
 10
221.08350033401115
 20
233.1302605210441
 10
221.05926137990627
 20
233.63927855711253
 10
221.21923847696377
 20
234.14829659318096
 10
221.42284569138286
 20
234.4876419505641
 10
221.93186372745015
 20
234.40280561121517
 10
222.44088176351738
 20
234.22101345548182
 10
222.54268537072693
 20
234.14829659318096
 10
222.9498997996041
 20
234.02852764351854
 10
223.4589178356714
 20
234.00286286859176
 10
223.96793587173863
 20
234.0464929859723
 10
224.17154308617722
 20
234.14829659318096
 10
224.47695390780592
 20
234.40280561121517
 10
224.98597194389265
 20
234.4876419505641
 10
225.49498997995994
 20
234.4876419505641
 10
225.74949899798384
 20
234.14829659318096
 10
225.49498997995994
 20
233.63927855711253
 10
225.29138276552135
 20
233.1302605210441
 10
224.98597194389265
 20
232.8757515030099
 10
224.6805611222445
 20
232.62124248497565
 10
224.47695390780592
 20
232.28189712759254
 10
224.42039634824073
 20
232.11222444889472
 10
224.18608645862463
 20
231.6032064128263
 10
223.96793587173863
 20
231.34869739479208
 10
223.4589178356714
 20
231.1669052390587
 10
223.28924515697582
 20
231.09418837675784
 10
222.9498997996041
 20
230.89058116232798
 10
222.69539078156077
 20
230.5851703406769
 10
222.64448897795597
 20
230.07615230460848
 10
222.74629258516552
 20
229.56713426854003
 10
222.80446607501347
 20
229.0581162324591
 10
222.9498997996041
 20
228.54909819639067
 10
223.1535070140427
 20
228.04008016032222
 10
222.9498997996041
 20
227.5310621242538
 10
222.61055444221296
 20
227.02204408817283
 10
222.44088176351738
 20
226.81843687374297
 10
221.93186372745015
 20
226.5130260521044
 10
221.42284569138286
 20
226.00400801603598
 10
220.99866399464395
 20
225.49498997995502
 10
220.91382765531563
 20
225.36773547093793
 10
220.40480961922884
 20
225.11322645290372
 10
219.8957915831616
 20
224.9859719438866
 10
219.47160988644214
 20
224.47695390781817
 10
219.38677354709432
 20
224.22244488977142
 10
219.21710086839875
 20
223.9679358717372
 10
219.13226452905099
 20
223.45891783566879
 10
218.96259185037485
 20
222.94989979960036
 10
218.8777555110271
 20
222.69539078156615
 10
218.77595190381754
 20
222.44088176353193
 10
218.5868880618458
 20
221.93186372745097
 10
218.53841015363594
 20
221.42284569138255
 10
218.45357381428812
 20
220.91382765531412
 10
218.36873747494036
 20
220.786573146297
 10
218.22991437420183
 20
220.40480961923316
 10
218.05060120238613
 20
219.89579158316474
 10
217.9985425396116
 20
219.3867735470963
 10
217.85971943887307
 20
218.87775551102789
 10
217.35070140280584
 20
218.36873747494693
 10
216.84168336673855
 20
218.0293921175638
 10
216.5023380093474
 20
218.36873747494693
 10
216.33266533065182
 20
218.87775551102789
 10
215.82364729458453
 20
219.3867735470963
 10
215.7600200400737
 20
219.89579158316474
 10
215.72184368737499
 20
220.40480961923316
 10
215.684824193846
 20
220.91382765531412
 10
215.49972672618162
 20
221.42284569138255
 10
215.42774437764768
 20
221.93186372745097
 10
215.3146292584978
 20
222.2712090848341
 10
215.0601202404739
 20
222.44088176353193
 10
214.9752839011456
 20
222.94989979960036
 10
214.80561122245
 20
223.11957247828568
 10
214.55110220440667
 20
223.45891783566879
 10
214.29659318636328
 20
223.79826319305192
 10
213.787575150296
 20
223.86613226452855
 10
213.27855711422876
 20
223.74978528484718
 10
212.76953907816147
 20
223.6285905143541
 10
212.26052104207474
 20
223.45891783566879
 10
211.7515030060075
 20
223.76432865730735
 10
211.4121576486358
 20
223.9679358717372
 10
211.24248496994022
 20
224.22244488977142
 10
211.19158316633542
 20
224.47695390781817
 10
210.93707414829208
 20
224.9859719438866
 10
210.733466933873
 20
225.32531730126973
 10
210.2244488977862
 20
225.49498997995502
 10
209.71543086171897
 20
225.59679358717622
 10
209.20641282565168
 20
225.49498997995502
 10
208.69739478958445
 20
225.49498997995502
 10
208.18837675349772
 20
225.49498997995502
 10
207.67935871743043
 20
226.00400801603598
 10
207.1703406813632
 20
226.41122244489574
 10
206.9158316633198
 20
226.5130260521044
 10
206.6613226452959
 20
226.68269873078972
 10
206.40681362725257
 20
227.02204408817283
 10
206.15230460920918
 20
227.19171676687068
 10
205.64328657314195
 20
227.3613894455685
 10
205.13426853707466
 20
227.5310621242538
 10
204.62525050100737
 20
227.5310621242538
 10
204.11623246492064
 20
227.5310621242538
 10
203.6072144288534
 20
227.5310621242538
 10
203.09819639278612
 20
227.12384769539403
 10
202.92852371409055
 20
227.02204408817283
 10
202.58917835671883
 20
226.81843687374297
 10
202.0801603206321
 20
226.81843687374297
 10
201.57114228456487
 20
226.83116232465343
 10
201.06212424849758
 20
227.02204408817283
 10
200.5531062124498
 20
227.31291153736376
 10
200.3622244488978
 20
227.5310621242538
 10
200.229185644008
 20
228.04008016032222
 10
200.04408817634356
 20
228.54909819639067
 10
199.53507014027633
 20
228.88844355377378
 10
199.28056112225244
 20
229.0581162324591
 10
199.02605210420904
 20
229.31262525050582
 10
198.92424849698006
 20
229.56713426854003
 10
198.70791583165487
 20
230.07615230460848
 10
198.58066132265265
 20
230.5851703406769
 10
198.5170340681418
 20
230.83967935871112
 10
198.26252505009842
 20
231.09418837675784
 10
198.00801603205508
 20
231.34869739479208
 10
197.4989979959878
 20
231.6032064128263
 10
196.98997995992056
 20
231.26386105544316
 10
196.48096192385327
 20
231.09418837675784
 10
196.22645290580994
 20
230.5851703406769
 10
196.3112892451577
 20
230.07615230460848
 10
196.17555110220513
 20
229.56713426854003
 10
195.97194388776654
 20
229.31262525050582
 10
195.85882876863616
 20
229.0581162324591
 10
195.74057205319582
 20
228.54909819639067
 10
195.6665330661184
 20
228.04008016032222
 10
195.6538076152318
 20
227.5310621242538
 10
195.6538076152318
 20
227.02204408817283
 10
195.5092002186251
 20
226.5130260521044
 10
195.4629258516993
 20
226.44939879760213
 10
194.95390781563202
 20
226.4281897127555
 10
194.44488977956473
 20
226.5130260521044
 10
194.02070808282576
 20
226.00400801603598
 10
193.935871743478
 20
225.8767535070189
 10
193.42685370741077
 20
225.49498997995502
 10
192.91783567134348
 20
225.1556446225719
 10
192.81603206413394
 20
224.9859719438866
 10
192.63504787353696
 20
224.47695390781817
 10
192.4088176352762
 20
223.9679358717372
 10
192.0694722778851
 20
223.45891783566879
 10
191.89979959918946
 20
223.2892451569835
 10
191.56045424179837
 20
222.94989979960036
 10
191.39078156312223
 20
222.69539078156615
 10
191.2635270541005
 20
222.44088176353193
 10
190.88176352705494
 20
222.22273117664187
 10
190.3727454909877
 20
222.44088176353193
 10
189.86372745490092
 20
222.69539078156615
 10
189.3547094188337
 20
222.65903235040946
 10
188.8456913827664
 20
222.86506346025143
 10
188.67601870407088
 20
222.94989979960036
 10
188.33667334669917
 20
223.11957247828568
 10
187.929458917822
 20
223.45891783566879
 10
187.82765531061244
 20
223.9679358717372
 10
187.9549098196341
 20
224.47695390781817
 10
188.33667334669917
 20
224.9859719438866
 10
188.8456913827664
 20
225.49498997995502
 10
189.3547094188337
 20
225.74949899800177
 10
189.52438209752927
 20
226.00400801603598
 10
189.86372745490092
 20
226.41122244489574
 10
189.96553106211053
 20
226.5130260521044
 10
190.245490981966
 20
227.02204408817283
 10
190.3727454909877
 20
227.27655310620707
 10
190.5424181696833
 20
227.5310621242538
 10
190.88176352705494
 20
227.7346693386837
 10
191.05143620575052
 20
228.04008016032222
 10
191.13627254509834
 20
228.54909819639067
 10
191.20568409545785
 20
229.0581162324591
 10
191.26352705412
 20
229.56713426854003
 10
191.18717434870308
 20
230.07615230460848
 10
190.9544803893503
 20
230.5851703406769
 10
190.93832108662014
 20
231.09418837675784
 10
190.88176352705494
 20
231.34869739479208
 10
190.7799599198259
 20
231.6032064128263
 10
190.5424181696833
 20
232.11222444889472
 10
190.88176352705494
 20
232.62124248497565
 10
191.17263097623623
 20
233.1302605210441
 10
191.39078156312223
 20
233.43567134268264
 10
191.89979959918946
 20
233.63927855711253
 10
192.4088176352762
 20
233.63927855711253
 10
192.91783567134348
 20
234.02104208416384
 10
193.42685370741077
 20
234.14829659318096
 10
193.935871743478
 20
234.65731462926192
 10
193.935871743478
 20
235.16633266533034
 10
193.42685370741077
 20
235.67535070139877
 10
192.91783567134348
 20
236.0571142284626
 10
192.84511880904813
 20
236.18436873747973
 10
192.7905811623218
 20
236.69338677354816
 10
192.4088176352762
 20
236.99879759518672
 10
192.0694722778851
 20
237.20240480961658
 10
191.89979959918946
 20
237.30420841683778
 10
191.39078156312223
 20
237.58416833668042
 10
191.26352705412
 20
237.71142284569754
 10
190.88176352705494
 20
238.09318637274885
 10
190.80904666474015
 20
238.22044088176597
 10
190.67815631263585
 20
238.7294589178344
 10
190.7799599198259
 20
239.23847695390282
 10
190.88176352705494
 20
239.74749498998378
 10
191.22110888442666
 20
240.2565130260522
 10
191.39078156312223
 20
240.36962814517574
 10
191.89979959918946
 20
240.42618570473752
 10
192.4088176352762
 20
240.51102204408642
 10
192.91783567134348
 20
240.68069472277173
 10
193.42685370741077
 20
240.70190380760582
 10
193.935871743478
 20
240.6928141998198
 10
194.06312625249973
 20
240.76553106212063
 10
194.44488977956473
 20
240.95641282565256
 10
194.95390781563202
 20
241.12184368737604
 10
195.4629258516993
 20
241.07094188377172
 10
195.97194388776654
 20
241.2745490982016
 10
196.48096192385327
 20
241.47815631263148
 10
196.98997995992056
 20
241.63813340968082
 10
197.4989979959878
 20
241.63813340968082
 10
198.00801603205508
 20
241.65631262525292
 10
198.5170340681418
 20
241.71085027196918
 10
198.61883767535136
 20
241.78356713427002
 10
199.02605210420904
 20
242.12291249165315
 10
199.36539746158076
 20
242.29258517033844
 10
199.53507014027633
 20
242.37742150968737
 10
199.89865445175298
 20
242.8016032064069
 10
200.04408817634356
 20
243.00521042083676
 10
200.26223876322956
 20
243.31062124248783
 10
200.55310621243035
 20
243.60148869166622
 10
200.93486973947591
 20
243.81963927855628
 10
201.06212424849758
 20
243.94689378757337
 10
201.36753507014572
 20
244.3286573146247
 10
201.57114228456487
 20
244.83767535070564
 10
201.71657600915552
 20
245.3466933867741
 10
201.97835671342256
 20
245.85571142284252
 10
202.0801603206321
 20
246.36472945892345
 10
201.57114228456487
 20
246.7040748163066
 10
201.06212424849758
 20
246.7283137704027
 10
200.55310621243035
 20
246.56833667335334
 10
200.38343353373477
 20
246.36472945892345
 10
200.4076724878397
 20
245.85571142284252
 10
200.29859719438696
 20
245.3466933867741
 10
200.18952190093427
 20
244.83767535070564
 10
200.04408817634356
 20
244.58316633265892
 10
199.53507014027633
 20
244.4304609218459
 10
199.02605210420904
 20
244.4559118236418
 10
198.64428857716348
 20
244.83767535070564
 10
198.5170340681418
 20
245.00734802939095
 10
198.00801603205508
 20
245.09218436873988
 10
197.4989979959878
 20
245.09218436873988
 10
197.24448897794446
 20
244.83767535070564
 10
196.98997995990106
 20
244.66800267200782
 10
196.48096192385327
 20
244.66800267200782
 10
195.97194388776654
 20
244.83767535070564
 10
195.4629258516993
 20
245.09218436873988
 10
194.95390781563202
 20
245.1430861723442
 10
194.44488977956473
 20
245.3466933867741
 10
194.1903807615214
 20
245.85571142284252
 10
193.935871743478
 20
246.16112224449358
 10
193.59652638610635
 20
246.36472945892345
 10
193.42685370741077
 20
246.44956579827237
 10
192.91783567134348
 20
246.8737474949919
 10
192.87156130443714
 20
247.38276553106033
 10
192.87156130443714
 20
247.89178356711622
 10
192.91783567134348
 20
248.14629258516297
 10
193.17234468936738
 20
248.40080160320971
 10
193.42685370741077
 20
248.65531062124393
 10
193.935871743478
 20
248.90981963927814
 10
193.42685370741077
 20
249.07949231796343
 10
192.91783567134348
 20
249.07949231796343
 10
192.6633266533196
 20
249.41883767534657
 10
192.91783567134348
 20
249.7581830327297
 10
193.04509018036515
 20
249.92785571142753
 10
193.42685370741077
 20
250.2332665330661
 10
193.6813627254541
 20
250.43687374749595
 10
193.80861723447578
 20
250.94589178356438
 10
193.935871743478
 20
251.2004008015986
 10
194.10554442217358
 20
251.45490981964534
 10
194.27521710086916
 20
251.96392785571376
 10
193.935871743478
 20
252.4729458917822
 10
193.42685370741077
 20
252.21843687374798
 10
192.91783567134348
 20
251.96392785571376
 10
192.53607214429792
 20
251.45490981964534
 10
192.4088176352762
 20
251.32765531062822
 10
191.89979959918946
 20
250.94589178356438
 10
191.39078156312223
 20
250.43687374749595
 10
191.17263097623623
 20
249.92785571142753
 10
190.9544803893308
 20
249.4188376753591
 10
190.88176352705494
 20
248.90981963927814
 10
190.6272545090116
 20
248.40080160320971
 10
190.3727454909877
 20
247.89178356712875
 10
190.3727454909877
 20
247.38276553106033
 10
189.86372745490092
 20
246.8737474949919
 10
189.75061233577054
 20
246.36472945892345
 10
189.41833667334453
 20
245.85571142284252
 10
189.3547094188142
 20
245.7829945605542
 10
188.8456913827664
 20
245.85571142284252
 10
188.33667334669917
 20
246.02538410154034
 10
187.99732798930802
 20
246.36472945892345
 10
187.82765531061244
 20
246.51016318351265
 10
187.31863727454515
 20
246.59095969718305
 10
186.80961923847792
 20
246.59610129350116
 10
186.30060120241063
 20
246.517434869749
 10
185.7915831663239
 20
246.51016318351265
 10
185.28256513025667
 20
246.46653306613214
 10
185.19772879090885
 20
246.36472945892345
 10
185.28256513025667
 20
246.19505678022563
 10
185.48617234467577
 20
245.85571142284252
 10
185.5879759519048
 20
245.3466933867741
 10
185.28256513025667
 20
244.96492985972276
 10
185.21893787574584
 20
244.83767535070564
 10
185.12985971944232
 20
244.3286573146247
 10
185.12985971944232
 20
243.81963927855628
 10
184.9997773324307
 20
243.31062124248783
 10
184.77354709418938
 20
243.01975379329693
 10
184.2645290581221
 20
242.8016032064069
 10
183.75551102203536
 20
242.41983967935556
 10
183.50100200399203
 20
242.29258517033844
 10
183.24649298596813
 20
242.19078156312978
 10
182.73747494990084
 20
242.29258517033844
 10
182.22845691383355
 20
242.67434869738977
 10
182.1436205744858
 20
242.8016032064069
 10
181.71943887774682
 20
243.22578490315144
 10
181.2104208416796
 20
243.14094856380254
 10
180.7014028056123
 20
242.97127588510472
 10
180.4468937875884
 20
242.8016032064069
 10
180.19238476954507
 20
242.29258517033844
 10
180.33781849413572
 20
241.78356713427002
 10
180.61656646626454
 20
241.2745490982016
 10
180.65050100200756
 20
240.76553106212063
 10
180.7014028056123
 20
240.2565130260522
 10
180.63777555110147
 20
239.74749498998378
 10
180.63777555110147
 20
239.23847695390282
 10
180.7014028056123
 20
238.9839679358686
 10
180.9559118236362
 20
238.7294589178344
 10
181.2104208416796
 20
238.62765531062573
 10
181.71943887774682
 20
238.42404809619583
 10
181.8325539968772
 20
238.22044088176597
 10
182.01636606546413
 20
237.71142284569754
 10
182.07183597965155
 20
237.20240480961658
 10
182.1012024048119
 20
236.69338677354816
 10
182.1012024048119
 20
236.18436873747973
 10
181.71943887774682
 20
235.74806756369964
 10
181.46492985972293
 20
235.67535070139877
 10
181.2104208416796
 20
235.60263383911044
 10
180.9559118236362
 20
235.67535070139877
 10
180.7014028056123
 20
235.74806756369964
 10
180.19238476954507
 20
235.8450233800966
 10
179.68336673345829
 20
235.67535070139877
 10
179.17434869739105
 20
235.33600534401563
 10
178.66533066132376
 20
235.31176638991954
 10
178.15631262525653
 20
235.4717434869689
 10
177.6472945891698
 20
235.16633266533034
 10
177.562458249822
 20
234.65731462926192
 10
177.3927855711459
 20
234.14829659318096
 10
177.13827655310251
 20
233.89378757514675
 10
176.75651302603745
 20
233.63927855711253
 10
176.62925851703528
 20
233.5120240480954
 10
176.3747494990114
 20
233.1302605210441
 10
176.26567420555864
 20
232.62124248497565
 10
176.120240480968
 20
232.11222444889472
 10
175.86573146292466
 20
231.6032064128263
 10
175.61122244488126
 20
231.34869739479208
 10
175.10220440881403
 20
231.22144288577496
 10
174.59318637274674
 20
231.09418837675784
 10
174.0841683366795
 20
231.09418837675784
 10
173.57515030059278
 20
231.6032064128263
 10
173.26973947896408
 20
232.11222444889472
 10
173.26973947896408
 20
232.62124248497565
  0
LWPOLYLINE
  5
33
330
17
100
AcDbEntity
  8
relief
100
AcDbPolyline
 90
9
 70
1
 10
204.62525050100737
 20
236.43887775551394
 10
204.11623246492064
 20
236.18436873747973
 10
204.11623246492064
 20
235.67535070139877
 10
203.94655978622507
 20
235.16633266533034
 10
204.11623246492064
 20
234.65731462926192
 10
204.62525050100737
 20
235.16633266533034
 10
204.75250501002904
 20
235.67535070139877
 10
204.87975951905076
 20
236.18436873747973
 10
204.62525050100737
 20
236.43887775551394
  0
LWPOLYLINE
  5
34
330
17
100
AcDbEntity
  8
relief
100
AcDbPolyline
 90
5
 70
1
 10
199.53507014027633
 20
236.94789579158237
 10
200.04408817634356
 20
237.20240480961658
 10
199.53507014027633
 20
237.3296593186337
 10
199.28056112225244
 20
237.20240480961658
 10
199.53507014027633
 20
236.94789579158237
  0
LWPOLYLINE
  5
35
330
17
100
AcDbEntity
  8
relief
100
AcDbPolyline
 90
10
 70
1
 10
195.4629258516993
 20
251.96392785571376
 10
194.95390781563202
 20
251.96392785571376
 10
194.95390781563202
 20
251.45490981964534
 10
195.4629258516993
 20
251.2004008015986
 10
195.7174348697232
 20
250.94589178356438
 10
195.97194388776654
 20
250.69138276553016
 10
196.48096192385327
 20
250.94589178356438
 10
196.48096192385327
 20
251.45490981964534
 10
195.97194388776654
 20
251.45490981964534
 10
195.4629258516993
 20
251.96392785571376
  0
LWPOLYLINE
  5
36
330
17
100
AcDbEntity
  8
relief
100
AcDbPolyline
 90
59
 70
1
 10
173.23580494322107
 20
251.96392785571376
 10
173.0661322645255
 20
252.09118236473088
 10
172.8116232464821
 20
251.96392785571376
 10
172.55711422843876
 20
251.8912109934129
 10
172.04809619239097
 20
251.45490981964534
 10
171.53907815630424
 20
251.14949899799427
 10
171.03006012023695
 20
251.1155644622622
 10
170.52104208416966
 20
251.1155644622622
 10
170.393787575148
 20
251.45490981964534
 10
170.37560835957908
 20
251.96392785571376
 10
170.01202404810243
 20
252.3881095524458
 10
169.5030060120157
 20
252.4729458917822
 10
168.99398797594841
 20
252.5577822311311
 10
168.63040366447183
 20
252.98196392785061
 10
168.48496993988113
 20
253.1855711422805
 10
167.9759519037944
 20
253.40614562458268
 10
167.80627922511832
 20
253.49098196393157
 10
167.46693386772716
 20
253.7454909819658
 10
167.3396793587055
 20
254.0
 10
167.46693386772716
 20
254.0
 10
167.9759519038139
 20
254.0
 10
168.48496993988113
 20
254.0
 10
168.99398797594841
 20
254.0
 10
169.5030060120157
 20
254.0
 10
170.01202404810243
 20
254.0
 10
170.52104208416966
 20
254.0
 10
171.03006012023695
 20
254.0
 10
171.53907815630424
 20
254.0
 10
172.04809619239097
 20
254.0
 10
172.5571142284582
 20
254.0
 10
173.0661322645255
 20
254.0
 10
173.57515030059278
 20
254.0
 10
174.0841683366795
 20
254.0
 10
174.59318637274674
 20
254.0
 10
175.10220440881403
 20
254.0
 10
175.61122244488126
 20
254.0
 10
176.120240480968
 20
254.0
 10
176.62925851703528
 20
254.0
 10
177.13827655310251
 20
254.0
 10
177.6472945891698
 20
254.0
 10
177.8509018036084
 20
254.0
 10
177.81696726786538
 20
253.49098196393157
 10
177.6472945891698
 20
253.15163660654844
 10
177.54549098196026
 20
252.98196392785061
 10
177.26553106210474
 20
252.4729458917822
 10
177.22311289245033
 20
251.96392785571376
 10
177.13827655310251
 20
251.62458249833062
 10
177.01102204408085
 20
251.45490981964534
 10
176.62925851703528
 20
251.0731462925815
 10
176.5020040080136
 20
250.94589178356438
 10
176.120240480968
 20
250.43687374749595
 10
175.61122244488126
 20
250.30961923847883
 10
175.10220440881403
 20
250.18236472946174
 10
174.59318637274674
 20
250.1314629258574
 10
174.0841683366795
 20
250.30961923847883
 10
173.91449565798388
 20
250.43687374749595
 10
173.77875751503132
 20
250.94589178356438
 10
173.57515030059278
 20
251.45490981964534
 10
173.23580494322107
 20
251.96392785571376
  0
LWPOLYLINE
  5
37
330
17
100
AcDbEntity
  8
relief
100
AcDbPolyline
 90
42
 70
1
 10
153.34168336672917
 20
252.98196392785061
 10
153.31623246491705
 20
253.49098196393157
 10
153.2144288577075
 20
253.6182364729487
 10
152.9599198396836
 20
253.49098196393157
 10
152.9599198396836
 20
252.98196392785061
 10
152.7054108216402
 20
252.81229124916533
 10
152.19639278557298
 20
252.4729458917822
 10
151.6873747495057
 20
252.98196392785061
 10
151.17835671341896
 20
253.2873747495017
 10
150.66933867735167
 20
253.49098196393157
 10
150.60571142284084
 20
254.0
 10
150.66933867735167
 20
254.0
 10
151.17835671341896
 20
254.0
 10
151.6873747495057
 20
254.0
 10
152.19639278557298
 20
254.0
 10
152.7054108216402
 20
254.0
 10
153.2144288577075
 20
254.0
 10
153.72344689379423
 20
254.0
 10
154.23246492986146
 20
254.0
 10
154.74148296592875
 20
254.0
 10
155.25050100199599
 20
254.0
 10
155.75951903808271
 20
254.0
 10
156.26853707415
 20
254.0
 10
156.77755511021724
 20
254.0
 10
157.03206412826063
 20
254.0
 10
156.77755511021724
 20
253.7454909819658
 10
156.65030060119557
 20
253.49098196393157
 10
156.37034068135955
 20
252.98196392785061
 10
156.3250946337152
 20
252.4729458917822
 10
156.26853707415
 20
252.21843687374798
 10
156.0140280561261
 20
251.96392785571376
 10
155.75951903806327
 20
251.87909151636484
 10
155.25050100199599
 20
251.8621242485051
 10
154.74148296592875
 20
251.83667334669664
 10
154.23246492986146
 20
251.45490981964534
 10
153.97795591181813
 20
250.94589178356438
 10
153.72344689379423
 20
250.81863727454729
 10
153.6598196392834
 20
250.94589178356438
 10
153.57801316920353
 20
251.45490981964534
 10
153.38410153640302
 20
251.96392785571376
 10
153.38410153640302
 20
252.4729458917822
 10
153.34168336672917
 20
252.98196392785061
  0
ENDSEC
  0
SECTION
  2
OBJECTS
  0
DICTIONARY
  5
A
330
0
100
AcDbDictionary
281
1
  3
ACAD_COLOR
350
B
  3
ACAD_GROUP
350
C
  3
ACAD_LAYOUT
350
D
  3
ACAD_MATERIAL
350
E
  3
ACAD_MLEADERSTYLE
350
F
  3
ACAD_MLINESTYLE
350
10
  3
ACAD_PLOTSETTINGS
350
11
  3
ACAD_PLOTSTYLENAME
350
12
  3
ACAD_SCALELIST
350
14
  3
ACAD_TABLESTYLE
350
15
  3
ACAD_VISUALSTYLE
350
16
  3
EZDXF_META
350
2D
  0
DICTIONARY
  5
B
330
A
100
AcDbDictionary
281
1
  0
DICTIONARY
  5
C
330
A
100
AcDbDictionary
281
1
  0
DICTIONARY
  5
D
330
A
100
AcDbDictionary
281
1
  3
Model
350
1A
  3
Layout1
350
1E
  0
DICTIONARY
  5
E
330
A
100
AcDbDictionary
281
1
  3
ByBlock
350
1F
  3
ByLayer
350
20
  3
Global
350
21
  0
DICTIONARY
  5
F
330
A
100
AcDbDictionary
281
1
  3
Standard
350
2C
  0
DICTIONARY
  5
10
330
A
100
AcDbDictionary
281
1
  3
Standard
350
22
  0
DICTIONARY
  5
11
330
A
100
AcDbDictionary
281
1
  0
ACDBDICTIONARYWDFLT
  5
12
330
A
100
AcDbDictionary
281
1
  3
Normal
350
13
100
AcDbDictionaryWithDefault
340
13
  0
ACDBPLACEHOLDER
  5
13
330
12
  0
DICTIONARY
  5
14
330
A
100
AcDbDictionary
281
1
  0
DICTIONARY
  5
15
330
A
100
AcDbDictionary
281
1
  0
DICTIONARY
  5
16
330
A
100
AcDbDictionary
281
1
  0
LAYOUT
  5
1A
330
D
100
AcDbPlotSettings
  1

  4
A3
  6

 40
7.5
 41
20.0
 42
7.5
 43
20.0
 44
420.0
 45
297.0
 46
0.0
 47
0.0
 48
0.0
 49
0.0
140
0.0
141
0.0
142
1.0
143
1.0
 70
1024
 72
1
 73
0
 74
5
  7

 75
16
 76
0
 77
2
 78
300
147
1.0
148
0.0
149
0.0
100
AcDbLayout
  1
Model
 70
1
 71
0
 10
0.0
 20
0.0
 11
420.0
 21
297.0
 12
0.0
 22
0.0
 32
0.0
 14
1e+20
 24
1e+20
 34
1e+20
 15
-1e+20
 25
-1e+20
 35
-1e+20
146
0.0
 13
0.0
 23
0.0
 33
0.0
 16
1.0
 26
0.0
 36
0.0
 17
0.0
 27
1.0
 37
0.0
 76
1
330
17
  0
LAYOUT
  5
1E
330
D
100
AcDbPlotSettings
  1

  4
A3
  6

 40
7.5
 41
20.0
 42
7.5
 43
20.0
 44
420.0
 45
297.0
 46
0.0
 47
0.0
 48
0.0
 49
0.0
140
0.0
141
0.0
142
1.0
143
1.0
 70
0
 72
1
 73
0
 74
5
  7

 75
16
 76
0
 77
2
 78
300
147
1.0
148
0.0
149
0.0
100
AcDbLayout
  1
Layout1
 70
1
 71
1
 10
0.0
 20
0.0
 11
420.0
 21
297.0
 12
0.0
 22
0.0
 32
0.0
 14
1e+20
 24
1e+20
 34
1e+20
 15
-1e+20
 25
-1e+20
 35
-1e+20
146
0.0
 13
0.0
 23
0.0
 33
0.0
 16
1.0
 26
0.0
 36
0.0
 17
0.0
 27
1.0
 37
0.0
 76
1
330
1B
  0
MATERIAL
  5
1F
102
{ACAD_REACTORS
330
E
102
}
330
E
100
AcDbMaterial
  1
ByBlock
  2

 70
0
 40
1.0
 71
1
 41
1.0
 91
-1023410177
 42
1.0
 72
1
  3

 73
1
 74
1
 75
1
 44
0.5
 73
0
 45
1.0
 46
1.0
 77
1
  4

 78
1
 79
1
170
1
 48
1.0
171
1
  6

172
1
173
1
174
1
140
1.0
141
1.0
175
1
  7

176
1
177
1
178
1
143
1.0
179
1
  8

270
1
271
1
272
1
145
1.0
146
1.0
273
1
  9

274
1
275
1
276
1
 42
1.0
 72
1
  3

 73
1
 74
1
 75
1
 94
63
  0
MATERIAL
  5
20
102
{ACAD_REACTORS
330
E
102
}
330
E
100
AcDbMaterial
  1
ByLayer
  2

 70
0
 40
1.0
 71
1
 41
1.0
 91
-1023410177
 42
1.0
 72
1
  3

 73
1
 74
1
 75
1
 44
0.5
 73
0
 45
1.0
 46
1.0
 77
1
  4

 78
1
 79
1
170
1
 48
1.0
171
1
  6

172
1
173
1
174
1
140
1.0
141
1.0
175
1
  7

176
1
177
1
178
1
143
1.0
179
1
  8

270
1
271
1
272
1
145
1.0
146
1.0
273
1
  9

274
1
275
1
276
1
 42
1.0
 72
1
  3

 73
1
 74
1
 75
1
 94
63
  0
MATERIAL
  5
21
102
{ACAD_REACTORS
330
E
102
}
330
E
100
AcDbMaterial
  1
Global
  2

 70
0
 40
1.0
 71
1
 41
1.0
 91
-1023410177
 42
1.0
 72
1
  3

 73
1
 74
1
 75
1
 44
0.5
 73
0
 45
1.0
 46
1.0
 77
1
  4

 78
1
 79
1
170
1
 48
1.0
171
1
  6

172
1
173
1
174
1
140
1.0
141
1.0
175
1
  7

176
1
177
1
178
1
143
1.0
179
1
  8

270
1
271
1
272
1
145
1.0
146
1.0
273
1
  9

274
1
275
1
276
1
 42
1.0
 72
1
  3

 73
1
 74
1
 75
1
 94
63
  0
MLINESTYLE
  5
22
102
{ACAD_REACTORS
330
10
102
}
330
10
100
AcDbMlineStyle
  2
Standard
 70
0
  3

 62
256
 51
90.0
 52
90.0
 71
2
 49
0.5
 62
256
  6
BYLAYER
 49
-0.5
 62
256
  6
BYLAYER
  0
MLEADERSTYLE
  5
2C
102
{ACAD_REACTORS
330
F
102
}
330
F
100
AcDbMLeaderStyle
179
2
170
2
171
1
172
0
 90
2
 40
0.0
 41
0.0
173
1
 91
-1056964608
 92
-2
290
1
 42
2.0
291
1
 43
8.0
  3
Standard
 44
4.0
300

342
29
174
1
175
1
176
0
178
1
 93
-1056964608
 45
4.0
292
0
297
0
 46
4.0
 94
-1056964608
 47
1.0
 49
1.0
140
1.0
294
1
141
0.0
177
0
142
1.0
295
0
296
0
143
3.75
271
0
272
9
273
9
  0
DICTIONARY
  5
2D
330
A
100
AcDbDictionary
280
1
281
1
  3
CREATED_BY_EZDXF
350
2E
  3
WRITTEN_BY_EZDXF
350
3A
  0
DICTIONARYVAR
  5
2E
330
2D
100
DictionaryVariables
280
0
  1
1.4.3 @ 2026-04-02T16:42:43.523139+00:00
  0
DICTIONARYVAR
  5
3A
330
2D
100
DictionaryVariables
280
0
  1
1.4.3 @ 2026-04-02T16:42:43.525966+00:00
  0
ENDSEC
  0
EOF
