  0
SECTION
  2
HEADER
  9
$ACADVER
  1
AC1024
  9
$ACADMAINTVER
 70
6
  9
$DWGCODEPAGE
  3
ANSI_1252
  9
$LASTSAVEDBY
  1
ezdxf
  9
$INSBASE
 10
0.0
 20
0.0
 30
0.0
  9
$EXTMIN
 10
1e+20
 20
1e+20
 30
1e+20
  9
$EXTMAX
 10
-1e+20
 20
-1e+20
 30
-1e+20
  9
$LIMMIN
 10
0.0
 20
0.0
  9
$LIMMAX
 10
420.0
 20
297.0
  9
$ORTHOMODE
 70
0
  9
$REGENMODE
 70
1
  9
$FILLMODE
 70
1
  9
$QTEXTMODE
 70
0
  9
$MIRRTEXT
 70
1
  9
$LTSCALE
 40
1.0
  9
$ATTMODE
 70
1
  9
$TEXTSIZE
 40
2.5
  9
$TRACEWID
 40
1.0
  9
$TEXTSTYLE
  7
Standard
  9
$CLAYER
  8
0
  9
$CELTYPE
  6
ByLayer
  9
$CECOLOR
 62
256
  9
$CELTSCALE
 40
1.0
  9
$DISPSILH
 70
0
  9
$DIMSCALE
 40
1.0
  9
$DIMASZ
 40
2.5
  9
$DIMEXO
 40
0.625
  9
$DIMDLI
 40
3.75
  9
$DIMRND
 40
0.0
  9
$DIMDLE
 40
0.0
  9
$DIMEXE
 40
1.25
  9
$DIMTP
 40
0.0
  9
$DIMTM
 40
0.0
  9
$DIMTXT
 40
2.5
  9
$DIMCEN
 40
2.5
  9
$DIMTSZ
 40
0.0
  9
$DIMTOL
 70
0
  9
$DIMLIM
 70
0
  9
$DIMTIH
 70
0
  9
$DIMTOH
 70
0
  9
$DIMSE1
 70
0
  9
$DIMSE2
 70
0
  9
$DIMTAD
 70
1
  9
$DIMZIN
 70
8
  9
$DIMBLK
  1

  9
$DIMASO
 70
1
  9
$DIMSHO
 70
1
  9
$DIMPOST
  1

  9
$DIMAPOST
  1

  9
$DIMALT
 70
0
  9
$DIMALTD
 70
3
  9
$DIMALTF
 40
0.03937007874
  9
$DIMLFAC
 40
1.0
  9
$DIMTOFL
 70
1
  9
$DIMTVP
 40
0.0
  9
$DIMTIX
 70
0
  9
$DIMSOXD
 70
0
  9
$DIMSAH
 70
0
  9
$DIMBLK1
  1

  9
$DIMBLK2
  1

  9
$DIMSTYLE
  2
ISO-25
  9
$DIMCLRD
 70
0
  9
$DIMCLRE
 70
0
  9
$DIMCLRT
 70
0
  9
$DIMTFAC
 40
1.0
  9
$DIMGAP
 40
0.625
  9
$DIMJUST
 70
0
  9
$DIMSD1
 70
0
  9
$DIMSD2
 70
0
  9
$DIMTOLJ
 70
0
  9
$DIMTZIN
 70
8
  9
$DIMALTZ
 70
0
  9
$DIMALTTZ
 70
0
  9
$DIMUPT
 70
0
  9
$DIMDEC
 70
2
  9
$DIMTDEC
 70
2
  9
$DIMALTU
 70
2
  9
$DIMALTTD
 70
3
  9
$DIMTXSTY
  7
Standard
  9
$DIMAUNIT
 70
0
  9
$DIMADEC
 70
0
  9
$DIMALTRND
 40
0.0
  9
$DIMAZIN
 70
0
  9
$DIMDSEP
 70
44
  9
$DIMATFIT
 70
3
  9
$DIMFRAC
 70
0
  9
$DIMLDRBLK
  1

  9
$DIMLUNIT
 70
2
  9
$DIMLWD
 70
-2
  9
$DIMLWE
 70
-2
  9
$DIMTMOVE
 70
0
  9
$DIMFXL
 40
1.0
  9
$DIMFXLON
 70
0
  9
$DIMJOGANG
 40
0.785398163397
  9
$DIMTFILL
 70
0
  9
$DIMTFILLCLR
 70
0
  9
$DIMARCSYM
 70
0
  9
$DIMLTYPE
  6

  9
$DIMLTEX1
  6

  9
$DIMLTEX2
  6

  9
$DIMTXTDIRECTION
 70
0
  9
$LUNITS
 70
2
  9
$LUPREC
 70
4
  9
$SKETCHINC
 40
1.0
  9
$FILLETRAD
 40
10.0
  9
$AUNITS
 70
0
  9
$AUPREC
 70
2
  9
$MENU
  1
.
  9
$ELEVATION
 40
0.0
  9
$PELEVATION
 40
0.0
  9
$THICKNESS
 40
0.0
  9
$LIMCHECK
 70
0
  9
$CHAMFERA
 40
0.0
  9
$CHAMFERB
 40
0.0
  9
$CHAMFERC
 40
0.0
  9
$CHAMFERD
 40
0.0
  9
$SKPOLY
 70
0
  9
$TDCREATE
 40
2461133.487997685
  9
$TDUCREATE
 40
2458532.153996898
  9
$TDUPDATE
 40
2461133.487997685
  9
$TDUUPDATE
 40
2458532.1544311
  9
$TDINDWG
 40
0.0
  9
$TDUSRTIMER
 40
0.0
  9
$USRTIMER
 70
1
  9
$ANGBASE
 50
0.0
  9
$ANGDIR
 70
0
  9
$PDMODE
 70
0
  9
$PDSIZE
 40
0.0
  9
$PLINEWID
 40
0.0
  9
$SPLFRAME
 70
0
  9
$SPLINETYPE
 70
6
  9
$SPLINESEGS
 70
8
  9
$HANDSEED
  5
4D
  9
$SURFTAB1
 70
6
  9
$SURFTAB2
 70
6
  9
$SURFTYPE
 70
6
  9
$SURFU
 70
6
  9
$SURFV
 70
6
  9
$UCSBASE
  2

  9
$UCSNAME
  2

  9
$UCSORG
 10
0.0
 20
0.0
 30
0.0
  9
$UCSXDIR
 10
1.0
 20
0.0
 30
0.0
  9
$UCSYDIR
 10
0.0
 20
1.0
 30
0.0
  9
$UCSORTHOREF
  2

  9
$UCSORTHOVIEW
 70
0
  9
$UCSORGTOP
 10
0.0
 20
0.0
 30
0.0
  9
$UCSORGBOTTOM
 10
0.0
 20
0.0
 30
0.0
  9
$UCSORGLEFT
 10
0.0
 20
0.0
 30
0.0
  9
$UCSORGRIGHT
 10
0.0
 20
0.0
 30
0.0
  9
$UCSORGFRONT
 10
0.0
 20
0.0
 30
0.0
  9
$UCSORGBACK
 10
0.0
 20
0.0
 30
0.0
  9
$PUCSBASE
  2

  9
$PUCSNAME
  2

  9
$PUCSORG
 10
0.0
 20
0.0
 30
0.0
  9
$PUCSXDIR
 10
1.0
 20
0.0
 30
0.0
  9
$PUCSYDIR
 10
0.0
 20
1.0
 30
0.0
  9
$PUCSORTHOREF
  2

  9
$PUCSORTHOVIEW
 70
0
  9
$PUCSORGTOP
 10
0.0
 20
0.0
 30
0.0
  9
$PUCSORGBOTTOM
 10
0.0
 20
0.0
 30
0.0
  9
$PUCSORGLEFT
 10
0.0
 20
0.0
 30
0.0
  9
$PUCSORGRIGHT
 10
0.0
 20
0.0
 30
0.0
  9
$PUCSORGFRONT
 10
0.0
 20
0.0
 30
0.0
  9
$PUCSORGBACK
 10
0.0
 20
0.0
 30
0.0
  9
$USERI1
 70
0
  9
$USERI2
 70
0
  9
$USERI3
 70
0
  9
$USERI4
 70
0
  9
$USERI5
 70
0
  9
$USERR1
 40
0.0
  9
$USERR2
 40
0.0
  9
$USERR3
 40
0.0
  9
$USERR4
 40
0.0
  9
$USERR5
 40
0.0
  9
$WORLDVIEW
 70
1
  9
$SHADEDGE
 70
3
  9
$SHADEDIF
 70
70
  9
$TILEMODE
 70
1
  9
$MAXACTVP
 70
64
  9
$PINSBASE
 10
0.0
 20
0.0
 30
0.0
  9
$PLIMCHECK
 70
0
  9
$PEXTMIN
 10
1e+20
 20
1e+20
 30
1e+20
  9
$PEXTMAX
 10
-1e+20
 20
-1e+20
 30
-1e+20
  9
$PLIMMIN
 10
0.0
 20
0.0
  9
$PLIMMAX
 10
420.0
 20
297.0
  9
$UNITMODE
 70
0
  9
$VISRETAIN
 70
1
  9
$PLINEGEN
 70
0
  9
$PSLTSCALE
 70
1
  9
$TREEDEPTH
 70
3020
  9
$CMLSTYLE
  2
Standard
  9
$CMLJUST
 70
0
  9
$CMLSCALE
 40
20.0
  9
$PROXYGRAPHICS
 70
1
  9
$MEASUREMENT
 70
1
  9
$CELWEIGHT
370
-1
  9
$ENDCAPS
280
0
  9
$JOINSTYLE
280
0
  9
$LWDISPLAY
290
0
  9
$INSUNITS
 70
6
  9
$HYPERLINKBASE
  1

  9
$STYLESHEET
  1

  9
$XEDIT
290
1
  9
$CEPSNTYPE
380
0
  9
$PSTYLEMODE
290
1
  9
$FINGERPRINTGUID
  2
{B5CA50E3-0F86-42D4-8825-029E04CFBE3A}
  9
$VERSIONGUID
  2
{3951DA99-10D6-45E1-9991-C5F1251848C8}
  9
$EXTNAMES
290
1
  9
$PSVPSCALE
 40
0.0
  9
$OLESTARTUP
290
0
  9
$SORTENTS
280
127
  9
$INDEXCTL
280
0
  9
$HIDETEXT
280
1
  9
$XCLIPFRAME
280
1
  9
$HALOGAP
280
0
  9
$OBSCOLOR
 70
257
  9
$OBSLTYPE
280
0
  9
$INTERSECTIONDISPLAY
280
0
  9
$INTERSECTIONCOLOR
 70
257
  9
$DIMASSOC
280
2
  9
$PROJECTNAME
  1

  9
$CAMERADISPLAY
290
0
  9
$LENSLENGTH
 40
50.0
  9
$CAMERAHEIGHT
 40
0.0
  9
$STEPSPERSEC
 40
24.0
  9
$STEPSIZE
 40
100.0
  9
$3DDWFPREC
 40
2.0
  9
$PSOLWIDTH
 40
0.005
  9
$PSOLHEIGHT
 40
0.08
  9
$LOFTANG1
 40
1.570796326795
  9
$LOFTANG2
 40
1.570796326795
  9
$LOFTMAG1
 40
0.0
  9
$LOFTMAG2
 40
0.0
  9
$LOFTPARAM
 70
7
  9
$LOFTNORMALS
280
1
  9
$LATITUDE
 40
37.795
  9
$LONGITUDE
 40
-122.394
  9
$NORTHDIRECTION
 40
0.0
  9
$TIMEZONE
 70
-8000
  9
$LIGHTGLYPHDISPLAY
280
1
  9
$TILEMODELIGHTSYNCH
280
1
  9
$CMATERIAL
347
20
  9
$SOLIDHIST
280
0
  9
$SHOWHIST
280
1
  9
$DWFFRAME
280
2
  9
$DGNFRAME
280
2
  9
$REALWORLDSCALE
290
1
  9
$INTERFERECOLOR
 62
256
  9
$CSHADOW
280
0
  9
$SHADOWPLANELOCATION
 40
0.0
  0
ENDSEC
  0
SECTION
  2
CLASSES
  0
CLASS
  1
ACDBDICTIONARYWDFLT
  2
AcDbDictionaryWithDefault
  3
ObjectDBX Classes
 90
0
 91
0
280
0
281
0
  0
CLASS
  1
SUN
  2
AcDbSun
  3
SCENEOE
 90
1153
 91
0
280
0
281
0
  0
CLASS
  1
VISUALSTYLE
  2
AcDbVisualStyle
  3
ObjectDBX Classes
 90
4095
 91
0
280
0
281
0
  0
CLASS
  1
MATERIAL
  2
AcDbMaterial
  3
ObjectDBX Classes
 90
1153
 91
0
280
0
281
0
  0
CLASS
  1
SCALE
  2
AcDbScale
  3
ObjectDBX Classes
 90
1153
 91
0
280
0
281
0
  0
CLASS
  1
TABLESTYLE
  2
AcDbTableStyle
  3
ObjectDBX Classes
 90
4095
 91
0
280
0
281
0
  0
CLASS
  1
MLEADERSTYLE
  2
AcDbMLeaderStyle
  3
ACDB_MLEADERSTYLE_CLASS
 90
4095
 91
0
280
0
281
0
  0
CLASS
  1
DICTIONARYVAR
  2
AcDbDictionaryVar
  3
ObjectDBX Classes
 90
0
 91
0
280
0
281
0
  0
CLASS
  1
CELLSTYLEMAP
  2
AcDbCellStyleMap
  3
ObjectDBX Classes
 90
1152
 91
0
280
0
281
0
  0
CLASS
  1
MENTALRAYRENDERSETTINGS
  2
AcDbMentalRayRenderSettings
  3
SCENEOE
 90
1024
 91
0
280
0
281
0
  0
CLASS
  1
ACDBDETAILVIEWSTYLE
  2
AcDbDetailViewStyle
  3
ObjectDBX Classes
 90
1025
 91
0
280
0
281
0
  0
CLASS
  1
ACDBSECTIONVIEWSTYLE
  2
AcDbSectionViewStyle
  3
ObjectDBX Classes
 90
1025
 91
0
280
0
281
0
  0
CLASS
  1
RASTERVARIABLES
  2
AcDbRasterVariables
  3
ISM
 90
0
 91
0
280
0
281
0
  0
CLASS
  1
ACDBPLACEHOLDER
  2
AcDbPlaceHolder
  3
ObjectDBX Classes
 90
0
 91
0
280
0
281
0
  0
CLASS
  1
LAYOUT
  2
AcDbLayout
  3
ObjectDBX Classes
 90
0
 91
0
280
0
281
0
  0
ENDSEC
  0
SECTION
  2
TABLES
  0
TABLE
  2
VPORT
  5
8
330
0
100
AcDbSymbolTable
 70
1
  0
VPORT
  5
23
330
8
100
AcDbSymbolTableRecord
100
AcDbViewportTableRecord
  2
*Active
 70
0
 10
0.0
 20
0.0
 11
1.0
 21
1.0
 12
0.0
 22
0.0
 13
0.0
 23
0.0
 14
0.5
 24
0.5
 15
0.5
 25
0.5
 16
0.0
 26
0.0
 36
1.0
 17
0.0
 27
0.0
 37
0.0
 40
1000.0
 41
1.34
 42
50.0
 43
0.0
 44
0.0
 50
0.0
 51
0.0
 71
0
 72
1000
 73
1
 74
3
 75
0
 76
0
 77
0
 78
0
281
0
 65
0
146
0.0
  0
ENDTAB
  0
TABLE
  2
LTYPE
  5
2
330
0
100
AcDbSymbolTable
 70
3
  0
LTYPE
  5
24
330
2
100
AcDbSymbolTableRecord
100
AcDbLinetypeTableRecord
  2
ByBlock
 70
0
  3

 72
65
 73
0
 40
0.0
  0
LTYPE
  5
25
330
2
100
AcDbSymbolTableRecord
100
AcDbLinetypeTableRecord
  2
ByLayer
 70
0
  3

 72
65
 73
0
 40
0.0
  0
LTYPE
  5
26
330
2
100
AcDbSymbolTableRecord
100
AcDbLinetypeTableRecord
  2
Continuous
 70
0
  3

 72
65
 73
0
 40
0.0
  0
ENDTAB
  0
TABLE
  2
LAYER
  5
1
330
0
100
AcDbSymbolTable
 70
3
  0
LAYER
  5
27
330
1
100
AcDbSymbolTableRecord
100
AcDbLayerTableRecord
  2
0
 70
0
 62
7
  6
Continuous
370
-3
390
13
347
21
  0
LAYER
  5
28
330
1
100
AcDbSymbolTableRecord
100
AcDbLayerTableRecord
  2
Defpoints
 70
0
 62
7
  6
Continuous
290
0
370
-3
390
13
347
21
  0
LAYER
  5
2F
330
1
100
AcDbSymbolTableRecord
100
AcDbLayerTableRecord
  2
relief
 70
0
 62
7
  6
Continuous
370
-3
390
13
347
21
  0
ENDTAB
  0
TABLE
  2
STYLE
  5
5
330
0
100
AcDbSymbolTable
 70
1
  0
STYLE
  5
29
330
5
100
AcDbSymbolTableRecord
100
AcDbTextStyleTableRecord
  2
Standard
 70
0
 40
0.0
 41
1.0
 50
0.0
 71
0
 42
2.5
  3
txt
  4

  0
ENDTAB
  0
TABLE
  2
VIEW
  5
7
330
0
100
AcDbSymbolTable
 70
0
  0
ENDTAB
  0
TABLE
  2
UCS
  5
6
330
0
100
AcDbSymbolTable
 70
0
  0
ENDTAB
  0
TABLE
  2
APPID
  5
3
330
0
100
AcDbSymbolTable
 70
3
  0
APPID
  5
2A
330
3
100
AcDbSymbolTableRecord
100
AcDbRegAppTableRecord
  2
ACAD
 70
0
  0
APPID
  5
4A
330
3
100
AcDbSymbolTableRecord
100
AcDbRegAppTableRecord
  2
HATCHBACKGROUNDCOLOR
 70
0
  0
APPID
  5
4B
330
3
100
AcDbSymbolTableRecord
100
AcDbRegAppTableRecord
  2
EZDXF
 70
0
  0
ENDTAB
  0
TABLE
  2
DIMSTYLE
  5
4
330
0
100
AcDbSymbolTable
 70
1
100
AcDbDimStyleTable
  0
DIMSTYLE
105
2B
330
4
100
AcDbSymbolTableRecord
100
AcDbDimStyleTableRecord
  2
Standard
 70
0
 40
1.0
 41
2.5
 42
0.625
 43
3.75
 44
1.25
 45
0.0
 46
0.0
 47
0.0
 48
0.0
 49
2.5
140
2.5
141
2.5
142
0.0
143
0.03937007874
144
1.0
145
0.0
146
1.0
147
0.625
148
0.0
 69
0
 70
0
 71
0
 72
0
 73
0
 74
0
 75
0
 76
0
 77
1
 78
8
 79
3
170
0
171
3
172
1
173
0
174
0
175
0
176
0
177
0
178
0
179
2
271
2
272
2
273
2
274
3
275
0
276
0
277
2
278
44
279
0
280
0
281
0
282
0
283
0
284
8
285
0
286
0
288
0
289
3
290
0
371
-2
372
-2
  0
ENDTAB
  0
TABLE
  2
BLOCK_RECORD
  5
9
330
0
100
AcDbSymbolTable
 70
2
  0
BLOCK_RECORD
  5
17
330
9
100
AcDbSymbolTableRecord
100
AcDbBlockTableRecord
  2
*Model_Space
340
1A
 70
0
280
1
281
0
  0
BLOCK_RECORD
  5
1B
330
9
100
AcDbSymbolTableRecord
100
AcDbBlockTableRecord
  2
*Paper_Space
340
1E
 70
0
280
1
281
0
  0
ENDTAB
  0
ENDSEC
  0
SECTION
  2
BLOCKS
  0
BLOCK
  5
18
330
17
100
AcDbEntity
  8
0
100
AcDbBlockBegin
  2
*Model_Space
 70
0
 10
0.0
 20
0.0
 30
0.0
  3
*Model_Space
  1

  0
ENDBLK
  5
19
330
17
100
AcDbEntity
  8
0
100
AcDbBlockEnd
  0
BLOCK
  5
1C
330
1B
100
AcDbEntity
  8
0
100
AcDbBlockBegin
  2
*Paper_Space
 70
0
 10
0.0
 20
0.0
 30
0.0
  3
*Paper_Space
  1

  0
ENDBLK
  5
1D
330
1B
100
AcDbEntity
  8
0
100
AcDbBlockEnd
  0
ENDSEC
  0
SECTION
  2
ENTITIES
  0
LWPOLYLINE
  5
30
330
17
100
AcDbEntity
  8
relief
100
AcDbPolyline
 90
79
 70
1
 10
6.679101716144942e-13
 20
6.6172344689396825
 10
6.679101716144942e-13
 20
7.126252505008114
 10
6.679101716144942e-13
 20
7.635270541076544
 10
6.679101716144942e-13
 20
8.144288577157495
 10
6.679101716144942e-13
 20
8.653306613225926
 10
6.679101716144942e-13
 20
9.162324649294357
 10
6.679101716144942e-13
 20
9.671342685375308
 10
6.679101716144942e-13
 20
10.180360721443739
 10
6.679101716144942e-13
 20
10.68937875751217
 10
6.679101716144942e-13
 20
11.19839679359312
 10
6.679101716144942e-13
 20
11.707414829661552
 10
6.679101716144942e-13
 20
12.216432865729983
 10
6.679101716144942e-13
 20
12.725450901798414
 10
6.679101716144942e-13
 20
13.234468937879365
 10
6.679101716144942e-13
 20
13.743486973947796
 10
6.679101716144942e-13
 20
14.252505010016227
 10
6.679101716144942e-13
 20
14.761523046097178
 10
6.679101716144942e-13
 20
15.27054108216561
 10
6.679101716144942e-13
 20
15.77955911823404
 10
6.679101716144942e-13
 20
16.28857715430247
 10
6.679101716144942e-13
 20
16.797595190383422
 10
6.679101716144942e-13
 20
17.30661322645185
 10
6.679101716144942e-13
 20
17.815631262520284
 10
6.679101716144942e-13
 20
18.324649298601233
 10
6.679101716144942e-13
 20
18.833667334669666
 10
6.679101716144942e-13
 20
19.173012692052794
 10
0.5090180360679326
 20
19.24088176352942
 10
1.0180360721546657
 20
19.173012692052794
 10
1.5270541082219304
 20
19.342685370738096
 10
2.0360721442891947
 20
18.833667334669666
 10
2.2905811623325616
 20
18.324649298601233
 10
2.5450901803564596
 20
18.197394789584127
 10
2.7147628590520374
 20
18.324649298601233
 10
3.054108216443193
 20
18.66399465598436
 10
3.5631262525104574
 20
18.324649298601233
 10
4.0721442885777215
 20
17.815631262520284
 10
3.732798931186567
 20
17.30661322645185
 10
3.5631262525104574
 20
17.250055666890084
 10
3.054108216443193
 20
17.103006012021975
 10
2.5450901803564596
 20
16.870312052684277
 10
2.0360721442891947
 20
16.797595190383422
 10
1.5270541082024618
 20
16.627922511698117
 10
1.3816203836312833
 20
16.28857715430247
 10
1.1877087508307749
 20
15.77955911823404
 10
1.5270541082219304
 20
15.27054108216561
 10
2.0360721442891947
 20
14.761523046097178
 10
2.0360721442891947
 20
14.252505010016227
 10
1.5270541082219304
 20
13.743486973947796
 10
1.476152304617151
 20
13.234468937879365
 10
1.5270541082219304
 20
13.064796259181541
 10
1.730661322641049
 20
12.725450901798414
 10
2.0360721442891947
 20
12.343687374747091
 10
2.120908483636984
 20
12.216432865729983
 10
2.460253841008671
 20
11.707414829661552
 10
2.5450901803564596
 20
11.580160320644444
 10
2.7147628590520374
 20
11.19839679359312
 10
2.863226452910668
 20
10.68937875751217
 10
2.981391354147869
 20
10.180360721443739
 10
3.054108216443193
 20
9.671342685375308
 10
3.054108216443193
 20
9.162324649294357
 10
2.9904809619323514
 20
8.653306613225926
 10
2.863226452910668
 20
8.144288577157495
 10
2.6905239049665757
 20
7.635270541076544
 10
2.5450901803564596
 20
7.126252505008114
 10
2.0360721442891947
 20
6.998997995991005
 10
1.5270541082219304
 20
6.871743486973898
 10
1.3816203836312833
 20
6.6172344689396825
 10
1.1028724114829862
 20
6.108216432871251
 10
1.0180360721546657
 20
5.853707414837037
 10
0.8907815631329825
 20
5.5991983967903005
 10
0.6362725450896158
 20
5.090180360721869
 10
0.5090180360679326
 20
4.835671342687654
 10
0.3817635270462493
 20
4.581162324653439
 10
6.679101716144942e-13
 20
4.0721442885724874
 10
6.679101716144942e-13
 20
4.581162324653439
 10
6.679101716144942e-13
 20
5.090180360721869
 10
6.679101716144942e-13
 20
5.5991983967903005
 10
6.679101716144942e-13
 20
6.108216432871251
 10
6.679101716144942e-13
 20
6.6172344689396825
  0
LWPOLYLINE
  5
31
330
17
100
AcDbEntity
  8
relief
100
AcDbPolyline
 90
19
 70
1
 10
6.679101716144942e-13
 20
76.35270541081552
 10
6.679101716144942e-13
 20
76.86172344689648
 10
6.679101716144942e-13
 20
77.3707414829649
 10
6.679101716144942e-13
 20
77.87975951903334
 10
6.679101716144942e-13
 20
78.38877755511429
 10
6.679101716144942e-13
 20
78.89779559118271
 10
6.679101716144942e-13
 20
79.40681362725115
 10
6.679101716144942e-13
 20
79.9158316633321
 10
0.25450901802456594
 20
79.40681362725115
 10
0.5090180360679326
 20
78.89779559118271
 10
0.5090180360679326
 20
78.38877755511429
 10
1.0180360721546657
 20
77.87975951903334
 10
0.5090180360679326
 20
77.3707414829649
 10
1.0180360721546657
 20
77.3707414829649
 10
1.2725450901980324
 20
76.86172344689648
 10
1.2725450901980324
 20
76.35270541081552
 10
1.0180360721546657
 20
76.0133600534324
 10
0.5090180360679326
 20
76.0133600534324
 10
6.679101716144942e-13
 20
76.35270541081552
  0
LWPOLYLINE
  5
32
330
17
100
AcDbEntity
  8
relief
100
AcDbPolyline
 90
17
 70
1
 10
3.054108216443193
 20
79.9158316633321
 10
3.223780895119302
 20
79.40681362725115
 10
3.054108216443193
 20
79.27955911823405
 10
2.672344689378143
 20
78.89779559118271
 10
2.5450901803564596
 20
78.6432865731485
 10
2.2905811623325616
 20
78.38877755511429
 10
2.2057448229653045
 20
77.87975951903334
 10
2.0360721442891947
 20
77.71008684034803
 10
1.5270541082219304
 20
77.3707414829649
 10
1.0180360721546657
 20
77.87975951903334
 10
1.0180360721546657
 20
78.38877755511429
 10
1.2725450901980324
 20
78.89779559118271
 10
1.5270541082219304
 20
79.40681362725115
 10
1.8663994655936174
 20
79.9158316633321
 10
2.0360721442891947
 20
80.0855043420174
 10
2.5450901803564596
 20
80.42484969940053
 10
3.054108216443193
 20
79.9158316633321
  0
LWPOLYLINE
  5
33
330
17
100
AcDbEntity
  8
relief
100
AcDbPolyline
 90
39
 70
1
 10
3.5631262525104574
 20
106.04542418169518
 10
3.054108216443193
 20
106.3847695390783
 10
3.054108216443193
 20
106.89378757514675
 10
2.9692718770954043
 20
107.40280561122769
 10
2.8359576295572224
 20
107.91182364729612
 10
2.76324076724243
 20
108.42084168336456
 10
2.7147628590520374
 20
108.92985971943298
 10
2.646893787566019
 20
109.43887775551394
 10
2.5450901803564596
 20
109.69338677354816
 10
2.0360721442891947
 20
109.94789579158237
 10
2.5450901803564596
 20
110.4569138276508
 10
2.7147628590520374
 20
110.96593186373175
 10
3.054108216443193
 20
111.30527722111488
 10
3.5631262525104574
 20
111.47494989980018
 10
4.0721442885777215
 20
111.13560454242958
 10
4.581162324644986
 20
110.96593186373175
 10
5.09018036073172
 20
110.4569138276508
 10
5.09018036073172
 20
109.94789579158237
 10
4.581162324644986
 20
109.43887775551394
 10
4.835671342688354
 20
108.92985971943298
 10
5.09018036073172
 20
108.42084168336456
 10
5.599198396798985
 20
107.91182364729612
 10
5.344689378775087
 20
107.40280561122769
 10
5.344689378775087
 20
106.89378757514675
 10
5.599198396798985
 20
106.3847695390783
 10
5.09018036073172
 20
105.87575150300988
 10
5.599198396798985
 20
105.70607882431206
 10
5.802805611218103
 20
105.36673346692893
 10
5.980961923844566
 20
104.8577154308605
 10
5.599198396798985
 20
104.47595190380918
 10
5.344689378775087
 20
104.34869739479207
 10
5.09018036073172
 20
104.17902471610677
 10
4.581162324644986
 20
104.09418837675786
 10
4.326653306601621
 20
104.34869739479207
 10
4.326653306601621
 20
104.8577154308605
 10
4.326653306601621
 20
105.36673346692893
 10
4.0721442885777215
 20
105.62124248497567
 10
3.817635270553824
 20
105.87575150300988
 10
3.5631262525104574
 20
106.04542418169518
  0
LWPOLYLINE
  5
34
330
17
100
AcDbEntity
  8
relief
100
AcDbPolyline
 90
40
 70
1
 10
0.33934535737235483
 20
161.3587174348695
 10
0.509018036048464
 20
161.4435537742184
 10
1.0180360721546657
 20
161.5283901135548
 10
1.3573814295263527
 20
161.86773547093793
 10
1.5270541082219304
 20
162.37675350701886
 10
2.0360721442891947
 20
162.50400801603598
 10
2.5450901803564596
 20
162.37675350701886
 10
3.054108216443193
 20
162.88577154308732
 10
3.5631262525104574
 20
162.8009352037384
 10
4.0721442885777215
 20
162.88577154308732
 10
4.581162324644986
 20
162.6312625250531
 10
5.09018036073172
 20
162.6312625250531
 10
5.599198396798985
 20
162.74033781849812
 10
6.02338009351846
 20
162.37675350701886
 10
6.10821643286625
 20
162.2749498997977
 10
6.617234468933514
 20
161.95257181028683
 10
6.786907147629091
 20
161.86773547093793
 10
6.8717434869768805
 20
161.3587174348695
 10
6.617234468933514
 20
160.84969939880105
 10
6.2778891115423585
 20
160.34068136272012
 10
6.10821643286625
 20
159.8316633266517
 10
5.599198396798985
 20
159.70440881763457
 10
5.09018036073172
 20
159.8316633266517
 10
4.581162324644986
 20
159.57715430861745
 10
4.326653306601621
 20
159.8316633266517
 10
4.0721442885777215
 20
160.0861723446859
 10
3.5631262525104574
 20
160.34068136272012
 10
3.054108216443193
 20
160.34068136272012
 10
2.5450901803564596
 20
160.34068136272012
 10
2.0360721442891947
 20
160.84969939880105
 10
1.5270541082219304
 20
160.84969939880105
 10
1.5270541082219304
 20
160.34068136272012
 10
1.0180360721546657
 20
160.00133600533698
 10
0.5090180360679326
 20
159.8316633266517
 10
6.679101716144942e-13
 20
159.32264529058324
 10
6.679101716144942e-13
 20
159.8316633266517
 10
6.679101716144942e-13
 20
160.34068136272012
 10
6.679101716144942e-13
 20
160.84969939880105
 10
6.679101716144942e-13
 20
161.0193720774989
 10
0.33934535737235483
 20
161.3587174348695
  0
LWPOLYLINE
  5
35
330
17
100
AcDbEntity
  8
relief
100
AcDbPolyline
 90
32
 70
1
 10
6.679101716144942e-13
 20
188.33667334669664
 10
6.679101716144942e-13
 20
188.8456913827651
 10
6.679101716144942e-13
 20
189.35470941883352
 10
6.679101716144942e-13
 20
189.86372745491445
 10
6.679101716144942e-13
 20
190.3727454909829
 10
6.679101716144942e-13
 20
190.88176352705133
 10
6.679101716144942e-13
 20
191.13627254509805
 10
0.25450901802456594
 20
190.88176352705133
 10
0.5090180360679326
 20
190.7545090180342
 10
1.0180360721546657
 20
190.7969271877024
 10
1.2725450901980324
 20
190.88176352705133
 10
1.5270541082219304
 20
190.98356713427253
 10
2.0360721442891947
 20
191.13627254509805
 10
2.5450901803564596
 20
190.88176352705133
 10
2.748697394795047
 20
190.3727454909829
 10
2.7995991983998265
 20
189.86372745491445
 10
2.6299265197042487
 20
189.35470941884603
 10
2.5450901803564596
 20
189.1850367401482
 10
2.0360721442891947
 20
189.1002004007993
 10
1.5270541082219304
 20
189.01536406145038
 10
1.0180360721546657
 20
188.8456913827651
 10
1.1452905811763492
 20
188.33667334669664
 10
1.0180360721546657
 20
187.8276553106157
 10
1.0180360721546657
 20
187.31863727454729
 10
1.0180360721546657
 20
186.80961923847883
 10
0.5090180360679326
 20
186.3006012024104
 10
6.679101716144942e-13
 20
185.9612558450273
 10
6.679101716144942e-13
 20
186.3006012024104
 10
6.679101716144942e-13
 20
186.80961923847883
 10
6.679101716144942e-13
 20
187.31863727454729
 10
6.679101716144942e-13
 20
187.8276553106157
 10
6.679101716144942e-13
 20
188.33667334669664
  0
LWPOLYLINE
  5
36
330
17
100
AcDbEntity
  8
relief
100
AcDbPolyline
 90
19
 70
1
 10
6.679101716144942e-13
 20
205.1342685370801
 10
0.16967267869624567
 20
205.64328657314852
 10
0.25450901802456594
 20
206.15230460921694
 10
0.5090180360679326
 20
206.66132264528537
 10
1.0180360721546657
 20
206.32197728790223
 10
1.0907529344305207
 20
206.15230460922945
 10
1.2442663103959675
 20
205.64328657314852
 10
1.2725450901980324
 20
205.1342685370801
 10
1.425250501012371
 20
204.62525050099913
 10
1.5270541082219304
 20
204.1162324649307
 10
1.0180360721546657
 20
203.60721442886225
 10
1.0180360721546657
 20
203.09819639278132
 10
0.5090180360679326
 20
202.8436873747471
 10
6.679101716144942e-13
 20
202.71643286572998
 10
6.679101716144942e-13
 20
203.09819639278132
 10
6.679101716144942e-13
 20
203.60721442886225
 10
6.679101716144942e-13
 20
204.1162324649307
 10
6.679101716144942e-13
 20
204.62525050099913
 10
6.679101716144942e-13
 20
205.1342685370801
  0
LWPOLYLINE
  5
37
330
17
100
AcDbEntity
  8
relief
100
AcDbPolyline
 90
37
 70
1
 10
6.679101716144942e-13
 20
217.8597194388785
 10
6.679101716144942e-13
 20
218.36873747494693
 10
6.679101716144942e-13
 20
218.87775551102789
 10
6.679101716144942e-13
 20
219.3867735470963
 10
6.679101716144942e-13
 20
219.82307472086387
 10
0.5090180360679326
 20
219.75035785857554
 10
1.0180360721546657
 20
219.89579158316474
 10
1.4422177688741415
 20
220.40480961923316
 10
1.5270541082219304
 20
220.50661322645436
 10
2.0360721442891947
 20
220.71022044088423
 10
2.2905811623325616
 20
220.91382765531412
 10
2.5450901803564596
 20
221.16833667334834
 10
3.054108216443193
 20
221.27741196679335
 10
3.5631262525104574
 20
220.91382765531412
 10
4.0721442885777215
 20
220.60841683366303
 10
4.185259407708108
 20
220.40480961923316
 10
4.275751502996841
 20
219.89579158316474
 10
4.326653306601621
 20
219.3867735470963
 10
4.290294875483161
 20
218.87775551102789
 10
4.241816967253832
 20
218.36873747494693
 10
4.363011737759017
 20
217.8597194388785
 10
4.241816967253832
 20
217.35070140281005
 10
4.173947895787282
 20
216.84168336672911
 10
4.0721442885777215
 20
216.3326653306607
 10
3.5631262525104574
 20
215.82364729459223
 10
3.054108216443193
 20
215.82364729459223
 10
2.5450901803564596
 20
215.51823647294117
 10
2.0360721442891947
 20
215.56913827655802
 10
1.5270541082219304
 20
215.72184368738357
 10
1.0180360721546657
 20
215.82364729459223
 10
0.5090180360679326
 20
215.56913827655802
 10
0.25450901802456594
 20
215.82364729459223
 10
2.01364386152757e-11
 20
215.88020485414148
 10
6.679101716144942e-13
 20
216.3326653306607
 10
6.679101716144942e-13
 20
216.84168336672911
 10
6.679101716144942e-13
 20
217.35070140281005
 10
6.679101716144942e-13
 20
217.8597194388785
  0
LWPOLYLINE
  5
38
330
17
100
AcDbEntity
  8
relief
100
AcDbPolyline
 90
11
 70
1
 10
10.180360721443304
 20
73.29859719439241
 10
10.519706078814991
 20
72.78957915831147
 10
10.519706078814991
 20
72.28056112224303
 10
10.689378757510568
 20
71.7715430861746
 10
10.180360721443304
 20
71.26252505010618
 10
9.67134268537604
 20
71.7715430861746
 10
9.416833667352142
 20
72.28056112224303
 10
9.162324649308774
 20
72.78957915831147
 10
9.162324649308774
 20
73.29859719439241
 10
9.67134268537604
 20
73.36222444889471
 10
10.180360721443304
 20
73.29859719439241
  0
LWPOLYLINE
  5
39
330
17
100
AcDbEntity
  8
relief
100
AcDbPolyline
 90
11
 70
1
 10
25.450901803616993
 20
83.47895791583616
 10
24.94188376753026
 20
82.9699398797552
 10
24.432865731462996
 20
82.9699398797552
 10
23.92384769539573
 20
82.9699398797552
 10
23.796593186374047
 20
83.47895791583616
 10
23.92384769539573
 20
83.98797595190459
 10
24.432865731462996
 20
84.49699398797301
 10
24.94188376753026
 20
85.00601202405397
 10
25.111556446225837
 20
84.49699398797301
 10
25.281229124921413
 20
83.98797595190459
 10
25.450901803616993
 20
83.47895791583616
  0
LWPOLYLINE
  5
3A
330
17
100
AcDbEntity
  8
relief
100
AcDbPolyline
 90
19
 70
1
 10
15.949231796937198
 20
157.286573146297
 10
16.288577154308882
 20
157.37912188012308
 10
16.79759519037615
 20
157.4901803607269
 10
17.306613226462883
 20
157.286573146297
 10
17.052104208419518
 20
156.77755511021604
 10
16.79759519037615
 20
156.52304609218183
 10
16.627922511680573
 20
156.26853707414762
 10
16.4158316633111
 20
155.7595190380792
 10
16.4158316633111
 20
155.25050100199823
 10
16.458249832984993
 20
154.7414829659298
 10
16.288577154308882
 20
154.57181028724452
 10
15.77955911824162
 20
154.4869739478956
 10
15.270541082174356
 20
154.7414829659298
 10
15.10086840347878
 20
155.25050100199823
 10
15.10086840347878
 20
155.7595190380792
 10
15.270541082174356
 20
156.26853707414762
 10
15.609886439546043
 20
156.77755511021604
 10
15.77955911824162
 20
157.0320641282628
 10
15.949231796937198
 20
157.286573146297
  0
LWPOLYLINE
  5
3B
330
17
100
AcDbEntity
  8
relief
100
AcDbPolyline
 90
18
 70
1
 10
20.869739478953203
 20
159.44989979960036
 10
21.378757515039936
 20
159.49231796928106
 10
21.887775551107204
 20
159.32264529058324
 10
22.015030060109417
 20
158.8136272545148
 10
22.1422845691311
 20
158.30460921843385
 10
22.227120908478888
 20
157.79559118236543
 10
21.887775551107204
 20
157.54108216433121
 10
21.378757515039936
 20
157.45624582498232
 10
20.869739478953203
 20
157.45624582498232
 10
20.36072144288594
 20
157.54108216433121
 10
19.851703406818675
 20
157.54108216433121
 10
19.34268537075141
 20
157.62591850368014
 10
19.25784903140362
 20
157.79559118236543
 10
19.34268537075141
 20
158.30460921843385
 10
19.851703406818675
 20
158.5591182364681
 10
20.36072144288594
 20
158.8136272545148
 10
20.700066800257623
 20
159.32264529058324
 10
20.869739478953203
 20
159.44989979960036
  0
LWPOLYLINE
  5
3C
330
17
100
AcDbEntity
  8
relief
100
AcDbPolyline
 90
13
 70
1
 10
11.877087508340676
 20
171.53907815631322
 10
12.216432865731832
 20
171.0300601202448
 10
11.961923847707933
 20
170.52104208416384
 10
11.707414829664566
 20
170.31743486973397
 10
11.198396793597302
 20
170.13927855711253
 10
10.689378757510568
 20
170.0120240480954
 10
10.485771543071982
 20
170.52104208416384
 10
10.43486973948667
 20
171.0300601202448
 10
10.43486973948667
 20
171.53907815631322
 10
10.689378757510568
 20
171.87842351369636
 10
11.198396793597302
 20
171.87842351369636
 10
11.707414829664566
 20
171.79358717434744
 10
11.877087508340676
 20
171.53907815631322
  0
LWPOLYLINE
  5
3D
330
17
100
AcDbEntity
  8
relief
100
AcDbPolyline
 90
20
 70
1
 10
14.761523046087623
 20
172.5571142284626
 10
15.01603206413099
 20
172.04809619238165
 10
15.270541082174356
 20
171.87842351369636
 10
15.77955911824162
 20
172.04809619238165
 10
16.288577154308882
 20
171.53907815631322
 10
16.79759519037615
 20
172.04809619238165
 10
16.924849699397836
 20
171.53907815631322
 10
16.79759519037615
 20
171.284569138279
 10
16.627922511680573
 20
171.0300601202448
 10
16.288577154308882
 20
170.77555110221058
 10
15.77955911824162
 20
170.9282565130236
 10
15.270541082174356
 20
170.9028056112277
 10
14.761523046087623
 20
170.64829659318096
 10
14.252505010020357
 20
170.77555110221058
 10
14.08283233132478
 20
171.0300601202448
 10
13.743486973953093
 20
171.53907815631322
 10
13.743486973953093
 20
172.04809619238165
 10
13.743486973953093
 20
172.5571142284626
 10
14.252505010020357
 20
172.81162324649682
 10
14.761523046087623
 20
172.5571142284626
  0
LWPOLYLINE
  5
3E
330
17
100
AcDbEntity
  8
relief
100
AcDbPolyline
 90
87
 70
1
 10
15.270541082174356
 20
175.1022044088173
 10
14.761523046087623
 20
174.59318637274885
 10
14.252505010020357
 20
174.42351369406356
 10
13.743486973953093
 20
174.33867735471463
 10
13.234468937885827
 20
174.42351369406356
 10
12.725450901799096
 20
174.59318637274885
 10
12.216432865731832
 20
175.1022044088173
 10
11.961923847707933
 20
175.61122244488573
 10
11.707414829645097
 20
175.95056780228137
 10
11.198396793597302
 20
175.95056780228137
 10
10.689378757510568
 20
175.61122244488573
 10
10.180360721443304
 20
175.61122244488573
 10
9.67134268537604
 20
176.12024048096666
 10
9.67134268537604
 20
176.6292585170351
 10
9.67134268537604
 20
177.13827655310354
 10
10.180360721443304
 20
177.6472945891845
 10
9.925851703399937
 20
178.15631262525292
 10
9.67134268537604
 20
178.41082164328714
 10
9.416833667352142
 20
178.66533066132135
 10
9.162324649308774
 20
178.91983967935556
 10
8.65330661322204
 20
179.17434869738977
 10
8.907815631265407
 20
179.68336673347073
 10
9.162324649308774
 20
180.19238476953916
 10
9.67134268537604
 20
180.7014028056076
 10
10.180360721443304
 20
180.7014028056076
 10
10.689378757510568
 20
180.19238476953916
 10
11.198396793597302
 20
179.93787575150495
 10
11.368069472292879
 20
180.19238476953916
 10
11.707414829664566
 20
180.7014028056076
 10
12.216432865731832
 20
181.21042084168855
 10
12.725450901799096
 20
181.21042084168855
 10
12.979959919842463
 20
180.7014028056076
 10
13.234468937885827
 20
180.19238476953916
 10
13.488977955929196
 20
179.68336673347073
 10
13.573814295257515
 20
179.17434869738977
 10
13.743486973953093
 20
178.66533066132135
 10
14.252505010020357
 20
179.17434869738977
 10
14.761523046087623
 20
179.17434869738977
 10
15.270541082174356
 20
179.68336673347073
 10
15.77955911824162
 20
180.19238476953916
 10
16.288577154308882
 20
180.7014028056076
 10
16.79759519037615
 20
180.7014028056076
 10
16.79759519037615
 20
181.21042084168855
 10
17.052104208419518
 20
181.71943887775697
 10
17.306613226462883
 20
181.8891115564548
 10
17.56112224450625
 20
181.71943887775697
 10
17.815631262530147
 20
181.46492985972276
 10
18.070140280554046
 20
181.21042084168855
 10
18.32464929859741
 20
180.7014028056076
 10
17.815631262530147
 20
180.19238476953916
 10
17.306613226462883
 20
180.19238476953916
 10
17.476285905138994
 20
179.68336673347073
 10
17.306613226462883
 20
179.17434869738977
 10
17.052104208419518
 20
178.66533066132135
 10
17.306613226462883
 20
178.41082164328714
 10
17.476285905138994
 20
178.15631262525292
 10
17.688376753508464
 20
177.6472945891845
 10
17.815631262530147
 20
177.47762191048665
 10
18.32464929859741
 20
177.47762191048665
 10
18.833667334664675
 20
177.47762191048665
 10
19.34268537075141
 20
177.39278557115026
 10
19.59719438877531
 20
177.13827655310354
 10
19.59719438877531
 20
176.6292585170351
 10
19.34268537075141
 20
176.12024048096666
 10
19.34268537075141
 20
175.61122244488573
 10
19.851703406818675
 20
175.3567134268515
 10
20.106212424862044
 20
175.1022044088173
 10
20.36072144288594
 20
174.59318637274885
 10
19.851703406818675
 20
174.08416833666791
 10
19.34268537075141
 20
174.08416833666791
 10
18.833667334664675
 20
173.9569138276508
 10
18.663994655969102
 20
174.08416833666791
 10
18.57915831664078
 20
174.59318637274885
 10
18.32464929859741
 20
175.1022044088173
 10
17.815631262530147
 20
175.61122244488573
 10
17.306613226462883
 20
175.1022044088173
 10
16.79759519037615
 20
174.59318637274885
 10
16.627922511680573
 20
174.08416833666791
 10
16.54308617233278
 20
173.5751503005995
 10
16.627922511680573
 20
173.06613226453103
 10
16.288577154308882
 20
172.5571142284626
 10
15.77955911824162
 20
173.06613226453103
 10
15.609886439546043
 20
173.5751503005995
 10
15.77955911824162
 20
174.08416833666791
 10
16.034068136284986
 20
174.59318637274885
 10
15.77955911824162
 20
174.8476953907831
 10
15.270541082174356
 20
175.1022044088173
  0
LWPOLYLINE
  5
3F
330
17
100
AcDbEntity
  8
relief
100
AcDbPolyline
 90
25
 70
1
 10
18.833667334664675
 20
183.24649298597478
 10
19.34268537075141
 20
183.501002004009
 10
19.851703406818675
 20
183.58583834335792
 10
20.36072144288594
 20
183.501002004009
 10
20.61523046090984
 20
183.24649298597478
 10
20.869739478953203
 20
183.07682030727696
 10
21.378757515039936
 20
182.99198396792804
 10
21.887775551107204
 20
183.24649298597478
 10
22.05744822978331
 20
182.73747494989382
 10
21.887775551107204
 20
182.4829659318596
 10
21.633266533083304
 20
182.2284569138254
 10
21.378757515039936
 20
181.71943887775697
 10
20.869739478953203
 20
181.46492985972276
 10
20.700066800257623
 20
181.21042084168855
 10
20.36072144288594
 20
180.7014028056076
 10
19.851703406818675
 20
180.7014028056076
 10
19.34268537075141
 20
180.19238476953916
 10
18.833667334664675
 20
179.68336673347073
 10
18.32464929859741
 20
180.19238476953916
 10
18.833667334664675
 20
180.7014028056076
 10
19.088176352708047
 20
181.21042084168855
 10
19.088176352708047
 20
181.71943887775697
 10
19.003340013360255
 20
182.2284569138254
 10
18.833667334664675
 20
182.73747494989382
 10
18.833667334664675
 20
183.24649298597478
  0
LWPOLYLINE
  5
40
330
17
100
AcDbEntity
  8
relief
100
AcDbPolyline
 90
155
 70
1
 10
43.06292585168842
 20
2.0360721442862437
 10
43.266533066127
 20
2.2905811623204593
 10
43.521042084170375
 20
2.5450901803546744
 10
43.77555110221374
 20
2.672344689371782
 10
44.284569138281
 20
2.6582052994907306
 10
44.79358717434827
 20
2.7995991984014106
 10
45.30260521041553
 20
2.975797749350101
 10
45.64195056780669
 20
3.0541082164356257
 10
45.811623246521734
 20
3.0965263861038217
 10
46.320641282589
 20
3.171573917063913
 10
46.70240480961511
 20
3.0541082164356257
 10
46.82965931863679
 20
2.9904809619208117
 10
47.33867735470405
 20
2.9086744918464342
 10
47.84769539079079
 20
2.8505010020057493
 10
48.051302605209905
 20
3.0541082164356257
 10
48.21127970226741
 20
3.563126252504057
 10
48.13048318859729
 20
4.0721442885724874
 10
48.35671342685806
 20
4.581162324653439
 10
48.61122244490142
 20
5.090180360721869
 10
48.35671342685806
 20
5.5991983967903005
 10
48.16583166332553
 20
6.108216432871251
 10
47.993129115381436
 20
6.6172344689396825
 10
47.84769539079079
 20
7.126252505008114
 10
47.89396975769715
 20
7.635270541076544
 10
47.95677068422405
 20
8.144288577157495
 10
48.01736806948637
 20
8.653306613225926
 10
48.102204408814686
 20
9.162324649294357
 10
48.32843464707546
 20
9.671342685375308
 10
48.35671342685806
 20
9.75617902472422
 10
48.865731462925325
 20
10.180360721443739
 10
49.374749498992585
 20
10.282164328664937
 10
49.71409485638374
 20
10.180360721443739
 10
49.883767535079315
 20
10.123803161881971
 10
50.0534402137749
 20
10.180360721443739
 10
50.39278557114658
 20
10.32579444603293
 10
50.90180360721385
 20
10.562124248495062
 10
51.047237331804496
 20
10.68937875751217
 10
51.41082164328111
 20
11.11356045424421
 10
51.51262525049067
 20
11.19839679359312
 10
51.665330661324475
 20
11.707414829661552
 10
51.628972230167086
 20
12.216432865729983
 10
51.71623246492926
 20
12.725450901798414
 10
51.83500334002006
 20
13.234468937879365
 10
51.91983967934838
 20
13.336272545100563
 10
52.428857715435115
 20
13.743486973947796
 10
52.73426853708325
 20
14.252505010016227
 10
52.937875751502375
 20
14.65971943887598
 10
53.06513026052406
 20
14.761523046097178
 10
53.44689378756964
 20
14.979673632987225
 10
53.95591182365637
 20
15.27054108216561
 10
54.46492985972364
 20
15.45563854983027
 10
54.9739478957909
 20
15.409364182917235
 10
55.48296593187763
 20
15.36308981599168
 10
55.68657314629675
 20
15.27054108216561
 10
55.9919839679449
 20
15.100868403480305
 10
56.501002004012165
 20
14.95240480961658
 10
56.755511022055536
 20
14.761523046097178
 10
57.010020040079425
 20
14.507014028050442
 10
57.51903807614669
 20
14.252505010016227
 10
58.02805611223343
 20
13.947094188377672
 10
58.5370741483007
 20
13.743486973947796
 10
59.04609218436796
 20
13.743486973947796
 10
59.555110220435225
 20
13.67077011164694
 10
60.064128256521954
 20
13.404141616577189
 10
60.573146292589215
 20
13.234468937879365
 10
61.08216432865648
 20
13.043587174347444
 10
61.36495212648244
 20
12.725450901798414
 10
61.59118236472375
 20
12.318236472951181
 10
61.64773992430841
 20
12.216432865729983
 10
61.845691382767114
 20
11.707414829661552
 10
61.9305277221149
 20
11.19839679359312
 10
61.95476667621983
 20
10.68937875751217
 10
61.998396793600925
 20
10.180360721443739
 10
61.794789579162334
 20
9.671342685375308
 10
61.59118236472375
 20
9.33199732799218
 10
61.52755511021291
 20
9.162324649294357
 10
61.40608489705939
 20
8.653306613225926
 10
61.421509686028166
 20
8.144288577157495
 10
61.59118236472375
 20
7.635270541076544
 10
61.87397016254971
 20
7.126252505008114
 10
62.01536406146269
 20
6.6172344689396825
 10
62.100200400810486
 20
6.44756179025438
 10
62.245634125401125
 20
6.108216432871251
 10
62.60921843687775
 20
5.7446321213794915
 10
62.73647294587996
 20
5.5991983967903005
 10
62.990981963923325
 20
5.090180360721869
 10
63.118236472945014
 20
4.886573146291993
 10
63.62725450901228
 20
4.581162324653439
 10
64.136272545099
 20
4.290294875462535
 10
64.28897795591335
 20
4.0721442885724874
 10
64.3398797595376
 20
3.563126252504057
 10
64.3398797595376
 20
3.0541082164356257
 10
64.136272545099
 20
2.7147628590524984
 10
63.796927187707844
 20
2.5450901803546744
 10
63.627254508992806
 20
2.4723733180538185
 10
63.118236472945014
 20
2.2905811623204593
 10
62.60921843687775
 20
2.4178356713375666
 10
62.35470941885385
 20
2.5450901803546744
 10
62.100200400810486
 20
2.672344689371782
 10
61.794789579162334
 20
3.0541082164356257
 10
61.59118236472375
 20
3.3934535738187535
 10
61.421509686028166
 20
3.563126252504057
 10
61.08216432865648
 20
4.0721442885724874
 10
60.573146292589215
 20
4.241816967270311
 10
60.064128256521954
 20
4.0721442885724874
 10
59.80961923847859
 20
3.563126252504057
 10
59.70054394504534
 20
3.0541082164356257
 10
59.555110220435225
 20
2.5450901803546744
 10
59.38543754173964
 20
2.0360721442862437
 10
59.04609218436796
 20
1.5270541082178128
 10
58.5370741483007
 20
1.3234468937879365
 10
58.155310621235635
 20
1.0180360721493822
 10
58.02805611223343
 20
0.8907815631322745
 10
57.51903807614669
 20
0.7635270541026461
 10
57.010020040079425
 20
0.5090180360684308
 10
56.70460921843129
 20
1.0180360721493822
 10
56.501002004012165
 20
1.2725450901835975
 10
56.16165664664047
 20
1.5270541082178128
 10
55.9919839679449
 20
1.6543086172349206
 10
55.82231128924933
 20
1.5270541082178128
 10
55.61022044087985
 20
1.0180360721493822
 10
55.48296593185817
 20
0.5090180360684308
 10
54.9739478957909
 20
0.0
 10
54.46492985972364
 20
0.0
 10
53.95591182365637
 20
0.0
 10
53.44689378756964
 20
0.0
 10
52.937875751502375
 20
0.0
 10
52.428857715435115
 20
0.0
 10
51.91983967936785
 20
0.0
 10
51.41082164328111
 20
0.0
 10
50.90180360721385
 20
0.0
 10
50.39278557114658
 20
0.0
 10
49.883767535079315
 20
0.0
 10
49.374749498992585
 20
0.0
 10
48.865731462925325
 20
0.0
 10
48.35671342685806
 20
0.0
 10
47.84769539079079
 20
0.0
 10
47.33867735470405
 20
0.0
 10
46.82965931863679
 20
0.0
 10
46.320641282569525
 20
0.0
 10
45.811623246502265
 20
0.0
 10
45.30260521041553
 20
0.0
 10
44.79358717434827
 20
0.0
 10
44.284569138281
 20
0.0
 10
43.77555110221374
 20
0.0
 10
43.266533066127
 20
0.0
 10
42.757515030059736
 20
0.0
 10
42.24849699399247
 20
0.0
 10
41.92127111367326
 20
0.0
 10
41.99398797596858
 20
0.5090180360684308
 10
42.16366065464469
 20
1.0180360721493822
 10
42.24849699399247
 20
1.2725450901835975
 10
42.50300601201637
 20
1.5270541082178128
 10
42.757515030059736
 20
1.7306613226476895
 10
43.06292585168842
 20
2.0360721442862437
  0
LWPOLYLINE
  5
41
330
17
100
AcDbEntity
  8
relief
100
AcDbPolyline
 90
44
 70
1
 10
195.97194388776654
 20
6.362725450905467
 10
195.4629258516993
 20
6.6172344689396825
 10
194.95390781563202
 20
7.126252505008114
 10
194.44488977956473
 20
7.5080160320594365
 10
194.40247160989082
 20
7.635270541076544
 10
194.27521710086916
 20
8.144288577157495
 10
194.3939879759405
 20
8.653306613225926
 10
194.4448897795453
 20
8.755110220447126
 10
194.95390781563202
 20
9.0896077869935
 10
195.05571142284157
 20
9.162324649294357
 10
195.4629258516993
 20
9.416833667341093
 10
195.97194388776654
 20
9.544088176358201
 10
196.48096192385327
 20
9.671342685375308
 10
196.98997995992056
 20
9.671342685375308
 10
197.4989979959878
 20
10.05310621242663
 10
197.7535070140312
 20
10.180360721443739
 10
198.00801603205508
 20
10.282164328664937
 10
198.5170340681223
 20
10.282164328664937
 10
199.02605210420904
 20
10.243987975958554
 10
199.53507014027633
 20
10.282164328664937
 10
200.04408817634356
 20
10.231262525060599
 10
200.14589178355317
 20
10.180360721443739
 10
200.55310621243035
 20
9.925851703409524
 10
201.06212424849758
 20
9.734969939877601
 10
201.23179692717372
 20
9.671342685375308
 10
201.57114228456487
 20
9.501670006677484
 10
201.740814963241
 20
9.162324649294357
 10
201.84522891936882
 20
8.653306613225926
 10
201.98761158679997
 20
8.144288577157495
 10
202.02925851702736
 20
7.635270541076544
 10
201.95290581161044
 20
7.126252505008114
 10
201.91048764193653
 20
6.6172344689396825
 10
201.57114228456487
 20
6.108216432871251
 10
201.06212424849758
 20
6.02338009352234
 10
200.55310621243035
 20
5.980961923854144
 10
200.04408817632412
 20
6.02338009352234
 10
199.53507014027633
 20
6.035499570582917
 10
199.02605210420904
 20
5.96278270826954
 10
198.5170340681418
 20
6.108216432871251
 10
198.00801603205508
 20
6.108216432871251
 10
197.4989979959878
 20
6.108216432871251
 10
196.98997995992056
 20
6.23547094188836
 10
196.48096192385327
 20
6.277889111556555
 10
195.97194388776654
 20
6.362725450905467
  0
LWPOLYLINE
  5
42
330
17
100
AcDbEntity
  8
relief
100
AcDbPolyline
 90
21
 70
1
 10
79.91583166332049
 20
95.78022712091506
 10
80.42484969940722
 20
95.78022712091506
 10
80.9338677354745
 20
95.79719438877481
 10
81.44288577154175
 20
96.20440881763457
 10
81.95190380760901
 20
96.3740814963324
 10
82.46092184369574
 20
96.20440881763457
 10
82.46092184369574
 20
95.69539078156615
 10
81.95190380760901
 20
95.18637274548519
 10
81.44288577154175
 20
94.84702738810206
 10
81.27321309284618
 20
94.67735470941676
 10
80.9338677354745
 20
94.16833667334832
 10
80.55210420842891
 20
93.6593186372799
 10
80.42484969940722
 20
93.58660177497904
 10
79.91583166333996
 20
93.60276107771813
 10
79.74615898462491
 20
93.6593186372799
 10
79.40681362725323
 20
94.16833667334832
 10
78.89779559118597
 20
94.67735470941676
 10
79.23714094855764
 20
95.18637274548519
 10
79.40681362725323
 20
95.44088176353192
 10
79.6613226452966
 20
95.69539078156615
 10
79.91583166332049
 20
95.78022712091506
  0
LWPOLYLINE
  5
43
330
17
100
AcDbEntity
  8
relief
100
AcDbPolyline
 90
19
 70
1
 10
54.9739478957909
 20
99.2585170340702
 10
55.48296593185817
 20
99.2585170340702
 10
55.9919839679449
 20
99.00400801603598
 10
56.2464929859688
 20
98.74949899800177
 10
56.501002004012165
 20
98.24048096192081
 10
56.62825651303385
 20
97.73146292585238
 10
56.755511022055536
 20
97.22244488978396
 10
56.501002004012165
 20
96.96793587173721
 10
56.2464929859688
 20
96.713426853703
 10
55.9919839679449
 20
96.45891783566879
 10
55.48296593185817
 20
96.45891783566879
 10
54.9739478957909
 20
96.20440881763457
 10
54.46492985972364
 20
96.20440881763457
 10
54.15951903807549
 20
96.713426853703
 10
54.26132264530452
 20
97.22244488978396
 10
54.295257181028056
 20
97.73146292585238
 10
54.46492985972364
 20
98.24048096192081
 10
54.46492985972364
 20
98.74949899800177
 10
54.9739478957909
 20
99.2585170340702
  0
LWPOLYLINE
  5
44
330
17
100
AcDbEntity
  8
relief
100
AcDbPolyline
 90
24
 70
1
 10
52.428857715435115
 20
100.53106212424127
 10
52.53066132264467
 20
100.785571142288
 10
52.428857715435115
 20
101.29458917835645
 10
52.937875751502375
 20
101.80360721442487
 10
53.44689378756964
 20
101.80360721442487
 10
53.95591182365637
 20
101.54909819639066
 10
54.083166332678054
 20
101.29458917835645
 10
54.26132264528505
 20
100.785571142288
 10
54.46492985972364
 20
100.27655310620706
 10
54.9739478957909
 20
99.76753507013862
 10
54.46492985972364
 20
99.2585170340702
 10
53.95591182365637
 20
99.2585170340702
 10
53.44689378756964
 20
99.00400801603598
 10
52.937875751502375
 20
98.91917167668707
 10
52.810621242480686
 20
98.74949899800177
 10
52.428857715435115
 20
98.24048096192081
 10
51.91983967936785
 20
98.24048096192081
 10
51.41082164328111
 20
98.49498997996756
 10
51.241148964585534
 20
98.74949899800177
 10
51.41082164328111
 20
99.00400801603598
 10
51.58049432197669
 20
99.2585170340702
 10
51.91983967936785
 20
99.76753507013862
 10
52.17434869739174
 20
100.27655310620706
 10
52.428857715435115
 20
100.53106212424127
  0
LWPOLYLINE
  5
45
330
17
100
AcDbEntity
  8
relief
100
AcDbPolyline
 90
12
 70
1
 10
61.08216432865648
 20
109.94789579158237
 10
61.336673346680385
 20
109.43887775551394
 10
61.336673346680385
 20
108.92985971943298
 10
61.08216432865648
 20
108.42084168336456
 10
60.57314629256975
 20
108.25116900467926
 10
60.064128256521954
 20
108.08149632598142
 10
59.86052104208336
 20
108.42084168336456
 10
59.68236472945691
 20
108.92985971943298
 10
59.555110220435225
 20
109.43887775551394
 10
60.064128256521954
 20
109.94789579158237
 10
60.573146292589215
 20
109.94789579158237
 10
61.08216432865648
 20
109.94789579158237
  0
LWPOLYLINE
  5
46
330
17
100
AcDbEntity
  8
relief
100
AcDbPolyline
 90
16
 70
1
 10
95.69539078156144
 20
133.36272545090546
 10
96.2044088176287
 20
133.5323981296033
 10
96.27712567992404
 20
133.36272545090546
 10
96.3740814963243
 20
132.85370741482453
 10
96.3740814963243
 20
132.3446893787561
 10
96.26803607213955
 20
131.83567134268765
 10
96.39529058116123
 20
131.32665330661922
 10
96.3740814963243
 20
130.8176352705383
 10
96.2044088176287
 20
130.6140280561084
 10
95.86506346025702
 20
130.8176352705383
 10
95.69539078156144
 20
130.9873079492361
 10
95.52571810286587
 20
131.32665330661922
 10
95.69539078156144
 20
131.83567134268765
 10
95.52571810286587
 20
132.3446893787561
 10
95.18637274549418
 20
132.85370741482453
 10
95.69539078156144
 20
133.36272545090546
  0
LWPOLYLINE
  5
47
330
17
100
AcDbEntity
  8
relief
100
AcDbPolyline
 90
620
 70
1
 10
214.29659318636328
 20
218.87775551102789
 10
214.1791274857414
 20
219.3867735470963
 10
214.15777008562475
 20
219.89579158316474
 10
213.91482965931772
 20
220.40480961923316
 10
213.787575150296
 20
220.91382765531412
 10
213.40581162325043
 20
221.42284569138255
 10
213.27855711422876
 20
221.59251837006784
 10
212.76953907816147
 20
221.93186372745097
 10
212.26052104207474
 20
222.0591182364681
 10
211.7515030060075
 20
222.1015364061488
 10
211.24248496994022
 20
222.03366733467217
 10
210.733466933873
 20
222.44088176353193
 10
210.2244488977862
 20
222.94989979960036
 10
210.2244488977862
 20
223.45891783566879
 10
209.71543086171897
 20
223.45891783566879
 10
209.20641282565168
 20
223.86613226452855
 10
208.69739478958445
 20
223.82250214714801
 10
208.18837675349772
 20
223.76432865730735
 10
207.93386773545433
 20
223.9679358717372
 10
207.67935871743043
 20
224.1715430861671
 10
207.1703406813632
 20
224.33152018321647
 10
206.8309953239915
 20
224.47695390781817
 10
206.6613226452959
 20
224.57875751502684
 10
206.15230460920918
 20
224.8162992652013
 10
205.64328657314195
 20
224.9859719438866
 10
205.13426853705516
 20
224.91325508159827
 10
204.62525050100737
 20
224.9859719438866
 10
204.11623246492064
 20
224.9859719438866
 10
203.6072144288534
 20
225.32531730126973
 10
203.09819639276668
 20
225.32531730126973
 10
202.58917835671883
 20
225.1556446225719
 10
202.0801603206321
 20
225.1556446225719
 10
201.57114228456487
 20
224.9859719438866
 10
201.06212424849758
 20
224.9859719438866
 10
200.55310621243035
 20
225.20412253076412
 10
200.26223876322956
 20
225.49498997995502
 10
200.10771543085446
 20
226.00400801603598
 10
200.04408817634356
 20
226.0888443553849
 10
199.53507014027633
 20
226.3675923275152
 10
199.28056112225244
 20
226.5130260521044
 10
199.02605210420904
 20
226.68269873078972
 10
198.84095463654472
 20
227.02204408817283
 10
198.5897509304371
 20
227.5310621242538
 10
198.5170340681418
 20
227.6328657314625
 10
198.00801603205508
 20
227.87040748163693
 10
197.66867067466393
 20
227.5310621242538
 10
197.4989979959878
 20
227.27655310620707
 10
197.39719438877825
 20
227.02204408817283
 10
196.98997995992056
 20
226.68269873078972
 10
196.78637274548197
 20
226.5130260521044
 10
196.48096192385327
 20
226.1312625250531
 10
196.37915831664372
 20
226.00400801603598
 10
195.97194388776654
 20
225.49498997995502
 10
195.7537933008806
 20
224.9859719438866
 10
195.4629258516993
 20
224.69510449470823
 10
194.95390781563202
 20
224.47695390781817
 10
194.44488977956473
 20
223.9679358717372
 10
193.935871743478
 20
223.6285905143541
 10
193.79043801888736
 20
223.45891783566879
 10
193.63046092182987
 20
222.94989979960036
 10
193.42685370741077
 20
222.78022712091504
 10
192.91783567134348
 20
222.44088176353193
 10
192.6633266533196
 20
221.93186372745097
 10
192.4088176352762
 20
221.6264529058124
 10
192.2052104208376
 20
221.42284569138255
 10
191.89979959918946
 20
221.29559118236543
 10
191.39078156312223
 20
221.16833667334834
 10
190.88176352705494
 20
221.0312933559424
 10
190.3727454909877
 20
221.07044858948515
 10
189.86372745490092
 20
221.1487590565707
 10
189.3547094188337
 20
221.270140280557
 10
188.8456913827664
 20
221.2840225906309
 10
188.33667334669917
 20
221.2377482237179
 10
187.99732798930802
 20
221.42284569138255
 10
187.82765531061244
 20
221.56827941597174
 10
187.31863727454515
 20
221.7621910487657
 10
186.80961923847792
 20
221.93186372745097
 10
186.69650411936698
 20
222.44088176353193
 10
186.5833890002366
 20
222.94989979960036
 10
186.36422845692147
 20
223.45891783566879
 10
186.30060120241063
 20
223.6285905143541
 10
186.15516747782
 20
223.9679358717372
 10
186.30060120241063
 20
224.47695390781817
 10
186.39314993624282
 20
224.9859719438866
 10
186.55511022043453
 20
225.49498997995502
 10
186.80961923847792
 20
226.00400801603598
 10
187.06412825652126
 20
226.5130260521044
 10
187.3186372745257
 20
226.58574291440527
 10
187.82765531061244
 20
226.68269873080223
 10
188.33667334669917
 20
226.83116232465343
 10
188.6420841683473
 20
227.02204408817283
 10
188.8456913827664
 20
227.5310621242538
 10
188.947494989976
 20
228.04008016032222
 10
189.1002004007903
 20
228.54909819639067
 10
189.3547094188337
 20
229.0581162324591
 10
189.5728600057197
 20
229.56713426854003
 10
189.48196392785536
 20
230.07615230460848
 10
189.3547094188337
 20
230.4154976619916
 10
189.25290581162415
 20
230.5851703406769
 10
189.3547094188337
 20
230.83967935871112
 10
189.41833667334453
 20
231.09418837675784
 10
189.3547094188337
 20
231.6032064128263
 10
189.18503674013812
 20
232.11222444889472
 10
188.8456913827664
 20
232.62124248497565
 10
189.04929859718555
 20
233.1302605210441
 10
189.25290581162415
 20
233.63927855711253
 10
189.3547094188337
 20
233.80895123581035
 10
189.55831663327228
 20
234.14829659318096
 10
189.86372745490092
 20
234.65731462926192
 10
190.3727454909877
 20
235.03907815631322
 10
190.88176352705494
 20
235.16633266533034
 10
190.88176352705494
 20
235.67535070139877
 10
190.3727454909877
 20
236.18436873747973
 10
189.86372745490092
 20
236.35404141616502
 10
189.76192384769138
 20
236.69338677354816
 10
189.6940547762054
 20
237.20240480961658
 10
189.50741482964804
 20
237.71142284569754
 10
189.3547094188337
 20
238.09318637274885
 10
189.25290581162415
 20
238.22044088176597
 10
188.947494989976
 20
238.7294589178344
 10
188.9911251073571
 20
239.23847695390282
 10
189.1511022044146
 20
239.74749498998378
 10
189.3547094188337
 20
240.002004008018
 10
189.48196392785536
 20
240.2565130260522
 10
189.67284569136842
 20
240.76553106212063
 10
189.86372745490092
 20
241.1472945891845
 10
190.03340013359656
 20
241.2745490982016
 10
190.3727454909877
 20
241.61389445558473
 10
190.88176352705494
 20
241.78356713427002
 10
191.39078156312223
 20
242.14715144574927
 10
191.89979959918946
 20
242.29258517033844
 10
192.4088176352762
 20
242.41983967935556
 10
192.91783567134348
 20
242.29258517033844
 10
193.42685370741077
 20
242.29258517033844
 10
193.935871743478
 20
242.39438877755964
 10
194.44488977956473
 20
242.8016032064069
 10
193.935871743478
 20
243.31062124248783
 10
193.42685370741077
 20
243.48029392117314
 10
192.91783567134348
 20
243.48029392117314
 10
192.4088176352762
 20
243.81963927855628
 10
192.0694722778851
 20
244.3286573146247
 10
191.89979959918946
 20
244.49832999332253
 10
191.39078156312223
 20
244.71042084168855
 10
191.13627254509834
 20
244.83767535070564
 10
190.88176352705494
 20
245.00734802939095
 10
190.75450901803327
 20
244.83767535070564
 10
190.3727454909877
 20
244.4559118236418
 10
190.11823647294432
 20
244.3286573146247
 10
189.86372745490092
 20
244.1589846359394
 10
189.60921843687703
 20
243.81963927855628
 10
189.3547094188337
 20
243.56513026052204
 10
188.8456913827664
 20
243.48029392117314
 10
188.33667334669917
 20
243.48029392117314
 10
187.82765531061244
 20
243.64996659987096
 10
187.31863727454515
 20
243.6160320641264
 10
187.01322645289702
 20
243.31062124248783
 10
187.01322645289702
 20
242.8016032064069
 10
186.979291917154
 20
242.29258517033844
 10
186.80961923845842
 20
242.12291249165315
 10
186.4702738810867
 20
241.78356713427002
 10
186.30060120241063
 20
241.5290581162358
 10
185.7915831663239
 20
241.4018036072187
 10
185.5370741483
 20
241.2745490982016
 10
185.28256513025667
 20
241.17274549099292
 10
184.77354709418938
 20
240.76553106212063
 10
184.2645290581221
 20
240.51102204408642
 10
184.01002004007876
 20
240.2565130260522
 10
183.75551102203536
 20
239.74749498998378
 10
183.45010020038723
 20
239.23847695390282
 10
183.5646292585223
 20
238.7294589178344
 10
183.60280561122107
 20
238.22044088176597
 10
183.75551102203536
 20
237.71142284569754
 10
183.95911823647396
 20
237.20240480961658
 10
184.1918121958268
 20
236.69338677354816
 10
184.09485637942652
 20
236.18436873747973
 10
183.75551102203536
 20
235.77715430861997
 10
183.70460921843062
 20
235.67535070139877
 10
183.61668792129683
 20
235.16633266533034
 10
183.45010020038723
 20
234.65731462926192
 10
183.24649298596813
 20
234.40280561121517
 10
182.73747494990084
 20
234.23313293252988
 10
182.4829659318575
 20
234.14829659318096
 10
182.22845691383355
 20
234.09173903360667
 10
181.71943887774682
 20
233.79198396793808
 10
181.2104208416796
 20
233.75239367623607
 10
180.7014028056123
 20
233.70290581162735
 10
180.19238476954507
 20
233.85742914400257
 10
179.68336673345829
 20
233.85742914400257
 10
179.17434869739105
 20
233.76653306612963
 10
179.00467601869548
 20
233.63927855711253
 10
178.66533066132376
 20
233.1302605210441
 10
178.15631262525653
 20
232.62124248497565
 10
177.90180360721314
 20
232.11222444889472
 10
177.6472945891698
 20
231.8577154308605
 10
177.58366733465897
 20
231.6032064128263
 10
177.42106435092848
 20
231.09418837675784
 10
177.20190380761335
 20
230.5851703406769
 10
177.13827655310251
 20
230.50033400134052
 10
176.62925851703528
 20
230.07615230460848
 10
176.3747494990114
 20
229.56713426854003
 10
176.120240480968
 20
229.26172344688896
 10
175.78089512357684
 20
229.0581162324591
 10
175.61122244488126
 20
228.8036072144249
 10
175.4415497661857
 20
228.54909819639067
 10
175.10220440881403
 20
228.20975283900754
 10
174.84769539079014
 20
228.04008016032222
 10
174.59318637274674
 20
227.93827655311355
 10
174.0841683366795
 20
227.89464643573302
 10
173.57515030059278
 20
227.95524382097332
 10
173.49031396124496
 20
228.04008016032222
 10
173.0661322645255
 20
228.35821643285874
 10
172.76072144287735
 20
228.54909819639067
 10
172.5571142284582
 20
228.8036072144249
 10
172.38744154976263
 20
229.0581162324591
 10
172.5571142284582
 20
229.56713426854003
 10
172.5571142284582
 20
230.07615230460848
 10
172.04809619237147
 20
230.48336673346822
 10
171.53907815630424
 20
230.4579158316598
 10
171.03006012023695
 20
230.47205522155338
 10
170.52104208416966
 20
230.4397366160877
 10
170.01202404810243
 20
230.5851703406769
 10
169.5030060120157
 20
230.5851703406769
 10
168.99398797594841
 20
230.07615230460848
 10
168.48496993986168
 20
230.4154976619916
 10
168.23046092185723
 20
230.5851703406769
 10
167.9759519038139
 20
230.712424849694
 10
167.59418837674883
 20
231.09418837675784
 10
167.46693386772716
 20
231.34869739479208
 10
167.38209752837935
 20
231.6032064128263
 10
167.26332665328857
 20
232.11222444889472
 10
167.39421700543187
 20
232.6212424849882
 10
167.32150014313652
 20
233.1302605210441
 10
167.03063269395523
 20
233.63927855711253
 10
166.95791583165988
 20
233.80895123579782
 10
166.70340681363598
 20
234.14829659318096
 10
166.44889779557315
 20
234.4876419505766
 10
166.3470941883636
 20
234.65731462926192
 10
166.32164328657097
 20
235.16633266533034
 10
166.06713426854708
 20
235.67535070139877
 10
165.93987975952535
 20
235.8450233800966
 10
165.83807615229637
 20
236.18436873747973
 10
165.73627254508676
 20
236.69338677354816
 10
165.77020708082978
 20
237.20240480961658
 10
165.88332219997966
 20
237.71142284569754
 10
165.93987975952535
 20
237.88109552438283
 10
166.27922511689707
 20
238.22044088176597
 10
166.44889779559264
 20
238.3052772211149
 10
166.95791583165988
 20
238.7294589178344
 10
167.46693386772716
 20
239.02032636701279
 10
167.9759519038139
 20
239.15364061455392
 10
168.14562458250947
 20
239.23847695390282
 10
168.48496993988113
 20
239.36573146291994
 10
168.99398797594841
 20
239.38391067849201
 10
169.5030060120157
 20
239.23847695390282
 10
170.01202404810243
 20
239.06880427521753
 10
170.3513694054741
 20
239.23847695390282
 10
170.52104208415022
 20
239.40814963260064
 10
170.86038744154138
 20
239.74749498998378
 10
171.03006012023695
 20
239.8747494990009
 10
171.53907815630424
 20
240.15470941884354
 10
171.6408817635138
 20
240.2565130260522
 10
172.04809619239097
 20
240.51102204408642
 10
172.45531062122922
 20
240.76553106212063
 10
172.5571142284582
 20
240.86733466934183
 10
173.0661322645255
 20
240.96913827655052
 10
173.57515030059278
 20
241.02004008015487
 10
174.0841683366795
 20
241.2745490982016
 10
173.9569138276578
 20
241.78356713427002
 10
173.82965931863612
 20
242.29258517033844
 10
173.82965931863612
 20
242.8016032064069
 10
174.0841683366795
 20
243.31062124248783
 10
174.46593186374452
 20
243.81963927855628
 10
174.59318637274674
 20
244.0741482965905
 10
174.65681362725758
 20
244.3286573146247
 10
174.9749498998118
 20
244.83767535070564
 10
175.10220440881403
 20
245.09218436873988
 10
175.35671342683793
 20
245.3466933867741
 10
175.61122244488126
 20
245.6012024048083
 10
175.86573146292466
 20
245.85571142284252
 10
176.120240480968
 20
246.11022044088924
 10
176.24749498998972
 20
246.36472945892345
 10
176.62925851703528
 20
246.80103063269104
 10
176.73106212424483
 20
246.8737474949919
 10
177.13827655310251
 20
247.213092852375
 10
177.28371027769316
 20
247.38276553106033
 10
177.6472945891698
 20
247.74634984253956
 10
177.90180360721314
 20
247.89178356712875
 10
177.90180360721314
 20
248.40080160320971
 10
177.6472945891698
 20
248.5280561122268
 10
177.13827655310251
 20
248.78256513026102
 10
176.62925851703528
 20
248.90981963927814
 10
176.3747494990114
 20
248.40080160320971
 10
176.3747494990114
 20
247.89178356712875
 10
176.120240480968
 20
247.72211088844344
 10
175.61122244488126
 20
247.63727454909454
 10
175.10220440881403
 20
247.76452905811163
 10
174.84769539079014
 20
247.89178356712875
 10
174.59318637274674
 20
247.97661990647768
 10
174.0841683366795
 20
248.09539078155862
 10
173.57515030059278
 20
248.40080160320971
 10
173.1388491268208
 20
248.90981963927814
 10
173.0661322645255
 20
249.03707414829523
 10
172.5571142284582
 20
249.3170340681379
 10
172.04809619239097
 20
249.24916499666128
 10
171.8218659541302
 20
248.90981963927814
 10
171.74268537074278
 20
248.40080160320971
 10
171.59563571588887
 20
247.89178356711622
 10
171.53907815628475
 20
247.80694722777983
 10
171.03006012023695
 20
247.46760187040923
 10
170.86038744154138
 20
247.38276553106033
 10
170.52104208416966
 20
247.17915831663043
 10
170.3301603206566
 20
246.8737474949919
 10
170.01202404810243
 20
246.36472945892345
 10
169.5030060120157
 20
246.13849922066387
 10
168.99398797594841
 20
246.04659318637442
 10
168.48496993988113
 20
246.36472945892345
 10
167.9759519038139
 20
246.4156312625278
 10
167.46693386772716
 20
246.56833667335334
 10
167.18928766623065
 20
246.8737474949919
 10
167.1841460699207
 20
247.38276553106033
 10
167.2407036294664
 20
247.89178356712875
 10
167.2760521041946
 20
248.40080160320971
 10
167.24878328084117
 20
248.90981963927814
 10
167.46693386772716
 20
249.41883767534657
 10
167.7214428857705
 20
249.92785571142753
 10
167.7214428857705
 20
250.43687374749595
 10
167.46693386772716
 20
250.94589178356438
 10
167.3396793587055
 20
251.45490981964534
 10
166.95791583165988
 20
251.96392785571376
 10
166.44889779559264
 20
252.4729458917822
 10
165.93987975952535
 20
252.6426185704675
 10
165.53266533064817
 20
252.98196392785061
 10
165.43086172343862
 20
253.49098196393157
 10
165.09151636604747
 20
254.0
 10
165.43086172343862
 20
254.0
 10
165.93987975952535
 20
254.0
 10
166.44889779559264
 20
254.0
 10
166.95791583165988
 20
254.0
 10
167.46693386772716
 20
254.0
 10
167.9759519038139
 20
254.0
 10
168.48496993988113
 20
254.0
 10
168.99398797594841
 20
254.0
 10
169.5030060120157
 20
254.0
 10
170.01202404810243
 20
254.0
 10
170.52104208416966
 20
254.0
 10
171.03006012023695
 20
254.0
 10
171.53907815630424
 20
254.0
 10
172.04809619239097
 20
254.0
 10
172.5571142284582
 20
254.0
 10
173.0661322645255
 20
254.0
 10
173.57515030059278
 20
254.0
 10
174.0841683366795
 20
254.0
 10
174.59318637274674
 20
254.0
 10
175.10220440881403
 20
254.0
 10
175.61122244488126
 20
254.0
 10
176.120240480968
 20
254.0
 10
176.62925851703528
 20
254.0
 10
177.13827655310251
 20
254.0
 10
177.6472945891698
 20
254.0
 10
178.15631262525653
 20
254.0
 10
178.66533066132376
 20
254.0
 10
179.17434869739105
 20
254.0
 10
179.68336673345829
 20
254.0
 10
180.19238476954507
 20
254.0
 10
180.7014028056123
 20
254.0
 10
181.2104208416796
 20
254.0
 10
181.71943887774682
 20
254.0
 10
182.22845691383355
 20
254.0
 10
182.73747494990084
 20
254.0
 10
183.24649298596813
 20
254.0
 10
183.75551102203536
 20
254.0
 10
184.2645290581221
 20
254.0
 10
184.77354709418938
 20
254.0
 10
185.28256513025667
 20
254.0
 10
185.7915831663239
 20
254.0
 10
186.30060120241063
 20
254.0
 10
186.80961923847792
 20
254.0
 10
187.31863727454515
 20
254.0
 10
187.82765531061244
 20
254.0
 10
188.33667334669917
 20
254.0
 10
188.8456913827664
 20
254.0
 10
189.3547094188337
 20
254.0
 10
189.86372745490092
 20
254.0
 10
190.3727454909877
 20
254.0
 10
190.88176352705494
 20
254.0
 10
191.39078156312223
 20
254.0
 10
191.89979959918946
 20
254.0
 10
192.4088176352762
 20
254.0
 10
192.91783567134348
 20
254.0
 10
193.42685370741077
 20
254.0
 10
193.935871743478
 20
254.0
 10
194.44488977956473
 20
254.0
 10
194.95390781563202
 20
254.0
 10
195.4629258516993
 20
254.0
 10
195.97194388776654
 20
254.0
 10
196.48096192385327
 20
254.0
 10
196.98997995992056
 20
254.0
 10
197.4989979959878
 20
254.0
 10
198.00801603205508
 20
254.0
 10
198.5170340681418
 20
254.0
 10
199.02605210420904
 20
254.0
 10
199.53507014027633
 20
254.0
 10
200.04408817634356
 20
254.0
 10
200.55310621243035
 20
254.0
 10
201.06212424849758
 20
254.0
 10
201.57114228456487
 20
254.0
 10
202.0801603206321
 20
254.0
 10
202.58917835671883
 20
254.0
 10
203.09819639278612
 20
254.0
 10
203.6072144288534
 20
254.0
 10
204.11623246492064
 20
254.0
 10
204.62525050100737
 20
254.0
 10
205.13426853707466
 20
254.0
 10
205.64328657314195
 20
254.0
 10
206.15230460920918
 20
254.0
 10
206.6613226452959
 20
254.0
 10
207.1703406813632
 20
254.0
 10
207.67935871743043
 20
254.0
 10
208.18837675349772
 20
254.0
 10
208.69739478958445
 20
254.0
 10
209.20641282565168
 20
254.0
 10
209.71543086171897
 20
254.0
 10
210.2244488977862
 20
254.0
 10
210.733466933873
 20
254.0
 10
211.24248496994022
 20
254.0
 10
211.7515030060075
 20
254.0
 10
212.26052104207474
 20
254.0
 10
212.76953907816147
 20
254.0
 10
213.27855711422876
 20
254.0
 10
213.787575150296
 20
254.0
 10
214.29659318636328
 20
254.0
 10
214.80561122245
 20
254.0
 10
215.3146292585173
 20
254.0
 10
215.82364729458453
 20
254.0
 10
216.33266533065182
 20
254.0
 10
216.739879759529
 20
254.0
 10
216.78512580717336
 20
253.49098196393157
 10
216.7689665044432
 20
252.98196392785061
 10
216.41750166998014
 20
252.4729458917822
 10
216.33266533065182
 20
252.3032732130969
 10
215.82364729458453
 20
252.09118236473088
 10
215.78122912491062
 20
251.96392785571376
 10
215.72184368737499
 20
251.45490981964534
 10
215.69639278556286
 20
250.94589178356438
 10
215.82364729458453
 20
250.43687374749595
 10
215.65397461588896
 20
249.92785571142753
 10
215.3146292585173
 20
249.41883767534657
 10
214.80561122245
 20
248.90981963927814
 10
215.3146292585173
 20
248.40080160320971
 10
215.0601202404739
 20
247.89178356712875
 10
214.80561122245
 20
247.72211088844344
 10
214.46626586505886
 20
247.38276553106033
 10
214.29659318636328
 20
247.29792919172394
 10
213.8724114896438
 20
246.8737474950044
 10
213.787575150296
 20
246.74649298597478
 10
213.27855711422876
 20
246.6192384769577
 10
212.76953907816147
 20
246.36472945892345
 10
213.02404809620487
 20
245.85571142284252
 10
212.89679358718314
 20
245.3466933867741
 10
212.76953907816147
 20
245.17702070808878
 10
212.5998663994659
 20
244.83767535070564
 10
212.26052104207474
 20
244.3286573146247
 10
212.26052104207474
 20
243.81963927855628
 10
211.9211756846836
 20
243.31062124248783
 10
211.7515030060075
 20
242.8016032064069
 10
212.09084836337917
 20
242.29258517033844
 10
211.7515030060075
 20
241.95323981295533
 10
211.24248496994022
 20
241.9871743486999
 10
210.98797595189683
 20
241.78356713427002
 10
210.86072144289466
 20
241.2745490982016
 10
210.733466933873
 20
241.10487641950377
 10
210.4789579158296
 20
241.2745490982016
 10
210.2244488977862
 20
241.5290581162358
 10
209.71543086171897
 20
241.5290581162358
 10
209.46092184367558
 20
241.2745490982016
 10
209.20641282565168
 20
240.76553106212063
 10
209.71543086171897
 20
240.76553106212063
 10
210.2244488977862
 20
240.2565130260522
 10
210.2244488977862
 20
239.74749498998378
 10
209.71543086171897
 20
239.23847695390282
 10
209.5245490981864
 20
238.7294589178344
 10
209.71543086171897
 20
238.47494989980018
 10
210.0208416833671
 20
238.22044088176597
 10
210.2244488977862
 20
237.88109552438283
 10
210.39412157648178
 20
237.71142284569754
 10
210.2244488977862
 20
237.4569138276508
 10
210.16082164327537
 20
237.20240480961658
 10
210.2244488977862
 20
236.94789579158237
 10
210.733466933873
 20
236.69338677354816
 10
211.24248496992072
 20
236.86305945223347
 10
211.7515030060075
 20
237.20240480961658
 10
212.26052104207474
 20
237.20240480961658
 10
212.76953907816147
 20
237.20240480961658
 10
213.27855711422876
 20
236.69338677354816
 10
213.787575150296
 20
236.52371409486284
 10
214.29659318636328
 20
236.69338677354816
 10
214.80561122245
 20
236.56613226453103
 10
215.3146292585173
 20
236.52371409486284
 10
215.56913827656064
 20
236.18436873747973
 10
215.82364729458453
 20
235.67535070139877
 10
215.99331997326067
 20
235.16633266533034
 10
216.07815631260848
 20
234.65731462926192
 10
216.33266533065182
 20
234.40280561121517
 10
216.84168336673855
 20
234.14829659318096
 10
217.09619238478194
 20
233.63927855711253
 10
217.35070140280584
 20
233.5120240480954
 10
217.85971943887307
 20
233.43567134268264
 10
218.36873747494036
 20
233.1302605210441
 10
218.8777555110271
 20
233.1302605210441
 10
218.36873747494036
 20
233.63927855711253
 10
218.8777555110271
 20
234.14829659318096
 10
219.38677354709432
 20
234.35190380761082
 10
219.60492413398032
 20
234.65731462926192
 10
219.8957915831616
 20
235.06452905812165
 10
219.99759519037116
 20
235.16633266533034
 10
220.40480961922884
 20
235.50567802271348
 10
220.91382765531563
 20
235.56223558227524
 10
221.42284569138286
 20
235.67535070139877
 10
221.93186372745015
 20
235.67535070139877
 10
222.44088176351738
 20
235.6026338390979
 10
222.69539078156077
 20
235.67535070139877
 10
222.9498997996041
 20
235.8026052104159
 10
223.4589178356714
 20
236.0571142284626
 10
223.96793587173863
 20
236.18436873747973
 10
224.47695390780592
 20
236.18436873747973
 10
224.98597194389265
 20
236.25708559976806
 10
225.49498997995994
 20
236.3879759519096
 10
225.8343353373316
 20
236.18436873747973
 10
226.00400801602717
 20
236.11165187517886
 10
226.51302605209446
 20
236.08256513025853
 10
227.0220440881812
 20
236.08256513025853
 10
227.53106212424848
 20
236.0995323981308
 10
228.0400801603157
 20
236.0146960587819
 10
228.549098196383
 20
236.0146960587819
 10
229.05811623246973
 20
236.0571142284626
 10
229.56713426853696
 20
235.96621815058967
 10
230.07615230460425
 20
236.0995323981308
 10
230.3306613226476
 20
236.18436873747973
 10
230.58517034067148
 20
236.26920507682863
 10
230.75484301936706
 20
236.18436873747973
 10
231.09418837675827
 20
236.03893501289053
 10
231.6032064128255
 20
235.7601870407477
 10
231.70501002003505
 20
235.67535070139877
 10
232.1122244488928
 20
235.16633266533034
 10
232.62124248496002
 20
234.99665998664503
 10
233.13026052104675
 20
235.02089894074115
 10
233.55444221776622
 20
234.65731462926192
 10
233.63927855711404
 20
234.14829659318096
 10
234.14829659318127
 20
233.78471228170173
 10
234.48764195055298
 20
233.63927855711253
 10
234.4537074148294
 20
233.1302605210441
 10
234.3179692718574
 20
232.62124248497565
 10
234.14829659318127
 20
232.36673346694144
 10
233.89378757513794
 20
232.11222444889472
 10
233.63927855711404
 20
231.6032064128263
 10
233.38476953909014
 20
232.11222444889472
 10
233.13026052104675
 20
232.28189712759254
 10
232.62124248496002
 20
232.17585170340953
 10
232.45156980626444
 20
232.11222444889472
 10
232.1122244488928
 20
231.90861723446483
 10
231.6032064128255
 20
231.8577154308605
 10
231.09418837675827
 20
231.6032064128263
 10
230.58517034067148
 20
231.77287909151158
 10
230.3815631262329
 20
232.11222444889472
 10
230.07615230460425
 20
232.49398797595856
 10
229.56713426853696
 20
232.3158316633246
 10
229.05811623246973
 20
232.19706078824362
 10
228.549098196383
 20
232.3158316633246
 10
228.0400801603157
 20
232.36673346694144
 10
227.53106212424848
 20
232.21402805611592
 10
227.0220440881812
 20
232.11222444889472
 10
226.68269873079004
 20
231.6032064128263
 10
226.51302605209446
 20
231.34869739479208
 10
226.34335337339888
 20
231.09418837675784
 10
226.00400801602717
 20
230.75484301937473
 10
225.74949899798384
 20
230.5851703406769
 10
225.49498997995994
 20
230.4579158316598
 10
224.98597194389265
 20
230.07615230460848
 10
224.73146292584926
 20
229.56713426854003
 10
224.47695390780592
 20
229.0581162324591
 10
224.6466265865015
 20
228.54909819639067
 10
224.47695390780592
 20
228.04008016032222
 10
224.434535738132
 20
227.5310621242538
 10
224.24202250654258
 20
227.02204408817283
 10
224.10675897249666
 20
226.5130260521044
 10
223.96793587173863
 20
226.00400801603598
 10
223.4589178356714
 20
225.49498997995502
 10
222.9498997996041
 20
224.9859719438866
 10
222.56813627253905
 20
224.47695390781817
 10
222.44088176351738
 20
224.34969939880105
 10
221.93186372745015
 20
224.13760855043503
 10
221.76219104875457
 20
223.9679358717372
 10
221.42284569138286
 20
223.6285905143541
 10
221.25317301268728
 20
223.45891783566879
 10
220.91382765531563
 20
223.11957247828568
 10
220.74415497662005
 20
222.94989979960036
 10
220.91382765531563
 20
222.44088176353193
 10
220.65931863727224
 20
221.93186372745097
 10
220.40480961922884
 20
221.42284569138255
 10
219.8957915831616
 20
220.91382765531412
 10
219.61814538168454
 20
220.40480961923316
 10
219.52559664785235
 20
219.89579158316474
 10
219.38677354709432
 20
219.3867735470963
 10
219.38677354709432
 20
218.87775551102789
 10
219.10398574928786
 20
218.36873747494693
 10
218.8777555110271
 20
217.96152304608717
 10
218.79291917167927
 20
217.8597194388785
 10
218.36873747494036
 20
217.35070140281005
 10
217.9445557782209
 20
216.84168336672911
 10
217.85971943887307
 20
216.73987975952042
 10
217.35070140280584
 20
216.47809905524986
 10
217.01135604541463
 20
216.3326653306607
 10
216.84168336673855
 20
216.28176352705634
 10
216.76896650442376
 20
216.3326653306607
 10
216.33266533065182
 20
216.84168336672911
 10
215.82364729458453
 20
217.03256513026102
 10
215.3146292585173
 20
217.35070140281005
 10
214.80561122245
 20
217.8597194388785
 10
214.63593854375443
 20
218.36873747494693
 10
214.29659318636328
 20
218.87775551102789
  0
LWPOLYLINE
  5
48
330
17
100
AcDbEntity
  8
relief
100
AcDbPolyline
 90
148
 70
1
 10
109.13346693386573
 20
241.2745490982016
 10
108.92985971944661
 20
241.78356713427002
 10
108.67535070140325
 20
242.29258517033844
 10
108.54809619238155
 20
242.8016032064069
 10
108.42084168335988
 20
242.8864395457558
 10
108.25116900466429
 20
242.8016032064069
 10
107.91182364729261
 20
242.46225784902376
 10
107.40280561122535
 20
242.29258517033844
 10
106.89378757515809
 20
242.2198683080501
 10
106.38476953907136
 20
242.08897795590858
 10
105.87575150300408
 20
242.12291249165315
 10
105.36673346693682
 20
242.29258517033844
 10
105.11222444889344
 20
242.8016032064069
 10
104.85771543086956
 20
243.0561122244536
 10
104.34869739478282
 20
243.18336673347073
 10
103.83967935871554
 20
243.0561122244536
 10
103.63607214429643
 20
243.31062124248783
 10
103.33066132264828
 20
243.6160320641264
 10
103.1609886439527
 20
243.81963927855628
 10
103.11251073578178
 20
244.3286573146247
 10
102.82164328658102
 20
244.83767535070564
 10
102.75801603208964
 20
245.3466933867741
 10
102.82164328658102
 20
245.85571142284252
 10
103.07615230462439
 20
246.36472945892345
 10
102.82164328658102
 20
246.6192384769577
 10
102.61803607214243
 20
246.8737474949919
 10
102.31262525049429
 20
247.09189808188194
 10
102.1090180360557
 20
247.38276553106033
 10
101.86723446893787
 20
247.89178356712875
 10
101.80360721442703
 20
248.01903807614588
 10
101.54909819640312
 20
248.40080160320971
 10
101.29458917835976
 20
248.90981963927814
 10
100.7855711422925
 20
249.24916499666128
 10
100.44622578490134
 20
248.90981963927814
 10
100.27655310620577
 20
248.78256513026102
 10
99.7675350701385
 20
248.40080160320971
 10
99.25851703405178
 20
248.2311289245119
 10
98.74949899800397
 20
248.2735470941926
 10
98.24048096191724
 20
247.89178356712875
 10
98.07080828322165
 20
247.38276553106033
 10
98.24048096191724
 20
246.8737474949919
 10
97.90113560452609
 20
246.36472945892345
 10
97.73146292584998
 20
246.23747494990636
 10
97.22244488976324
 20
246.19505678023816
 10
96.71342685371545
 20
246.27989311957455
 10
96.61162324648642
 20
246.36472945892345
 10
96.2044088176287
 20
246.59095969718305
 10
95.69539078156144
 20
246.71712656082084
 10
95.18637274549418
 20
246.8737474949919
 10
94.90872654399763
 20
247.38276553106033
 10
94.73391226899211
 20
247.89178356712875
 10
94.67735470942692
 20
248.01903807614588
 10
94.37194388777877
 20
248.40080160320971
 10
94.16833667334018
 20
248.60440881763958
 10
93.65931863727292
 20
248.90981963927814
 10
93.60276107770773
 20
249.41883767534657
 10
93.65931863727292
 20
249.92785571142753
 10
94.16833667334018
 20
250.30961923847883
 10
94.42284569138354
 20
250.43687374749595
 10
94.67735470942692
 20
250.69138276553016
 10
94.8470273881225
 20
250.94589178356438
 10
94.98276553107506
 20
251.45490981964534
 10
95.0591182364725
 20
251.96392785571376
 10
95.04093902090354
 20
252.4729458917822
 10
95.07325762638325
 20
252.98196392785061
 10
95.18637274549418
 20
253.32130928523375
 10
95.31362725451586
 20
253.49098196393157
 10
95.69539078156144
 20
253.68186372745097
 10
96.2044088176287
 20
253.79639278557013
 10
96.71342685371545
 20
253.8303273213147
 10
97.22244488978271
 20
254.0
 10
97.73146292584998
 20
254.0
 10
98.24048096191724
 20
254.0
 10
98.74949899800397
 20
254.0
 10
99.25851703407123
 20
254.0
 10
99.7675350701385
 20
254.0
 10
100.27655310620577
 20
254.0
 10
100.7855711422925
 20
254.0
 10
101.29458917835976
 20
254.0
 10
101.80360721442703
 20
254.0
 10
102.31262525049429
 20
254.0
 10
102.82164328658102
 20
254.0
 10
103.33066132264828
 20
254.0
 10
103.83967935871554
 20
254.0
 10
104.34869739478282
 20
254.0
 10
104.85771543086956
 20
254.0
 10
105.36673346693682
 20
254.0
 10
105.87575150300408
 20
254.0
 10
106.38476953907136
 20
254.0
 10
106.89378757515809
 20
254.0
 10
107.40280561122535
 20
254.0
 10
107.91182364729261
 20
253.49098196393157
 10
107.91182364729261
 20
252.98196392785061
 10
107.65731462924924
 20
252.4729458917822
 10
107.65731462924924
 20
251.96392785571376
 10
107.91182364729261
 20
251.7603206412839
 10
108.21723446894076
 20
251.45490981964534
 10
108.42084168335988
 20
251.32765531062822
 10
108.76018704075103
 20
251.45490981964534
 10
108.92985971944661
 20
251.5058116232622
 10
109.43887775551387
 20
251.64579158317724
 10
109.94789579158113
 20
251.7603206412839
 10
110.4569138276484
 20
251.96392785571376
 10
110.96593186373514
 20
252.3032732130969
 10
111.2204408817785
 20
252.4729458917822
 10
111.4749498998024
 20
252.5747494990034
 10
111.60220440880461
 20
252.4729458917822
 10
111.98396793586966
 20
252.16753507014363
 10
112.12940166046032
 20
251.96392785571376
 10
112.32331329324136
 20
251.45490981964534
 10
112.49298597193693
 20
251.1155644622622
 10
112.5438877755417
 20
250.94589178356438
 10
112.53926033884329
 20
250.43687374749595
 10
112.59478957914648
 20
249.92785571142753
 10
112.67808343960128
 20
249.41883767534657
 10
112.67808343960128
 20
248.90981963927814
 10
112.67808343960128
 20
248.40080160320971
 10
112.55661322644777
 20
247.89178356712875
 10
112.49298597193693
 20
247.38276553106033
 10
112.49298597193693
 20
246.8737474949919
 10
112.08577154307922
 20
246.36472945892345
 10
111.98396793586966
 20
246.19505678023816
 10
111.78036072145053
 20
245.85571142284252
 10
111.8142952571741
 20
245.3466933867741
 10
111.98396793586966
 20
245.26185704742517
 10
112.49298597193693
 20
245.06390558896524
 10
112.83233132932808
 20
244.83767535070564
 10
113.00200400802366
 20
244.66800267200782
 10
113.51102204409092
 20
244.3286573146247
 10
114.02004008015818
 20
243.98931195724157
 10
114.07659763972337
 20
243.81963927855628
 10
114.08366733466903
 20
243.31062124248783
 10
114.08366733466903
 20
242.8016032064069
 10
114.07094188376296
 20
242.29258517033844
 10
114.02004008015818
 20
242.16533066132135
 10
113.71462925851004
 20
241.78356713427002
 10
113.51102204409092
 20
241.2745490982016
 10
113.00200400802366
 20
240.76553106212063
 10
113.00200400802366
 20
240.2565130260522
 10
112.49298597193693
 20
239.8323313293327
 10
111.98396793586966
 20
239.89292871457297
 10
111.4749498998024
 20
240.1716766867158
 10
111.34769539078071
 20
240.2565130260522
 10
110.96593186373514
 20
240.47466361294227
 10
110.4569138276484
 20
240.51102204408642
 10
109.94789579158113
 20
240.76553106212063
 10
109.43887775551387
 20
241.02004008015487
 10
109.13346693386573
 20
241.2745490982016
  0
LWPOLYLINE
  5
49
330
17
100
AcDbEntity
  8
relief
100
AcDbPolyline
 90
70
 70
1
 10
151.6873747495057
 20
251.0731462925815
 10
151.17835671341896
 20
251.45490981964534
 10
150.66933867735167
 20
251.58216432866243
 10
150.16032064128444
 20
251.96392785571376
 10
149.65130260521715
 20
252.4729458917822
 10
149.34589178356902
 20
252.98196392785061
 10
149.14228456913042
 20
253.3213092852463
 10
149.1083500334069
 20
253.49098196393157
 10
149.02481886850853
 20
254.0
 10
149.14228456913042
 20
254.0
 10
149.65130260521715
 20
254.0
 10
150.16032064128444
 20
254.0
 10
150.66933867735167
 20
254.0
 10
151.17835671341896
 20
254.0
 10
151.6873747495057
 20
254.0
 10
152.19639278557298
 20
254.0
 10
152.7054108216402
 20
254.0
 10
153.2144288577075
 20
254.0
 10
153.72344689379423
 20
254.0
 10
154.23246492986146
 20
254.0
 10
154.74148296592875
 20
254.0
 10
155.25050100199599
 20
254.0
 10
155.75951903808271
 20
254.0
 10
156.26853707415
 20
254.0
 10
156.77755511021724
 20
254.0
 10
157.28657314628452
 20
254.0
 10
157.79559118237125
 20
254.0
 10
158.3046092184385
 20
254.0
 10
158.81362725450577
 20
254.0
 10
159.32264529057306
 20
254.0
 10
159.8316633266598
 20
254.0
 10
160.34068136272703
 20
254.0
 10
160.84969939879431
 20
254.0
 10
161.3587174348616
 20
254.0
 10
161.86773547094833
 20
254.0
 10
162.37675350701556
 20
254.0
 10
162.83486973947805
 20
254.0
 10
162.69488977955035
 20
253.49098196393157
 10
162.47855711422517
 20
252.98196392785061
 10
162.37675350701556
 20
252.4729458917822
 10
162.0374081496244
 20
251.96392785571376
 10
161.86773547094833
 20
251.90030060121148
 10
161.3587174348616
 20
251.6811400578924
 10
161.01937207747045
 20
251.45490981964534
 10
160.84969939879431
 20
251.32765531062822
 10
160.34068136272703
 20
251.30947609505614
 10
159.8316633266403
 20
251.35310621243664
 10
159.70440881763807
 20
251.45490981964534
 10
159.32264529057306
 20
251.7603206412839
 10
158.81362725450577
 20
251.79425517702845
 10
158.3046092184385
 20
251.83667334669664
 10
157.79559118237125
 20
251.45490981964534
 10
157.6683366733496
 20
250.94589178356438
 10
157.28657314628452
 20
250.64048096192582
 10
156.77755511021724
 20
250.56412825651307
 10
156.65030060119557
 20
250.43687374749595
 10
156.26853707415
 20
250.05511022044462
 10
155.75951903808271
 20
250.00057257372836
 10
155.25050100199599
 20
249.92785571142753
 10
154.74148296592875
 20
249.41883767534657
 10
154.23246492986146
 20
249.16432865731235
 10
153.72344689379423
 20
248.90981963927814
 10
153.2144288577075
 20
248.82498329994175
 10
153.08717434870528
 20
248.90981963927814
 10
152.7054108216402
 20
249.41883767534657
 10
152.45090180359688
 20
249.92785571142753
 10
152.19639278557298
 20
250.18236472946174
 10
152.05095906098228
 20
250.43687374749595
 10
151.760091611801
 20
250.94589178356438
 10
151.6873747495057
 20
251.0731462925815
  0
ENDSEC
  0
SECTION
  2
OBJECTS
  0
DICTIONARY
  5
A
330
0
100
AcDbDictionary
281
1
  3
ACAD_COLOR
350
B
  3
ACAD_GROUP
350
C
  3
ACAD_LAYOUT
350
D
  3
ACAD_MATERIAL
350
E
  3
ACAD_MLEADERSTYLE
350
F
  3
ACAD_MLINESTYLE
350
10
  3
ACAD_PLOTSETTINGS
350
11
  3
ACAD_PLOTSTYLENAME
350
12
  3
ACAD_SCALELIST
350
14
  3
ACAD_TABLESTYLE
350
15
  3
ACAD_VISUALSTYLE
350
16
  3
EZDXF_META
350
2D
  0
DICTIONARY
  5
B
330
A
100
AcDbDictionary
281
1
  0
DICTIONARY
  5
C
330
A
100
AcDbDictionary
281
1
  0
DICTIONARY
  5
D
330
A
100
AcDbDictionary
281
1
  3
Model
350
1A
  3
Layout1
350
1E
  0
DICTIONARY
  5
E
330
A
100
AcDbDictionary
281
1
  3
ByBlock
350
1F
  3
ByLayer
350
20
  3
Global
350
21
  0
DICTIONARY
  5
F
330
A
100
AcDbDictionary
281
1
  3
Standard
350
2C
  0
DICTIONARY
  5
10
330
A
100
AcDbDictionary
281
1
  3
Standard
350
22
  0
DICTIONARY
  5
11
330
A
100
AcDbDictionary
281
1
  0
ACDBDICTIONARYWDFLT
  5
12
330
A
100
AcDbDictionary
281
1
  3
Normal
350
13
100
AcDbDictionaryWithDefault
340
13
  0
ACDBPLACEHOLDER
  5
13
330
12
  0
DICTIONARY
  5
14
330
A
100
AcDbDictionary
281
1
  0
DICTIONARY
  5
15
330
A
100
AcDbDictionary
281
1
  0
DICTIONARY
  5
16
330
A
100
AcDbDictionary
281
1
  0
LAYOUT
  5
1A
330
D
100
AcDbPlotSettings
  1

  4
A3
  6

 40
7.5
 41
20.0
 42
7.5
 43
20.0
 44
420.0
 45
297.0
 46
0.0
 47
0.0
 48
0.0
 49
0.0
140
0.0
141
0.0
142
1.0
143
1.0
 70
1024
 72
1
 73
0
 74
5
  7

 75
16
 76
0
 77
2
 78
300
147
1.0
148
0.0
149
0.0
100
AcDbLayout
  1
Model
 70
1
 71
0
 10
0.0
 20
0.0
 11
420.0
 21
297.0
 12
0.0
 22
0.0
 32
0.0
 14
1e+20
 24
1e+20
 34
1e+20
 15
-1e+20
 25
-1e+20
 35
-1e+20
146
0.0
 13
0.0
 23
0.0
 33
0.0
 16
1.0
 26
0.0
 36
0.0
 17
0.0
 27
1.0
 37
0.0
 76
1
330
17
  0
LAYOUT
  5
1E
330
D
100
AcDbPlotSettings
  1

  4
A3
  6

 40
7.5
 41
20.0
 42
7.5
 43
20.0
 44
420.0
 45
297.0
 46
0.0
 47
0.0
 48
0.0
 49
0.0
140
0.0
141
0.0
142
1.0
143
1.0
 70
0
 72
1
 73
0
 74
5
  7

 75
16
 76
0
 77
2
 78
300
147
1.0
148
0.0
149
0.0
100
AcDbLayout
  1
Layout1
 70
1
 71
1
 10
0.0
 20
0.0
 11
420.0
 21
297.0
 12
0.0
 22
0.0
 32
0.0
 14
1e+20
 24
1e+20
 34
1e+20
 15
-1e+20
 25
-1e+20
 35
-1e+20
146
0.0
 13
0.0
 23
0.0
 33
0.0
 16
1.0
 26
0.0
 36
0.0
 17
0.0
 27
1.0
 37
0.0
 76
1
330
1B
  0
MATERIAL
  5
1F
102
{ACAD_REACTORS
330
E
102
}
330
E
100
AcDbMaterial
  1
ByBlock
  2

 70
0
 40
1.0
 71
1
 41
1.0
 91
-1023410177
 42
1.0
 72
1
  3

 73
1
 74
1
 75
1
 44
0.5
 73
0
 45
1.0
 46
1.0
 77
1
  4

 78
1
 79
1
170
1
 48
1.0
171
1
  6

172
1
173
1
174
1
140
1.0
141
1.0
175
1
  7

176
1
177
1
178
1
143
1.0
179
1
  8

270
1
271
1
272
1
145
1.0
146
1.0
273
1
  9

274
1
275
1
276
1
 42
1.0
 72
1
  3

 73
1
 74
1
 75
1
 94
63
  0
MATERIAL
  5
20
102
{ACAD_REACTORS
330
E
102
}
330
E
100
AcDbMaterial
  1
ByLayer
  2

 70
0
 40
1.0
 71
1
 41
1.0
 91
-1023410177
 42
1.0
 72
1
  3

 73
1
 74
1
 75
1
 44
0.5
 73
0
 45
1.0
 46
1.0
 77
1
  4

 78
1
 79
1
170
1
 48
1.0
171
1
  6

172
1
173
1
174
1
140
1.0
141
1.0
175
1
  7

176
1
177
1
178
1
143
1.0
179
1
  8

270
1
271
1
272
1
145
1.0
146
1.0
273
1
  9

274
1
275
1
276
1
 42
1.0
 72
1
  3

 73
1
 74
1
 75
1
 94
63
  0
MATERIAL
  5
21
102
{ACAD_REACTORS
330
E
102
}
330
E
100
AcDbMaterial
  1
Global
  2

 70
0
 40
1.0
 71
1
 41
1.0
 91
-1023410177
 42
1.0
 72
1
  3

 73
1
 74
1
 75
1
 44
0.5
 73
0
 45
1.0
 46
1.0
 77
1
  4

 78
1
 79
1
170
1
 48
1.0
171
1
  6

172
1
173
1
174
1
140
1.0
141
1.0
175
1
  7

176
1
177
1
178
1
143
1.0
179
1
  8

270
1
271
1
272
1
145
1.0
146
1.0
273
1
  9

274
1
275
1
276
1
 42
1.0
 72
1
  3

 73
1
 74
1
 75
1
 94
63
  0
MLINESTYLE
  5
22
102
{ACAD_REACTORS
330
10
102
}
330
10
100
AcDbMlineStyle
  2
Standard
 70
0
  3

 62
256
 51
90.0
 52
90.0
 71
2
 49
0.5
 62
256
  6
BYLAYER
 49
-0.5
 62
256
  6
BYLAYER
  0
MLEADERSTYLE
  5
2C
102
{ACAD_REACTORS
330
F
102
}
330
F
100
AcDbMLeaderStyle
179
2
170
2
171
1
172
0
 90
2
 40
0.0
 41
0.0
173
1
 91
-1056964608
 92
-2
290
1
 42
2.0
291
1
 43
8.0
  3
Standard
 44
4.0
300

342
29
174
1
175
1
176
0
178
1
 93
-1056964608
 45
4.0
292
0
297
0
 46
4.0
 94
-1056964608
 47
1.0
 49
1.0
140
1.0
294
1
141
0.0
177
0
142
1.0
295
0
296
0
143
3.75
271
0
272
9
273
9
  0
DICTIONARY
  5
2D
330
A
100
AcDbDictionary
280
1
281
1
  3
CREATED_BY_EZDXF
350
2E
  3
WRITTEN_BY_EZDXF
350
4C
  0
DICTIONARYVAR
  5
2E
330
2D
100
DictionaryVariables
280
0
  1
1.4.3 @ 2026-04-02T16:42:43.511039+00:00
  0
DICTIONARYVAR
  5
4C
330
2D
100
DictionaryVariables
280
0
  1
1.4.3 @ 2026-04-02T16:42:43.516120+00:00
  0
ENDSEC
  0
EOF
