  0
SECTION
  2
HEADER
  9
$ACADVER
  1
AC1024
  9
$ACADMAINTVER
 70
6
  9
$DWGCODEPAGE
  3
ANSI_1252
  9
$LASTSAVEDBY
  1
ezdxf
  9
$INSBASE
 10
0.0
 20
0.0
 30
0.0
  9
$EXTMIN
 10
1e+20
 20
1e+20
 30
1e+20
  9
$EXTMAX
 10
-1e+20
 20
-1e+20
 30
-1e+20
  9
$LIMMIN
 10
0.0
 20
0.0
  9
$LIMMAX
 10
420.0
 20
297.0
  9
$ORTHOMODE
 70
0
  9
$REGENMODE
 70
1
  9
$FILLMODE
 70
1
  9
$QTEXTMODE
 70
0
  9
$MIRRTEXT
 70
1
  9
$LTSCALE
 40
1.0
  9
$ATTMODE
 70
1
  9
$TEXTSIZE
 40
2.5
  9
$TRACEWID
 40
1.0
  9
$TEXTSTYLE
  7
Standard
  9
$CLAYER
  8
0
  9
$CELTYPE
  6
ByLayer
  9
$CECOLOR
 62
256
  9
$CELTSCALE
 40
1.0
  9
$DISPSILH
 70
0
  9
$DIMSCALE
 40
1.0
  9
$DIMASZ
 40
2.5
  9
$DIMEXO
 40
0.625
  9
$DIMDLI
 40
3.75
  9
$DIMRND
 40
0.0
  9
$DIMDLE
 40
0.0
  9
$DIMEXE
 40
1.25
  9
$DIMTP
 40
0.0
  9
$DIMTM
 40
0.0
  9
$DIMTXT
 40
2.5
  9
$DIMCEN
 40
2.5
  9
$DIMTSZ
 40
0.0
  9
$DIMTOL
 70
0
  9
$DIMLIM
 70
0
  9
$DIMTIH
 70
0
  9
$DIMTOH
 70
0
  9
$DIMSE1
 70
0
  9
$DIMSE2
 70
0
  9
$DIMTAD
 70
1
  9
$DIMZIN
 70
8
  9
$DIMBLK
  1

  9
$DIMASO
 70
1
  9
$DIMSHO
 70
1
  9
$DIMPOST
  1

  9
$DIMAPOST
  1

  9
$DIMALT
 70
0
  9
$DIMALTD
 70
3
  9
$DIMALTF
 40
0.03937007874
  9
$DIMLFAC
 40
1.0
  9
$DIMTOFL
 70
1
  9
$DIMTVP
 40
0.0
  9
$DIMTIX
 70
0
  9
$DIMSOXD
 70
0
  9
$DIMSAH
 70
0
  9
$DIMBLK1
  1

  9
$DIMBLK2
  1

  9
$DIMSTYLE
  2
ISO-25
  9
$DIMCLRD
 70
0
  9
$DIMCLRE
 70
0
  9
$DIMCLRT
 70
0
  9
$DIMTFAC
 40
1.0
  9
$DIMGAP
 40
0.625
  9
$DIMJUST
 70
0
  9
$DIMSD1
 70
0
  9
$DIMSD2
 70
0
  9
$DIMTOLJ
 70
0
  9
$DIMTZIN
 70
8
  9
$DIMALTZ
 70
0
  9
$DIMALTTZ
 70
0
  9
$DIMUPT
 70
0
  9
$DIMDEC
 70
2
  9
$DIMTDEC
 70
2
  9
$DIMALTU
 70
2
  9
$DIMALTTD
 70
3
  9
$DIMTXSTY
  7
Standard
  9
$DIMAUNIT
 70
0
  9
$DIMADEC
 70
0
  9
$DIMALTRND
 40
0.0
  9
$DIMAZIN
 70
0
  9
$DIMDSEP
 70
44
  9
$DIMATFIT
 70
3
  9
$DIMFRAC
 70
0
  9
$DIMLDRBLK
  1

  9
$DIMLUNIT
 70
2
  9
$DIMLWD
 70
-2
  9
$DIMLWE
 70
-2
  9
$DIMTMOVE
 70
0
  9
$DIMFXL
 40
1.0
  9
$DIMFXLON
 70
0
  9
$DIMJOGANG
 40
0.785398163397
  9
$DIMTFILL
 70
0
  9
$DIMTFILLCLR
 70
0
  9
$DIMARCSYM
 70
0
  9
$DIMLTYPE
  6

  9
$DIMLTEX1
  6

  9
$DIMLTEX2
  6

  9
$DIMTXTDIRECTION
 70
0
  9
$LUNITS
 70
2
  9
$LUPREC
 70
4
  9
$SKETCHINC
 40
1.0
  9
$FILLETRAD
 40
10.0
  9
$AUNITS
 70
0
  9
$AUPREC
 70
2
  9
$MENU
  1
.
  9
$ELEVATION
 40
0.0
  9
$PELEVATION
 40
0.0
  9
$THICKNESS
 40
0.0
  9
$LIMCHECK
 70
0
  9
$CHAMFERA
 40
0.0
  9
$CHAMFERB
 40
0.0
  9
$CHAMFERC
 40
0.0
  9
$CHAMFERD
 40
0.0
  9
$SKPOLY
 70
0
  9
$TDCREATE
 40
2461133.487997685
  9
$TDUCREATE
 40
2458532.153996898
  9
$TDUPDATE
 40
2461133.487997685
  9
$TDUUPDATE
 40
2458532.1544311
  9
$TDINDWG
 40
0.0
  9
$TDUSRTIMER
 40
0.0
  9
$USRTIMER
 70
1
  9
$ANGBASE
 50
0.0
  9
$ANGDIR
 70
0
  9
$PDMODE
 70
0
  9
$PDSIZE
 40
0.0
  9
$PLINEWID
 40
0.0
  9
$SPLFRAME
 70
0
  9
$SPLINETYPE
 70
6
  9
$SPLINESEGS
 70
8
  9
$HANDSEED
  5
62
  9
$SURFTAB1
 70
6
  9
$SURFTAB2
 70
6
  9
$SURFTYPE
 70
6
  9
$SURFU
 70
6
  9
$SURFV
 70
6
  9
$UCSBASE
  2

  9
$UCSNAME
  2

  9
$UCSORG
 10
0.0
 20
0.0
 30
0.0
  9
$UCSXDIR
 10
1.0
 20
0.0
 30
0.0
  9
$UCSYDIR
 10
0.0
 20
1.0
 30
0.0
  9
$UCSORTHOREF
  2

  9
$UCSORTHOVIEW
 70
0
  9
$UCSORGTOP
 10
0.0
 20
0.0
 30
0.0
  9
$UCSORGBOTTOM
 10
0.0
 20
0.0
 30
0.0
  9
$UCSORGLEFT
 10
0.0
 20
0.0
 30
0.0
  9
$UCSORGRIGHT
 10
0.0
 20
0.0
 30
0.0
  9
$UCSORGFRONT
 10
0.0
 20
0.0
 30
0.0
  9
$UCSORGBACK
 10
0.0
 20
0.0
 30
0.0
  9
$PUCSBASE
  2

  9
$PUCSNAME
  2

  9
$PUCSORG
 10
0.0
 20
0.0
 30
0.0
  9
$PUCSXDIR
 10
1.0
 20
0.0
 30
0.0
  9
$PUCSYDIR
 10
0.0
 20
1.0
 30
0.0
  9
$PUCSORTHOREF
  2

  9
$PUCSORTHOVIEW
 70
0
  9
$PUCSORGTOP
 10
0.0
 20
0.0
 30
0.0
  9
$PUCSORGBOTTOM
 10
0.0
 20
0.0
 30
0.0
  9
$PUCSORGLEFT
 10
0.0
 20
0.0
 30
0.0
  9
$PUCSORGRIGHT
 10
0.0
 20
0.0
 30
0.0
  9
$PUCSORGFRONT
 10
0.0
 20
0.0
 30
0.0
  9
$PUCSORGBACK
 10
0.0
 20
0.0
 30
0.0
  9
$USERI1
 70
0
  9
$USERI2
 70
0
  9
$USERI3
 70
0
  9
$USERI4
 70
0
  9
$USERI5
 70
0
  9
$USERR1
 40
0.0
  9
$USERR2
 40
0.0
  9
$USERR3
 40
0.0
  9
$USERR4
 40
0.0
  9
$USERR5
 40
0.0
  9
$WORLDVIEW
 70
1
  9
$SHADEDGE
 70
3
  9
$SHADEDIF
 70
70
  9
$TILEMODE
 70
1
  9
$MAXACTVP
 70
64
  9
$PINSBASE
 10
0.0
 20
0.0
 30
0.0
  9
$PLIMCHECK
 70
0
  9
$PEXTMIN
 10
1e+20
 20
1e+20
 30
1e+20
  9
$PEXTMAX
 10
-1e+20
 20
-1e+20
 30
-1e+20
  9
$PLIMMIN
 10
0.0
 20
0.0
  9
$PLIMMAX
 10
420.0
 20
297.0
  9
$UNITMODE
 70
0
  9
$VISRETAIN
 70
1
  9
$PLINEGEN
 70
0
  9
$PSLTSCALE
 70
1
  9
$TREEDEPTH
 70
3020
  9
$CMLSTYLE
  2
Standard
  9
$CMLJUST
 70
0
  9
$CMLSCALE
 40
20.0
  9
$PROXYGRAPHICS
 70
1
  9
$MEASUREMENT
 70
1
  9
$CELWEIGHT
370
-1
  9
$ENDCAPS
280
0
  9
$JOINSTYLE
280
0
  9
$LWDISPLAY
290
0
  9
$INSUNITS
 70
6
  9
$HYPERLINKBASE
  1

  9
$STYLESHEET
  1

  9
$XEDIT
290
1
  9
$CEPSNTYPE
380
0
  9
$PSTYLEMODE
290
1
  9
$FINGERPRINTGUID
  2
{BC719308-23DA-457C-9A75-01AE4427B4CF}
  9
$VERSIONGUID
  2
{0ADD2156-DF55-4A19-82B7-F7AE98B13F4C}
  9
$EXTNAMES
290
1
  9
$PSVPSCALE
 40
0.0
  9
$OLESTARTUP
290
0
  9
$SORTENTS
280
127
  9
$INDEXCTL
280
0
  9
$HIDETEXT
280
1
  9
$XCLIPFRAME
280
1
  9
$HALOGAP
280
0
  9
$OBSCOLOR
 70
257
  9
$OBSLTYPE
280
0
  9
$INTERSECTIONDISPLAY
280
0
  9
$INTERSECTIONCOLOR
 70
257
  9
$DIMASSOC
280
2
  9
$PROJECTNAME
  1

  9
$CAMERADISPLAY
290
0
  9
$LENSLENGTH
 40
50.0
  9
$CAMERAHEIGHT
 40
0.0
  9
$STEPSPERSEC
 40
24.0
  9
$STEPSIZE
 40
100.0
  9
$3DDWFPREC
 40
2.0
  9
$PSOLWIDTH
 40
0.005
  9
$PSOLHEIGHT
 40
0.08
  9
$LOFTANG1
 40
1.570796326795
  9
$LOFTANG2
 40
1.570796326795
  9
$LOFTMAG1
 40
0.0
  9
$LOFTMAG2
 40
0.0
  9
$LOFTPARAM
 70
7
  9
$LOFTNORMALS
280
1
  9
$LATITUDE
 40
37.795
  9
$LONGITUDE
 40
-122.394
  9
$NORTHDIRECTION
 40
0.0
  9
$TIMEZONE
 70
-8000
  9
$LIGHTGLYPHDISPLAY
280
1
  9
$TILEMODELIGHTSYNCH
280
1
  9
$CMATERIAL
347
20
  9
$SOLIDHIST
280
0
  9
$SHOWHIST
280
1
  9
$DWFFRAME
280
2
  9
$DGNFRAME
280
2
  9
$REALWORLDSCALE
290
1
  9
$INTERFERECOLOR
 62
256
  9
$CSHADOW
280
0
  9
$SHADOWPLANELOCATION
 40
0.0
  0
ENDSEC
  0
SECTION
  2
CLASSES
  0
CLASS
  1
ACDBDICTIONARYWDFLT
  2
AcDbDictionaryWithDefault
  3
ObjectDBX Classes
 90
0
 91
0
280
0
281
0
  0
CLASS
  1
SUN
  2
AcDbSun
  3
SCENEOE
 90
1153
 91
0
280
0
281
0
  0
CLASS
  1
VISUALSTYLE
  2
AcDbVisualStyle
  3
ObjectDBX Classes
 90
4095
 91
0
280
0
281
0
  0
CLASS
  1
MATERIAL
  2
AcDbMaterial
  3
ObjectDBX Classes
 90
1153
 91
0
280
0
281
0
  0
CLASS
  1
SCALE
  2
AcDbScale
  3
ObjectDBX Classes
 90
1153
 91
0
280
0
281
0
  0
CLASS
  1
TABLESTYLE
  2
AcDbTableStyle
  3
ObjectDBX Classes
 90
4095
 91
0
280
0
281
0
  0
CLASS
  1
MLEADERSTYLE
  2
AcDbMLeaderStyle
  3
ACDB_MLEADERSTYLE_CLASS
 90
4095
 91
0
280
0
281
0
  0
CLASS
  1
DICTIONARYVAR
  2
AcDbDictionaryVar
  3
ObjectDBX Classes
 90
0
 91
0
280
0
281
0
  0
CLASS
  1
CELLSTYLEMAP
  2
AcDbCellStyleMap
  3
ObjectDBX Classes
 90
1152
 91
0
280
0
281
0
  0
CLASS
  1
MENTALRAYRENDERSETTINGS
  2
AcDbMentalRayRenderSettings
  3
SCENEOE
 90
1024
 91
0
280
0
281
0
  0
CLASS
  1
ACDBDETAILVIEWSTYLE
  2
AcDbDetailViewStyle
  3
ObjectDBX Classes
 90
1025
 91
0
280
0
281
0
  0
CLASS
  1
ACDBSECTIONVIEWSTYLE
  2
AcDbSectionViewStyle
  3
ObjectDBX Classes
 90
1025
 91
0
280
0
281
0
  0
CLASS
  1
RASTERVARIABLES
  2
AcDbRasterVariables
  3
ISM
 90
0
 91
0
280
0
281
0
  0
CLASS
  1
ACDBPLACEHOLDER
  2
AcDbPlaceHolder
  3
ObjectDBX Classes
 90
0
 91
0
280
0
281
0
  0
CLASS
  1
LAYOUT
  2
AcDbLayout
  3
ObjectDBX Classes
 90
0
 91
0
280
0
281
0
  0
ENDSEC
  0
SECTION
  2
TABLES
  0
TABLE
  2
VPORT
  5
8
330
0
100
AcDbSymbolTable
 70
1
  0
VPORT
  5
23
330
8
100
AcDbSymbolTableRecord
100
AcDbViewportTableRecord
  2
*Active
 70
0
 10
0.0
 20
0.0
 11
1.0
 21
1.0
 12
0.0
 22
0.0
 13
0.0
 23
0.0
 14
0.5
 24
0.5
 15
0.5
 25
0.5
 16
0.0
 26
0.0
 36
1.0
 17
0.0
 27
0.0
 37
0.0
 40
1000.0
 41
1.34
 42
50.0
 43
0.0
 44
0.0
 50
0.0
 51
0.0
 71
0
 72
1000
 73
1
 74
3
 75
0
 76
0
 77
0
 78
0
281
0
 65
0
146
0.0
  0
ENDTAB
  0
TABLE
  2
LTYPE
  5
2
330
0
100
AcDbSymbolTable
 70
3
  0
LTYPE
  5
24
330
2
100
AcDbSymbolTableRecord
100
AcDbLinetypeTableRecord
  2
ByBlock
 70
0
  3

 72
65
 73
0
 40
0.0
  0
LTYPE
  5
25
330
2
100
AcDbSymbolTableRecord
100
AcDbLinetypeTableRecord
  2
ByLayer
 70
0
  3

 72
65
 73
0
 40
0.0
  0
LTYPE
  5
26
330
2
100
AcDbSymbolTableRecord
100
AcDbLinetypeTableRecord
  2
Continuous
 70
0
  3

 72
65
 73
0
 40
0.0
  0
ENDTAB
  0
TABLE
  2
LAYER
  5
1
330
0
100
AcDbSymbolTable
 70
3
  0
LAYER
  5
27
330
1
100
AcDbSymbolTableRecord
100
AcDbLayerTableRecord
  2
0
 70
0
 62
7
  6
Continuous
370
-3
390
13
347
21
  0
LAYER
  5
28
330
1
100
AcDbSymbolTableRecord
100
AcDbLayerTableRecord
  2
Defpoints
 70
0
 62
7
  6
Continuous
290
0
370
-3
390
13
347
21
  0
LAYER
  5
2F
330
1
100
AcDbSymbolTableRecord
100
AcDbLayerTableRecord
  2
relief
 70
0
 62
7
  6
Continuous
370
-3
390
13
347
21
  0
ENDTAB
  0
TABLE
  2
STYLE
  5
5
330
0
100
AcDbSymbolTable
 70
1
  0
STYLE
  5
29
330
5
100
AcDbSymbolTableRecord
100
AcDbTextStyleTableRecord
  2
Standard
 70
0
 40
0.0
 41
1.0
 50
0.0
 71
0
 42
2.5
  3
txt
  4

  0
ENDTAB
  0
TABLE
  2
VIEW
  5
7
330
0
100
AcDbSymbolTable
 70
0
  0
ENDTAB
  0
TABLE
  2
UCS
  5
6
330
0
100
AcDbSymbolTable
 70
0
  0
ENDTAB
  0
TABLE
  2
APPID
  5
3
330
0
100
AcDbSymbolTable
 70
3
  0
APPID
  5
2A
330
3
100
AcDbSymbolTableRecord
100
AcDbRegAppTableRecord
  2
ACAD
 70
0
  0
APPID
  5
5F
330
3
100
AcDbSymbolTableRecord
100
AcDbRegAppTableRecord
  2
HATCHBACKGROUNDCOLOR
 70
0
  0
APPID
  5
60
330
3
100
AcDbSymbolTableRecord
100
AcDbRegAppTableRecord
  2
EZDXF
 70
0
  0
ENDTAB
  0
TABLE
  2
DIMSTYLE
  5
4
330
0
100
AcDbSymbolTable
 70
1
100
AcDbDimStyleTable
  0
DIMSTYLE
105
2B
330
4
100
AcDbSymbolTableRecord
100
AcDbDimStyleTableRecord
  2
Standard
 70
0
 40
1.0
 41
2.5
 42
0.625
 43
3.75
 44
1.25
 45
0.0
 46
0.0
 47
0.0
 48
0.0
 49
2.5
140
2.5
141
2.5
142
0.0
143
0.03937007874
144
1.0
145
0.0
146
1.0
147
0.625
148
0.0
 69
0
 70
0
 71
0
 72
0
 73
0
 74
0
 75
0
 76
0
 77
1
 78
8
 79
3
170
0
171
3
172
1
173
0
174
0
175
0
176
0
177
0
178
0
179
2
271
2
272
2
273
2
274
3
275
0
276
0
277
2
278
44
279
0
280
0
281
0
282
0
283
0
284
8
285
0
286
0
288
0
289
3
290
0
371
-2
372
-2
  0
ENDTAB
  0
TABLE
  2
BLOCK_RECORD
  5
9
330
0
100
AcDbSymbolTable
 70
2
  0
BLOCK_RECORD
  5
17
330
9
100
AcDbSymbolTableRecord
100
AcDbBlockTableRecord
  2
*Model_Space
340
1A
 70
0
280
1
281
0
  0
BLOCK_RECORD
  5
1B
330
9
100
AcDbSymbolTableRecord
100
AcDbBlockTableRecord
  2
*Paper_Space
340
1E
 70
0
280
1
281
0
  0
ENDTAB
  0
ENDSEC
  0
SECTION
  2
BLOCKS
  0
BLOCK
  5
18
330
17
100
AcDbEntity
  8
0
100
AcDbBlockBegin
  2
*Model_Space
 70
0
 10
0.0
 20
0.0
 30
0.0
  3
*Model_Space
  1

  0
ENDBLK
  5
19
330
17
100
AcDbEntity
  8
0
100
AcDbBlockEnd
  0
BLOCK
  5
1C
330
1B
100
AcDbEntity
  8
0
100
AcDbBlockBegin
  2
*Paper_Space
 70
0
 10
0.0
 20
0.0
 30
0.0
  3
*Paper_Space
  1

  0
ENDBLK
  5
1D
330
1B
100
AcDbEntity
  8
0
100
AcDbBlockEnd
  0
ENDSEC
  0
SECTION
  2
ENTITIES
  0
LWPOLYLINE
  5
30
330
17
100
AcDbEntity
  8
relief
100
AcDbPolyline
 90
157
 70
1
 10
41.66676209562989
 20
2.0360721442862437
 10
41.73947895792521
 20
2.1633266533033515
 10
41.909151636620784
 20
2.5450901803546744
 10
42.12124248499026
 20
3.0541082164356257
 10
42.24849699399247
 20
3.2577154308655025
 10
42.757515030059736
 20
3.563126252504057
 10
43.266533066127
 20
3.817635270538272
 10
43.58466933868121
 20
4.0721442885724874
 10
43.775551102194264
 20
4.1739478957936855
 10
44.28456913830047
 20
4.1896099892007745
 10
44.589979959929146
 20
4.0721442885724874
 10
44.79358717434827
 20
3.959029169448952
 10
45.048096192372164
 20
4.0721442885724874
 10
45.30260521041553
 20
4.199398797589595
 10
45.811623246502265
 20
4.581162324653439
 10
45.93887775552395
 20
5.090180360721869
 10
46.15096860387395
 20
5.5991983967903005
 10
46.15096860387395
 20
6.108216432871251
 10
46.01523046092139
 20
6.6172344689396825
 10
46.15096860387395
 20
7.126252505008114
 10
46.320641282569525
 20
7.380761523042328
 10
46.43375640169992
 20
7.635270541076544
 10
46.51152304608259
 20
8.144288577157495
 10
46.60342908039549
 20
8.653306613225926
 10
46.82965931863679
 20
9.162324649294357
 10
47.33867735470405
 20
9.467735470945431
 10
47.542284569142645
 20
9.671342685375308
 10
47.84769539079079
 20
10.05310621242663
 10
47.87950901803648
 20
10.180360721443739
 10
47.98651849152933
 20
10.68937875751217
 10
48.153106212438935
 20
11.19839679359312
 10
48.35671342685806
 20
11.707414829661552
 10
48.865731462925325
 20
12.04676018704468
 10
49.374749498992585
 20
12.216432865729983
 10
49.88376753505985
 20
12.318236472951181
 10
50.39278557114658
 20
12.725450901798414
 10
50.732130928518266
 20
13.234468937879365
 10
50.90180360721385
 20
13.573814295262492
 10
50.944221776887744
 20
13.743486973947796
 10
51.07147628590943
 20
14.252505010016227
 10
51.241148964585534
 20
14.761523046097178
 10
51.41082164328111
 20
15.016032064131393
 10
51.91983967936785
 20
15.197824219864753
 10
52.0216432865774
 20
15.27054108216561
 10
52.428857715435115
 20
15.561408531343991
 10
52.61973947896763
 20
15.77955911823404
 10
52.88131819193718
 20
16.28857715430247
 10
52.937875751502375
 20
16.361294016603328
 10
53.44689378756964
 20
16.345134713864237
 10
53.9559118236369
 20
16.39038076152367
 10
54.46492985972364
 20
16.39038076152367
 10
54.9739478957909
 20
16.28857715430247
 10
55.48296593185817
 20
16.28857715430247
 10
55.9919839679449
 20
16.186773547093793
 10
56.501002004012165
 20
16.135871743476933
 10
57.010020040079425
 20
16.070426567412422
 10
57.51903807614669
 20
15.997709705124088
 10
58.02805611223343
 20
15.924992842823231
 10
58.53707414828122
 20
15.949231796931864
 10
59.04609218436796
 20
15.983166332663917
 10
59.555110220435225
 20
15.881362725455238
 10
59.68236472945691
 20
15.77955911823404
 10
60.064128256521954
 20
15.397795591182716
 10
60.23380093519807
 20
15.27054108216561
 10
60.573146292589215
 20
15.016032064131393
 10
61.08216432865648
 20
14.761523046097178
 10
61.59118236472375
 20
14.507014028050442
 10
61.845691382767114
 20
14.252505010016227
 10
62.100200400810486
 20
14.082832331330923
 10
62.43954575818217
 20
13.743486973947796
 10
62.60921843687775
 20
13.573814295262492
 10
63.118236472945014
 20
13.361723446896473
 10
63.22004008015457
 20
13.234468937879365
 10
63.2030728122928
 20
12.725450901798414
 10
63.32184368736413
 20
12.216432865729983
 10
63.37274549098838
 20
11.707414829661552
 10
63.118236472945014
 20
11.19839679359312
 10
63.28790915162112
 20
10.68937875751217
 10
63.42364729459316
 20
10.180360721443739
 10
63.62725450901228
 20
9.671342685375308
 10
63.54241816966448
 20
9.162324649294357
 10
63.49999999999059
 20
8.653306613225926
 10
63.62725450901228
 20
8.144288577157495
 10
64.136272545099
 20
8.144288577157495
 10
64.3907815631229
 20
7.635270541076544
 10
64.44168336672769
 20
7.126252505008114
 10
64.35442313198499
 20
6.6172344689396825
 10
64.44168336672769
 20
6.108216432871251
 10
64.64529058116626
 20
5.5991983967903005
 10
64.98463593853796
 20
5.090180360721869
 10
65.15430861723353
 20
4.581162324653439
 10
65.6633266533008
 20
4.199398797589595
 10
65.71422845690559
 20
4.072144288585008
 10
65.80214975403933
 20
3.563126252504057
 10
65.7764417724312
 20
3.0541082164356257
 10
65.6633266533008
 20
2.5450901803546744
 10
65.53607214427912
 20
2.0360721442862437
 10
65.28156312623575
 20
1.5270541082178128
 10
65.15430861723353
 20
1.3573814295325095
 10
64.81496325984239
 20
1.0180360721493822
 10
64.64529058116626
 20
0.8907815631322745
 10
64.3907815631229
 20
0.5090180360684308
 10
64.3059452237946
 20
0.0
 10
64.136272545099
 20
0.0
 10
63.62725450901228
 20
0.0
 10
63.118236472945014
 20
0.0
 10
62.60921843687775
 20
0.0
 10
62.100200400810486
 20
0.0
 10
61.59118236472375
 20
0.0
 10
61.08216432865648
 20
0.0
 10
60.573146292589215
 20
0.0
 10
60.064128256521954
 20
0.0
 10
59.555110220435225
 20
0.0
 10
59.04609218436796
 20
0.0
 10
58.5370741483007
 20
0.0
 10
58.02805611223343
 20
0.0
 10
57.51903807614669
 20
0.0
 10
57.010020040079425
 20
0.0
 10
56.501002004012165
 20
0.0
 10
55.9919839679449
 20
0.0
 10
55.48296593185817
 20
0.0
 10
54.9739478957909
 20
0.0
 10
54.46492985972364
 20
0.0
 10
53.95591182365637
 20
0.0
 10
53.44689378756964
 20
0.0
 10
52.937875751502375
 20
0.0
 10
52.428857715435115
 20
0.0
 10
51.91983967936785
 20
0.0
 10
51.41082164328111
 20
0.0
 10
50.90180360721385
 20
0.0
 10
50.39278557114658
 20
0.0
 10
49.883767535079315
 20
0.0
 10
49.374749498992585
 20
0.0
 10
48.865731462925325
 20
0.0
 10
48.35671342685806
 20
0.0
 10
47.84769539079079
 20
0.0
 10
47.33867735470405
 20
0.0
 10
46.82965931863679
 20
0.0
 10
46.320641282569525
 20
0.0
 10
45.811623246502265
 20
0.0
 10
45.30260521041553
 20
0.0
 10
44.79358717434827
 20
0.0
 10
44.284569138281
 20
0.0
 10
43.77555110221374
 20
0.0
 10
43.266533066127
 20
0.0
 10
42.757515030059736
 20
0.0
 10
42.24849699399247
 20
0.0
 10
41.73947895792521
 20
0.0
 10
41.23046092183848
 20
0.0
 10
40.72144288577121
 20
0.0
 10
40.6822876522111
 20
1.2520651182512176e-11
 10
40.72144288577121
 20
0.10180360722119855
 10
40.94767312401252
 20
0.5090180360684308
 10
41.1795591182337
 20
1.0180360721493822
 10
41.23046092183848
 20
1.1877087508346855
 10
41.35771543086016
 20
1.5270541082178128
 10
41.66676209562989
 20
2.0360721442862437
  0
LWPOLYLINE
  5
31
330
17
100
AcDbEntity
  8
relief
100
AcDbPolyline
 90
121
 70
1
 10
6.679101716144942e-13
 20
3.0541082164356257
 10
6.679101716144942e-13
 20
3.563126252504057
 10
6.679101716144942e-13
 20
4.0721442885724874
 10
6.679101716144942e-13
 20
4.581162324653439
 10
6.679101716144942e-13
 20
5.090180360721869
 10
6.679101716144942e-13
 20
5.5991983967903005
 10
6.679101716144942e-13
 20
6.108216432871251
 10
6.679101716144942e-13
 20
6.6172344689396825
 10
6.679101716144942e-13
 20
7.126252505008114
 10
6.679101716144942e-13
 20
7.635270541076544
 10
6.679101716144942e-13
 20
8.144288577157495
 10
6.679101716144942e-13
 20
8.653306613225926
 10
6.679101716144942e-13
 20
9.162324649294357
 10
6.679101716144942e-13
 20
9.671342685375308
 10
6.679101716144942e-13
 20
10.180360721443739
 10
6.679101716144942e-13
 20
10.68937875751217
 10
6.679101716144942e-13
 20
11.19839679359312
 10
6.679101716144942e-13
 20
11.707414829661552
 10
6.679101716144942e-13
 20
12.216432865729983
 10
6.679101716144942e-13
 20
12.725450901798414
 10
6.679101716144942e-13
 20
13.234468937879365
 10
6.679101716144942e-13
 20
13.743486973947796
 10
6.679101716144942e-13
 20
14.252505010016227
 10
6.679101716144942e-13
 20
14.761523046097178
 10
6.679101716144942e-13
 20
15.27054108216561
 10
6.679101716144942e-13
 20
15.77955911823404
 10
6.679101716144942e-13
 20
16.28857715430247
 10
6.679101716144942e-13
 20
16.797595190383422
 10
6.679101716144942e-13
 20
17.30661322645185
 10
6.679101716144942e-13
 20
17.815631262520284
 10
6.679101716144942e-13
 20
18.324649298601233
 10
6.679101716144942e-13
 20
18.833667334669666
 10
6.679101716144942e-13
 20
19.342685370738096
 10
6.679101716144942e-13
 20
19.85170340681905
 10
6.679101716144942e-13
 20
20.360721442887478
 10
6.679101716144942e-13
 20
20.784903139606996
 10
0.10180360721022713
 20
20.86973947895591
 10
0.5090180360679326
 20
21.37875751502434
 10
1.0180360721546657
 20
21.887775551105292
 10
1.5270541082219304
 20
22.396793587173722
 10
1.908817635267512
 20
22.90581162324215
 10
2.0360721442891947
 20
23.414829659323104
 10
2.5450901803564596
 20
23.313026052101904
 10
2.6087174348673012
 20
23.414829659323104
 10
3.054108216443193
 20
23.771142284565997
 10
3.359519038091339
 20
23.923847695391537
 10
3.5631262525104574
 20
24.025651302612733
 10
4.0721442885777215
 20
24.114729458923456
 10
4.581162324644986
 20
24.20149389688227
 10
5.09018036073172
 20
24.247768263795304
 10
5.599198396798985
 20
24.22925851703009
 10
5.802805611218103
 20
23.923847695391537
 10
5.853707414822883
 20
23.414829659323104
 10
5.7688710754750945
 20
22.90581162324215
 10
5.599198396798985
 20
22.4985971943824
 10
5.514362057451196
 20
22.396793587173722
 10
5.191983967941279
 20
21.887775551105292
 10
5.09018036073172
 20
21.718102872419987
 10
4.835671342688354
 20
21.37875751502434
 10
4.581162324644986
 20
21.039412157641213
 10
4.517535070134145
 20
20.86973947895591
 10
4.581162324644986
 20
20.615230460921694
 10
4.835671342688354
 20
20.360721442887478
 10
4.920507682036142
 20
19.85170340681905
 10
4.988376753522161
 20
19.342685370738096
 10
5.09018036073172
 20
19.173012692052794
 10
5.344689378775087
 20
18.833667334669666
 10
5.514362057451196
 20
18.324649298601233
 10
5.599198396798985
 20
17.815631262520284
 10
5.471943887777302
 20
17.30661322645185
 10
5.09018036073172
 20
16.967267869068724
 10
4.899298597199196
 20
16.797595190383422
 10
4.581162324644986
 20
16.28857715430247
 10
4.5084454623496635
 20
15.77955911823404
 10
4.468047205514602
 20
15.27054108216561
 10
4.411489645949409
 20
14.761523046097178
 10
4.453907815623304
 20
14.252505010016227
 10
4.581162324644986
 20
13.743486973947796
 10
4.784769539083574
 20
13.234468937879365
 10
4.886573146293133
 20
12.725450901798414
 10
4.920507682036142
 20
12.216432865729983
 10
4.835671342688354
 20
11.707414829661552
 10
4.920507682036142
 20
11.19839679359312
 10
5.09018036073172
 20
11.071142284576014
 10
5.3955911823603975
 20
10.68937875751217
 10
5.09018036073172
 20
10.180360721443739
 10
4.886573146293133
 20
9.671342685375308
 10
5.09018036073172
 20
9.162324649294357
 10
5.09018036073172
 20
8.653306613225926
 10
5.09018036073172
 20
8.144288577157495
 10
5.217434869753403
 20
7.635270541076544
 10
5.09018036073172
 20
7.5080160320594365
 10
4.70841683366667
 20
7.126252505008114
 10
4.581162324644986
 20
6.6172344689396825
 10
4.326653306601621
 20
6.108216432871251
 10
4.0721442885777215
 20
5.5991983967903005
 10
4.241816967253832
 20
5.090180360721869
 10
4.0721442885777215
 20
4.581162324653439
 10
3.5631262525104574
 20
4.0721442885724874
 10
3.5631262525104574
 20
3.563126252504057
 10
3.054108216443193
 20
3.0541082164356257
 10
3.054108216443193
 20
2.5450901803546744
 10
3.054108216443193
 20
2.0360721442862437
 10
2.952304609233634
 20
1.5270541082178128
 10
2.748697394795047
 20
1.0180360721493822
 10
2.884435537747615
 20
0.5090180360684308
 10
3.054108216443193
 20
0.2545090180342154
 10
3.5631262525104574
 20
0.0
 10
3.054108216443193
 20
0.0
 10
2.5450901803564596
 20
0.0
 10
2.0360721442891947
 20
0.0
 10
1.5270541082219304
 20
0.0
 10
1.0180360721546657
 20
0.0
 10
0.5090180360679326
 20
0.0
 10
6.679101716144942e-13
 20
0.0
 10
6.679101716144942e-13
 20
0.5090180360684308
 10
6.679101716144942e-13
 20
1.0180360721493822
 10
6.679101716144942e-13
 20
1.5270541082178128
 10
6.679101716144942e-13
 20
2.0360721442862437
 10
6.679101716144942e-13
 20
2.5450901803546744
 10
6.679101716144942e-13
 20
3.0541082164356257
  0
LWPOLYLINE
  5
32
330
17
100
AcDbEntity
  8
relief
100
AcDbPolyline
 90
18
 70
1
 10
110.96593186373514
 20
68.8871075484368
 10
111.2204408817785
 20
68.71743486973898
 10
111.4749498998024
 20
68.20841683367055
 10
111.72945891782629
 20
67.6993987975896
 10
111.4749498998024
 20
67.44488977955538
 10
111.30527722110682
 20
67.19038076152117
 10
111.09318637275682
 20
66.68136272545273
 10
110.96593186373514
 20
66.51169004676743
 10
110.4569138276484
 20
66.3420173680696
 10
109.94789579158113
 20
66.1723446893843
 10
109.77822311288557
 20
66.68136272545273
 10
109.69338677355724
 20
67.19038076152117
 10
109.65702834239984
 20
67.6993987975896
 10
109.94789579158113
 20
68.10661322644935
 10
110.11756847027671
 20
68.20841683367055
 10
110.20240480960504
 20
68.71743486973898
 10
110.4569138276484
 20
69.0567802271221
 10
110.96593186373514
 20
68.8871075484368
  0
LWPOLYLINE
  5
33
330
17
100
AcDbEntity
  8
relief
100
AcDbPolyline
 90
25
 70
1
 10
6.679101716144942e-13
 20
70.24448897795679
 10
6.679101716144942e-13
 20
70.6686706746763
 10
0.5090180360679326
 20
70.75350701402522
 10
1.0180360721546657
 20
70.498997995991
 10
1.1452905811763492
 20
70.24448897795679
 10
1.221643286593253
 20
69.73547094188837
 10
1.5270541082219304
 20
69.2264529058074
 10
2.0360721442891947
 20
68.9719438877732
 10
2.5450901803564596
 20
68.71743486973898
 10
3.054108216443193
 20
68.46292585170477
 10
3.5631262525104574
 20
68.20841683367055
 10
3.054108216443193
 20
67.95390781563633
 10
2.5450901803564596
 20
68.10661322646187
 10
2.0360721442891947
 20
68.03874415497272
 10
1.5270541082219304
 20
68.06298310908136
 10
1.0180360721546657
 20
67.8266533066067
 10
0.8907815631329825
 20
67.6993987975896
 10
0.5090180360679326
 20
67.31763527053828
 10
6.679101716144942e-13
 20
67.19038076152117
 10
6.679101716144942e-13
 20
67.6993987975896
 10
6.679101716144942e-13
 20
68.20841683367055
 10
6.679101716144942e-13
 20
68.71743486973898
 10
6.679101716144942e-13
 20
69.2264529058074
 10
6.679101716144942e-13
 20
69.73547094188837
 10
6.679101716144942e-13
 20
70.24448897795679
  0
LWPOLYLINE
  5
34
330
17
100
AcDbEntity
  8
relief
100
AcDbPolyline
 90
36
 70
1
 10
78.3887775551187
 20
69.60821643287126
 10
78.89779559118597
 20
69.73547094188837
 10
79.40681362725323
 20
69.73547094188837
 10
79.40681362725323
 20
70.24448897795679
 10
79.40681362725323
 20
70.75350701402522
 10
79.74615898462491
 20
71.26252505010618
 10
79.91583166332049
 20
71.432197728804
 10
80.25517702071166
 20
71.7715430861746
 10
80.42484969940722
 20
71.9412157648599
 10
80.9338677354745
 20
72.15330661322592
 10
81.44288577154175
 20
71.9412157648599
 10
81.95190380760901
 20
71.7715430861746
 10
82.46092184369574
 20
71.6018704074893
 10
82.71543086173911
 20
71.26252505010618
 10
82.80026720106744
 20
70.75350701402522
 10
82.71543086173911
 20
70.24448897795679
 10
82.80026720106744
 20
69.73547094188837
 10
82.96993987976302
 20
69.2264529058074
 10
82.96993987976302
 20
68.71743486973898
 10
82.46092184367629
 20
68.6156312625303
 10
81.95190380760901
 20
68.5138276553091
 10
81.44288577154175
 20
68.46292585170477
 10
81.1035404141506
 20
68.20841683367055
 10
80.9338677354745
 20
68.12358049432163
 10
80.42484969940722
 20
68.20841683367055
 10
79.91583166332049
 20
68.20841683367055
 10
79.40681362725323
 20
68.20841683367055
 10
78.89779559118597
 20
67.95390781563633
 10
78.3887775551187
 20
68.08116232465343
 10
77.87975951903196
 20
68.20841683367055
 10
77.3707414829647
 20
68.20841683367055
 10
76.86172344689744
 20
68.71743486973898
 10
77.11623246494081
 20
69.2264529058074
 10
77.3707414829647
 20
69.73547094188837
 10
77.87975951903196
 20
69.73547094188837
 10
78.3887775551187
 20
69.60821643287126
  0
LWPOLYLINE
  5
35
330
17
100
AcDbEntity
  8
relief
100
AcDbPolyline
 90
65
 70
1
 10
92.89579158316228
 20
70.75350701402522
 10
92.64128256513838
 20
70.92317969272305
 10
92.38677354709502
 20
71.26252505010618
 10
92.25951903807335
 20
71.7715430861746
 10
92.13226452905165
 20
72.02605210420882
 10
91.62324649298439
 20
72.28056112224303
 10
91.11422845691712
 20
72.28056112224303
 10
90.60521042084986
 20
72.61990647962617
 10
90.09619238476313
 20
72.53507014027726
 10
89.84168336671976
 20
72.28056112224303
 10
89.58717434869587
 20
72.15330661322592
 10
89.07815631262861
 20
72.28056112224303
 10
88.95090180360691
 20
72.78957915831147
 10
88.97635270539956
 20
73.29859719439241
 10
89.07815631262861
 20
73.80761523046085
 10
89.33266533067197
 20
74.31663326652928
 10
89.41750167000028
 20
74.82565130261023
 10
89.41750167000028
 20
75.33466933867867
 10
89.58717434869587
 20
75.43647294589987
 10
90.09619238476313
 20
75.50434201736397
 10
90.22344689378481
 20
75.33466933867867
 10
90.2658650634587
 20
74.82565130261023
 10
90.3507014028065
 20
74.31663326652928
 10
90.47795591182819
 20
73.80761523046085
 10
90.60521042084986
 20
73.29859719439241
 10
91.11422845691712
 20
73.04408817634568
 10
91.62324649298439
 20
73.04408817634568
 10
92.13226452905165
 20
73.29859719439241
 10
92.64128256513838
 20
73.55310621242663
 10
93.15030060120564
 20
73.55310621242663
 10
93.40480961924901
 20
73.80761523046085
 10
93.65931863727292
 20
73.97728790915868
 10
94.16833667334018
 20
73.80761523046085
 10
94.16833667334018
 20
73.29859719439241
 10
94.42284569138354
 20
72.78957915831147
 10
94.67735470942692
 20
72.28056112224303
 10
95.18637274549418
 20
72.02605210420882
 10
95.69539078156144
 20
71.7715430861746
 10
96.2044088176287
 20
71.7715430861746
 10
96.71342685371545
 20
71.51703406814039
 10
97.22244488978271
 20
71.51703406814039
 10
97.73146292584998
 20
71.6018704074893
 10
98.24048096191724
 20
71.6018704074893
 10
98.74949899800397
 20
71.26252505010618
 10
99.15671342686169
 20
70.75350701402522
 10
99.25851703407123
 20
70.24448897795679
 10
98.74949899800397
 20
69.90514362057367
 10
98.5798263193084
 20
69.73547094188837
 10
98.44408817635583
 20
69.2264529058074
 10
98.24048096191724
 20
68.71743486973898
 10
97.73146292584998
 20
68.46292585170477
 10
97.22244488978271
 20
68.20841683367055
 10
96.71342685371545
 20
67.86907147628742
 10
96.2044088176287
 20
68.03874415497272
 10
95.69539078156144
 20
68.03874415497272
 10
95.18637274549418
 20
67.95390781563633
 10
94.67735470942692
 20
68.08116232465343
 10
94.50768203073133
 20
68.20841683367055
 10
94.16833667334018
 20
68.71743486973898
 10
94.67735470942692
 20
69.2264529058074
 10
94.67735470942692
 20
69.73547094188837
 10
94.16833667334018
 20
70.24448897795679
 10
93.65931863727292
 20
70.498997995991
 10
93.15030060120564
 20
70.498997995991
 10
92.89579158316228
 20
70.75350701402522
  0
LWPOLYLINE
  5
36
330
17
100
AcDbEntity
  8
relief
100
AcDbPolyline
 90
132
 70
1
 10
10.689378757510568
 20
66.85103540413805
 10
10.350033400138882
 20
67.19038076152117
 10
10.180360721443304
 20
67.29218436872985
 10
9.67134268535657
 20
67.52972611890429
 10
9.331997328004352
 20
67.6993987975896
 10
9.162324649308774
 20
67.77211565989046
 10
8.65330661322204
 20
67.97704499908033
 10
8.144288577154775
 20
68.03874415497272
 10
7.762525050109195
 20
68.20841683367055
 10
7.635270541087512
 20
68.33567134268766
 10
7.126252505020247
 20
68.71743486973898
 10
6.617234468933514
 20
68.92104208416886
 10
6.10821643286625
 20
68.88710754842428
 10
5.599198396798985
 20
68.9719438877732
 10
5.09018036073172
 20
68.9719438877732
 10
4.581162324644986
 20
69.2264529058074
 10
4.581162324644986
 20
69.73547094188837
 10
4.2418169672733
 20
70.24448897795679
 10
4.0721442885777215
 20
70.498997995991
 10
3.5631262525104574
 20
70.75350701402522
 10
3.054108216443193
 20
70.92317969272305
 10
2.7147628590520374
 20
71.26252505010618
 10
2.5450901803564596
 20
71.43219772879148
 10
2.0360721442891947
 20
71.51703406814039
 10
1.6967267869175082
 20
71.7715430861746
 10
1.5270541082219304
 20
71.89879759519171
 10
1.1452905811763492
 20
72.28056112224303
 10
1.0180360721546657
 20
72.45023380092834
 10
0.5090180360679326
 20
72.61990647962617
 10
6.679101716144942e-13
 20
72.78957915831147
 10
6.679101716144942e-13
 20
73.29859719439241
 10
6.679101716144942e-13
 20
73.80761523046085
 10
6.679101716144942e-13
 20
74.31663326652928
 10
6.679101716144942e-13
 20
74.82565130261023
 10
6.679101716144942e-13
 20
75.33466933867867
 10
6.679101716144942e-13
 20
75.84368737474709
 10
6.679101716144942e-13
 20
76.35270541081552
 10
6.679101716144942e-13
 20
76.86172344689648
 10
6.679101716144942e-13
 20
77.3707414829649
 10
6.679101716144942e-13
 20
77.87975951903334
 10
6.679101716144942e-13
 20
78.38877755511429
 10
6.679101716144942e-13
 20
78.89779559118271
 10
6.679101716144942e-13
 20
79.40681362725115
 10
6.679101716144942e-13
 20
79.9158316633321
 10
6.679101716144942e-13
 20
80.42484969940053
 10
6.679101716144942e-13
 20
80.93386773546897
 10
6.679101716144942e-13
 20
81.44288577153739
 10
6.679101716144942e-13
 20
81.95190380761835
 10
6.679101716144942e-13
 20
82.46092184368678
 10
6.679101716144942e-13
 20
82.9699398797552
 10
6.679101716144942e-13
 20
83.47895791583616
 10
6.679101716144942e-13
 20
83.98797595190459
 10
6.679101716144942e-13
 20
84.49699398797301
 10
6.679101716144942e-13
 20
85.00601202405397
 10
0.5090180360679326
 20
85.00601202405397
 10
1.0180360721546657
 20
85.13326653307108
 10
1.0907529344305207
 20
85.0060120240665
 10
1.5270541082219304
 20
84.49699398797301
 10
2.0360721442891947
 20
83.98797595190459
 10
2.5450901803564596
 20
83.64863059452146
 10
3.054108216423724
 20
83.58076152304484
 10
3.308617234467091
 20
83.47895791583616
 10
3.5631262525104574
 20
83.35170340681906
 10
3.9448897795560387
 20
82.9699398797552
 10
4.0721442885777215
 20
82.8002672010699
 10
4.144861150853577
 20
82.46092184368678
 10
4.4357286000543406
 20
81.95190380761835
 10
4.581162324644986
 20
81.69739478958412
 10
4.653879186920842
 20
81.44288577153739
 10
5.09018036073172
 20
81.08357892255012
 10
5.239891547810328
 20
80.93386773546897
 10
5.599198396798985
 20
80.52665330662172
 10
5.701002004008544
 20
80.42484969940053
 10
5.684034736146773
 20
79.9158316633321
 10
5.599198396798985
 20
79.66132264528537
 10
5.429525718103407
 20
79.40681362725115
 10
5.09018036073172
 20
78.89779559118271
 10
4.581162324644986
 20
78.38877755511429
 10
4.5084454623496635
 20
77.87975951903334
 10
4.581162324644986
 20
77.75250501001622
 10
5.09018036073172
 20
77.62525050099912
 10
5.599198396798985
 20
77.87975951903334
 10
6.10821643286625
 20
77.87975951903334
 10
6.617234468933514
 20
78.13426853708008
 10
7.126252505020247
 20
78.38877755511429
 10
7.635270541087512
 20
78.21910487641647
 10
8.144288577154775
 20
78.13426853708008
 10
8.65330661322204
 20
77.87975951903334
 10
9.162324649308774
 20
78.04943219773116
 10
9.67134268537604
 20
78.38877755511429
 10
10.053106212421621
 20
77.87975951903334
 10
10.180360721443304
 20
77.62525050099912
 10
10.265197060791094
 20
77.3707414829649
 10
10.689378757510568
 20
76.86172344689648
 10
11.198396793597302
 20
76.35270541081552
 10
11.300200400806862
 20
75.84368737474709
 10
11.198396793597302
 20
75.58917835671288
 10
11.028724114901724
 20
75.33466933867867
 10
10.943887775553936
 20
74.82565130261023
 10
11.198396793597302
 20
74.72384769538903
 10
11.707414829664566
 20
74.57114228457601
 10
11.925565416550537
 20
74.31663326652928
 10
12.012825651312713
 20
73.80761523046085
 10
12.046760187036252
 20
73.29859719439241
 10
12.216432865731832
 20
73.04408817634568
 10
12.47094188375573
 20
72.78957915831147
 10
12.725450901799096
 20
72.58597194388159
 10
12.979959919842463
 20
72.28056112224303
 10
13.234468937885827
 20
71.89879759519171
 10
13.276887107579192
 20
71.7715430861746
 10
13.379902662476475
 20
71.26252505010618
 10
13.361723446907513
 20
70.75350701402522
 10
13.319305277214148
 20
70.24448897795679
 10
13.379902662476475
 20
69.73547094188837
 10
13.743486973953093
 20
69.31128924515632
 10
13.870741482955308
 20
69.2264529058074
 10
14.252505010020357
 20
68.84468937875609
 10
14.422177688696468
 20
68.71743486973898
 10
14.761523046087623
 20
68.20841683367055
 10
15.01603206413099
 20
67.6993987975896
 10
15.052390495288385
 20
67.19038076152117
 10
14.863326653297182
 20
66.68136272545273
 10
14.761523046087623
 20
66.55410821643562
 10
14.252505010020357
 20
66.1723446893843
 10
13.743486973953093
 20
66.0269109647951
 10
13.539879759533976
 20
66.1723446893843
 10
13.234468937885827
 20
66.39049527627435
 10
12.725450901799096
 20
66.57955911824406
 10
12.216432865731832
 20
66.68136272545273
 10
11.707414829664566
 20
66.80861723446985
 10
11.198396793597302
 20
66.85103540413805
 10
10.689378757510568
 20
66.85103540413805
  0
LWPOLYLINE
  5
37
330
17
100
AcDbEntity
  8
relief
100
AcDbPolyline
 90
14
 70
1
 10
88.56913827656133
 20
84.49699398797301
 10
88.56913827656133
 20
83.98797595190459
 10
88.56913827656133
 20
83.47895791583616
 10
88.22979291917018
 20
82.9699398797552
 10
88.0601202404746
 20
82.71543086172099
 10
87.80561122245071
 20
82.46092184368678
 10
87.55110220440734
 20
82.29124916500147
 10
87.29659318636398
 20
82.46092184368678
 10
87.21175684703564
 20
82.9699398797552
 10
87.24569138275919
 20
83.47895791583616
 10
87.21175684703564
 20
83.98797595190459
 10
87.55110220440734
 20
84.49699398797301
 10
88.0601202404746
 20
85.00601202405397
 10
88.56913827656133
 20
84.49699398797301
  0
LWPOLYLINE
  5
38
330
17
100
AcDbEntity
  8
relief
100
AcDbPolyline
 90
12
 70
1
 10
74.06212424849828
 20
146.0881763527039
 10
74.31663326654164
 20
145.57915831663544
 10
73.80761523045491
 20
145.32464929860123
 10
73.55310621241154
 20
145.07014028056702
 10
73.29859719438764
 20
144.8156312625203
 10
72.78957915832038
 20
145.07014028056702
 10
72.28056112225312
 20
145.57915831663544
 10
72.28056112225312
 20
146.0881763527039
 10
72.78957915832038
 20
146.427521710087
 10
73.29859719438764
 20
146.59719438877232
 10
73.80761523045491
 20
146.25784903138918
 10
74.06212424849828
 20
146.0881763527039
  0
LWPOLYLINE
  5
39
330
17
100
AcDbEntity
  8
relief
100
AcDbPolyline
 90
15
 70
1
 10
72.28056112225312
 20
148.8877755511053
 10
72.78957915832038
 20
148.63326653307107
 10
72.78957915832038
 20
148.12424849699013
 10
72.28056112225312
 20
147.86973947895592
 10
72.02605210420975
 20
147.6152304609217
 10
71.77154308616639
 20
147.10621242485325
 10
71.26252505009911
 20
146.59719438877232
 10
70.75350701403185
 20
146.59719438877232
 10
70.2444889779646
 20
147.10621242485325
 10
70.49899799600796
 20
147.6152304609217
 10
70.49899799600796
 20
148.12424849699013
 10
70.75350701403185
 20
148.37875751502435
 10
71.26252505009911
 20
148.63326653307107
 10
71.77154308616639
 20
148.80293921176892
 10
72.28056112225312
 20
148.8877755511053
  0
LWPOLYLINE
  5
3A
330
17
100
AcDbEntity
  8
relief
100
AcDbPolyline
 90
56
 70
1
 10
78.77054108216427
 20
166.9579158316598
 10
78.64328657316207
 20
167.46693386774075
 10
78.64328657316207
 20
167.97595190380918
 10
78.64328657316207
 20
168.4849699398776
 10
78.55845023381427
 20
168.99398797594603
 10
78.64328657316207
 20
169.503006012027
 10
78.89779559118597
 20
169.7575150300612
 10
79.40681362725323
 20
169.7575150300612
 10
79.50861723446279
 20
169.503006012027
 10
79.53406813625544
 20
168.99398797594603
 10
79.6613226452966
 20
168.4849699398776
 10
79.91583166332049
 20
168.2304609218434
 10
80.42484969940722
 20
168.145624582507
 10
80.9338677354745
 20
167.97595190380918
 10
81.18837675351786
 20
167.46693386774075
 10
81.44288577154175
 20
167.21242484970654
 10
81.95190380760901
 20
167.46693386774075
 10
82.46092184369574
 20
167.46693386774075
 10
82.80026720106744
 20
167.97595190380918
 10
82.96993987974355
 20
168.145624582507
 10
83.47895791583028
 20
168.17955911823904
 10
83.98797595189754
 20
168.17955911823904
 10
84.49699398798427
 20
168.1032064128263
 10
85.00601202405154
 20
168.3152972611923
 10
85.5150300601188
 20
168.145624582507
 10
85.7695390781427
 20
167.97595190380918
 10
85.8543754174905
 20
167.46693386774075
 10
86.02404809618606
 20
166.9579158316598
 10
86.53306613227281
 20
167.46693386774075
 10
87.04208416834008
 20
167.72144288577496
 10
87.21175684701619
 20
167.46693386774075
 10
87.55110220440734
 20
166.9579158316598
 10
87.55110220440734
 20
166.44889779559136
 10
87.55110220440734
 20
165.93987975952294
 10
87.04208416834008
 20
165.6853707414762
 10
86.53306613227281
 20
165.77020708082512
 10
86.02404809618606
 20
165.77020708082512
 10
85.7695390781427
 20
165.93987975952294
 10
85.5150300601188
 20
166.10955243820823
 10
85.00601202405154
 20
166.44889779559136
 10
84.49699398798427
 20
166.44889779559136
 10
84.2424849699409
 20
165.93987975952294
 10
83.98797595189754
 20
165.77020708082512
 10
83.47895791583028
 20
165.77020708082512
 10
82.96993987976302
 20
165.6005344021398
 10
82.46092184369574
 20
165.43086172344198
 10
81.95190380760901
 20
165.43086172344198
 10
81.44288577154175
 20
165.6005344021398
 10
81.10354041417006
 20
165.93987975952294
 10
80.9338677354745
 20
166.44889779559136
 10
80.9338677354745
 20
166.9579158316598
 10
80.42484969940722
 20
166.44889779559136
 10
79.91583166332049
 20
166.55070140280003
 10
79.40681362725323
 20
166.44889779559136
 10
78.89779559118597
 20
166.70340681362558
 10
78.77054108216427
 20
166.9579158316598
  0
LWPOLYLINE
  5
3B
330
17
100
AcDbEntity
  8
relief
100
AcDbPolyline
 90
71
 70
1
 10
76.35270541083018
 20
177.6472945891845
 10
76.86172344689744
 20
178.15631262525292
 10
77.3707414829647
 20
178.66533066132135
 10
76.86172344689744
 20
178.91983967935556
 10
76.75991983966841
 20
179.17434869738977
 10
76.63549320865613
 20
179.68336673347073
 10
76.69205076820185
 20
180.19238476953916
 10
76.86172344689744
 20
180.5317301269223
 10
77.3707414829647
 20
180.7014028056076
 10
77.54041416166028
 20
181.21042084168855
 10
77.3707414829647
 20
181.71943887775697
 10
76.86172344689744
 20
181.71943887775697
 10
76.52237808950628
 20
181.21042084168855
 10
76.35270541083018
 20
180.95591182365433
 10
75.84368737474342
 20
180.7014028056076
 10
75.33466933867616
 20
181.21042084168855
 10
75.50434201737175
 20
181.71943887775697
 10
75.84368737474342
 20
182.2284569138254
 10
75.97094188376512
 20
182.73747494989382
 10
75.92852371409123
 20
183.24649298597478
 10
76.35270541083018
 20
183.610077297454
 10
76.60721442885408
 20
183.7555110220432
 10
76.86172344689744
 20
184.09485637942635
 10
77.11623246494081
 20
184.26452905811163
 10
77.3707414829647
 20
184.43420173680946
 10
77.87975951903196
 20
184.46813627254153
 10
78.04943219772754
 20
184.26452905811163
 10
78.08336673347056
 20
183.7555110220432
 10
78.3887775551187
 20
183.3737474949919
 10
78.64328657316207
 20
183.24649298597478
 10
78.89779559118597
 20
183.1616566466259
 10
79.40681362725323
 20
183.14468937875358
 10
79.69768107643453
 20
182.73747494989382
 10
79.71222444890137
 20
182.2284569138254
 10
79.6613226452966
 20
181.71943887775697
 10
79.6613226452966
 20
181.21042084168855
 10
79.74615898462491
 20
180.7014028056076
 10
79.40681362725323
 20
180.19238476953916
 10
78.89779559118597
 20
179.93787575150495
 10
78.3887775551187
 20
179.85303941215602
 10
78.21910487642312
 20
179.68336673347073
 10
78.04943219772754
 20
179.17434869738977
 10
78.3887775551187
 20
178.66533066132135
 10
78.89779559118597
 20
178.66533066132135
 10
79.15230460920986
 20
179.17434869738977
 10
79.40681362725323
 20
179.68336673347073
 10
79.91583166332049
 20
179.17434869738977
 10
79.6613226452966
 20
178.66533066132135
 10
79.40681362725323
 20
178.15631262525292
 10
79.6613226452966
 20
177.6472945891845
 10
79.40681362725323
 20
177.47762191048665
 10
78.89779559118597
 20
177.6472945891845
 10
78.3887775551187
 20
177.6472945891845
 10
77.87975951903196
 20
178.15631262525292
 10
77.87975951903196
 20
177.6472945891845
 10
78.13426853707533
 20
177.13827655310354
 10
78.3887775551187
 20
176.88376753506932
 10
78.5584502337948
 20
176.6292585170351
 10
78.8977955911665
 20
176.2899131596645
 10
79.02505010018818
 20
176.12024048096666
 10
79.23714094855764
 20
175.61122244488573
 10
79.06746826986208
 20
175.1022044088173
 10
78.8977955911665
 20
174.93253173013198
 10
78.3887775551187
 20
174.76285905143416
 10
78.04943219772754
 20
175.1022044088173
 10
77.87975951903196
 20
175.61122244488573
 10
77.3707414829647
 20
175.78089512358355
 10
77.03139612559302
 20
176.12024048096666
 10
76.86172344689744
 20
176.6292585170351
 10
76.69205076820185
 20
177.13827655310354
 10
76.35270541083018
 20
177.6472945891845
  0
LWPOLYLINE
  5
3C
330
17
100
AcDbEntity
  8
relief
100
AcDbPolyline
 90
17
 70
1
 10
81.44288577154175
 20
183.7555110220432
 10
81.95190380760901
 20
183.24649298597478
 10
82.46092184369574
 20
182.99198396792804
 10
82.96993987976302
 20
183.14468937875358
 10
83.47895791583028
 20
183.07682030727696
 10
83.98797595189754
 20
182.73747494989382
 10
83.98797595189754
 20
182.2284569138254
 10
83.73346693387364
 20
181.71943887775697
 10
83.47895791583028
 20
181.46492985972276
 10
82.96993987976302
 20
181.38009352037383
 10
82.76633266534391
 20
181.71943887775697
 10
82.46092184369574
 20
182.2284569138254
 10
81.95190380760901
 20
182.4829659318596
 10
81.44288577154175
 20
182.2284569138254
 10
81.27321309284618
 20
182.73747494989382
 10
81.31563126252009
 20
183.24649298597478
 10
81.44288577154175
 20
183.7555110220432
  0
LWPOLYLINE
  5
3D
330
17
100
AcDbEntity
  8
relief
100
AcDbPolyline
 90
25
 70
1
 10
89.07815631260914
 20
188.50634602538196
 10
89.58717434869587
 20
188.8456913827651
 10
90.09619238476313
 20
188.67601870407978
 10
90.60521042084986
 20
188.44978846582018
 10
90.94455577822156
 20
188.33667334669664
 10
91.11422845691712
 20
188.25183700734775
 10
91.53841015363659
 20
187.8276553106157
 10
91.45357381428882
 20
187.31863727454729
 10
91.11422845691712
 20
186.97929191716415
 10
90.98697394789545
 20
186.80961923847883
 10
90.85971943889322
 20
186.3006012024104
 10
90.60521042084986
 20
186.13092852372512
 10
90.09619238476313
 20
186.0460921843637
 10
89.58717434869587
 20
186.0460921843637
 10
89.07815631262861
 20
185.79158316632945
 10
88.56913827656133
 20
185.53707414829523
 10
88.0601202404746
 20
185.62191048764416
 10
87.80561122245071
 20
185.79158316632945
 10
87.85651302603601
 20
186.3006012024104
 10
87.93286573147238
 20
186.80961923847883
 10
87.55110220440734
 20
187.31863727454729
 10
87.89044756177901
 20
187.8276553106157
 10
88.0601202404746
 20
187.99732798931353
 10
88.56913827656133
 20
188.33667334669664
 10
89.07815631260914
 20
188.50634602538196
  0
LWPOLYLINE
  5
3E
330
17
100
AcDbEntity
  8
relief
100
AcDbPolyline
 90
195
 70
1
 10
109.03166332665616
 20
239.74749498998378
 10
108.92985971944661
 20
239.8323313293327
 10
108.42084168335988
 20
240.05290581162234
 10
108.21723446892129
 20
240.2565130260522
 10
107.91182364729261
 20
240.76553106212063
 10
107.40280561122535
 20
241.02004008015487
 10
106.89378757515809
 20
241.04831885994201
 10
106.38476953907136
 20
240.76553106212063
 10
105.87575150300408
 20
240.91823647294618
 10
105.36673346691734
 20
241.10487641950377
 10
105.17585170340429
 20
241.2745490982016
 10
104.85771543086956
 20
241.5926853707381
 10
104.34869739478282
 20
241.78356713427002
 10
103.83967935871554
 20
241.78356713427002
 10
103.33066132264828
 20
242.19078156312978
 10
103.24582498330051
 20
242.29258517033844
 10
102.82164328658102
 20
242.61072144287496
 10
102.51623246493288
 20
242.8016032064069
 10
102.31262525049429
 20
242.928857715424
 10
101.87632407672236
 20
243.31062124248783
 10
101.80360721442703
 20
243.56513026052204
 10
101.63393453573146
 20
243.81963927855628
 10
101.54909819640312
 20
244.3286573146247
 10
101.67635270542482
 20
244.83767535070564
 10
101.80360721442703
 20
245.00734802939095
 10
101.87147628589358
 20
245.3466933867741
 10
101.86723446893787
 20
245.85571142284252
 10
101.80360721442703
 20
246.19505678023816
 10
101.63393453573146
 20
246.36472945892345
 10
101.29458917835976
 20
246.53440213760877
 10
100.78557114227303
 20
246.7719438877832
 10
100.27655310620577
 20
246.80103063270357
 10
99.7675350701385
 20
246.53440213760877
 10
99.56392785571938
 20
246.36472945892345
 10
99.38577154309291
 20
245.85571142284252
 10
99.25851703407123
 20
245.6012024048083
 10
99.1948897795604
 20
245.3466933867741
 10
99.05490981963266
 20
244.83767535070564
 10
98.91917167668008
 20
244.3286573146247
 10
98.74949899800397
 20
244.1832235900355
 10
98.24048096191724
 20
244.11050672773464
 10
97.73146292584998
 20
244.1832235900355
 10
97.52785571143086
 20
244.3286573146247
 10
97.22244488978271
 20
244.58316633265892
 10
96.71342685371545
 20
244.66800267200782
 10
96.5679931291248
 20
244.83767535070564
 10
96.2044088176287
 20
245.1558116232547
 10
95.94989979960482
 20
245.3466933867741
 10
95.69539078156144
 20
245.5375751502935
 10
95.27120908484197
 20
245.85571142284252
 10
95.18637274549418
 20
245.95751503006372
 10
94.8470273881225
 20
246.36472945892345
 10
94.67735470942692
 20
246.46653306613214
 10
94.16833667334018
 20
246.6192384769577
 10
93.65931863727292
 20
246.8737474949919
 10
93.27755511022734
 20
247.38276553106033
 10
93.15030060120564
 20
247.89178356712875
 10
92.64128256513838
 20
248.32808474092138
 10
92.4716098864428
 20
248.40080160320971
 10
92.13226452905165
 20
248.65531062124393
 10
92.0304609218421
 20
248.90981963927814
 10
92.01914940992127
 20
249.41883767534657
 10
92.05954766673686
 20
249.92785571142753
 10
91.91411394216568
 20
250.43687374749595
 10
91.62324649298439
 20
250.94589178356438
 10
91.62324649298439
 20
251.45490981964534
 10
92.13226452905165
 20
251.83667334669664
 10
92.30193720774723
 20
251.96392785571376
 10
92.13226452905165
 20
252.13360053439908
 10
91.62324649298439
 20
252.21843687374798
 10
91.11422845691712
 20
252.13360053439908
 10
90.60521042084986
 20
251.96392785571376
 10
90.09619238476313
 20
251.96392785571376
 10
89.58717434869587
 20
251.87909151636484
 10
89.07815631262861
 20
251.64579158316474
 10
88.56913827656133
 20
251.6585170340752
 10
88.0601202404746
 20
251.90030060121148
 10
87.98740337815981
 20
251.96392785571376
 10
87.55110220440734
 20
252.21843687374798
 10
87.34749498998822
 20
252.4729458917822
 10
87.07389779558575
 20
252.98196392785061
 10
87.04208416834008
 20
253.06680026719954
 10
86.6179024716206
 20
253.49098196393157
 10
86.53306613227281
 20
253.7454909819658
 10
86.40581162325113
 20
254.0
 10
86.53306613227281
 20
254.0
 10
87.04208416834008
 20
254.0
 10
87.55110220440734
 20
254.0
 10
88.0601202404746
 20
254.0
 10
88.56913827656133
 20
254.0
 10
89.07815631262861
 20
254.0
 10
89.58717434869587
 20
254.0
 10
90.09619238476313
 20
254.0
 10
90.60521042084986
 20
254.0
 10
91.11422845691712
 20
254.0
 10
91.62324649298439
 20
254.0
 10
92.13226452905165
 20
254.0
 10
92.64128256513838
 20
254.0
 10
93.15030060120564
 20
254.0
 10
93.40480961924901
 20
254.0
 10
93.35390781562477
 20
253.49098196393157
 10
93.57448229792513
 20
252.98196392785061
 10
93.65931863727292
 20
252.4729458917822
 10
93.76112224448248
 20
252.98196392785061
 10
94.16833667334018
 20
253.38917835671037
 10
94.23196392785103
 20
253.49098196393157
 10
94.27014028054975
 20
254.0
 10
94.67735470942692
 20
254.0
 10
95.18637274549418
 20
254.0
 10
95.69539078156144
 20
254.0
 10
96.2044088176287
 20
254.0
 10
96.71342685371545
 20
254.0
 10
97.22244488978271
 20
254.0
 10
97.73146292584998
 20
254.0
 10
98.24048096191724
 20
254.0
 10
98.74949899800397
 20
254.0
 10
99.25851703407123
 20
254.0
 10
99.7675350701385
 20
254.0
 10
100.27655310620577
 20
254.0
 10
100.7855711422925
 20
254.0
 10
101.29458917835976
 20
254.0
 10
101.80360721442703
 20
254.0
 10
102.31262525049429
 20
254.0
 10
102.82164328658102
 20
254.0
 10
103.33066132264828
 20
254.0
 10
103.83967935871554
 20
254.0
 10
104.34869739478282
 20
254.0
 10
104.85771543086956
 20
254.0
 10
105.36673346693682
 20
254.0
 10
105.87575150300408
 20
254.0
 10
106.38476953907136
 20
254.0
 10
106.89378757515809
 20
254.0
 10
107.40280561122535
 20
254.0
 10
107.91182364729261
 20
254.0
 10
108.42084168335988
 20
254.0
 10
108.92985971944661
 20
254.0
 10
109.43887775551387
 20
254.0
 10
109.43887775551387
 20
253.49098196393157
 10
109.94789579158113
 20
253.8727454909829
 10
110.20240480960504
 20
254.0
 10
110.4569138276484
 20
254.0
 10
110.96593186373514
 20
254.0
 10
111.4749498998024
 20
254.0
 10
111.98396793586966
 20
254.0
 10
112.49298597193693
 20
254.0
 10
112.71113655884237
 20
254.0
 10
112.92928714572834
 20
253.49098196393157
 10
113.00200400802366
 20
253.38917835671037
 10
113.40921843688136
 20
252.98196392785061
 10
113.51102204409092
 20
252.88016032064195
 10
113.85036740146262
 20
252.4729458917822
 10
114.02004008015818
 20
252.26933867735232
 10
114.14729458916041
 20
251.96392785571376
 10
114.25141191474837
 20
251.45490981964534
 10
114.3836243916348
 20
250.94589178356438
 10
114.45634125393013
 20
250.43687374749595
 10
114.46543086171461
 20
249.92785571142753
 10
114.52905811622546
 20
249.6733466933933
 10
114.65631262524714
 20
249.41883767534657
 10
114.61389445555378
 20
248.90981963927814
 10
114.52905811622546
 20
248.40080160320971
 10
114.39023501548692
 20
247.89178356712875
 10
114.35938543752988
 20
247.38276553106033
 10
114.3439606485611
 20
246.8737474949919
 10
114.3836243916348
 20
246.36472945892345
 10
114.3836243916348
 20
245.85571142284252
 10
114.52905811622546
 20
245.65210420841262
 10
115.0380761523122
 20
245.3466933867741
 10
115.54709418837946
 20
245.3466933867741
 10
116.05611222444672
 20
245.04128256513553
 10
116.25971943886583
 20
244.83767535070564
 10
116.56513026051398
 20
244.3286573146247
 10
116.4378757514923
 20
243.81963927855628
 10
116.31062124249009
 20
243.31062124248783
 10
116.05611222444672
 20
242.8016032064069
 10
115.91067849985608
 20
242.29258517033844
 10
115.80160320640334
 20
241.78356713427002
 10
115.64889779558901
 20
241.2745490982016
 10
115.54709418837946
 20
240.76553106212063
 10
115.41983967935776
 20
240.2565130260522
 10
115.24168336675076
 20
239.74749498998378
 10
115.0380761523122
 20
239.23847695390282
 10
114.52905811622546
 20
238.7294589178344
 10
114.02004008015818
 20
238.538577154315
 10
113.51102204409092
 20
238.47494989980018
 10
113.00200400802366
 20
238.3476953907831
 10
112.49298597193693
 20
238.61634379871086
 10
111.98396793586966
 20
238.67290135827264
 10
111.72945891782629
 20
238.7294589178344
 10
111.4749498998024
 20
238.81429525718332
 10
110.96593186373514
 20
239.03486973947295
 10
110.4569138276484
 20
239.03486973947295
 10
109.94789579158113
 20
239.23847695390282
 10
109.43887775551387
 20
239.52126475172417
 10
109.03166332665616
 20
239.74749498998378
  0
LWPOLYLINE
  5
3F
330
17
100
AcDbEntity
  8
relief
100
AcDbPolyline
 90
94
 70
1
 10
195.97194388776654
 20
3.902471609887184
 10
195.4629258516993
 20
4.0721442885724874
 10
194.95390781563202
 20
4.199398797589595
 10
194.44488977956473
 20
4.326653306606703
 10
193.935871743478
 20
4.411489645955615
 10
193.42685370741077
 20
4.156980627921399
 10
192.91783567134348
 20
4.144861150873344
 10
192.4088176352762
 20
4.453907815636331
 10
192.23914495658062
 20
4.581162324653439
 10
192.4088176352762
 20
5.090180360721869
 10
191.89979959918946
 20
5.5991983967903005
 10
191.39078156312223
 20
6.108216432871251
 10
191.13627254509834
 20
6.6172344689396825
 10
191.22110888442666
 20
7.126252505008114
 10
191.39078156312223
 20
7.2959251836934165
 10
191.89979959918946
 20
7.253507014025221
 10
192.4088176352762
 20
7.126252505008114
 10
192.4088176352762
 20
6.6172344689396825
 10
192.91783567134348
 20
6.871743486973898
 10
193.08750835003906
 20
7.126252505008114
 10
192.91783567134348
 20
7.228056112216791
 10
192.57849031397183
 20
7.635270541076544
 10
192.77240194675284
 20
8.144288577157495
 10
192.91783567134348
 20
8.483633934540622
 10
193.01963927855303
 20
8.653306613225926
 10
193.17234468936738
 20
9.162324649294357
 10
193.08750835003906
 20
9.671342685375308
 10
193.42685370741077
 20
10.180360721443739
 10
193.935871743478
 20
10.180360721443739
 10
194.06312625249973
 20
10.68937875751217
 10
194.44488977956473
 20
11.071142284576014
 10
194.95390781563202
 20
11.096593186371923
 10
195.4629258516993
 20
11.19839679359312
 10
195.76833667332795
 20
11.707414829661552
 10
195.97194388776654
 20
11.877087508346856
 10
196.48096192385327
 20
12.216432865729983
 10
196.98997995992056
 20
12.216432865729983
 10
197.4989979959878
 20
12.343687374747091
 10
198.00801603205508
 20
12.623647294589736
 10
198.17768871075066
 20
12.725450901798414
 10
198.5170340681418
 20
12.895123580496238
 10
199.02605210420904
 20
12.725450901798414
 10
199.53507014027633
 20
12.386105544427807
 10
199.78957915830023
 20
12.216432865729983
 10
200.04408817634356
 20
12.04676018704468
 10
200.55310621243035
 20
12.114629258521305
 10
201.06212424849758
 20
12.04676018704468
 10
201.4014696058693
 20
12.216432865729983
 10
201.57114228456487
 20
12.280060120244798
 10
202.0801603206321
 20
12.55577822311311
 10
202.58917835671883
 20
12.470941883764198
 10
202.75885103539497
 20
12.216432865729983
 10
202.97094188376445
 20
11.707414829661552
 10
203.09819639278612
 20
11.452905811627337
 10
203.35270541082946
 20
11.19839679359312
 10
203.6072144288534
 20
11.028724114895297
 10
204.11623246492064
 20
10.943887775546385
 10
204.62525050100737
 20
10.943887775546385
 10
204.84340108789337
 20
10.68937875751217
 10
204.81613226453993
 20
10.180360721443739
 10
204.7525050100096
 20
9.671342685375308
 10
204.7949231796835
 20
9.162324649294357
 10
204.62525050100737
 20
8.653306613225926
 10
204.4555778223118
 20
8.144288577157495
 10
204.11623246492064
 20
7.804943219774368
 10
203.94655978622507
 20
7.635270541076544
 10
203.6072144288534
 20
7.2959251836934165
 10
203.54358717434252
 20
7.126252505008114
 10
203.6072144288534
 20
6.95657982632281
 10
204.11623246492064
 20
6.871743486973898
 10
204.62525050100737
 20
6.6172344689396825
 10
204.91611795018866
 20
6.108216432871251
 10
204.7100868403357
 20
5.5991983967903005
 10
204.62525050100737
 20
5.471943887773192
 10
204.11623246492064
 20
5.090180360721869
 10
204.11623246492064
 20
4.581162324653439
 10
203.6072144288534
 20
4.275751503002364
 10
203.09819639278612
 20
4.217578013161679
 10
202.58917835671883
 20
4.156980627921399
 10
202.0801603206321
 20
4.156980627921399
 10
201.57114228456487
 20
4.267920456298819
 10
201.06212424849758
 20
4.1739478957936855
 10
200.72277889110643
 20
4.0721442885724874
 10
200.55310621243035
 20
3.563126252504057
 10
200.04408817634356
 20
3.563126252504057
 10
199.53507014027633
 20
3.3086172344698412
 10
199.02605210420904
 20
3.0541082164356257
 10
198.6867067468374
 20
3.563126252504057
 10
198.5170340681418
 20
3.690380761521164
 10
198.00801603205508
 20
3.9703406813638096
 10
197.4989979959878
 20
3.9703406813638096
 10
196.98997995992056
 20
3.9873079492235752
 10
196.48096192385327
 20
3.999427426271631
 10
195.97194388776654
 20
3.902471609887184
  0
LWPOLYLINE
  5
40
330
17
100
AcDbEntity
  8
relief
100
AcDbPolyline
 90
5
 70
1
 10
202.0801603206321
 20
10.68937875751217
 10
202.58917835671883
 20
10.180360721443739
 10
203.09819639278612
 20
10.68937875751217
 10
202.58917835671883
 20
10.68937875751217
 10
202.0801603206321
 20
10.68937875751217
  0
LWPOLYLINE
  5
41
330
17
100
AcDbEntity
  8
relief
100
AcDbPolyline
 90
16
 70
1
 10
163.90380761523687
 20
66.85103540415057
 10
164.07348029391295
 20
66.68136272545273
 10
164.4128256513041
 20
66.1723446893843
 10
164.9218436873714
 20
66.29959919840141
 10
165.43086172343862
 20
66.29959919840141
 10
165.5581162324603
 20
66.1723446893843
 10
165.43086172343862
 20
65.66332665330336
 10
164.9218436873714
 20
65.49365397461806
 10
164.4128256513041
 20
65.40881763526914
 10
164.1583166332802
 20
65.66332665330336
 10
163.90380761523687
 20
65.91783567133757
 10
163.39478957915014
 20
65.91783567133757
 10
162.88577154308285
 20
66.1723446893843
 10
162.88577154308285
 20
66.68136272545273
 10
163.39478957915014
 20
67.02070808283587
 10
163.90380761523687
 20
66.85103540415057
  0
LWPOLYLINE
  5
42
330
17
100
AcDbEntity
  8
relief
100
AcDbPolyline
 90
24
 70
1
 10
155.25050100199599
 20
72.78957915831147
 10
155.75951903808271
 20
72.78957915831147
 10
156.26853707415
 20
72.78957915831147
 10
156.60788243152172
 20
72.28056112224303
 10
156.77755511021724
 20
72.02605210420882
 10
157.28657314628452
 20
72.28056112224303
 10
157.79559118237125
 20
72.53507014027726
 10
158.3046092184385
 20
72.28056112224303
 10
158.3046092184385
 20
71.7715430861746
 10
158.13493653974297
 20
71.26252505010618
 10
157.9652638610474
 20
70.75350701402522
 10
157.92284569137348
 20
70.24448897795679
 10
157.9652638610474
 20
69.73547094188837
 10
157.79559118237125
 20
69.2264529058074
 10
157.28657314628452
 20
69.2264529058074
 10
156.77755511021724
 20
69.2264529058074
 10
156.26853707415
 20
69.73547094188837
 10
155.75951903808271
 20
70.24448897795679
 10
156.09886439545443
 20
70.75350701402522
 10
156.09886439545443
 20
71.26252505010618
 10
155.75951903808271
 20
71.7715430861746
 10
155.25050100199599
 20
72.11088844355773
 10
154.99599198395265
 20
72.28056112224303
 10
155.25050100199599
 20
72.78957915831147
  0
LWPOLYLINE
  5
43
330
17
100
AcDbEntity
  8
relief
100
AcDbPolyline
 90
101
 70
1
 10
158.3046092184385
 20
75.33466933867867
 10
157.79559118237125
 20
75.16499665999336
 10
157.28657314628452
 20
74.99532398129553
 10
157.03206412826063
 20
74.82565130261023
 10
156.77755511021724
 20
74.57114228457601
 10
156.5230460921739
 20
74.31663326652928
 10
156.2685370741305
 20
74.14696058784398
 10
156.09886439545443
 20
74.31663326652928
 10
155.75951903808271
 20
74.65597862392492
 10
155.25050100199599
 20
74.31663326652928
 10
154.74148296592875
 20
73.90941883766952
 10
154.334268537071
 20
74.31663326652928
 10
154.23246492986146
 20
74.82565130261023
 10
153.72344689379423
 20
75.20741482966156
 10
153.5537742150986
 20
75.33466933867867
 10
153.2144288577075
 20
75.58917835671288
 10
152.7054108216402
 20
75.58917835671288
 10
152.19639278557298
 20
75.58917835671288
 10
151.6873747495057
 20
75.84368737474709
 10
151.6873747495057
 20
76.35270541081552
 10
152.19639278557298
 20
76.86172344689648
 10
152.7054108216402
 20
77.2010688042796
 10
152.9599198396836
 20
77.3707414829649
 10
153.2144288577075
 20
77.54041416166272
 10
153.5537742150986
 20
77.87975951903334
 10
153.72344689379423
 20
78.04943219773116
 10
154.23246492986146
 20
78.38877755511429
 10
154.23246492986146
 20
78.89779559118271
 10
153.72344689379423
 20
79.40681362725115
 10
153.89311957248975
 20
79.9158316633321
 10
153.89311957248975
 20
80.42484969940053
 10
153.72344689379423
 20
80.59452237808584
 10
153.38410153640302
 20
80.93386773546897
 10
153.2144288577075
 20
81.44288577153739
 10
153.72344689379423
 20
81.95190380761835
 10
154.23246492986146
 20
81.78223112892051
 10
154.74148296592875
 20
81.69739478958412
 10
154.91115564460483
 20
81.44288577153739
 10
155.25050100199599
 20
81.10354041416679
 10
155.75951903808271
 20
81.44288577153739
 10
155.9291917167783
 20
81.95190380761835
 10
156.26853707415
 20
82.29124916500147
 10
156.77755511021724
 20
82.46092184368678
 10
157.28657314628452
 20
82.46092184368678
 10
157.79559118237125
 20
82.63059452237208
 10
158.3046092184385
 20
82.9699398797552
 10
158.81362725450577
 20
83.47895791583616
 10
159.32264529057306
 20
82.9699398797552
 10
159.32264529057306
 20
82.46092184368678
 10
159.8316633266598
 20
81.95190380761835
 10
160.34068136272703
 20
81.95190380761835
 10
160.84969939879431
 20
81.69739478958412
 10
161.1042084168377
 20
81.44288577153739
 10
161.1042084168377
 20
80.93386773546897
 10
161.3587174348616
 20
80.67935871743475
 10
161.86773547092884
 20
80.52665330662172
 10
162.12224448897223
 20
80.42484969940053
 10
162.37675350701556
 20
80.17034068136631
 10
162.47855711422517
 20
79.9158316633321
 10
162.47855711422517
 20
79.40681362725115
 10
162.63126252505896
 20
78.89779559118271
 10
162.88577154308285
 20
78.38877755511429
 10
163.39478957915014
 20
78.26152304609718
 10
163.90380761523687
 20
78.13426853708008
 10
164.24315297260853
 20
77.87975951903334
 10
164.4128256513041
 20
77.62525050099912
 10
164.9218436873714
 20
77.87975951903334
 10
165.43086172343862
 20
77.87975951903334
 10
165.93987975952535
 20
77.3707414829649
 10
165.93987975952535
 20
76.86172344689648
 10
166.19438877754925
 20
76.35270541081552
 10
165.93987975952535
 20
75.84368737474709
 10
165.68537074148202
 20
75.33466933867867
 10
165.43086172343862
 20
75.16499665999336
 10
164.9218436873714
 20
75.08016032064445
 10
164.4128256513041
 20
75.08016032064445
 10
164.1583166332802
 20
74.82565130261023
 10
164.07348029391295
 20
74.31663326652928
 10
163.90380761523687
 20
73.80761523046085
 10
163.64929859719348
 20
73.29859719439241
 10
163.39478957915014
 20
72.78957915831147
 10
162.88577154308285
 20
73.04408817634568
 10
162.71609886438728
 20
73.29859719439241
 10
162.37675350699612
 20
73.63794255177555
 10
161.86773547094833
 20
73.80761523046085
 10
161.3587174348616
 20
73.80761523046085
 10
160.84969939879431
 20
73.29859719439241
 10
160.34068136272703
 20
72.78957915831147
 10
160.84969939879431
 20
72.53507014027726
 10
161.3587174348616
 20
72.28056112224303
 10
160.84969939879431
 20
71.7715430861746
 10
160.34068136272703
 20
71.7715430861746
 10
159.8316633266598
 20
72.02605210420882
 10
159.32264529057306
 20
72.11088844355773
 10
158.81362725450577
 20
72.28056112224303
 10
158.81362725450577
 20
72.78957915831147
 10
159.32264529057306
 20
73.29859719439241
 10
159.32264529057306
 20
73.80761523046085
 10
159.32264529057306
 20
74.31663326652928
 10
158.81362725450577
 20
74.82565130261023
 10
158.3046092184385
 20
75.33466933867867
  0
LWPOLYLINE
  5
44
330
17
100
AcDbEntity
  8
relief
100
AcDbPolyline
 90
4
 70
1
 10
157.28657314628452
 20
77.3707414829649
 10
156.77755511021724
 20
77.3707414829649
 10
157.28657314628452
 20
76.86172344689648
 10
157.28657314628452
 20
77.3707414829649
  0
LWPOLYLINE
  5
45
330
17
100
AcDbEntity
  8
relief
100
AcDbPolyline
 90
5
 70
1
 10
160.84969939879431
 20
79.15230460921693
 10
160.34068136272703
 20
78.89779559118271
 10
160.84969939879431
 20
78.6432865731485
 10
160.97695390781598
 20
78.89779559118271
 10
160.84969939879431
 20
79.15230460921693
  0
LWPOLYLINE
  5
46
330
17
100
AcDbEntity
  8
relief
100
AcDbPolyline
 90
14
 70
1
 10
164.00561122244642
 20
99.2585170340702
 10
163.90380761523687
 20
98.91917167668707
 10
163.73413493654124
 20
98.74949899800177
 10
163.39478957915014
 20
98.49498997996756
 10
162.88577154308285
 20
98.24048096192081
 10
162.37675350701556
 20
98.49498997996756
 10
161.86773547094833
 20
98.74949899800177
 10
161.3587174348616
 20
99.2585170340702
 10
161.86773547094833
 20
99.76753507013862
 10
162.37675350701556
 20
99.76753507013862
 10
162.88577154308285
 20
99.89478957915574
 10
163.39478957915014
 20
99.89478957915574
 10
163.90380761523687
 20
99.76753507013862
 10
164.00561122244642
 20
99.2585170340702
  0
LWPOLYLINE
  5
47
330
17
100
AcDbEntity
  8
relief
100
AcDbPolyline
 90
19
 70
1
 10
204.11623246492064
 20
182.99198396792804
 10
204.37074148296404
 20
183.24649298597478
 10
204.62525050100737
 20
183.4161656646726
 10
205.13426853707466
 20
183.58583834335792
 10
205.64328657314195
 20
183.7555110220432
 10
206.15230460920918
 20
183.7555110220432
 10
206.6613226452959
 20
183.24649298597478
 10
206.32197728790476
 20
182.73747494989382
 10
206.49164996660033
 20
182.2284569138254
 10
206.6613226452959
 20
181.71943887775697
 10
206.49164996660033
 20
181.21042084168855
 10
206.15230460920918
 20
180.95591182365433
 10
205.64328657314195
 20
181.21042084168855
 10
205.30394121577024
 20
181.71943887775697
 10
205.13426853707466
 20
181.97394789579118
 10
204.62525050100737
 20
182.2284569138254
 10
204.11623246492064
 20
182.2284569138254
 10
203.94655978622507
 20
182.73747494989382
 10
204.11623246492064
 20
182.99198396792804
  0
LWPOLYLINE
  5
48
330
17
100
AcDbEntity
  8
relief
100
AcDbPolyline
 90
40
 70
1
 10
163.39478957915014
 20
212.7695390781566
 10
163.39478957915014
 20
213.27855711422504
 10
163.05544422177843
 20
213.787575150306
 10
162.88577154308285
 20
213.91482965932312
 10
162.37675350701556
 20
214.29659318637442
 10
161.86773547094833
 20
214.80561122244288
 10
161.61322645290494
 20
215.3146292585113
 10
161.61322645290494
 20
215.82364729459223
 10
161.86773547094833
 20
216.3326653306607
 10
162.37675350701556
 20
216.5871743486949
 10
162.88577154308285
 20
216.45991983967778
 10
163.39478957915014
 20
216.4344689378819
 10
163.90380761523687
 20
216.40538219294902
 10
164.4128256513041
 20
216.5235470941926
 10
164.9218436873714
 20
216.73987975952042
 10
165.0915163660669
 20
216.84168336672911
 10
165.43086172343862
 20
216.95479848585265
 10
165.93987975952535
 20
217.02678083439378
 10
166.44889779559264
 20
216.94348697395031
 10
166.95791583165988
 20
216.94348697395031
 10
167.21242484968377
 20
216.84168336672911
 10
167.46693386772716
 20
216.3326653306607
 10
167.9759519038139
 20
215.82364729459223
 10
167.9759519038139
 20
215.3146292585113
 10
167.9759519038139
 20
214.80561122244288
 10
167.63660654642274
 20
214.29659318637442
 10
167.46693386772716
 20
213.787575150306
 10
167.46693386772716
 20
213.27855711422504
 10
167.41037630816197
 20
212.7695390781566
 10
167.21242484968377
 20
212.2605210420882
 10
166.95791583165988
 20
211.75150300600723
 10
166.44889779557315
 20
211.58183032732194
 10
165.9398797595059
 20
211.64969939879856
 10
165.8126252505037
 20
211.75150300600723
 10
165.7217291726394
 20
212.2605210420882
 10
165.43086172343862
 20
212.59986639947132
 10
164.9218436873714
 20
212.66773547094795
 10
164.4128256513041
 20
212.66773547094795
 10
163.90380761523687
 20
212.2605210420882
 10
163.39478957915014
 20
212.7695390781566
  0
LWPOLYLINE
  5
49
330
17
100
AcDbEntity
  8
relief
100
AcDbPolyline
 90
14
 70
1
 10
150.54208416833
 20
238.7294589178344
 10
150.46573146293258
 20
238.22044088176597
 10
150.16032064128444
 20
237.83867735471463
 10
149.65130260521715
 20
237.8132264529062
 10
149.39679358717376
 20
237.71142284569754
 10
149.14228456913042
 20
237.20240480961658
 10
148.63326653306314
 20
237.71142284569754
 10
148.7059833953585
 20
238.22044088176597
 10
148.8241482965762
 20
238.7294589178344
 10
149.14228456913042
 20
239.15364061455392
 10
149.65130260521715
 20
239.23847695390282
 10
150.16032064128444
 20
239.36573146291994
 10
150.41482965932778
 20
239.23847695390282
 10
150.54208416833
 20
238.7294589178344
  0
LWPOLYLINE
  5
4A
330
17
100
AcDbEntity
  8
relief
100
AcDbPolyline
 90
28
 70
1
 10
231.09418837675827
 20
170.52104208416384
 10
231.6032064128255
 20
170.35136940547855
 10
231.73046092184717
 20
170.52104208416384
 10
231.6032064128255
 20
171.0300601202448
 10
232.1122244488928
 20
171.284569138279
 10
232.62124248496002
 20
171.53907815631322
 10
233.13026052104675
 20
171.79358717434744
 10
233.63927855711404
 20
172.04809619238165
 10
233.89378757513794
 20
171.53907815631322
 10
234.14829659318127
 20
171.0300601202448
 10
234.65731462924856
 20
170.52104208416384
 10
234.14829659318127
 20
170.18169672678073
 10
233.63927855711404
 20
170.13927855711253
 10
233.13026052104675
 20
170.52104208416384
 10
233.13026052104675
 20
170.0120240480954
 10
232.96058784235117
 20
169.503006012027
 10
232.7484969939817
 20
168.99398797594603
 10
232.62124248496002
 20
168.82431529726074
 10
232.28189712756887
 20
168.4849699398776
 10
232.1122244488928
 20
168.3577154308605
 10
231.6032064128255
 20
168.4849699398776
 10
231.2638610554538
 20
168.99398797594603
 10
231.09418837675827
 20
169.24849699398024
 10
230.83967935871487
 20
169.503006012027
 10
230.58517034067148
 20
169.7575150300612
 10
230.3306613226476
 20
170.0120240480954
 10
230.58517034067148
 20
170.52104208416384
 10
231.09418837675827
 20
170.52104208416384
  0
LWPOLYLINE
  5
4B
330
17
100
AcDbEntity
  8
relief
100
AcDbPolyline
 90
17
 70
1
 10
230.07615230460425
 20
173.44789579158237
 10
230.58517034067148
 20
173.5751503005995
 10
230.83967935871487
 20
173.06613226453103
 10
230.58517034067148
 20
172.81162324649682
 10
230.41549766197596
 20
172.5571142284626
 10
230.58517034067148
 20
172.04809619238165
 10
231.09418837675827
 20
171.53907815631322
 10
230.58517034067148
 20
171.0300601202448
 10
230.07615230460425
 20
170.52104208416384
 10
229.56713426853696
 20
170.52104208416384
 10
229.05811623246973
 20
171.0300601202448
 10
229.31262525051307
 20
171.53907815631322
 10
229.56713426853696
 20
172.04809619238165
 10
229.31262525051307
 20
172.5571142284626
 10
229.39746158984138
 20
173.06613226453103
 10
229.56713426853696
 20
173.16793587175223
 10
230.07615230460425
 20
173.44789579158237
  0
LWPOLYLINE
  5
4C
330
17
100
AcDbEntity
  8
relief
100
AcDbPolyline
 90
19
 70
1
 10
226.51302605209446
 20
184.43420173680946
 10
227.0220440881812
 20
184.43420173680946
 10
227.27655310620509
 20
184.26452905811163
 10
227.27655310620509
 20
183.7555110220432
 10
227.27655310620509
 20
183.24649298597478
 10
227.0220440881812
 20
182.73747494989382
 10
226.7675350701378
 20
183.24649298597478
 10
226.51302605209446
 20
183.3737474949919
 10
226.25851703407056
 20
183.24649298597478
 10
226.00400801602717
 20
182.73747494989382
 10
225.49498997995994
 20
182.94108216432372
 10
224.98597194389265
 20
183.0768203072895
 10
224.81629926519707
 20
183.24649298597478
 10
224.98597194389265
 20
183.3737474949919
 10
225.2913827655408
 20
183.7555110220432
 10
225.49498997995994
 20
184.09485637942635
 10
225.66466265865552
 20
184.26452905811163
 10
226.00400801602717
 20
184.51903807615838
 10
226.51302605209446
 20
184.43420173680946
  0
LWPOLYLINE
  5
4D
330
17
100
AcDbEntity
  8
relief
100
AcDbPolyline
 90
45
 70
1
 10
218.02939211756865
 20
192.91783567133757
 10
217.85971943887307
 20
193.17234468937178
 10
217.35070140280584
 20
193.42685370741853
 10
217.35070140280584
 20
193.93587174348696
 10
217.6900467601775
 20
194.44488977955538
 10
217.73246492987084
 20
194.95390781563634
 10
217.60521042082974
 20
195.46292585170477
 10
217.35070140278634
 20
195.8022712090879
 10
216.8416833667191
 20
195.8871075484243
 10
216.67201068804297
 20
195.9719438877732
 10
216.84168336673855
 20
196.48096192384162
 10
217.35070140280584
 20
196.48096192384162
 10
217.85971943887307
 20
196.2264529058074
 10
218.11422845691646
 20
196.48096192384162
 10
218.36873747494036
 20
196.60821643285874
 10
218.8777555110271
 20
196.48096192384162
 10
219.38677354709432
 20
195.9719438877732
 10
219.8957915831616
 20
195.5901803607219
 10
220.40480961922884
 20
195.63259853039008
 10
220.91382765531563
 20
195.46292585170477
 10
220.40480961922884
 20
194.95390781563634
 10
219.8957915831616
 20
194.95390781563634
 10
219.38677354709432
 20
194.95390781563634
 10
219.13226452905099
 20
194.44488977955538
 10
219.38677354709432
 20
194.2752171008701
 10
219.8957915831616
 20
194.44488977955538
 10
220.40480961922884
 20
194.44488977955538
 10
220.65931863727224
 20
193.93587174348696
 10
220.40480961922884
 20
193.42685370741853
 10
220.40480961922884
 20
192.91783567133757
 10
219.8957915831616
 20
192.40881763526914
 10
219.64128256513771
 20
191.89979959920072
 10
219.8957915831616
 20
191.3907815631323
 10
219.64128256513771
 20
190.88176352705133
 10
219.38677354709432
 20
190.62725450901712
 10
219.21710086839875
 20
190.3727454909829
 10
218.8777555110271
 20
189.86372745491445
 10
218.36873747494036
 20
189.86372745491445
 10
218.11422845691646
 20
190.3727454909829
 10
218.19906479624478
 20
190.88176352705133
 10
218.36873747494036
 20
191.3907815631323
 10
218.6232464929837
 20
191.89979959920072
 10
218.6232464929837
 20
192.40881763526914
 10
218.36873747494036
 20
192.57849031395443
 10
218.02939211756865
 20
192.91783567133757
  0
LWPOLYLINE
  5
4E
330
17
100
AcDbEntity
  8
relief
100
AcDbPolyline
 90
29
 70
1
 10
221.08350033401115
 20
198.5170340681404
 10
221.42284569138286
 20
199.02605210420882
 10
221.93186372745015
 20
198.7715430861746
 10
222.44088176351738
 20
198.6188376753616
 10
222.9498997996041
 20
198.7715430861746
 10
223.4589178356714
 20
199.02605210420882
 10
223.96793587173863
 20
199.28056112224303
 10
224.30728122911034
 20
199.02605210420882
 10
224.17154308615778
 20
198.5170340681404
 10
223.96793587173863
 20
198.00801603205943
 10
223.96793587173863
 20
197.498997995991
 10
224.22244488976253
 20
196.98997995992258
 10
224.47695390780592
 20
196.48096192384162
 10
224.98597194389265
 20
196.48096192384162
 10
225.49498997994044
 20
196.14161656647101
 10
226.00400801602717
 20
195.9719438877732
 10
225.49498997994044
 20
195.8022712090879
 10
224.98597194389265
 20
195.63259853039008
 10
224.47695390780592
 20
195.46292585170477
 10
223.96793587173863
 20
195.9719438877732
 10
223.4589178356714
 20
195.9719438877732
 10
222.9498997996041
 20
195.71743486973898
 10
222.69539078156077
 20
195.9719438877732
 10
222.44088176351738
 20
196.48096192384162
 10
222.2712090848218
 20
196.98997995992258
 10
221.93186372745015
 20
197.32932531730572
 10
221.42284569138286
 20
197.498997995991
 10
221.21923847696377
 20
198.00801603205943
 10
221.08350033401115
 20
198.5170340681404
  0
LWPOLYLINE
  5
4F
330
17
100
AcDbEntity
  8
relief
100
AcDbPolyline
 90
16
 70
1
 10
214.29659318636328
 20
204.87975951904585
 10
214.80561122245
 20
205.1342685370801
 10
215.3146292585173
 20
205.1342685370801
 10
215.48430193719338
 20
204.62525050099913
 10
215.3146292585173
 20
204.1162324649307
 10
214.80561122245
 20
203.8617234468965
 10
214.29659318636328
 20
203.60721442886225
 10
213.787575150296
 20
203.09819639278132
 10
213.27855711420926
 20
203.43754175016443
 10
213.02404809620487
 20
203.60721442886225
 10
212.76953907816147
 20
203.8617234468965
 10
212.70591182365064
 20
204.1162324649307
 10
212.76953907814203
 20
204.2180360721519
 10
213.27855711422876
 20
204.37074148296492
 10
213.787575150296
 20
204.62525050099913
 10
214.29659318636328
 20
204.87975951904585
  0
LWPOLYLINE
  5
50
330
17
100
AcDbEntity
  8
relief
100
AcDbPolyline
 90
20
 70
1
 10
218.8777555110271
 20
206.40681362725115
 10
219.38677354709432
 20
206.66132264528537
 10
219.8957915831616
 20
206.66132264528537
 10
220.04122530775226
 20
206.15230460921694
 10
220.0654642618377
 20
205.64328657314852
 10
219.8957915831616
 20
205.30394121576538
 10
219.76853707413994
 20
205.1342685370801
 10
219.59038076151347
 20
204.62525050099913
 10
219.38677354709432
 20
204.1162324649307
 10
219.04742818970317
 20
203.60721442886225
 10
218.8777555110271
 20
203.52237808951335
 10
218.36873747494036
 20
203.47995991984516
 10
218.11422845691646
 20
203.60721442886225
 10
217.93243630116842
 20
204.1162324649307
 10
218.02939211756865
 20
204.62525050099913
 10
217.9869739478948
 20
205.1342685370801
 10
217.85971943887307
 20
205.64328657314852
 10
218.11422845691646
 20
206.15230460921694
 10
218.36873747494036
 20
206.40681362725115
 10
218.8777555110271
 20
206.40681362725115
  0
LWPOLYLINE
  5
51
330
17
100
AcDbEntity
  8
relief
100
AcDbPolyline
 90
17
 70
1
 10
210.733466933873
 20
207.31577440595552
 10
211.24248496994022
 20
207.42484969940054
 10
211.58183032731193
 20
207.17034068136633
 10
211.24248496994022
 20
206.8309953239832
 10
211.11523046091855
 20
206.66132264528537
 10
210.87890065846364
 20
206.15230460921694
 10
210.733466933873
 20
205.8129592518338
 10
210.60621242485126
 20
205.64328657314852
 10
210.2244488977862
 20
205.33787575150996
 10
209.71543086171897
 20
205.30394121576538
 10
209.51182364729988
 20
205.64328657314852
 10
209.3336673346734
 20
206.15230460921694
 10
209.20641282565168
 20
206.66132264528537
 10
209.5457581830234
 20
207.17034068136633
 10
209.71543086171897
 20
207.27214428858753
 10
210.2244488977862
 20
207.24305754365466
 10
210.733466933873
 20
207.31577440595552
  0
LWPOLYLINE
  5
52
330
17
100
AcDbEntity
  8
relief
100
AcDbPolyline
 90
14
 70
1
 10
219.38677354709432
 20
208.44288577154992
 10
219.8957915831616
 20
208.18837675350318
 10
219.38677354709432
 20
207.67935871743475
 10
218.8777555110271
 20
207.17034068136633
 10
218.36873747494036
 20
206.91583166331958
 10
217.85971943887307
 20
206.91583166331958
 10
217.35070140278634
 20
207.0006680026685
 10
217.09619238478194
 20
207.17034068136633
 10
216.84168336673855
 20
207.67935871743475
 10
217.35070140280584
 20
208.18837675350318
 10
217.85971943887307
 20
208.44288577154992
 10
218.36873747494036
 20
208.39198396793304
 10
218.8777555110271
 20
208.44288577154992
 10
219.38677354709432
 20
208.44288577154992
  0
LWPOLYLINE
  5
53
330
17
100
AcDbEntity
  8
relief
100
AcDbPolyline
 90
31
 70
1
 10
221.0410821643373
 20
210.22444889778942
 10
221.16833667335897
 20
210.73346693387037
 10
221.42284569138286
 20
211.2424849699388
 10
221.67735470940676
 20
211.75150300600723
 10
221.93186372745015
 20
212.00601202405397
 10
222.1863727454935
 20
212.2605210420882
 10
222.44088176351738
 20
212.5150300601224
 10
222.9498997996041
 20
212.5150300601224
 10
223.204408817628
 20
212.2605210420882
 10
223.204408817628
 20
211.75150300600723
 10
223.4589178356714
 20
211.2424849699388
 10
223.96793587173863
 20
210.9879759519046
 10
224.09519038076036
 20
210.73346693387037
 10
224.22244488976253
 20
210.22444889778942
 10
223.96793587173863
 20
209.715430861721
 10
223.4589178356714
 20
209.20641282565256
 10
222.9498997996041
 20
208.95190380761835
 10
222.84809619239456
 20
208.69739478958414
 10
222.78022712090853
 20
208.18837675350318
 10
222.69539078156077
 20
207.67935871743475
 10
222.44088176351738
 20
207.38849126825636
 10
221.93186372745015
 20
207.3965709196259
 10
221.42284569138286
 20
207.55210420841763
 10
221.08350033401115
 20
207.67935871743475
 10
220.91382765531563
 20
207.93386773546897
 10
220.40480961922884
 20
208.18837675350318
 10
220.91382765531563
 20
208.69739478958414
 10
220.40480961922884
 20
209.20641282565256
 10
220.40480961922884
 20
209.715430861721
 10
220.91382765531563
 20
210.05477621910413
 10
221.0410821643373
 20
210.22444889778942
  0
LWPOLYLINE
  5
54
330
17
100
AcDbEntity
  8
relief
100
AcDbPolyline
 90
31
 70
1
 10
229.56713426853696
 20
210.9879759519046
 10
230.07615230460425
 20
210.9879759519046
 10
230.3306613226476
 20
211.2424849699388
 10
230.58517034067148
 20
211.75150300600723
 10
230.75484301936706
 20
212.2605210420882
 10
230.58517034067148
 20
212.5150300601224
 10
230.4579158316498
 20
212.7695390781566
 10
230.58517034067148
 20
213.27855711422504
 10
231.09418837675827
 20
213.61790247160818
 10
231.3486973947821
 20
213.787575150306
 10
231.6032064128255
 20
214.29659318637442
 10
231.77287909150158
 20
213.787575150306
 10
231.8577154308689
 20
213.27855711422504
 10
231.77287909150158
 20
212.7695390781566
 10
231.77287909150158
 20
212.2605210420882
 10
231.9425517701972
 20
211.75150300600723
 10
231.77287909150158
 20
211.2424849699388
 10
231.6032064128255
 20
210.73346693387037
 10
231.77287909150158
 20
210.22444889778942
 10
231.77287909150158
 20
209.715430861721
 10
231.6032064128255
 20
209.20641282565256
 10
231.09418837675827
 20
209.20641282565256
 10
230.58517034067148
 20
208.69739478958414
 10
230.07615230460425
 20
208.52772211089882
 10
229.56713426853696
 20
208.69739478958414
 10
229.31262525051307
 20
209.20641282565256
 10
229.05811623246973
 20
209.46092184368678
 10
228.549098196383
 20
209.715430861721
 10
229.05811623246973
 20
210.22444889778942
 10
229.05811623246973
 20
210.73346693387037
 10
229.56713426853696
 20
210.9879759519046
  0
LWPOLYLINE
  5
55
330
17
100
AcDbEntity
  8
relief
100
AcDbPolyline
 90
74
 70
1
 10
230.07615230460425
 20
240.2565130260522
 10
229.56713426853696
 20
240.76553106212063
 10
230.07615230460425
 20
241.02004008015487
 10
230.24582498329983
 20
241.2745490982016
 10
230.3306613226476
 20
241.78356713427002
 10
230.58517034067148
 20
242.29258517033844
 10
231.09418837675827
 20
242.54709418837268
 10
231.6032064128255
 20
242.54709418837268
 10
231.77287909150158
 20
242.29258517033844
 10
232.1122244488928
 20
241.95323981296784
 10
232.62124248496002
 20
241.78356713427002
 10
233.13026052104675
 20
241.61389445558473
 10
233.63927855711404
 20
241.78356713427002
 10
234.14829659318127
 20
242.29258517033844
 10
234.14829659318127
 20
242.8016032064069
 10
234.65731462924856
 20
243.31062124248783
 10
234.9966599866397
 20
243.81963927855628
 10
235.1663326653353
 20
244.3286573146247
 10
234.9966599866397
 20
244.83767535070564
 10
234.9118236472919
 20
245.3466933867741
 10
235.1663326653353
 20
245.6012024048083
 10
235.42084168335919
 20
245.85571142284252
 10
235.1663326653353
 20
246.36472945892345
 10
234.65731462924856
 20
246.6192384769577
 10
234.14829659318127
 20
246.8737474949919
 10
234.14829659318127
 20
247.38276553106033
 10
234.65731462924856
 20
247.89178356712875
 10
235.1663326653353
 20
247.89178356712875
 10
235.67535070140252
 20
247.38276553106033
 10
235.67535070140252
 20
246.8737474949919
 10
236.1843687374698
 20
246.5344021376213
 10
236.6933867735371
 20
246.49198396794057
 10
237.20240480962383
 20
246.6192384769577
 10
237.3720774883194
 20
246.8737474949919
 10
237.54175016699548
 20
247.38276553106033
 10
237.71142284569106
 20
247.89178356712875
 10
237.965931863715
 20
248.40080160320971
 10
238.22044088175835
 20
248.90981963927814
 10
238.55978623913
 20
248.40080160320971
 10
238.47494989980174
 20
247.89178356712875
 10
238.22044088175835
 20
247.38276553106033
 10
238.22044088175835
 20
246.8737474949919
 10
238.22044088175835
 20
246.36472945892345
 10
238.05076820306277
 20
245.85571142284252
 10
237.71142284569106
 20
245.3466933867741
 10
238.22044088175835
 20
245.09218436873988
 10
238.72945891782564
 20
244.83767535070564
 10
239.23847695391237
 20
244.58316633265892
 10
239.7474949899796
 20
244.3286573146247
 10
239.23847695391237
 20
243.81963927855628
 10
238.72945891782564
 20
243.56513026052204
 10
238.22044088175835
 20
243.31062124248783
 10
238.09318637273668
 20
242.8016032064069
 10
238.22044088175835
 20
242.29258517033844
 10
238.47494989980174
 20
241.78356713427002
 10
238.47494989980174
 20
241.2745490982016
 10
238.22044088175835
 20
240.76553106212063
 10
237.71142284569106
 20
240.51102204408642
 10
237.20240480962383
 20
240.76553106212063
 10
236.6933867735371
 20
240.63827655310354
 10
236.1843687374698
 20
240.2565130260522
 10
235.67535070140252
 20
240.2565130260522
 10
235.1663326653353
 20
240.42618570473752
 10
234.9966599866397
 20
240.2565130260522
 10
234.65731462924856
 20
240.002004008018
 10
234.14829659318127
 20
239.9171676686691
 10
233.63927855711404
 20
239.9171676686691
 10
233.13026052104675
 20
240.2565130260522
 10
232.62124248496002
 20
240.76553106212063
 10
232.1122244488928
 20
241.02004008015487
 10
231.603206412806
 20
241.10487641950377
 10
231.09418837675827
 20
240.76553106212063
 10
230.58517034067148
 20
240.2565130260522
 10
230.07615230460425
 20
240.2565130260522
  0
LWPOLYLINE
  5
56
330
17
100
AcDbEntity
  8
relief
100
AcDbPolyline
 90
18
 70
1
 10
252.9819639278453
 20
1.5270541082178128
 10
253.49098196393203
 20
2.0360721442862437
 10
253.99999999999932
 20
2.0360721442862437
 10
253.99999999999932
 20
1.5270541082178128
 10
253.99999999999932
 20
1.0180360721493822
 10
253.99999999999932
 20
0.5090180360684308
 10
253.99999999999932
 20
0.0
 10
253.49098196393203
 20
0.0
 10
252.9819639278453
 20
0.0
 10
252.47294589177807
 20
0.0
 10
251.96392785571078
 20
0.0
 10
251.7942551770152
 20
0.0
 10
251.96392785571078
 20
0.5090180360684308
 10
251.87909151636296
 20
1.0180360721493822
 10
251.87909151636296
 20
1.5270541082178128
 10
251.96392785571078
 20
1.7815631262520284
 10
252.47294589177807
 20
2.0360721442862437
 10
252.9819639278453
 20
1.5270541082178128
  0
LWPOLYLINE
  5
57
330
17
100
AcDbEntity
  8
relief
100
AcDbPolyline
 90
12
 70
1
 10
243.81963927855668
 20
167.46693386774075
 10
244.15898463592833
 20
166.9579158316598
 10
243.92144288576623
 20
166.44889779559136
 10
243.81963927855668
 20
166.32164328657424
 10
243.3106212424894
 20
166.44889779559136
 10
242.80160320640266
 20
166.44889779559136
 10
242.29258517033543
 20
166.44889779559136
 10
242.03807615229204
 20
166.9579158316598
 10
242.29258517033543
 20
167.46693386774075
 10
242.80160320640266
 20
167.97595190380918
 10
243.3106212424894
 20
167.46693386774075
 10
243.81963927855668
 20
167.46693386774075
  0
LWPOLYLINE
  5
58
330
17
100
AcDbEntity
  8
relief
100
AcDbPolyline
 90
31
 70
1
 10
248.74014696057264
 20
203.09819639278132
 10
248.57047428189657
 20
203.60721442886225
 10
248.400801603201
 20
204.1162324649307
 10
248.90981963926828
 20
204.62525050099913
 10
249.418837675355
 20
205.1342685370801
 10
249.92785571142224
 20
205.3887775551143
 10
250.43687374748953
 20
205.3887775551143
 10
250.94589178355676
 20
205.3887775551143
 10
251.45490981964355
 20
205.64328657314852
 10
251.96392785571078
 20
205.1342685370801
 10
252.47294589177807
 20
204.62525050099913
 10
252.9819639278453
 20
204.62525050099913
 10
253.49098196393203
 20
204.4555778223138
 10
253.99999999999932
 20
204.1162324649307
 10
253.99999999999932
 20
203.60721442886225
 10
253.99999999999932
 20
203.09819639278132
 10
253.99999999999932
 20
202.8436873747471
 10
253.49098196393203
 20
202.5891783567129
 10
253.32130928523645
 20
202.08016032064444
 10
252.9819639278453
 20
201.5711422845635
 10
252.47294589177807
 20
201.5711422845635
 10
251.96392785569128
 20
201.4014696058782
 10
251.45490981964355
 20
201.06212424849508
 10
250.94589178355676
 20
200.55310621242663
 10
250.43687374748953
 20
201.06212424849508
 10
250.3096192384873
 20
201.5711422845635
 10
250.3096192384873
 20
202.08016032064444
 10
249.92785571142224
 20
202.5891783567129
 10
249.418837675355
 20
202.5891783567129
 10
248.90981963926828
 20
202.8436873747471
 10
248.74014696057264
 20
203.09819639278132
  0
LWPOLYLINE
  5
59
330
17
100
AcDbEntity
  8
relief
100
AcDbPolyline
 90
21
 70
1
 10
250.43687374748953
 20
229.82164328657424
 10
250.94589178355676
 20
230.07615230460848
 10
251.45490981964355
 20
229.56713426854003
 10
251.96392785571078
 20
229.0581162324591
 10
252.47294589177807
 20
228.54909819639067
 10
252.81229124914972
 20
228.04008016032222
 10
252.47294589177807
 20
227.5310621242538
 10
251.96392785571078
 20
228.04008016032222
 10
251.45490981964355
 20
228.04008016032222
 10
250.94589178355676
 20
227.5310621242538
 10
250.43687374748953
 20
227.5310621242538
 10
249.92785571142224
 20
227.785571142288
 10
249.418837675355
 20
227.5310621242538
 10
248.90981963926828
 20
227.5310621242538
 10
248.7062124248297
 20
228.04008016032222
 10
248.69166905238228
 20
228.54909819639067
 10
248.90981963926828
 20
229.0581162324591
 10
249.4188376753355
 20
229.1599198396803
 10
249.92785571142224
 20
229.0581162324591
 10
250.26720106879395
 20
229.56713426854003
 10
250.43687374748953
 20
229.82164328657424
  0
LWPOLYLINE
  5
5A
330
17
100
AcDbEntity
  8
relief
100
AcDbPolyline
 90
18
 70
1
 10
240.76553106211412
 20
237.20240480961658
 10
241.2745490982009
 20
237.3720774883144
 10
241.40180360722258
 20
237.20240480961658
 10
241.61389445557256
 20
236.69338677354816
 10
241.78356713426814
 20
236.56613226453103
 10
242.29258517033543
 20
236.18436873747973
 10
242.39438877754498
 20
235.67535070139877
 10
242.29258517033543
 20
235.16633266533034
 10
241.78356713424864
 20
234.99665998664503
 10
241.2745490982009
 20
235.03907815631322
 10
240.76553106211412
 20
235.03907815631322
 10
240.51102204407078
 20
235.16633266533034
 10
240.2565130260469
 20
235.42084168336456
 10
240.0868403473513
 20
235.67535070139877
 10
239.91716766867518
 20
236.18436873747973
 10
240.0868403473513
 20
236.69338677354816
 10
240.2565130260469
 20
236.79519038076936
 10
240.76553106211412
 20
237.20240480961658
  0
LWPOLYLINE
  5
5B
330
17
100
AcDbEntity
  8
relief
100
AcDbPolyline
 90
87
 70
1
 10
252.21843687375417
 20
231.6032064128263
 10
252.47294589177807
 20
232.11222444889472
 10
252.7274549098019
 20
232.62124248497565
 10
252.9819639278453
 20
233.1302605210441
 10
253.2364729458887
 20
233.63927855711253
 10
253.10921843686697
 20
234.14829659318096
 10
253.1855711422839
 20
234.65731462926192
 10
252.9819639278453
 20
234.99665998664503
 10
252.7274549098019
 20
235.16633266533034
 10
252.47294589177807
 20
235.33600534401563
 10
251.96392785571078
 20
235.67535070139877
 10
251.62458249833907
 20
236.18436873747973
 10
251.5567134268531
 20
236.69338677354816
 10
251.76032064129168
 20
237.20240480961658
 10
251.96392785571078
 20
237.54175016699972
 10
252.13360053440636
 20
237.71142284569754
 10
251.96392785571078
 20
237.96593186373175
 10
251.45490981964355
 20
238.22044088176597
 10
251.45490981964355
 20
238.7294589178344
 10
251.65851703406264
 20
239.23847695390282
 10
251.96392785571078
 20
239.6202404809667
 10
252.21843687375417
 20
239.74749498998378
 10
252.47294589177807
 20
239.9171676686816
 10
252.7274549098019
 20
240.2565130260522
 10
252.9819639278453
 20
240.76553106212063
 10
252.47294589177807
 20
241.2745490982016
 10
251.96392785569128
 20
241.61389445558473
 10
251.8366733466891
 20
241.78356713427002
 10
251.70941883766739
 20
242.29258517033844
 10
251.7942551770152
 20
242.8016032064069
 10
251.45490981964355
 20
243.00521042083676
 10
250.94589178355676
 20
243.31062124248783
 10
250.6065464261851
 20
243.81963927855628
 10
250.8440881763472
 20
244.3286573146247
 10
250.94589178355676
 20
244.49832999332253
 10
251.45490981964355
 20
244.83767535070564
 10
251.7942551770152
 20
245.3466933867741
 10
251.96392785571078
 20
245.85571142284252
 10
252.47294589177807
 20
246.19505678022563
 10
252.9819639278453
 20
246.19505678022563
 10
253.32130928523645
 20
245.85571142284252
 10
253.49098196393203
 20
245.3466933867741
 10
253.99999999999932
 20
245.3466933867741
 10
253.99999999999932
 20
244.83767535070564
 10
253.99999999999932
 20
244.3286573146247
 10
253.99999999999932
 20
244.0741482965905
 10
253.83032732130374
 20
243.81963927855628
 10
253.83032732130374
 20
243.31062124248783
 10
253.66065464260816
 20
242.8016032064069
 10
253.49098196393203
 20
242.29258517033844
 10
253.49098196393203
 20
241.78356713427002
 10
253.99999999999932
 20
241.5290581162358
 10
253.99999999999932
 20
241.2745490982016
 10
253.99999999999932
 20
240.76553106212063
 10
253.99999999999932
 20
240.2565130260522
 10
253.99999999999932
 20
239.74749498998378
 10
253.99999999999932
 20
239.23847695390282
 10
253.99999999999932
 20
238.7294589178344
 10
253.99999999999932
 20
238.22044088176597
 10
253.99999999999932
 20
237.71142284569754
 10
253.99999999999932
 20
237.20240480961658
 10
253.99999999999932
 20
236.69338677354816
 10
253.99999999999932
 20
236.18436873747973
 10
253.99999999999932
 20
235.67535070139877
 10
253.99999999999932
 20
235.16633266533034
 10
253.99999999999932
 20
234.65731462926192
 10
253.99999999999932
 20
234.14829659318096
 10
253.99999999999932
 20
233.63927855711253
 10
253.99999999999932
 20
233.1302605210441
 10
253.99999999999932
 20
232.62124248497565
 10
253.99999999999932
 20
232.11222444889472
 10
253.99999999999932
 20
231.6032064128263
 10
253.99999999999932
 20
231.09418837675784
 10
253.99999999999932
 20
230.5851703406769
 10
253.99999999999932
 20
230.07615230460848
 10
253.99999999999932
 20
229.56713426854003
 10
253.49098196393203
 20
229.90647962592317
 10
253.15163660654088
 20
229.56713426854003
 10
252.9819639278453
 20
229.3974615898422
 10
252.47294589177807
 20
229.0581162324591
 10
251.96392785571078
 20
229.56713426854003
 10
251.96392785571078
 20
230.07615230460848
 10
251.45490981964355
 20
230.3306613226427
 10
250.94589178355676
 20
230.5851703406769
 10
251.45490981964355
 20
230.83967935871112
 10
251.96392785571078
 20
231.09418837675784
 10
252.21843687375417
 20
231.6032064128263
  0
LWPOLYLINE
  5
5C
330
17
100
AcDbEntity
  8
relief
100
AcDbPolyline
 90
24
 70
1
 10
242.29258517033543
 20
245.3466933867741
 10
241.78356713426814
 20
245.85571142284252
 10
242.29258517033543
 20
246.11022044088924
 10
242.54709418837876
 20
245.85571142284252
 10
242.80160320640266
 20
245.6012024048083
 10
243.3106212424894
 20
245.6012024048083
 10
243.56513026051329
 20
245.3466933867741
 10
243.81963927855668
 20
245.09218436873988
 10
243.94689378757835
 20
244.83767535070564
 10
244.02324649297577
 20
244.3286573146247
 10
243.94689378757835
 20
243.81963927855628
 10
244.3286573146239
 20
243.31062124248783
 10
244.8376753506912
 20
242.8016032064069
 10
244.53226452904306
 20
242.29258517033844
 10
244.3286573146239
 20
241.95323981295533
 10
243.81963927855668
 20
241.78356713427002
 10
243.6499665998611
 20
242.29258517033844
 10
243.3106212424894
 20
242.63193052772158
 10
242.80160320640266
 20
242.8016032064069
 10
242.46225784903095
 20
243.31062124248783
 10
242.29258517033543
 20
243.81963927855628
 10
242.29258517033543
 20
244.3286573146247
 10
242.4198396793571
 20
244.83767535070564
 10
242.29258517033543
 20
245.3466933867741
  0
LWPOLYLINE
  5
5D
330
17
100
AcDbEntity
  8
relief
100
AcDbPolyline
 90
38
 70
1
 10
240.76553106211412
 20
248.14629258516297
 10
241.02004008015751
 20
248.40080160320971
 10
241.2745490982009
 20
248.90981963927814
 10
241.78356713426814
 20
248.90981963927814
 10
242.29258517033543
 20
248.40080160320971
 10
242.80160320640266
 20
248.06145624582658
 10
243.1409485637938
 20
248.40080160320971
 10
243.3106212424894
 20
248.570474281895
 10
243.6499665998611
 20
248.90981963927814
 10
243.81963927855668
 20
249.16432865731235
 10
244.07414829660001
 20
249.41883767534657
 10
244.3286573146239
 20
249.5885103540444
 10
244.49832999330005
 20
249.41883767534657
 10
244.49832999330005
 20
248.90981963927814
 10
244.3286573146239
 20
248.65531062124393
 10
244.15898463592833
 20
248.40080160320971
 10
244.22685370741436
 20
247.89178356712875
 10
244.3286573146239
 20
247.63727454909454
 10
244.43046092183346
 20
247.38276553106033
 10
244.71042084166947
 20
246.8737474949919
 10
244.3286573146239
 20
246.6192384769577
 10
243.81963927855668
 20
246.36472945892345
 10
243.3106212424894
 20
246.49198396794057
 10
242.80160320640266
 20
246.49198396794057
 10
242.29258517033543
 20
246.49198396794057
 10
241.78356713426814
 20
246.46653306613214
 10
241.2745490982009
 20
246.36472945892345
 10
240.76553106211412
 20
245.85571142284252
 10
240.2565130260469
 20
246.11022044088924
 10
240.002004008023
 20
245.85571142284252
 10
239.7474949899796
 20
245.6012024048083
 10
239.49298597193626
 20
245.85571142284252
 10
239.57782231128402
 20
246.36472945892345
 10
239.57782231128402
 20
246.8737474949919
 10
239.7474949899796
 20
247.38276553106033
 10
240.2565130260469
 20
247.63727454909454
 10
240.51102204407078
 20
247.89178356712875
 10
240.76553106211412
 20
248.14629258516297
  0
LWPOLYLINE
  5
5E
330
17
100
AcDbEntity
  8
relief
100
AcDbPolyline
 90
57
 70
1
 10
237.45691382766717
 20
250.94589178356438
 10
237.20240480962383
 20
251.45490981964534
 10
237.45691382766717
 20
251.96392785571376
 10
237.71142284569106
 20
252.4729458917822
 10
238.22044088175835
 20
252.3032732130969
 10
238.72945891782564
 20
252.37114228457352
 10
238.8567134268473
 20
252.4729458917822
 10
239.06880427521673
 20
252.98196392785061
 10
238.98396793586898
 20
253.49098196393157
 10
239.06880427521673
 20
254.0
 10
239.23847695391237
 20
254.0
 10
239.7474949899796
 20
254.0
 10
240.2565130260469
 20
253.8727454909829
 10
240.76553106211412
 20
253.8727454909829
 10
240.8503674014425
 20
254.00000000001253
 10
241.2745490982009
 20
254.0
 10
241.78356713426814
 20
254.0
 10
242.29258517033543
 20
254.0
 10
242.7167668670549
 20
254.0
 10
242.80160320640266
 20
253.8303273213147
 10
243.3106212424894
 20
254.0
 10
243.81963927855668
 20
253.8727454909829
 10
244.3286573146239
 20
253.8303273213147
 10
244.66800267199562
 20
253.49098196393157
 10
244.8376753506912
 20
253.23647294589736
 10
245.09218436873454
 20
252.98196392785061
 10
244.8376753506912
 20
252.4729458917822
 10
245.17702070808235
 20
251.96392785571376
 10
245.34669338677793
 20
251.79425517702845
 10
245.55030060121652
 20
251.45490981964534
 10
245.85571142284516
 20
250.94589178356438
 10
246.0253841015213
 20
250.43687374749595
 10
245.85571142284516
 20
250.18236472946174
 10
245.34669338677793
 20
250.18236472946174
 10
245.09218436873454
 20
250.43687374749595
 10
244.8376753506912
 20
250.69138276553016
 10
244.5831663326478
 20
250.94589178356438
 10
244.3286573146239
 20
251.1155644622622
 10
243.81963927855668
 20
251.45490981964534
 10
243.3106212424894
 20
251.96392785571376
 10
242.80160320640266
 20
252.21843687374798
 10
242.63193052770708
 20
251.96392785571376
 10
242.4622578490115
 20
251.45490981964534
 10
242.4198396793376
 20
250.94589178356438
 10
242.29258517033543
 20
250.43687374749595
 10
241.78356713426814
 20
249.92785571142753
 10
241.52905811624424
 20
249.41883767534657
 10
241.2745490982009
 20
248.90981963927814
 10
240.76553106211412
 20
249.29158316632947
 10
240.2565130260469
 20
249.41883767534657
 10
239.7474949899796
 20
249.92785571142753
 10
239.23847695391237
 20
250.0975283901128
 10
238.72945891782564
 20
250.33507014028729
 10
238.47494989980174
 20
250.43687374749595
 10
238.22044088175835
 20
250.53867735470462
 10
237.71142284567162
 20
250.7762191048791
 10
237.45691382766717
 20
250.94589178356438
  0
ENDSEC
  0
SECTION
  2
OBJECTS
  0
DICTIONARY
  5
A
330
0
100
AcDbDictionary
281
1
  3
ACAD_COLOR
350
B
  3
ACAD_GROUP
350
C
  3
ACAD_LAYOUT
350
D
  3
ACAD_MATERIAL
350
E
  3
ACAD_MLEADERSTYLE
350
F
  3
ACAD_MLINESTYLE
350
10
  3
ACAD_PLOTSETTINGS
350
11
  3
ACAD_PLOTSTYLENAME
350
12
  3
ACAD_SCALELIST
350
14
  3
ACAD_TABLESTYLE
350
15
  3
ACAD_VISUALSTYLE
350
16
  3
EZDXF_META
350
2D
  0
DICTIONARY
  5
B
330
A
100
AcDbDictionary
281
1
  0
DICTIONARY
  5
C
330
A
100
AcDbDictionary
281
1
  0
DICTIONARY
  5
D
330
A
100
AcDbDictionary
281
1
  3
Model
350
1A
  3
Layout1
350
1E
  0
DICTIONARY
  5
E
330
A
100
AcDbDictionary
281
1
  3
ByBlock
350
1F
  3
ByLayer
350
20
  3
Global
350
21
  0
DICTIONARY
  5
F
330
A
100
AcDbDictionary
281
1
  3
Standard
350
2C
  0
DICTIONARY
  5
10
330
A
100
AcDbDictionary
281
1
  3
Standard
350
22
  0
DICTIONARY
  5
11
330
A
100
AcDbDictionary
281
1
  0
ACDBDICTIONARYWDFLT
  5
12
330
A
100
AcDbDictionary
281
1
  3
Normal
350
13
100
AcDbDictionaryWithDefault
340
13
  0
ACDBPLACEHOLDER
  5
13
330
12
  0
DICTIONARY
  5
14
330
A
100
AcDbDictionary
281
1
  0
DICTIONARY
  5
15
330
A
100
AcDbDictionary
281
1
  0
DICTIONARY
  5
16
330
A
100
AcDbDictionary
281
1
  0
LAYOUT
  5
1A
330
D
100
AcDbPlotSettings
  1

  4
A3
  6

 40
7.5
 41
20.0
 42
7.5
 43
20.0
 44
420.0
 45
297.0
 46
0.0
 47
0.0
 48
0.0
 49
0.0
140
0.0
141
0.0
142
1.0
143
1.0
 70
1024
 72
1
 73
0
 74
5
  7

 75
16
 76
0
 77
2
 78
300
147
1.0
148
0.0
149
0.0
100
AcDbLayout
  1
Model
 70
1
 71
0
 10
0.0
 20
0.0
 11
420.0
 21
297.0
 12
0.0
 22
0.0
 32
0.0
 14
1e+20
 24
1e+20
 34
1e+20
 15
-1e+20
 25
-1e+20
 35
-1e+20
146
0.0
 13
0.0
 23
0.0
 33
0.0
 16
1.0
 26
0.0
 36
0.0
 17
0.0
 27
1.0
 37
0.0
 76
1
330
17
  0
LAYOUT
  5
1E
330
D
100
AcDbPlotSettings
  1

  4
A3
  6

 40
7.5
 41
20.0
 42
7.5
 43
20.0
 44
420.0
 45
297.0
 46
0.0
 47
0.0
 48
0.0
 49
0.0
140
0.0
141
0.0
142
1.0
143
1.0
 70
0
 72
1
 73
0
 74
5
  7

 75
16
 76
0
 77
2
 78
300
147
1.0
148
0.0
149
0.0
100
AcDbLayout
  1
Layout1
 70
1
 71
1
 10
0.0
 20
0.0
 11
420.0
 21
297.0
 12
0.0
 22
0.0
 32
0.0
 14
1e+20
 24
1e+20
 34
1e+20
 15
-1e+20
 25
-1e+20
 35
-1e+20
146
0.0
 13
0.0
 23
0.0
 33
0.0
 16
1.0
 26
0.0
 36
0.0
 17
0.0
 27
1.0
 37
0.0
 76
1
330
1B
  0
MATERIAL
  5
1F
102
{ACAD_REACTORS
330
E
102
}
330
E
100
AcDbMaterial
  1
ByBlock
  2

 70
0
 40
1.0
 71
1
 41
1.0
 91
-1023410177
 42
1.0
 72
1
  3

 73
1
 74
1
 75
1
 44
0.5
 73
0
 45
1.0
 46
1.0
 77
1
  4

 78
1
 79
1
170
1
 48
1.0
171
1
  6

172
1
173
1
174
1
140
1.0
141
1.0
175
1
  7

176
1
177
1
178
1
143
1.0
179
1
  8

270
1
271
1
272
1
145
1.0
146
1.0
273
1
  9

274
1
275
1
276
1
 42
1.0
 72
1
  3

 73
1
 74
1
 75
1
 94
63
  0
MATERIAL
  5
20
102
{ACAD_REACTORS
330
E
102
}
330
E
100
AcDbMaterial
  1
ByLayer
  2

 70
0
 40
1.0
 71
1
 41
1.0
 91
-1023410177
 42
1.0
 72
1
  3

 73
1
 74
1
 75
1
 44
0.5
 73
0
 45
1.0
 46
1.0
 77
1
  4

 78
1
 79
1
170
1
 48
1.0
171
1
  6

172
1
173
1
174
1
140
1.0
141
1.0
175
1
  7

176
1
177
1
178
1
143
1.0
179
1
  8

270
1
271
1
272
1
145
1.0
146
1.0
273
1
  9

274
1
275
1
276
1
 42
1.0
 72
1
  3

 73
1
 74
1
 75
1
 94
63
  0
MATERIAL
  5
21
102
{ACAD_REACTORS
330
E
102
}
330
E
100
AcDbMaterial
  1
Global
  2

 70
0
 40
1.0
 71
1
 41
1.0
 91
-1023410177
 42
1.0
 72
1
  3

 73
1
 74
1
 75
1
 44
0.5
 73
0
 45
1.0
 46
1.0
 77
1
  4

 78
1
 79
1
170
1
 48
1.0
171
1
  6

172
1
173
1
174
1
140
1.0
141
1.0
175
1
  7

176
1
177
1
178
1
143
1.0
179
1
  8

270
1
271
1
272
1
145
1.0
146
1.0
273
1
  9

274
1
275
1
276
1
 42
1.0
 72
1
  3

 73
1
 74
1
 75
1
 94
63
  0
MLINESTYLE
  5
22
102
{ACAD_REACTORS
330
10
102
}
330
10
100
AcDbMlineStyle
  2
Standard
 70
0
  3

 62
256
 51
90.0
 52
90.0
 71
2
 49
0.5
 62
256
  6
BYLAYER
 49
-0.5
 62
256
  6
BYLAYER
  0
MLEADERSTYLE
  5
2C
102
{ACAD_REACTORS
330
F
102
}
330
F
100
AcDbMLeaderStyle
179
2
170
2
171
1
172
0
 90
2
 40
0.0
 41
0.0
173
1
 91
-1056964608
 92
-2
290
1
 42
2.0
291
1
 43
8.0
  3
Standard
 44
4.0
300

342
29
174
1
175
1
176
0
178
1
 93
-1056964608
 45
4.0
292
0
297
0
 46
4.0
 94
-1056964608
 47
1.0
 49
1.0
140
1.0
294
1
141
0.0
177
0
142
1.0
295
0
296
0
143
3.75
271
0
272
9
273
9
  0
DICTIONARY
  5
2D
330
A
100
AcDbDictionary
280
1
281
1
  3
CREATED_BY_EZDXF
350
2E
  3
WRITTEN_BY_EZDXF
350
61
  0
DICTIONARYVAR
  5
2E
330
2D
100
DictionaryVariables
280
0
  1
1.4.3 @ 2026-04-02T16:42:43.496797+00:00
  0
DICTIONARYVAR
  5
61
330
2D
100
DictionaryVariables
280
0
  1
1.4.3 @ 2026-04-02T16:42:43.502922+00:00
  0
ENDSEC
  0
EOF
