  0
SECTION
  2
HEADER
  9
$ACADVER
  1
AC1024
  9
$ACADMAINTVER
 70
6
  9
$DWGCODEPAGE
  3
ANSI_1252
  9
$LASTSAVEDBY
  1
ezdxf
  9
$INSBASE
 10
0.0
 20
0.0
 30
0.0
  9
$EXTMIN
 10
1e+20
 20
1e+20
 30
1e+20
  9
$EXTMAX
 10
-1e+20
 20
-1e+20
 30
-1e+20
  9
$LIMMIN
 10
0.0
 20
0.0
  9
$LIMMAX
 10
420.0
 20
297.0
  9
$ORTHOMODE
 70
0
  9
$REGENMODE
 70
1
  9
$FILLMODE
 70
1
  9
$QTEXTMODE
 70
0
  9
$MIRRTEXT
 70
1
  9
$LTSCALE
 40
1.0
  9
$ATTMODE
 70
1
  9
$TEXTSIZE
 40
2.5
  9
$TRACEWID
 40
1.0
  9
$TEXTSTYLE
  7
Standard
  9
$CLAYER
  8
0
  9
$CELTYPE
  6
ByLayer
  9
$CECOLOR
 62
256
  9
$CELTSCALE
 40
1.0
  9
$DISPSILH
 70
0
  9
$DIMSCALE
 40
1.0
  9
$DIMASZ
 40
2.5
  9
$DIMEXO
 40
0.625
  9
$DIMDLI
 40
3.75
  9
$DIMRND
 40
0.0
  9
$DIMDLE
 40
0.0
  9
$DIMEXE
 40
1.25
  9
$DIMTP
 40
0.0
  9
$DIMTM
 40
0.0
  9
$DIMTXT
 40
2.5
  9
$DIMCEN
 40
2.5
  9
$DIMTSZ
 40
0.0
  9
$DIMTOL
 70
0
  9
$DIMLIM
 70
0
  9
$DIMTIH
 70
0
  9
$DIMTOH
 70
0
  9
$DIMSE1
 70
0
  9
$DIMSE2
 70
0
  9
$DIMTAD
 70
1
  9
$DIMZIN
 70
8
  9
$DIMBLK
  1

  9
$DIMASO
 70
1
  9
$DIMSHO
 70
1
  9
$DIMPOST
  1

  9
$DIMAPOST
  1

  9
$DIMALT
 70
0
  9
$DIMALTD
 70
3
  9
$DIMALTF
 40
0.03937007874
  9
$DIMLFAC
 40
1.0
  9
$DIMTOFL
 70
1
  9
$DIMTVP
 40
0.0
  9
$DIMTIX
 70
0
  9
$DIMSOXD
 70
0
  9
$DIMSAH
 70
0
  9
$DIMBLK1
  1

  9
$DIMBLK2
  1

  9
$DIMSTYLE
  2
ISO-25
  9
$DIMCLRD
 70
0
  9
$DIMCLRE
 70
0
  9
$DIMCLRT
 70
0
  9
$DIMTFAC
 40
1.0
  9
$DIMGAP
 40
0.625
  9
$DIMJUST
 70
0
  9
$DIMSD1
 70
0
  9
$DIMSD2
 70
0
  9
$DIMTOLJ
 70
0
  9
$DIMTZIN
 70
8
  9
$DIMALTZ
 70
0
  9
$DIMALTTZ
 70
0
  9
$DIMUPT
 70
0
  9
$DIMDEC
 70
2
  9
$DIMTDEC
 70
2
  9
$DIMALTU
 70
2
  9
$DIMALTTD
 70
3
  9
$DIMTXSTY
  7
Standard
  9
$DIMAUNIT
 70
0
  9
$DIMADEC
 70
0
  9
$DIMALTRND
 40
0.0
  9
$DIMAZIN
 70
0
  9
$DIMDSEP
 70
44
  9
$DIMATFIT
 70
3
  9
$DIMFRAC
 70
0
  9
$DIMLDRBLK
  1

  9
$DIMLUNIT
 70
2
  9
$DIMLWD
 70
-2
  9
$DIMLWE
 70
-2
  9
$DIMTMOVE
 70
0
  9
$DIMFXL
 40
1.0
  9
$DIMFXLON
 70
0
  9
$DIMJOGANG
 40
0.785398163397
  9
$DIMTFILL
 70
0
  9
$DIMTFILLCLR
 70
0
  9
$DIMARCSYM
 70
0
  9
$DIMLTYPE
  6

  9
$DIMLTEX1
  6

  9
$DIMLTEX2
  6

  9
$DIMTXTDIRECTION
 70
0
  9
$LUNITS
 70
2
  9
$LUPREC
 70
4
  9
$SKETCHINC
 40
1.0
  9
$FILLETRAD
 40
10.0
  9
$AUNITS
 70
0
  9
$AUPREC
 70
2
  9
$MENU
  1
.
  9
$ELEVATION
 40
0.0
  9
$PELEVATION
 40
0.0
  9
$THICKNESS
 40
0.0
  9
$LIMCHECK
 70
0
  9
$CHAMFERA
 40
0.0
  9
$CHAMFERB
 40
0.0
  9
$CHAMFERC
 40
0.0
  9
$CHAMFERD
 40
0.0
  9
$SKPOLY
 70
0
  9
$TDCREATE
 40
2461133.487997685
  9
$TDUCREATE
 40
2458532.153996898
  9
$TDUPDATE
 40
2461133.487997685
  9
$TDUUPDATE
 40
2458532.1544311
  9
$TDINDWG
 40
0.0
  9
$TDUSRTIMER
 40
0.0
  9
$USRTIMER
 70
1
  9
$ANGBASE
 50
0.0
  9
$ANGDIR
 70
0
  9
$PDMODE
 70
0
  9
$PDSIZE
 40
0.0
  9
$PLINEWID
 40
0.0
  9
$SPLFRAME
 70
0
  9
$SPLINETYPE
 70
6
  9
$SPLINESEGS
 70
8
  9
$HANDSEED
  5
9F
  9
$SURFTAB1
 70
6
  9
$SURFTAB2
 70
6
  9
$SURFTYPE
 70
6
  9
$SURFU
 70
6
  9
$SURFV
 70
6
  9
$UCSBASE
  2

  9
$UCSNAME
  2

  9
$UCSORG
 10
0.0
 20
0.0
 30
0.0
  9
$UCSXDIR
 10
1.0
 20
0.0
 30
0.0
  9
$UCSYDIR
 10
0.0
 20
1.0
 30
0.0
  9
$UCSORTHOREF
  2

  9
$UCSORTHOVIEW
 70
0
  9
$UCSORGTOP
 10
0.0
 20
0.0
 30
0.0
  9
$UCSORGBOTTOM
 10
0.0
 20
0.0
 30
0.0
  9
$UCSORGLEFT
 10
0.0
 20
0.0
 30
0.0
  9
$UCSORGRIGHT
 10
0.0
 20
0.0
 30
0.0
  9
$UCSORGFRONT
 10
0.0
 20
0.0
 30
0.0
  9
$UCSORGBACK
 10
0.0
 20
0.0
 30
0.0
  9
$PUCSBASE
  2

  9
$PUCSNAME
  2

  9
$PUCSORG
 10
0.0
 20
0.0
 30
0.0
  9
$PUCSXDIR
 10
1.0
 20
0.0
 30
0.0
  9
$PUCSYDIR
 10
0.0
 20
1.0
 30
0.0
  9
$PUCSORTHOREF
  2

  9
$PUCSORTHOVIEW
 70
0
  9
$PUCSORGTOP
 10
0.0
 20
0.0
 30
0.0
  9
$PUCSORGBOTTOM
 10
0.0
 20
0.0
 30
0.0
  9
$PUCSORGLEFT
 10
0.0
 20
0.0
 30
0.0
  9
$PUCSORGRIGHT
 10
0.0
 20
0.0
 30
0.0
  9
$PUCSORGFRONT
 10
0.0
 20
0.0
 30
0.0
  9
$PUCSORGBACK
 10
0.0
 20
0.0
 30
0.0
  9
$USERI1
 70
0
  9
$USERI2
 70
0
  9
$USERI3
 70
0
  9
$USERI4
 70
0
  9
$USERI5
 70
0
  9
$USERR1
 40
0.0
  9
$USERR2
 40
0.0
  9
$USERR3
 40
0.0
  9
$USERR4
 40
0.0
  9
$USERR5
 40
0.0
  9
$WORLDVIEW
 70
1
  9
$SHADEDGE
 70
3
  9
$SHADEDIF
 70
70
  9
$TILEMODE
 70
1
  9
$MAXACTVP
 70
64
  9
$PINSBASE
 10
0.0
 20
0.0
 30
0.0
  9
$PLIMCHECK
 70
0
  9
$PEXTMIN
 10
1e+20
 20
1e+20
 30
1e+20
  9
$PEXTMAX
 10
-1e+20
 20
-1e+20
 30
-1e+20
  9
$PLIMMIN
 10
0.0
 20
0.0
  9
$PLIMMAX
 10
420.0
 20
297.0
  9
$UNITMODE
 70
0
  9
$VISRETAIN
 70
1
  9
$PLINEGEN
 70
0
  9
$PSLTSCALE
 70
1
  9
$TREEDEPTH
 70
3020
  9
$CMLSTYLE
  2
Standard
  9
$CMLJUST
 70
0
  9
$CMLSCALE
 40
20.0
  9
$PROXYGRAPHICS
 70
1
  9
$MEASUREMENT
 70
1
  9
$CELWEIGHT
370
-1
  9
$ENDCAPS
280
0
  9
$JOINSTYLE
280
0
  9
$LWDISPLAY
290
0
  9
$INSUNITS
 70
6
  9
$HYPERLINKBASE
  1

  9
$STYLESHEET
  1

  9
$XEDIT
290
1
  9
$CEPSNTYPE
380
0
  9
$PSTYLEMODE
290
1
  9
$FINGERPRINTGUID
  2
{5443831A-A804-473C-938F-15BD283A0D26}
  9
$VERSIONGUID
  2
{4F0B7A8C-CEDD-41F1-B85C-A93416955A38}
  9
$EXTNAMES
290
1
  9
$PSVPSCALE
 40
0.0
  9
$OLESTARTUP
290
0
  9
$SORTENTS
280
127
  9
$INDEXCTL
280
0
  9
$HIDETEXT
280
1
  9
$XCLIPFRAME
280
1
  9
$HALOGAP
280
0
  9
$OBSCOLOR
 70
257
  9
$OBSLTYPE
280
0
  9
$INTERSECTIONDISPLAY
280
0
  9
$INTERSECTIONCOLOR
 70
257
  9
$DIMASSOC
280
2
  9
$PROJECTNAME
  1

  9
$CAMERADISPLAY
290
0
  9
$LENSLENGTH
 40
50.0
  9
$CAMERAHEIGHT
 40
0.0
  9
$STEPSPERSEC
 40
24.0
  9
$STEPSIZE
 40
100.0
  9
$3DDWFPREC
 40
2.0
  9
$PSOLWIDTH
 40
0.005
  9
$PSOLHEIGHT
 40
0.08
  9
$LOFTANG1
 40
1.570796326795
  9
$LOFTANG2
 40
1.570796326795
  9
$LOFTMAG1
 40
0.0
  9
$LOFTMAG2
 40
0.0
  9
$LOFTPARAM
 70
7
  9
$LOFTNORMALS
280
1
  9
$LATITUDE
 40
37.795
  9
$LONGITUDE
 40
-122.394
  9
$NORTHDIRECTION
 40
0.0
  9
$TIMEZONE
 70
-8000
  9
$LIGHTGLYPHDISPLAY
280
1
  9
$TILEMODELIGHTSYNCH
280
1
  9
$CMATERIAL
347
20
  9
$SOLIDHIST
280
0
  9
$SHOWHIST
280
1
  9
$DWFFRAME
280
2
  9
$DGNFRAME
280
2
  9
$REALWORLDSCALE
290
1
  9
$INTERFERECOLOR
 62
256
  9
$CSHADOW
280
0
  9
$SHADOWPLANELOCATION
 40
0.0
  0
ENDSEC
  0
SECTION
  2
CLASSES
  0
CLASS
  1
ACDBDICTIONARYWDFLT
  2
AcDbDictionaryWithDefault
  3
ObjectDBX Classes
 90
0
 91
0
280
0
281
0
  0
CLASS
  1
SUN
  2
AcDbSun
  3
SCENEOE
 90
1153
 91
0
280
0
281
0
  0
CLASS
  1
VISUALSTYLE
  2
AcDbVisualStyle
  3
ObjectDBX Classes
 90
4095
 91
0
280
0
281
0
  0
CLASS
  1
MATERIAL
  2
AcDbMaterial
  3
ObjectDBX Classes
 90
1153
 91
0
280
0
281
0
  0
CLASS
  1
SCALE
  2
AcDbScale
  3
ObjectDBX Classes
 90
1153
 91
0
280
0
281
0
  0
CLASS
  1
TABLESTYLE
  2
AcDbTableStyle
  3
ObjectDBX Classes
 90
4095
 91
0
280
0
281
0
  0
CLASS
  1
MLEADERSTYLE
  2
AcDbMLeaderStyle
  3
ACDB_MLEADERSTYLE_CLASS
 90
4095
 91
0
280
0
281
0
  0
CLASS
  1
DICTIONARYVAR
  2
AcDbDictionaryVar
  3
ObjectDBX Classes
 90
0
 91
0
280
0
281
0
  0
CLASS
  1
CELLSTYLEMAP
  2
AcDbCellStyleMap
  3
ObjectDBX Classes
 90
1152
 91
0
280
0
281
0
  0
CLASS
  1
MENTALRAYRENDERSETTINGS
  2
AcDbMentalRayRenderSettings
  3
SCENEOE
 90
1024
 91
0
280
0
281
0
  0
CLASS
  1
ACDBDETAILVIEWSTYLE
  2
AcDbDetailViewStyle
  3
ObjectDBX Classes
 90
1025
 91
0
280
0
281
0
  0
CLASS
  1
ACDBSECTIONVIEWSTYLE
  2
AcDbSectionViewStyle
  3
ObjectDBX Classes
 90
1025
 91
0
280
0
281
0
  0
CLASS
  1
RASTERVARIABLES
  2
AcDbRasterVariables
  3
ISM
 90
0
 91
0
280
0
281
0
  0
CLASS
  1
ACDBPLACEHOLDER
  2
AcDbPlaceHolder
  3
ObjectDBX Classes
 90
0
 91
0
280
0
281
0
  0
CLASS
  1
LAYOUT
  2
AcDbLayout
  3
ObjectDBX Classes
 90
0
 91
0
280
0
281
0
  0
ENDSEC
  0
SECTION
  2
TABLES
  0
TABLE
  2
VPORT
  5
8
330
0
100
AcDbSymbolTable
 70
1
  0
VPORT
  5
23
330
8
100
AcDbSymbolTableRecord
100
AcDbViewportTableRecord
  2
*Active
 70
0
 10
0.0
 20
0.0
 11
1.0
 21
1.0
 12
0.0
 22
0.0
 13
0.0
 23
0.0
 14
0.5
 24
0.5
 15
0.5
 25
0.5
 16
0.0
 26
0.0
 36
1.0
 17
0.0
 27
0.0
 37
0.0
 40
1000.0
 41
1.34
 42
50.0
 43
0.0
 44
0.0
 50
0.0
 51
0.0
 71
0
 72
1000
 73
1
 74
3
 75
0
 76
0
 77
0
 78
0
281
0
 65
0
146
0.0
  0
ENDTAB
  0
TABLE
  2
LTYPE
  5
2
330
0
100
AcDbSymbolTable
 70
3
  0
LTYPE
  5
24
330
2
100
AcDbSymbolTableRecord
100
AcDbLinetypeTableRecord
  2
ByBlock
 70
0
  3

 72
65
 73
0
 40
0.0
  0
LTYPE
  5
25
330
2
100
AcDbSymbolTableRecord
100
AcDbLinetypeTableRecord
  2
ByLayer
 70
0
  3

 72
65
 73
0
 40
0.0
  0
LTYPE
  5
26
330
2
100
AcDbSymbolTableRecord
100
AcDbLinetypeTableRecord
  2
Continuous
 70
0
  3

 72
65
 73
0
 40
0.0
  0
ENDTAB
  0
TABLE
  2
LAYER
  5
1
330
0
100
AcDbSymbolTable
 70
3
  0
LAYER
  5
27
330
1
100
AcDbSymbolTableRecord
100
AcDbLayerTableRecord
  2
0
 70
0
 62
7
  6
Continuous
370
-3
390
13
347
21
  0
LAYER
  5
28
330
1
100
AcDbSymbolTableRecord
100
AcDbLayerTableRecord
  2
Defpoints
 70
0
 62
7
  6
Continuous
290
0
370
-3
390
13
347
21
  0
LAYER
  5
2F
330
1
100
AcDbSymbolTableRecord
100
AcDbLayerTableRecord
  2
relief
 70
0
 62
7
  6
Continuous
370
-3
390
13
347
21
  0
ENDTAB
  0
TABLE
  2
STYLE
  5
5
330
0
100
AcDbSymbolTable
 70
1
  0
STYLE
  5
29
330
5
100
AcDbSymbolTableRecord
100
AcDbTextStyleTableRecord
  2
Standard
 70
0
 40
0.0
 41
1.0
 50
0.0
 71
0
 42
2.5
  3
txt
  4

  0
ENDTAB
  0
TABLE
  2
VIEW
  5
7
330
0
100
AcDbSymbolTable
 70
0
  0
ENDTAB
  0
TABLE
  2
UCS
  5
6
330
0
100
AcDbSymbolTable
 70
0
  0
ENDTAB
  0
TABLE
  2
APPID
  5
3
330
0
100
AcDbSymbolTable
 70
3
  0
APPID
  5
2A
330
3
100
AcDbSymbolTableRecord
100
AcDbRegAppTableRecord
  2
ACAD
 70
0
  0
APPID
  5
9C
330
3
100
AcDbSymbolTableRecord
100
AcDbRegAppTableRecord
  2
HATCHBACKGROUNDCOLOR
 70
0
  0
APPID
  5
9D
330
3
100
AcDbSymbolTableRecord
100
AcDbRegAppTableRecord
  2
EZDXF
 70
0
  0
ENDTAB
  0
TABLE
  2
DIMSTYLE
  5
4
330
0
100
AcDbSymbolTable
 70
1
100
AcDbDimStyleTable
  0
DIMSTYLE
105
2B
330
4
100
AcDbSymbolTableRecord
100
AcDbDimStyleTableRecord
  2
Standard
 70
0
 40
1.0
 41
2.5
 42
0.625
 43
3.75
 44
1.25
 45
0.0
 46
0.0
 47
0.0
 48
0.0
 49
2.5
140
2.5
141
2.5
142
0.0
143
0.03937007874
144
1.0
145
0.0
146
1.0
147
0.625
148
0.0
 69
0
 70
0
 71
0
 72
0
 73
0
 74
0
 75
0
 76
0
 77
1
 78
8
 79
3
170
0
171
3
172
1
173
0
174
0
175
0
176
0
177
0
178
0
179
2
271
2
272
2
273
2
274
3
275
0
276
0
277
2
278
44
279
0
280
0
281
0
282
0
283
0
284
8
285
0
286
0
288
0
289
3
290
0
371
-2
372
-2
  0
ENDTAB
  0
TABLE
  2
BLOCK_RECORD
  5
9
330
0
100
AcDbSymbolTable
 70
2
  0
BLOCK_RECORD
  5
17
330
9
100
AcDbSymbolTableRecord
100
AcDbBlockTableRecord
  2
*Model_Space
340
1A
 70
0
280
1
281
0
  0
BLOCK_RECORD
  5
1B
330
9
100
AcDbSymbolTableRecord
100
AcDbBlockTableRecord
  2
*Paper_Space
340
1E
 70
0
280
1
281
0
  0
ENDTAB
  0
ENDSEC
  0
SECTION
  2
BLOCKS
  0
BLOCK
  5
18
330
17
100
AcDbEntity
  8
0
100
AcDbBlockBegin
  2
*Model_Space
 70
0
 10
0.0
 20
0.0
 30
0.0
  3
*Model_Space
  1

  0
ENDBLK
  5
19
330
17
100
AcDbEntity
  8
0
100
AcDbBlockEnd
  0
BLOCK
  5
1C
330
1B
100
AcDbEntity
  8
0
100
AcDbBlockBegin
  2
*Paper_Space
 70
0
 10
0.0
 20
0.0
 30
0.0
  3
*Paper_Space
  1

  0
ENDBLK
  5
1D
330
1B
100
AcDbEntity
  8
0
100
AcDbBlockEnd
  0
ENDSEC
  0
SECTION
  2
ENTITIES
  0
LWPOLYLINE
  5
30
330
17
100
AcDbEntity
  8
relief
100
AcDbPolyline
 90
13
 70
1
 10
12.012825651312713
 20
34.10420841683528
 10
11.852848554255214
 20
33.595190380766844
 10
11.707414829664566
 20
33.34068136273263
 10
11.198396793597302
 20
33.25584502338371
 10
10.689378757510568
 20
33.595190380766844
 10
10.180360721443304
 20
34.10420841683528
 10
10.689378757510568
 20
34.35871743486949
 10
11.198396793597302
 20
34.6132264529037
 10
11.707414829664566
 20
34.86773547093792
 10
12.216432865731832
 20
35.122244488972136
 10
12.38610554440794
 20
34.6132264529037
 10
12.216432865731832
 20
34.4435537742184
 10
12.012825651312713
 20
34.10420841683528
  0
LWPOLYLINE
  5
31
330
17
100
AcDbEntity
  8
relief
100
AcDbPolyline
 90
38
 70
1
 10
26.541654738046844
 20
38.68537074148871
 10
26.46893787575152
 20
38.93987975952293
 10
26.384101536403733
 20
39.194388777557144
 10
26.46893787575152
 20
39.44889779559136
 10
26.977955911818785
 20
39.44889779559136
 10
27.232464929862154
 20
39.194388777557144
 10
27.48697394790552
 20
38.85504342017401
 10
27.65664662658163
 20
38.68537074148871
 10
27.995991983972782
 20
38.43086172344198
 10
28.25050100201615
 20
38.17635270540776
 10
28.40320641283049
 20
37.66733466933933
 10
28.505010020040046
 20
37.1583166332709
 10
29.01402805610731
 20
36.64929859718995
 10
29.523046092194047
 20
36.64929859718995
 10
30.03206412826131
 20
36.64929859718995
 10
30.541082164328575
 20
36.140280561121514
 10
31.05010020039584
 20
35.80093520375091
 10
31.559118236482572
 20
35.63126252505309
 10
32.068136272549836
 20
35.122244488972136
 10
32.5771543086171
 20
34.6132264529037
 10
32.068136272549836
 20
34.10420841683528
 10
31.559118236482572
 20
34.10420841683528
 10
31.05010020039584
 20
34.35871743486949
 10
30.541082164328575
 20
34.6132264529037
 10
30.032064128241842
 20
34.952571810286834
 10
29.523046092194047
 20
35.122244488972136
 10
29.01402805610731
 20
34.86773547093792
 10
28.505010020040046
 20
34.6132264529037
 10
27.995991983972782
 20
34.10420841683528
 10
27.48697394790552
 20
34.6132264529037
 10
26.977955911818785
 20
35.122244488972136
 10
26.977955911818785
 20
35.63126252505309
 10
26.7743486973802
 20
36.140280561121514
 10
26.67254509019011
 20
36.64929859718995
 10
26.7743486973802
 20
37.1583166332709
 10
26.72344689379489
 20
37.66733466933933
 10
26.638610554447098
 20
38.17635270540776
 10
26.541654738046844
 20
38.68537074148871
  0
LWPOLYLINE
  5
32
330
17
100
AcDbEntity
  8
relief
100
AcDbPolyline
 90
20
 70
1
 10
28.33533734134447
 20
42.7575150300612
 10
28.505010020040046
 20
42.884769539078306
 10
29.01402805610731
 20
43.01202404809541
 10
29.523046092194047
 20
43.139278557112526
 10
29.777555110237415
 20
42.7575150300612
 10
29.726653306632635
 20
42.24849699399277
 10
29.523046092194047
 20
41.73947895791182
 10
29.18370073480289
 20
41.23046092184339
 10
29.268537074150682
 20
40.721442885774955
 10
29.01402805610731
 20
40.212424849694
 10
28.505010020040046
 20
40.085170340676896
 10
28.25050100201615
 20
40.212424849694
 10
27.995991983972782
 20
40.46693386774074
 10
27.48697394790552
 20
40.721442885774955
 10
27.232464929862154
 20
41.23046092184339
 10
26.977955911818785
 20
41.73947895791182
 10
26.977955911818785
 20
42.24849699399277
 10
27.48697394790552
 20
42.418169672678076
 10
27.995991983972782
 20
42.55390781563133
 10
28.33533734134447
 20
42.7575150300612
  0
LWPOLYLINE
  5
33
330
17
100
AcDbEntity
  8
relief
100
AcDbPolyline
 90
15
 70
1
 10
17.306613226462883
 20
53.19238476953915
 10
16.79759519037615
 20
53.19238476953915
 10
16.627922511680573
 20
52.93787575150494
 10
16.288577154308882
 20
52.42885771543651
 10
15.77955911824162
 20
52.174348697389775
 10
15.270541082174356
 20
52.174348697389775
 10
14.761523046087623
 20
52.42885771543651
 10
14.761523046087623
 20
52.93787575150494
 10
15.270541082174356
 20
53.277221108888064
 10
15.77955911824162
 20
53.44689378757337
 10
16.288577154308882
 20
53.9559118236418
 10
16.79759519037615
 20
54.21042084168854
 10
17.306613226462883
 20
53.9559118236418
 10
17.56112224450625
 20
53.44689378757337
 10
17.306613226462883
 20
53.19238476953915
  0
LWPOLYLINE
  5
34
330
17
100
AcDbEntity
  8
relief
100
AcDbPolyline
 90
22
 70
1
 10
26.46893787575152
 20
59.89445557782775
 10
26.977955911818785
 20
60.06412825651305
 10
27.48697394790552
 20
59.555110220444625
 10
26.977955911818785
 20
59.04609218436367
 10
27.48697394790552
 20
58.53707414829524
 10
27.995991983972782
 20
59.04609218436367
 10
28.25050100201615
 20
58.53707414829524
 10
27.995991983972782
 20
58.02805611222681
 10
28.165664662648894
 20
57.51903807615838
 10
28.097795591182344
 20
57.01002004007743
 10
27.995991983972782
 20
56.501002004008996
 10
27.48697394790552
 20
56.6282565130261
 10
26.977955911818785
 20
56.75551102204321
 10
26.46893787575152
 20
57.01002004007743
 10
25.959919839684257
 20
57.51903807615838
 10
26.214428857708153
 20
58.02805611222681
 10
26.46893787575152
 20
58.53707414829524
 10
25.959919839684257
 20
58.79158316632945
 10
25.705410821660358
 20
59.04609218436367
 10
25.790247160988677
 20
59.555110220444625
 10
25.959919839684257
 20
59.68236472946173
 10
26.46893787575152
 20
59.89445557782775
  0
LWPOLYLINE
  5
35
330
17
100
AcDbEntity
  8
relief
100
AcDbPolyline
 90
19
 70
1
 10
2.0360721442891947
 20
232.4604999472692
 10
2.3843476426510075
 20
232.11222444889472
 10
2.5450901803564596
 20
231.8577154308605
 10
2.981391354147869
 20
231.6032064128263
 10
2.863226452910668
 20
231.09418837675784
 10
2.646893787566019
 20
230.5851703406769
 10
2.5450901803564596
 20
230.4154976619916
 10
2.0360721442891947
 20
230.5851703406769
 10
1.5270541082219304
 20
230.5851703406769
 10
1.0180360721546657
 20
230.4154976619916
 10
0.5090180360679326
 20
230.5851703406769
 10
6.679101716144942e-13
 20
230.5851703406769
 10
6.679101716144942e-13
 20
231.09418837675784
 10
6.679101716144942e-13
 20
231.6032064128263
 10
0.5090180360679326
 20
231.6032064128263
 10
1.0180360721546657
 20
231.9849699398776
 10
1.0571913056953064
 20
232.11222444889472
 10
1.5270541082219304
 20
232.45156980627783
 10
2.0360721442891947
 20
232.4604999472692
  0
LWPOLYLINE
  5
36
330
17
100
AcDbEntity
  8
relief
100
AcDbPolyline
 90
60
 70
1
 10
8.144288577154775
 20
232.01042084168603
 10
7.635270541068044
 20
231.9425517702094
 10
7.126252505020247
 20
231.6032064128263
 10
6.617234468933514
 20
231.6032064128263
 10
6.10821643286625
 20
232.11222444889472
 10
6.362725450909616
 20
232.62124248497565
 10
6.617234468914045
 20
232.69395934727652
 10
7.126252505020247
 20
232.7909151636735
 10
7.635270541087512
 20
232.9605878423588
 10
8.144288577154775
 20
233.1302605210441
 10
8.65330661322204
 20
233.20297738334494
 10
9.162324649308774
 20
233.2756942456333
 10
9.67134268537604
 20
233.1302605210441
 10
10.180360721443304
 20
233.003006012027
 10
10.689378757510568
 20
232.9605878423588
 10
11.198396793597302
 20
233.1302605210441
 10
11.707414829664566
 20
232.8757515030099
 10
12.216432865731832
 20
233.1302605210441
 10
11.707414829664566
 20
233.63927855711253
 10
12.216432865731832
 20
233.72411489646143
 10
12.725450901779627
 20
233.72411489646143
 10
13.234468937885827
 20
233.91692475860327
 10
13.743486973953093
 20
234.03922129973594
 10
14.04889779560124
 20
234.14829659318096
 10
14.252505010020357
 20
234.27555110219808
 10
14.761523046087623
 20
234.35190380761082
 10
15.270541082174356
 20
234.35190380761082
 10
15.652304609219938
 20
234.65731462926192
 10
15.77955911824162
 20
234.784569138279
 10
16.288577154308882
 20
234.784569138279
 10
16.79759519037615
 20
234.65731462926192
 10
17.306613226462883
 20
234.55551102204072
 10
17.815631262530147
 20
234.14829659318096
 10
18.32464929859741
 20
233.63927855711253
 10
17.815631262530147
 20
233.1302605210441
 10
17.476285905138994
 20
232.62124248497565
 10
17.306613226462883
 20
232.45156980629037
 10
16.79759519037615
 20
232.11222444889472
 10
16.627922511680573
 20
231.6032064128263
 10
16.288577154308882
 20
231.34869739479208
 10
15.77955911824162
 20
231.47595190380918
 10
15.270541082174356
 20
231.6032064128263
 10
14.761523046087623
 20
232.11222444889472
 10
14.252505010020357
 20
231.9425517702094
 10
13.743486973953093
 20
231.80681362725616
 10
13.234468937885827
 20
232.11222444889472
 10
12.979959919842463
 20
231.6032064128263
 10
12.725450901799096
 20
231.09418837675784
 10
12.216432865731832
 20
231.09418837675784
 10
11.707414829645097
 20
231.43353373414098
 10
11.198396793597302
 20
231.6032064128263
 10
10.689378757510568
 20
231.43353373414098
 10
10.519706078814991
 20
231.6032064128263
 10
10.180360721443304
 20
231.9425517702094
 10
9.925851703399937
 20
232.11222444889472
 10
9.67134268537604
 20
232.19706078824362
 10
9.162324649308774
 20
232.21402805611592
 10
8.65330661322204
 20
232.28189712759254
 10
8.398797595178676
 20
232.11222444889472
 10
8.144288577154775
 20
232.01042084168603
  0
LWPOLYLINE
  5
37
330
17
100
AcDbEntity
  8
relief
100
AcDbPolyline
 90
27
 70
1
 10
0.5090180360679326
 20
237.39328657314852
 10
1.0180360721546657
 20
237.4569138276508
 10
1.5270541082219304
 20
237.48519260743794
 10
2.0360721442891947
 20
237.4569138276508
 10
2.5450901803564596
 20
237.4569138276508
 10
2.952304609214165
 20
237.71142284569754
 10
3.054108216443193
 20
237.79625918503393
 10
3.5631262525104574
 20
237.9150300601274
 10
4.0721442885777215
 20
237.83867735471463
 10
4.326653306601621
 20
237.71142284569754
 10
4.581162324644986
 20
237.20240480961658
 10
4.0721442885777215
 20
236.69338677354816
 10
3.817635270553824
 20
236.18436873747973
 10
3.563126252490989
 20
236.0146960587944
 10
3.054108216443193
 20
235.8026052104159
 10
2.5450901803564596
 20
235.67535070139877
 10
2.0360721442891947
 20
235.54809619238168
 10
1.527054108241399
 20
235.45720011450874
 10
1.1452905811763492
 20
235.67535070139877
 10
1.0180360721546657
 20
235.7601870407477
 10
0.5090180360679326
 20
235.7601870407477
 10
6.679101716144942e-13
 20
235.7601870407477
 10
6.679101716144942e-13
 20
236.18436873747973
 10
6.679101716144942e-13
 20
236.69338677354816
 10
6.679101716144942e-13
 20
237.13877755510177
 10
0.12725450902235122
 20
237.20240480961658
 10
0.5090180360679326
 20
237.39328657314852
  0
LWPOLYLINE
  5
38
330
17
100
AcDbEntity
  8
relief
100
AcDbPolyline
 90
31
 70
1
 10
8.65330661322204
 20
236.94789579158237
 10
8.144288577154775
 20
236.99879759518672
 10
7.635270541068044
 20
237.0327321309313
 10
7.126252505020247
 20
237.20240480961658
 10
7.126252505020247
 20
237.71142284569754
 10
7.635270541087512
 20
238.09318637274885
 10
7.889779559130879
 20
238.22044088176597
 10
8.144288577154775
 20
238.3052772211149
 10
8.65330661322204
 20
238.3901135604638
 10
9.162324649308774
 20
238.22044088176597
 10
9.162324649308774
 20
238.7294589178344
 10
9.162324649308774
 20
239.23847695390282
 10
9.67134268537604
 20
239.49298597194957
 10
10.180360721443304
 20
239.6202404809667
 10
10.307615230464988
 20
239.74749498998378
 10
10.689378757510568
 20
239.96564557687384
 10
11.198396793597302
 20
239.9171676686816
 10
11.707414829664566
 20
239.82021185228464
 10
12.216432865731832
 20
239.74749498998378
 10
12.216432865731832
 20
239.23847695390282
 10
11.961923847707933
 20
238.7294589178344
 10
11.707414829664566
 20
238.22044088176597
 10
11.198396793597302
 20
238.22044088176597
 10
10.689378757510568
 20
238.22044088176597
 10
10.180360721443304
 20
238.22044088176597
 10
10.43486973948667
 20
237.71142284569754
 10
10.180360721443304
 20
237.54175016699972
 10
9.962210134557333
 20
237.20240480961658
 10
9.67134268537604
 20
236.9115373604382
 10
9.162324649308774
 20
237.0327321309313
 10
8.65330661322204
 20
236.94789579158237
  0
LWPOLYLINE
  5
39
330
17
100
AcDbEntity
  8
relief
100
AcDbPolyline
 90
203
 70
1
 10
13.234468937885827
 20
240.002004008018
 10
13.404141616581407
 20
240.2565130260522
 10
13.743486973953093
 20
240.4601202404821
 10
14.252505010020357
 20
240.56192384769076
 10
14.761523046087623
 20
240.76553106212063
 10
15.01603206413099
 20
241.2745490982016
 10
14.863326653297182
 20
241.78356713427002
 10
14.761523046087623
 20
242.03807615230423
 10
14.616089321496975
 20
242.29258517033844
 10
14.47065559690633
 20
242.8016032064069
 10
14.422177688715937
 20
243.31062124248783
 10
14.252505010020357
 20
243.81963927855628
 10
13.947094188372212
 20
244.3286573146247
 10
14.179788147725034
 20
244.83767535070564
 10
14.20160320639611
 20
245.3466933867866
 10
13.870741482974777
 20
245.85571142284252
 10
13.743486973953093
 20
246.11022044088924
 10
13.658650634605305
 20
246.36472945892345
 10
13.55260521042057
 20
246.8737474949919
 10
13.55260521042057
 20
247.38276553106033
 10
13.743486973953093
 20
247.76452905811163
 10
13.99799599197699
 20
247.89178356712875
 10
14.252505010020357
 20
248.06145624582658
 10
14.761523046087623
 20
247.89178356712875
 10
14.834239908382948
 20
247.38276553106033
 10
14.825150300598466
 20
246.8737474949919
 10
14.863326653297182
 20
246.36472945892345
 10
15.044310843913586
 20
245.85571142284252
 10
15.177992348342174
 20
245.3466933867741
 10
15.270541082174356
 20
245.2012596621849
 10
15.694722778893832
 20
244.83767535070564
 10
15.77955911824162
 20
244.3286573146247
 10
15.694722778893832
 20
243.81963927855628
 10
15.525050100198253
 20
243.31062124248783
 10
15.652304609219938
 20
242.8016032064069
 10
15.77955911824162
 20
242.71676686705797
 10
16.288577154308882
 20
242.41983967935556
 10
16.79759519037615
 20
242.597995991977
 10
17.306613226462883
 20
242.8016032064069
 10
17.74291440021536
 20
243.31062124248783
 10
17.815631262510678
 20
243.3833381047887
 10
18.32464929859741
 20
243.59340904030918
 10
18.731863727455117
 20
243.81963927855628
 10
18.833667334664675
 20
243.90447561790518
 10
19.34268537075141
 20
244.1377755511053
 10
19.851703406818675
 20
244.1589846359394
 10
20.36072144288594
 20
244.3286573146247
 10
20.542513598633985
 20
244.83767535070564
 10
20.700066800257623
 20
245.3466933867741
 10
20.784903139605415
 20
245.85571142284252
 10
20.869739478953203
 20
246.36472945892345
 10
21.20908483634436
 20
246.8737474949919
 10
21.378757515039936
 20
247.04342017368973
 10
21.718102872411624
 20
247.38276553106033
 10
21.887775551107204
 20
247.63727454909454
 10
22.015030060128886
 20
247.89178356712875
 10
22.396793587174468
 20
248.40080160320971
 10
22.905811623241732
 20
248.60440881763958
 10
23.414829659328465
 20
248.60440881763958
 10
23.66933867735236
 20
248.90981963927814
 10
23.92384769539573
 20
249.16432865731235
 10
24.178356713439097
 20
249.41883767534657
 10
24.36014886916767
 20
249.92785571142753
 10
24.432865731462996
 20
250.01269205077642
 10
24.94188376753026
 20
250.43687374749595
 10
25.111556446225837
 20
250.94589178356438
 10
25.111556446225837
 20
251.45490981964534
 10
24.94188376753026
 20
251.96392785571376
 10
25.450901803616993
 20
252.21843687374798
 10
25.959919839684257
 20
252.4729458917822
 10
26.46893787575152
 20
252.7274549098164
 10
26.977955911818785
 20
252.4729458917822
 10
27.48697394790552
 20
252.21843687374798
 10
27.741482965929418
 20
251.96392785571376
 10
27.995991983972782
 20
251.79425517702845
 10
28.12324649299447
 20
251.96392785571376
 10
28.505010020040046
 20
252.4729458917822
 10
29.01402805610731
 20
252.64261857048
 10
29.523046092194047
 20
252.81229124916533
 10
29.692718770889623
 20
252.98196392785061
 10
30.03206412826131
 20
253.1855711422805
 10
30.541082164328575
 20
253.08376753507181
 10
30.795591182371943
 20
252.98196392785061
 10
31.05010020039584
 20
252.88016032064195
 10
31.559118236482572
 20
252.4729458917822
 10
31.559118236482572
 20
251.96392785571376
 10
31.559118236482572
 20
251.45490981964534
 10
32.068136272549836
 20
251.96392785571376
 10
32.5771543086171
 20
252.09118236473088
 10
33.086172344684364
 20
252.26933867735232
 10
33.5951903807711
 20
252.3881095524333
 10
34.10420841683837
 20
252.4729458917822
 10
34.44355377421005
 20
252.98196392785061
 10
34.20601202404793
 20
253.49098196393157
 10
34.273881095514476
 20
254.0
 10
34.61322645290563
 20
254.0
 10
35.122244488972896
 20
254.0
 10
35.631262525059626
 20
254.0
 10
35.29191716766847
 20
253.49098196393157
 10
35.122244488972896
 20
253.23647294589736
 10
34.86773547094899
 20
252.98196392785061
 10
35.122244488972896
 20
252.4729458917822
 10
35.631262525059626
 20
252.327512167193
 10
36.14028056112689
 20
252.3881095524333
 10
36.242084168336454
 20
252.4729458917822
 10
36.649298597194154
 20
252.98196392785061
 10
37.15831663326142
 20
253.32130928523375
 10
37.66733466934816
 20
252.98196392785061
 10
38.176352705415425
 20
253.32130928523375
 10
38.430861723439314
 20
253.49098196393157
 10
38.685370741482686
 20
254.0
 10
39.19438877754995
 20
254.0
 10
39.70340681363668
 20
254.0
 10
40.21242484970394
 20
254.0
 10
40.72144288577121
 20
254.0
 10
40.551770207075634
 20
253.49098196393157
 10
40.38209752838005
 20
252.98196392785061
 10
40.21242484968448
 20
252.81229124916533
 10
39.87307949231279
 20
252.4729458917822
 10
39.703406813617214
 20
252.37114228457352
 10
39.19438877754995
 20
252.37114228457352
 10
38.685370741482686
 20
252.13360053439908
 10
38.430861723439314
 20
251.96392785571376
 10
38.176352705415425
 20
251.45490981964534
 10
37.66733466934816
 20
250.94589178356438
 10
37.327989311957
 20
250.43687374749595
 10
37.15831663326142
 20
250.26720106881064
 10
36.649298597194154
 20
250.43687374749595
 10
36.14028056112689
 20
250.69138276553016
 10
35.922129974240924
 20
250.43687374749595
 10
35.631262525059626
 20
249.92785571142753
 10
35.122244488972896
 20
249.41883767534657
 10
34.61322645290563
 20
249.29158316632947
 10
34.176925279114215
 20
248.90981963927814
 10
34.10420841681889
 20
248.8371027769898
 10
33.5951903807711
 20
248.74014696059282
 10
33.086172344684364
 20
248.70621242484827
 10
32.831663326641
 20
248.40080160320971
 10
32.64987117089296
 20
247.89178356712875
 10
32.577154308597635
 20
247.8190667048279
 10
32.06813627253037
 20
247.72211088844344
 10
31.559118236482572
 20
247.484569138269
 10
31.389445557786996
 20
247.38276553106033
 10
31.05010020039584
 20
247.2555110220432
 10
30.541082164328575
 20
247.12825651302612
 10
30.03206412826131
 20
247.09189808188194
 10
29.5957629544699
 20
246.8737474950044
 10
29.523046092174578
 20
246.80103063270357
 10
29.01402805610731
 20
246.670140280562
 10
28.505010020040046
 20
246.59966086018002
 10
28.165664662648894
 20
246.36472945892345
 10
27.995991983953314
 20
246.19505678023816
 10
27.48697394790552
 20
246.11022044088924
 10
26.977955911818785
 20
246.0011451474317
 10
26.72344689379489
 20
245.85571142284252
 10
26.46893787575152
 20
245.65210420841262
 10
25.959919839684257
 20
245.431529726123
 10
25.858116232474696
 20
245.3466933867741
 10
25.450901803616993
 20
245.09218436873988
 10
25.111556446225837
 20
244.83767535070564
 10
24.94188376753026
 20
244.66800267200782
 10
24.432865731462996
 20
244.58316633265892
 10
23.92384769539573
 20
244.58316633265892
 10
23.584502338004572
 20
244.3286573146247
 10
23.414829659308996
 20
244.226853707416
 10
22.905811623241732
 20
243.81963927855628
 10
22.396793587174468
 20
243.31062124248783
 10
21.887775551107204
 20
242.87432006870773
 10
21.378757515039936
 20
242.9034068136281
 10
21.124248496996568
 20
242.8016032064069
 10
20.869739478953203
 20
242.29258517033844
 10
20.48797595190762
 20
241.78356713427002
 10
20.36072144288594
 20
241.65631262525292
 10
19.851703406818675
 20
241.65631262525292
 10
19.34268537075141
 20
241.61389445558473
 10
18.833667334664675
 20
241.37635270541028
 10
18.706412825642992
 20
241.2745490982016
 10
18.32464929859741
 20
240.96913827655052
 10
17.985303941206258
 20
240.76553106212063
 10
17.815631262510678
 20
240.6928141998323
 10
17.306613226462883
 20
240.42618570473752
 10
17.136940547767306
 20
240.2565130260522
 10
16.79759519037615
 20
240.08684034736692
 10
16.458249832984993
 20
239.74749498998378
 10
16.288577154308882
 20
239.6202404809667
 10
16.034068136284986
 20
239.23847695390282
 10
15.77955911824162
 20
238.9839679358686
 10
15.270541082174356
 20
238.9839679358686
 10
14.992894880677811
 20
238.7294589178344
 10
14.761523046107092
 20
238.4980870832567
 10
14.252505010020357
 20
238.52585170340453
 10
13.743486973933626
 20
238.5597862391491
 10
13.438076152324417
 20
238.22044088176597
 10
13.234468937885827
 20
238.0168336673361
 10
12.725450901799096
 20
238.0168336673361
 10
12.216432865731832
 20
238.22044088176597
 10
12.725450901799096
 20
238.7294589178344
 10
13.234468937885827
 20
239.06880427521753
 10
13.743486973953093
 20
239.23847695390282
 10
13.743486973953093
 20
239.74749498998378
 10
13.234468937885827
 20
239.49298597194957
 10
12.725450901799096
 20
239.74749498998378
 10
13.234468937885827
 20
240.002004008018
  0
LWPOLYLINE
  5
3A
330
17
100
AcDbEntity
  8
relief
100
AcDbPolyline
 90
16
 70
1
 10
22.396793587174468
 20
254.0
 10
22.905811623241732
 20
254.0
 10
23.160320641285097
 20
253.49098196393157
 10
22.905811623241732
 20
252.98196392785061
 10
22.396793587174468
 20
252.7274549098164
 10
21.887775551107204
 20
252.4729458917822
 10
21.378757515020467
 20
252.37114228457352
 10
20.869739478953203
 20
252.21843687374798
 10
20.53039412158152
 20
252.4729458917822
 10
20.36072144288594
 20
252.98196392785061
 10
20.869739478953203
 20
253.49098196393157
 10
21.378757515039936
 20
253.23647294589736
 10
21.633266533083304
 20
253.49098196393157
 10
21.633266533083304
 20
254.0
 10
21.887775551107204
 20
254.0
 10
22.396793587174468
 20
254.0
  0
LWPOLYLINE
  5
3B
330
17
100
AcDbEntity
  8
relief
100
AcDbPolyline
 90
14
 70
1
 10
37.66733466934816
 20
7.126252505008114
 10
37.92184368739152
 20
6.6172344689396825
 10
37.92184368739152
 20
6.108216432871251
 10
37.92184368739152
 20
5.5991983967903005
 10
37.66733466934816
 20
5.344689378756085
 10
37.15831663326142
 20
5.090180360721869
 10
36.649298597194154
 20
5.5991983967903005
 10
36.14028056112689
 20
6.108216432871251
 10
35.88577154308353
 20
6.6172344689396825
 10
35.631262525059626
 20
7.126252505008114
 10
36.14028056112689
 20
7.380761523042328
 10
36.649298597194154
 20
7.126252505008114
 10
37.15831663326142
 20
6.95657982632281
 10
37.66733466934816
 20
7.126252505008114
  0
LWPOLYLINE
  5
3C
330
17
100
AcDbEntity
  8
relief
100
AcDbPolyline
 90
273
 70
1
 10
37.15831663326142
 20
2.5450901803546744
 10
36.649298597194154
 20
2.5450901803546744
 10
36.14028056112689
 20
2.0360721442862437
 10
35.631262525059626
 20
1.6967267869031164
 10
35.122244488972896
 20
1.5270541082178128
 10
34.61322645290563
 20
1.5270541082178128
 10
34.44355377421005
 20
2.0360721442862437
 10
34.61322645290563
 20
2.2905811623204593
 10
35.122244488972896
 20
2.5450901803546744
 10
35.631262525059626
 20
2.7995991984014106
 10
35.88577154308353
 20
3.0541082164356257
 10
35.8009352037552
 20
3.563126252504057
 10
36.14028056112689
 20
4.0721442885724874
 10
36.649298597194154
 20
4.411489645955615
 10
37.15831663326142
 20
4.411489645955615
 10
37.412825651304786
 20
4.0721442885724874
 10
37.46372745490957
 20
3.563126252504057
 10
37.49766199065258
 20
3.0541082164356257
 10
37.66733466934816
 20
2.8844355377378017
 10
37.92184368739152
 20
3.0541082164356257
 10
38.176352705415425
 20
3.1813627254527335
 10
38.685370741482686
 20
3.0541082164356257
 10
39.19438877754995
 20
3.3086172344698412
 10
39.44889779559332
 20
3.563126252504057
 10
39.44889779559332
 20
4.0721442885724874
 10
39.70340681363668
 20
4.241816967270311
 10
40.21242484968448
 20
4.241816967270311
 10
40.46693386774731
 20
4.581162324653439
 10
40.46693386774731
 20
5.090180360721869
 10
40.21242484970394
 20
5.5991983967903005
 10
39.70340681363668
 20
6.108216432871251
 10
39.19438877754995
 20
6.6172344689396825
 10
38.685370741482686
 20
7.126252505008114
 10
38.176352705415425
 20
7.635270541076544
 10
38.685370741482686
 20
7.889779559110759
 10
38.93987975952605
 20
8.144288577157495
 10
39.19438877754995
 20
8.313961255842798
 10
39.70340681363668
 20
8.398797595191711
 10
40.21242484970394
 20
8.653306613225926
 10
40.72144288577121
 20
8.144288577157495
 10
41.23046092183848
 20
8.144288577157495
 10
41.73947895792521
 20
8.144288577157495
 10
42.248496993973006
 20
7.804943219774368
 10
42.757515030059736
 20
7.804943219774368
 10
43.266533066127
 20
8.144288577157495
 10
43.77555110221374
 20
8.398797595191711
 10
44.284569138281
 20
8.653306613225926
 10
44.284569138281
 20
9.162324649294357
 10
43.77555110221374
 20
8.907815631260142
 10
43.266533066127
 20
8.653306613225926
 10
42.757515030059736
 20
9.162324649294357
 10
42.587842351364166
 20
9.671342685375308
 10
42.757515030059736
 20
9.925851703409524
 10
43.01202404810311
 20
10.180360721443739
 10
43.266533066127
 20
10.350033400141562
 10
43.605878423518156
 20
10.68937875751217
 10
43.77555110221374
 20
11.19839679359312
 10
44.284569138281
 20
11.707414829661552
 10
44.79358717434827
 20
11.707414829661552
 10
45.048096192372164
 20
12.216432865729983
 10
45.30260521041553
 20
12.470941883764198
 10
45.55711422845889
 20
12.216432865729983
 10
45.811623246502265
 20
11.961923847695768
 10
46.320641282569525
 20
12.216432865729983
 10
46.65998663994121
 20
12.725450901798414
 10
46.82965931863679
 20
12.895123580496238
 10
47.33867735470405
 20
13.234468937879365
 10
47.84769539079079
 20
13.743486973947796
 10
48.35671342685806
 20
13.48897795591358
 10
48.865731462925325
 20
13.361723446896473
 10
49.24749498999037
 20
13.743486973947796
 10
49.374749498992585
 20
13.99799599198201
 10
49.44746636128791
 20
14.252505010016227
 10
49.592900085878554
 20
14.761523046097178
 10
49.883767535079315
 20
15.27054108216561
 10
49.883767535079315
 20
15.77955911823404
 10
49.54442217768816
 20
16.28857715430247
 10
49.883767535079315
 20
16.797595190383422
 10
50.39278557114658
 20
16.797595190383422
 10
50.90180360721385
 20
16.797595190383422
 10
51.41082164328111
 20
17.103006012021975
 10
51.91983967936785
 20
17.153907815626315
 10
52.428857715435115
 20
17.22177688710294
 10
52.57429144002575
 20
17.30661322645185
 10
52.73426853708325
 20
17.815631262520284
 10
52.598530394130684
 20
18.324649298601233
 10
52.598530394130684
 20
18.833667334669666
 10
52.937875751502375
 20
19.342685370738096
 10
53.44689378756964
 20
19.342685370738096
 10
53.61656646626521
 20
18.833667334669666
 10
53.44689378756964
 20
18.324649298601233
 10
53.95591182365637
 20
18.121042084171357
 10
54.46492985972364
 20
17.94288577153739
 10
54.9739478957909
 20
17.88834812482114
 10
55.228456913834265
 20
17.815631262520284
 10
55.48296593185817
 20
17.742914400219426
 10
55.9919839679449
 20
17.815631262520284
 10
56.501002004012165
 20
18.070140280554497
 10
57.010020040079425
 20
18.121042084171357
 10
57.51903807614669
 20
17.815631262520284
 10
58.02805611223343
 20
17.713827655311604
 10
58.15531062125511
 20
17.815631262520284
 10
58.5370741483007
 20
18.121042084171357
 10
59.04609218436796
 20
18.121042084171357
 10
59.555110220435225
 20
18.121042084171357
 10
59.93687374750027
 20
17.815631262520284
 10
60.064128256521954
 20
17.561122244486068
 10
60.19138276552417
 20
17.30661322645185
 10
60.573146292589215
 20
17.11573146293245
 10
61.08216432865648
 20
16.943028914972615
 10
61.336673346680385
 20
16.797595190383422
 10
61.59118236472375
 20
16.458249833000295
 10
62.100200400810486
 20
16.41583166331958
 10
62.60921843685828
 20
16.458249833000295
 10
63.01643286573545
 20
16.797595190383422
 10
63.11823647292554
 20
16.870312052684277
 10
63.62725450901228
 20
16.797595190383422
 10
64.136272545099
 20
16.28857715430247
 10
64.64529058116626
 20
16.28857715430247
 10
64.89979959920964
 20
15.77955911823404
 10
64.98463593853796
 20
15.27054108216561
 10
64.98463593853796
 20
14.761523046097178
 10
65.15430861723353
 20
14.507014028050442
 10
65.6633266533008
 20
14.456112224446104
 10
66.00267201069195
 20
14.252505010016227
 10
66.17234468938754
 20
14.125250500999119
 10
66.6813627254548
 20
13.870741482964904
 10
66.9358717434787
 20
13.743486973947796
 10
67.19038076152206
 20
13.48897795591358
 10
67.29218436873163
 20
13.234468937879365
 10
67.31763527054375
 20
12.725450901798414
 10
67.69939879758934
 20
12.216432865729983
 10
68.20841683367607
 20
12.089178356712875
 10
68.71743486974333
 20
12.216432865729983
 10
69.09919839680839
 20
12.725450901798414
 10
69.22645290581059
 20
12.97995991984515
 10
69.39612558450617
 20
13.234468937879365
 10
69.73547094187786
 20
13.48897795591358
 10
70.2444889779646
 20
13.53987975951792
 10
70.54989979959326
 20
13.234468937879365
 10
70.75350701401238
 20
12.895123580496238
 10
71.00801603205575
 20
12.725450901798414
 10
71.09285237140355
 20
12.216432865729983
 10
70.92317969270796
 20
11.707414829661552
 10
71.00801603205575
 20
11.19839679359312
 10
71.26252505009911
 20
10.68937875751217
 10
71.26252505009911
 20
10.180360721443739
 10
70.75350701403185
 20
9.671342685375308
 10
71.26252505009911
 20
9.671342685375308
 10
71.77154308616639
 20
9.671342685375308
 10
72.02605210420975
 20
9.162324649294357
 10
72.15330661323144
 20
8.653306613225926
 10
72.02605210420975
 20
8.144288577157495
 10
71.77154308616639
 20
7.889779559110759
 10
71.26252505009911
 20
7.974615898459671
 10
70.75350701403185
 20
7.889779559110759
 10
70.2444889779646
 20
8.144288577157495
 10
69.73547094187786
 20
8.144288577157495
 10
69.22645290581059
 20
8.144288577157495
 10
69.22645290581059
 20
7.635270541076544
 10
69.22645290581059
 20
7.126252505008114
 10
69.73547094187786
 20
7.126252505008114
 10
70.2444889779646
 20
7.126252505008114
 10
70.34629258517414
 20
6.6172344689396825
 10
70.75350701403185
 20
6.108216432871251
 10
71.26252505009911
 20
6.311823647301128
 10
71.77154308616639
 20
6.6172344689396825
 10
72.28056112225312
 20
6.6172344689396825
 10
72.78957915832038
 20
6.108216432871251
 10
73.29859719438764
 20
5.5991983967903005
 10
73.55310621241154
 20
5.090180360721869
 10
73.29859719438764
 20
4.581162324653439
 10
72.78957915830091
 20
4.411489645955615
 10
72.28056112225312
 20
4.581162324653439
 10
71.77154308616639
 20
4.7084168336705465
 10
71.26252505009911
 20
4.581162324653439
 10
70.75350701403185
 20
4.581162324653439
 10
70.2444889779646
 20
4.581162324653439
 10
69.73547094187786
 20
4.199398797589595
 10
69.56579826318227
 20
4.0721442885724874
 10
69.73547094187786
 20
3.563126252504057
 10
70.2444889779646
 20
3.563126252504057
 10
70.37174348698628
 20
3.0541082164356257
 10
70.32932531729291
 20
2.5450901803546744
 10
70.2444889779646
 20
2.2905811623204593
 10
69.73547094187786
 20
2.1378757514949216
 10
69.22645290581059
 20
2.0360721442862437
 10
69.73547094187786
 20
1.8663994656009404
 10
70.2444889779646
 20
1.5270541082178128
 10
70.75350701403185
 20
1.5270541082178128
 10
71.26252505009911
 20
1.5270541082178128
 10
71.77154308616639
 20
1.5270541082178128
 10
72.28056112225312
 20
1.0180360721493822
 10
72.28056112225312
 20
0.5090180360684308
 10
72.78957915832038
 20
0.0
 10
72.28056112225312
 20
0.0
 10
71.77154308616639
 20
0.0
 10
71.26252505009911
 20
0.0
 10
70.75350701403185
 20
0.0
 10
70.2444889779646
 20
0.0
 10
69.73547094187786
 20
0.0
 10
69.22645290581059
 20
0.0
 10
68.71743486974333
 20
0.0
 10
68.20841683367607
 20
0.0
 10
67.69939879758934
 20
0.0
 10
67.19038076152206
 20
0.0
 10
66.6813627254548
 20
0.0
 10
66.17234468938754
 20
0.0
 10
65.6633266533008
 20
0.0
 10
65.15430861723353
 20
0.0
 10
64.64529058116626
 20
0.0
 10
64.136272545099
 20
0.0
 10
63.62725450901228
 20
0.0
 10
63.118236472945014
 20
0.0
 10
62.60921843687775
 20
0.0
 10
62.100200400810486
 20
0.0
 10
61.59118236472375
 20
0.0
 10
61.08216432865648
 20
0.0
 10
60.573146292589215
 20
0.0
 10
60.064128256521954
 20
0.0
 10
59.555110220435225
 20
0.0
 10
59.04609218436796
 20
0.0
 10
58.5370741483007
 20
0.0
 10
58.02805611223343
 20
0.0
 10
57.51903807614669
 20
0.0
 10
57.010020040079425
 20
0.0
 10
56.501002004012165
 20
0.0
 10
55.9919839679449
 20
0.0
 10
55.48296593185817
 20
0.0
 10
54.9739478957909
 20
0.0
 10
54.46492985972364
 20
0.0
 10
53.95591182365637
 20
0.0
 10
53.44689378756964
 20
0.0
 10
52.937875751502375
 20
0.0
 10
52.428857715435115
 20
0.0
 10
51.91983967936785
 20
0.0
 10
51.41082164328111
 20
0.0
 10
50.90180360721385
 20
0.0
 10
50.39278557114658
 20
0.0
 10
49.883767535079315
 20
0.0
 10
49.374749498992585
 20
0.0
 10
48.865731462925325
 20
0.0
 10
48.35671342685806
 20
0.0
 10
47.84769539079079
 20
0.0
 10
47.33867735470405
 20
0.0
 10
46.82965931863679
 20
0.0
 10
46.320641282569525
 20
0.0
 10
45.811623246502265
 20
0.0
 10
45.30260521041553
 20
0.0
 10
44.79358717434827
 20
0.0
 10
44.284569138281
 20
0.0
 10
43.77555110221374
 20
0.0
 10
43.266533066127
 20
0.0
 10
42.757515030059736
 20
0.0
 10
42.24849699399247
 20
0.0
 10
41.73947895792521
 20
0.0
 10
41.23046092183848
 20
0.0
 10
40.72144288577121
 20
0.0
 10
40.21242484970394
 20
0.0
 10
39.70340681363668
 20
0.0
 10
39.36406145624552
 20
0.0
 10
39.19438877754995
 20
0.5090180360684308
 10
38.685370741482686
 20
0.0
 10
38.176352705415425
 20
0.0
 10
37.66733466934816
 20
0.5090180360684308
 10
38.176352705415425
 20
1.0180360721493822
 10
38.685370741482686
 20
1.5270541082178128
 10
38.176352705415425
 20
1.5270541082178128
 10
37.66733466934816
 20
1.0180360721493822
 10
37.15831663326142
 20
1.0180360721493822
 10
36.649298597194154
 20
1.5270541082178128
 10
37.15831663326142
 20
2.0360721442862437
 10
37.15831663326142
 20
2.5450901803546744
  0
LWPOLYLINE
  5
3D
330
17
100
AcDbEntity
  8
relief
100
AcDbPolyline
 90
13
 70
1
 10
47.33867735470405
 20
24.432865731459966
 10
46.82965931863679
 20
23.923847695391537
 10
46.32064128255006
 20
24.263193052774664
 10
45.811623246502265
 20
24.263193052774664
 10
45.30260521041553
 20
24.432865731459966
 10
45.30260521041553
 20
24.94188376754092
 10
45.47227788911111
 20
25.450901803609348
 10
45.811623246502265
 20
25.705410821643564
 10
46.32064128255006
 20
25.620574482307173
 10
46.82965931863679
 20
25.450901803609348
 10
47.33867735470405
 20
25.450901803609348
 10
47.84769539079079
 20
24.94188376754092
 10
47.33867735470405
 20
24.432865731459966
  0
LWPOLYLINE
  5
3E
330
17
100
AcDbEntity
  8
relief
100
AcDbPolyline
 90
15
 70
1
 10
48.61122244490142
 20
27.99599198396402
 10
48.73847695390364
 20
27.486973947895592
 10
48.61122244490142
 20
26.97795591182716
 10
48.35671342685806
 20
26.46893787574621
 10
48.0173680694669
 20
25.959919839677777
 10
47.84769539079079
 20
25.450901803609348
 10
47.33867735470405
 20
25.959919839677777
 10
47.084168336680165
 20
26.46893787574621
 10
46.82965931863679
 20
26.97795591182716
 10
46.82965931863679
 20
27.486973947895592
 10
46.99933199733237
 20
27.99599198396402
 10
47.33867735470405
 20
28.33533734134715
 10
47.84769539079079
 20
28.377755511027868
 10
48.35671342685806
 20
28.12324649298113
 10
48.61122244490142
 20
27.99599198396402
  0
LWPOLYLINE
  5
3F
330
17
100
AcDbEntity
  8
relief
100
AcDbPolyline
 90
36
 70
1
 10
48.865731462925325
 20
34.10420841683528
 10
48.865731462925325
 20
34.6132264529037
 10
48.73847695390364
 20
35.122244488972136
 10
48.865731462925325
 20
35.29191716766996
 10
49.20507682029701
 20
35.63126252505309
 10
49.374749498992585
 20
35.80093520375091
 10
49.883767535079315
 20
35.8857715430873
 10
50.39278557114658
 20
35.8857715430873
 10
50.90180360721385
 20
36.01302605210441
 10
51.41082164328111
 20
35.8857715430873
 10
51.91983967936785
 20
35.758517034070195
 10
52.428857715435115
 20
35.63126252505309
 10
52.301603206413425
 20
35.122244488972136
 10
51.91983967936785
 20
34.81683366733358
 10
51.58049432197669
 20
34.6132264529037
 10
51.41082164328111
 20
34.556668893341936
 10
50.90180360721385
 20
34.20601202404395
 10
50.64729458917048
 20
34.10420841683528
 10
50.39278557114658
 20
33.595190380766844
 10
50.39278557114658
 20
33.08617234468589
 10
49.883767535079315
 20
32.57715430861746
 10
49.75651302605763
 20
32.06813627254903
 10
49.883767535079315
 20
31.55911823646808
 10
50.011022044101
 20
31.050100200399648
 10
49.883767535079315
 20
30.54108216433122
 10
49.374749498992585
 20
30.133867735471465
 10
48.865731462925325
 20
30.159318637267372
 10
48.35671342685806
 20
30.54108216433122
 10
48.153106212438935
 20
31.050100200399648
 10
48.229458917836375
 20
31.55911823646808
 10
48.35671342685806
 20
31.686372745485187
 10
48.73847695390364
 20
32.06813627254903
 10
48.61122244490142
 20
32.57715430861746
 10
48.69605878422974
 20
33.08617234468589
 10
48.865731462925325
 20
33.595190380766844
 10
48.865731462925325
 20
34.10420841683528
  0
LWPOLYLINE
  5
40
330
17
100
AcDbEntity
  8
relief
100
AcDbPolyline
 90
15
 70
1
 10
45.30260521041553
 20
33.595190380766844
 10
45.30260521041553
 20
33.08617234468589
 10
45.42985971943721
 20
32.57715430861746
 10
45.30260521041553
 20
32.06813627254903
 10
44.79358717434827
 20
32.06813627254903
 10
44.284569138281
 20
32.06813627254903
 10
43.77555110221374
 20
32.06813627254903
 10
43.64829659319206
 20
32.57715430861746
 10
43.521042084170375
 20
33.08617234468589
 10
43.266533066127
 20
33.595190380766844
 10
43.77555110221374
 20
34.10420841683528
 10
44.284569138281
 20
34.6132264529037
 10
44.79358717434827
 20
34.6132264529037
 10
45.21776887106774
 20
34.10420841683528
 10
45.30260521041553
 20
33.595190380766844
  0
LWPOLYLINE
  5
41
330
17
100
AcDbEntity
  8
relief
100
AcDbPolyline
 90
38
 70
1
 10
54.46492985972364
 20
34.4859719438866
 10
54.40130260521279
 20
34.6132264529037
 10
54.15951903807549
 20
35.122244488972136
 10
53.9559118236369
 20
35.52945891784441
 10
53.44689378756964
 20
35.42765531062321
 10
52.937875751502375
 20
35.50400801603598
 10
52.428857715435115
 20
35.63126252505309
 10
52.428857715435115
 20
36.140280561121514
 10
52.63246492985423
 20
36.64929859718995
 10
52.937875751502375
 20
37.03106212425379
 10
53.44689378756964
 20
37.03106212425379
 10
53.95591182365637
 20
36.64929859718995
 10
53.95591182365637
 20
36.140280561121514
 10
54.46492985972364
 20
36.01302605210441
 10
54.9739478957909
 20
36.03847695391284
 10
55.48296593185817
 20
36.140280561121514
 10
55.9919839679449
 20
35.63126252505309
 10
56.29739478957357
 20
35.122244488972136
 10
56.501002004012165
 20
34.6132264529037
 10
57.010020040079425
 20
34.10420841683528
 10
57.51903807614669
 20
34.6132264529037
 10
58.02805611223343
 20
34.4435537742184
 10
58.282565130276794
 20
34.10420841683528
 10
58.282565130276794
 20
33.595190380766844
 10
58.23166332667202
 20
33.08617234468589
 10
58.02805611223343
 20
32.57715430861746
 10
57.51903807614669
 20
32.237808951234335
 10
57.010020040079425
 20
32.06813627254903
 10
56.501002003992696
 20
31.898463593863728
 10
56.2464929859688
 20
32.06813627254903
 10
55.9919839679449
 20
32.237808951234335
 10
55.84655024335426
 20
32.57715430861746
 10
55.83927855713056
 20
33.08617234468589
 10
55.90714762859711
 20
33.595190380779364
 10
55.48296593185817
 20
34.019372077498886
 10
55.228456913834265
 20
34.10420841683528
 10
54.9739478957909
 20
34.18904475618419
 10
54.46492985972364
 20
34.4859719438866
  0
LWPOLYLINE
  5
42
330
17
100
AcDbEntity
  8
relief
100
AcDbPolyline
 90
12
 70
1
 10
42.24849699399247
 20
34.6132264529037
 10
41.73947895792521
 20
34.27388109552058
 10
41.23046092183848
 20
34.35871743486949
 10
41.060788243142895
 20
34.6132264529037
 10
41.060788243142895
 20
35.122244488972136
 10
41.060788243142895
 20
35.63126252505309
 10
41.23046092183848
 20
35.8857715430873
 10
41.73947895792521
 20
36.140280561121514
 10
42.24849699399247
 20
36.01302605210441
 10
42.63026052103805
 20
35.63126252505309
 10
42.587842351364166
 20
35.122244488972136
 10
42.24849699399247
 20
34.6132264529037
  0
LWPOLYLINE
  5
43
330
17
100
AcDbEntity
  8
relief
100
AcDbPolyline
 90
48
 70
1
 10
37.15831663326142
 20
36.90380761523669
 10
36.649298597194154
 20
36.90380761523669
 10
36.14028056112689
 20
36.818971275887776
 10
35.631262525059626
 20
36.64929859718995
 10
35.631262525059626
 20
36.140280561121514
 10
35.37675350701626
 20
35.63126252505309
 10
35.122244488972896
 20
35.37675350700635
 10
34.86773547094899
 20
35.122244488972136
 10
34.61322645290563
 20
34.86773547093792
 10
34.10420841683837
 20
35.122244488972136
 10
33.5951903807711
 20
35.63126252505309
 10
33.849699398814465
 20
36.140280561121514
 10
34.10420841683837
 20
36.64929859718995
 10
34.61322645290563
 20
37.1583166332709
 10
35.122244488972896
 20
37.66733466933933
 10
35.631262525059626
 20
37.921843687373546
 10
36.14028056112689
 20
38.074549098199086
 10
36.649298597194154
 20
37.921843687373546
 10
37.15831663326142
 20
38.00668002672246
 10
37.327989311957
 20
38.17635270540776
 10
37.66733466934816
 20
38.68537074148871
 10
38.176352705415425
 20
38.68537074148871
 10
38.685370741482686
 20
38.68537074148871
 10
39.19438877754995
 20
39.194388777557144
 10
39.703406813617214
 20
39.296192384765824
 10
39.95791583166058
 20
39.194388777557144
 10
40.21242484970394
 20
38.68537074148871
 10
40.72144288577121
 20
39.194388777557144
 10
41.23046092183848
 20
39.194388777557144
 10
41.73947895792521
 20
38.85504342017401
 10
41.84128256513477
 20
38.68537074148871
 10
42.03034640710651
 20
38.17635270540776
 10
41.94308617236379
 20
37.66733466933933
 10
41.73947895792521
 20
37.1583166332709
 10
41.23046092183848
 20
36.64929859718995
 10
40.72144288577121
 20
36.479625918504645
 10
40.551770207075634
 20
36.64929859718995
 10
40.21242484970394
 20
37.1583166332709
 10
40.28514171199927
 20
37.66733466933933
 10
40.21242484970394
 20
38.17635270540776
 10
39.70340681363668
 20
38.00668002672246
 10
39.19438877754995
 20
37.837007348024635
 10
38.93987975952605
 20
37.66733466933933
 10
38.685370741482686
 20
37.49766199065403
 10
38.176352705415425
 20
37.41282565130511
 10
37.66733466934816
 20
37.3279893119562
 10
37.412825651304786
 20
37.1583166332709
 10
37.15831663326142
 20
36.90380761523669
  0
LWPOLYLINE
  5
44
330
17
100
AcDbEntity
  8
relief
100
AcDbPolyline
 90
12
 70
1
 10
44.284569138281
 20
173.8296593186337
 10
44.030060120237636
 20
173.5751503005995
 10
43.77555110221374
 20
173.44789579158237
 10
43.266533066127
 20
173.5751503005995
 10
42.757515030059736
 20
174.08416833666791
 10
42.24849699399247
 20
174.59318637274885
 10
42.757515030059736
 20
175.1022044088173
 10
43.266533066127
 20
175.1022044088173
 10
43.77555110221374
 20
174.59318637274885
 10
44.284569138281
 20
174.59318637274885
 10
44.79358717434827
 20
174.08416833666791
 10
44.284569138281
 20
173.8296593186337
  0
LWPOLYLINE
  5
45
330
17
100
AcDbEntity
  8
relief
100
AcDbPolyline
 90
31
 70
1
 10
58.5370741483007
 20
178.66533066132135
 10
59.04609218436796
 20
178.15631262525292
 10
59.555110220435225
 20
177.9018036072187
 10
60.064128256521954
 20
178.15631262525292
 10
60.064128256521954
 20
178.66533066132135
 10
59.89445557782637
 20
179.17434869738977
 10
59.555110220435225
 20
179.68336673347073
 10
59.68236472945691
 20
180.19238476953916
 10
60.064128256521954
 20
180.7014028056076
 10
60.573146292589215
 20
180.95591182365433
 10
61.08216432865648
 20
181.21042084168855
 10
61.2518370073326
 20
180.7014028056076
 10
61.336673346680385
 20
180.19238476953916
 10
61.15488119093234
 20
179.68336673348324
 10
61.08216432865648
 20
179.428857715424
 10
60.827655310632586
 20
179.17434869738977
 10
60.827655310632586
 20
178.66533066132135
 10
61.08216432865648
 20
178.15631262525292
 10
60.573146292589215
 20
177.6472945891845
 10
60.31863727454585
 20
177.13827655310354
 10
60.064128256521954
 20
176.6292585170351
 10
59.555110220435225
 20
176.3747494990009
 10
59.04609218436796
 20
176.6292585170351
 10
58.79158316632459
 20
177.13827655310354
 10
58.5370741483007
 20
177.39278557115026
 10
58.43527054107167
 20
177.6472945891845
 10
58.15531062125511
 20
178.15631262525292
 10
58.02805611223343
 20
178.41082164328714
 10
57.85838343353785
 20
178.66533066132135
 10
58.02805611223343
 20
178.91983967935556
 10
58.5370741483007
 20
178.66533066132135
  0
LWPOLYLINE
  5
46
330
17
100
AcDbEntity
  8
relief
100
AcDbPolyline
 90
16
 70
1
 10
40.72144288577121
 20
180.95591182365433
 10
41.23046092183848
 20
180.7014028056076
 10
41.56980627922963
 20
180.19238476953916
 10
41.73947895792521
 20
179.93787575150495
 10
41.90915163660132
 20
179.68336673347073
 10
42.24849699399247
 20
179.17434869738977
 10
41.90915163660132
 20
178.66533066132135
 10
41.73947895792521
 20
178.41082164328714
 10
41.23046092183848
 20
178.66533066132135
 10
40.72144288577121
 20
179.0046760187045
 10
40.21242484970394
 20
178.66533066132135
 10
40.08517034068226
 20
179.17434869738977
 10
40.04275217100837
 20
179.68336673347073
 10
40.21242484970394
 20
180.19238476953916
 10
40.46693386774731
 20
180.7014028056076
 10
40.72144288577121
 20
180.95591182365433
  0
LWPOLYLINE
  5
47
330
17
100
AcDbEntity
  8
relief
100
AcDbPolyline
 90
25
 70
1
 10
46.68422559404615
 20
182.2284569138254
 10
46.82965931863679
 20
182.4320641282553
 10
47.33867735470405
 20
182.53386773546396
 10
47.84769539079079
 20
182.73747494989382
 10
48.35671342685806
 20
182.2284569138254
 10
48.229458917836375
 20
181.71943887775697
 10
48.229458917836375
 20
181.21042084168855
 10
48.35671342685806
 20
180.7014028056076
 10
48.18704074816248
 20
180.19238476953916
 10
47.84769539079079
 20
179.85303941215602
 10
47.33867735470405
 20
179.68336673347073
 10
46.82965931863679
 20
179.68336673347073
 10
46.65998663994121
 20
179.17434869738977
 10
46.57515030059343
 20
178.66533066132135
 10
46.320641282569525
 20
178.15631262525292
 10
45.811623246502265
 20
178.41082164328714
 10
45.30260521041553
 20
178.66533066132135
 10
45.175350701393846
 20
179.17434869738977
 10
45.30260521041553
 20
179.68336673347073
 10
45.811623246502265
 20
180.19238476953916
 10
46.06613226454564
 20
180.7014028056076
 10
46.32064128255006
 20
180.8710754843054
 10
46.52424849698865
 20
181.21042084168855
 10
46.61150873177029
 20
181.71943887775697
 10
46.68422559404615
 20
182.2284569138254
  0
LWPOLYLINE
  5
48
330
17
100
AcDbEntity
  8
relief
100
AcDbPolyline
 90
14
 70
1
 10
49.50200400801427
 20
186.3006012024104
 10
49.62925851703595
 20
185.79158316632945
 10
49.374749498992585
 20
185.28256513026102
 10
48.865731462925325
 20
185.28256513026102
 10
48.35671342683859
 20
185.62191048764416
 10
48.18704074816248
 20
185.79158316632945
 10
47.84769539079079
 20
186.3006012024104
 10
47.33867735470405
 20
186.80961923847883
 10
47.84769539079079
 20
187.06412825651304
 10
48.35671342685806
 20
187.19138276553016
 10
48.865731462925325
 20
187.1150300601174
 10
49.2474949899709
 20
186.80961923847883
 10
49.374749498992585
 20
186.55511022044462
 10
49.50200400801427
 20
186.3006012024104
  0
LWPOLYLINE
  5
49
330
17
100
AcDbEntity
  8
relief
100
AcDbPolyline
 90
18
 70
1
 10
54.21042084169974
 20
193.93587174348696
 10
54.46492985972364
 20
193.42685370741853
 10
53.95591182365637
 20
193.12144288576744
 10
53.44689378756964
 20
193.0875083500354
 10
52.937875751502375
 20
193.0875083500354
 10
52.68336673347848
 20
192.91783567133757
 10
52.55611222443732
 20
192.40881763526914
 10
52.5136940547829
 20
191.89979959920072
 10
52.428857715435115
 20
191.3907815631323
 10
51.91983967936785
 20
191.89979959920072
 10
51.91983967936785
 20
192.40881763526914
 10
52.17434869739174
 20
192.91783567133757
 10
52.428857715435115
 20
193.42685370741853
 10
52.73426853708325
 20
193.93587174348696
 10
52.937875751502375
 20
194.2752171008701
 10
53.44689378756964
 20
194.24128256512552
 10
53.9559118236369
 20
194.03767535070816
 10
54.21042084169974
 20
193.93587174348696
  0
LWPOLYLINE
  5
4A
330
17
100
AcDbEntity
  8
relief
100
AcDbPolyline
 90
21
 70
1
 10
58.02805611223343
 20
194.44488977955538
 10
58.5370741483007
 20
194.13947895791682
 10
59.04609218436796
 20
194.12675350700636
 10
59.555110220435225
 20
194.12675350700636
 10
60.064128256521954
 20
194.19038076152117
 10
60.573146292589215
 20
193.93587174348696
 10
60.064128256521954
 20
193.42685370741853
 10
59.639946559783006
 20
192.9178356713501
 10
59.555110220435225
 20
192.8160320641289
 10
59.04609218436796
 20
192.5106212424778
 10
58.5370741483007
 20
192.40881763526914
 10
58.02805611223343
 20
192.612424849699
 10
57.72264529058528
 20
192.91783567133757
 10
57.51903807614669
 20
193.0875083500354
 10
57.111823647288986
 20
193.42685370741853
 10
57.010020040079425
 20
193.59652638610382
 10
56.755511022055536
 20
193.93587174348696
 10
56.88276553105774
 20
194.44488977955538
 10
57.010020040079425
 20
194.6145624582532
 10
57.51903807614669
 20
194.6145624582532
 10
58.02805611223343
 20
194.44488977955538
  0
LWPOLYLINE
  5
4B
330
17
100
AcDbEntity
  8
relief
100
AcDbPolyline
 90
28
 70
1
 10
44.030060120237636
 20
200.0440881763582
 10
44.284569138281
 20
200.1289245156946
 10
44.79358717434827
 20
200.21376085504352
 10
45.048096192372164
 20
200.55310621242663
 10
45.30260521041553
 20
200.89245156980977
 10
45.811623246502265
 20
200.68036072144375
 10
46.06613226454564
 20
200.55310621242663
 10
46.15096860387395
 20
200.0440881763582
 10
45.811623246502265
 20
199.78957915831148
 10
45.30260521041553
 20
199.66232464929436
 10
45.048096192372164
 20
199.53507014027724
 10
44.79358717434827
 20
199.28056112224303
 10
44.284569138281
 20
199.28056112224303
 10
43.77555110221374
 20
199.19572478289413
 10
43.67374749500418
 20
199.02605210420882
 10
43.43620574482258
 20
198.5170340681404
 10
43.266533066127
 20
198.44431720585206
 10
42.757515030059736
 20
198.31342685371052
 10
42.248496994011944
 20
198.28566223355017
 10
42.01712515942175
 20
198.5170340681404
 10
41.73947895792521
 20
198.95333524190798
 10
41.48496993988184
 20
199.02605210420882
 10
41.73947895792521
 20
199.15330661322594
 10
42.24849699399247
 20
199.28056112224303
 10
42.757515030059736
 20
199.53507014027724
 10
43.266533066127
 20
199.68050386486644
 10
43.77555110221374
 20
199.87441549766038
 10
44.030060120237636
 20
200.0440881763582
  0
LWPOLYLINE
  5
4C
330
17
100
AcDbEntity
  8
relief
100
AcDbPolyline
 90
25
 70
1
 10
54.25283901137364
 20
225.49498997995502
 10
54.27404809619111
 20
226.00400801603598
 10
54.46492985972364
 20
226.5130260521044
 10
54.9739478957909
 20
226.5130260521044
 10
55.48296593185817
 20
226.00400801603598
 10
55.546593186369
 20
225.49498997995502
 10
55.48296593185817
 20
225.43136272545274
 10
55.18603874416037
 20
224.9859719438866
 10
55.03757515030174
 20
224.47695390781817
 10
54.9739478957909
 20
224.30728122913285
 10
54.63460253839975
 20
223.9679358717372
 10
54.63460253839975
 20
223.45891783566879
 10
54.9739478957909
 20
222.94989979960036
 10
55.087063014921284
 20
222.44088176353193
 10
54.9739478957909
 20
222.32776664439587
 10
54.46492985972364
 20
222.18637274549772
 10
54.40130260521279
 20
222.44088176353193
 10
54.40130260521279
 20
222.94989979960036
 10
54.36312625249461
 20
223.45891783566879
 10
53.9559118236369
 20
223.86613226452855
 10
53.871075484289115
 20
223.9679358717372
 10
53.786239144960795
 20
224.47695390781817
 10
53.95591182365637
 20
224.73146292585238
 10
54.083166332678054
 20
224.9859719438866
 10
54.25283901137364
 20
225.49498997995502
  0
LWPOLYLINE
  5
4D
330
17
100
AcDbEntity
  8
relief
100
AcDbPolyline
 90
61
 70
1
 10
53.10754843019795
 20
236.69338677354816
 10
52.937875751502375
 20
236.86305945223347
 10
52.7682030728068
 20
237.20240480961658
 10
52.428857715435115
 20
237.71142284569754
 10
52.25918503673953
 20
238.22044088176597
 10
52.42885771541564
 20
238.3901135604638
 10
52.68336673347848
 20
238.7294589178344
 10
52.68336673347848
 20
239.23847695390282
 10
52.64700830232108
 20
239.74749498998378
 10
52.5136940547829
 20
240.2565130260522
 10
52.5561122244568
 20
240.76553106212063
 10
52.7682030728068
 20
241.2745490982016
 10
52.7682030728068
 20
241.78356713427002
 10
52.7682030728068
 20
242.29258517033844
 10
52.7682030728068
 20
242.8016032064069
 10
52.81062124250016
 20
243.31062124248783
 10
52.68336673347848
 20
243.81963927855628
 10
52.63246492985423
 20
244.3286573146247
 10
52.68336673347848
 20
244.83767535070564
 10
52.937875751502375
 20
245.09218436873988
 10
53.44689378756964
 20
244.83767535070564
 10
53.95591182365637
 20
244.40137417692554
 10
54.019539078147744
 20
244.3286573146247
 10
54.15951903809496
 20
243.81963927855628
 10
54.17406241054234
 20
243.31062124248783
 10
54.46492985972364
 20
242.9034068136281
 10
54.53764672201896
 20
242.8016032064194
 10
54.719438877747535
 20
242.29258517033844
 10
54.77034068137178
 20
241.78356713427002
 10
54.9739478957909
 20
241.5290581162358
 10
55.31329325316259
 20
241.2745490982016
 10
55.48296593185817
 20
241.1472945891845
 10
55.652638610553744
 20
240.76553106212063
 10
55.652638610553744
 20
240.2565130260522
 10
55.652638610553744
 20
239.74749498998378
 10
55.67384769539069
 20
239.23847695390282
 10
55.701116518763605
 20
238.7294589178344
 10
55.68657314629675
 20
238.22044088176597
 10
55.48296593185817
 20
237.71142284569754
 10
55.9919839679449
 20
237.20240480961658
 10
56.501002004012165
 20
237.3296593186337
 10
56.564629258523006
 20
237.20240480961658
 10
56.653707414845975
 20
236.69338677354816
 10
56.61411712314255
 20
236.18436873747973
 10
56.501002004012165
 20
235.98076152304984
 10
55.9919839679449
 20
235.92985971944552
 10
55.864729458923215
 20
235.67535070139877
 10
55.80110220441238
 20
235.16633266533034
 10
55.89018036073534
 20
234.65731462926192
 10
55.864729458923215
 20
234.14829659318096
 10
55.48296593185817
 20
233.63927855711253
 10
54.9739478957909
 20
234.02104208416384
 10
54.84669338678869
 20
234.14829659318096
 10
54.59218436874532
 20
234.65731462926192
 10
54.46492985972364
 20
234.784569138279
 10
54.246779272837664
 20
235.16633266533034
 10
54.14679358716943
 20
235.67535070139877
 10
53.95591182365637
 20
236.18436873747973
 10
53.44689378756964
 20
236.0571142284626
 10
53.277221108874066
 20
236.18436873747973
 10
53.10754843019795
 20
236.69338677354816
  0
LWPOLYLINE
  5
4E
330
17
100
AcDbEntity
  8
relief
100
AcDbPolyline
 90
112
 70
1
 10
22.396793587174468
 20
236.43887775551394
 10
22.702204408803144
 20
236.69338677354816
 10
22.905811623241732
 20
236.89699398797802
 10
23.414829659328465
 20
236.94789579158237
 10
23.754175016700152
 20
237.20240480961658
 10
23.92384769537626
 20
237.3720774883144
 10
24.432865731462996
 20
237.3296593186337
 10
24.94188376753026
 20
237.3720774883144
 10
25.111556446225837
 20
237.71142284569754
 10
25.323647294595307
 20
238.22044088176597
 10
25.450901803616993
 20
238.3476953907831
 10
25.959919839684257
 20
238.3476953907831
 10
26.46893787575152
 20
238.3476953907831
 10
26.977955911818785
 20
238.7294589178344
 10
27.48697394790552
 20
238.47494989980018
 10
27.826319305277206
 20
238.22044088176597
 10
27.995991983972782
 20
237.96593186373175
 10
28.12324649299447
 20
238.22044088176597
 10
28.141425708563432
 20
238.7294589178344
 10
28.314128256507523
 20
239.23847695390282
 10
28.505010020040046
 20
239.45662754079288
 10
29.01402805610731
 20
239.66265865063488
 10
29.523046092194047
 20
239.6202404809667
 10
30.03206412826131
 20
239.23847695390282
 10
30.541082164328575
 20
239.74749498998378
 10
30.668336673350257
 20
240.2565130260522
 10
31.05010020039584
 20
240.76553106212063
 10
31.48640137416778
 20
241.2745490982016
 10
31.559118236463103
 20
241.34726596050245
 10
32.068136272549836
 20
241.465430861721
 10
32.5771543086171
 20
241.78356713427002
 10
32.789245156986574
 20
242.29258517033844
 10
32.916499665988795
 20
242.8016032064069
 10
33.086172344684364
 20
242.97127588510472
 10
33.5951903807711
 20
243.03297504098458
 10
33.934535738142785
 20
243.31062124248783
 10
34.10420841681889
 20
243.48029392118565
 10
34.409619238486506
 20
243.31062124248783
 10
34.61322645290563
 20
243.10701402805796
 10
35.122244488972896
 20
243.20881763526663
 10
35.29191716766847
 20
243.31062124248783
 10
35.631262525059626
 20
243.64996659987096
 10
35.70397938735495
 20
243.81963927855628
 10
35.86263435963035
 20
244.3286573146247
 10
36.14028056112689
 20
244.60630351611545
 10
36.649298597194154
 20
244.58316633265892
 10
37.03106212423974
 20
244.83767535070564
 10
37.15831663326142
 20
244.9103922130065
 10
37.66733466934816
 20
244.83767535070564
 10
38.176352705415425
 20
245.09218436873988
 10
38.685370741482686
 20
244.83767535070564
 10
38.176352705415425
 20
244.58316633265892
 10
37.92184368739152
 20
244.3286573146247
 10
37.66733466934816
 20
244.1589846359394
 10
37.15831663326142
 20
244.0741482965905
 10
37.03106212423974
 20
243.81963927855628
 10
36.751102204403715
 20
243.31062124248783
 10
36.73413493652247
 20
242.8016032064069
 10
36.649298597194154
 20
242.29258517033844
 10
36.14028056112689
 20
242.08897795590858
 10
35.631262525059626
 20
242.16533066132135
 10
35.122244488972896
 20
241.78356713427002
 10
35.020440881763335
 20
241.2745490982016
 10
34.994989979951214
 20
240.76553106212063
 10
34.782899131581736
 20
240.2565130260522
 10
34.61322645290563
 20
240.002004008018
 10
34.358717434862264
 20
239.74749498998378
 10
34.10420841683837
 20
239.64569138276258
 10
33.59519038075163
 20
239.6626586506474
 10
33.086172344684364
 20
239.74749498998378
 10
32.5771543086171
 20
239.8747494990009
 10
32.47535070140754
 20
239.74749498998378
 10
32.068136272549836
 20
239.40814963260064
 10
31.559118236482572
 20
239.31119381620368
 10
31.304609218439207
 20
239.23847695390282
 10
31.05010020039584
 20
238.7294589178344
 10
30.744689378747694
 20
238.22044088176597
 10
30.541082164328575
 20
238.0168336673361
 10
30.03206412826131
 20
237.8132264529062
 10
29.862391449565735
 20
237.71142284569754
 10
29.523046092194047
 20
237.4569138276508
 10
29.18370073480289
 20
237.20240480961658
 10
29.01402805610731
 20
236.94789579158237
 10
28.505010020040046
 20
236.94789579158237
 10
27.995991983972782
 20
236.82064128256528
 10
27.741482965929418
 20
236.69338677354816
 10
27.48697394790552
 20
236.56613226453103
 10
26.977955911818785
 20
236.35404141616502
 10
26.72344689379489
 20
236.18436873747973
 10
26.46893787575152
 20
236.0571142284626
 10
25.959919839684257
 20
235.67535070139877
 10
25.578156312619207
 20
235.16633266533034
 10
25.450901803597525
 20
235.06452905812165
 10
25.111556446225837
 20
234.65731462926192
 10
24.94188376753026
 20
234.4876419505766
 10
24.432865731462996
 20
234.36644718007102
 10
23.92384769539573
 20
234.14829659318096
 10
23.414829659328465
 20
233.89378757514675
 10
22.905811623241732
 20
233.8428857715424
 10
22.396793587174468
 20
233.8655087953596
 10
21.887775551107204
 20
233.78471228170173
 10
21.378757515039936
 20
233.80895123579782
 10
20.869739478953203
 20
233.78471228170173
 10
20.36072144288594
 20
234.14829659318096
 10
20.36072144288594
 20
234.65731462926192
 10
20.50615516747659
 20
235.16633266533034
 10
20.578872029771908
 20
235.67535070139877
 10
20.869739478953203
 20
235.87895791582864
 10
21.378757515039936
 20
235.96621815058967
 10
21.59690810192591
 20
236.18436873747973
 10
21.887775551107204
 20
236.4752361866581
 10
22.396793587174468
 20
236.43887775551394
  0
LWPOLYLINE
  5
4F
330
17
100
AcDbEntity
  8
relief
100
AcDbPolyline
 90
40
 70
1
 10
46.82965931863679
 20
244.83767535070564
 10
46.49031396126511
 20
245.3466933867741
 10
46.320641282569525
 20
245.51636606545938
 10
45.98129592519784
 20
245.85571142284252
 10
45.811623246502265
 20
246.11022044088924
 10
45.64195056780669
 20
246.36472945892345
 10
45.811623246502265
 20
246.6192384769577
 10
45.98129592519784
 20
246.8737474949919
 10
46.32064128255006
 20
247.04342017368973
 10
46.72785571142724
 20
247.38276553106033
 10
46.82965931863679
 20
247.4463927855626
 10
47.33867735470405
 20
247.4463927855626
 10
47.84769539079079
 20
247.38276553106033
 10
48.35671342685806
 20
246.9755511022131
 10
48.865731462925325
 20
246.8737474949919
 10
49.374749498992585
 20
246.8737474949919
 10
49.47655310620214
 20
246.36472945892345
 10
49.62925851703595
 20
245.85571142284252
 10
49.62925851703595
 20
245.3466933867741
 10
49.68016032064073
 20
244.83767535070564
 10
49.883767535079315
 20
244.49832999332253
 10
50.39278557112711
 20
244.49832999332253
 10
50.90180360721385
 20
244.58316633265892
 10
51.00360721442341
 20
244.3286573146247
 10
51.07147628588995
 20
243.81963927855628
 10
50.90180360721385
 20
243.31062124248783
 10
50.39278557114658
 20
242.928857715424
 10
49.883767535079315
 20
242.8016032064069
 10
49.374749498992585
 20
242.9034068136281
 10
49.035404141601425
 20
242.8016032064069
 10
48.865731462925325
 20
242.6997995991982
 10
48.61122244490142
 20
242.8016032064069
 10
48.526386105553634
 20
243.31062124248783
 10
48.574864013744026
 20
243.81963927855628
 10
48.61122244490142
 20
244.3286573146247
 10
48.35671342685806
 20
244.4559118236418
 10
47.84769539079079
 20
244.63406813627577
 10
47.50835003339964
 20
244.83767535070564
 10
47.33867735470405
 20
244.96492985972276
 10
46.82965931863679
 20
244.83767535070564
  0
LWPOLYLINE
  5
50
330
17
100
AcDbEntity
  8
relief
100
AcDbPolyline
 90
21
 70
1
 10
49.883767535079315
 20
254.0
 10
50.39278557114658
 20
254.0
 10
50.90180360721385
 20
254.0
 10
50.732130928518266
 20
253.49098196393157
 10
50.520040080168265
 20
252.98196392785061
 10
50.39278557114658
 20
252.89712758850172
 10
49.883767535079315
 20
252.7274549098164
 10
49.57835671343118
 20
252.4729458917822
 10
49.374749498992585
 20
251.96392785571376
 10
48.865731462925325
 20
252.23801449052561
 10
48.35671342685806
 20
252.23801449052561
 10
47.84769539079079
 20
252.40931863726738
 10
47.67802271209521
 20
252.4729458917822
 10
47.84769539079079
 20
252.7274549098164
 10
47.90425295035598
 20
252.98196392785061
 10
47.84769539079079
 20
253.49098196393157
 10
47.97494989981247
 20
254.0
 10
48.35671342685806
 20
254.0
 10
48.865731462925325
 20
254.0
 10
49.374749498992585
 20
254.0
 10
49.883767535079315
 20
254.0
  0
LWPOLYLINE
  5
51
330
17
100
AcDbEntity
  8
relief
100
AcDbPolyline
 90
25
 70
1
 10
83.47895791583028
 20
2.5450901803546744
 10
83.73346693387364
 20
2.0360721442862437
 10
83.98797595189754
 20
1.7815631262520284
 10
84.49699398798427
 20
1.5270541082178128
 10
84.75150300600818
 20
1.0180360721493822
 10
84.75150300600818
 20
0.5090180360684308
 10
85.00601202405154
 20
0.3393453573831274
 10
85.5150300601188
 20
0.3393453573831274
 10
86.02404809618606
 20
0.0
 10
85.5150300601188
 20
0.0
 10
85.00601202405154
 20
0.0
 10
84.49699398798427
 20
0.0
 10
83.98797595189754
 20
0.0
 10
83.47895791583028
 20
0.0
 10
82.96993987976302
 20
0.0
 10
82.46092184369574
 20
0.0
 10
81.95190380760901
 20
0.0
 10
82.46092184369574
 20
0.5090180360684308
 10
82.46092184369574
 20
1.0180360721493822
 10
82.20641282565238
 20
1.5270541082178128
 10
81.95190380760901
 20
2.0360721442862437
 10
82.46092184369574
 20
2.2905811623204593
 10
82.71543086173911
 20
2.5450901803546744
 10
82.96993987976302
 20
2.7995991984014106
 10
83.47895791583028
 20
2.5450901803546744
  0
LWPOLYLINE
  5
52
330
17
100
AcDbEntity
  8
relief
100
AcDbPolyline
 90
13
 70
1
 10
86.53306613227281
 20
2.375417501669371
 10
87.04208416834008
 20
2.0360721442862437
 10
87.04208416834008
 20
1.5270541082178128
 10
86.53306613227281
 20
1.0180360721493822
 10
86.02404809618606
 20
0.5090180360684308
 10
85.7695390781427
 20
1.0180360721493822
 10
85.5150300601188
 20
1.2725450901835975
 10
85.00601202405154
 20
1.5270541082178128
 10
84.49699398798427
 20
2.0360721442862437
 10
85.00601202405154
 20
2.5450901803546744
 10
85.5150300601188
 20
2.5450901803546744
 10
86.02404809618606
 20
2.5450901803546744
 10
86.53306613227281
 20
2.375417501669371
  0
LWPOLYLINE
  5
53
330
17
100
AcDbEntity
  8
relief
100
AcDbPolyline
 90
16
 70
1
 10
81.44288577154175
 20
4.0721442885724874
 10
81.61255845021786
 20
3.563126252504057
 10
81.44288577154175
 20
3.0541082164356257
 10
80.9338677354745
 20
2.5450901803546744
 10
80.9338677354745
 20
2.0360721442862437
 10
80.42484969940722
 20
1.5270541082178128
 10
79.91583166332049
 20
1.7815631262520284
 10
79.78857715431829
 20
2.0360721442862437
 10
79.78857715431829
 20
2.5450901803546744
 10
79.74615898462491
 20
3.0541082164356257
 10
79.5764863059488
 20
3.563126252504057
 10
79.61042084169182
 20
4.0721442885724874
 10
79.91583166332049
 20
4.377555110223563
 10
80.42484969940722
 20
4.453907815636331
 10
80.9338677354745
 20
4.390280561121517
 10
81.44288577154175
 20
4.0721442885724874
  0
LWPOLYLINE
  5
54
330
17
100
AcDbEntity
  8
relief
100
AcDbPolyline
 90
16
 70
1
 10
74.8256513026089
 20
3.563126252504057
 10
74.8256513026089
 20
3.0541082164356257
 10
74.31663326654164
 20
2.5450901803546744
 10
73.80761523045491
 20
2.5450901803546744
 10
73.29859719438764
 20
2.5450901803546744
 10
72.78957915832038
 20
2.5450901803546744
 10
72.28056112225312
 20
2.375417501669371
 10
71.77154308616639
 20
2.5450901803546744
 10
71.60187040747081
 20
3.0541082164356257
 10
71.77154308616639
 20
3.563126252504057
 10
72.28056112225312
 20
3.563126252504057
 10
72.78957915832038
 20
3.563126252504057
 10
73.29859719438764
 20
3.563126252504057
 10
73.80761523045491
 20
3.817635270538272
 10
74.31663326654164
 20
3.73279893118936
 10
74.8256513026089
 20
3.563126252504057
  0
LWPOLYLINE
  5
55
330
17
100
AcDbEntity
  8
relief
100
AcDbPolyline
 90
31
 70
1
 10
80.67935871743113
 20
26.97795591182716
 10
80.42484969940722
 20
26.808283233129337
 10
79.91583166332049
 20
26.46893787574621
 10
79.40681362725323
 20
26.97795591182716
 10
79.40681362725323
 20
27.486973947895592
 10
79.5764863059488
 20
27.99599198396402
 10
79.91583166332049
 20
28.505010020044974
 10
80.42484969940722
 20
28.70861723447485
 10
80.9338677354745
 20
28.810420841683527
 10
81.44288577154175
 20
28.6746826987428
 10
81.95190380760901
 20
28.505010020044974
 10
82.46092184369574
 20
28.505010020044974
 10
82.96993987976302
 20
28.75951903807919
 10
83.47895791583028
 20
28.70861723447485
 10
83.98797595189754
 20
28.63226452906208
 10
84.49699398798427
 20
28.505010020044974
 10
84.3697394789626
 20
27.99599198396402
 10
84.49699398798427
 20
27.486973947895592
 10
84.49699398798427
 20
26.97795591182716
 10
84.3273213092887
 20
26.46893787574621
 10
83.98797595189754
 20
25.959919839677777
 10
83.47895791583028
 20
26.214428857711994
 10
83.1396125584586
 20
26.46893787574621
 10
82.96993987976302
 20
26.638610554444032
 10
82.63059452239133
 20
26.97795591182716
 10
82.46092184369574
 20
27.147628590512465
 10
81.95190380760901
 20
27.317301269210287
 10
81.78223112891345
 20
27.486973947895592
 10
81.44288577154175
 20
27.82631930527872
 10
80.9338677354745
 20
27.486973947895592
 10
80.67935871743113
 20
26.97795591182716
  0
LWPOLYLINE
  5
56
330
17
100
AcDbEntity
  8
relief
100
AcDbPolyline
 90
15
 70
1
 10
64.136272545099
 20
31.813627254502293
 10
64.3907815631229
 20
31.55911823646808
 10
64.64529058116626
 20
31.050100200399648
 10
64.64529058116626
 20
30.54108216433122
 10
64.64529058116626
 20
30.032064128250266
 10
64.13627254507954
 20
29.93026052104159
 10
63.88176352705565
 20
30.032064128250266
 10
63.62725450901228
 20
30.133867735471465
 10
63.118236472945014
 20
30.371409485633393
 10
63.03340013359722
 20
30.54108216433122
 10
63.045519610630215
 20
31.050100200399648
 10
63.118236472945014
 20
31.151903807620847
 10
63.62725450901228
 20
31.4573146292594
 10
63.796927187707844
 20
31.55911823646808
 10
64.136272545099
 20
31.813627254502293
  0
LWPOLYLINE
  5
57
330
17
100
AcDbEntity
  8
relief
100
AcDbPolyline
 90
19
 70
1
 10
71.77154308616639
 20
33.34068136273263
 10
72.02605210420975
 20
33.08617234468589
 10
71.89879759518807
 20
32.57715430861746
 10
71.77154308616639
 20
32.40748162993216
 10
71.26252505009911
 20
32.322645290583246
 10
70.75350701403185
 20
32.57715430861746
 10
70.2444889779646
 20
32.322645290583246
 10
69.98997995992123
 20
32.06813627254903
 10
69.73547094187786
 20
31.898463593863728
 10
69.22645290581059
 20
31.55911823646808
 10
69.08101918121994
 20
32.06813627254903
 10
69.22645290581059
 20
32.40748162993216
 10
69.4809619238345
 20
32.57715430861746
 10
69.73547094187786
 20
32.70440881763457
 10
70.2444889779646
 20
32.83166332665168
 10
70.49899799600796
 20
33.08617234468589
 10
70.75350701403185
 20
33.34068136273263
 10
71.26252505009911
 20
33.34068136273263
 10
71.77154308616639
 20
33.34068136273263
  0
LWPOLYLINE
  5
58
330
17
100
AcDbEntity
  8
relief
100
AcDbPolyline
 90
19
 70
1
 10
75.33466933867616
 20
34.10420841683528
 10
75.84368737474342
 20
34.4435537742184
 10
76.09819639278682
 20
34.6132264529037
 10
76.35270541083018
 20
34.78289913160153
 10
76.86172344689744
 20
34.6132264529037
 10
76.86172344689744
 20
34.10420841683528
 10
76.86172344689744
 20
33.595190380766844
 10
76.86172344689744
 20
33.08617234468589
 10
76.86172344689744
 20
32.57715430861746
 10
76.60721442885408
 20
32.06813627254903
 10
76.35270541083018
 20
31.813627254502293
 10
76.18303273213459
 20
32.06813627254903
 10
75.84368737474342
 20
32.322645290583246
 10
75.50434201737175
 20
32.57715430861746
 10
75.33466933867616
 20
32.83166332665168
 10
75.0801603206328
 20
33.08617234468589
 10
75.33466933867616
 20
33.34068136273263
 10
75.50434201737175
 20
33.595190380766844
 10
75.33466933867616
 20
34.10420841683528
  0
LWPOLYLINE
  5
59
330
17
100
AcDbEntity
  8
relief
100
AcDbPolyline
 90
41
 70
1
 10
61.08216432865648
 20
34.4435537742184
 10
60.827655310632586
 20
34.6132264529037
 10
60.573146292589215
 20
34.782899131589005
 10
60.064128256521954
 20
34.952571810286834
 10
59.555110220435225
 20
34.6132264529037
 10
59.04609218436796
 20
34.35871743486949
 10
58.87641950567238
 20
34.6132264529037
 10
58.66432865732238
 20
35.122244488972136
 10
58.70674682699627
 20
35.63126252505309
 10
58.79158316632459
 20
36.140280561121514
 10
59.04609218436796
 20
36.64929859718995
 10
59.555110220435225
 20
36.98864395457308
 10
60.064128256521954
 20
36.64929859718995
 10
60.573146292589215
 20
36.479625918504645
 10
61.08216432865648
 20
36.547494989981274
 10
61.59118236472375
 20
36.64929859718995
 10
62.100200400810486
 20
36.98864395457308
 10
62.60921843687775
 20
37.1583166332709
 10
63.118236472945014
 20
37.2601202404921
 10
63.62725450901228
 20
37.24315297261981
 10
64.136272545099
 20
37.32798931196872
 10
64.47561790247069
 20
37.1583166332709
 10
64.64529058116626
 20
36.90380761523669
 10
64.81496325984239
 20
36.64929859718995
 10
64.81496325984239
 20
36.140280561121514
 10
64.81496325984239
 20
35.63126252505309
 10
65.15430861723353
 20
35.122244488972136
 10
65.6633266533008
 20
34.6132264529037
 10
65.6633266533008
 20
34.10420841683528
 10
65.40881763525744
 20
33.595190380766844
 10
65.15430861723353
 20
33.08617234468589
 10
64.64529058116626
 20
32.57715430861746
 10
64.136272545099
 20
33.08617234468589
 10
63.62725450901228
 20
33.34068136273263
 10
63.37274549098838
 20
33.595190380766844
 10
63.118236472945014
 20
33.84969939880106
 10
62.60921843687775
 20
34.10420841683528
 10
62.100200400810486
 20
33.84969939880106
 10
61.59118236472375
 20
33.84969939880106
 10
61.421509686028166
 20
34.10420841683528
 10
61.08216432865648
 20
34.4435537742184
  0
LWPOLYLINE
  5
5A
330
17
100
AcDbEntity
  8
relief
100
AcDbPolyline
 90
15
 70
1
 10
76.01336005343902
 20
39.194388777557144
 10
75.945490981953
 20
38.68537074148871
 10
75.84368737474342
 20
38.51569806279089
 10
75.33466933867616
 20
38.17635270540776
 10
74.8256513026089
 20
37.66733466933933
 10
74.31663326654164
 20
38.00668002672246
 10
74.06212424849828
 20
38.17635270540776
 10
73.80761523045491
 20
38.68537074148871
 10
73.80761523045491
 20
39.194388777557144
 10
74.31663326654164
 20
39.53373413494027
 10
74.57114228458502
 20
39.70340681362558
 10
74.8256513026089
 20
39.83066132264268
 10
75.33466933867616
 20
39.70340681362558
 10
75.84368737474342
 20
39.364061456254966
 10
76.01336005343902
 20
39.194388777557144
  0
LWPOLYLINE
  5
5B
330
17
100
AcDbEntity
  8
relief
100
AcDbPolyline
 90
23
 70
1
 10
72.28056112225312
 20
42.37575150300988
 10
72.02605210420975
 20
42.7575150300612
 10
72.28056112225312
 20
43.01202404809541
 10
72.78957915832038
 20
43.193816203828774
 10
73.04408817636374
 20
43.26653306612963
 10
73.29859719438764
 20
43.521042084176365
 10
73.40040080159721
 20
43.26653306612963
 10
73.6040080160358
 20
42.7575150300612
 10
73.42585170338987
 20
42.24849699399277
 10
73.29859719438764
 20
41.73947895791182
 10
73.46826987306375
 20
41.23046092184339
 10
73.50220440880676
 20
40.721442885774955
 10
73.55310621241154
 20
40.212424849694
 10
73.29859719438764
 20
39.70340681362558
 10
72.78957915830091
 20
39.53373413494027
 10
72.53507014027701
 20
39.70340681362558
 10
72.28056112225312
 20
39.95791583165979
 10
72.15330661323144
 20
40.212424849694
 10
72.11088844355754
 20
40.721442885774955
 10
72.28056112225312
 20
41.23046092184339
 10
72.78957915832038
 20
41.73947895791182
 10
72.53507014027701
 20
42.24849699399277
 10
72.28056112225312
 20
42.37575150300988
  0
LWPOLYLINE
  5
5C
330
17
100
AcDbEntity
  8
relief
100
AcDbPolyline
 90
21
 70
1
 10
68.71743486974333
 20
43.26653306612963
 10
68.92104208416245
 20
42.7575150300612
 10
69.22645290581059
 20
42.45210420842265
 10
69.73547094187786
 20
42.418169672678076
 10
70.24448897794512
 20
42.350300601213966
 10
70.75350701403185
 20
42.24849699399277
 10
70.4141616566407
 20
41.73947895791182
 10
70.2444889779646
 20
41.4849699398776
 10
69.73547094187786
 20
41.4849699398776
 10
69.22645290581059
 20
41.23046092184339
 10
68.71743486974333
 20
41.40013360052869
 10
68.20841683367607
 20
41.61222444889471
 10
68.03874415498048
 20
41.73947895791182
 10
67.69939879758934
 20
42.24849699399277
 10
67.49579158315075
 20
42.7575150300612
 10
67.19038076152206
 20
43.26653306612963
 10
67.19038076152206
 20
43.775551102210585
 10
67.69939879758934
 20
43.87735470943178
 10
67.9539078156327
 20
43.775551102210585
 10
68.20841683367607
 20
43.605878423512756
 10
68.71743486974333
 20
43.26653306612963
  0
LWPOLYLINE
  5
5D
330
17
100
AcDbEntity
  8
relief
100
AcDbPolyline
 90
18
 70
1
 10
82.96993987976302
 20
44.793587174347444
 10
83.22444889778691
 20
44.28456913827901
 10
83.47895791583028
 20
44.157314629261904
 10
83.98797595189754
 20
44.157314629261904
 10
84.49699398798427
 20
43.775551102210585
 10
84.49699398798427
 20
43.26653306612963
 10
83.98797595189754
 20
42.9271877087465
 10
83.47895791583028
 20
42.7575150300612
 10
82.96993987976302
 20
42.9271877087465
 10
82.63059452239133
 20
43.26653306612963
 10
82.46092184369574
 20
43.775551102210585
 10
81.95190380760901
 20
43.775551102210585
 10
81.44288577154175
 20
43.775551102210585
 10
81.18837675351786
 20
44.28456913827901
 10
81.44288577154175
 20
44.793587174347444
 10
81.95190380760901
 20
44.793587174347444
 10
82.46092184369574
 20
44.793587174347444
 10
82.96993987976302
 20
44.793587174347444
  0
LWPOLYLINE
  5
5E
330
17
100
AcDbEntity
  8
relief
100
AcDbPolyline
 90
24
 70
1
 10
62.94856379424944
 20
45.30260521041588
 10
62.990981963923325
 20
45.81162324649683
 10
63.118236472945014
 20
46.320641282565255
 10
63.62725450901228
 20
46.320641282565255
 10
64.136272545099
 20
45.81162324649683
 10
64.64529058116626
 20
45.30260521041588
 10
65.15430861723353
 20
44.793587174347444
 10
65.6633266533008
 20
44.793587174347444
 10
66.17234468938754
 20
44.62391449566214
 10
66.6813627254548
 20
44.411823647296124
 10
66.85103540413091
 20
44.28456913827901
 10
67.19038076152206
 20
43.775551102210585
 10
66.6813627254548
 20
43.26653306612963
 10
66.17234468938754
 20
43.26653306612963
 10
65.6633266533008
 20
42.7575150300612
 10
65.15430861723353
 20
43.26653306612963
 10
64.64529058116626
 20
43.26653306612963
 10
64.3907815631229
 20
43.775551102210585
 10
64.3059452237946
 20
44.28456913827901
 10
64.136272545099
 20
44.53907815631323
 10
63.62725450901228
 20
44.28456913827901
 10
63.118236472945014
 20
44.28456913827901
 10
62.990981963923325
 20
44.793587174347444
 10
62.94856379424944
 20
45.30260521041588
  0
LWPOLYLINE
  5
5F
330
17
100
AcDbEntity
  8
relief
100
AcDbPolyline
 90
20
 70
1
 10
79.91583166332049
 20
46.82965931863369
 10
80.42484969940722
 20
46.320641282565255
 10
80.42484969940722
 20
45.81162324649683
 10
80.67935871743113
 20
45.30260521041588
 10
80.67935871743113
 20
44.793587174347444
 10
80.42484969940722
 20
44.28456913827901
 10
80.9338677354745
 20
43.775551102210585
 10
80.9338677354745
 20
43.26653306612963
 10
80.42484969940722
 20
42.7575150300612
 10
79.91583166332049
 20
42.50300601202699
 10
79.40681362725323
 20
42.63026052104409
 10
79.15230460920986
 20
42.7575150300612
 10
79.15230460920986
 20
43.26653306612963
 10
79.40681362725323
 20
43.775551102210585
 10
79.5764863059488
 20
44.28456913827901
 10
79.40681362725323
 20
44.793587174347444
 10
79.53406813627491
 20
45.30260521041588
 10
79.53406813627491
 20
45.81162324649683
 10
79.78857715431829
 20
46.320641282565255
 10
79.91583166332049
 20
46.82965931863369
  0
LWPOLYLINE
  5
60
330
17
100
AcDbEntity
  8
relief
100
AcDbPolyline
 90
23
 70
1
 10
61.25183700735206
 20
50.901803607218696
 10
61.59118236472375
 20
51.41082164328713
 10
62.100200400810486
 20
51.58049432198495
 10
62.35470941885385
 20
51.41082164328713
 10
62.60921843687775
 20
50.901803607218696
 10
62.60921843687775
 20
50.39278557113774
 10
63.118236472945014
 20
50.13827655310353
 10
63.37274549098838
 20
49.88376753506931
 10
63.118236472945014
 20
49.374749499000885
 10
63.28790915162112
 20
48.86573146291993
 10
63.4575818303167
 20
48.3567134268515
 10
63.37274549098838
 20
47.84769539078307
 10
63.118236472945014
 20
47.33867735471464
 10
62.60921843687775
 20
46.99933199733151
 10
62.100200400810486
 20
47.33867735471464
 10
61.760855043419326
 20
47.84769539078307
 10
61.760855043419326
 20
48.3567134268515
 10
61.59118236472375
 20
48.61122244488572
 10
61.50634602537596
 20
48.86573146291993
 10
61.25183700735206
 20
49.374749499000885
 10
61.209418837678164
 20
49.88376753506931
 10
61.336673346680385
 20
50.39278557113774
 10
61.25183700735206
 20
50.901803607218696
  0
LWPOLYLINE
  5
61
330
17
100
AcDbEntity
  8
relief
100
AcDbPolyline
 90
20
 70
1
 10
65.40881763525744
 20
52.42885771543651
 10
65.6633266533008
 20
52.556112224453614
 10
66.17234468938754
 20
52.68336673347073
 10
66.55410821643312
 20
52.42885771543651
 10
66.6813627254548
 20
52.259185036738685
 10
67.02070808282649
 20
51.919839679355555
 10
66.6813627254548
 20
51.41082164328713
 10
66.17234468938754
 20
51.20721442885725
 10
65.6633266533008
 20
51.24114896460183
 10
65.15430861723353
 20
51.24114896460183
 10
64.6452905811468
 20
51.24114896460183
 10
64.5180360721446
 20
51.41082164328713
 10
64.136272545099
 20
51.919839679355555
 10
63.96659986640343
 20
52.42885771543651
 10
63.96659986640343
 20
52.93787575150494
 10
64.136272545099
 20
53.44689378757337
 10
64.30594522377513
 20
52.93787575150494
 10
64.64529058116626
 20
52.42885771543651
 10
65.15430861723353
 20
52.259185036738685
 10
65.40881763525744
 20
52.42885771543651
  0
LWPOLYLINE
  5
62
330
17
100
AcDbEntity
  8
relief
100
AcDbPolyline
 90
22
 70
1
 10
66.6813627254548
 20
61.08216432866244
 10
67.19038076152206
 20
61.59118236473086
 10
67.69939879758934
 20
61.08216432866244
 10
68.20841683367607
 20
60.573146292581484
 10
68.71743486974333
 20
60.82765531062822
 10
68.9719438877867
 20
60.573146292581484
 10
69.22645290581059
 20
60.06412825651305
 10
68.71743486974333
 20
59.555110220444625
 10
68.20841683367607
 20
59.555110220444625
 10
67.69939879758934
 20
60.06412825651305
 10
67.19038076152206
 20
59.555110220444625
 10
67.19038076152206
 20
59.04609218436367
 10
66.6813627254548
 20
58.53707414829524
 10
66.17234468938754
 20
58.28256513026103
 10
66.00267201069195
 20
58.53707414829524
 10
66.07054108215851
 20
59.04609218436367
 10
66.17234468938754
 20
59.300601202397885
 10
66.42685370743091
 20
59.555110220444625
 10
66.17234468938754
 20
60.06412825651305
 10
65.91783567134418
 20
60.573146292581484
 10
66.17234468938754
 20
61.08216432866244
 10
66.6813627254548
 20
61.08216432866244
  0
LWPOLYLINE
  5
63
330
17
100
AcDbEntity
  8
relief
100
AcDbPolyline
 90
22
 70
1
 10
62.100200400810486
 20
194.78423513693852
 10
62.60921843687775
 20
194.95390781563634
 10
63.118236472945014
 20
195.12358049433416
 10
63.62725450901228
 20
195.12358049433416
 10
64.136272545099
 20
195.08116232465343
 10
64.30594522377513
 20
194.95390781563634
 10
64.64529058116626
 20
194.44488977955538
 10
65.15430861723353
 20
193.93587174348696
 10
64.98463593853796
 20
193.42685370741853
 10
64.64529058116626
 20
193.0875083500354
 10
64.5180360721446
 20
192.91783567133757
 10
64.136272545099
 20
192.53607214428624
 10
63.62725450901228
 20
192.5106212424778
 10
63.118236472945014
 20
192.74816299265228
 10
63.03340013359722
 20
192.9178356713501
 10
62.77889111557332
 20
193.42685370741853
 10
62.60921843687775
 20
193.93587174348696
 10
62.100200400810486
 20
193.93587174348696
 10
61.59118236472375
 20
193.93587174348696
 10
61.336673346680385
 20
194.44488977955538
 10
61.59118236472375
 20
194.69939879760213
 10
62.100200400810486
 20
194.78423513693852
  0
LWPOLYLINE
  5
64
330
17
100
AcDbEntity
  8
relief
100
AcDbPolyline
 90
38
 70
1
 10
73.29859719438764
 20
200.55310621242663
 10
73.50220440882623
 20
201.06212424849508
 10
73.57624339588419
 20
201.5711422845635
 10
73.80761523043545
 20
201.76691845228984
 10
74.00339139817758
 20
201.5711422845635
 10
74.31663326654164
 20
201.299665998657
 10
74.82565130258943
 20
201.2317969271929
 10
74.99532398128503
 20
201.06212424849508
 10
75.13106212425706
 20
200.55310621242663
 10
75.33466933867616
 20
200.0440881763582
 10
75.84368737474342
 20
200.17134268537532
 10
76.35270541083018
 20
200.10064573591998
 10
76.40926297039536
 20
200.0440881763582
 10
76.86172344689744
 20
199.59162769983902
 10
76.91828100646264
 20
199.53507014027724
 10
77.3707414829647
 20
199.12785571143002
 10
77.57434869738381
 20
199.02605210420882
 10
77.75250501001028
 20
198.5170340681404
 10
77.3707414829647
 20
198.00801603205943
 10
76.86172344689744
 20
197.92317969271053
 10
76.35270541083018
 20
198.00801603205943
 10
75.84368737474342
 20
198.00801603205943
 10
75.33466933867616
 20
197.75350701402522
 10
74.8256513026089
 20
197.498997995991
 10
74.31663326654164
 20
197.62625250500813
 10
73.80761523045491
 20
197.88076152304234
 10
73.29859719438764
 20
197.88076152304234
 10
72.78957915832038
 20
197.498997995991
 10
72.28056112225312
 20
197.1172344689397
 10
71.89879759518807
 20
197.498997995991
 10
72.06241053536715
 20
198.00801603205943
 10
72.28056112225312
 20
198.5170340681404
 10
72.78957915832038
 20
198.6442885771575
 10
73.29859719438764
 20
198.7715430861746
 10
73.42585170340934
 20
199.02605210420882
 10
73.29859719438764
 20
199.53507014027724
 10
72.95925183701597
 20
200.0440881763582
 10
73.29859719438764
 20
200.55310621242663
  0
LWPOLYLINE
  5
65
330
17
100
AcDbEntity
  8
relief
100
AcDbPolyline
 90
51
 70
1
 10
77.96459585837975
 20
204.1162324649307
 10
77.87975951903196
 20
204.17985971943298
 10
77.3707414829647
 20
204.17985971943298
 10
77.20106880426911
 20
204.1162324649307
 10
76.86172344687796
 20
203.9465597862454
 10
76.35270541083018
 20
204.0526052104159
 10
76.09819639278682
 20
204.1162324649307
 10
75.84368737474342
 20
204.21803607213937
 10
75.33466933867616
 20
204.1162324649307
 10
75.16499665998059
 20
204.62525050099913
 10
74.9953239813045
 20
205.1342685370801
 10
74.8256513026089
 20
205.64328657314852
 10
74.44388777556333
 20
206.15230460921694
 10
74.31663326654164
 20
206.40681362725115
 10
74.14696058784607
 20
206.66132264528537
 10
74.31663326654164
 20
206.8309953239832
 10
74.8256513026089
 20
207.17034068136633
 10
75.33466933867616
 20
206.91583166331958
 10
75.84368737474342
 20
206.8309953239832
 10
76.3527054108107
 20
206.76312625250657
 10
76.86172344689744
 20
206.91583166331958
 10
77.3707414829647
 20
206.95219009447626
 10
77.87975951903196
 20
206.94411044310672
 10
78.3887775551187
 20
206.7885771543025
 10
78.51603206414038
 20
206.66132264528537
 10
78.64328657316207
 20
206.15230460921694
 10
78.8977955911665
 20
205.81295925184634
 10
79.06746826986208
 20
205.64328657314852
 10
79.40681362725323
 20
205.4736138944632
 10
79.81402805611094
 20
205.1342685370801
 10
79.91583166332049
 20
205.06155167477922
 10
80.42484969940722
 20
205.1342685370801
 10
80.80661322645281
 20
204.62525050099913
 10
80.9338677354745
 20
204.1162324649307
 10
81.1035404141506
 20
203.60721442886225
 10
81.25200400800922
 20
203.09819639278132
 10
81.37016890924643
 20
202.5891783567129
 10
81.44288577154175
 20
202.08016032064444
 10
80.9338677354745
 20
201.6729458917847
 10
80.42484969940722
 20
201.74081496326133
 10
80.17034068136385
 20
201.5711422845635
 10
79.91583166333996
 20
201.51458472500173
 10
79.85927410377477
 20
201.5711422845635
 10
79.78857715431829
 20
202.08016032064444
 10
79.40681362725323
 20
202.46192384769577
 10
78.89779559118597
 20
202.46192384769577
 10
78.72812291249038
 20
202.5891783567129
 10
78.3887775551187
 20
202.928523714096
 10
78.27566243598832
 20
203.09819639278132
 10
78.28697394788966
 20
203.60721442886225
 10
77.96459585837975
 20
204.1162324649307
  0
LWPOLYLINE
  5
66
330
17
100
AcDbEntity
  8
relief
100
AcDbPolyline
 90
24
 70
1
 10
79.53406813627491
 20
210.22444889778942
 10
79.40681362725323
 20
210.47895791582363
 10
79.15230460920986
 20
210.73346693387037
 10
79.40681362725323
 20
211.2424849699388
 10
79.91583166332049
 20
211.62424849699013
 10
80.42484969940722
 20
211.36973947895592
 10
80.59452237808333
 20
211.2424849699388
 10
80.9338677354745
 20
210.73346693387037
 10
81.18837675351786
 20
210.22444889778942
 10
81.44288577154175
 20
209.715430861721
 10
81.95190380760901
 20
209.20641282565256
 10
82.46092184369574
 20
208.69739478958414
 10
82.76633266532443
 20
208.18837675350318
 10
82.46092184369574
 20
207.80661322645184
 10
81.95190380760901
 20
207.8702404809667
 10
81.44288577154175
 20
207.93386773546897
 10
81.03567134268404
 20
208.18837675350318
 10
80.9338677354745
 20
208.2732130928521
 10
80.42484969940722
 20
208.44288577154992
 10
80.08550434201607
 20
208.69739478958414
 10
79.91583166332049
 20
208.86706746826943
 10
79.74615898462491
 20
209.20641282565256
 10
79.6613226452966
 20
209.715430861721
 10
79.53406813627491
 20
210.22444889778942
  0
LWPOLYLINE
  5
67
330
17
100
AcDbEntity
  8
relief
100
AcDbPolyline
 90
116
 70
1
 10
71.51703406814248
 20
210.22444889778942
 10
71.26252505009911
 20
210.3698826223786
 10
70.75350701403185
 20
210.4280561122193
 10
70.4141616566407
 20
210.22444889778942
 10
70.24448897794512
 20
210.13961255844052
 10
69.73547094187786
 20
210.22444889778942
 10
69.22645290581059
 20
210.47895791582363
 10
68.8871075484389
 20
210.73346693387037
 10
68.71743486974333
 20
210.9031396125557
 10
68.20841683367607
 20
210.93707414830024
 10
67.69939879758934
 20
210.9879759519046
 10
67.39398797596066
 20
211.2424849699388
 10
67.19038076152206
 20
211.496993987973
 10
66.9358717434787
 20
211.75150300600723
 10
66.6813627254548
 20
211.92117568470505
 10
66.17234468938754
 20
212.0908483634029
 10
65.6633266533008
 20
212.2605210420882
 10
65.15430861723353
 20
212.00601202405397
 10
64.64529058116626
 20
212.2605210420882
 10
64.44168336674716
 20
212.7695390781566
 10
64.136272545099
 20
213.15130260520795
 10
63.88176352705565
 20
213.27855711422504
 10
63.62725450901228
 20
213.40581162324216
 10
63.118236472945014
 20
213.73101759074424
 10
63.054609218434166
 20
213.787575150306
 10
62.86372745490164
 20
214.29659318637442
 10
62.60921843687775
 20
214.67835671342576
 10
62.100200400810486
 20
214.80561122244288
 10
61.760855043419326
 20
215.3146292585113
 10
61.760855043419326
 20
215.82364729459223
 10
61.59118236472375
 20
216.3326653306607
 10
61.50634602537596
 20
216.84168336672911
 10
61.421509686028166
 20
217.35070140281005
 10
61.59118236472375
 20
217.8597194388785
 10
61.48937875751419
 20
218.36873747494693
 10
61.209418837678164
 20
218.87775551102789
 10
61.08216432865648
 20
219.3867735470963
 10
61.421509686028166
 20
219.89579158316474
 10
61.59118236472375
 20
220.06546426186256
 10
62.10020040079101
 20
219.98062792251363
 10
62.35470941885385
 20
219.89579158316474
 10
62.60921843687775
 20
219.79398797595604
 10
63.118236472945014
 20
219.5322072716855
 10
63.37274549098838
 20
219.3867735470963
 10
63.62725450901228
 20
218.87775551102789
 10
63.118236472945014
 20
218.53841015364475
 10
62.86372745490164
 20
218.36873747494693
 10
62.60921843687775
 20
217.8597194388785
 10
63.118236472945014
 20
217.69004676019318
 10
63.4575818303167
 20
217.35070140281005
 10
63.62725450901228
 20
217.18102872411222
 10
64.136272545099
 20
216.84168336672911
 10
64.5180360721446
 20
217.35070140281005
 10
64.64529058116626
 20
217.8597194388785
 10
64.64529058116626
 20
218.36873747494693
 10
65.15430861723353
 20
218.53841015364475
 10
65.6633266533008
 20
218.47054108216813
 10
65.72695390781165
 20
218.36873747494693
 10
66.07054108217797
 20
217.8597194388785
 10
66.17234468938754
 20
217.7579158316698
 10
66.68136272543532
 20
217.5203740815079
 10
67.19038076152206
 20
217.35070140281005
 10
67.69939879758934
 20
217.55430861723994
 10
68.03874415498048
 20
217.35070140281005
 10
68.20841683367607
 20
217.09619238476333
 10
68.37808951235218
 20
216.84168336672911
 10
68.71743486974333
 20
216.3326653306607
 10
69.22645290581059
 20
216.5023380093585
 10
69.4809619238345
 20
216.3326653306607
 10
69.56579826318227
 20
215.82364729459223
 10
69.3961255844867
 20
215.3146292585113
 10
69.22645290581059
 20
215.0601202404771
 10
68.9719438877867
 20
214.80561122244288
 10
68.71743486974333
 20
214.55110220440864
 10
68.46292585169996
 20
214.29659318637442
 10
68.71743486974333
 20
214.0420841683402
 10
69.22645290581059
 20
214.0420841683402
 10
69.73547094187786
 20
213.787575150306
 10
70.2444889779646
 20
213.91482965932312
 10
70.75350701403185
 20
213.9911823647359
 10
71.09285237140355
 20
213.787575150306
 10
71.26252505009911
 20
213.27855711422504
 10
71.77154308616639
 20
213.10888443553975
 10
72.28056112225312
 20
213.02404809619082
 10
72.78957915832038
 20
212.9731462925865
 10
73.29859719438764
 20
212.7695390781566
 10
73.80761523045491
 20
212.7695390781566
 10
74.31663326654164
 20
212.2605210420882
 10
74.48630594521777
 20
211.75150300600723
 10
74.8256513026089
 20
211.58183032732194
 10
75.33466933867616
 20
211.36973947895592
 10
75.84368737474342
 20
211.41215764863662
 10
76.35270541083018
 20
211.58183032732194
 10
76.86172344689744
 20
211.58183032732194
 10
77.3707414829647
 20
211.41215764863662
 10
77.54041416164081
 20
211.2424849699388
 10
77.87975951903196
 20
211.03887775550893
 10
78.18517034068012
 20
210.73346693387037
 10
78.3887775551187
 20
210.22444889778942
 10
78.3887775551187
 20
209.715430861721
 10
77.87975951903196
 20
209.4245634125301
 10
77.3707414829647
 20
209.3591182364781
 10
76.86172344689744
 20
209.33366733466968
 10
76.35270541083018
 20
209.37608550433788
 10
76.09819639278682
 20
209.20641282565256
 10
75.84368737474342
 20
209.07915831663544
 10
75.33466933867616
 20
209.20641282565256
 10
74.8256513026089
 20
208.69739478958414
 10
74.31663326654164
 20
209.20641282565256
 10
74.31663326654164
 20
209.715430861721
 10
73.80761523045491
 20
209.5457581830357
 10
73.29859719438764
 20
209.33366733466968
 10
72.78957915832038
 20
209.37608550433788
 10
72.28056112225312
 20
209.715430861721
 10
71.77154308616639
 20
209.9699398797552
 10
71.51703406814248
 20
210.22444889778942
  0
LWPOLYLINE
  5
68
330
17
100
AcDbEntity
  8
relief
100
AcDbPolyline
 90
10
 70
1
 10
69.22645290581059
 20
212.2605210420882
 10
69.22645290581059
 20
211.75150300600723
 10
69.73547094187786
 20
212.00601202405397
 10
70.2444889779646
 20
212.09084836339036
 10
70.37174348698628
 20
212.2605210420882
 10
70.41416165666016
 20
212.7695390781566
 10
70.2444889779646
 20
213.27855711422504
 10
69.73547094187786
 20
213.02404809619082
 10
69.4809619238345
 20
212.7695390781566
 10
69.22645290581059
 20
212.2605210420882
  0
LWPOLYLINE
  5
69
330
17
100
AcDbEntity
  8
relief
100
AcDbPolyline
 90
20
 70
1
 10
67.19038076152206
 20
215.3146292585113
 10
66.6813627254548
 20
215.3146292585113
 10
66.17234468938754
 20
215.48430193720912
 10
65.91783567134418
 20
215.82364729459223
 10
65.6633266533008
 20
216.3326653306607
 10
65.15430861723353
 20
216.50233800934598
 10
64.64529058116626
 20
216.50233800934598
 10
64.3907815631229
 20
216.3326653306607
 10
64.136272545099
 20
215.82364729459223
 10
64.26352705412069
 20
215.3146292585113
 10
64.5180360721446
 20
214.80561122244288
 10
64.64529058116626
 20
214.29659318637442
 10
65.15430861723353
 20
214.80561122244288
 10
65.6633266533008
 20
215.3146292585113
 10
65.91783567134418
 20
214.80561122244288
 10
66.17234468938754
 20
214.63593854375756
 10
66.6813627254548
 20
214.55110220440864
 10
67.19038076152206
 20
214.29659318637442
 10
67.36005344021764
 20
214.80561122244288
 10
67.19038076152206
 20
215.3146292585113
  0
LWPOLYLINE
  5
6A
330
17
100
AcDbEntity
  8
relief
100
AcDbPolyline
 90
24
 70
1
 10
74.9953239813045
 20
237.20240480961658
 10
75.33466933867616
 20
237.54175016699972
 10
75.84368737474342
 20
237.60961923847634
 10
76.35270541083018
 20
237.50781563126765
 10
76.73446893787575
 20
237.20240480961658
 10
76.7890065846021
 20
236.69338677354816
 10
76.60721442885408
 20
236.18436873747973
 10
76.35270541083018
 20
236.09953239814334
 10
75.84368737474342
 20
235.87895791582864
 10
75.50434201735229
 20
235.67535070139877
 10
75.46192384769786
 20
235.16633266533034
 10
75.33466933867616
 20
234.65731462926192
 10
75.16499665998059
 20
234.14829659318096
 10
74.91048764195669
 20
233.63927855711253
 10
74.8256513026089
 20
233.1302605210441
 10
74.31663326654164
 20
233.63927855711253
 10
73.97728790915049
 20
234.14829659318096
 10
73.97728790915049
 20
234.65731462926192
 10
74.14696058784607
 20
235.16633266533034
 10
74.31663326654164
 20
235.42084168336456
 10
74.57114228458502
 20
235.67535070139877
 10
74.8256513026089
 20
236.18436873747973
 10
75.02925851702803
 20
236.69338677354816
 10
74.9953239813045
 20
237.20240480961658
  0
LWPOLYLINE
  5
6B
330
17
100
AcDbEntity
  8
relief
100
AcDbPolyline
 90
148
 70
1
 10
61.08216432865648
 20
226.00400801603598
 10
60.57314629256975
 20
226.34335337341912
 10
60.064128256502485
 20
226.41122244489574
 10
59.80961923847859
 20
226.5130260521044
 10
60.064128256521954
 20
227.02204408817283
 10
60.064128256521954
 20
227.5310621242538
 10
59.95101313739157
 20
228.04008016032222
 10
59.87903078885759
 20
228.54909819639067
 10
59.87903078885759
 20
229.0581162324591
 10
59.87903078885759
 20
229.56713426854003
 10
59.80961923847859
 20
230.07615230460848
 10
59.79265197061682
 20
230.5851703406769
 10
60.064128256521954
 20
230.8566466265834
 10
60.46003117345884
 20
231.09418837675784
 10
60.50951903807838
 20
231.6032064128263
 10
60.50951903807838
 20
232.11222444889472
 10
60.50951903807838
 20
232.62124248497565
 10
60.50951903807838
 20
233.1302605210441
 10
60.50951903807838
 20
233.63927855711253
 10
60.573146292589215
 20
233.70290581162735
 10
60.89706686099212
 20
234.14829659318096
 10
60.81068804275135
 20
234.65731462926192
 10
60.827655310632586
 20
235.16633266533034
 10
60.92945891784215
 20
235.67535070139877
 10
60.89706686099212
 20
236.18436873747973
 10
60.96904920954557
 20
236.69338677354816
 10
61.08216432865648
 20
236.89699398797802
 10
61.59118236472375
 20
236.69338677354816
 10
61.59118236472375
 20
237.20240480961658
 10
61.336673346680385
 20
237.71142284569754
 10
61.336673346680385
 20
238.22044088176597
 10
61.59118236472375
 20
238.3901135604638
 10
61.845691382767114
 20
238.7294589178344
 10
61.59118236472375
 20
239.23847695390282
 10
61.08216432865648
 20
239.23847695390282
 10
60.57314629260869
 20
239.0263861055368
 10
60.36105544423921
 20
239.23847695390282
 10
60.42044088177488
 20
239.74749498998378
 10
60.273723918432005
 20
240.2565130260522
 10
60.25166121717832
 20
240.76553106212063
 10
60.064128256521954
 20
241.2745490982016
 10
60.573146292589215
 20
241.465430861721
 10
61.08216432865648
 20
241.57995991984015
 10
61.16047479573776
 20
241.78356713427002
 10
61.16700066800428
 20
242.29258517033844
 10
61.08216432865648
 20
242.54709418837268
 10
60.87855711423737
 20
242.8016032064069
 10
60.87855711423737
 20
243.31062124248783
 10
60.573146292589215
 20
243.69238476953916
 10
60.40347361389364
 20
243.81963927855628
 10
60.064128256521954
 20
244.3286573146247
 10
59.555110220435225
 20
244.3286573146247
 10
59.04609218436796
 20
244.1165664662587
 10
58.834001336017955
 20
244.3286573146247
 10
58.81116078310464
 20
244.83767535070564
 10
58.5370741483007
 20
245.11176198550498
 10
58.30214274703738
 20
245.3466933867741
 10
58.5370741483007
 20
245.85571142284252
 10
58.79158316632459
 20
246.36472945892345
 10
58.5370741483007
 20
246.49198396794057
 10
58.02805611223343
 20
246.8737474949919
 10
58.02805611223343
 20
247.38276553106033
 10
57.85838343353785
 20
247.89178356712875
 10
58.02805611223343
 20
248.14629258516297
 10
58.0789579158382
 20
248.40080160320971
 10
58.12060484606561
 20
248.90981963927814
 10
58.14117123136381
 20
249.41883767534657
 10
58.36740146960511
 20
249.92785571142753
 10
58.53707414828122
 20
250.09752839012535
 10
59.04609218436796
 20
250.2332665330661
 10
59.555110220435225
 20
250.18236472946174
 10
59.80961923847859
 20
249.92785571142753
 10
59.979291917174166
 20
249.41883767534657
 10
60.064128256521954
 20
249.16432865731235
 10
60.26773547096054
 20
248.90981963927814
 10
60.47134268537965
 20
248.40080160320971
 10
60.573146292589215
 20
248.2735470941926
 10
60.87855711423737
 20
247.89178356712875
 10
60.997327989308694
 20
247.38276553106033
 10
60.936730604065836
 20
246.8737474949919
 10
61.08216432865648
 20
246.78891115564298
 10
61.59118236472375
 20
246.63620574482997
 10
62.100200400810486
 20
246.36472945892345
 10
62.245634125401125
 20
245.85571142284252
 10
62.39106784999178
 20
245.3466933867741
 10
62.60921843687775
 20
245.15581162324216
 10
62.89200623470371
 20
244.83767535070564
 10
63.061678913379815
 20
244.3286573146247
 10
63.118236472945014
 20
244.0741482965905
 10
63.28790915162112
 20
243.81963927855628
 10
63.118236472945014
 20
243.31062124248783
 10
63.22004008015457
 20
242.8016032064069
 10
63.37274549098838
 20
242.29258517033844
 10
63.54241816966448
 20
241.78356713427002
 10
63.62725450901228
 20
241.5290581162358
 10
63.75450901803396
 20
241.2745490982016
 10
64.00901803607732
 20
240.76553106212063
 10
64.136272545099
 20
240.2565130260522
 10
63.62725450901228
 20
239.74749498998378
 10
63.37274549098838
 20
239.23847695390282
 10
63.37274549098838
 20
238.7294589178344
 10
63.118236472945014
 20
238.3476953907831
 10
63.03340013359722
 20
238.22044088176597
 10
63.00512135381462
 20
237.71142284569754
 10
62.81282565129686
 20
237.20240480961658
 10
62.72233355600813
 20
236.69338677354816
 10
62.60921843687775
 20
236.18436873747973
 10
62.43954575818217
 20
235.67535070139877
 10
62.22745490983217
 20
235.16633266533034
 10
62.10020040079101
 20
235.06452905812165
 10
61.59118236472375
 20
234.96272545090048
 10
61.45235926398521
 20
234.65731462926192
 10
61.22759805324713
 20
234.14829659318096
 10
61.128438695582304
 20
233.63927855711253
 10
61.174713062488664
 20
233.1302605210441
 10
61.209418837678164
 20
232.62124248497565
 10
61.2518370073326
 20
232.11222444889472
 10
61.421509686028166
 20
231.6032064128263
 10
61.59118236472375
 20
231.34869739479208
 10
61.845691382767114
 20
231.09418837675784
 10
61.9729458917888
 20
230.5851703406769
 10
61.9305277221149
 20
230.07615230460848
 10
61.845691382767114
 20
229.56713426854003
 10
61.896593186371895
 20
229.0581162324591
 10
61.961377300052476
 20
228.54909819639067
 10
61.9305277221149
 20
228.04008016032222
 10
61.80933295162919
 20
227.5310621242538
 10
61.760855043419326
 20
227.02204408817283
 10
61.59118236472375
 20
226.5130260521044
 10
61.760855043419326
 20
226.00400801603598
 10
61.71843687374543
 20
225.49498997995502
 10
61.794789579162334
 20
224.9859719438866
 10
61.845691382767114
 20
224.47695390781817
 10
61.69298597193331
 20
223.9679358717372
 10
61.59118236472375
 20
223.84068136272012
 10
61.336673346680385
 20
223.45891783566879
 10
61.336673346680385
 20
222.94989979960036
 10
61.336673346680385
 20
222.44088176353193
 10
61.08216432865648
 20
221.93186372745097
 10
60.573146292589215
 20
222.44088176353193
 10
60.7428189712848
 20
222.94989979960036
 10
60.573146292589215
 20
223.45891783566879
 10
60.40347361389364
 20
223.9679358717372
 10
60.165931863731515
 20
224.47695390781817
 10
60.23380093521753
 20
224.9859719438866
 10
60.573146292589215
 20
225.32531730126973
 10
60.827655310632586
 20
225.49498997995502
 10
61.08216432865648
 20
226.00400801603598
  0
LWPOLYLINE
  5
6C
330
17
100
AcDbEntity
  8
relief
100
AcDbPolyline
 90
13
 70
1
 10
88.0601202404746
 20
0.2545090180342154
 10
87.55110220440734
 20
0.2545090180342154
 10
87.29659318636398
 20
0.0
 10
87.04208416834008
 20
0.0
 10
86.53306613227281
 20
0.0
 10
86.53306613227281
 20
0.5090180360684308
 10
87.04208416834008
 20
1.0180360721493822
 10
87.55110220440734
 20
1.5270541082178128
 10
88.0601202404746
 20
2.0360721442862437
 10
88.18737474949629
 20
1.5270541082178128
 10
88.0601202404746
 20
1.0180360721493822
 10
88.56913827656133
 20
0.5090180360684308
 10
88.0601202404746
 20
0.2545090180342154
  0
LWPOLYLINE
  5
6D
330
17
100
AcDbEntity
  8
relief
100
AcDbPolyline
 90
11
 70
1
 10
94.67735470940744
 20
4.479358717444761
 10
94.16833667334018
 20
4.479358717444761
 10
93.65931863727292
 20
4.581162324653439
 10
93.48964595857734
 20
5.090180360721869
 10
93.65931863727292
 20
5.5991983967903005
 10
94.16833667334018
 20
5.5991983967903005
 10
94.67735470942692
 20
5.853707414837037
 10
95.18637274549418
 20
5.5991983967903005
 10
95.69539078156144
 20
5.090180360721869
 10
95.18637274549418
 20
4.581162324653439
 10
94.67735470940744
 20
4.479358717444761
  0
LWPOLYLINE
  5
6E
330
17
100
AcDbEntity
  8
relief
100
AcDbPolyline
 90
54
 70
1
 10
86.02404809618606
 20
4.411489645955615
 10
86.53306613227281
 20
4.411489645955615
 10
87.04208416834008
 20
4.581162324653439
 10
86.78757515031617
 20
5.090180360721869
 10
86.78757515031617
 20
5.5991983967903005
 10
87.04208416834008
 20
5.853707414837037
 10
87.29659318636398
 20
6.108216432871251
 10
87.29659318636398
 20
6.6172344689396825
 10
87.38142952571175
 20
7.126252505008114
 10
87.38142952571175
 20
7.635270541076544
 10
87.55110220440734
 20
8.144288577157495
 10
88.0601202404746
 20
8.653306613225926
 10
88.56913827656133
 20
8.907815631260142
 10
88.73881095525691
 20
9.162324649294357
 10
89.07815631262861
 20
9.501670006677484
 10
89.58717434869587
 20
9.544088176358201
 10
90.09619238476313
 20
9.544088176358201
 10
90.2658650634587
 20
9.671342685375308
 10
90.60521042084986
 20
10.010688042758435
 10
91.11422845691712
 20
9.925851703409524
 10
91.62324649298439
 20
9.841015364073133
 10
91.72505010019394
 20
9.671342685375308
 10
91.7929191716605
 20
9.162324649294357
 10
91.92865731463253
 20
8.653306613225926
 10
92.13226452905165
 20
8.144288577157495
 10
92.13226452905165
 20
7.635270541076544
 10
91.87775551102776
 20
7.126252505008114
 10
91.62324649298439
 20
6.6172344689396825
 10
91.11422845691712
 20
6.108216432871251
 10
90.60521042084986
 20
5.5991983967903005
 10
90.09619238476313
 20
5.802805611220177
 10
89.58717434869587
 20
5.853707414837037
 10
89.07815631262861
 20
5.5991983967903005
 10
89.00543945033327
 20
5.090180360721869
 10
88.93272258803795
 20
4.581162324653439
 10
88.56913827656133
 20
4.217578013161679
 10
88.0601202404746
 20
4.1739478957936855
 10
87.55110220440734
 20
4.0721442885724874
 10
88.0601202404746
 20
3.902471609887184
 10
88.56913827656133
 20
3.73279893118936
 10
88.73881095523744
 20
3.563126252504057
 10
88.82364729458524
 20
3.0541082164356257
 10
88.56913827656133
 20
2.5450901803546744
 10
88.0601202404746
 20
2.5450901803546744
 10
87.55110220440734
 20
2.7995991984014106
 10
87.29659318636398
 20
3.0541082164356257
 10
87.04208416834008
 20
3.3086172344698412
 10
86.53306613227281
 20
3.2237808951209295
 10
86.02404809618606
 20
3.0541082164356257
 10
85.6847027388144
 20
3.563126252504057
 10
85.5150300601188
 20
3.817635270538272
 10
85.26052104209492
 20
4.0721442885724874
 10
85.5150300601188
 20
4.581162324653439
 10
86.02404809618606
 20
4.411489645955615
  0
LWPOLYLINE
  5
6F
330
17
100
AcDbEntity
  8
relief
100
AcDbPolyline
 90
33
 70
1
 10
93.40480961924901
 20
10.68937875751217
 10
93.5866017749776
 20
11.198396793605642
 10
93.65931863727292
 20
11.707414829661552
 10
94.04108216431851
 20
12.216432865729983
 10
94.16833667334018
 20
12.318236472951181
 10
94.67735470942692
 20
12.725450901798414
 10
95.08456913826515
 20
13.234468937879365
 10
95.18637274549418
 20
13.743486973947796
 10
95.44088176351808
 20
13.234468937879365
 10
95.69539078156144
 20
12.97995991984515
 10
95.86506346023756
 20
12.725450901798414
 10
96.2044088176287
 20
12.216432865729983
 10
96.2044088176287
 20
11.707414829661552
 10
96.07715430860702
 20
11.19839679359312
 10
95.69539078156144
 20
10.816633266529278
 10
95.18637274549418
 20
10.68937875751217
 10
95.11365588319886
 20
10.180360721443739
 10
94.93186372747029
 20
9.671342685375308
 10
94.67735470942692
 20
9.162324649294357
 10
94.16833667334018
 20
8.907815631260142
 10
93.91382765529681
 20
8.653306613225926
 10
93.65931863727292
 20
8.52605210420882
 10
93.40480961924901
 20
8.144288577157495
 10
93.25210420841522
 20
7.635270541076544
 10
93.15030060120564
 20
7.380761523042328
 10
92.64128256513838
 20
7.635270541076544
 10
92.13226452905165
 20
8.144288577157495
 10
92.4716098864428
 20
8.653306613225926
 10
92.64128256513838
 20
8.822979291923751
 10
93.15030060120564
 20
9.162324649294357
 10
93.35390781562477
 20
9.671342685375308
 10
93.31997327990123
 20
10.180360721443739
 10
93.40480961924901
 20
10.68937875751217
  0
LWPOLYLINE
  5
70
330
17
100
AcDbEntity
  8
relief
100
AcDbPolyline
 90
13
 70
1
 10
91.75050100200608
 20
11.707414829661552
 10
91.62324649298439
 20
11.537742150976248
 10
91.11422845691712
 20
11.19839679359312
 10
90.60521042084986
 20
10.943887775546385
 10
90.09619238476313
 20
11.19839679359312
 10
89.84168336671976
 20
11.707414829661552
 10
90.09619238476313
 20
11.877087508346856
 10
90.3507014028065
 20
12.216432865729983
 10
90.60521042084986
 20
12.725450901798414
 10
91.11422845691712
 20
12.55577822311311
 10
91.62324649298439
 20
12.343687374747091
 10
91.75050100200608
 20
12.216432865729983
 10
91.75050100200608
 20
11.707414829661552
  0
LWPOLYLINE
  5
71
330
17
100
AcDbEntity
  8
relief
100
AcDbPolyline
 90
24
 70
1
 10
102.31262525049429
 20
14.761523046097178
 10
102.18537074147261
 20
15.27054108216561
 10
102.31262525049429
 20
15.77955911823404
 10
102.82164328658102
 20
15.77955911823404
 10
103.33066132264828
 20
15.27054108216561
 10
103.83967935871554
 20
14.931195724795002
 10
104.00935203739165
 20
14.761523046097178
 10
104.34869739478282
 20
14.252505010016227
 10
104.85771543086956
 20
13.99799599198201
 10
105.11222444889344
 20
13.743486973947796
 10
105.26492985972726
 20
13.234468937879365
 10
105.06132264530814
 20
12.725450901798414
 10
104.98496993989123
 20
12.216432865729983
 10
104.85771543086956
 20
12.04676018704468
 10
104.34869739478282
 20
11.877087508346856
 10
103.83967935871554
 20
11.707414829661552
 10
103.76696249640077
 20
12.216432865742503
 10
103.71242484971334
 20
12.725450901798414
 10
103.67000668001998
 20
13.234468937879365
 10
103.62152877184904
 20
13.743486973947796
 10
103.50033400134387
 20
14.252505010016227
 10
103.33066132264828
 20
14.507014028050442
 10
102.82164328658102
 20
14.591850367411874
 10
102.31262525049429
 20
14.761523046097178
  0
LWPOLYLINE
  5
72
330
17
100
AcDbEntity
  8
relief
100
AcDbPolyline
 90
16
 70
1
 10
99.7675350701385
 20
21.209084836339038
 10
100.27655310620577
 20
21.37875751502434
 10
100.7855711422925
 20
20.86973947895591
 10
100.44622578490134
 20
20.360721442887478
 10
100.27655310620577
 20
20.2589178356788
 10
99.7675350701385
 20
20.02137608550435
 10
99.25851703407123
 20
19.85170340681905
 10
98.74949899800397
 20
19.85170340681905
 10
98.24048096191724
 20
19.85170340681905
 10
97.73146292584998
 20
20.10621242485326
 10
97.6296593186404
 20
20.360721442887478
 10
97.73146292584998
 20
20.615230460921694
 10
98.24048096191724
 20
20.86973947895591
 10
98.74949899800397
 20
20.996993987973017
 10
99.25851703407123
 20
21.209084836339038
 10
99.7675350701385
 20
21.209084836339038
  0
LWPOLYLINE
  5
73
330
17
100
AcDbEntity
  8
relief
100
AcDbPolyline
 90
22
 70
1
 10
103.83967935871554
 20
21.506012024041446
 10
104.34869739478282
 20
21.506012024041446
 10
104.85771543086956
 20
21.506012024041446
 10
104.98496993989123
 20
21.37875751502434
 10
105.36673346693682
 20
20.996993987973017
 10
105.62124248498019
 20
20.86973947895591
 10
105.87575150300408
 20
20.360721442887478
 10
105.36673346693682
 20
20.055310621248925
 10
104.85771543086956
 20
20.1571142284576
 10
104.34869739478282
 20
20.360721442887478
 10
103.83967935871554
 20
20.615230460921694
 10
103.33066132264828
 20
20.360721442887478
 10
102.82164328658102
 20
20.10621242485326
 10
102.31262525049429
 20
20.360721442887478
 10
101.97327989312261
 20
20.86973947895591
 10
101.93086172344871
 20
21.37875751502434
 10
101.80360721442703
 20
21.887775551105292
 10
102.31262525049429
 20
22.396793587173722
 10
102.82164328658102
 20
22.22712090848842
 10
103.1609886439527
 20
21.887775551105292
 10
103.33066132264828
 20
21.633266533058556
 10
103.83967935871554
 20
21.506012024041446
  0
LWPOLYLINE
  5
74
330
17
100
AcDbEntity
  8
relief
100
AcDbPolyline
 90
27
 70
1
 10
96.71342685371545
 20
27.232464929861376
 10
97.22244488976324
 20
27.147628590512465
 10
97.73146292584998
 20
27.147628590512465
 10
98.24048096191724
 20
27.317301269210287
 10
98.74949899800397
 20
27.317301269210287
 10
99.25851703407123
 20
26.97795591182716
 10
99.13126252504955
 20
26.46893787574621
 10
99.25851703407123
 20
25.959919839677777
 10
99.25851703407123
 20
25.450901803609348
 10
99.25851703407123
 20
24.94188376754092
 10
98.74949899800397
 20
24.560120240477072
 10
98.24048096191724
 20
24.687374749494182
 10
97.73146292584998
 20
24.81462925852381
 10
97.22244488978271
 20
24.560120240477072
 10
97.05277221108713
 20
24.432865731459966
 10
96.71342685371545
 20
24.263193052774664
 10
96.2044088176287
 20
24.263193052774664
 10
95.69539078156144
 20
24.17835671342575
 10
95.18637274549418
 20
24.432865731459966
 10
94.67735470942692
 20
24.94188376754092
 10
95.18637274549418
 20
25.450901803609348
 10
95.69539078156144
 20
25.450901803609348
 10
95.69539078156144
 20
25.959919839677777
 10
95.44088176351808
 20
26.46893787574621
 10
95.69539078156144
 20
26.97795591182716
 10
96.2044088176287
 20
27.317301269210287
 10
96.71342685371545
 20
27.232464929861376
  0
LWPOLYLINE
  5
75
330
17
100
AcDbEntity
  8
relief
100
AcDbPolyline
 90
38
 70
1
 10
101.80360721442703
 20
50.64729458918448
 10
101.29458917835976
 20
50.901803607218696
 10
101.80360721442703
 20
51.41082164328713
 10
102.31262525049429
 20
51.41082164328713
 10
102.82164328658102
 20
51.41082164328713
 10
103.33066132264828
 20
51.41082164328713
 10
103.83967935871554
 20
51.41082164328713
 10
104.34869739478282
 20
51.41082164328713
 10
104.85771543086956
 20
51.41082164328713
 10
105.36673346691734
 20
51.07147628591652
 10
105.87575150300408
 20
51.07147628591652
 10
106.38476953907136
 20
51.07147628591652
 10
106.89378757515809
 20
50.901803607218696
 10
106.38476953907136
 20
50.39278557113774
 10
106.21509686037577
 20
49.88376753506931
 10
106.13026052102798
 20
49.374749499000885
 10
106.04542418168019
 20
48.86573146291993
 10
106.13026052102798
 20
48.3567134268515
 10
105.87575150300408
 20
48.102204408817286
 10
105.62124248498019
 20
47.84769539078307
 10
105.36673346693682
 20
47.33867735471464
 10
104.85771543086956
 20
47.59318637274885
 10
104.34869739478282
 20
47.84769539078307
 10
103.83967935871554
 20
48.102204408817286
 10
103.33066132264828
 20
47.84769539078307
 10
103.1609886439527
 20
47.33867735471464
 10
103.07615230462439
 20
46.82965931863369
 10
102.82164328658102
 20
46.320641282565255
 10
102.31262525049429
 20
46.659986639948386
 10
102.05811623245093
 20
46.82965931863369
 10
101.80360721442703
 20
47.33867735471464
 10
101.80360721442703
 20
47.84769539078307
 10
101.80360721442703
 20
48.3567134268515
 10
101.80360721442703
 20
48.86573146291993
 10
102.05811623245093
 20
49.374749499000885
 10
102.18537074147261
 20
49.88376753506931
 10
101.97327989312261
 20
50.39278557113774
 10
101.80360721442703
 20
50.64729458918448
  0
LWPOLYLINE
  5
76
330
17
100
AcDbEntity
  8
relief
100
AcDbPolyline
 90
6
 70
1
 10
103.67000668001998
 20
48.86573146291993
 10
103.83967935871554
 20
48.61122244488572
 10
104.34869739478282
 20
48.86573146291993
 10
104.34869739478282
 20
49.374749499000885
 10
103.83967935871554
 20
49.374749499000885
 10
103.67000668001998
 20
48.86573146291993
  0
LWPOLYLINE
  5
77
330
17
100
AcDbEntity
  8
relief
100
AcDbPolyline
 90
13
 70
1
 10
105.62124248498019
 20
55.99198396794056
 10
105.36673346693682
 20
55.48296593185962
 10
104.85771543085008
 20
55.41024906955876
 10
104.34869739476335
 20
55.41024906955876
 10
104.17902471608724
 20
55.48296593185962
 10
104.09418837675892
 20
55.99198396794056
 10
104.00935203741113
 20
56.501002004008996
 10
104.17902471608724
 20
57.01002004007743
 10
104.34869739478282
 20
57.51903807615838
 10
104.85771543086956
 20
57.01002004007743
 10
105.36673346693682
 20
57.01002004007743
 10
105.62124248498019
 20
56.501002004008996
 10
105.62124248498019
 20
55.99198396794056
  0
LWPOLYLINE
  5
78
330
17
100
AcDbEntity
  8
relief
100
AcDbPolyline
 90
19
 70
1
 10
109.94789579158113
 20
148.46359385437324
 10
110.4569138276484
 20
148.46359385437324
 10
110.96593186373514
 20
148.25150300600723
 10
111.01220623066096
 20
148.12424849699013
 10
111.13560454241124
 20
147.6152304609217
 10
111.39011356045461
 20
147.10621242485325
 10
111.4749498998024
 20
146.85170340681904
 10
111.60220440880461
 20
146.59719438877232
 10
111.4749498998024
 20
146.0881763527039
 10
110.96593186373514
 20
145.83366733466966
 10
110.4569138276484
 20
145.83366733466966
 10
109.94789579158113
 20
146.0881763527039
 10
109.77822311288557
 20
146.59719438877232
 10
109.69338677355724
 20
147.10621242485325
 10
109.43887775551387
 20
147.3607214428875
 10
109.1843687374705
 20
147.6152304609217
 10
109.43887775551387
 20
147.86973947895592
 10
109.60855043420945
 20
148.12424849699013
 10
109.94789579158113
 20
148.46359385437324
  0
LWPOLYLINE
  5
79
330
17
100
AcDbEntity
  8
relief
100
AcDbPolyline
 90
72
 70
1
 10
115.54709418837946
 20
147.3607214428875
 10
115.41983967937723
 20
147.6152304609217
 10
115.0380761523122
 20
147.996993987973
 10
114.86840347361661
 20
148.12424849699013
 10
114.52905811622546
 20
148.37875751502435
 10
114.32545090178687
 20
148.63326653307107
 10
114.22364729459677
 20
149.14228456913952
 10
114.02004008015818
 20
149.65130260520795
 10
113.51102204407145
 20
149.48162992652263
 10
113.00200400802366
 20
149.65130260520795
 10
112.78385342113769
 20
150.16032064127637
 10
112.49298597193693
 20
150.66933867735733
 10
111.98396793586966
 20
150.66933867735733
 10
111.4749498998024
 20
150.79659318637442
 10
111.2204408817785
 20
150.66933867735733
 10
110.96593186373514
 20
150.16032064127637
 10
110.58416833667007
 20
149.65130260520795
 10
110.4569138276484
 20
149.48162992652263
 10
109.94789579158113
 20
149.65130260520795
 10
109.82064128257893
 20
150.16032064127637
 10
109.94789579158113
 20
150.41482965932312
 10
110.4569138276484
 20
150.66933867735733
 10
110.96593186373514
 20
151.17835671342576
 10
111.2204408817785
 20
151.68737474949418
 10
111.4749498998024
 20
152.06913827655802
 10
111.72945891782629
 20
152.19639278557514
 10
111.98396793586966
 20
152.28122912492404
 10
112.49298597193693
 20
152.19639278557514
 10
112.69659318637551
 20
151.68737474949418
 10
112.87474949900198
 20
151.17835671342576
 10
113.00200400802366
 20
151.05110220440864
 10
113.51102204409092
 20
151.07655310621706
 10
114.02004008015818
 20
151.17835671342576
 10
114.52905811622546
 20
151.32379043801495
 10
115.0380761523122
 20
151.17835671342576
 10
115.54709418837946
 20
150.66933867735733
 10
115.88643954575113
 20
150.16032064127637
 10
116.05611222444672
 20
149.65130260520795
 10
116.56513026051398
 20
149.65130260520795
 10
117.07414829660073
 20
149.65130260520795
 10
117.45591182364629
 20
150.16032064127637
 10
117.58316633266799
 20
150.41482965932312
 10
118.09218436873525
 20
150.66933867735733
 10
118.18473310256744
 20
150.16032064127637
 10
118.14308617234002
 20
149.65130260520795
 10
118.14308617234002
 20
149.14228456913952
 10
118.31033495564068
 20
148.63326653307107
 10
118.6012024048025
 20
148.4070362948115
 10
118.78299456055055
 20
148.1242484969776
 10
118.84074030414776
 20
147.6152304609217
 10
119.02538410154145
 20
147.10621242485325
 10
118.6577599643677
 20
146.59719438877232
 10
118.8325742393927
 20
146.0881763527039
 10
119.11022044088924
 20
145.74883099533326
 10
119.36472945893262
 20
145.57915831663544
 10
119.61923847695651
 20
145.19739478958414
 10
119.78891115563262
 20
145.07014028056702
 10
119.61923847695651
 20
145.0065130260522
 10
119.1102204409087
 20
144.8387684459768
 10
118.6012024048025
 20
144.7138276553116
 10
118.21943887775693
 20
144.56112224448606
 10
118.09218436873525
 20
144.05210420841763
 10
117.58316633266799
 20
143.79759519038342
 10
117.4134936539724
 20
144.05210420841763
 10
117.2014028056224
 20
144.56112224448606
 10
117.07414829660073
 20
144.66292585170726
 10
116.56513026051398
 20
145.07014028056702
 10
116.3954575818184
 20
145.57915831663544
 10
116.05611222444672
 20
146.0881763527039
 10
115.71676686707504
 20
146.59719438877232
 10
115.61981105067478
 20
147.10621242485325
 10
115.54709418837946
 20
147.3607214428875
  0
LWPOLYLINE
  5
7A
330
17
100
AcDbEntity
  8
relief
100
AcDbPolyline
 90
26
 70
1
 10
117.47005121353759
 20
159.8316633266517
 10
117.48136272543896
 20
160.34068136272012
 10
117.45591182364629
 20
160.84969939880105
 10
117.58316633264852
 20
161.0193720774989
 10
117.83767535071135
 20
160.84969939880105
 10
118.09218436873525
 20
160.59519038076684
 10
118.6012024048025
 20
160.34068136272012
 10
118.68603874413083
 20
159.8316633266517
 10
118.6012024048025
 20
159.57715430861745
 10
118.49939879759295
 20
159.32264529058324
 10
118.6012024048025
 20
159.06813627254903
 10
118.66482965933281
 20
158.8136272545148
 10
118.70300601201207
 20
158.30460921843385
 10
118.70300601201207
 20
157.79559118236543
 10
118.6012024048025
 20
157.286573146297
 10
118.6012024048025
 20
156.77755511021604
 10
118.09218436873525
 20
156.26853707414762
 10
117.58316633266799
 20
156.77755511021604
 10
117.58316633266799
 20
157.286573146297
 10
117.07414829660073
 20
157.62591850368014
 10
116.73480293920956
 20
157.79559118236543
 10
116.73480293920956
 20
158.30460921843385
 10
117.07414829660073
 20
158.45004294303558
 10
117.39228456915492
 20
158.8136272545148
 10
117.48136272543896
 20
159.32264529058324
 10
117.47005121353759
 20
159.8316633266517
  0
LWPOLYLINE
  5
7B
330
17
100
AcDbEntity
  8
relief
100
AcDbPolyline
 90
23
 70
1
 10
112.84538307384163
 20
185.28256513026102
 10
112.49298597193693
 20
185.79158316632945
 10
113.00200400802366
 20
185.9612558450273
 10
113.51102204409092
 20
186.3006012024104
 10
114.02004008015818
 20
186.0460921843637
 10
114.52905811620599
 20
185.87641950567837
 10
115.0380761523122
 20
185.98246492986138
 10
115.54709418835998
 20
185.8643000286303
 10
115.6107214428903
 20
185.79158316632945
 10
115.83796163756074
 20
185.28256513026102
 10
115.99248496993587
 20
184.7735470941926
 10
115.88643954575113
 20
184.26452905811163
 10
115.80160320640334
 20
183.7555110220432
 10
115.54709418837946
 20
183.66296228821713
 10
115.45454545456674
 20
183.7555110220432
 10
115.0380761523122
 20
184.08273690236575
 10
114.52905811622546
 20
184.0249911587868
 10
114.28952021689969
 20
184.26452905811163
 10
114.02004008015818
 20
184.61692616000903
 10
113.86341914599562
 20
184.7735470941926
 10
113.51102204409092
 20
185.10077297451514
 10
113.00200400802366
 20
185.12594419609
 10
112.84538307384163
 20
185.28256513026102
  0
LWPOLYLINE
  5
7C
330
17
100
AcDbEntity
  8
relief
100
AcDbPolyline
 90
63
 70
1
 10
101.04008016031639
 20
190.3727454909829
 10
100.98917835673109
 20
189.86372745491445
 10
100.7855711422925
 20
189.69405477622917
 10
100.2765531061863
 20
189.66795128718815
 10
100.0807769384831
 20
189.86372745491445
 10
100.07294589176718
 20
190.3727454909829
 10
99.93720774883407
 20
190.88176352705133
 10
99.7675350701385
 20
191.13627254509805
 10
99.25851703407123
 20
191.13627254509805
 10
99.05490981963266
 20
190.88176352705133
 10
98.74949899800397
 20
190.74294042631223
 10
98.24048096191724
 20
190.71209084836602
 10
97.73146292584998
 20
190.6442217768894
 10
97.49392117568784
 20
190.88176352705133
 10
97.22244488978271
 20
191.3907815631323
 10
97.39211756847828
 20
191.89979959920072
 10
97.22244488978271
 20
192.069472277886
 10
96.88309953241102
 20
192.40881763526914
 10
96.71342685371545
 20
192.91783567133757
 10
96.81523046092501
 20
193.42685370741853
 10
96.71342685371545
 20
193.93587174348696
 10
96.88309953241102
 20
194.44488977955538
 10
96.71342685371545
 20
194.95390781563634
 10
97.22244488978271
 20
195.46292585170477
 10
97.73146292584998
 20
194.95390781563634
 10
97.56179024715439
 20
194.44488977955538
 10
97.73146292584998
 20
193.93587174348696
 10
97.6296593186404
 20
193.42685370741853
 10
97.73146292584998
 20
193.17234468937178
 10
97.85871743485218
 20
192.91783567133757
 10
98.24048096191724
 20
192.53607214428624
 10
98.74949899800397
 20
192.40881763526914
 10
99.25851703407123
 20
192.91783567133757
 10
99.25851703407123
 20
193.42685370741853
 10
99.59786239144292
 20
193.93587174348696
 10
99.7675350701385
 20
194.0085886057753
 10
100.27655310620577
 20
193.99949899800177
 10
100.53106212424913
 20
193.93587174348696
 10
100.7855711422925
 20
193.42685370741853
 10
100.65831663327081
 20
192.91783567133757
 10
100.61589846359692
 20
192.40881763526914
 10
100.7855711422925
 20
191.89979959920072
 10
101.29458917835976
 20
191.6452905811665
 10
101.80360721442703
 20
191.3907815631323
 10
102.31262525049429
 20
191.89979959920072
 10
102.82164328658102
 20
192.0270541082178
 10
103.33066132264828
 20
191.89979959920072
 10
103.83967935871554
 20
191.3907815631323
 10
103.71242484969387
 20
190.88176352705133
 10
103.76696249642023
 20
190.3727454909829
 10
103.67000668001998
 20
189.86372745491445
 10
103.45791583165051
 20
189.35470941883352
 10
103.58517034067218
 20
188.8456913827651
 10
103.33066132264828
 20
188.71843687374798
 10
103.20340681362661
 20
188.8456913827651
 10
102.82164328658102
 20
189.35470941883352
 10
102.31262525049429
 20
189.25290581162483
 10
102.05811623245093
 20
189.35470941883352
 10
102.18537074147261
 20
189.86372745491445
 10
102.00721442886561
 20
190.3727454909829
 10
101.80360721442703
 20
190.71209084836602
 10
101.29458917834029
 20
190.71209084836602
 10
101.04008016031639
 20
190.3727454909829
  0
LWPOLYLINE
  5
7D
330
17
100
AcDbEntity
  8
relief
100
AcDbPolyline
 90
101
 70
1
 10
92.00501002002999
 20
194.44488977955538
 10
91.62324649298439
 20
194.95390781563634
 10
91.11422845691712
 20
195.12358049432163
 10
90.85971943889322
 20
194.95390781563634
 10
90.80881763528845
 20
194.44488977955538
 10
90.60521042083039
 20
194.34308617234672
 10
90.50340681362084
 20
194.44488977955538
 10
90.54865286128467
 20
194.9539078156238
 10
90.09619238476313
 20
195.40636829213048
 10
89.84168336671976
 20
195.46292585170477
 10
89.58717434869587
 20
195.71743486973898
 10
89.07815631262861
 20
195.9719438877732
 10
89.33266533067197
 20
196.48096192384162
 10
89.22359003721925
 20
196.98997995992258
 10
89.07815631262861
 20
197.19358717435244
 10
88.56913827656133
 20
197.498997995991
 10
88.0601202404746
 20
197.498997995991
 10
87.55110220440734
 20
197.75350701402522
 10
87.46626586505955
 20
198.00801603205943
 10
87.21175684703564
 20
198.5170340681404
 10
87.0420841683206
 20
198.85637942552353
 10
86.78757515031617
 20
199.02605210420882
 10
86.53306613227281
 20
199.19572478289413
 10
86.02404809618606
 20
199.1278557114175
 10
85.61683366732836
 20
199.53507014027724
 10
85.5150300601188
 20
199.78957915831148
 10
85.38777555111659
 20
200.0440881763582
 10
85.00601202405154
 20
200.2985971943924
 10
84.70060120240339
 20
200.55310621242663
 10
84.49699398798427
 20
201.06212424849508
 10
84.2424849699409
 20
201.5711422845635
 10
83.98797595189754
 20
201.64385914686434
 10
83.47895791583028
 20
202.08016032064444
 10
83.3092852371347
 20
202.5891783567129
 10
83.3517034068086
 20
203.09819639278132
 10
82.96993987976302
 20
203.60721442886225
 10
82.96993987976302
 20
204.1162324649307
 10
82.8426853707608
 20
204.62525050099913
 10
82.86813627253399
 20
205.1342685370801
 10
82.96993987976302
 20
205.26152304609718
 10
83.47895791583028
 20
205.1342685370801
 10
83.98797595189754
 20
205.00701402806297
 10
84.3697394789626
 20
204.62525050099913
 10
84.49699398798427
 20
204.5404141616502
 10
85.00601202405154
 20
204.37074148296492
 10
85.26052104209492
 20
204.1162324649307
 10
85.5150300601188
 20
203.98897795591358
 10
85.7695390781427
 20
203.60721442886225
 10
85.8119572478166
 20
203.09819639278132
 10
85.7695390781427
 20
202.5891783567129
 10
85.83316633267302
 20
202.08016032064444
 10
86.02404809618606
 20
201.82565130261023
 10
86.53306613227281
 20
201.5711422845635
 10
87.04208416834008
 20
201.26573146292495
 10
87.55110220440734
 20
201.5075150300612
 10
88.0601202404746
 20
201.5075150300612
 10
88.56913827654186
 20
201.16392785570375
 10
88.69639278558301
 20
201.06212424849508
 10
89.07815631262861
 20
200.68036072144375
 10
89.58717434869587
 20
200.55310621242663
 10
90.09619238476313
 20
200.55310621242663
 10
90.60521042084986
 20
200.0440881763582
 10
90.60521042084986
 20
199.53507014027724
 10
91.11422845691712
 20
199.02605210420882
 10
91.62324649298439
 20
198.7715430861746
 10
91.87775551102776
 20
198.5170340681404
 10
92.13226452905165
 20
198.26252505010618
 10
92.64128256513838
 20
198.26252505010618
 10
92.89579158316228
 20
198.5170340681404
 10
93.15030060120564
 20
198.7715430861746
 10
93.31997327988175
 20
198.5170340681404
 10
93.15030060120564
 20
198.00801603205943
 10
93.65931863727292
 20
198.00801603205943
 10
94.16833667334018
 20
197.498997995991
 10
94.16833667334018
 20
196.98997995992258
 10
94.67735470942692
 20
196.82030728122476
 10
94.82278843401755
 20
196.48096192384162
 10
94.96822215860821
 20
195.9719438877732
 10
95.18637274549418
 20
195.8022712090879
 10
95.69539078156144
 20
195.71743486973898
 10
96.2044088176287
 20
195.60835957629396
 10
96.71342685371545
 20
195.46292585170477
 10
96.71342685371545
 20
194.95390781563634
 10
96.54375417501986
 20
194.44488977955538
 10
96.71342685371545
 20
193.93587174348696
 10
96.2044088176287
 20
193.42685370741853
 10
95.69539078156144
 20
193.2571810287332
 10
95.18637274549418
 20
193.0026720106865
 10
95.11365588319886
 20
192.91783567133757
 10
94.96014250723341
 20
192.40881763526914
 10
94.67735470942692
 20
192.21304146755534
 10
94.16833667334018
 20
192.23914495658383
 10
93.65931863727292
 20
192.26999453453004
 10
93.52049553651491
 20
192.40881763526914
 10
93.45571142285381
 20
192.91783567133757
 10
93.2957343257963
 20
193.42685370741853
 10
93.15030060118619
 20
193.76619906480164
 10
93.04849699397663
 20
193.93587174348696
 10
92.64128256513838
 20
194.2752171008701
 10
92.13226452905165
 20
194.38126252504057
 10
92.00501002002999
 20
194.44488977955538
  0
LWPOLYLINE
  5
7E
330
17
100
AcDbEntity
  8
relief
100
AcDbPolyline
 90
14
 70
1
 10
118.09218436873525
 20
232.62124248497565
 10
118.09218436873525
 20
232.11222444889472
 10
118.34669338675914
 20
231.6032064128263
 10
118.34669338675914
 20
231.09418837675784
 10
118.09218436873525
 20
230.83967935871112
 10
117.58316633266799
 20
230.5851703406769
 10
117.32865731462462
 20
231.09418837675784
 10
117.32865731462462
 20
231.6032064128263
 10
117.07414829660073
 20
232.11222444889472
 10
117.07414829660073
 20
232.62124248497565
 10
117.45591182364629
 20
233.1302605210441
 10
117.58316633266799
 20
233.38476953907832
 10
117.83767535071135
 20
233.1302605210441
 10
118.09218436873525
 20
232.62124248497565
  0
LWPOLYLINE
  5
7F
330
17
100
AcDbEntity
  8
relief
100
AcDbPolyline
 90
18
 70
1
 10
131.8356713426877
 20
28.505010020044974
 10
132.34468937875494
 20
28.6746826987428
 10
132.4174062410308
 20
28.505010020044974
 10
132.44649298596448
 20
27.99599198396402
 10
132.51436205743101
 20
27.486973947895592
 10
132.85370741482222
 20
26.97795591182716
 10
132.85370741482222
 20
26.46893787574621
 10
132.85370741482222
 20
25.959919839677777
 10
132.34468937875494
 20
25.62057448229465
 10
131.8356713426877
 20
25.705410821643564
 10
131.5811623246638
 20
25.959919839677777
 10
131.32665330662041
 20
26.087174348694887
 10
130.94488977955535
 20
26.46893787574621
 10
130.81763527053369
 20
26.97795591182716
 10
131.32665330662041
 20
27.317301269210287
 10
131.5811623246638
 20
27.486973947895592
 10
131.8356713426877
 20
27.99599198396402
 10
131.8356713426877
 20
28.505010020044974
  0
LWPOLYLINE
  5
80
330
17
100
AcDbEntity
  8
relief
100
AcDbPolyline
 90
17
 70
1
 10
134.12625250501958
 20
121.65531062124391
 10
134.38076152304347
 20
121.4008016032097
 10
134.50801603206514
 20
121.14629258517549
 10
134.63527054106737
 20
120.63727454909454
 10
134.72010688041513
 20
120.1282565130261
 10
134.38076152304347
 20
119.61923847695768
 10
133.8717434869762
 20
119.61923847695768
 10
133.36272545090895
 20
119.11022044087672
 10
132.85370741482222
 20
119.11022044087672
 10
132.68403473612665
 20
119.61923847695768
 10
132.68403473612665
 20
120.1282565130261
 10
132.59919839679833
 20
120.63727454909454
 10
132.59919839679833
 20
121.14629258517549
 10
132.85370741482222
 20
121.65531062124391
 10
133.36272545090895
 20
121.65531062124391
 10
133.8717434869762
 20
121.74014696059282
 10
134.12625250501958
 20
121.65531062124391
  0
LWPOLYLINE
  5
81
330
17
100
AcDbEntity
  8
relief
100
AcDbPolyline
 90
20
 70
1
 10
130.30861723444696
 20
143.1067849985691
 10
130.81763527053369
 20
143.03406813626825
 10
131.32665330662041
 20
142.77955911823403
 10
131.8356713426877
 20
142.86439545758296
 10
132.34468937875494
 20
143.03406813626825
 10
132.85370741482222
 20
143.03406813626825
 10
133.10821643286556
 20
142.52505010019982
 10
132.85370741482222
 20
142.2705410821656
 10
132.59919839679833
 20
142.0160320641314
 10
132.34468937875494
 20
141.8463593854461
 10
131.8356713426877
 20
141.50701402805043
 10
131.32665330662041
 20
140.997995991982
 10
130.81763527053369
 20
141.50701402805043
 10
130.47828991316197
 20
142.0160320641314
 10
130.3086172344664
 20
142.1614657887206
 10
129.79959919839916
 20
142.42324649299115
 10
129.69779559117012
 20
142.52505010019982
 10
129.71476285905135
 20
143.03406813626825
 10
129.79959919839916
 20
143.11890447561717
 10
130.30861723444696
 20
143.1067849985691
  0
LWPOLYLINE
  5
82
330
17
100
AcDbEntity
  8
relief
100
AcDbPolyline
 90
44
 70
1
 10
122.1643286573123
 20
149.79673632979714
 10
122.67334669337956
 20
149.9567134268465
 10
123.18236472946629
 20
150.16032064127637
 10
123.25508159176162
 20
150.66933867735733
 10
123.32779845405695
 20
151.17835671342576
 10
123.40051531635227
 20
151.68737474949418
 10
123.25508159176162
 20
152.19639278557514
 10
123.23892228903148
 20
152.70541082164357
 10
123.26720106881409
 20
153.214428857712
 10
123.30961923848798
 20
153.72344689379295
 10
123.37324649299882
 20
154.23246492986138
 10
123.58957915830453
 20
154.7414829659298
 10
123.69138276553356
 20
154.99599198396402
 10
124.20040080160082
 20
155.25050100199823
 10
124.70941883766808
 20
154.99599198396402
 10
124.81122244487766
 20
154.7414829659298
 10
125.00028628686886
 20
154.23246492986138
 10
125.16187931418962
 20
153.72344689379295
 10
125.16753507015004
 20
153.214428857712
 10
125.1457200114595
 20
152.70541082164357
 10
124.70941883766808
 20
152.19639278557514
 10
124.30220440881038
 20
151.68737474949418
 10
124.70941883766808
 20
151.17835671342576
 10
125.21843687375483
 20
150.66933867735733
 10
125.38810955243093
 20
150.16032064127637
 10
125.21843687375483
 20
149.99064796259105
 10
125.07300314916418
 20
149.65130260520795
 10
124.91302605210667
 20
149.14228456913952
 10
124.79425517701588
 20
148.63326653307107
 10
124.70941883766808
 20
148.37875751502435
 10
124.53974615897252
 20
148.12424849699013
 10
124.70941883766808
 20
147.6152304609217
 10
124.20040080160082
 20
147.10621242485325
 10
123.69138276553356
 20
146.76686706747014
 10
123.18236472946629
 20
146.93653974615543
 10
123.13146292586151
 20
147.10621242485325
 10
123.02574379528427
 20
147.6152304609217
 10
122.67334669337956
 20
147.996993987973
 10
122.54609218435789
 20
148.12424849699013
 10
122.54609218435789
 20
148.63326653307107
 10
122.491554537651
 20
149.14228456913952
 10
122.16432865733177
 20
149.55875387138187
 10
122.07177992349958
 20
149.65130260520795
 10
122.1643286573123
 20
149.79673632979714
  0
LWPOLYLINE
  5
83
330
17
100
AcDbEntity
  8
relief
100
AcDbPolyline
 90
24
 70
1
 10
123.64048096192877
 20
159.32264529058324
 10
123.69138276553356
 20
159.57715430861745
 10
124.20040080160082
 20
159.8316633266517
 10
124.70941883766808
 20
159.70440881763457
 10
124.87909151636367
 20
159.32264529058324
 10
124.86603977185013
 20
158.8136272545148
 10
124.70941883766808
 20
158.30460921843385
 10
124.30220440881038
 20
157.79559118236543
 10
124.28523714094861
 20
157.28657314630954
 10
124.20040080160082
 20
157.0320641282628
 10
124.03072812290524
 20
156.77755511021604
 10
124.03072812290524
 20
156.26853707414762
 10
124.20040080160082
 20
156.09886439546233
 10
124.40400801601994
 20
155.7595190380792
 10
124.20040080160082
 20
155.25050100199823
 10
123.69138276553356
 20
155.50501002003244
 10
123.58957915830453
 20
155.7595190380792
 10
123.43687374750965
 20
156.26853707414762
 10
123.48777555111445
 20
156.77755511021604
 10
123.43687374750965
 20
157.286573146297
 10
123.18236472946629
 20
157.79559118236543
 10
123.18236472946629
 20
158.30460921843385
 10
123.30961923848798
 20
158.8136272545148
 10
123.64048096192877
 20
159.32264529058324
  0
LWPOLYLINE
  5
84
330
17
100
AcDbEntity
  8
relief
100
AcDbPolyline
 90
22
 70
1
 10
123.69138276553356
 20
179.68336673347073
 10
124.20040080160082
 20
179.27615230461097
 10
124.32765531062252
 20
179.17434869738977
 10
124.32765531062252
 20
178.66533066132135
 10
124.20040080160082
 20
178.15631262525292
 10
124.70941883766808
 20
177.6472945891845
 10
125.01482965931625
 20
177.13827655310354
 10
124.87909151636367
 20
176.6292585170351
 10
124.70941883766808
 20
176.4595858383498
 10
124.20040080160082
 20
176.6292585170351
 10
123.69138276553356
 20
177.13827655310354
 10
123.18236472946629
 20
176.6292585170351
 10
122.67334669337956
 20
176.12024048096666
 10
122.1643286573123
 20
176.12024048096666
 10
122.03707414829063
 20
176.6292585170351
 10
122.05121353820138
 20
177.13827655310354
 10
122.10777109776657
 20
177.6472945891845
 10
122.1643286573123
 20
178.15631262525292
 10
122.67334669337956
 20
178.41082164328714
 10
123.18236472946629
 20
178.66533066132135
 10
123.38597194388541
 20
179.17434869738977
 10
123.69138276553356
 20
179.68336673347073
  0
LWPOLYLINE
  5
85
330
17
100
AcDbEntity
  8
relief
100
AcDbPolyline
 90
23
 70
1
 10
118.09218436873525
 20
183.3737474949919
 10
118.6012024048025
 20
183.4161656646726
 10
119.11022044088924
 20
183.24649298597478
 10
119.61923847695651
 20
182.94108216432372
 10
120.12825651302377
 20
182.73747494989382
 10
120.63727454909103
 20
182.44660750070292
 10
121.14629258517776
 20
182.3738906384146
 10
121.65531062124504
 20
182.2284569138254
 10
121.65531062124504
 20
181.71943887775697
 10
121.14629258517776
 20
181.38009352037383
 10
120.63727454909103
 20
181.46492985972276
 10
120.12825651302377
 20
181.21042084168855
 10
119.61923847695651
 20
181.21042084168855
 10
119.11022044088924
 20
181.21042084168855
 10
118.90661322645066
 20
181.71943887775697
 10
118.72845691382419
 20
182.2284569138254
 10
118.6012024048025
 20
182.4829659318596
 10
118.09218436873525
 20
182.2284569138254
 10
117.58316633266799
 20
182.1359081799868
 10
117.4906175988358
 20
182.2284569138254
 10
117.07414829660073
 20
182.73747494989382
 10
117.58316633266799
 20
183.24649298597478
 10
118.09218436873525
 20
183.3737474949919
  0
LWPOLYLINE
  5
86
330
17
100
AcDbEntity
  8
relief
100
AcDbPolyline
 90
12
 70
1
 10
123.18236472946629
 20
220.91382765531412
 10
122.67334669337956
 20
220.57448229793098
 10
122.1643286573123
 20
220.57448229793098
 10
121.9098196392884
 20
220.91382765531412
 10
121.96072144289317
 20
221.42284569138255
 10
121.9098196392884
 20
221.93186372745097
 10
122.1643286573123
 20
222.3136272545148
 10
122.67334669337956
 20
222.44088176353193
 10
123.18236472946629
 20
222.44088176353193
 10
123.38597194390488
 20
221.93186372745097
 10
123.52171008683798
 20
221.42284569138255
 10
123.18236472946629
 20
220.91382765531412
  0
LWPOLYLINE
  5
87
330
17
100
AcDbEntity
  8
relief
100
AcDbPolyline
 90
22
 70
1
 10
120.46760187039547
 20
225.49498997995502
 10
120.63727454909103
 20
225.62224448897214
 10
120.8917835671344
 20
225.49498997995502
 10
121.14629258517776
 20
225.43136272545274
 10
121.65531062124504
 20
225.36773547093793
 10
121.96072144289317
 20
224.9859719438866
 10
121.97923118964793
 20
224.47695390781817
 10
121.97923118964793
 20
223.9679358717372
 10
121.99465597861672
 20
223.45891783566879
 10
121.9098196392884
 20
222.94989979960036
 10
121.65531062122557
 20
222.78022712091504
 10
121.14629258517776
 20
222.6444889779618
 10
120.63727454909103
 20
222.78022712091504
 10
120.12825651302377
 20
222.94989979960036
 10
120.18481407258896
 20
223.45891783566879
 10
120.12825651302377
 20
223.56072144287748
 10
119.78891115565207
 20
223.9679358717372
 10
119.61923847693704
 20
224.30728122913285
 10
119.36472945893262
 20
224.47695390781817
 10
119.61923847695651
 20
224.9859719438866
 10
120.12825651302377
 20
225.1556446225719
 10
120.46760187039547
 20
225.49498997995502
  0
LWPOLYLINE
  5
88
330
17
100
AcDbEntity
  8
relief
100
AcDbPolyline
 90
13
 70
1
 10
120.12825651302377
 20
234.14829659318096
 10
119.61923847695651
 20
233.89378757514675
 10
119.11022044088924
 20
233.80895123579782
 10
118.6012024048025
 20
233.89378757514675
 10
118.34669338675914
 20
234.14829659318096
 10
118.09218436873525
 20
234.65731462926192
 10
117.92251169003966
 20
235.16633266533034
 10
118.09218436873525
 20
235.42084168336456
 10
118.6012024048025
 20
235.67535070139877
 10
119.11022044088924
 20
235.16633266533034
 10
119.11022044088924
 20
234.65731462926192
 10
119.61923847695651
 20
234.65731462926192
 10
120.12825651302377
 20
234.14829659318096
  0
LWPOLYLINE
  5
89
330
17
100
AcDbEntity
  8
relief
100
AcDbPolyline
 90
20
 70
1
 10
127.76352705411063
 20
241.2745490982016
 10
127.76352705411063
 20
240.76553106212063
 10
127.25450901804335
 20
240.2565130260522
 10
126.74549098195662
 20
240.51102204408642
 10
126.23647294588936
 20
240.76553106212063
 10
125.7274549098221
 20
241.2745490982016
 10
125.21843687375483
 20
241.10487641950377
 10
124.96392785571145
 20
241.2745490982016
 10
124.96392785571145
 20
241.78356713427002
 10
125.21843687375483
 20
242.29258517033844
 10
125.7274549098221
 20
241.78356713427002
 10
126.23647294588936
 20
242.03807615230423
 10
126.74549098195662
 20
242.12291249165315
 10
127.25450901804335
 20
242.29258517033844
 10
127.76352705411063
 20
242.54709418837268
 10
128.27254509017786
 20
242.8016032064069
 10
128.52705410822125
 20
242.29258517033844
 10
128.78156312624515
 20
241.78356713427002
 10
128.27254509017786
 20
241.2745490982016
 10
127.76352705411063
 20
241.2745490982016
  0
LWPOLYLINE
  5
8A
330
17
100
AcDbEntity
  8
relief
100
AcDbPolyline
 90
38
 70
1
 10
122.67334669337956
 20
251.45490981964534
 10
123.18236472946629
 20
251.96392785571376
 10
123.18236472946629
 20
252.4729458917822
 10
123.28416833667586
 20
252.98196392785061
 10
123.18236472946629
 20
253.49098196393157
 10
123.52171008683798
 20
254.0
 10
123.69138276553356
 20
254.0
 10
124.20040080160082
 20
254.0
 10
124.70941883766808
 20
254.0
 10
125.21843687375483
 20
254.0
 10
125.21843687375483
 20
253.49098196393157
 10
124.87909151636367
 20
252.98196392785061
 10
124.91302605210667
 20
252.4729458917822
 10
124.96392785571145
 20
251.96392785571376
 10
125.04876419505925
 20
251.45490981964534
 10
125.21843687375483
 20
251.2004008015986
 10
125.7274549098221
 20
250.94589178356438
 10
126.23647294588936
 20
250.94589178356438
 10
126.49098196391324
 20
250.43687374749595
 10
126.74549098195662
 20
249.92785571142753
 10
127.25450901804335
 20
249.41883767534657
 10
126.74549098195662
 20
249.24916499666128
 10
126.23647294588936
 20
249.41883767534657
 10
125.72745490980262
 20
249.24916499666128
 10
125.21843687375483
 20
249.41883767534657
 10
124.87909151636367
 20
248.90981963927814
 10
124.83667334668978
 20
248.40080160320971
 10
124.70941883766808
 20
248.14629258516297
 10
124.20040080160082
 20
248.14629258516297
 10
123.69138276553356
 20
248.40080160320971
 10
123.86105544422914
 20
248.90981963927814
 10
123.94589178355746
 20
249.41883767534657
 10
123.94589178355746
 20
249.92785571142753
 10
124.20040080160082
 20
250.43687374749595
 10
123.69138276553356
 20
250.43687374749595
 10
123.18236472946629
 20
250.69138276553016
 10
122.67334669337956
 20
250.94589178356438
 10
122.67334669337956
 20
251.45490981964534
  0
LWPOLYLINE
  5
8B
330
17
100
AcDbEntity
  8
relief
100
AcDbPolyline
 90
82
 70
1
 10
140.99799599197632
 20
17.30661322645185
 10
140.48897795590904
 20
17.815631262520284
 10
140.31930527721346
 20
18.324649298601233
 10
140.14963259853738
 20
18.833667334669666
 10
139.9799599198418
 20
19.00334001335497
 10
139.6406145624701
 20
19.342685370738096
 10
139.47094188377451
 20
19.597194388784832
 10
138.96192384768779
 20
19.85170340681905
 10
138.96192384768779
 20
19.342685370738096
 10
138.4529058116205
 20
18.833667334669666
 10
138.1983967935966
 20
18.324649298601233
 10
138.4529058116205
 20
18.070140280554497
 10
138.96192384768779
 20
17.815631262520284
 10
139.47094188377451
 20
17.64595858383498
 10
139.9799599198418
 20
17.30661322645185
 10
139.47094188377451
 20
16.797595190383422
 10
138.96192384768779
 20
16.797595190383422
 10
138.4529058116205
 20
16.543086172349206
 10
137.94388777555326
 20
16.28857715430247
 10
137.43486973948598
 20
16.458249833000295
 10
136.92585170339925
 20
16.458249833000295
 10
136.67134268537535
 20
16.28857715430247
 10
136.41683366733196
 20
15.77955911823404
 10
135.90781563126473
 20
16.28857715430247
 10
135.90781563126473
 20
16.797595190383422
 10
136.41683366733196
 20
16.89939879760462
 10
136.92585170339925
 20
17.13694054776655
 10
137.09552438209482
 20
17.30661322645185
 10
136.92585170339925
 20
17.561122244486068
 10
136.8240480961897
 20
17.815631262520284
 10
136.8240480961897
 20
18.324649298601233
 10
136.67134268537535
 20
18.833667334669666
 10
136.67134268537535
 20
19.342685370738096
 10
136.75617902470367
 20
19.85170340681905
 10
136.874949899775
 20
20.360721442887478
 10
136.92585170339925
 20
20.615230460921694
 10
137.05310621242091
 20
20.86973947895591
 10
137.43486973948598
 20
21.37875751502434
 10
137.43486973948598
 20
21.887775551105292
 10
137.43486973948598
 20
22.396793587173722
 10
137.94388777555326
 20
22.90581162324215
 10
138.4529058116205
 20
22.90581162324215
 10
138.96192384768779
 20
23.414829659323104
 10
139.47094188377451
 20
23.414829659323104
 10
139.9799599198418
 20
23.096693386774074
 10
140.48897795590904
 20
22.990647962591066
 10
140.65865063458517
 20
22.90581162324215
 10
140.99799599197632
 20
22.65130260520794
 10
141.1111111111067
 20
22.396793587173722
 10
140.99799599197632
 20
22.057448229790594
 10
140.82832331328075
 20
21.887775551105292
 10
140.48897795590904
 20
21.633266533058556
 10
140.14963259851788
 20
21.37875751502434
 10
140.48897795590904
 20
20.86973947895591
 10
140.82832331328075
 20
20.360721442887478
 10
140.99799599197632
 20
20.191048764202176
 10
141.50701402806305
 20
20.02137608550435
 10
141.6088176352726
 20
19.85170340681905
 10
141.76152304608695
 20
19.342685370738096
 10
142.01603206413034
 20
19.12453478384805
 10
142.52505010019757
 20
18.918503674006057
 10
142.77955911822147
 20
18.833667334669666
 10
143.03406813626486
 20
18.63006012023979
 10
143.5430861723516
 20
18.66399465598436
 10
144.05210420841883
 20
18.833667334669666
 10
144.39144956579054
 20
18.324649298601233
 10
144.39144956579054
 20
17.815631262520284
 10
144.5611222444861
 20
17.30661322645185
 10
144.30661322644272
 20
16.797595190383422
 10
144.4338677354644
 20
16.28857715430247
 10
144.39144956579054
 20
15.77955911823404
 10
144.05210420841883
 20
15.440213760850913
 10
143.5430861723516
 20
15.609886439548736
 10
143.2885771543082
 20
15.77955911823404
 10
143.03406813626486
 20
16.034068136268257
 10
142.77955911822147
 20
16.28857715430247
 10
142.69472277889315
 20
16.797595190383422
 10
142.52505010019757
 20
17.05210420841764
 10
142.27054108217368
 20
17.30661322645185
 10
142.01603206413034
 20
17.476285905137157
 10
141.50701402806305
 20
17.561122244486068
 10
140.99799599197632
 20
17.30661322645185
  0
LWPOLYLINE
  5
8C
330
17
100
AcDbEntity
  8
relief
100
AcDbPolyline
 90
21
 70
1
 10
178.66533066132376
 20
195.20841683367055
 10
179.17434869739105
 20
195.20841683367055
 10
179.68336673343885
 20
195.03874415498524
 10
180.19238476954507
 20
195.02662467793718
 10
180.2772211088734
 20
194.95390781564885
 10
180.4468937875884
 20
194.44488977955538
 10
180.33781849413572
 20
193.93587174348696
 10
180.3959919839836
 20
193.42685370741853
 10
180.24894232911026
 20
192.91783567133757
 10
180.19238476952557
 20
192.83299933200118
 10
179.68336673345829
 20
192.69968508444754
 10
179.17434869739105
 20
192.74816299265228
 10
178.66533066132376
 20
192.91783567133757
 10
178.15631262525653
 20
193.17234468937178
 10
177.81696726786538
 20
193.42685370741853
 10
177.6472945891698
 20
193.59652638610382
 10
177.47762191047423
 20
193.93587174348696
 10
177.3927855711459
 20
194.44488977955538
 10
177.6472945891698
 20
194.95390781563634
 10
178.15631262525653
 20
194.95390781563634
 10
178.66533066132376
 20
195.20841683367055
  0
LWPOLYLINE
  5
8D
330
17
100
AcDbEntity
  8
relief
100
AcDbPolyline
 90
119
 70
1
 10
246.61923847695584
 20
2.0360721442862437
 10
246.36472945891245
 20
2.1633266533033515
 10
245.85571142284516
 20
2.1633266533033515
 10
245.34669338677793
 20
2.5450901803546744
 10
245.44849699398748
 20
3.0541082164356257
 10
245.55030060119702
 20
3.563126252504057
 10
245.85571142284516
 20
4.0721442885724874
 10
246.36472945891245
 20
4.0721442885724874
 10
246.87374749497974
 20
4.0721442885724874
 10
247.01918121957038
 20
4.581162324653439
 10
247.09189808186568
 20
5.090180360721869
 10
247.1565352928057
 20
5.5991983967903005
 10
247.04342017367532
 20
6.108216432871251
 10
246.97555110218929
 20
6.6172344689396825
 10
246.97555110218929
 20
7.126252505008114
 10
246.87374749497974
 20
7.635270541076544
 10
246.87374749497974
 20
8.144288577157495
 10
247.0010020040014
 20
8.653306613225926
 10
247.2130928523709
 20
9.162324649294357
 10
247.38276553106647
 20
9.416833667341093
 10
247.63727454909036
 20
9.671342685375308
 10
247.8917835671337
 20
10.180360721443739
 10
247.8917835671337
 20
10.68937875751217
 10
248.1462925851771
 20
11.19839679359312
 10
248.400801603201
 20
11.707414829661552
 10
248.90981963926828
 20
12.216432865729983
 10
248.90981963926828
 20
12.725450901798414
 10
249.418837675355
 20
13.234468937879365
 10
249.92785571142224
 20
13.234468937879365
 10
250.09752839011782
 20
13.743486973947796
 10
250.26720106879395
 20
14.252505010016227
 10
250.09752839011782
 20
14.761523046097178
 10
250.05511022044396
 20
15.27054108216561
 10
249.92785571142224
 20
15.525050100199824
 10
249.67334669339834
 20
15.77955911823404
 10
249.418837675355
 20
16.28857715430247
 10
249.67334669339834
 20
16.797595190383422
 10
249.92785571142224
 20
17.30661322645185
 10
250.43687374748953
 20
17.30661322645185
 10
250.94589178355676
 20
17.815631262520284
 10
250.94589178355676
 20
18.324649298601233
 10
250.43687374748953
 20
18.833667334669666
 10
250.23326653307038
 20
19.342685370738096
 10
250.05511022044396
 20
19.85170340681905
 10
250.18236472944614
 20
20.360721442887478
 10
250.43687374748953
 20
20.86973947895591
 10
250.94589178355676
 20
20.360721442887478
 10
251.20040080160015
 20
19.85170340681905
 10
251.45490981964355
 20
19.342685370738096
 10
251.96392785571078
 20
19.173012692052794
 10
252.47294589177807
 20
19.342685370738096
 10
252.9819639278453
 20
19.342685370738096
 10
253.49098196393203
 20
19.51235804943592
 10
253.74549098197542
 20
19.342685370738096
 10
253.99999999999932
 20
19.08817635270388
 10
253.99999999999932
 20
18.833667334669666
 10
253.99999999999932
 20
18.324649298601233
 10
253.99999999999932
 20
17.815631262520284
 10
253.99999999999932
 20
17.30661322645185
 10
253.99999999999932
 20
16.797595190383422
 10
253.99999999999932
 20
16.28857715430247
 10
253.99999999999932
 20
15.77955911823404
 10
253.99999999999932
 20
15.27054108216561
 10
253.99999999999932
 20
14.761523046097178
 10
253.99999999999932
 20
14.252505010016227
 10
253.99999999999932
 20
13.743486973947796
 10
253.99999999999932
 20
13.234468937879365
 10
253.99999999999932
 20
12.725450901798414
 10
253.99999999999932
 20
12.216432865729983
 10
253.99999999999932
 20
11.707414829661552
 10
253.99999999999932
 20
11.19839679359312
 10
253.99999999999932
 20
10.68937875751217
 10
253.99999999999932
 20
10.180360721443739
 10
253.99999999999932
 20
9.671342685375308
 10
253.99999999999932
 20
9.162324649294357
 10
253.99999999999932
 20
8.653306613225926
 10
253.99999999999932
 20
8.144288577157495
 10
253.99999999999932
 20
7.635270541076544
 10
253.99999999999932
 20
7.126252505008114
 10
253.99999999999932
 20
6.6172344689396825
 10
253.99999999999932
 20
6.108216432871251
 10
253.99999999999932
 20
5.5991983967903005
 10
253.99999999999932
 20
5.090180360721869
 10
253.99999999999932
 20
4.581162324653439
 10
253.99999999999932
 20
4.0721442885724874
 10
253.99999999999932
 20
3.563126252504057
 10
253.99999999999932
 20
3.0541082164356257
 10
253.99999999999932
 20
2.5450901803546744
 10
253.99999999999932
 20
2.0360721442862437
 10
253.99999999999932
 20
1.5270541082178128
 10
253.99999999999932
 20
1.0180360721493822
 10
253.99999999999932
 20
0.5090180360684308
 10
253.99999999999932
 20
0.0
 10
253.49098196393203
 20
0.0
 10
252.9819639278453
 20
0.0
 10
252.47294589177807
 20
0.0
 10
251.96392785571078
 20
0.0
 10
251.45490981964355
 20
0.0
 10
250.94589178355676
 20
0.0
 10
250.43687374748953
 20
0.0
 10
249.92785571142224
 20
0.0
 10
249.418837675355
 20
0.0
 10
248.90981963926828
 20
0.0
 10
248.400801603201
 20
0.0
 10
247.8917835671337
 20
0.0
 10
247.38276553106647
 20
0.0
 10
246.87374749497974
 20
0.0
 10
246.36472945891245
 20
0.0
 10
245.85571142284516
 20
0.0
 10
245.34669338677793
 20
0.0
 10
244.8376753506912
 20
0.0
 10
244.3286573146239
 20
0.0
 10
244.8376753506912
 20
0.2545090180342154
 10
245.34669338677793
 20
0.5090180360684308
 10
245.85571142282572
 20
0.6786907147662548
 10
246.36472945891245
 20
0.9331997328004702
 10
246.44956579826027
 20
1.0180360721493822
 10
246.87374749497974
 20
1.5270541082178128
 10
246.61923847695584
 20
2.0360721442862437
  0
LWPOLYLINE
  5
8E
330
17
100
AcDbEntity
  8
relief
100
AcDbPolyline
 90
13
 70
1
 10
251.70941883766739
 20
15.27054108216561
 10
251.7942551770152
 20
14.761523046097178
 10
251.96392785571078
 20
14.252505010016227
 10
252.3032732130825
 20
13.743486973947796
 10
252.47294589177807
 20
13.616232464930688
 10
252.9819639278453
 20
13.743486973947796
 10
252.9819639278453
 20
14.252505010016227
 10
252.7274549098019
 20
14.761523046097178
 10
252.7274549098019
 20
15.27054108216561
 10
252.47294589177807
 20
15.77955911823404
 10
251.96392785571078
 20
16.28857715430247
 10
251.62458249831963
 20
15.77955911823404
 10
251.70941883766739
 20
15.27054108216561
  0
LWPOLYLINE
  5
8F
330
17
100
AcDbEntity
  8
relief
100
AcDbPolyline
 90
11
 70
1
 10
246.36472945891245
 20
9.671342685375308
 10
245.85571142284516
 20
9.671342685375308
 10
245.5163660654735
 20
10.180360721443739
 10
245.34669338677793
 20
10.68937875751217
 10
245.85571142284516
 20
11.19839679359312
 10
246.36472945891245
 20
11.452905811627337
 10
246.87374749497974
 20
11.19839679359312
 10
247.04342017367532
 20
10.68937875751217
 10
247.04342017367532
 20
10.180360721443739
 10
246.87374749497974
 20
9.925851703409524
 10
246.36472945891245
 20
9.671342685375308
  0
LWPOLYLINE
  5
90
330
17
100
AcDbEntity
  8
relief
100
AcDbPolyline
 90
12
 70
1
 10
248.65531062122488
 20
18.324649298601233
 10
248.400801603201
 20
18.15497661991593
 10
247.8917835671337
 20
18.070140280554497
 10
247.38276553106647
 20
18.324649298601233
 10
247.12825651302308
 20
18.833667334669666
 10
247.2130928523709
 20
19.342685370738096
 10
247.38276553104697
 20
19.444488977959296
 10
247.8917835671337
 20
19.682030728121223
 10
248.400801603201
 20
19.85170340681905
 10
248.80801603205867
 20
19.342685370738096
 10
248.90981963926828
 20
18.833667334669666
 10
248.65531062122488
 20
18.324649298601233
  0
LWPOLYLINE
  5
91
330
17
100
AcDbEntity
  8
relief
100
AcDbPolyline
 90
30
 70
1
 10
190.3727454909877
 20
22.396793587173722
 10
190.88176352705494
 20
22.396793587173722
 10
191.13627254509834
 20
21.887775551105292
 10
191.05143620573108
 20
21.37875751502434
 10
191.39078156312223
 20
20.86973947895591
 10
191.89979959918946
 20
21.124248496990123
 10
192.15430861723286
 20
21.37875751502434
 10
192.4088176352762
 20
21.887775551105292
 10
192.91783567134348
 20
21.37875751502434
 10
193.42685370741077
 20
21.37875751502434
 10
193.935871743478
 20
20.86973947895591
 10
193.935871743478
 20
20.360721442887478
 10
193.42685370741077
 20
20.2589178356788
 10
192.91783567134348
 20
20.1571142284576
 10
192.6633266533196
 20
19.85170340681905
 10
192.5106212424858
 20
19.342685370738096
 10
192.4088176352762
 20
19.21543086172099
 10
191.89979959918946
 20
19.21543086172099
 10
191.39078156312223
 20
19.08817635270388
 10
191.18717434870308
 20
18.833667334669666
 10
190.88176352705494
 20
18.57915831663545
 10
190.3727454909877
 20
18.833667334669666
 10
190.06733466933952
 20
19.342685370738096
 10
189.86372745490092
 20
19.682030728121223
 10
189.8001002003901
 20
19.85170340681905
 10
189.86372745490092
 20
20.360721442887478
 10
189.86372745490092
 20
20.86973947895591
 10
190.20307281229213
 20
21.37875751502434
 10
190.2879091516399
 20
21.887775551105292
 10
190.3727454909877
 20
22.396793587173722
  0
LWPOLYLINE
  5
92
330
17
100
AcDbEntity
  8
relief
100
AcDbPolyline
 90
14
 70
1
 10
241.2745490982009
 20
31.813627254502293
 10
241.14729458917918
 20
31.55911823646808
 10
240.76553106211412
 20
31.177354709416758
 10
240.51102204407078
 20
31.050100200399648
 10
240.2565130260469
 20
30.54108216433122
 10
239.7474949899796
 20
31.050100200399648
 10
240.0868403473513
 20
31.55911823646808
 10
239.87474949900133
 20
32.06813627254903
 10
239.91716766867518
 20
32.57715430861746
 10
240.2565130260469
 20
32.91649966600059
 10
240.76553106211412
 20
32.98436873747721
 10
241.2745490982009
 20
32.57715430861746
 10
241.40180360722258
 20
32.06813627254903
 10
241.2745490982009
 20
31.813627254502293
  0
LWPOLYLINE
  5
93
330
17
100
AcDbEntity
  8
relief
100
AcDbPolyline
 90
17
 70
1
 10
250.94589178355676
 20
47.84769539078307
 10
251.20040080160015
 20
47.33867735471464
 10
251.2852371409479
 20
46.82965931863369
 10
250.94589178355676
 20
46.659986639948386
 10
250.43687374748953
 20
46.49031396125056
 10
250.26720106879395
 20
46.320641282565255
 10
249.92785571142224
 20
46.06613226453104
 10
249.418837675355
 20
46.06613226453104
 10
248.90981963926828
 20
46.15096860387995
 10
248.400801603201
 20
46.320641282565255
 10
248.400801603201
 20
46.82965931863369
 10
248.400801603201
 20
47.33867735471464
 10
248.90981963926828
 20
47.46593186373175
 10
249.418837675355
 20
47.72044088176596
 10
249.92785571142224
 20
47.72044088176596
 10
250.43687374748953
 20
47.59318637274885
 10
250.94589178355676
 20
47.84769539078307
  0
LWPOLYLINE
  5
94
330
17
100
AcDbEntity
  8
relief
100
AcDbPolyline
 90
43
 70
1
 10
191.13627254509834
 20
47.84769539078307
 10
190.88176352705494
 20
48.102204408817286
 10
190.3727454909877
 20
48.3567134268515
 10
189.86372745490092
 20
48.3567134268515
 10
189.6940547762054
 20
48.86573146291993
 10
189.60921843687703
 20
49.374749499000885
 10
189.3547094188337
 20
49.88376753506931
 10
189.3547094188337
 20
50.39278557113774
 10
189.3547094188337
 20
50.901803607218696
 10
189.60921843687703
 20
51.41082164328713
 10
189.86372745490092
 20
51.66533066132134
 10
190.11823647294432
 20
51.41082164328713
 10
190.3727454909877
 20
51.24114896460183
 10
190.71209084835937
 20
50.901803607218696
 10
190.88176352705494
 20
50.64729458918448
 10
191.39078156312223
 20
50.39278557113774
 10
191.89979959918946
 20
50.901803607218696
 10
192.4088176352762
 20
50.39278557113774
 10
192.4088176352762
 20
49.88376753506931
 10
191.89979959918946
 20
49.374749499000885
 10
192.4088176352762
 20
49.120240480954145
 10
192.6633266533196
 20
49.374749499000885
 10
192.91783567134348
 20
49.88376753506931
 10
193.42685370741077
 20
50.22311289245244
 10
193.935871743478
 20
50.39278557113774
 10
194.1394789579166
 20
49.88376753506931
 10
194.44488977956473
 20
49.50200400801799
 10
194.95390781563202
 20
49.374749499000885
 10
195.29325317300368
 20
48.86573146291993
 10
195.0811623246537
 20
48.3567134268515
 10
194.95390781561258
 20
48.1870407481662
 10
194.75030060119343
 20
47.84769539078307
 10
194.69939879758863
 20
47.33867735471464
 10
194.44488977956473
 20
46.82965931863369
 10
194.1903807615214
 20
47.33867735471464
 10
193.935871743478
 20
47.50835003339994
 10
193.59652638610635
 20
47.84769539078307
 10
193.42685370741077
 20
48.017368069468375
 10
192.91783567134348
 20
48.3567134268515
 10
192.4088176352762
 20
48.102204408817286
 10
191.89979959918946
 20
47.84769539078307
 10
191.39078156312223
 20
47.33867735471464
 10
191.13627254509834
 20
47.84769539078307
  0
LWPOLYLINE
  5
95
330
17
100
AcDbEntity
  8
relief
100
AcDbPolyline
 90
21
 70
1
 10
248.7062124248297
 20
50.39278557113774
 10
248.90981963926828
 20
50.50590069026128
 10
249.418837675355
 20
50.53821929572693
 10
249.92785571142224
 20
50.39278557113774
 10
250.43687374748953
 20
50.49458917835894
 10
250.94589178355676
 20
50.39278557113774
 10
251.45490981964355
 20
50.13827655310353
 10
251.5567134268531
 20
49.88376753506931
 10
251.58216432866521
 20
49.374749499000885
 10
251.96392785571078
 20
48.86573146291993
 10
251.7942551770152
 20
48.3567134268515
 10
251.45490981964355
 20
48.017368069468375
 10
250.94589178355676
 20
48.3567134268515
 10
250.69138276553286
 20
48.86573146291993
 10
250.43687374748953
 20
49.374749499000885
 10
249.92785571142224
 20
49.374749499000885
 10
249.418837675355
 20
48.86573146291993
 10
249.16432865731161
 20
49.374749499000885
 10
248.90981963926828
 20
49.54442217768619
 10
248.57047428189657
 20
49.88376753506931
 10
248.7062124248297
 20
50.39278557113774
  0
LWPOLYLINE
  5
96
330
17
100
AcDbEntity
  8
relief
100
AcDbPolyline
 90
15
 70
1
 10
206.49164996660033
 20
59.555110220444625
 10
206.6613226452959
 20
59.04609218436367
 10
206.15230460920918
 20
58.70674682698054
 10
205.8977955911853
 20
58.53707414829524
 10
205.64328657314195
 20
58.28256513026103
 10
205.13426853707466
 20
58.02805611222681
 10
204.62525050100737
 20
58.53707414829524
 10
204.37074148296404
 20
59.04609218436367
 10
204.62525050100737
 20
59.555110220444625
 10
205.13426853707466
 20
59.300601202397885
 10
205.38877755509856
 20
59.555110220444625
 10
205.64328657314195
 20
60.06412825651305
 10
206.15230460920918
 20
60.40347361389618
 10
206.40681362725257
 20
60.06412825651305
 10
206.49164996660033
 20
59.555110220444625
  0
LWPOLYLINE
  5
97
330
17
100
AcDbEntity
  8
relief
100
AcDbPolyline
 90
14
 70
1
 10
253.99999999999932
 20
122.67334669338078
 10
253.99999999999932
 20
122.41883767534657
 10
253.49098196393203
 20
122.33400133599766
 10
253.2364729458887
 20
122.16432865731235
 10
252.9819639278453
 20
122.06252505010367
 10
252.47294589177807
 20
122.03707414829525
 10
252.3032732130825
 20
122.16432865731235
 10
252.21843687375417
 20
122.67334669338078
 10
252.47294589177807
 20
123.18236472946172
 10
252.9819639278453
 20
123.43687374749595
 10
253.49098196393203
 20
123.69138276553016
 10
253.99999999999932
 20
123.69138276553016
 10
253.99999999999932
 20
123.18236472946172
 10
253.99999999999932
 20
122.67334669338078
  0
LWPOLYLINE
  5
98
330
17
100
AcDbEntity
  8
relief
100
AcDbPolyline
 90
23
 70
1
 10
242.54709418837876
 20
128.78156312625202
 10
242.80160320640266
 20
129.03607214428624
 10
243.05611222444605
 20
129.29058116232045
 10
243.3106212424894
 20
129.5450901803672
 10
243.81963927855668
 20
129.5450901803672
 10
244.32865731460447
 20
129.36329802462132
 10
244.8376753506912
 20
129.29058116232045
 10
245.34669338677793
 20
129.12090848363516
 10
245.85571142284516
 20
128.78156312625202
 10
246.36472945891245
 20
128.2725450901836
 10
246.87374749497974
 20
128.1452905811665
 10
247.17915831662788
 20
127.76352705410265
 10
246.87374749497974
 20
127.45811623246409
 10
246.36472945891245
 20
127.25450901803421
 10
245.85571142284516
 20
127.76352705410265
 10
245.34669338677793
 20
128.10287241148578
 10
244.8376753506912
 20
127.76352705410265
 10
244.3286573146239
 20
127.76352705410265
 10
243.94689378757835
 20
128.2725450901836
 10
243.81963927855668
 20
128.5270541082178
 10
243.3106212424894
 20
128.61189044756674
 10
242.80160320640266
 20
128.5270541082178
 10
242.54709418837876
 20
128.78156312625202
  0
LWPOLYLINE
  5
99
330
17
100
AcDbEntity
  8
relief
100
AcDbPolyline
 90
17
 70
1
 10
219.76853707413994
 20
132.85370741482453
 10
219.8957915831616
 20
132.3446893787561
 10
220.0993987975807
 20
131.83567134268765
 10
219.8957915831616
 20
131.49632598530454
 10
219.64128256513771
 20
131.32665330661922
 10
219.76853707413994
 20
130.8176352705383
 10
219.8957915831616
 20
130.30861723446984
 10
219.38677354709432
 20
130.20681362726117
 10
218.8777555110271
 20
130.30861723446984
 10
218.36873747494036
 20
130.8176352705383
 10
218.36873747494036
 20
131.32665330661922
 10
218.8777555110271
 20
131.83567134268765
 10
218.6232464929837
 20
132.3446893787561
 10
218.7080828323315
 20
132.85370741482453
 10
218.8777555110271
 20
133.10821643287125
 10
219.38677354709432
 20
133.36272545090546
 10
219.76853707413994
 20
132.85370741482453
  0
LWPOLYLINE
  5
9A
330
17
100
AcDbEntity
  8
relief
100
AcDbPolyline
 90
28
 70
1
 10
227.27655310620509
 20
140.48897795591358
 10
227.50111988683273
 20
140.997995991982
 10
227.53106212424848
 20
141.02793822940075
 10
227.95970889146298
 20
141.50701402805043
 10
228.0400801603157
 20
141.58738529690996
 10
228.549098196383
 20
141.56357158761222
 10
228.60565575594813
 20
141.50701402805043
 10
229.05811623248917
 20
141.078367260829
 10
229.1384875013419
 20
140.997995991982
 10
229.56713426855646
 20
140.56934922477308
 10
230.07615230460425
 20
140.51892019333232
 10
230.3306613226476
 20
140.48897795591358
 10
230.20340681362592
 20
139.97995991984516
 10
230.07615230460425
 20
139.4709418837642
 10
230.07615230460425
 20
138.96192384769577
 10
229.82164328656086
 20
138.45290581162735
 10
229.56713426853696
 20
138.1983967935806
 10
229.31262525051307
 20
137.9438877755464
 10
229.31262525051307
 20
137.43486973947796
 10
229.05811623246973
 20
137.18036072144375
 10
228.88844355377415
 20
137.43486973947796
 10
228.549098196383
 20
137.9438877755464
 10
228.0400801603157
 20
138.1983967935806
 10
227.70073480294405
 20
138.45290581162735
 10
227.53106212424848
 20
138.96192384769577
 10
227.53106212424848
 20
139.4709418837642
 10
227.42925851701943
 20
139.97995991984516
 10
227.27655310620509
 20
140.48897795591358
  0
LWPOLYLINE
  5
9B
330
17
100
AcDbEntity
  8
relief
100
AcDbPolyline
 90
19
 70
1
 10
190.3727454909877
 20
183.7555110220432
 10
190.88176352705494
 20
183.24649298597478
 10
190.3727454909877
 20
182.73747494989382
 10
189.86372745490092
 20
182.56780227120854
 10
189.57286000573913
 20
182.2284569138254
 10
189.44725815268538
 20
181.71943887775697
 10
189.3547094188337
 20
181.59218436873985
 10
188.8456913827664
 20
181.2831377039894
 10
188.33667334669917
 20
181.32353596081208
 10
187.82765531063188
 20
181.5012882908669
 10
187.60950472374594
 20
181.71943887775697
 10
187.40347361389297
 20
182.2284569138254
 10
187.82765531061244
 20
182.73747494989382
 10
188.33667334669917
 20
182.94108216432372
 10
188.8456913827664
 20
183.24649298597478
 10
189.3547094188337
 20
183.58583834335792
 10
189.73647294587926
 20
183.7555110220432
 10
189.86372745490092
 20
183.8403473613796
 10
190.3727454909877
 20
183.7555110220432
  0
ENDSEC
  0
SECTION
  2
OBJECTS
  0
DICTIONARY
  5
A
330
0
100
AcDbDictionary
281
1
  3
ACAD_COLOR
350
B
  3
ACAD_GROUP
350
C
  3
ACAD_LAYOUT
350
D
  3
ACAD_MATERIAL
350
E
  3
ACAD_MLEADERSTYLE
350
F
  3
ACAD_MLINESTYLE
350
10
  3
ACAD_PLOTSETTINGS
350
11
  3
ACAD_PLOTSTYLENAME
350
12
  3
ACAD_SCALELIST
350
14
  3
ACAD_TABLESTYLE
350
15
  3
ACAD_VISUALSTYLE
350
16
  3
EZDXF_META
350
2D
  0
DICTIONARY
  5
B
330
A
100
AcDbDictionary
281
1
  0
DICTIONARY
  5
C
330
A
100
AcDbDictionary
281
1
  0
DICTIONARY
  5
D
330
A
100
AcDbDictionary
281
1
  3
Model
350
1A
  3
Layout1
350
1E
  0
DICTIONARY
  5
E
330
A
100
AcDbDictionary
281
1
  3
ByBlock
350
1F
  3
ByLayer
350
20
  3
Global
350
21
  0
DICTIONARY
  5
F
330
A
100
AcDbDictionary
281
1
  3
Standard
350
2C
  0
DICTIONARY
  5
10
330
A
100
AcDbDictionary
281
1
  3
Standard
350
22
  0
DICTIONARY
  5
11
330
A
100
AcDbDictionary
281
1
  0
ACDBDICTIONARYWDFLT
  5
12
330
A
100
AcDbDictionary
281
1
  3
Normal
350
13
100
AcDbDictionaryWithDefault
340
13
  0
ACDBPLACEHOLDER
  5
13
330
12
  0
DICTIONARY
  5
14
330
A
100
AcDbDictionary
281
1
  0
DICTIONARY
  5
15
330
A
100
AcDbDictionary
281
1
  0
DICTIONARY
  5
16
330
A
100
AcDbDictionary
281
1
  0
LAYOUT
  5
1A
330
D
100
AcDbPlotSettings
  1

  4
A3
  6

 40
7.5
 41
20.0
 42
7.5
 43
20.0
 44
420.0
 45
297.0
 46
0.0
 47
0.0
 48
0.0
 49
0.0
140
0.0
141
0.0
142
1.0
143
1.0
 70
1024
 72
1
 73
0
 74
5
  7

 75
16
 76
0
 77
2
 78
300
147
1.0
148
0.0
149
0.0
100
AcDbLayout
  1
Model
 70
1
 71
0
 10
0.0
 20
0.0
 11
420.0
 21
297.0
 12
0.0
 22
0.0
 32
0.0
 14
1e+20
 24
1e+20
 34
1e+20
 15
-1e+20
 25
-1e+20
 35
-1e+20
146
0.0
 13
0.0
 23
0.0
 33
0.0
 16
1.0
 26
0.0
 36
0.0
 17
0.0
 27
1.0
 37
0.0
 76
1
330
17
  0
LAYOUT
  5
1E
330
D
100
AcDbPlotSettings
  1

  4
A3
  6

 40
7.5
 41
20.0
 42
7.5
 43
20.0
 44
420.0
 45
297.0
 46
0.0
 47
0.0
 48
0.0
 49
0.0
140
0.0
141
0.0
142
1.0
143
1.0
 70
0
 72
1
 73
0
 74
5
  7

 75
16
 76
0
 77
2
 78
300
147
1.0
148
0.0
149
0.0
100
AcDbLayout
  1
Layout1
 70
1
 71
1
 10
0.0
 20
0.0
 11
420.0
 21
297.0
 12
0.0
 22
0.0
 32
0.0
 14
1e+20
 24
1e+20
 34
1e+20
 15
-1e+20
 25
-1e+20
 35
-1e+20
146
0.0
 13
0.0
 23
0.0
 33
0.0
 16
1.0
 26
0.0
 36
0.0
 17
0.0
 27
1.0
 37
0.0
 76
1
330
1B
  0
MATERIAL
  5
1F
102
{ACAD_REACTORS
330
E
102
}
330
E
100
AcDbMaterial
  1
ByBlock
  2

 70
0
 40
1.0
 71
1
 41
1.0
 91
-1023410177
 42
1.0
 72
1
  3

 73
1
 74
1
 75
1
 44
0.5
 73
0
 45
1.0
 46
1.0
 77
1
  4

 78
1
 79
1
170
1
 48
1.0
171
1
  6

172
1
173
1
174
1
140
1.0
141
1.0
175
1
  7

176
1
177
1
178
1
143
1.0
179
1
  8

270
1
271
1
272
1
145
1.0
146
1.0
273
1
  9

274
1
275
1
276
1
 42
1.0
 72
1
  3

 73
1
 74
1
 75
1
 94
63
  0
MATERIAL
  5
20
102
{ACAD_REACTORS
330
E
102
}
330
E
100
AcDbMaterial
  1
ByLayer
  2

 70
0
 40
1.0
 71
1
 41
1.0
 91
-1023410177
 42
1.0
 72
1
  3

 73
1
 74
1
 75
1
 44
0.5
 73
0
 45
1.0
 46
1.0
 77
1
  4

 78
1
 79
1
170
1
 48
1.0
171
1
  6

172
1
173
1
174
1
140
1.0
141
1.0
175
1
  7

176
1
177
1
178
1
143
1.0
179
1
  8

270
1
271
1
272
1
145
1.0
146
1.0
273
1
  9

274
1
275
1
276
1
 42
1.0
 72
1
  3

 73
1
 74
1
 75
1
 94
63
  0
MATERIAL
  5
21
102
{ACAD_REACTORS
330
E
102
}
330
E
100
AcDbMaterial
  1
Global
  2

 70
0
 40
1.0
 71
1
 41
1.0
 91
-1023410177
 42
1.0
 72
1
  3

 73
1
 74
1
 75
1
 44
0.5
 73
0
 45
1.0
 46
1.0
 77
1
  4

 78
1
 79
1
170
1
 48
1.0
171
1
  6

172
1
173
1
174
1
140
1.0
141
1.0
175
1
  7

176
1
177
1
178
1
143
1.0
179
1
  8

270
1
271
1
272
1
145
1.0
146
1.0
273
1
  9

274
1
275
1
276
1
 42
1.0
 72
1
  3

 73
1
 74
1
 75
1
 94
63
  0
MLINESTYLE
  5
22
102
{ACAD_REACTORS
330
10
102
}
330
10
100
AcDbMlineStyle
  2
Standard
 70
0
  3

 62
256
 51
90.0
 52
90.0
 71
2
 49
0.5
 62
256
  6
BYLAYER
 49
-0.5
 62
256
  6
BYLAYER
  0
MLEADERSTYLE
  5
2C
102
{ACAD_REACTORS
330
F
102
}
330
F
100
AcDbMLeaderStyle
179
2
170
2
171
1
172
0
 90
2
 40
0.0
 41
0.0
173
1
 91
-1056964608
 92
-2
290
1
 42
2.0
291
1
 43
8.0
  3
Standard
 44
4.0
300

342
29
174
1
175
1
176
0
178
1
 93
-1056964608
 45
4.0
292
0
297
0
 46
4.0
 94
-1056964608
 47
1.0
 49
1.0
140
1.0
294
1
141
0.0
177
0
142
1.0
295
0
296
0
143
3.75
271
0
272
9
273
9
  0
DICTIONARY
  5
2D
330
A
100
AcDbDictionary
280
1
281
1
  3
CREATED_BY_EZDXF
350
2E
  3
WRITTEN_BY_EZDXF
350
9E
  0
DICTIONARYVAR
  5
2E
330
2D
100
DictionaryVariables
280
0
  1
1.4.3 @ 2026-04-02T16:42:43.471683+00:00
  0
DICTIONARYVAR
  5
9E
330
2D
100
DictionaryVariables
280
0
  1
1.4.3 @ 2026-04-02T16:42:43.483347+00:00
  0
ENDSEC
  0
EOF
