  0
SECTION
  2
HEADER
  9
$ACADVER
  1
AC1024
  9
$ACADMAINTVER
 70
6
  9
$DWGCODEPAGE
  3
ANSI_1252
  9
$LASTSAVEDBY
  1
ezdxf
  9
$INSBASE
 10
0.0
 20
0.0
 30
0.0
  9
$EXTMIN
 10
1e+20
 20
1e+20
 30
1e+20
  9
$EXTMAX
 10
-1e+20
 20
-1e+20
 30
-1e+20
  9
$LIMMIN
 10
0.0
 20
0.0
  9
$LIMMAX
 10
420.0
 20
297.0
  9
$ORTHOMODE
 70
0
  9
$REGENMODE
 70
1
  9
$FILLMODE
 70
1
  9
$QTEXTMODE
 70
0
  9
$MIRRTEXT
 70
1
  9
$LTSCALE
 40
1.0
  9
$ATTMODE
 70
1
  9
$TEXTSIZE
 40
2.5
  9
$TRACEWID
 40
1.0
  9
$TEXTSTYLE
  7
Standard
  9
$CLAYER
  8
0
  9
$CELTYPE
  6
ByLayer
  9
$CECOLOR
 62
256
  9
$CELTSCALE
 40
1.0
  9
$DISPSILH
 70
0
  9
$DIMSCALE
 40
1.0
  9
$DIMASZ
 40
2.5
  9
$DIMEXO
 40
0.625
  9
$DIMDLI
 40
3.75
  9
$DIMRND
 40
0.0
  9
$DIMDLE
 40
0.0
  9
$DIMEXE
 40
1.25
  9
$DIMTP
 40
0.0
  9
$DIMTM
 40
0.0
  9
$DIMTXT
 40
2.5
  9
$DIMCEN
 40
2.5
  9
$DIMTSZ
 40
0.0
  9
$DIMTOL
 70
0
  9
$DIMLIM
 70
0
  9
$DIMTIH
 70
0
  9
$DIMTOH
 70
0
  9
$DIMSE1
 70
0
  9
$DIMSE2
 70
0
  9
$DIMTAD
 70
1
  9
$DIMZIN
 70
8
  9
$DIMBLK
  1

  9
$DIMASO
 70
1
  9
$DIMSHO
 70
1
  9
$DIMPOST
  1

  9
$DIMAPOST
  1

  9
$DIMALT
 70
0
  9
$DIMALTD
 70
3
  9
$DIMALTF
 40
0.03937007874
  9
$DIMLFAC
 40
1.0
  9
$DIMTOFL
 70
1
  9
$DIMTVP
 40
0.0
  9
$DIMTIX
 70
0
  9
$DIMSOXD
 70
0
  9
$DIMSAH
 70
0
  9
$DIMBLK1
  1

  9
$DIMBLK2
  1

  9
$DIMSTYLE
  2
ISO-25
  9
$DIMCLRD
 70
0
  9
$DIMCLRE
 70
0
  9
$DIMCLRT
 70
0
  9
$DIMTFAC
 40
1.0
  9
$DIMGAP
 40
0.625
  9
$DIMJUST
 70
0
  9
$DIMSD1
 70
0
  9
$DIMSD2
 70
0
  9
$DIMTOLJ
 70
0
  9
$DIMTZIN
 70
8
  9
$DIMALTZ
 70
0
  9
$DIMALTTZ
 70
0
  9
$DIMUPT
 70
0
  9
$DIMDEC
 70
2
  9
$DIMTDEC
 70
2
  9
$DIMALTU
 70
2
  9
$DIMALTTD
 70
3
  9
$DIMTXSTY
  7
Standard
  9
$DIMAUNIT
 70
0
  9
$DIMADEC
 70
0
  9
$DIMALTRND
 40
0.0
  9
$DIMAZIN
 70
0
  9
$DIMDSEP
 70
44
  9
$DIMATFIT
 70
3
  9
$DIMFRAC
 70
0
  9
$DIMLDRBLK
  1

  9
$DIMLUNIT
 70
2
  9
$DIMLWD
 70
-2
  9
$DIMLWE
 70
-2
  9
$DIMTMOVE
 70
0
  9
$DIMFXL
 40
1.0
  9
$DIMFXLON
 70
0
  9
$DIMJOGANG
 40
0.785398163397
  9
$DIMTFILL
 70
0
  9
$DIMTFILLCLR
 70
0
  9
$DIMARCSYM
 70
0
  9
$DIMLTYPE
  6

  9
$DIMLTEX1
  6

  9
$DIMLTEX2
  6

  9
$DIMTXTDIRECTION
 70
0
  9
$LUNITS
 70
2
  9
$LUPREC
 70
4
  9
$SKETCHINC
 40
1.0
  9
$FILLETRAD
 40
10.0
  9
$AUNITS
 70
0
  9
$AUPREC
 70
2
  9
$MENU
  1
.
  9
$ELEVATION
 40
0.0
  9
$PELEVATION
 40
0.0
  9
$THICKNESS
 40
0.0
  9
$LIMCHECK
 70
0
  9
$CHAMFERA
 40
0.0
  9
$CHAMFERB
 40
0.0
  9
$CHAMFERC
 40
0.0
  9
$CHAMFERD
 40
0.0
  9
$SKPOLY
 70
0
  9
$TDCREATE
 40
2461133.5668287035
  9
$TDUCREATE
 40
2458532.153996898
  9
$TDUPDATE
 40
2461133.5668287035
  9
$TDUUPDATE
 40
2458532.1544311
  9
$TDINDWG
 40
0.0
  9
$TDUSRTIMER
 40
0.0
  9
$USRTIMER
 70
1
  9
$ANGBASE
 50
0.0
  9
$ANGDIR
 70
0
  9
$PDMODE
 70
0
  9
$PDSIZE
 40
0.0
  9
$PLINEWID
 40
0.0
  9
$SPLFRAME
 70
0
  9
$SPLINETYPE
 70
6
  9
$SPLINESEGS
 70
8
  9
$HANDSEED
  5
53
  9
$SURFTAB1
 70
6
  9
$SURFTAB2
 70
6
  9
$SURFTYPE
 70
6
  9
$SURFU
 70
6
  9
$SURFV
 70
6
  9
$UCSBASE
  2

  9
$UCSNAME
  2

  9
$UCSORG
 10
0.0
 20
0.0
 30
0.0
  9
$UCSXDIR
 10
1.0
 20
0.0
 30
0.0
  9
$UCSYDIR
 10
0.0
 20
1.0
 30
0.0
  9
$UCSORTHOREF
  2

  9
$UCSORTHOVIEW
 70
0
  9
$UCSORGTOP
 10
0.0
 20
0.0
 30
0.0
  9
$UCSORGBOTTOM
 10
0.0
 20
0.0
 30
0.0
  9
$UCSORGLEFT
 10
0.0
 20
0.0
 30
0.0
  9
$UCSORGRIGHT
 10
0.0
 20
0.0
 30
0.0
  9
$UCSORGFRONT
 10
0.0
 20
0.0
 30
0.0
  9
$UCSORGBACK
 10
0.0
 20
0.0
 30
0.0
  9
$PUCSBASE
  2

  9
$PUCSNAME
  2

  9
$PUCSORG
 10
0.0
 20
0.0
 30
0.0
  9
$PUCSXDIR
 10
1.0
 20
0.0
 30
0.0
  9
$PUCSYDIR
 10
0.0
 20
1.0
 30
0.0
  9
$PUCSORTHOREF
  2

  9
$PUCSORTHOVIEW
 70
0
  9
$PUCSORGTOP
 10
0.0
 20
0.0
 30
0.0
  9
$PUCSORGBOTTOM
 10
0.0
 20
0.0
 30
0.0
  9
$PUCSORGLEFT
 10
0.0
 20
0.0
 30
0.0
  9
$PUCSORGRIGHT
 10
0.0
 20
0.0
 30
0.0
  9
$PUCSORGFRONT
 10
0.0
 20
0.0
 30
0.0
  9
$PUCSORGBACK
 10
0.0
 20
0.0
 30
0.0
  9
$USERI1
 70
0
  9
$USERI2
 70
0
  9
$USERI3
 70
0
  9
$USERI4
 70
0
  9
$USERI5
 70
0
  9
$USERR1
 40
0.0
  9
$USERR2
 40
0.0
  9
$USERR3
 40
0.0
  9
$USERR4
 40
0.0
  9
$USERR5
 40
0.0
  9
$WORLDVIEW
 70
1
  9
$SHADEDGE
 70
3
  9
$SHADEDIF
 70
70
  9
$TILEMODE
 70
1
  9
$MAXACTVP
 70
64
  9
$PINSBASE
 10
0.0
 20
0.0
 30
0.0
  9
$PLIMCHECK
 70
0
  9
$PEXTMIN
 10
1e+20
 20
1e+20
 30
1e+20
  9
$PEXTMAX
 10
-1e+20
 20
-1e+20
 30
-1e+20
  9
$PLIMMIN
 10
0.0
 20
0.0
  9
$PLIMMAX
 10
420.0
 20
297.0
  9
$UNITMODE
 70
0
  9
$VISRETAIN
 70
1
  9
$PLINEGEN
 70
0
  9
$PSLTSCALE
 70
1
  9
$TREEDEPTH
 70
3020
  9
$CMLSTYLE
  2
Standard
  9
$CMLJUST
 70
0
  9
$CMLSCALE
 40
20.0
  9
$PROXYGRAPHICS
 70
1
  9
$MEASUREMENT
 70
1
  9
$CELWEIGHT
370
-1
  9
$ENDCAPS
280
0
  9
$JOINSTYLE
280
0
  9
$LWDISPLAY
290
0
  9
$INSUNITS
 70
6
  9
$HYPERLINKBASE
  1

  9
$STYLESHEET
  1

  9
$XEDIT
290
1
  9
$CEPSNTYPE
380
0
  9
$PSTYLEMODE
290
1
  9
$FINGERPRINTGUID
  2
{93A5EAB2-A472-4467-A4D8-28130FA26ED1}
  9
$VERSIONGUID
  2
{3632E813-D9C5-4EDE-ADB4-7C22DE60EC57}
  9
$EXTNAMES
290
1
  9
$PSVPSCALE
 40
0.0
  9
$OLESTARTUP
290
0
  9
$SORTENTS
280
127
  9
$INDEXCTL
280
0
  9
$HIDETEXT
280
1
  9
$XCLIPFRAME
280
1
  9
$HALOGAP
280
0
  9
$OBSCOLOR
 70
257
  9
$OBSLTYPE
280
0
  9
$INTERSECTIONDISPLAY
280
0
  9
$INTERSECTIONCOLOR
 70
257
  9
$DIMASSOC
280
2
  9
$PROJECTNAME
  1

  9
$CAMERADISPLAY
290
0
  9
$LENSLENGTH
 40
50.0
  9
$CAMERAHEIGHT
 40
0.0
  9
$STEPSPERSEC
 40
24.0
  9
$STEPSIZE
 40
100.0
  9
$3DDWFPREC
 40
2.0
  9
$PSOLWIDTH
 40
0.005
  9
$PSOLHEIGHT
 40
0.08
  9
$LOFTANG1
 40
1.570796326795
  9
$LOFTANG2
 40
1.570796326795
  9
$LOFTMAG1
 40
0.0
  9
$LOFTMAG2
 40
0.0
  9
$LOFTPARAM
 70
7
  9
$LOFTNORMALS
280
1
  9
$LATITUDE
 40
37.795
  9
$LONGITUDE
 40
-122.394
  9
$NORTHDIRECTION
 40
0.0
  9
$TIMEZONE
 70
-8000
  9
$LIGHTGLYPHDISPLAY
280
1
  9
$TILEMODELIGHTSYNCH
280
1
  9
$CMATERIAL
347
20
  9
$SOLIDHIST
280
0
  9
$SHOWHIST
280
1
  9
$DWFFRAME
280
2
  9
$DGNFRAME
280
2
  9
$REALWORLDSCALE
290
1
  9
$INTERFERECOLOR
 62
256
  9
$CSHADOW
280
0
  9
$SHADOWPLANELOCATION
 40
0.0
  0
ENDSEC
  0
SECTION
  2
CLASSES
  0
CLASS
  1
ACDBDICTIONARYWDFLT
  2
AcDbDictionaryWithDefault
  3
ObjectDBX Classes
 90
0
 91
0
280
0
281
0
  0
CLASS
  1
SUN
  2
AcDbSun
  3
SCENEOE
 90
1153
 91
0
280
0
281
0
  0
CLASS
  1
VISUALSTYLE
  2
AcDbVisualStyle
  3
ObjectDBX Classes
 90
4095
 91
0
280
0
281
0
  0
CLASS
  1
MATERIAL
  2
AcDbMaterial
  3
ObjectDBX Classes
 90
1153
 91
0
280
0
281
0
  0
CLASS
  1
SCALE
  2
AcDbScale
  3
ObjectDBX Classes
 90
1153
 91
0
280
0
281
0
  0
CLASS
  1
TABLESTYLE
  2
AcDbTableStyle
  3
ObjectDBX Classes
 90
4095
 91
0
280
0
281
0
  0
CLASS
  1
MLEADERSTYLE
  2
AcDbMLeaderStyle
  3
ACDB_MLEADERSTYLE_CLASS
 90
4095
 91
0
280
0
281
0
  0
CLASS
  1
DICTIONARYVAR
  2
AcDbDictionaryVar
  3
ObjectDBX Classes
 90
0
 91
0
280
0
281
0
  0
CLASS
  1
CELLSTYLEMAP
  2
AcDbCellStyleMap
  3
ObjectDBX Classes
 90
1152
 91
0
280
0
281
0
  0
CLASS
  1
MENTALRAYRENDERSETTINGS
  2
AcDbMentalRayRenderSettings
  3
SCENEOE
 90
1024
 91
0
280
0
281
0
  0
CLASS
  1
ACDBDETAILVIEWSTYLE
  2
AcDbDetailViewStyle
  3
ObjectDBX Classes
 90
1025
 91
0
280
0
281
0
  0
CLASS
  1
ACDBSECTIONVIEWSTYLE
  2
AcDbSectionViewStyle
  3
ObjectDBX Classes
 90
1025
 91
0
280
0
281
0
  0
CLASS
  1
RASTERVARIABLES
  2
AcDbRasterVariables
  3
ISM
 90
0
 91
0
280
0
281
0
  0
CLASS
  1
ACDBPLACEHOLDER
  2
AcDbPlaceHolder
  3
ObjectDBX Classes
 90
0
 91
0
280
0
281
0
  0
CLASS
  1
LAYOUT
  2
AcDbLayout
  3
ObjectDBX Classes
 90
0
 91
0
280
0
281
0
  0
ENDSEC
  0
SECTION
  2
TABLES
  0
TABLE
  2
VPORT
  5
8
330
0
100
AcDbSymbolTable
 70
1
  0
VPORT
  5
23
330
8
100
AcDbSymbolTableRecord
100
AcDbViewportTableRecord
  2
*Active
 70
0
 10
0.0
 20
0.0
 11
1.0
 21
1.0
 12
0.0
 22
0.0
 13
0.0
 23
0.0
 14
0.5
 24
0.5
 15
0.5
 25
0.5
 16
0.0
 26
0.0
 36
1.0
 17
0.0
 27
0.0
 37
0.0
 40
1000.0
 41
1.34
 42
50.0
 43
0.0
 44
0.0
 50
0.0
 51
0.0
 71
0
 72
1000
 73
1
 74
3
 75
0
 76
0
 77
0
 78
0
281
0
 65
0
146
0.0
  0
ENDTAB
  0
TABLE
  2
LTYPE
  5
2
330
0
100
AcDbSymbolTable
 70
3
  0
LTYPE
  5
24
330
2
100
AcDbSymbolTableRecord
100
AcDbLinetypeTableRecord
  2
ByBlock
 70
0
  3

 72
65
 73
0
 40
0.0
  0
LTYPE
  5
25
330
2
100
AcDbSymbolTableRecord
100
AcDbLinetypeTableRecord
  2
ByLayer
 70
0
  3

 72
65
 73
0
 40
0.0
  0
LTYPE
  5
26
330
2
100
AcDbSymbolTableRecord
100
AcDbLinetypeTableRecord
  2
Continuous
 70
0
  3

 72
65
 73
0
 40
0.0
  0
ENDTAB
  0
TABLE
  2
LAYER
  5
1
330
0
100
AcDbSymbolTable
 70
3
  0
LAYER
  5
27
330
1
100
AcDbSymbolTableRecord
100
AcDbLayerTableRecord
  2
0
 70
0
 62
7
  6
Continuous
370
-3
390
13
347
21
  0
LAYER
  5
28
330
1
100
AcDbSymbolTableRecord
100
AcDbLayerTableRecord
  2
Defpoints
 70
0
 62
7
  6
Continuous
290
0
370
-3
390
13
347
21
  0
LAYER
  5
2F
330
1
100
AcDbSymbolTableRecord
100
AcDbLayerTableRecord
  2
roads
 70
0
 62
7
  6
Continuous
370
-3
390
13
347
21
  0
ENDTAB
  0
TABLE
  2
STYLE
  5
5
330
0
100
AcDbSymbolTable
 70
1
  0
STYLE
  5
29
330
5
100
AcDbSymbolTableRecord
100
AcDbTextStyleTableRecord
  2
Standard
 70
0
 40
0.0
 41
1.0
 50
0.0
 71
0
 42
2.5
  3
txt
  4

  0
ENDTAB
  0
TABLE
  2
VIEW
  5
7
330
0
100
AcDbSymbolTable
 70
0
  0
ENDTAB
  0
TABLE
  2
UCS
  5
6
330
0
100
AcDbSymbolTable
 70
0
  0
ENDTAB
  0
TABLE
  2
APPID
  5
3
330
0
100
AcDbSymbolTable
 70
3
  0
APPID
  5
2A
330
3
100
AcDbSymbolTableRecord
100
AcDbRegAppTableRecord
  2
ACAD
 70
0
  0
APPID
  5
50
330
3
100
AcDbSymbolTableRecord
100
AcDbRegAppTableRecord
  2
HATCHBACKGROUNDCOLOR
 70
0
  0
APPID
  5
51
330
3
100
AcDbSymbolTableRecord
100
AcDbRegAppTableRecord
  2
EZDXF
 70
0
  0
ENDTAB
  0
TABLE
  2
DIMSTYLE
  5
4
330
0
100
AcDbSymbolTable
 70
1
100
AcDbDimStyleTable
  0
DIMSTYLE
105
2B
330
4
100
AcDbSymbolTableRecord
100
AcDbDimStyleTableRecord
  2
Standard
 70
0
 40
1.0
 41
2.5
 42
0.625
 43
3.75
 44
1.25
 45
0.0
 46
0.0
 47
0.0
 48
0.0
 49
2.5
140
2.5
141
2.5
142
0.0
143
0.03937007874
144
1.0
145
0.0
146
1.0
147
0.625
148
0.0
 69
0
 70
0
 71
0
 72
0
 73
0
 74
0
 75
0
 76
0
 77
1
 78
8
 79
3
170
0
171
3
172
1
173
0
174
0
175
0
176
0
177
0
178
0
179
2
271
2
272
2
273
2
274
3
275
0
276
0
277
2
278
44
279
0
280
0
281
0
282
0
283
0
284
8
285
0
286
0
288
0
289
3
290
0
371
-2
372
-2
  0
ENDTAB
  0
TABLE
  2
BLOCK_RECORD
  5
9
330
0
100
AcDbSymbolTable
 70
2
  0
BLOCK_RECORD
  5
17
330
9
100
AcDbSymbolTableRecord
100
AcDbBlockTableRecord
  2
*Model_Space
340
1A
 70
0
280
1
281
0
  0
BLOCK_RECORD
  5
1B
330
9
100
AcDbSymbolTableRecord
100
AcDbBlockTableRecord
  2
*Paper_Space
340
1E
 70
0
280
1
281
0
  0
ENDTAB
  0
ENDSEC
  0
SECTION
  2
BLOCKS
  0
BLOCK
  5
18
330
17
100
AcDbEntity
  8
0
100
AcDbBlockBegin
  2
*Model_Space
 70
0
 10
0.0
 20
0.0
 30
0.0
  3
*Model_Space
  1

  0
ENDBLK
  5
19
330
17
100
AcDbEntity
  8
0
100
AcDbBlockEnd
  0
BLOCK
  5
1C
330
1B
100
AcDbEntity
  8
0
100
AcDbBlockBegin
  2
*Paper_Space
 70
0
 10
0.0
 20
0.0
 30
0.0
  3
*Paper_Space
  1

  0
ENDBLK
  5
1D
330
1B
100
AcDbEntity
  8
0
100
AcDbBlockEnd
  0
ENDSEC
  0
SECTION
  2
ENTITIES
  0
LWPOLYLINE
  5
30
330
17
100
AcDbEntity
  8
roads
100
AcDbPolyline
 90
311
 70
1
 10
-19.154133385965892
 20
170.34519358930626
 10
-19.065765980924898
 20
171.34093532603606
 10
-11.675485201539205
 20
170.81920114542152
 10
-7.708923364429477
 20
170.95614395407625
 10
-3.770443064926852
 20
171.49555798575008
 10
2.1146693399260483
 20
173.01533760310014
 10
5.122338341370846
 20
173.5383463566197
 10
9.019271830722655
 20
173.91723755418252
 10
15.118523883957712
 20
173.89194355701505
 10
15.26951487115077
 20
174.026826549274
 10
15.277131027134876
 20
177.29127668785796
 10
15.141544389387915
 20
177.4408989941898
 10
-18.1412704097905
 20
177.24680130023233
 10
-18.155505909826203
 20
178.2465336843214
 10
23.940119484777174
 20
178.4500714174512
 10
30.336499596897312
 20
179.0388636688833
 10
37.965489163276814
 20
178.4887904461796
 10
91.01694272265368
 20
178.44481020100233
 10
92.18747733558116
 20
178.13630627363048
 10
92.71065405957602
 20
177.5973118445025
 10
92.93685152259256
 20
176.97828559082342
 10
93.11982255065142
 20
159.9796933303818
 10
97.22379718837826
 20
159.6002882438191
 10
101.44497915053154
 20
159.87814160121417
 10
129.09570970929292
 20
165.1139229607138
 10
128.9117650994167
 20
212.04092230097828
 10
128.50246168573008
 20
214.7640926176831
 10
127.90946165568418
 20
216.5066930019353
 10
127.007047560211
 20
218.31957585055437
 10
126.06052159543412
 20
219.6657918955013
 10
119.0599862025123
 20
227.97611671967366
 10
118.29762780471665
 20
228.4176796235477
 10
117.45402929027843
 20
228.65163650969188
 10
114.98394440443134
 20
228.80928932145807
 10
113.23319248198617
 20
229.58131243583136
 10
79.15415857663305
 20
254.23645196168707
 10
79.72926861091048
 20
255.05432477585916
 10
113.80009287803895
 20
230.4062186740061
 10
115.42670575675766
 20
229.72860445267347
 10
117.96569960188319
 20
229.5675079115533
 10
119.00492331075935
 20
229.19574883891607
 10
119.65693589202009
 20
228.78114449086135
 10
121.15449979667814
 20
227.1869321821508
 10
127.5190128583576
 20
219.3890371863414
 10
128.4208298949412
 20
217.80323543140287
 10
129.17172359710364
 20
215.98889534883102
 10
129.8735137679298
 20
212.71797658117498
 10
129.9969883080907
 20
178.55396728146897
 10
130.10392272573966
 20
178.4102662223928
 10
167.95986280357099
 20
178.48533745348283
 10
182.87531648380366
 20
178.35510162288023
 10
184.36865430852043
 20
178.58642102666474
 10
185.58131691165264
 20
179.1307373863761
 10
186.80366607966226
 20
180.1490578838002
 10
194.23467840174487
 20
187.8302540176713
 10
196.19279412925
 20
189.50433437109928
 10
198.16914571816073
 20
190.86355473712732
 10
203.76677668172715
 20
194.17367138902804
 10
207.6185003707564
 20
197.0911501888364
 10
215.12714695027043
 20
200.56249377887278
 10
216.56727554028768
 20
201.77038955216142
 10
220.0876459007953
 20
205.26832484493008
 10
221.66984109115447
 20
207.2246485709108
 10
226.68909768689073
 20
214.3984922005535
 10
230.55153664420172
 20
221.59387782379613
 10
243.46907907072966
 20
240.13017957858247
 10
247.46410493461195
 20
247.46865611633706
 10
248.4459717012683
 20
248.90916668805158
 10
248.50871050682784
 20
249.42093699961933
 10
249.39193781705978
 20
251.3082173893311
 10
249.97058571527083
 20
252.9814728563468
 10
251.26069486734306
 20
254.83649853497616
 10
251.99796695130843
 20
254.16141314871408
 10
250.88976494837348
 20
252.57854279986267
 10
250.47206178780158
 20
251.36863443962378
 10
250.58705616165525
 20
251.187245174259
 10
252.9326293194876
 20
252.72260599404126
 10
255.5680286030282
 20
253.81874967975597
 10
265.2694265444995
 20
255.74995634970108
 10
267.24016702648026
 20
256.32259844834425
 10
269.8029303670065
 20
257.43708150995343
 10
272.4820663202323
 20
259.1060944307468
 10
273.02961048887795
 20
258.26972980456895
 10
271.09849879294626
 20
257.01006633851665
 10
268.6871363453892
 20
255.7912024671784
 10
265.49538581521824
 20
254.7753295812769
 10
255.86038283400993
 20
252.86196839774024
 10
253.40076998614245
 20
251.83759233313054
 10
250.6828605984048
 20
249.87093333877039
 10
249.55778814726932
 20
248.7053515181319
 10
248.3251381209022
 20
246.9593495439551
 10
244.77460196503637
 20
240.36027508077794
 10
243.51055152632037
 20
238.35789578616007
 10
231.38323015314145
 20
221.03824757589356
 10
227.52309538580138
 20
213.84642870575576
 10
222.47743818593796
 20
206.6346755704959
 10
220.83266905490723
 20
204.6007879873018
 10
217.25446151429168
 20
201.04387358940215
 10
215.69185307763584
 20
199.7357544564972
 10
214.2404262447755
 20
198.94757090006098
 10
208.12631078546877
 20
196.22911575750643
 10
204.33828034507906
 20
193.3516848114318
 10
197.2148233709872
 20
189.02133502110206
 10
194.92536037361307
 20
187.1066614877028
 10
190.73781523730872
 20
182.7715973260647
 10
190.7416856196578
 20
182.56134644657254
 10
196.28790263123307
 20
180.3287019117446
 10
199.22922777924117
 20
179.37552609797422
 10
202.453453338342
 20
178.66162968729375
 10
205.59872139495727
 20
178.30289619968252
 10
219.79972223647357
 20
187.794798441888
 10
222.9748306859475
 20
189.57530533551537
 10
226.76076706561162
 20
191.2188336517182
 10
238.76258891033666
 20
195.42616750690013
 10
243.23865948230215
 20
197.601333013549
 10
246.77698015442826
 20
199.92867160410944
 10
253.8339180097095
 20
205.25335481959632
 10
254.62549691786091
 20
204.17642663556785
 10
246.38047277856649
 20
198.15270168407102
 10
244.10066129500856
 20
196.70400342960633
 10
239.09170593975176
 20
194.25665874457863
 10
226.93391848252773
 20
189.9886962225788
 10
222.8146944396784
 20
188.13116020187292
 10
219.44929359624103
 20
186.1231014015111
 10
208.0065511194207
 20
178.4513205996187
 10
207.95801470004565
 20
178.25598475281626
 10
249.32147985656002
 20
178.31428263981667
 10
252.22510829468268
 20
178.82540352735805
 10
265.0046077119499
 20
183.500778972447
 10
267.75810593140557
 20
184.0929179568435
 10
271.1986534942323
 20
184.4503888740278
 10
341.1211081491914
 20
183.94063541250324
 10
343.69374074210964
 20
183.78945871831422
 10
346.6218361311212
 20
183.1870468221224
 10
346.4024955113186
 20
182.2117519451524
 10
343.55183786121773
 20
182.79907598999702
 10
341.1071193347249
 20
182.9407097320442
 10
273.71134717644617
 20
183.4671945679534
 10
269.98987437980867
 20
183.37574165034925
 10
265.2725556644564
 20
182.5370694334233
 10
252.52323742487286
 20
177.86983559747802
 10
249.39869008738737
 20
177.31631712612608
 10
206.2353314405009
 20
177.2474888575719
 10
200.04745384178008
 20
173.19985949902798
 10
195.61366885171884
 20
171.1039759975512
 10
178.80433757310752
 20
166.51143792059437
 10
173.5156048962332
 20
165.33813904339652
 10
170.18666767268076
 20
165.13581085215696
 10
141.33387523278347
 20
165.4000459726892
 10
136.71941613084695
 20
165.07002499467959
 10
130.19416654769503
 20
163.97303171360284
 10
130.13390360190448
 20
156.25056371449386
 10
129.5723112609613
 20
153.54935986658904
 10
127.91099546377603
 20
149.16498560461037
 10
127.52527480652726
 20
147.48819010828078
 10
127.52572164347218
 20
137.9015664166643
 10
126.2617267769567
 20
129.5980852960954
 10
126.01646291435947
 20
129.12623386052158
 10
125.57393171345029
 20
128.90995055494997
 10
123.57555330390204
 20
128.9418055223471
 10
123.43138786309453
 20
128.80767275804044
 10
123.48357632706598
 20
113.58930704766858
 10
143.14878700016416
 20
113.56582377178414
 10
143.19322414327817
 20
113.10981874378032
 10
143.6492402278033
 20
113.06549520706147
 10
143.61146557984432
 20
101.74735922999092
 10
143.74652016687736
 20
101.59687135572672
 10
207.03727831584877
 20
101.39042055317837
 10
207.08218462754658
 20
100.93474609345085
 10
207.5382478952546
 20
100.88846664060421
 10
207.60488490829584
 20
70.09040766373923
 10
209.27578352210054
 20
67.12021580063052
 10
208.38110936510571
 20
66.67426899063524
 10
207.86089968899603
 20
67.6883672987872
 10
207.60017631487534
 20
67.63927790304051
 10
207.66611228280806
 20
58.315617747798555
 10
211.14173094649297
 20
60.706578087322946
 10
214.18344084642345
 20
62.19081702211822
 10
217.71781206026213
 20
63.278228839996736
 10
221.7660037768036
 20
63.79468766800966
 10
257.42131698394667
 20
62.6933015621917
 10
260.86696147650787
 20
62.280130683297074
 10
267.4275816373663
 20
60.98962907758328
 10
267.1495377709194
 20
59.58416368542535
 10
260.7750240771653
 20
60.9014540728395
 10
257.3405577100692
 20
61.31713408442598
 10
222.9894283252848
 20
62.401239513433865
 10
219.57163518760083
 20
62.14067177131347
 10
216.1560497856511
 20
61.33447414410634
 10
213.4199006655852
 20
60.241435936142615
 10
210.70026685909698
 20
58.69818441293029
 10
207.61552408091117
 20
56.20551325032216
 10
207.55243134878774
 20
49.79146318814059
 10
207.09669598944438
 20
49.77492112311893
 10
207.03100739571656
 20
49.32418282425106
 10
204.9183443870898
 20
49.321590530349766
 10
201.75707217788482
 20
48.97825654941121
 10
199.21838359743194
 20
46.50550135958088
 10
196.19666090277252
 20
44.3669457608268
 10
193.570510739442
 20
43.041139094162666
 10
190.0874376072893
 20
41.83590068087675
 10
187.98588686345755
 20
41.37765937279884
 10
184.77498845600908
 20
41.06224455548452
 10
169.55336898291617
 20
41.15807250056858
 10
166.70957552853332
 20
41.30383761777534
 10
147.97002898253956
 20
43.64472878883934
 10
147.85860615238093
 20
35.57401178260892
 10
147.6536165944842
 20
34.343150208359255
 10
146.84864941696208
 20
32.53939178610973
 10
144.1426943942392
 20
28.97348744789183
 10
143.53163596129266
 20
27.13907712236353
 10
143.0400472434382
 20
-26.64554837589076
 10
142.04379413139816
 20
-26.63362073239744
 10
142.5315834778875
 20
27.185697504266177
 10
142.84866918352677
 20
28.5298390095746
 10
143.26284388426762
 20
29.450328580361013
 10
146.00375299955942
 20
33.07692274569373
 10
146.6900909408258
 20
34.61312266777368
 10
146.88924294286616
 20
37.21678475398747
 10
146.83760534739147
 20
43.79022270522066
 10
143.04016217994754
 20
44.37577091052865
 10
134.55665282466367
 20
46.095255177536416
 10
122.93283767004485
 20
46.887407786595595
 10
119.38289941001086
 20
46.72264960917351
 10
116.34586722750853
 20
45.90365191065347
 10
114.13497782753996
 20
44.877567331214195
 10
105.27966849346393
 20
38.398242919180525
 10
102.55290430392235
 20
36.757433240872125
 10
100.3717081872637
 20
35.92643352559827
 10
98.71785383592172
 20
35.552129952798865
 10
96.19104652315866
 20
35.310653766454784
 10
92.98055654231591
 20
35.28911802921963
 10
93.15056939779666
 20
-1.075614446786737
 10
91.74936723034297
 20
-1.0889610022607092
 10
91.608406828843
 20
29.397988556669013
 10
91.87066080770914
 20
35.280449945744984
 10
79.7532292871135
 20
35.3163056658779
 10
77.6904372561949
 20
35.59047140437359
 10
75.2608006785888
 20
36.215144053308954
 10
72.95653374976838
 20
37.14713201396632
 10
37.79325476634189
 20
53.376500501429256
 10
35.50952690789461
 20
54.88407143410054
 10
33.734336019384685
 20
56.59508461677276
 10
22.816902848693726
 20
71.00162458026865
 10
21.02552986947508
 20
72.51214042105205
 10
19.053249981515858
 20
73.56039437336433
 10
17.102249443989013
 20
74.14054143438294
 10
15.580378942832256
 20
74.3157711029257
 10
2.0390335402030133
 20
74.37431018979522
 10
-3.022505174852647
 20
75.27418378957958
 10
-2.902953483683879
 20
76.26666441794369
 10
-0.30785900141609607
 20
75.81976264100189
 10
-0.09726632978348149
 20
76.64485044224179
 10
3.4392516628574197
 20
76.28386467126681
 10
27.934929527417758
 20
76.44667801071765
 10
28.106248834035412
 20
90.59797607529072
 10
28.05428862301798
 20
91.24893558744833
 10
27.722324523286797
 20
91.94243287396326
 10
28.05773123186074
 20
92.61702864466444
 10
28.247187521566932
 20
94.02065360065546
 10
28.309168261938392
 20
100.55515875676907
 10
9.537056473328022
 20
100.62314710874635
 10
8.575965385515737
 20
100.93034105902422
 10
7.57409742275617
 20
101.56846300482658
 10
5.404104488206277
 20
104.2203942054396
 10
4.347524437909444
 20
104.97410090993432
 10
3.2712869718446305
 20
105.2686834470629
 10
-2.264683753015827
 20
105.25810966562243
 10
-2.2671233929494936
 20
106.25425197119074
 10
3.3188743884382457
 20
106.26816253111994
 10
4.47955809541197
 20
106.00609213354706
 10
5.325190898463159
 20
105.57571975805487
 10
6.120554493019915
 20
104.91909549871788
 10
8.227230989165998
 20
102.32796130469964
 10
8.997119931191024
 20
101.83793888808837
 10
9.97111807877987
 20
101.56454975980171
 10
28.295419870056303
 20
101.62521589190848
 10
28.33959082399057
 20
110.64671510914769
 10
28.041340298545702
 20
111.6895023304375
 10
28.332964943316234
 20
112.8030832925216
 10
28.31861632282685
 20
118.85950757439453
 10
28.023263548854892
 20
119.95368307660125
 10
28.31638830779713
 20
121.1823933653676
 10
28.18435466153737
 20
125.92579721232717
 10
28.03703082089628
 20
126.04543430015826
 10
-3.5405676041143277
 20
125.95788133846942
 10
-3.5211466538961935
 20
126.95734781176
 10
-1.2597210115180317
 20
126.95326094384316
 10
-1.1255622575302633
 20
127.24449172168679
 10
15.326692263261744
 20
127.41017458276865
 10
15.439754361261938
 20
128.2897793304523
 10
15.381570035730338
 20
132.5326891644907
 10
15.182189783746212
 20
133.12801503445388
 10
15.376187566454007
 20
133.64894409039388
 10
15.313592279961236
 20
143.22879003794398
 10
15.131524370199118
 20
143.98886881549896
 10
15.29266460021267
 20
144.64148063392713
 10
15.285047821822264
 20
154.62052581193169
 10
14.652945151940285
 20
156.16042013770448
 10
14.521589664120027
 20
156.87494918614811
 10
15.189247873940415
 20
159.42640096035296
 10
15.27900804449485
 20
160.38538472289463
 10
15.225291416452789
 20
172.63406251997725
 10
10.320504371850785
 20
172.73732076416044
 10
6.706115187047359
 20
172.51859807671443
 10
2.966899333323236
 20
171.95413745820883
 10
-3.510675876733842
 20
170.3047842752172
 10
-8.34913189287997
 20
169.66943797759157
 10
-12.995032793762602
 20
169.64167182222403
 10
-13.121671147784886
 20
169.88282384495284
 10
-19.154133385965892
 20
170.34519358930626
  0
LWPOLYLINE
  5
31
330
17
100
AcDbEntity
  8
roads
100
AcDbPolyline
 90
14
 70
1
 10
143.60988339245068
 20
100.45884012497588
 10
143.86478479681458
 20
76.50345092867799
 10
153.25140461330264
 20
76.3365188798475
 10
165.81355958211037
 20
76.57757255456403
 10
196.3893070800132
 20
76.15378074355682
 10
199.33752403416264
 20
75.68994833343996
 10
202.6493755576073
 20
74.56088116220266
 10
205.02302339762852
 20
73.28516334244618
 10
204.83457857880452
 20
72.75022151560557
 10
206.37739087440838
 20
71.46465828452915
 10
206.59947159927583
 20
71.53108062724503
 10
206.44739116239606
 20
100.37826555446378
 10
143.75951629258896
 20
100.59612693130975
 10
143.60988339245068
 20
100.45884012497588
  0
LWPOLYLINE
  5
32
330
17
100
AcDbEntity
  8
roads
100
AcDbPolyline
 90
34
 70
1
 10
143.7794782228781
 20
75.1417237073465
 10
143.72120681111275
 20
58.16533300176225
 10
143.91991307488792
 20
56.92562663998103
 10
144.73428498534685
 20
55.227337343020814
 10
146.3006398367987
 20
53.65698547391825
 10
147.02895151534298
 20
52.706392434015285
 10
147.79196647023477
 20
50.998788854507
 10
149.8873319330054
 20
50.932709130786414
 10
151.22203497194891
 20
50.64131545489314
 10
155.7124484025463
 20
48.032875017818725
 10
157.22991688176882
 20
47.601235615729806
 10
158.42357143344574
 20
47.644366399456906
 10
159.52592544324122
 20
47.986972049074126
 10
160.39433473093965
 20
48.50938484668401
 10
162.05036948043278
 20
49.869978215943384
 10
163.4592638947962
 20
50.55906371827481
 10
164.87586379120773
 20
50.82561543157727
 10
168.00363254724508
 20
50.876407676345806
 10
168.48607926942913
 20
51.07334892928106
 10
169.08620492799287
 20
50.93378320377874
 10
193.998387293638
 20
50.55479426583909
 10
195.18297625141093
 20
50.34281036170344
 10
196.8967301454868
 20
50.34053039126522
 10
200.73172427387317
 20
50.00557898284457
 10
204.61429976810442
 20
55.00214484406498
 10
206.56817786452763
 20
57.267696069167485
 10
206.583823256953
 20
69.75018135951659
 10
205.03506028476554
 20
71.33477236605717
 10
202.92227455337917
 20
72.7274613721252
 10
200.13004295375146
 20
73.80698043026534
 10
197.04548760992688
 20
74.45269056079341
 10
161.23223891289396
 20
75.33906640893835
 10
143.90119698413145
 20
75.28979756145826
 10
143.7794782228781
 20
75.1417237073465
  0
LWPOLYLINE
  5
33
330
17
100
AcDbEntity
  8
roads
100
AcDbPolyline
 90
7
 70
1
 10
202.82953101788203
 20
50.29519656655664
 10
202.95369998953979
 20
50.053723222129
 10
206.53510743149323
 20
50.404992366579386
 10
206.5136801126422
 20
54.838261940717445
 10
206.3236632376602
 20
54.83870754411882
 10
205.8322320026794
 20
54.249274677397416
 10
202.82953101788203
 20
50.29519656655664
  0
LWPOLYLINE
  5
34
330
17
100
AcDbEntity
  8
roads
100
AcDbPolyline
 90
20
 70
1
 10
130.00600009369793
 20
177.26680548113407
 10
130.15833283111684
 20
165.45704257101184
 10
130.30507304726154
 20
165.3177244598649
 10
136.55441737084777
 20
166.33693416395386
 10
140.93367823278007
 20
166.66545671083276
 10
170.28978437570794
 20
166.34150301581693
 10
173.84804032145408
 20
166.59483530208175
 10
182.68490966979698
 20
168.77214637539043
 10
195.70667835134043
 20
172.43416723493024
 10
199.97668791690614
 20
174.56964583659013
 10
204.00073447093246
 20
177.30219238816295
 10
203.88510885860563
 20
177.45064451268902
 10
199.70421063259187
 20
178.21314673264337
 10
196.97537768350213
 20
179.01054451625154
 10
189.88024831134084
 20
181.8084646598035
 10
186.47439976263902
 20
178.5300033250196
 10
185.13692922420088
 20
177.79295155730964
 10
183.45800315171812
 20
177.390464596846
 10
130.15483328124822
 20
177.40397368224046
 10
130.00600009369793
 20
177.26680548113407
  0
LWPOLYLINE
  5
35
330
17
100
AcDbEntity
  8
roads
100
AcDbPolyline
 90
31
 70
1
 10
147.90733975763268
 20
45.542359469630064
 10
148.0094241701462
 20
45.171946431658824
 10
149.7935774248186
 20
44.90054247186284
 10
168.1065058832532
 20
42.642032748976966
 10
185.73877720536453
 20
42.524160275437666
 10
189.47896719312504
 20
43.13618848511114
 10
192.98435745026984
 20
44.345774336446276
 10
194.39843027501485
 20
45.012518761646646
 10
196.74545404706453
 20
46.45059834043321
 10
199.63336956792662
 20
48.91109227800534
 10
199.51802740066938
 20
49.04847943862026
 10
197.9861593224945
 20
49.25394040926177
 10
195.11699028897777
 20
49.34476511035991
 10
193.95952926689174
 20
49.555383925611046
 10
169.8123536818186
 20
49.92240625101718
 10
168.61484038578075
 20
49.513734828608094
 10
168.02030511322897
 20
49.710348274026934
 10
164.93237251195376
 20
49.678287016391224
 10
163.95441988825775
 20
49.510580335658645
 10
163.04346825670956
 20
49.13282570283442
 10
160.94380073562354
 20
47.48709641120017
 10
159.87600618212724
 20
46.88508363055018
 10
158.7217369043728
 20
46.53017133195152
 10
157.47902445568
 20
46.43652988219516
 10
156.25648254356807
 20
46.61083773861782
 10
155.2495777430492
 20
46.97997048036011
 10
151.0296579736572
 20
49.417190692626406
 10
149.77212720992088
 20
49.69169469326061
 10
148.14207019515234
 20
49.68372818424836
 10
148.00837563226648
 20
49.53758217791686
 10
147.90733975763268
 20
45.542359469630064
  0
LWPOLYLINE
  5
36
330
17
100
AcDbEntity
  8
roads
100
AcDbPolyline
 90
11
 70
1
 10
140.9149330079269
 20
47.20873131666036
 10
139.48980350865986
 20
46.66470238771102
 10
139.58090885826695
 20
46.51377440021006
 10
141.1241182236277
 20
46.18798251446724
 10
146.81144428817248
 20
45.341207039504674
 10
146.9104013288918
 20
47.004708727272096
 10
146.78167341446598
 20
47.31424071847549
 10
146.73478179315669
 20
49.57084086370409
 10
146.20278827905585
 20
49.6462958875585
 10
145.34277602354433
 20
49.43216397802705
 10
140.9149330079269
 20
47.20873131666036
  0
LWPOLYLINE
  5
37
330
17
100
AcDbEntity
  8
roads
100
AcDbPolyline
 90
19
 70
1
 10
118.5643269894716
 20
52.75700883177108
 10
118.1187828000266
 20
49.92037395992369
 10
120.47022565234512
 20
49.39222775072945
 10
133.80306255763102
 20
48.5044282475514
 10
138.94595053402068
 20
47.74867458994893
 10
140.15733589292387
 20
47.96609764556688
 10
144.61695965845328
 20
50.488776158274355
 10
146.38129306555834
 20
50.95610365971527
 10
146.38306564720577
 20
51.21232417520842
 10
145.865718114585
 20
52.19080047637846
 10
144.0032715205776
 20
54.42267641246048
 10
143.21367609078027
 20
55.92507263242786
 10
142.8081458245971
 20
57.2997899274499
 10
142.73560683734996
 20
75.25873763922324
 10
141.14801172236974
 20
75.41948753566955
 10
124.53142943599077
 20
75.61224110807929
 10
119.88841184270264
 20
75.63760600100437
 10
118.6065896800862
 20
75.50599673574841
 10
118.5643269894716
 20
52.75700883177108
  0
LWPOLYLINE
  5
38
330
17
100
AcDbEntity
  8
roads
100
AcDbPolyline
 90
11
 70
1
 10
126.75884895324705
 20
88.37887378524519
 10
126.67018046401884
 20
76.72425000517804
 10
126.77353426498455
 20
76.58169589610367
 10
141.16213817950367
 20
76.41942014827376
 10
142.7663827095343
 20
76.60847015396082
 10
142.71685288290442
 20
87.99740727611353
 10
142.61151493886524
 20
88.14008586490696
 10
131.8299857804955
 20
88.3203700836438
 10
130.4058095360078
 20
88.1324313078602
 10
129.838274063181
 20
88.35504124440392
 10
126.75884895324705
 20
88.37887378524519
  0
LWPOLYLINE
  5
39
330
17
100
AcDbEntity
  8
roads
100
AcDbPolyline
 90
9
 70
1
 10
126.66417770488998
 20
89.53992951482051
 10
126.81250009860912
 20
89.38993889632333
 10
129.80658565605336
 20
89.35622874156861
 10
130.45654357065442
 20
89.50008162028715
 10
131.251500594105
 20
89.29234089009802
 10
142.64432425780112
 20
89.17190033439492
 10
142.58306708343497
 20
100.54074035108108
 10
126.7353069395676
 20
100.63721571531471
 10
126.66417770488998
 20
89.53992951482051
  0
LWPOLYLINE
  5
3A
330
17
100
AcDbEntity
  8
roads
100
AcDbPolyline
 90
6
 70
1
 10
126.73720614314107
 20
112.53862826948837
 10
126.67385672664825
 20
101.79876860738595
 10
126.79370112336763
 20
101.66537291508348
 10
142.5317822955456
 20
101.62382168669389
 10
142.63128475190712
 20
112.48609338786342
 10
126.73720614314107
 20
112.53862826948837
  0
LWPOLYLINE
  5
3B
330
17
100
AcDbEntity
  8
roads
100
AcDbPolyline
 90
50
 70
1
 10
64.56457969605373
 20
132.90686022800548
 10
64.52791739551924
 20
127.52691050804947
 10
64.66285276324898
 20
127.39238280782901
 10
67.1037684403459
 20
127.22143378793305
 10
82.43541125153922
 20
127.22475407533045
 10
84.66068002544444
 20
127.33857102233084
 10
86.85664389138576
 20
127.7232110913165
 10
91.12353667779362
 20
129.28173577156875
 10
90.85935188701062
 20
130.70409178885308
 10
90.85208892347546
 20
131.65016212731092
 10
91.57341502833904
 20
136.36655536424448
 10
92.16717993589904
 20
137.95479802794455
 10
94.36707076503839
 20
141.93236205361245
 10
95.00494829263263
 20
144.04013415345568
 10
95.17290649741554
 20
145.48213184595346
 10
95.23535968451841
 20
151.3190026761296
 10
96.23371687424537
 20
151.26807796444868
 10
96.14246334534357
 20
144.88697986693595
 10
95.50960661481119
 20
142.05146214121737
 10
93.06704434598886
 20
137.51784513136664
 10
92.38670511260744
 20
135.44570122433572
 10
92.23973731717392
 20
134.34583607250468
 10
92.3036962445039
 20
132.88425038571452
 10
92.94773432812156
 20
129.7927865462517
 10
96.9584237775696
 20
130.08609043862953
 10
124.16194872808431
 20
130.13338575571896
 10
126.45069327814541
 20
137.290928856898
 10
126.49676317492518
 20
147.32209970585814
 10
126.84275150999137
 20
149.09474188113745
 10
128.6151538940926
 20
153.8406592984452
 10
129.042873577745
 20
155.67193118150252
 10
129.19038196174765
 20
157.2330764962563
 10
129.1310127449491
 20
163.69490101535314
 10
128.9697006038237
 20
163.77177295859883
 10
113.73428580020605
 20
160.97875938802164
 10
109.71806043035788
 20
160.06693617323896
 10
101.71480697848085
 20
158.63127988432842
 10
97.20420339992282
 20
158.32358757299636
 10
93.10180479244714
 20
158.66026356069963
 10
93.0365730689474
 20
142.43324422312512
 10
92.03692434191397
 20
142.42966273184697
 10
91.93015166546981
 20
151.84401590360025
 10
67.7197963937753
 20
151.81994214549863
 10
67.77416795501152
 20
145.82202395106796
 10
67.53939299784147
 20
143.68252789159283
 10
67.53808938045859
 20
138.7211874504475
 10
67.02742862304441
 20
137.23266082724055
 10
65.23868307573039
 20
135.42485881220207
 10
64.77840612615613
 20
134.64870114695844
 10
64.56457969605373
 20
132.90686022800548
  0
LWPOLYLINE
  5
3C
330
17
100
AcDbEntity
  8
roads
100
AcDbPolyline
 90
9
 70
1
 10
123.43094868577326
 20
112.41986785705679
 10
123.49259818715858
 20
89.53572445367493
 10
125.5563843241191
 20
89.40780942962508
 10
125.67225322433248
 20
90.42681635994747
 10
125.683077064391
 20
103.27810498571952
 10
125.65779218323691
 20
112.40642572316423
 10
125.52248728630795
 20
112.55558332414552
 10
123.56545106722074
 20
112.55461232080125
 10
123.43094868577326
 20
112.41986785705679
  0
LWPOLYLINE
  5
3D
330
17
100
AcDbEntity
  8
roads
100
AcDbPolyline
 90
6
 70
1
 10
118.62884521762739
 20
88.44250232089028
 10
118.61492336683935
 20
76.77266915458817
 10
121.27222960475574
 20
76.60976625884663
 10
125.61444093918661
 20
76.63393479567078
 10
125.63146384771154
 20
88.34633476534994
 10
118.62884521762739
 20
88.44250232089028
  0
LWPOLYLINE
  5
3E
330
17
100
AcDbEntity
  8
roads
100
AcDbPolyline
 90
9
 70
1
 10
122.48553860857682
 20
89.58128162109253
 10
122.43024252086272
 20
112.40570631594947
 10
122.32381375218644
 20
112.54905334070433
 10
121.98705983024414
 20
112.55572235807304
 10
121.83693220292876
 20
112.4055039621009
 10
121.8388506756596
 20
106.54713162639467
 10
121.8537951580244
 20
89.60048959818718
 10
122.00160243093606
 20
89.45063159698623
 10
122.48553860857682
 20
89.58128162109253
  0
LWPOLYLINE
  5
3F
330
17
100
AcDbEntity
  8
roads
100
AcDbPolyline
 90
6
 70
1
 10
121.83611512152594
 20
128.93391005645847
 10
121.85465827998007
 20
120.2074516457759
 10
122.35871131374986
 20
120.16607481065212
 10
122.43171301788799
 20
128.91474747930982
 10
122.29681562965996
 20
129.06543175485388
 10
121.83611512152594
 20
128.93391005645847
  0
LWPOLYLINE
  5
40
330
17
100
AcDbEntity
  8
roads
100
AcDbPolyline
 90
6
 70
1
 10
122.4279263365446
 20
113.69099651910186
 10
122.41535663877076
 20
119.04806347625728
 10
121.92466168631081
 20
119.12948980614378
 10
121.83557264091039
 20
113.70589843670172
 10
121.9707399274724
 20
113.55645913609851
 10
122.4279263365446
 20
113.69099651910186
  0
LWPOLYLINE
  5
41
330
17
100
AcDbEntity
  8
roads
100
AcDbPolyline
 90
24
 70
1
 10
92.99386837785151
 20
100.96710288037757
 10
93.08268599658933
 20
89.26844597275836
 10
120.80973526306357
 20
89.50569894624229
 10
120.83133682721149
 20
119.00115494392715
 10
120.69589805353912
 20
119.13540449651154
 10
118.15480941709829
 20
119.13641496454065
 10
118.15706354200528
 20
120.13255770717723
 10
120.68024044339923
 20
120.13605121021583
 10
120.82296121108685
 20
120.24291588133453
 10
120.79160490954347
 20
129.0327052272772
 10
96.97398414786512
 20
129.0861010267647
 10
93.24564719317344
 20
128.75791361035192
 10
93.37276808484272
 20
127.59188420908329
 10
93.10465783687391
 20
125.06028045558543
 10
93.07891502399319
 20
121.01847881702957
 10
93.83558210442946
 20
120.65442266775806
 10
94.43799028862192
 20
120.11993336323657
 10
114.96612497535918
 20
120.13132547372649
 10
114.96876195400763
 20
119.13500445396922
 10
94.66239826912422
 20
119.08074560566605
 10
94.01352954353595
 20
119.21307594951399
 10
93.29855238595329
 20
119.78444938715057
 10
93.13047889694393
 20
119.7716431413017
 10
92.99386837785151
 20
100.96710288037757
  0
LWPOLYLINE
  5
42
330
17
100
AcDbEntity
  8
roads
100
AcDbPolyline
 90
18
 70
1
 10
92.89825608640618
 20
47.018239865526674
 10
92.95681000307442
 20
36.403569503710195
 10
95.50941270636582
 20
36.3293055672874
 10
97.22600005725296
 20
36.501514879379414
 10
99.59182669475611
 20
37.04589540328481
 10
102.84815061787796
 20
38.49983339901168
 10
104.06585663803575
 20
39.26192156522667
 10
111.91384921218986
 20
45.098257496779404
 10
113.95302356444893
 20
46.34478297820202
 10
116.10678994612333
 20
47.283399920360225
 10
118.57154028828023
 20
47.95867408772863
 10
119.99423571251124
 20
48.16141938892972
 10
120.11248735886711
 20
48.32670429664364
 10
115.0279961445099
 20
49.744840619774756
 10
113.41832751338123
 20
49.950173210207424
 10
93.14476955289943
 20
49.606052803377224
 10
93.02373970340288
 20
49.474036529172125
 10
92.89825608640618
 20
47.018239865526674
  0
LWPOLYLINE
  5
43
330
17
100
AcDbEntity
  8
roads
100
AcDbPolyline
 90
7
 70
1
 10
92.94882791740154
 20
76.99777426092429
 10
93.06801136793086
 20
76.53799237059329
 10
95.88778714799496
 20
76.40911082736885
 10
117.46996329625489
 20
76.66069245779246
 10
117.5617516800153
 20
88.38347318559805
 10
93.08264970511708
 20
88.24567691475615
 10
92.94882791740154
 20
76.99777426092429
  0
LWPOLYLINE
  5
44
330
17
100
AcDbEntity
  8
roads
100
AcDbPolyline
 90
10
 70
1
 10
93.00795428204495
 20
75.24218629855397
 10
92.89199108485715
 20
53.61147737251304
 10
93.11398840327163
 20
50.89596602106108
 10
113.45714238267183
 20
50.949592054957705
 10
115.23686878083745
 20
50.72334113159621
 10
117.04632714930297
 20
50.27019989465124
 10
117.55762063042935
 20
52.3442946140998
 10
117.53631064642425
 20
75.58255579786072
 10
95.8536252191629
 20
75.40889553125747
 10
93.00795428204495
 20
75.24218629855397
  0
LWPOLYLINE
  5
45
330
17
100
AcDbEntity
  8
roads
100
AcDbPolyline
 90
18
 70
1
 10
64.52827919190379
 20
125.97310813954158
 10
64.69364817152946
 20
118.83234228225152
 10
64.99855651861154
 20
118.10556728335932
 10
67.42004181679933
 20
114.4310883982335
 10
67.70151121219453
 20
113.67785327707536
 10
67.7240758005209
 20
101.74970886108086
 10
89.68154488674816
 20
101.75343042488872
 10
90.98719274750859
 20
101.50950524025986
 10
91.9617085128046
 20
101.51848274769232
 10
92.10420527128873
 20
125.0532743925666
 10
91.85050065018719
 20
126.90735933116152
 10
91.4813225195161
 20
128.25345588341642
 10
87.42642827912385
 20
126.8376726406199
 10
84.29007914634428
 20
126.29736910851896
 10
66.13350381289807
 20
126.27002834485114
 10
65.81363839626765
 20
126.13034521809728
 10
64.64954359366752
 20
126.13373051280139
 10
64.52827919190379
 20
125.97310813954158
  0
LWPOLYLINE
  5
46
330
17
100
AcDbEntity
  8
roads
100
AcDbPolyline
 90
13
 70
1
 10
67.54299969226787
 20
165.99231049827048
 10
67.75413263835404
 20
164.93064707308486
 10
67.56729870117513
 20
164.3552552234091
 10
67.58883631882273
 20
160.04178467393916
 10
67.77703459278646
 20
159.41509558102197
 10
67.59526864642973
 20
158.7372052527989
 10
67.69465302859577
 20
152.8562845231243
 10
91.99709627597905
 20
152.93483419476675
 10
91.94752121930196
 20
158.88802065168036
 10
88.17530651602497
 20
159.9414126827287
 10
67.63817237749605
 20
167.83443524375494
 10
67.47631805908782
 20
167.69935871087668
 10
67.54299969226787
 20
165.99231049827048
  0
LWPOLYLINE
  5
47
330
17
100
AcDbEntity
  8
roads
100
AcDbPolyline
 90
12
 70
1
 10
67.44361254724329
 20
177.30138694616815
 10
67.5285579369182
 20
169.1455922823063
 10
88.0318131592043
 20
161.34128892758926
 10
90.63528937235088
 20
160.51627966787052
 10
91.85582727010056
 20
160.2223508935003
 10
92.00690187349346
 20
160.29989082417882
 10
91.94735744334893
 20
176.68843370855188
 10
91.88400621858801
 20
177.03144578150562
 10
91.58314273485695
 20
177.33243328679572
 10
90.97674450556784
 20
177.44477386026927
 10
67.57888082730778
 20
177.45111927905012
 10
67.44361254724329
 20
177.30138694616815
  0
LWPOLYLINE
  5
48
330
17
100
AcDbEntity
  8
roads
100
AcDbPolyline
 90
10
 70
1
 10
67.08287750316285
 20
77.81098737689264
 10
66.98121095693072
 20
76.5787615289011
 10
67.11711777324265
 20
76.42884906194965
 10
91.90319193586842
 20
76.58171729338453
 10
91.948333241042
 20
100.41980757466382
 10
89.49150150274295
 20
100.54476993541783
 10
67.70307721520425
 20
100.47091660606264
 10
67.56850028146589
 20
80.16318811260858
 10
67.32519060451921
 20
78.35927939781207
 10
67.08287750316285
 20
77.81098737689264
  0
LWPOLYLINE
  5
49
330
17
100
AcDbEntity
  8
roads
100
AcDbPolyline
 90
26
 70
1
 10
29.107121932943517
 20
75.17334432629586
 10
28.95779737358382
 20
75.02955145875244
 10
28.942785095225023
 20
66.17394668973812
 10
29.773087300162274
 20
64.81093344813053
 10
29.769291640639597
 20
64.31417570384106
 10
29.545942727749818
 20
63.812155792851854
 10
34.49676359342915
 20
57.243115257733784
 10
36.140251618103356
 20
55.66067407918821
 10
37.703569613040806
 20
54.57826909260333
 10
73.36927505683582
 20
38.05800253163006
 10
75.56658754709353
 20
37.16750206557394
 10
77.87067898095378
 20
36.574366276381134
 10
80.28703007553585
 20
36.28900703444319
 10
91.91351600098076
 20
36.38037572775084
 10
91.89829566229727
 20
47.00838140652113
 10
91.69427504902119
 20
49.58427427862201
 10
89.63034143124827
 20
49.7371286729397
 10
69.8071868720893
 20
49.70224304225376
 10
68.32695202452915
 20
50.02960068038599
 10
67.69292363299851
 20
50.4179080885378
 10
67.0290894679136
 20
51.10341875765451
 10
66.47451643354175
 20
51.99658626445165
 10
66.30217552375225
 20
52.986489775799406
 10
66.4402566506336
 20
72.78182265521372
 10
65.91453330434071
 20
75.18461652171175
 10
29.107121932943517
 20
75.17334432629586
  0
LWPOLYLINE
  5
4A
330
17
100
AcDbEntity
  8
roads
100
AcDbPolyline
 90
14
 70
1
 10
67.13236832190765
 20
75.21361507112283
 10
66.98324725138288
 20
75.05293442172851
 10
67.427798806279
 20
73.10267148022777
 10
67.51082623697539
 20
69.74950945740926
 10
67.4690856691211
 20
52.94517077061314
 10
67.58007008176176
 20
52.15669656111305
 10
68.10193739492463
 20
51.38828159491575
 10
68.93670274040174
 20
50.84981358974419
 10
69.84269615657168
 20
50.70232710910847
 10
89.64991180381371
 20
50.73717384856353
 10
91.71462233184856
 20
50.919028388247035
 10
91.8919852338243
 20
53.60726067575853
 10
91.89836973081012
 20
75.23326076611431
 10
67.13236832190765
 20
75.21361507112283
  0
LWPOLYLINE
  5
4B
330
17
100
AcDbEntity
  8
roads
100
AcDbPolyline
 90
33
 70
1
 10
16.23827407036646
 20
159.73745033683485
 10
15.523138839323348
 20
156.90419723285075
 10
16.19751038610663
 20
155.27797189103507
 10
16.283686376472737
 20
154.6855230820926
 10
16.413230014654353
 20
144.63117724542644
 10
16.58837229110605
 20
143.94691690932473
 10
16.417772528582862
 20
143.24307572553738
 10
16.48452347741671
 20
133.65740348625846
 10
16.683902442770243
 20
133.03144105846192
 10
16.49622489157437
 20
132.5550129958451
 10
16.407277140246524
 20
127.34037280148198
 10
56.245872872918895
 20
127.22122621882448
 10
62.56022585596676
 20
127.25505551363155
 10
63.50190786656202
 20
127.45718820050449
 10
63.5125027262554
 20
134.58868861354247
 10
64.04535053108835
 20
135.8660153864053
 10
66.0358475508824
 20
137.92985289688718
 10
66.34238923667428
 20
138.9192104654576
 10
66.34002117951037
 20
143.74982444784115
 10
66.57723506025422
 20
146.85377559407266
 10
66.42987765956612
 20
158.74340652109893
 10
66.24620799380824
 20
159.36439621775682
 10
66.4241441358645
 20
159.91783867088913
 10
66.4045101546766
 20
164.24672785706363
 10
66.21324004781022
 20
164.91708283311584
 10
66.47751789488326
 20
166.19074734628205
 10
66.39296470148443
 20
168.31188619378952
 10
59.52554365841415
 20
170.7897214814648
 10
55.97611305390205
 20
171.60533915720984
 10
52.8356009401244
 20
172.0197711737287
 10
16.390731694815464
 20
172.66089406671352
 10
16.26843309141613
 20
172.51386116009766
 10
16.23827407036646
 20
159.73745033683485
  0
LWPOLYLINE
  5
4C
330
17
100
AcDbEntity
  8
roads
100
AcDbPolyline
 90
20
 70
1
 10
29.46478653621782
 20
125.90572052769569
 10
29.317277812801272
 20
121.14838269358523
 10
29.601628155579554
 20
119.97650010772621
 10
29.31861232645876
 20
118.86239283103176
 10
29.332974460986495
 20
112.80043615605541
 10
29.626382870543335
 20
111.6701227002674
 10
29.339569013859684
 20
110.66663971550433
 10
29.441200496775984
 20
101.71216661828294
 10
47.638535544585736
 20
101.58697678891808
 10
66.45274753377021
 20
101.68396222017786
 10
66.564239215487
 20
113.40524878483662
 10
66.41427385302329
 20
113.852385127256
 10
63.92457367719947
 20
117.64120005919222
 10
63.5605988165779
 20
118.56187290990658
 10
63.44818929132532
 20
119.39557634674824
 10
63.44926271043703
 20
126.12710055124724
 10
62.58013102993629
 20
126.25518338226387
 10
36.48171104528612
 20
126.20537323228669
 10
29.59914592262052
 20
126.04076908195954
 10
29.46478653621782
 20
125.90572052769569
  0
LWPOLYLINE
  5
4D
330
17
100
AcDbEntity
  8
roads
100
AcDbPolyline
 90
15
 70
1
 10
16.40389069022226
 20
173.87762714482946
 10
51.6915690611151
 20
173.31309319692116
 10
56.0651492220035
 20
172.82009691934798
 10
61.34261224915608
 20
171.50304354533478
 10
66.3367888603605
 20
169.63441337762467
 10
66.45622974603135
 20
169.78144322924635
 10
66.44064405375751
 20
177.33116026937336
 10
66.29352587043161
 20
177.45149431831027
 10
37.941670201912345
 20
177.48888910315807
 10
30.321511728509936
 20
178.03819868555308
 10
24.97148502813428
 20
177.48982623940105
 10
16.427005044868274
 20
177.44361055362685
 10
16.27788932735374
 20
177.3086000181938
 10
16.270248688803125
 20
174.02704892994907
 10
16.40389069022226
 20
173.87762714482946
  0
LWPOLYLINE
  5
4E
330
17
100
AcDbEntity
  8
roads
100
AcDbPolyline
 90
7
 70
1
 10
29.350855553013023
 20
100.35074373583528
 10
29.0533670066704
 20
76.40245799311764
 10
65.96958459477325
 20
76.51650340531505
 10
66.34112019378269
 20
80.20231179425224
 10
66.35962867252067
 20
100.5935580952723
 10
29.457918709002954
 20
100.49214112483054
 10
29.350855553013023
 20
100.35074373583528
  0
LWPOLYLINE
  5
4F
330
17
100
AcDbEntity
  8
roads
100
AcDbPolyline
 90
11
 70
1
 10
18.50505900835256
 20
75.11982894437351
 10
18.36258249551467
 20
75.01409407104721
 10
18.42062380358092
 20
74.84643183109516
 10
20.706952009237085
 20
73.88346033051185
 10
21.93222280550594
 20
73.09969298123407
 10
23.219462487860998
 20
72.01576042081652
 10
24.380929369266568
 20
70.69741203215463
 10
27.67157665271777
 20
66.29455354362338
 10
27.89517125025268
 20
66.2783799962185
 10
27.90869516085968
 20
75.131347620915
 10
18.50505900835256
 20
75.11982894437351
  0
ENDSEC
  0
SECTION
  2
OBJECTS
  0
DICTIONARY
  5
A
330
0
100
AcDbDictionary
281
1
  3
ACAD_COLOR
350
B
  3
ACAD_GROUP
350
C
  3
ACAD_LAYOUT
350
D
  3
ACAD_MATERIAL
350
E
  3
ACAD_MLEADERSTYLE
350
F
  3
ACAD_MLINESTYLE
350
10
  3
ACAD_PLOTSETTINGS
350
11
  3
ACAD_PLOTSTYLENAME
350
12
  3
ACAD_SCALELIST
350
14
  3
ACAD_TABLESTYLE
350
15
  3
ACAD_VISUALSTYLE
350
16
  3
EZDXF_META
350
2D
  0
DICTIONARY
  5
B
330
A
100
AcDbDictionary
281
1
  0
DICTIONARY
  5
C
330
A
100
AcDbDictionary
281
1
  0
DICTIONARY
  5
D
330
A
100
AcDbDictionary
281
1
  3
Model
350
1A
  3
Layout1
350
1E
  0
DICTIONARY
  5
E
330
A
100
AcDbDictionary
281
1
  3
ByBlock
350
1F
  3
ByLayer
350
20
  3
Global
350
21
  0
DICTIONARY
  5
F
330
A
100
AcDbDictionary
281
1
  3
Standard
350
2C
  0
DICTIONARY
  5
10
330
A
100
AcDbDictionary
281
1
  3
Standard
350
22
  0
DICTIONARY
  5
11
330
A
100
AcDbDictionary
281
1
  0
ACDBDICTIONARYWDFLT
  5
12
330
A
100
AcDbDictionary
281
1
  3
Normal
350
13
100
AcDbDictionaryWithDefault
340
13
  0
ACDBPLACEHOLDER
  5
13
330
12
  0
DICTIONARY
  5
14
330
A
100
AcDbDictionary
281
1
  0
DICTIONARY
  5
15
330
A
100
AcDbDictionary
281
1
  0
DICTIONARY
  5
16
330
A
100
AcDbDictionary
281
1
  0
LAYOUT
  5
1A
330
D
100
AcDbPlotSettings
  1

  4
A3
  6

 40
7.5
 41
20.0
 42
7.5
 43
20.0
 44
420.0
 45
297.0
 46
0.0
 47
0.0
 48
0.0
 49
0.0
140
0.0
141
0.0
142
1.0
143
1.0
 70
1024
 72
1
 73
0
 74
5
  7

 75
16
 76
0
 77
2
 78
300
147
1.0
148
0.0
149
0.0
100
AcDbLayout
  1
Model
 70
1
 71
0
 10
0.0
 20
0.0
 11
420.0
 21
297.0
 12
0.0
 22
0.0
 32
0.0
 14
1e+20
 24
1e+20
 34
1e+20
 15
-1e+20
 25
-1e+20
 35
-1e+20
146
0.0
 13
0.0
 23
0.0
 33
0.0
 16
1.0
 26
0.0
 36
0.0
 17
0.0
 27
1.0
 37
0.0
 76
1
330
17
  0
LAYOUT
  5
1E
330
D
100
AcDbPlotSettings
  1

  4
A3
  6

 40
7.5
 41
20.0
 42
7.5
 43
20.0
 44
420.0
 45
297.0
 46
0.0
 47
0.0
 48
0.0
 49
0.0
140
0.0
141
0.0
142
1.0
143
1.0
 70
0
 72
1
 73
0
 74
5
  7

 75
16
 76
0
 77
2
 78
300
147
1.0
148
0.0
149
0.0
100
AcDbLayout
  1
Layout1
 70
1
 71
1
 10
0.0
 20
0.0
 11
420.0
 21
297.0
 12
0.0
 22
0.0
 32
0.0
 14
1e+20
 24
1e+20
 34
1e+20
 15
-1e+20
 25
-1e+20
 35
-1e+20
146
0.0
 13
0.0
 23
0.0
 33
0.0
 16
1.0
 26
0.0
 36
0.0
 17
0.0
 27
1.0
 37
0.0
 76
1
330
1B
  0
MATERIAL
  5
1F
102
{ACAD_REACTORS
330
E
102
}
330
E
100
AcDbMaterial
  1
ByBlock
  2

 70
0
 40
1.0
 71
1
 41
1.0
 91
-1023410177
 42
1.0
 72
1
  3

 73
1
 74
1
 75
1
 44
0.5
 73
0
 45
1.0
 46
1.0
 77
1
  4

 78
1
 79
1
170
1
 48
1.0
171
1
  6

172
1
173
1
174
1
140
1.0
141
1.0
175
1
  7

176
1
177
1
178
1
143
1.0
179
1
  8

270
1
271
1
272
1
145
1.0
146
1.0
273
1
  9

274
1
275
1
276
1
 42
1.0
 72
1
  3

 73
1
 74
1
 75
1
 94
63
  0
MATERIAL
  5
20
102
{ACAD_REACTORS
330
E
102
}
330
E
100
AcDbMaterial
  1
ByLayer
  2

 70
0
 40
1.0
 71
1
 41
1.0
 91
-1023410177
 42
1.0
 72
1
  3

 73
1
 74
1
 75
1
 44
0.5
 73
0
 45
1.0
 46
1.0
 77
1
  4

 78
1
 79
1
170
1
 48
1.0
171
1
  6

172
1
173
1
174
1
140
1.0
141
1.0
175
1
  7

176
1
177
1
178
1
143
1.0
179
1
  8

270
1
271
1
272
1
145
1.0
146
1.0
273
1
  9

274
1
275
1
276
1
 42
1.0
 72
1
  3

 73
1
 74
1
 75
1
 94
63
  0
MATERIAL
  5
21
102
{ACAD_REACTORS
330
E
102
}
330
E
100
AcDbMaterial
  1
Global
  2

 70
0
 40
1.0
 71
1
 41
1.0
 91
-1023410177
 42
1.0
 72
1
  3

 73
1
 74
1
 75
1
 44
0.5
 73
0
 45
1.0
 46
1.0
 77
1
  4

 78
1
 79
1
170
1
 48
1.0
171
1
  6

172
1
173
1
174
1
140
1.0
141
1.0
175
1
  7

176
1
177
1
178
1
143
1.0
179
1
  8

270
1
271
1
272
1
145
1.0
146
1.0
273
1
  9

274
1
275
1
276
1
 42
1.0
 72
1
  3

 73
1
 74
1
 75
1
 94
63
  0
MLINESTYLE
  5
22
102
{ACAD_REACTORS
330
10
102
}
330
10
100
AcDbMlineStyle
  2
Standard
 70
0
  3

 62
256
 51
90.0
 52
90.0
 71
2
 49
0.5
 62
256
  6
BYLAYER
 49
-0.5
 62
256
  6
BYLAYER
  0
MLEADERSTYLE
  5
2C
102
{ACAD_REACTORS
330
F
102
}
330
F
100
AcDbMLeaderStyle
179
2
170
2
171
1
172
0
 90
2
 40
0.0
 41
0.0
173
1
 91
-1056964608
 92
-2
290
1
 42
2.0
291
1
 43
8.0
  3
Standard
 44
4.0
300

342
29
174
1
175
1
176
0
178
1
 93
-1056964608
 45
4.0
292
0
297
0
 46
4.0
 94
-1056964608
 47
1.0
 49
1.0
140
1.0
294
1
141
0.0
177
0
142
1.0
295
0
296
0
143
3.75
271
0
272
9
273
9
  0
DICTIONARY
  5
2D
330
A
100
AcDbDictionary
280
1
281
1
  3
CREATED_BY_EZDXF
350
2E
  3
WRITTEN_BY_EZDXF
350
52
  0
DICTIONARYVAR
  5
2E
330
2D
100
DictionaryVariables
280
0
  1
1.4.3 @ 2026-04-02T18:36:14.768337+00:00
  0
DICTIONARYVAR
  5
52
330
2D
100
DictionaryVariables
280
0
  1
1.4.3 @ 2026-04-02T18:36:14.771363+00:00
  0
ENDSEC
  0
EOF
