  0
SECTION
  2
HEADER
  9
$ACADVER
  1
AC1024
  9
$ACADMAINTVER
 70
6
  9
$DWGCODEPAGE
  3
ANSI_1252
  9
$LASTSAVEDBY
  1
ezdxf
  9
$INSBASE
 10
0.0
 20
0.0
 30
0.0
  9
$EXTMIN
 10
1e+20
 20
1e+20
 30
1e+20
  9
$EXTMAX
 10
-1e+20
 20
-1e+20
 30
-1e+20
  9
$LIMMIN
 10
0.0
 20
0.0
  9
$LIMMAX
 10
420.0
 20
297.0
  9
$ORTHOMODE
 70
0
  9
$REGENMODE
 70
1
  9
$FILLMODE
 70
1
  9
$QTEXTMODE
 70
0
  9
$MIRRTEXT
 70
1
  9
$LTSCALE
 40
1.0
  9
$ATTMODE
 70
1
  9
$TEXTSIZE
 40
2.5
  9
$TRACEWID
 40
1.0
  9
$TEXTSTYLE
  7
Standard
  9
$CLAYER
  8
0
  9
$CELTYPE
  6
ByLayer
  9
$CECOLOR
 62
256
  9
$CELTSCALE
 40
1.0
  9
$DISPSILH
 70
0
  9
$DIMSCALE
 40
1.0
  9
$DIMASZ
 40
2.5
  9
$DIMEXO
 40
0.625
  9
$DIMDLI
 40
3.75
  9
$DIMRND
 40
0.0
  9
$DIMDLE
 40
0.0
  9
$DIMEXE
 40
1.25
  9
$DIMTP
 40
0.0
  9
$DIMTM
 40
0.0
  9
$DIMTXT
 40
2.5
  9
$DIMCEN
 40
2.5
  9
$DIMTSZ
 40
0.0
  9
$DIMTOL
 70
0
  9
$DIMLIM
 70
0
  9
$DIMTIH
 70
0
  9
$DIMTOH
 70
0
  9
$DIMSE1
 70
0
  9
$DIMSE2
 70
0
  9
$DIMTAD
 70
1
  9
$DIMZIN
 70
8
  9
$DIMBLK
  1

  9
$DIMASO
 70
1
  9
$DIMSHO
 70
1
  9
$DIMPOST
  1

  9
$DIMAPOST
  1

  9
$DIMALT
 70
0
  9
$DIMALTD
 70
3
  9
$DIMALTF
 40
0.03937007874
  9
$DIMLFAC
 40
1.0
  9
$DIMTOFL
 70
1
  9
$DIMTVP
 40
0.0
  9
$DIMTIX
 70
0
  9
$DIMSOXD
 70
0
  9
$DIMSAH
 70
0
  9
$DIMBLK1
  1

  9
$DIMBLK2
  1

  9
$DIMSTYLE
  2
ISO-25
  9
$DIMCLRD
 70
0
  9
$DIMCLRE
 70
0
  9
$DIMCLRT
 70
0
  9
$DIMTFAC
 40
1.0
  9
$DIMGAP
 40
0.625
  9
$DIMJUST
 70
0
  9
$DIMSD1
 70
0
  9
$DIMSD2
 70
0
  9
$DIMTOLJ
 70
0
  9
$DIMTZIN
 70
8
  9
$DIMALTZ
 70
0
  9
$DIMALTTZ
 70
0
  9
$DIMUPT
 70
0
  9
$DIMDEC
 70
2
  9
$DIMTDEC
 70
2
  9
$DIMALTU
 70
2
  9
$DIMALTTD
 70
3
  9
$DIMTXSTY
  7
Standard
  9
$DIMAUNIT
 70
0
  9
$DIMADEC
 70
0
  9
$DIMALTRND
 40
0.0
  9
$DIMAZIN
 70
0
  9
$DIMDSEP
 70
44
  9
$DIMATFIT
 70
3
  9
$DIMFRAC
 70
0
  9
$DIMLDRBLK
  1

  9
$DIMLUNIT
 70
2
  9
$DIMLWD
 70
-2
  9
$DIMLWE
 70
-2
  9
$DIMTMOVE
 70
0
  9
$DIMFXL
 40
1.0
  9
$DIMFXLON
 70
0
  9
$DIMJOGANG
 40
0.785398163397
  9
$DIMTFILL
 70
0
  9
$DIMTFILLCLR
 70
0
  9
$DIMARCSYM
 70
0
  9
$DIMLTYPE
  6

  9
$DIMLTEX1
  6

  9
$DIMLTEX2
  6

  9
$DIMTXTDIRECTION
 70
0
  9
$LUNITS
 70
2
  9
$LUPREC
 70
4
  9
$SKETCHINC
 40
1.0
  9
$FILLETRAD
 40
10.0
  9
$AUNITS
 70
0
  9
$AUPREC
 70
2
  9
$MENU
  1
.
  9
$ELEVATION
 40
0.0
  9
$PELEVATION
 40
0.0
  9
$THICKNESS
 40
0.0
  9
$LIMCHECK
 70
0
  9
$CHAMFERA
 40
0.0
  9
$CHAMFERB
 40
0.0
  9
$CHAMFERC
 40
0.0
  9
$CHAMFERD
 40
0.0
  9
$SKPOLY
 70
0
  9
$TDCREATE
 40
2461137.4355439814
  9
$TDUCREATE
 40
2458532.153996898
  9
$TDUPDATE
 40
2461137.4355439814
  9
$TDUUPDATE
 40
2458532.1544311
  9
$TDINDWG
 40
0.0
  9
$TDUSRTIMER
 40
0.0
  9
$USRTIMER
 70
1
  9
$ANGBASE
 50
0.0
  9
$ANGDIR
 70
0
  9
$PDMODE
 70
0
  9
$PDSIZE
 40
0.0
  9
$PLINEWID
 40
0.0
  9
$SPLFRAME
 70
0
  9
$SPLINETYPE
 70
6
  9
$SPLINESEGS
 70
8
  9
$HANDSEED
  5
53
  9
$SURFTAB1
 70
6
  9
$SURFTAB2
 70
6
  9
$SURFTYPE
 70
6
  9
$SURFU
 70
6
  9
$SURFV
 70
6
  9
$UCSBASE
  2

  9
$UCSNAME
  2

  9
$UCSORG
 10
0.0
 20
0.0
 30
0.0
  9
$UCSXDIR
 10
1.0
 20
0.0
 30
0.0
  9
$UCSYDIR
 10
0.0
 20
1.0
 30
0.0
  9
$UCSORTHOREF
  2

  9
$UCSORTHOVIEW
 70
0
  9
$UCSORGTOP
 10
0.0
 20
0.0
 30
0.0
  9
$UCSORGBOTTOM
 10
0.0
 20
0.0
 30
0.0
  9
$UCSORGLEFT
 10
0.0
 20
0.0
 30
0.0
  9
$UCSORGRIGHT
 10
0.0
 20
0.0
 30
0.0
  9
$UCSORGFRONT
 10
0.0
 20
0.0
 30
0.0
  9
$UCSORGBACK
 10
0.0
 20
0.0
 30
0.0
  9
$PUCSBASE
  2

  9
$PUCSNAME
  2

  9
$PUCSORG
 10
0.0
 20
0.0
 30
0.0
  9
$PUCSXDIR
 10
1.0
 20
0.0
 30
0.0
  9
$PUCSYDIR
 10
0.0
 20
1.0
 30
0.0
  9
$PUCSORTHOREF
  2

  9
$PUCSORTHOVIEW
 70
0
  9
$PUCSORGTOP
 10
0.0
 20
0.0
 30
0.0
  9
$PUCSORGBOTTOM
 10
0.0
 20
0.0
 30
0.0
  9
$PUCSORGLEFT
 10
0.0
 20
0.0
 30
0.0
  9
$PUCSORGRIGHT
 10
0.0
 20
0.0
 30
0.0
  9
$PUCSORGFRONT
 10
0.0
 20
0.0
 30
0.0
  9
$PUCSORGBACK
 10
0.0
 20
0.0
 30
0.0
  9
$USERI1
 70
0
  9
$USERI2
 70
0
  9
$USERI3
 70
0
  9
$USERI4
 70
0
  9
$USERI5
 70
0
  9
$USERR1
 40
0.0
  9
$USERR2
 40
0.0
  9
$USERR3
 40
0.0
  9
$USERR4
 40
0.0
  9
$USERR5
 40
0.0
  9
$WORLDVIEW
 70
1
  9
$SHADEDGE
 70
3
  9
$SHADEDIF
 70
70
  9
$TILEMODE
 70
1
  9
$MAXACTVP
 70
64
  9
$PINSBASE
 10
0.0
 20
0.0
 30
0.0
  9
$PLIMCHECK
 70
0
  9
$PEXTMIN
 10
1e+20
 20
1e+20
 30
1e+20
  9
$PEXTMAX
 10
-1e+20
 20
-1e+20
 30
-1e+20
  9
$PLIMMIN
 10
0.0
 20
0.0
  9
$PLIMMAX
 10
420.0
 20
297.0
  9
$UNITMODE
 70
0
  9
$VISRETAIN
 70
1
  9
$PLINEGEN
 70
0
  9
$PSLTSCALE
 70
1
  9
$TREEDEPTH
 70
3020
  9
$CMLSTYLE
  2
Standard
  9
$CMLJUST
 70
0
  9
$CMLSCALE
 40
20.0
  9
$PROXYGRAPHICS
 70
1
  9
$MEASUREMENT
 70
1
  9
$CELWEIGHT
370
-1
  9
$ENDCAPS
280
0
  9
$JOINSTYLE
280
0
  9
$LWDISPLAY
290
0
  9
$INSUNITS
 70
6
  9
$HYPERLINKBASE
  1

  9
$STYLESHEET
  1

  9
$XEDIT
290
1
  9
$CEPSNTYPE
380
0
  9
$PSTYLEMODE
290
1
  9
$FINGERPRINTGUID
  2
{983BB98A-6C8A-49BA-84BF-9FE410D73F4A}
  9
$VERSIONGUID
  2
{4E5C4D38-3C27-4E86-8591-0A18B288D9D5}
  9
$EXTNAMES
290
1
  9
$PSVPSCALE
 40
0.0
  9
$OLESTARTUP
290
0
  9
$SORTENTS
280
127
  9
$INDEXCTL
280
0
  9
$HIDETEXT
280
1
  9
$XCLIPFRAME
280
1
  9
$HALOGAP
280
0
  9
$OBSCOLOR
 70
257
  9
$OBSLTYPE
280
0
  9
$INTERSECTIONDISPLAY
280
0
  9
$INTERSECTIONCOLOR
 70
257
  9
$DIMASSOC
280
2
  9
$PROJECTNAME
  1

  9
$CAMERADISPLAY
290
0
  9
$LENSLENGTH
 40
50.0
  9
$CAMERAHEIGHT
 40
0.0
  9
$STEPSPERSEC
 40
24.0
  9
$STEPSIZE
 40
100.0
  9
$3DDWFPREC
 40
2.0
  9
$PSOLWIDTH
 40
0.005
  9
$PSOLHEIGHT
 40
0.08
  9
$LOFTANG1
 40
1.570796326795
  9
$LOFTANG2
 40
1.570796326795
  9
$LOFTMAG1
 40
0.0
  9
$LOFTMAG2
 40
0.0
  9
$LOFTPARAM
 70
7
  9
$LOFTNORMALS
280
1
  9
$LATITUDE
 40
37.795
  9
$LONGITUDE
 40
-122.394
  9
$NORTHDIRECTION
 40
0.0
  9
$TIMEZONE
 70
-8000
  9
$LIGHTGLYPHDISPLAY
280
1
  9
$TILEMODELIGHTSYNCH
280
1
  9
$CMATERIAL
347
20
  9
$SOLIDHIST
280
0
  9
$SHOWHIST
280
1
  9
$DWFFRAME
280
2
  9
$DGNFRAME
280
2
  9
$REALWORLDSCALE
290
1
  9
$INTERFERECOLOR
 62
256
  9
$CSHADOW
280
0
  9
$SHADOWPLANELOCATION
 40
0.0
  0
ENDSEC
  0
SECTION
  2
CLASSES
  0
CLASS
  1
ACDBDICTIONARYWDFLT
  2
AcDbDictionaryWithDefault
  3
ObjectDBX Classes
 90
0
 91
0
280
0
281
0
  0
CLASS
  1
SUN
  2
AcDbSun
  3
SCENEOE
 90
1153
 91
0
280
0
281
0
  0
CLASS
  1
VISUALSTYLE
  2
AcDbVisualStyle
  3
ObjectDBX Classes
 90
4095
 91
0
280
0
281
0
  0
CLASS
  1
MATERIAL
  2
AcDbMaterial
  3
ObjectDBX Classes
 90
1153
 91
0
280
0
281
0
  0
CLASS
  1
SCALE
  2
AcDbScale
  3
ObjectDBX Classes
 90
1153
 91
0
280
0
281
0
  0
CLASS
  1
TABLESTYLE
  2
AcDbTableStyle
  3
ObjectDBX Classes
 90
4095
 91
0
280
0
281
0
  0
CLASS
  1
MLEADERSTYLE
  2
AcDbMLeaderStyle
  3
ACDB_MLEADERSTYLE_CLASS
 90
4095
 91
0
280
0
281
0
  0
CLASS
  1
DICTIONARYVAR
  2
AcDbDictionaryVar
  3
ObjectDBX Classes
 90
0
 91
0
280
0
281
0
  0
CLASS
  1
CELLSTYLEMAP
  2
AcDbCellStyleMap
  3
ObjectDBX Classes
 90
1152
 91
0
280
0
281
0
  0
CLASS
  1
MENTALRAYRENDERSETTINGS
  2
AcDbMentalRayRenderSettings
  3
SCENEOE
 90
1024
 91
0
280
0
281
0
  0
CLASS
  1
ACDBDETAILVIEWSTYLE
  2
AcDbDetailViewStyle
  3
ObjectDBX Classes
 90
1025
 91
0
280
0
281
0
  0
CLASS
  1
ACDBSECTIONVIEWSTYLE
  2
AcDbSectionViewStyle
  3
ObjectDBX Classes
 90
1025
 91
0
280
0
281
0
  0
CLASS
  1
RASTERVARIABLES
  2
AcDbRasterVariables
  3
ISM
 90
0
 91
0
280
0
281
0
  0
CLASS
  1
LAYOUT
  2
AcDbLayout
  3
ObjectDBX Classes
 90
0
 91
0
280
0
281
0
  0
CLASS
  1
ACDBPLACEHOLDER
  2
AcDbPlaceHolder
  3
ObjectDBX Classes
 90
0
 91
0
280
0
281
0
  0
ENDSEC
  0
SECTION
  2
TABLES
  0
TABLE
  2
VPORT
  5
8
330
0
100
AcDbSymbolTable
 70
1
  0
VPORT
  5
23
330
8
100
AcDbSymbolTableRecord
100
AcDbViewportTableRecord
  2
*Active
 70
0
 10
0.0
 20
0.0
 11
1.0
 21
1.0
 12
0.0
 22
0.0
 13
0.0
 23
0.0
 14
0.5
 24
0.5
 15
0.5
 25
0.5
 16
0.0
 26
0.0
 36
1.0
 17
0.0
 27
0.0
 37
0.0
 40
1000.0
 41
1.34
 42
50.0
 43
0.0
 44
0.0
 50
0.0
 51
0.0
 71
0
 72
1000
 73
1
 74
3
 75
0
 76
0
 77
0
 78
0
281
0
 65
0
146
0.0
  0
ENDTAB
  0
TABLE
  2
LTYPE
  5
2
330
0
100
AcDbSymbolTable
 70
3
  0
LTYPE
  5
24
330
2
100
AcDbSymbolTableRecord
100
AcDbLinetypeTableRecord
  2
ByBlock
 70
0
  3

 72
65
 73
0
 40
0.0
  0
LTYPE
  5
25
330
2
100
AcDbSymbolTableRecord
100
AcDbLinetypeTableRecord
  2
ByLayer
 70
0
  3

 72
65
 73
0
 40
0.0
  0
LTYPE
  5
26
330
2
100
AcDbSymbolTableRecord
100
AcDbLinetypeTableRecord
  2
Continuous
 70
0
  3

 72
65
 73
0
 40
0.0
  0
ENDTAB
  0
TABLE
  2
LAYER
  5
1
330
0
100
AcDbSymbolTable
 70
3
  0
LAYER
  5
27
330
1
100
AcDbSymbolTableRecord
100
AcDbLayerTableRecord
  2
0
 70
0
 62
7
  6
Continuous
370
-3
390
13
347
21
  0
LAYER
  5
28
330
1
100
AcDbSymbolTableRecord
100
AcDbLayerTableRecord
  2
Defpoints
 70
0
 62
7
  6
Continuous
290
0
370
-3
390
13
347
21
  0
LAYER
  5
2F
330
1
100
AcDbSymbolTableRecord
100
AcDbLayerTableRecord
  2
roads
 70
0
 62
7
  6
Continuous
370
-3
390
13
347
21
  0
ENDTAB
  0
TABLE
  2
STYLE
  5
5
330
0
100
AcDbSymbolTable
 70
1
  0
STYLE
  5
29
330
5
100
AcDbSymbolTableRecord
100
AcDbTextStyleTableRecord
  2
Standard
 70
0
 40
0.0
 41
1.0
 50
0.0
 71
0
 42
2.5
  3
txt
  4

  0
ENDTAB
  0
TABLE
  2
VIEW
  5
7
330
0
100
AcDbSymbolTable
 70
0
  0
ENDTAB
  0
TABLE
  2
UCS
  5
6
330
0
100
AcDbSymbolTable
 70
0
  0
ENDTAB
  0
TABLE
  2
APPID
  5
3
330
0
100
AcDbSymbolTable
 70
3
  0
APPID
  5
2A
330
3
100
AcDbSymbolTableRecord
100
AcDbRegAppTableRecord
  2
ACAD
 70
0
  0
APPID
  5
50
330
3
100
AcDbSymbolTableRecord
100
AcDbRegAppTableRecord
  2
HATCHBACKGROUNDCOLOR
 70
0
  0
APPID
  5
51
330
3
100
AcDbSymbolTableRecord
100
AcDbRegAppTableRecord
  2
EZDXF
 70
0
  0
ENDTAB
  0
TABLE
  2
DIMSTYLE
  5
4
330
0
100
AcDbSymbolTable
 70
1
100
AcDbDimStyleTable
  0
DIMSTYLE
105
2B
330
4
100
AcDbSymbolTableRecord
100
AcDbDimStyleTableRecord
  2
Standard
 70
0
 40
1.0
 41
2.5
 42
0.625
 43
3.75
 44
1.25
 45
0.0
 46
0.0
 47
0.0
 48
0.0
 49
2.5
140
2.5
141
2.5
142
0.0
143
0.03937007874
144
1.0
145
0.0
146
1.0
147
0.625
148
0.0
 69
0
 70
0
 71
0
 72
0
 73
0
 74
0
 75
0
 76
0
 77
1
 78
8
 79
3
170
0
171
3
172
1
173
0
174
0
175
0
176
0
177
0
178
0
179
2
271
2
272
2
273
2
274
3
275
0
276
0
277
2
278
44
279
0
280
0
281
0
282
0
283
0
284
8
285
0
286
0
288
0
289
3
290
0
371
-2
372
-2
  0
ENDTAB
  0
TABLE
  2
BLOCK_RECORD
  5
9
330
0
100
AcDbSymbolTable
 70
2
  0
BLOCK_RECORD
  5
17
330
9
100
AcDbSymbolTableRecord
100
AcDbBlockTableRecord
  2
*Model_Space
340
1A
 70
0
280
1
281
0
  0
BLOCK_RECORD
  5
1B
330
9
100
AcDbSymbolTableRecord
100
AcDbBlockTableRecord
  2
*Paper_Space
340
1E
 70
0
280
1
281
0
  0
ENDTAB
  0
ENDSEC
  0
SECTION
  2
BLOCKS
  0
BLOCK
  5
18
330
17
100
AcDbEntity
  8
0
100
AcDbBlockBegin
  2
*Model_Space
 70
0
 10
0.0
 20
0.0
 30
0.0
  3
*Model_Space
  1

  0
ENDBLK
  5
19
330
17
100
AcDbEntity
  8
0
100
AcDbBlockEnd
  0
BLOCK
  5
1C
330
1B
100
AcDbEntity
  8
0
100
AcDbBlockBegin
  2
*Paper_Space
 70
0
 10
0.0
 20
0.0
 30
0.0
  3
*Paper_Space
  1

  0
ENDBLK
  5
1D
330
1B
100
AcDbEntity
  8
0
100
AcDbBlockEnd
  0
ENDSEC
  0
SECTION
  2
ENTITIES
  0
LWPOLYLINE
  5
30
330
17
100
AcDbEntity
  8
roads
100
AcDbPolyline
 90
306
 70
1
 10
-18.02558290740134
 20
160.25603533930652
 10
-17.93721550236034
 20
161.25177707603632
 10
-10.985418701496394
 20
160.76098067667175
 10
-7.2562780023200295
 20
160.88972336032606
 10
-3.55316387690458
 20
161.3969092357504
 10
1.9831710026882325
 20
162.82667479060012
 10
4.816006269013107
 20
163.31929729411885
 10
8.485518365765591
 20
163.67604399168215
 10
14.187290162050564
 20
163.6527129737888
 10
14.33828109383322
 20
163.78759597016727
 10
14.345329447057917
 20
166.7828298128577
 10
14.209742809310958
 20
166.93245211918955
 10
-17.069401337035472
 20
166.74994698778787
 10
-17.08363683562218
 20
167.74967937182132
 10
22.52556320898547
 20
167.94120829245125
 10
28.545172981243535
 20
168.49524366888312
 10
35.72425491181353
 20
167.97763794617953
 10
85.64285945456626
 20
167.9362592635024
 10
86.76015917730133
 20
167.64076314863004
 10
87.26011642791406
 20
167.12580715700204
 10
87.47784323287144
 20
166.530756903323
 10
87.65574686069522
 20
150.555898207698
 10
91.48277342717581
 20
150.20460249381867
 10
95.45011072144274
 20
150.46577463246405
 10
121.43825686139458
 20
155.3874377621383
 10
121.26937390376473
 20
199.5173051134798
 10
120.8851507574941
 20
202.07366324268352
 10
120.32871937542224
 20
203.70897518943534
 10
119.48107734782192
 20
205.41186397555487
 10
118.59304503898682
 20
206.6748300205022
 10
112.01135011191435
 20
214.4890889071741
 10
111.30036581027777
 20
214.90109806104752
 10
110.5151315052388
 20
215.11898769719213
 10
108.18570646755013
 20
215.2684611964585
 10
106.529531424492
 20
215.99896337333115
 10
74.4628087300648
 20
239.19826852418703
 10
75.03791876434222
 20
240.01614133835912
 10
107.09643182054468
 20
216.82386961150598
 10
108.61675290787139
 20
216.19077332767384
 10
111.00634117287743
 20
216.03904241155374
 10
112.6082998014224
 20
215.2941166783616
 10
114.02220887863335
 20
213.7895021821521
 10
120.01286414763698
 20
206.44948218634113
 10
120.86346889623786
 20
204.95379855640311
 10
121.57148343152804
 20
203.24300066133011
 10
122.23330698266481
 20
200.15741720617478
 10
122.34953251650194
 20
168.04798668771872
 10
122.45646693415091
 20
167.90428562864258
 10
158.04102472905643
 20
167.97439307848296
 10
172.0744296754921
 20
167.85185787288017
 10
173.4718961554078
 20
168.06819227666472
 10
174.6059199845772
 20
168.57712738637605
 10
175.75141026857062
 20
169.53155350880027
 10
182.74362308618558
 20
176.75917242392077
 10
184.58876434459535
 20
178.33666196484916
 10
186.45093599349207
 20
179.61733595587694
 10
191.71618060011477
 20
182.7308369202779
 10
195.34274012060973
 20
185.47745550133632
 10
202.4058559754986
 20
188.74250559137306
 10
203.75758875848786
 20
189.87627764591124
 10
207.0683770778945
 20
193.16593184493004
 10
208.55531579452565
 20
195.00447763341091
 10
213.27733885974445
 20
201.75349651305362
 10
216.9117091917471
 20
208.52399494879649
 10
229.06586491215737
 20
225.96479954912755
 10
232.8246912886752
 20
232.86944992883707
 10
233.74479587421618
 20
234.22042512555137
 10
233.80418525051545
 20
234.69970712461964
 10
235.18141860163323
 20
238.05351241884685
 10
236.40068813386816
 20
239.80702512872662
 10
237.13796021783352
 20
239.13193974246454
 10
236.10059783473588
 20
237.65058236236277
 10
235.7499060812911
 20
236.62782362619515
 10
235.88239047448855
 20
236.45878618310437
 10
237.9817592042867
 20
237.8241160565411
 10
240.4706217633275
 20
238.8588772031581
 10
249.59717512473202
 20
240.67538225595092
 10
251.44876006525897
 20
241.21340276084442
 10
253.85630082170812
 20
242.26044291620374
 10
256.37442954853054
 20
243.82924364949673
 10
256.9219737171761
 20
242.99287902331886
 10
255.10380412870356
 20
241.80689180726594
 10
252.83144297182085
 20
240.65827011345385
 10
249.82313439545126
 20
239.70075548752686
 10
240.75897448145096
 20
237.90086405399032
 10
238.44989987112666
 20
236.93910239574166
 10
235.8992920476873
 20
235.09354093252045
 10
234.84247837596797
 20
233.99869039313236
 10
233.6857244749654
 20
232.36014335645507
 10
230.34500498205705
 20
226.15104311202828
 10
229.1545125405491
 20
224.2651617861601
 10
217.74340270068654
 20
207.96836470089352
 10
214.11133655865592
 20
201.20143301825706
 10
209.36291288930846
 20
194.41450463299515
 10
207.8134002319849
 20
192.49839498727863
 10
204.44477473249185
 20
189.14976168315198
 10
202.9705621028427
 20
187.91576626898438
 10
195.85055053532167
 20
184.61542107000614
 10
192.28768426346707
 20
181.908850342682
 10
185.58585894627518
 20
177.83493136485194
 10
183.4343050580536
 20
176.03557989395205
 10
179.53380411458437
 20
171.9984373647058
 10
179.53767449693345
 20
171.78818648521366
 10
184.70689815014876
 20
169.706858130494
 10
187.47158540186607
 20
168.81094791047397
 10
190.5028951620851
 20
168.13978996854377
 10
193.44910978869493
 20
167.80385368407786
 10
206.8036243483216
 20
176.72950272554465
 10
209.7937294149408
 20
178.40628011676458
 10
213.3592021536095
 20
179.9541021517181
 10
224.65122815923252
 20
183.91258094440013
 10
228.85943338478418
 20
185.95755385729876
 10
232.18605232869297
 20
188.14565682285976
 10
238.8249183069648
 20
193.1548433508466
 10
239.6052353660061
 20
192.09440907306785
 10
231.8472376582958
 20
186.4264738090709
 10
229.70027877836495
 20
185.06219105460653
 10
224.9830959276543
 20
182.75739118207875
 10
213.5429681869292
 20
178.74134316007866
 10
209.67021035909977
 20
176.99497710812236
 10
206.50578336175346
 20
175.10681912026075
 10
195.8436296293061
 20
167.9585644387549
 10
195.79509320993105
 20
167.76322859195247
 10
234.59575772907613
 20
167.81341151481698
 10
237.32138099181486
 20
168.2931575586077
 10
249.34677340074168
 20
172.69255925369686
 10
251.94084202351934
 20
173.2504304568436
 10
255.18197718916255
 20
173.58716171777743
 10
320.97661625830887
 20
173.10752394373526
 10
323.4008626617763
 20
172.96501565581386
 10
326.1585093172652
 20
172.3977144471227
 10
325.9391686974626
 20
171.4224195701527
 10
323.25895978088465
 20
171.9746329274966
 10
320.9626274429986
 20
172.10759826329382
 10
257.54733643592
 20
172.60298922420344
 10
254.04798581409094
 20
172.51703080659917
 10
249.61472135324877
 20
171.72884971467332
 10
237.6195101200152
 20
167.33758962810003
 10
234.67296795990347
 20
166.8154460011264
 10
194.06483681899434
 20
166.74967792966788
 10
188.24860701216417
 20
162.94607437402763
 10
184.07138506736027
 20
160.97151734130117
 10
168.2525463607582
 20
156.6495313575829
 10
163.27238996953113
 20
155.54477844964677
 10
160.1365869859003
 20
155.35416769590663
 10
132.98804725938018
 20
155.6028038476892
 10
128.64899376489822
 20
155.29248190092974
 10
122.53883647964935
 20
154.26473985124417
 10
122.47819559329506
 20
147.0200459644933
 10
121.9486412713733
 20
144.4728233978382
 10
120.38530032528853
 20
140.34694038585957
 10
120.02351918780893
 20
138.77428023328073
 10
120.02412783293023
 20
129.75566088541333
 10
118.83418447856333
 20
121.93800595234556
 10
118.59589454838938
 20
121.47929761052148
 10
118.30682370388173
 20
121.30935418871088
 10
116.3154704618385
 20
121.295162989763
 10
116.17130502103099
 20
121.16103022545636
 10
116.2239614743971
 20
106.9128319816056
 10
134.69508151523684
 20
106.88869799053428
 10
134.73951865835087
 20
106.43269296253047
 10
135.195534742876
 20
106.38836942581162
 10
135.16031809148927
 20
95.77707107238864
 10
135.2953726796828
 20
95.62658321450165
 10
194.81061066656656
 20
95.43231461567838
 10
194.85551697826438
 20
94.97664015595086
 10
195.3115802459724
 20
94.93036070310421
 10
195.37437527712336
 20
65.96193666224977
 10
196.94339041004667
 20
63.169600363130236
 10
196.04871625305185
 20
62.72365355313496
 10
195.62062656424428
 20
63.550025185819806
 10
195.36600526917547
 20
63.475497052305414
 10
195.43427603613787
 20
54.94922588234022
 10
198.65772357270455
 20
57.14697749357269
 10
201.52400913767278
 20
58.54561461586781
 10
204.85424315556082
 20
59.570193496246304
 10
208.66827416893398
 20
60.05678638675927
 10
242.22118946267366
 20
59.02040812469163
 10
245.46643452817165
 20
58.63127568329695
 10
251.64030078465612
 20
57.41684376508332
 10
251.36700598820028
 20
56.03650946667481
 10
245.35917752597274
 20
57.27757594673508
 10
240.06688548316313
 20
57.77134223822911
 10
209.820761994794
 20
58.68658579522578
 10
207.31227827953543
 20
58.53882502171018
 10
205.13342270850583
 20
58.16232608384321
 10
202.60112159055168
 20
57.40375039509175
 10
199.81759013426196
 20
56.1427147815265
 10
197.62782836444737
 20
54.74838336482213
 10
195.37652583865855
 20
52.86516153468279
 10
195.3248656641243
 20
46.849130125639896
 10
194.86913030478095
 20
46.83258806061827
 10
194.80344171105313
 20
46.3818497617504
 10
192.82010388779614
 20
46.3794551865992
 10
189.85676081058693
 20
46.05635027059603
 10
187.47237522797494
 20
43.73636992208046
 10
184.61931042933176
 20
41.71785131375533
 10
180.7978647514083
 20
39.93859033169178
 10
176.88919852699445
 20
38.90496037279846
 10
172.8596114546604
 20
38.599548541549304
 10
160.16706004717756
 20
38.68564963475237
 10
156.86738195115709
 20
38.83471077489729
 10
139.26505394831216
 20
41.0319729308215
 10
139.1562985831643
 20
33.47143185633833
 10
138.9624171579437
 20
32.30725355210969
 10
138.20124336349298
 20
30.601636473608824
 10
135.65643310412392
 20
27.248581572890807
 10
135.08488822797082
 20
25.53370784111288
 10
134.62210945600964
 20
-25.07223493839142
 10
133.62585634396982
 20
-25.060307294898085
 10
134.08483574456565
 20
25.580328223015655
 10
134.38482641631768
 20
26.85473744707469
 10
134.7765825941526
 20
27.72542270536037
 10
137.3563469460907
 20
31.139167433193343
 10
137.99889150428515
 20
32.57722601152358
 10
138.18515548503777
 20
35.01931025398689
 10
138.1326297836989
 20
41.17723074062734
 10
134.5875246289875
 20
41.726113629278466
 10
126.60668855599215
 20
43.34378314628612
 10
115.67158563502915
 20
44.08897234909513
 10
112.33764511030927
 20
43.93431864042282
 10
109.4851066110832
 20
43.165042004403276
 10
107.40940794289645
 20
42.20169670621364
 10
99.07945739750826
 20
36.10655023167996
 10
96.50695303339273
 20
34.55905339712212
 10
94.45262261781538
 20
33.77647396309774
 10
92.89288399255462
 20
33.42346157779869
 10
90.51153414039605
 20
33.195867328954165
 10
87.52198867628319
 20
33.17369248609142
 10
87.67907760722035
 20
-1.0117275719825023
 10
86.30158033768784
 20
-1.024761939761328
 10
86.16893687647887
 20
27.66235383791864
 10
86.41209531035302
 20
33.16526455636142
 10
75.04132171167348
 20
33.20123825962769
 10
73.09695708541166
 20
33.45964893562338
 10
70.80710659181031
 20
34.04837839705869
 10
68.63585407479368
 20
34.92652442021582
 10
35.54757888042375
 20
50.19822653267863
 10
33.39383962087116
 20
51.6199979340999
 10
31.719689848413243
 20
53.23367105427268
 10
21.448203010228625
 20
66.78809523651812
 10
19.767563456856493
 20
68.20529823355172
 10
17.91720603017395
 20
69.18880449836381
 10
16.086930573416023
 20
69.73310202813269
 10
14.658625650539559
 20
69.8975612279253
 10
1.9159168665268413
 20
69.95271828354524
 10
-2.8475307346746743
 20
70.79955122707938
 10
-2.7279790435059033
 20
71.79203185544348
 10
-0.29202421341522866
 20
71.3736633980046
 10
-0.08782974496070499
 20
72.14786525474138
 10
3.236776168831343
 20
71.80844123376623
 10
26.254597945247568
 20
71.96534793679999
 10
26.41690182185909
 20
85.24756391904026
 10
26.371393288495295
 20
85.84305823065287
 10
26.055630655873696
 20
86.51326621771301
 10
26.371424325922565
 20
87.15851725034693
 10
26.54966110604984
 20
88.47709103815527
 10
26.604693629211553
 20
94.58470635994527
 10
8.9681094736049
 20
94.65185650462074
 10
8.057138724876102
 20
94.94306640277414
 10
7.107809564744403
 20
95.54768049002102
 10
5.063857421977326
 20
98.0449537366899
 10
4.07864238714419
 20
98.74790939535212
 10
3.075445613071014
 20
99.02253250956258
 10
-2.130865222626579
 20
99.01256229062253
 10
-2.1333048625602475
 20
100.00870459619084
 10
3.1230330296646844
 20
100.02201159361962
 10
4.225554787459843
 20
99.77350053979703
 10
5.027030139039947
 20
99.36555363305449
 10
5.780307426791402
 20
98.74365502996774
 10
7.760943443558576
 20
96.30717852344918
 10
8.47829327055113
 20
95.85066423183842
 10
9.384882131652443
 20
95.59614163480109
 10
26.590941675480153
 20
95.65476349310289
 10
26.636473935961966
 20
104.10484976539765
 10
26.355731055255262
 20
105.09575142418743
 10
26.630212123685837
 20
106.14904898002172
 10
26.616745357778274
 20
111.83335616812857
 10
26.33878696280318
 20
112.86924626410111
 10
26.614614427637363
 20
114.0331152091176
 10
26.49052517268256
 20
118.4525325898539
 10
26.34320133204147
 20
118.572169677685
 10
-3.3320422384612467
 20
118.48991177596959
 10
-3.3126212882430934
 20
119.48937824926017
 10
-1.1934429219919993
 20
119.48555352242786
 10
-1.059209646490608
 20
119.75957037793626
 10
14.393630574895896
 20
119.92109510229388
 10
14.44368748580222
 20
124.69248802852725
 10
14.255962495362883
 20
125.267500909454
 10
14.438528409082245
 20
125.76959538806801
 10
14.379727645628542
 20
134.76895916294418
 10
14.20838761799349
 20
135.4874649717491
 10
14.360021617616459
 20
136.1005226339272
 10
14.352906444573339
 20
145.48723365568128
 10
13.634455231269696
 20
147.61020527989803
 10
14.263230936187188
 20
150.01709342910306
 10
14.34720646441789
 20
150.91533591039473
 10
14.29398466346581
 20
162.40742027254592
 10
9.711032770586172
 20
162.50676238916162
 10
6.313134835974069
 20
162.30110995171455
 10
2.797295170430789
 20
161.7703655832089
 10
-3.2977655094877356
 20
160.2184149002166
 10
-7.854270777422984
 20
159.62011485259154
 10
-12.228876006893115
 20
159.59396166680594
 10
-12.356211145143895
 20
159.8212629765327
 10
-18.02558290740134
 20
160.25603533930652
  0
LWPOLYLINE
  5
31
330
17
100
AcDbEntity
  8
roads
100
AcDbPolyline
 90
14
 70
1
 10
135.15909708285375
 20
94.48855156822508
 10
135.40364577466474
 20
72.01546511285282
 10
144.20082112550662
 20
71.85798397359754
 10
156.02161957739597
 20
72.08480189827921
 10
184.79378031505345
 20
71.68595386855628
 10
187.57269737373466
 20
71.24874064593992
 10
190.69420584830866
 20
70.18452522470301
 10
192.9302196530783
 20
68.98280624869578
 10
192.75819145035572
 20
68.47603011905622
 10
194.15052337956385
 20
67.32349922978814
 10
194.36922170799593
 20
67.39306678778219
 10
194.2207235085835
 20
94.42015961882993
 10
135.30872998299165
 20
94.62583837455895
 10
135.15909708285375
 20
94.48855156822508
  0
LWPOLYLINE
  5
32
330
17
100
AcDbEntity
  8
roads
100
AcDbPolyline
 90
32
 70
1
 10
135.3189899222989
 20
70.66236247528597
 10
135.3323950495833
 20
54.07511035208552
 10
135.8629691629302
 20
52.54559022105178
 10
136.21447466997967
 20
51.979175438485846
 10
137.95651017843548
 20
50.19616602730361
 10
138.5510541247719
 20
49.315281883024234
 10
139.10777719668206
 20
47.99835713844144
 10
141.0384423376881
 20
47.95427678703609
 10
142.3015533487724
 20
47.6784924861427
 10
146.3254833577979
 20
45.330478609026116
 10
147.5795055044363
 20
44.87116722070279
 10
148.87654825105844
 20
44.831290648596045
 10
150.0862258810107
 20
45.176949005244225
 10
152.6617918204931
 20
47.077518770389084
 10
154.05864880082837
 20
47.67858348822968
 10
155.14109822385237
 20
47.85379811731774
 10
158.0736965985065
 20
47.90128822340867
 10
158.53302685591342
 20
48.0866228042807
 10
159.10543674667514
 20
47.95534574396686
 10
182.54282461668924
 20
47.598787390274495
 10
183.65824056383485
 20
47.399290986702965
 10
188.86172901173805
 20
47.082759429011084
 10
192.50764524361247
 20
51.772349531564785
 10
194.33444660191904
 20
53.87242481208096
 10
194.36878867935584
 20
65.57878975740329
 10
192.90749205341191
 20
67.09963964730723
 10
190.92025054055682
 20
68.40864529545402
 10
187.81769622889755
 20
69.56084002139525
 10
184.9585874416361
 20
70.07023970014174
 10
151.70996840868136
 20
70.86038581518817
 10
135.4402807666464
 20
70.8134601110487
 10
135.3189899222989
 20
70.66236247528597
  0
LWPOLYLINE
  5
33
330
17
100
AcDbEntity
  8
roads
100
AcDbPolyline
 90
7
 70
1
 10
190.93180423854753
 20
47.380946647242325
 10
191.0559733160105
 20
47.139473431568085
 10
194.3064803804021
 20
47.462706632010786
 10
194.28529694399012
 20
51.500096107134816
 10
194.09528006900814
 20
51.5005417105362
 10
193.70006841910254
 20
51.027398521146964
 10
190.93180423854753
 20
47.380946647242325
  0
LWPOLYLINE
  5
34
330
17
100
AcDbEntity
  8
roads
100
AcDbPolyline
 90
21
 70
1
 10
122.35854430210922
 20
166.76082488738385
 10
122.50265627666391
 20
155.73147721313097
 10
122.64939649280862
 20
155.59215910198404
 10
128.48605805915528
 20
156.54312610145405
 10
132.60988853306756
 20
156.85252196083275
 10
160.2327540277305
 20
156.54771576581663
 10
163.5774879032692
 20
156.78585492708137
 10
171.88873148481053
 20
158.83379550177608
 10
184.13856189154316
 20
162.27860670368008
 10
188.15146635445893
 20
164.2855160865901
 10
191.85613517031004
 20
166.80704902099635
 10
191.74050955798322
 20
166.95550114552242
 10
187.9071426407217
 20
167.6592126713965
 10
185.3336142319986
 20
168.41104295375132
 10
178.67621643086417
 20
171.0352827864009
 10
176.1522976829253
 20
168.5342326519771
 10
175.13983160000814
 20
167.72974175910093
 10
173.7684839124871
 20
167.11217868938147
 10
172.62669640615323
 20
166.88524365934575
 10
122.5073774896595
 20
166.8979930884902
 10
122.35854430210922
 20
166.76082488738385
  0
LWPOLYLINE
  5
35
330
17
100
AcDbEntity
  8
roads
100
AcDbPolyline
 90
31
 70
1
 10
139.20219245624534
 20
42.85278381337996
 10
139.3043829405367
 20
42.52967179653586
 10
140.9514514112955
 20
42.278201596862445
 10
158.18157573087984
 20
40.15323528022627
 10
174.76751447720892
 20
40.042324587937
 10
178.28173125555008
 20
40.61733776636052
 10
181.5760346555485
 20
41.7541006801957
 10
182.90489929434938
 20
42.38069779289641
 10
185.10943478584105
 20
43.73148974668259
 10
187.76626718262173
 20
45.99599357270833
 10
187.6509250153645
 20
46.13338073332325
 10
186.29122570406983
 20
46.31583228426169
 10
183.59225460140158
 20
46.401245735359446
 10
182.50396657493107
 20
46.59937705061105
 10
159.78838063941137
 20
46.94459828467459
 10
158.65851944709286
 20
46.560152609857596
 10
158.08467879310086
 20
46.74515371430214
 10
155.19334377399508
 20
46.715006172640514
 10
154.2806079359902
 20
46.55844458565805
 10
153.42889427799722
 20
46.20525910908403
 10
151.45645652638876
 20
44.65874300494928
 10
150.44630613590678
 20
44.08920813055016
 10
149.35379903926597
 20
43.75328723820148
 10
148.17828552643084
 20
43.66469281969496
 10
147.0214053724966
 20
43.829614238617324
 10
146.06881957695563
 20
44.17879819910949
 10
142.09988856112736
 20
46.47130909887654
 10
140.9257860933896
 20
46.72762297451027
 10
139.43395692817285
 20
46.7205871733782
 10
139.30026236528698
 20
46.57444116704667
 10
139.20219245624534
 20
42.85278381337996
  0
LWPOLYLINE
  5
36
330
17
100
AcDbEntity
  8
roads
100
AcDbPolyline
 90
11
 70
1
 10
132.6049940881549
 20
44.39374994166025
 10
131.44905779240213
 20
43.9083425913239
 10
131.53963172165612
 20
43.755091916087295
 10
132.79545809779177
 20
43.48937423321656
 10
138.106403058563
 20
42.69893240438169
 10
138.2050436768803
 20
44.22033213615311
 10
138.08405019330303
 20
44.51331818722474
 10
138.039996757264
 20
46.61094213630349
 10
137.57210510066773
 20
46.68506507505808
 10
136.77138745157322
 20
46.485866134276556
 10
132.6049940881549
 20
44.39374994166025
  0
LWPOLYLINE
  5
37
330
17
100
AcDbEntity
  8
roads
100
AcDbPolyline
 90
19
 70
1
 10
111.13326687824312
 20
47.15068113970202
 10
111.24156782504572
 20
46.96474734085596
 10
113.74224118276518
 20
46.453608832175554
 10
125.90371188668708
 20
45.669425247551025
 10
130.7471622291637
 20
44.9584879441712
 10
131.86983976728507
 20
45.1611062705667
 10
136.06372596392708
 20
47.533747470773775
 10
137.68895427319148
 20
47.97491022217906
 10
137.22759176006105
 20
49.091416288878285
 10
135.4722783599644
 20
51.19530575620992
 10
134.72893579752727
 20
52.61099710117772
 10
134.34546807626108
 20
53.91103914619999
 10
134.2762078284659
 20
70.78096099104432
 10
132.79902848951727
 20
70.93613453566948
 10
117.17735614030912
 20
71.11742042057904
 10
112.82183931569706
 20
71.14126600100411
 10
111.63446891827998
 20
71.01448093335429
 10
111.58503437328166
 20
49.20273501169744
 10
111.13326687824312
 20
47.15068113970202
  0
LWPOLYLINE
  5
38
330
17
100
AcDbEntity
  8
roads
100
AcDbPolyline
 90
11
 70
1
 10
119.30821287405765
 20
83.12904151573954
 10
119.21919474200851
 20
72.23063025856509
 10
119.32255445455782
 20
72.08810741788409
 10
132.8131549471736
 20
71.93606714741397
 10
134.30524425908726
 20
72.12050415797844
 10
134.2592957356654
 20
82.76275053613813
 10
134.15395779162623
 20
82.90542912493154
 10
124.0445076140299
 20
83.07507145864354
 10
122.70260273707544
 20
82.89800721410988
 10
122.16492370220602
 20
83.10771322977793
 10
119.30821287405765
 20
83.12904151573954
  0
LWPOLYLINE
  5
39
330
17
100
AcDbEntity
  8
roads
100
AcDbPolyline
 90
9
 70
1
 10
119.21353728924687
 20
84.29009729389465
 10
119.36185968296599
 20
84.14010667539746
 10
122.13043318429514
 20
84.10893211656867
 10
122.75253582124708
 20
84.24445999528677
 10
123.50416870533864
 20
84.04908189009794
 10
134.18676457775712
 20
83.93724362075922
 10
134.1322882297026
 20
94.5699298443253
 10
119.28440763082887
 20
94.66301597233233
 10
119.21353728924687
 20
84.29009729389465
  0
LWPOLYLINE
  5
3A
330
17
100
AcDbEntity
  8
roads
100
AcDbPolyline
 90
6
 70
1
 10
119.28697378686314
 20
105.86201057246373
 10
119.2229631819137
 20
95.82456885837661
 10
119.34280757863307
 20
95.69117316607414
 10
134.0806305139792
 20
95.65301153792818
 10
134.17757926823055
 20
105.80896760740787
 10
119.28697378686314
 20
105.86201057246373
  0
LWPOLYLINE
  5
3B
330
17
100
AcDbEntity
  8
roads
100
AcDbPolyline
 90
48
 70
1
 10
60.781264976490434
 20
125.05728307175582
 10
60.74676809806681
 20
120.03340645283075
 10
60.881703465796555
 20
119.89887875261029
 10
63.141938849641875
 20
119.73788606918306
 10
77.56701089783144
 20
119.74100863783036
 10
79.65759863571233
 20
119.84790542858053
 10
81.72026492554129
 20
120.20918346631605
 10
85.70143800486828
 20
121.66295021246468
 10
85.45739129365357
 20
123.8782572210606
 10
86.13697897929177
 20
128.32094527049438
 10
86.6976460242718
 20
129.820713996695
 10
88.7674835312446
 20
133.5631071786123
 10
89.36528926383521
 20
135.53878234095572
 10
89.52294837815961
 20
136.89186903345328
 10
89.58174470046599
 20
142.3843346136293
 10
90.58010189019295
 20
142.3334099019484
 10
90.4941394886748
 20
136.32748833568593
 10
89.89688864746378
 20
133.65204995371747
 10
87.60060223106662
 20
129.39021629840306
 10
87.00607635944732
 20
127.65961791299227
 10
86.8507626322745
 20
125.36683157086554
 10
87.4823278952393
 20
122.16455291641101
 10
91.23216501250806
 20
122.43336831362974
 10
116.8051168606374
 20
122.47987274404862
 10
118.95395371291023
 20
129.18777220064752
 10
118.99710297209715
 20
138.62497511210833
 10
119.32371477798168
 20
140.2982896311375
 10
120.99148390450495
 20
144.76412282969568
 10
121.39312820045363
 20
146.4837044315021
 10
121.5314944224628
 20
147.94779065250643
 10
121.4744735460492
 20
153.98537645359204
 10
121.31316140492382
 20
154.06224839683773
 10
107.02369935274083
 20
151.44321363802163
 10
103.24378673481478
 20
150.5850866732387
 10
95.71217175690072
 20
149.23405400932836
 10
91.46360033998059
 20
148.94423963549607
 10
87.63758002803735
 20
149.25217045657567
 10
87.5718044081288
 20
134.0219480981254
 10
86.57215568109537
 20
134.0183666068472
 10
86.46658001944886
 20
142.84664406688947
 10
63.75620560560076
 20
142.82383090613982
 10
63.80127877541742
 20
137.20978313857333
 10
63.58038695982422
 20
135.1968582978429
 10
63.57902670957933
 20
130.5259771066971
 10
63.09398827697372
 20
129.11241710849075
 10
61.40714951945729
 20
127.40657553095188
 10
60.98063384598827
 20
126.68665324070814
 10
60.781264976490434
 20
125.05728307175582
  0
LWPOLYLINE
  5
3C
330
17
100
AcDbEntity
  8
roads
100
AcDbPolyline
 90
9
 70
1
 10
116.17133606543142
 20
105.74339279200166
 10
116.22964525441587
 20
84.28347429856353
 10
118.10574390847597
 20
84.15814780911256
 10
118.22113547456718
 20
85.08681045369734
 10
118.2313201769225
 20
97.17890260757916
 10
118.20755977571558
 20
105.72987228566365
 10
118.07225487878662
 20
105.87902988664494
 10
116.30583844688645
 20
105.8781372559916
 10
116.17133606543142
 20
105.74339279200166
  0
LWPOLYLINE
  5
3D
330
17
100
AcDbEntity
  8
roads
100
AcDbPolyline
 90
6
 70
1
 10
111.64497677695637
 20
83.17766899777112
 10
111.64279159396793
 20
72.2699325974491
 10
114.11278743402391
 20
72.11505651838581
 10
118.17452987462183
 20
72.15022622031343
 10
118.18082773261378
 20
83.09667218497897
 10
111.64497677695637
 20
83.17766899777112
  0
LWPOLYLINE
  5
3E
330
17
100
AcDbEntity
  8
roads
100
AcDbPolyline
 90
8
 70
1
 10
115.22332474716144
 20
84.34382543017156
 10
115.17062991398694
 20
105.72921944662129
 10
114.82154896403335
 20
105.87917055427562
 10
114.67142134108805
 20
105.72895215829975
 10
114.67317064030863
 20
100.25509952350882
 10
114.68720069904272
 20
84.3469438784164
 10
114.8350079719544
 20
84.19708587721544
 10
115.22332474716144
 20
84.34382543017156
  0
LWPOLYLINE
  5
3F
330
17
100
AcDbEntity
  8
roads
100
AcDbPolyline
 90
7
 70
1
 10
114.67050905018908
 20
121.28163431900167
 10
114.6670276167486
 20
113.19597185725354
 10
115.04508879138307
 20
113.07825206598832
 10
115.16585528823201
 20
113.22571946545759
 10
115.17158965086243
 20
121.26323749733805
 10
115.03669564726762
 20
121.41396849795164
 10
114.67050905018908
 20
121.28163431900167
  0
LWPOLYLINE
  5
40
330
17
100
AcDbEntity
  8
roads
100
AcDbPolyline
 90
6
 70
1
 10
115.1683114992298
 20
107.0145096509533
 10
115.15587725190109
 20
111.98268637901371
 10
114.75947772923982
 20
112.06405911878268
 10
114.67013071041696
 20
107.02934658298787
 10
114.80529799963318
 20
106.87990728351572
 10
115.1683114992298
 20
107.0145096509533
  0
LWPOLYLINE
  5
41
330
17
100
AcDbEntity
  8
roads
100
AcDbPolyline
 90
22
 70
1
 10
87.53163201471139
 20
95.00442845257501
 10
87.62058868183298
 20
84.02694475029794
 10
113.64314079759288
 20
84.25216095320378
 10
113.66615269732117
 20
111.9357926706176
 10
113.53071390393575
 20
112.07004222371337
 10
111.17710194083446
 20
112.07148987079067
 10
111.17935606574139
 20
113.06763261342735
 10
113.51504580253865
 20
113.07068896213738
 10
113.65776646469418
 20
113.17755365258594
 10
113.6259992000717
 20
121.38053463518301
 10
91.2477253827067
 20
121.43337890176647
 10
87.78018500970863
 20
121.1296705095215
 10
87.88816983194765
 20
120.05712733408303
 10
87.63591678531309
 20
117.6726055180856
 10
87.61180286532397
 20
113.90501530439624
 10
88.87376623188474
 20
113.05289580073644
 10
108.18011005393332
 20
113.06630752098225
 10
108.17923738745264
 20
112.07016261021882
 10
89.07157294804188
 20
112.01889035566825
 10
88.44930548679866
 20
112.14603838701389
 10
87.66322481437264
 20
112.60764053140987
 10
87.53163201471139
 20
95.00442845257501
  0
LWPOLYLINE
  5
42
330
17
100
AcDbEntity
  8
roads
100
AcDbPolyline
 90
16
 70
1
 10
87.44225526070198
 20
44.24646966679474
 10
87.49838261620422
 20
34.28814433021188
 10
89.8666065085287
 20
34.21339525478695
 10
91.48021104524152
 20
34.375167098129
 10
93.70103328503498
 20
34.886205997034445
 10
96.7598865090948
 20
36.251919805261124
 10
105.28778332391833
 20
42.45913138151411
 10
107.20980849811787
 20
43.63404100945183
 10
109.24077865435869
 20
44.51909698286006
 10
112.6552219560694
 20
45.32101542464488
 10
112.75800107382919
 20
45.481287343885285
 10
108.22890062429285
 20
46.778240182274445
 10
106.71928607933728
 20
46.970845928957004
 10
87.68076222961668
 20
46.646572057781945
 10
87.5596382482167
 20
46.51454453168507
 10
87.44225526070198
 20
44.24646966679474
  0
LWPOLYLINE
  5
43
330
17
100
AcDbEntity
  8
roads
100
AcDbPolyline
 90
7
 70
1
 10
87.48926138947004
 20
72.45054769842389
 10
87.60863485473838
 20
72.04767248008322
 10
90.23565270876045
 20
71.92635098361832
 10
110.49782709959248
 20
72.16314994717267
 10
110.58893459386006
 20
83.12881146156283
 10
87.6205496029251
 20
83.00417568779815
 10
87.48926138947004
 20
72.45054769842389
  0
LWPOLYLINE
  5
44
330
17
100
AcDbEntity
  8
roads
100
AcDbPolyline
 90
10
 70
1
 10
87.54864638294849
 20
70.76813600578622
 10
87.43579016700376
 20
50.46111296626251
 10
87.6498112659513
 20
47.92071663337767
 10
106.75810094862788
 20
47.970264773707285
 10
108.04482963658937
 20
47.831067440058995
 10
110.11264670934872
 20
47.34183823266451
 10
110.58573824853335
 20
49.254858801599205
 10
110.56416195437643
 20
71.08501310229134
 10
90.20149054237262
 20
70.92613568612258
 10
87.54864638294849
 20
70.76813600578622
  0
LWPOLYLINE
  5
45
330
17
100
AcDbEntity
  8
roads
100
AcDbPolyline
 90
17
 70
1
 10
60.74692456196823
 20
118.50765106116721
 10
60.904120264153235
 20
111.81366381715343
 10
61.18550954654604
 20
111.14585978335947
 10
63.464004960072415
 20
107.68835120858468
 10
63.73262678497782
 20
106.96885315207498
 10
63.75800656593827
 20
95.77261692258372
 10
84.38594667485613
 20
95.77389801863826
 10
85.62599750070932
 20
95.54350095901
 10
86.49949921423352
 20
95.55587669741332
 10
86.63546421972792
 20
117.66559945506678
 10
86.05853952936653
 20
120.63443738806039
 10
82.27156272907126
 20
119.31885814061958
 10
79.31364160490622
 20
118.80934248630705
 10
62.23530528775049
 20
118.7831402198513
 10
61.93361901979261
 20
118.65214631184696
 10
60.883004620786686
 20
118.65707662474439
 10
60.74692456196823
 20
118.50765106116721
  0
LWPOLYLINE
  5
46
330
17
100
AcDbEntity
  8
roads
100
AcDbPolyline
 90
12
 70
1
 10
63.52113614322559
 20
157.74025575588678
 10
63.78252983376622
 20
155.18987966683474
 10
63.60663412934444
 20
154.6487660046597
 10
63.62688537198521
 20
150.59211129893936
 10
63.803999785833206
 20
150.0022603310217
 10
63.632953631195164
 20
149.36226956529845
 10
63.731498497086534
 20
143.86017635071087
 10
86.53352202936954
 20
143.93746235714764
 10
86.48345085923683
 20
149.4817431655356
 10
82.95800728092406
 20
150.46830443272853
 10
63.68299046163382
 20
157.87533228876504
 10
63.52113614322559
 20
157.74025575588678
  0
LWPOLYLINE
  5
47
330
17
100
AcDbEntity
  8
roads
100
AcDbPolyline
 90
8
 70
1
 10
85.614112228141
 20
166.93579546785327
 10
63.56953063668948
 20
166.92509793247504
 10
63.522282229214994
 20
159.23015899928123
 10
82.83743977508657
 20
151.84310527898543
 10
86.47900920433436
 20
150.81532275232945
 10
86.43094993164135
 20
166.56325604214896
 10
86.14588687418224
 20
166.84153475882673
 10
85.614112228141
 20
166.93579546785327
  0
LWPOLYLINE
  5
48
330
17
100
AcDbEntity
  8
roads
100
AcDbPolyline
 90
10
 70
1
 10
63.3754019567424
 20
73.71259566708433
 10
63.096967218535724
 20
72.86118661049538
 10
63.05597692644211
 20
72.08020772780215
 10
63.191210415454265
 20
71.9450794231881
 10
86.43286031648874
 20
72.08159715530158
 10
86.49604148328766
 20
94.44625662430342
 10
84.20658263052435
 20
94.57755852916792
 10
63.74758416708736
 20
94.51531814029373
 10
63.607762895955354
 20
75.4286074251083
 10
63.3754019567424
 20
73.71259566708433
  0
LWPOLYLINE
  5
49
330
17
100
AcDbEntity
  8
roads
100
AcDbPolyline
 90
23
 70
1
 10
28.043555227258327
 20
60.991821791880525
 10
27.862386237224193
 20
60.0015238912618
 10
32.4821174224579
 20
53.88170169523348
 10
34.02456433107992
 20
52.39660057918757
 10
35.49700917630608
 20
51.37759264824618
 10
69.68849187466893
 20
35.551640513635405
 10
72.60686584489638
 20
34.58262273988917
 10
75.11003018034769
 20
34.199098777144854
 10
86.46903103136864
 20
34.29066670773139
 10
86.44175494724864
 20
44.22302662962134
 10
86.23350382992074
 20
46.63229158634674
 10
84.32911229480062
 20
46.77035132918953
 10
65.68374327431867
 20
46.73754694850352
 10
64.27870877696371
 20
47.04867083663528
 10
63.046685967518755
 20
48.068261945153914
 10
62.522718949804165
 20
48.909106826950996
 10
62.35718207385196
 20
49.856084557049456
 10
62.487091887800915
 20
68.48288921771336
 10
61.96496389835495
 20
70.72791489522291
 10
27.386366153642527
 20
70.69834264993558
 10
27.279348248573086
 20
70.56080051659826
 10
27.26308994080017
 20
62.26697506473766
 10
28.043555227258327
 20
60.991821791880525
  0
LWPOLYLINE
  5
4A
330
17
100
AcDbEntity
  8
roads
100
AcDbPolyline
 90
14
 70
1
 10
63.209043135134166
 20
70.74247519065233
 10
63.059922066628175
 20
70.58179454126471
 10
63.47528936656286
 20
68.78791013647727
 10
63.55351109440615
 20
65.63601539490895
 10
63.51418146838675
 20
49.82093645811251
 10
63.62195487300461
 20
49.07545301397421
 10
64.10122529931657
 20
48.3743015011656
 10
64.87701965473063
 20
47.87421174599366
 10
65.71925255880105
 20
47.737631015358225
 10
84.34868266736608
 20
47.77039650481336
 10
86.26651790614709
 20
47.943882081900455
 10
86.4357843159709
 20
50.45689626950798
 10
86.43905901623503
 20
70.75826511089011
 10
63.209043135134166
 20
70.74247519065233
  0
LWPOLYLINE
  5
4B
330
17
100
AcDbEntity
  8
roads
100
AcDbPolyline
 90
33
 70
1
 10
15.30875398558371
 20
150.30202311808515
 10
14.636004406473017
 20
147.63945332660066
 10
15.269187681832953
 20
146.11755064103482
 10
15.35154499922381
 20
145.55223092584222
 10
15.47347556268345
 20
136.0903649329261
 10
15.638351110312401
 20
135.44633515932495
 10
15.477751093121014
 20
134.78330728803755
 10
15.54047267371794
 20
125.77674841317088
 10
15.728201794968493
 20
125.17289371471145
 10
15.55160367666581
 20
124.713224470368
 10
15.473717941897426
 20
119.85299321849423
 10
52.923921808166185
 20
119.7376889063239
 10
58.8590773286223
 20
119.76946816988136
 10
59.720758561642306
 20
119.96368017266364
 10
59.73282060026232
 20
126.64653745729238
 10
60.238921513457555
 20
127.85935588640496
 10
62.11086168205302
 20
129.79979608438742
 10
62.39496866412121
 20
130.71618502795738
 10
62.39278668636002
 20
135.26153247909033
 10
62.61597988857737
 20
138.1811993440721
 10
62.47733585821684
 20
149.36668095864374
 10
62.30441834581079
 20
149.95271606150666
 10
62.47180076508956
 20
150.48738053159462
 10
62.45344889814376
 20
154.54660726331352
 10
62.27338400752548
 20
155.17659639561577
 10
62.52214445043627
 20
156.38279719003188
 10
62.43855081182149
 20
158.35282789217905
 10
56.00177734497164
 20
160.67541132521472
 10
52.665520923088074
 20
161.4420467822096
 10
49.712431220588044
 20
161.83173273622847
 10
15.45942494182849
 20
162.43425181928217
 10
15.337126338429158
 20
162.2872189126663
 10
15.30875398558371
 20
150.30202311808515
  0
LWPOLYLINE
  5
4C
330
17
100
AcDbEntity
  8
roads
100
AcDbPolyline
 90
19
 70
1
 10
27.756554660148858
 20
118.4474447333149
 10
27.615503932634052
 20
113.99910453735032
 10
27.883082857886407
 20
112.89135567022592
 10
27.616741361392883
 20
111.83624142478173
 10
27.630221641356098
 20
106.14640184355551
 10
27.90636511844064
 20
105.07722510651693
 10
27.63645212583108
 20
104.1247743717543
 10
27.73672585956021
 20
95.7360587310213
 10
44.832008246381534
 20
95.61728869516806
 10
62.49790279192112
 20
95.7133816967289
 10
62.60389016960091
 20
106.70493787858639
 10
62.46569635200524
 20
107.11545462725599
 10
60.12362995676457
 20
110.67961943419174
 10
59.77834394057231
 20
111.55301669115607
 10
59.66809595146309
 20
118.64826586600525
 10
58.878982502591846
 20
118.7695960385137
 10
34.32771572741256
 20
118.72277343040305
 10
27.8887996303212
 20
118.56790857869136
 10
27.756554660148858
 20
118.4474447333149
  0
LWPOLYLINE
  5
4D
330
17
100
AcDbEntity
  8
roads
100
AcDbPolyline
 90
15
 70
1
 10
15.472656912553695
 20
163.63839656225514
 10
48.64024218466338
 20
163.10757225881162
 10
52.75929807077205
 20
162.6432764193479
 10
57.729260838584985
 20
161.40296913908466
 10
62.38261432861185
 20
159.6646906484578
 10
62.50205521428271
 20
159.81172050007947
 10
62.487398386846095
 20
166.8221930818762
 10
62.340280203520834
 20
166.9425271308099
 10
35.70043595044913
 20
166.977736603158
 10
28.53018511285615
 20
167.4945786855529
 10
23.498839616841323
 20
166.97867373940096
 10
15.495203464791315
 20
166.93516367862662
 10
15.34608774727678
 20
166.80015314319357
 10
15.339014911134564
 20
163.78781834737475
 10
15.472656912553695
 20
163.63839656225514
  0
LWPOLYLINE
  5
4E
330
17
100
AcDbEntity
  8
roads
100
AcDbPolyline
 90
7
 70
1
 10
27.64647283720191
 20
94.3862040076818
 10
27.373032179980736
 20
71.92083036582308
 10
62.04367759559113
 20
72.03282721657607
 10
62.3938128869536
 20
75.466877794252
 10
62.40566857453101
 20
94.62297303064081
 10
27.76770370967514
 20
94.53109135911042
 10
27.64647283720191
 20
94.3862040076818
  0
LWPOLYLINE
  5
4F
330
17
100
AcDbEntity
  8
roads
100
AcDbPolyline
 90
10
 70
1
 10
17.651819679865135
 20
70.65536136538898
 10
17.509334152691004
 20
70.54963210805427
 10
17.56737279125401
 20
70.3819648251861
 10
19.917859827355546
 20
69.29813630524126
 10
21.8687071762111
 20
67.78414501456601
 10
22.964447576168553
 20
66.5404614696543
 10
25.99256085408725
 20
62.486471548905406
 10
26.216150244980444
 20
62.47031194328346
 10
26.230302291716345
 20
70.66162425816178
 10
17.651819679865135
 20
70.65536136538898
  0
ENDSEC
  0
SECTION
  2
OBJECTS
  0
DICTIONARY
  5
A
330
0
100
AcDbDictionary
281
1
  3
ACAD_COLOR
350
B
  3
ACAD_GROUP
350
C
  3
ACAD_LAYOUT
350
D
  3
ACAD_MATERIAL
350
E
  3
ACAD_MLEADERSTYLE
350
F
  3
ACAD_MLINESTYLE
350
10
  3
ACAD_PLOTSETTINGS
350
11
  3
ACAD_PLOTSTYLENAME
350
12
  3
ACAD_SCALELIST
350
14
  3
ACAD_TABLESTYLE
350
15
  3
ACAD_VISUALSTYLE
350
16
  3
EZDXF_META
350
2D
  0
DICTIONARY
  5
B
330
A
100
AcDbDictionary
281
1
  0
DICTIONARY
  5
C
330
A
100
AcDbDictionary
281
1
  0
DICTIONARY
  5
D
330
A
100
AcDbDictionary
281
1
  3
Model
350
1A
  3
Layout1
350
1E
  0
DICTIONARY
  5
E
330
A
100
AcDbDictionary
281
1
  3
ByBlock
350
1F
  3
ByLayer
350
20
  3
Global
350
21
  0
DICTIONARY
  5
F
330
A
100
AcDbDictionary
281
1
  3
Standard
350
2C
  0
DICTIONARY
  5
10
330
A
100
AcDbDictionary
281
1
  3
Standard
350
22
  0
DICTIONARY
  5
11
330
A
100
AcDbDictionary
281
1
  0
ACDBDICTIONARYWDFLT
  5
12
330
A
100
AcDbDictionary
281
1
  3
Normal
350
13
100
AcDbDictionaryWithDefault
340
13
  0
ACDBPLACEHOLDER
  5
13
330
12
  0
DICTIONARY
  5
14
330
A
100
AcDbDictionary
281
1
  0
DICTIONARY
  5
15
330
A
100
AcDbDictionary
281
1
  0
DICTIONARY
  5
16
330
A
100
AcDbDictionary
281
1
  0
LAYOUT
  5
1A
330
D
100
AcDbPlotSettings
  1

  4
A3
  6

 40
7.5
 41
20.0
 42
7.5
 43
20.0
 44
420.0
 45
297.0
 46
0.0
 47
0.0
 48
0.0
 49
0.0
140
0.0
141
0.0
142
1.0
143
1.0
 70
1024
 72
1
 73
0
 74
5
  7

 75
16
 76
0
 77
2
 78
300
147
1.0
148
0.0
149
0.0
100
AcDbLayout
  1
Model
 70
1
 71
0
 10
0.0
 20
0.0
 11
420.0
 21
297.0
 12
0.0
 22
0.0
 32
0.0
 14
1e+20
 24
1e+20
 34
1e+20
 15
-1e+20
 25
-1e+20
 35
-1e+20
146
0.0
 13
0.0
 23
0.0
 33
0.0
 16
1.0
 26
0.0
 36
0.0
 17
0.0
 27
1.0
 37
0.0
 76
1
330
17
  0
LAYOUT
  5
1E
330
D
100
AcDbPlotSettings
  1

  4
A3
  6

 40
7.5
 41
20.0
 42
7.5
 43
20.0
 44
420.0
 45
297.0
 46
0.0
 47
0.0
 48
0.0
 49
0.0
140
0.0
141
0.0
142
1.0
143
1.0
 70
0
 72
1
 73
0
 74
5
  7

 75
16
 76
0
 77
2
 78
300
147
1.0
148
0.0
149
0.0
100
AcDbLayout
  1
Layout1
 70
1
 71
1
 10
0.0
 20
0.0
 11
420.0
 21
297.0
 12
0.0
 22
0.0
 32
0.0
 14
1e+20
 24
1e+20
 34
1e+20
 15
-1e+20
 25
-1e+20
 35
-1e+20
146
0.0
 13
0.0
 23
0.0
 33
0.0
 16
1.0
 26
0.0
 36
0.0
 17
0.0
 27
1.0
 37
0.0
 76
1
330
1B
  0
MATERIAL
  5
1F
102
{ACAD_REACTORS
330
E
102
}
330
E
100
AcDbMaterial
  1
ByBlock
  2

 70
0
 40
1.0
 71
1
 41
1.0
 91
-1023410177
 42
1.0
 72
1
  3

 73
1
 74
1
 75
1
 44
0.5
 73
0
 45
1.0
 46
1.0
 77
1
  4

 78
1
 79
1
170
1
 48
1.0
171
1
  6

172
1
173
1
174
1
140
1.0
141
1.0
175
1
  7

176
1
177
1
178
1
143
1.0
179
1
  8

270
1
271
1
272
1
145
1.0
146
1.0
273
1
  9

274
1
275
1
276
1
 42
1.0
 72
1
  3

 73
1
 74
1
 75
1
 94
63
  0
MATERIAL
  5
20
102
{ACAD_REACTORS
330
E
102
}
330
E
100
AcDbMaterial
  1
ByLayer
  2

 70
0
 40
1.0
 71
1
 41
1.0
 91
-1023410177
 42
1.0
 72
1
  3

 73
1
 74
1
 75
1
 44
0.5
 73
0
 45
1.0
 46
1.0
 77
1
  4

 78
1
 79
1
170
1
 48
1.0
171
1
  6

172
1
173
1
174
1
140
1.0
141
1.0
175
1
  7

176
1
177
1
178
1
143
1.0
179
1
  8

270
1
271
1
272
1
145
1.0
146
1.0
273
1
  9

274
1
275
1
276
1
 42
1.0
 72
1
  3

 73
1
 74
1
 75
1
 94
63
  0
MATERIAL
  5
21
102
{ACAD_REACTORS
330
E
102
}
330
E
100
AcDbMaterial
  1
Global
  2

 70
0
 40
1.0
 71
1
 41
1.0
 91
-1023410177
 42
1.0
 72
1
  3

 73
1
 74
1
 75
1
 44
0.5
 73
0
 45
1.0
 46
1.0
 77
1
  4

 78
1
 79
1
170
1
 48
1.0
171
1
  6

172
1
173
1
174
1
140
1.0
141
1.0
175
1
  7

176
1
177
1
178
1
143
1.0
179
1
  8

270
1
271
1
272
1
145
1.0
146
1.0
273
1
  9

274
1
275
1
276
1
 42
1.0
 72
1
  3

 73
1
 74
1
 75
1
 94
63
  0
MLINESTYLE
  5
22
102
{ACAD_REACTORS
330
10
102
}
330
10
100
AcDbMlineStyle
  2
Standard
 70
0
  3

 62
256
 51
90.0
 52
90.0
 71
2
 49
0.5
 62
256
  6
BYLAYER
 49
-0.5
 62
256
  6
BYLAYER
  0
MLEADERSTYLE
  5
2C
102
{ACAD_REACTORS
330
F
102
}
330
F
100
AcDbMLeaderStyle
179
2
170
2
171
1
172
0
 90
2
 40
0.0
 41
0.0
173
1
 91
-1056964608
 92
-2
290
1
 42
2.0
291
1
 43
8.0
  3
Standard
 44
4.0
300

342
29
174
1
175
1
176
0
178
1
 93
-1056964608
 45
4.0
292
0
297
0
 46
4.0
 94
-1056964608
 47
1.0
 49
1.0
140
1.0
294
1
141
0.0
177
0
142
1.0
295
0
296
0
143
3.75
271
0
272
9
273
9
  0
DICTIONARY
  5
2D
330
A
100
AcDbDictionary
280
1
281
1
  3
CREATED_BY_EZDXF
350
2E
  3
WRITTEN_BY_EZDXF
350
52
  0
DICTIONARYVAR
  5
2E
330
2D
100
DictionaryVariables
280
0
  1
1.4.3 @ 2026-04-06T15:27:11.069637+00:00
  0
DICTIONARYVAR
  5
52
330
2D
100
DictionaryVariables
280
0
  1
1.4.3 @ 2026-04-06T15:27:11.072822+00:00
  0
ENDSEC
  0
EOF
