  0
SECTION
  2
HEADER
  9
$ACADVER
  1
AC1024
  9
$ACADMAINTVER
 70
6
  9
$DWGCODEPAGE
  3
ANSI_1252
  9
$LASTSAVEDBY
  1
ezdxf
  9
$INSBASE
 10
0.0
 20
0.0
 30
0.0
  9
$EXTMIN
 10
1e+20
 20
1e+20
 30
1e+20
  9
$EXTMAX
 10
-1e+20
 20
-1e+20
 30
-1e+20
  9
$LIMMIN
 10
0.0
 20
0.0
  9
$LIMMAX
 10
420.0
 20
297.0
  9
$ORTHOMODE
 70
0
  9
$REGENMODE
 70
1
  9
$FILLMODE
 70
1
  9
$QTEXTMODE
 70
0
  9
$MIRRTEXT
 70
1
  9
$LTSCALE
 40
1.0
  9
$ATTMODE
 70
1
  9
$TEXTSIZE
 40
2.5
  9
$TRACEWID
 40
1.0
  9
$TEXTSTYLE
  7
Standard
  9
$CLAYER
  8
0
  9
$CELTYPE
  6
ByLayer
  9
$CECOLOR
 62
256
  9
$CELTSCALE
 40
1.0
  9
$DISPSILH
 70
0
  9
$DIMSCALE
 40
1.0
  9
$DIMASZ
 40
2.5
  9
$DIMEXO
 40
0.625
  9
$DIMDLI
 40
3.75
  9
$DIMRND
 40
0.0
  9
$DIMDLE
 40
0.0
  9
$DIMEXE
 40
1.25
  9
$DIMTP
 40
0.0
  9
$DIMTM
 40
0.0
  9
$DIMTXT
 40
2.5
  9
$DIMCEN
 40
2.5
  9
$DIMTSZ
 40
0.0
  9
$DIMTOL
 70
0
  9
$DIMLIM
 70
0
  9
$DIMTIH
 70
0
  9
$DIMTOH
 70
0
  9
$DIMSE1
 70
0
  9
$DIMSE2
 70
0
  9
$DIMTAD
 70
1
  9
$DIMZIN
 70
8
  9
$DIMBLK
  1

  9
$DIMASO
 70
1
  9
$DIMSHO
 70
1
  9
$DIMPOST
  1

  9
$DIMAPOST
  1

  9
$DIMALT
 70
0
  9
$DIMALTD
 70
3
  9
$DIMALTF
 40
0.03937007874
  9
$DIMLFAC
 40
1.0
  9
$DIMTOFL
 70
1
  9
$DIMTVP
 40
0.0
  9
$DIMTIX
 70
0
  9
$DIMSOXD
 70
0
  9
$DIMSAH
 70
0
  9
$DIMBLK1
  1

  9
$DIMBLK2
  1

  9
$DIMSTYLE
  2
ISO-25
  9
$DIMCLRD
 70
0
  9
$DIMCLRE
 70
0
  9
$DIMCLRT
 70
0
  9
$DIMTFAC
 40
1.0
  9
$DIMGAP
 40
0.625
  9
$DIMJUST
 70
0
  9
$DIMSD1
 70
0
  9
$DIMSD2
 70
0
  9
$DIMTOLJ
 70
0
  9
$DIMTZIN
 70
8
  9
$DIMALTZ
 70
0
  9
$DIMALTTZ
 70
0
  9
$DIMUPT
 70
0
  9
$DIMDEC
 70
2
  9
$DIMTDEC
 70
2
  9
$DIMALTU
 70
2
  9
$DIMALTTD
 70
3
  9
$DIMTXSTY
  7
Standard
  9
$DIMAUNIT
 70
0
  9
$DIMADEC
 70
0
  9
$DIMALTRND
 40
0.0
  9
$DIMAZIN
 70
0
  9
$DIMDSEP
 70
44
  9
$DIMATFIT
 70
3
  9
$DIMFRAC
 70
0
  9
$DIMLDRBLK
  1

  9
$DIMLUNIT
 70
2
  9
$DIMLWD
 70
-2
  9
$DIMLWE
 70
-2
  9
$DIMTMOVE
 70
0
  9
$DIMFXL
 40
1.0
  9
$DIMFXLON
 70
0
  9
$DIMJOGANG
 40
0.785398163397
  9
$DIMTFILL
 70
0
  9
$DIMTFILLCLR
 70
0
  9
$DIMARCSYM
 70
0
  9
$DIMLTYPE
  6

  9
$DIMLTEX1
  6

  9
$DIMLTEX2
  6

  9
$DIMTXTDIRECTION
 70
0
  9
$LUNITS
 70
2
  9
$LUPREC
 70
4
  9
$SKETCHINC
 40
1.0
  9
$FILLETRAD
 40
10.0
  9
$AUNITS
 70
0
  9
$AUPREC
 70
2
  9
$MENU
  1
.
  9
$ELEVATION
 40
0.0
  9
$PELEVATION
 40
0.0
  9
$THICKNESS
 40
0.0
  9
$LIMCHECK
 70
0
  9
$CHAMFERA
 40
0.0
  9
$CHAMFERB
 40
0.0
  9
$CHAMFERC
 40
0.0
  9
$CHAMFERD
 40
0.0
  9
$SKPOLY
 70
0
  9
$TDCREATE
 40
2461133.4941898147
  9
$TDUCREATE
 40
2458532.153996898
  9
$TDUPDATE
 40
2461133.4941898147
  9
$TDUUPDATE
 40
2458532.1544311
  9
$TDINDWG
 40
0.0
  9
$TDUSRTIMER
 40
0.0
  9
$USRTIMER
 70
1
  9
$ANGBASE
 50
0.0
  9
$ANGDIR
 70
0
  9
$PDMODE
 70
0
  9
$PDSIZE
 40
0.0
  9
$PLINEWID
 40
0.0
  9
$SPLFRAME
 70
0
  9
$SPLINETYPE
 70
6
  9
$SPLINESEGS
 70
8
  9
$HANDSEED
  5
A0
  9
$SURFTAB1
 70
6
  9
$SURFTAB2
 70
6
  9
$SURFTYPE
 70
6
  9
$SURFU
 70
6
  9
$SURFV
 70
6
  9
$UCSBASE
  2

  9
$UCSNAME
  2

  9
$UCSORG
 10
0.0
 20
0.0
 30
0.0
  9
$UCSXDIR
 10
1.0
 20
0.0
 30
0.0
  9
$UCSYDIR
 10
0.0
 20
1.0
 30
0.0
  9
$UCSORTHOREF
  2

  9
$UCSORTHOVIEW
 70
0
  9
$UCSORGTOP
 10
0.0
 20
0.0
 30
0.0
  9
$UCSORGBOTTOM
 10
0.0
 20
0.0
 30
0.0
  9
$UCSORGLEFT
 10
0.0
 20
0.0
 30
0.0
  9
$UCSORGRIGHT
 10
0.0
 20
0.0
 30
0.0
  9
$UCSORGFRONT
 10
0.0
 20
0.0
 30
0.0
  9
$UCSORGBACK
 10
0.0
 20
0.0
 30
0.0
  9
$PUCSBASE
  2

  9
$PUCSNAME
  2

  9
$PUCSORG
 10
0.0
 20
0.0
 30
0.0
  9
$PUCSXDIR
 10
1.0
 20
0.0
 30
0.0
  9
$PUCSYDIR
 10
0.0
 20
1.0
 30
0.0
  9
$PUCSORTHOREF
  2

  9
$PUCSORTHOVIEW
 70
0
  9
$PUCSORGTOP
 10
0.0
 20
0.0
 30
0.0
  9
$PUCSORGBOTTOM
 10
0.0
 20
0.0
 30
0.0
  9
$PUCSORGLEFT
 10
0.0
 20
0.0
 30
0.0
  9
$PUCSORGRIGHT
 10
0.0
 20
0.0
 30
0.0
  9
$PUCSORGFRONT
 10
0.0
 20
0.0
 30
0.0
  9
$PUCSORGBACK
 10
0.0
 20
0.0
 30
0.0
  9
$USERI1
 70
0
  9
$USERI2
 70
0
  9
$USERI3
 70
0
  9
$USERI4
 70
0
  9
$USERI5
 70
0
  9
$USERR1
 40
0.0
  9
$USERR2
 40
0.0
  9
$USERR3
 40
0.0
  9
$USERR4
 40
0.0
  9
$USERR5
 40
0.0
  9
$WORLDVIEW
 70
1
  9
$SHADEDGE
 70
3
  9
$SHADEDIF
 70
70
  9
$TILEMODE
 70
1
  9
$MAXACTVP
 70
64
  9
$PINSBASE
 10
0.0
 20
0.0
 30
0.0
  9
$PLIMCHECK
 70
0
  9
$PEXTMIN
 10
1e+20
 20
1e+20
 30
1e+20
  9
$PEXTMAX
 10
-1e+20
 20
-1e+20
 30
-1e+20
  9
$PLIMMIN
 10
0.0
 20
0.0
  9
$PLIMMAX
 10
420.0
 20
297.0
  9
$UNITMODE
 70
0
  9
$VISRETAIN
 70
1
  9
$PLINEGEN
 70
0
  9
$PSLTSCALE
 70
1
  9
$TREEDEPTH
 70
3020
  9
$CMLSTYLE
  2
Standard
  9
$CMLJUST
 70
0
  9
$CMLSCALE
 40
20.0
  9
$PROXYGRAPHICS
 70
1
  9
$MEASUREMENT
 70
1
  9
$CELWEIGHT
370
-1
  9
$ENDCAPS
280
0
  9
$JOINSTYLE
280
0
  9
$LWDISPLAY
290
0
  9
$INSUNITS
 70
6
  9
$HYPERLINKBASE
  1

  9
$STYLESHEET
  1

  9
$XEDIT
290
1
  9
$CEPSNTYPE
380
0
  9
$PSTYLEMODE
290
1
  9
$FINGERPRINTGUID
  2
{FEE2C9D3-4A07-4DB1-98C8-367DF06F4CBB}
  9
$VERSIONGUID
  2
{DEA3AB3B-F611-4ACE-85F6-011437D1979C}
  9
$EXTNAMES
290
1
  9
$PSVPSCALE
 40
0.0
  9
$OLESTARTUP
290
0
  9
$SORTENTS
280
127
  9
$INDEXCTL
280
0
  9
$HIDETEXT
280
1
  9
$XCLIPFRAME
280
1
  9
$HALOGAP
280
0
  9
$OBSCOLOR
 70
257
  9
$OBSLTYPE
280
0
  9
$INTERSECTIONDISPLAY
280
0
  9
$INTERSECTIONCOLOR
 70
257
  9
$DIMASSOC
280
2
  9
$PROJECTNAME
  1

  9
$CAMERADISPLAY
290
0
  9
$LENSLENGTH
 40
50.0
  9
$CAMERAHEIGHT
 40
0.0
  9
$STEPSPERSEC
 40
24.0
  9
$STEPSIZE
 40
100.0
  9
$3DDWFPREC
 40
2.0
  9
$PSOLWIDTH
 40
0.005
  9
$PSOLHEIGHT
 40
0.08
  9
$LOFTANG1
 40
1.570796326795
  9
$LOFTANG2
 40
1.570796326795
  9
$LOFTMAG1
 40
0.0
  9
$LOFTMAG2
 40
0.0
  9
$LOFTPARAM
 70
7
  9
$LOFTNORMALS
280
1
  9
$LATITUDE
 40
37.795
  9
$LONGITUDE
 40
-122.394
  9
$NORTHDIRECTION
 40
0.0
  9
$TIMEZONE
 70
-8000
  9
$LIGHTGLYPHDISPLAY
280
1
  9
$TILEMODELIGHTSYNCH
280
1
  9
$CMATERIAL
347
20
  9
$SOLIDHIST
280
0
  9
$SHOWHIST
280
1
  9
$DWFFRAME
280
2
  9
$DGNFRAME
280
2
  9
$REALWORLDSCALE
290
1
  9
$INTERFERECOLOR
 62
256
  9
$CSHADOW
280
0
  9
$SHADOWPLANELOCATION
 40
0.0
  0
ENDSEC
  0
SECTION
  2
CLASSES
  0
CLASS
  1
ACDBDICTIONARYWDFLT
  2
AcDbDictionaryWithDefault
  3
ObjectDBX Classes
 90
0
 91
0
280
0
281
0
  0
CLASS
  1
SUN
  2
AcDbSun
  3
SCENEOE
 90
1153
 91
0
280
0
281
0
  0
CLASS
  1
VISUALSTYLE
  2
AcDbVisualStyle
  3
ObjectDBX Classes
 90
4095
 91
0
280
0
281
0
  0
CLASS
  1
MATERIAL
  2
AcDbMaterial
  3
ObjectDBX Classes
 90
1153
 91
0
280
0
281
0
  0
CLASS
  1
SCALE
  2
AcDbScale
  3
ObjectDBX Classes
 90
1153
 91
0
280
0
281
0
  0
CLASS
  1
TABLESTYLE
  2
AcDbTableStyle
  3
ObjectDBX Classes
 90
4095
 91
0
280
0
281
0
  0
CLASS
  1
MLEADERSTYLE
  2
AcDbMLeaderStyle
  3
ACDB_MLEADERSTYLE_CLASS
 90
4095
 91
0
280
0
281
0
  0
CLASS
  1
DICTIONARYVAR
  2
AcDbDictionaryVar
  3
ObjectDBX Classes
 90
0
 91
0
280
0
281
0
  0
CLASS
  1
CELLSTYLEMAP
  2
AcDbCellStyleMap
  3
ObjectDBX Classes
 90
1152
 91
0
280
0
281
0
  0
CLASS
  1
MENTALRAYRENDERSETTINGS
  2
AcDbMentalRayRenderSettings
  3
SCENEOE
 90
1024
 91
0
280
0
281
0
  0
CLASS
  1
ACDBDETAILVIEWSTYLE
  2
AcDbDetailViewStyle
  3
ObjectDBX Classes
 90
1025
 91
0
280
0
281
0
  0
CLASS
  1
ACDBSECTIONVIEWSTYLE
  2
AcDbSectionViewStyle
  3
ObjectDBX Classes
 90
1025
 91
0
280
0
281
0
  0
CLASS
  1
RASTERVARIABLES
  2
AcDbRasterVariables
  3
ISM
 90
0
 91
0
280
0
281
0
  0
CLASS
  1
ACDBPLACEHOLDER
  2
AcDbPlaceHolder
  3
ObjectDBX Classes
 90
0
 91
0
280
0
281
0
  0
CLASS
  1
LAYOUT
  2
AcDbLayout
  3
ObjectDBX Classes
 90
0
 91
0
280
0
281
0
  0
ENDSEC
  0
SECTION
  2
TABLES
  0
TABLE
  2
VPORT
  5
8
330
0
100
AcDbSymbolTable
 70
1
  0
VPORT
  5
23
330
8
100
AcDbSymbolTableRecord
100
AcDbViewportTableRecord
  2
*Active
 70
0
 10
0.0
 20
0.0
 11
1.0
 21
1.0
 12
0.0
 22
0.0
 13
0.0
 23
0.0
 14
0.5
 24
0.5
 15
0.5
 25
0.5
 16
0.0
 26
0.0
 36
1.0
 17
0.0
 27
0.0
 37
0.0
 40
1000.0
 41
1.34
 42
50.0
 43
0.0
 44
0.0
 50
0.0
 51
0.0
 71
0
 72
1000
 73
1
 74
3
 75
0
 76
0
 77
0
 78
0
281
0
 65
0
146
0.0
  0
ENDTAB
  0
TABLE
  2
LTYPE
  5
2
330
0
100
AcDbSymbolTable
 70
3
  0
LTYPE
  5
24
330
2
100
AcDbSymbolTableRecord
100
AcDbLinetypeTableRecord
  2
ByBlock
 70
0
  3

 72
65
 73
0
 40
0.0
  0
LTYPE
  5
25
330
2
100
AcDbSymbolTableRecord
100
AcDbLinetypeTableRecord
  2
ByLayer
 70
0
  3

 72
65
 73
0
 40
0.0
  0
LTYPE
  5
26
330
2
100
AcDbSymbolTableRecord
100
AcDbLinetypeTableRecord
  2
Continuous
 70
0
  3

 72
65
 73
0
 40
0.0
  0
ENDTAB
  0
TABLE
  2
LAYER
  5
1
330
0
100
AcDbSymbolTable
 70
3
  0
LAYER
  5
27
330
1
100
AcDbSymbolTableRecord
100
AcDbLayerTableRecord
  2
0
 70
0
 62
7
  6
Continuous
370
-3
390
13
347
21
  0
LAYER
  5
28
330
1
100
AcDbSymbolTableRecord
100
AcDbLayerTableRecord
  2
Defpoints
 70
0
 62
7
  6
Continuous
290
0
370
-3
390
13
347
21
  0
LAYER
  5
2F
330
1
100
AcDbSymbolTableRecord
100
AcDbLayerTableRecord
  2
water_bodies
 70
0
 62
7
  6
Continuous
370
-3
390
13
347
21
  0
ENDTAB
  0
TABLE
  2
STYLE
  5
5
330
0
100
AcDbSymbolTable
 70
1
  0
STYLE
  5
29
330
5
100
AcDbSymbolTableRecord
100
AcDbTextStyleTableRecord
  2
Standard
 70
0
 40
0.0
 41
1.0
 50
0.0
 71
0
 42
2.5
  3
txt
  4

  0
ENDTAB
  0
TABLE
  2
VIEW
  5
7
330
0
100
AcDbSymbolTable
 70
0
  0
ENDTAB
  0
TABLE
  2
UCS
  5
6
330
0
100
AcDbSymbolTable
 70
0
  0
ENDTAB
  0
TABLE
  2
APPID
  5
3
330
0
100
AcDbSymbolTable
 70
3
  0
APPID
  5
2A
330
3
100
AcDbSymbolTableRecord
100
AcDbRegAppTableRecord
  2
ACAD
 70
0
  0
APPID
  5
9D
330
3
100
AcDbSymbolTableRecord
100
AcDbRegAppTableRecord
  2
HATCHBACKGROUNDCOLOR
 70
0
  0
APPID
  5
9E
330
3
100
AcDbSymbolTableRecord
100
AcDbRegAppTableRecord
  2
EZDXF
 70
0
  0
ENDTAB
  0
TABLE
  2
DIMSTYLE
  5
4
330
0
100
AcDbSymbolTable
 70
1
100
AcDbDimStyleTable
  0
DIMSTYLE
105
2B
330
4
100
AcDbSymbolTableRecord
100
AcDbDimStyleTableRecord
  2
Standard
 70
0
 40
1.0
 41
2.5
 42
0.625
 43
3.75
 44
1.25
 45
0.0
 46
0.0
 47
0.0
 48
0.0
 49
2.5
140
2.5
141
2.5
142
0.0
143
0.03937007874
144
1.0
145
0.0
146
1.0
147
0.625
148
0.0
 69
0
 70
0
 71
0
 72
0
 73
0
 74
0
 75
0
 76
0
 77
1
 78
8
 79
3
170
0
171
3
172
1
173
0
174
0
175
0
176
0
177
0
178
0
179
2
271
2
272
2
273
2
274
3
275
0
276
0
277
2
278
44
279
0
280
0
281
0
282
0
283
0
284
8
285
0
286
0
288
0
289
3
290
0
371
-2
372
-2
  0
ENDTAB
  0
TABLE
  2
BLOCK_RECORD
  5
9
330
0
100
AcDbSymbolTable
 70
2
  0
BLOCK_RECORD
  5
17
330
9
100
AcDbSymbolTableRecord
100
AcDbBlockTableRecord
  2
*Model_Space
340
1A
 70
0
280
1
281
0
  0
BLOCK_RECORD
  5
1B
330
9
100
AcDbSymbolTableRecord
100
AcDbBlockTableRecord
  2
*Paper_Space
340
1E
 70
0
280
1
281
0
  0
ENDTAB
  0
ENDSEC
  0
SECTION
  2
BLOCKS
  0
BLOCK
  5
18
330
17
100
AcDbEntity
  8
0
100
AcDbBlockBegin
  2
*Model_Space
 70
0
 10
0.0
 20
0.0
 30
0.0
  3
*Model_Space
  1

  0
ENDBLK
  5
19
330
17
100
AcDbEntity
  8
0
100
AcDbBlockEnd
  0
BLOCK
  5
1C
330
1B
100
AcDbEntity
  8
0
100
AcDbBlockBegin
  2
*Paper_Space
 70
0
 10
0.0
 20
0.0
 30
0.0
  3
*Paper_Space
  1

  0
ENDBLK
  5
1D
330
1B
100
AcDbEntity
  8
0
100
AcDbBlockEnd
  0
ENDSEC
  0
SECTION
  2
ENTITIES
  0
LWPOLYLINE
  5
30
330
17
100
AcDbEntity
  8
water_bodies
100
AcDbPolyline
 90
18
 70
1
 10
-202.47892936983374
 20
277.99790094999736
 10
-206.2456781001863
 20
276.466085687501
 10
-207.75032262849783
 20
276.0641449749991
 10
-207.8366311100408
 20
276.36088682499866
 10
-207.57784266299342
 20
276.9161324125016
 10
-205.8622218464635
 20
278.5052167374911
 10
-205.60343339941613
 20
278.9168491374935
 10
-205.59384356811842
 20
279.481610199995
 10
-205.13380566173197
 20
279.8550044875013
 10
-204.37661998314627
 20
280.26646067500167
 10
-203.69615295482538
 20
280.41976555000275
 10
-202.03807112598423
 20
280.25694519999064
 10
-201.3863735915175
 20
280.41976555000275
 10
-201.03168683162943
 20
280.66857759999306
 10
-200.61959808165358
 20
281.6354555874984
 10
-200.22668899423422
 20
281.89378311249976
 10
-196.78585752989608
 20
282.3820679499965
 10
-202.47892936983374
 20
277.99790094999736
  0
LWPOLYLINE
  5
31
330
17
100
AcDbEntity
  8
water_bodies
100
AcDbPolyline
 90
8
 70
1
 10
-200.59082858779942
 20
284.09555829999994
 10
-199.37360500280784
 20
285.78984148749174
 10
-195.68371192030168
 20
286.1535440874975
 10
-196.45994026386217
 20
285.12939703749896
 10
-198.08938959643075
 20
284.59335861249514
 10
-199.44073382179437
 20
284.41133109999646
 10
-200.59082858779942
 20
283.90401531250274
 10
-200.59082858779942
 20
284.09555829999994
  0
LWPOLYLINE
  5
32
330
17
100
AcDbEntity
  8
water_bodies
100
AcDbPolyline
 90
13
 70
1
 10
-190.80522774905694
 20
287.02456247499697
 10
-189.377164873448
 20
287.6946986124903
 10
-188.3516009165172
 20
287.83813558750126
 10
-189.3196258857397
 20
286.4310787749979
 10
-189.65513298305183
 20
285.1676351499951
 10
-189.8563824424104
 20
285.0527445999922
 10
-190.987297545859
 20
285.0814672375023
 10
-192.33877876880422
 20
283.8370545624965
 10
-195.85619188580603
 20
282.8798682624917
 10
-195.98072269489978
 20
283.1096493624975
 10
-192.57838755329522
 20
285.07195176249127
 10
-191.35157413700585
 20
286.5364538500023
 10
-190.80522774905694
 20
287.02456247499697
  0
LWPOLYLINE
  5
33
330
17
100
AcDbEntity
  8
water_bodies
100
AcDbPolyline
 90
14
 70
1
 10
-315.39152086180343
 20
286.26737736250055
 10
-317.32346087256605
 20
285.73063408750096
 10
-318.4273874508189
 20
284.9473695250003
 10
-318.84851804172706
 20
284.7297470874988
 10
-319.1536116741277
 20
284.7586459374985
 10
-318.55808315145566
 20
285.83213248749763
 10
-316.0451363625298
 20
287.8631577624932
 10
-314.0697681158421
 20
288.5158488624955
 10
-312.9513197930611
 20
289.6184104749963
 10
-312.167008591698
 20
289.8214072750022
 10
-311.89095844833423
 20
289.7489839374947
 10
-312.47196522649756
 20
288.9366443124923
 10
-314.7814705946227
 20
286.6590977499957
 10
-315.39152086180343
 20
286.26737736250055
  0
LWPOLYLINE
  5
34
330
17
100
AcDbEntity
  8
water_bodies
100
AcDbPolyline
 90
36
 70
1
 10
-438.9169046394772
 20
299.54111256249985
 10
-440.040558870652
 20
296.9428592499991
 10
-441.72617721503474
 20
294.30143387499464
 10
-445.39990458193586
 20
290.06281839999366
 10
-448.53769737773393
 20
286.9894961875004
 10
-450.17139363558596
 20
285.9017364249972
 10
-451.0357114293674
 20
285.53909109999125
 10
-454.57120822821423
 20
285.142084337497
 10
-456.67165527436106
 20
284.5981163500006
 10
-457.99423000587046
 20
283.9507116249975
 10
-459.3252985879468
 20
283.7003136625012
 10
-463.4657767431623
 20
284.37379783749606
 10
-466.352863949696
 20
285.0816434499918
 10
-467.3058191840443
 20
285.48199825000023
 10
-469.8304107680896
 20
285.71512738749504
 10
-472.015385327121
 20
286.46720233749437
 10
-475.7491176383554
 20
288.3317067999971
 10
-477.1386841912504
 20
289.412241849991
 10
-478.7508718275025
 20
291.5625629874908
 10
-479.7373914713539
 20
292.5689125749942
 10
-481.12682102666713
 20
294.6663699625023
 10
-483.0467052495071
 20
296.7955455999929
 10
-484.0862429605811
 20
297.0496440249949
 10
-486.3879394660865
 20
299.0834886999983
 10
-487.5654337500516
 20
299.6026107249923
 10
-489.71862486825785
 20
301.3502862999946
 10
-491.47945488939075
 20
302.15522499999815
 10
-492.4870721620581
 20
303.03434916249216
 10
-488.5663648230872
 20
303.2471182993225
 10
-492.18786942603714
 20
305.018854337495
 10
-440.3537353608356
 20
306.0763055499945
 10
-440.3822677019046
 20
305.8619752287137
 10
-437.624469377716
 20
306.01163556249
 10
-438.4242613067175
 20
302.7435985375001
 10
-439.0119809667697
 20
301.181122299996
 10
-438.9169046394772
 20
299.54111256249985
  0
LWPOLYLINE
  5
35
330
17
100
AcDbEntity
  8
water_bodies
100
AcDbPolyline
 90
14
 70
1
 10
-616.8573200757546
 20
296.65757121249567
 10
-615.481727277003
 20
296.508671649996
 10
-614.8685260652503
 20
296.29351618749837
 10
-615.6143409438993
 20
295.39976638749613
 10
-616.1446586138443
 20
295.03553514999675
 10
-617.3379076206305
 20
294.65491614999365
 10
-619.9968938402111
 20
294.11834908749614
 10
-620.5698177605719
 20
294.1583493250003
 10
-621.0338285970786
 20
294.5720962750024
 10
-621.1498655556055
 20
295.03553514999675
 10
-620.1719767599221
 20
295.6975655124955
 10
-618.4152566664716
 20
295.9789768749912
 10
-617.569981537665
 20
296.52523562500176
 10
-616.8573200757546
 20
296.65757121249567
  0
LWPOLYLINE
  5
36
330
17
100
AcDbEntity
  8
water_bodies
100
AcDbPolyline
 90
25
 70
1
 10
-613.7911770194092
 20
294.406632737497
 10
-612.5979280126229
 20
295.49897402499107
 10
-612.1835103036232
 20
296.29351618749837
 10
-611.4708488416934
 20
296.29351618749837
 10
-609.2334042057852
 20
297.1375740624958
 10
-607.3606471538272
 20
297.36929349999923
 10
-605.6866736045833
 20
297.28647362499544
 10
-599.0242068195291
 20
298.51132671249803
 10
-596.6541485167443
 20
298.54445466249706
 10
-594.5327408393631
 20
298.8091258374974
 10
-593.786925960714
 20
299.0242812999951
 10
-593.4885452102218
 20
299.4050765125003
 10
-592.1792592449281
 20
299.57054004999316
 10
-591.2013704492447
 20
300.23257041249195
 10
-589.295459980548
 20
299.83538743749557
 10
-588.649105352076
 20
299.85195141250136
 10
-585.2184117093815
 20
299.04084527500083
 10
-581.8411471266936
 20
298.8928267749989
 10
-581.1971214572455
 20
298.63890456249896
 10
-579.9637321566684
 20
298.51573202499947
 10
-619.7131718318287
 20
292.02653049999134
 10
-618.2863419345127
 20
292.5142866999944
 10
-617.0728172844391
 20
292.6688250624974
 10
-615.8297011549827
 20
293.2480355499924
 10
-613.7911770194092
 20
294.406632737497
  0
LWPOLYLINE
  5
37
330
17
100
AcDbEntity
  8
water_bodies
100
AcDbPolyline
 90
12
 70
1
 10
-170.89934095982744
 20
296.65105134999465
 10
-171.5318588317183
 20
295.54091259999285
 10
-172.10697471352137
 20
295.5599435499899
 10
-172.40398548811953
 20
295.85668540000194
 10
-173.01746069505498
 20
295.875892562501
 10
-175.55725901155603
 20
295.3111314999996
 10
-173.13240167285102
 20
296.73721926249993
 10
-172.64359427261041
 20
296.61281323749853
 10
-172.1261543760973
 20
296.7181883124904
 10
-171.57980798814833
 20
297.12012902499225
 10
-171.00469210634526
 20
297.03396111249947
 10
-170.89934095982744
 20
296.65105134999465
  0
LWPOLYLINE
  5
38
330
17
100
AcDbEntity
  8
water_bodies
100
AcDbPolyline
 90
10
 70
1
 10
-614.3957473830135
 20
299.0893037124912
 10
-614.0139351003481
 20
298.27361604999976
 10
-614.7245415984173
 20
298.1359940874941
 10
-615.5943392957946
 20
298.517317937493
 10
-616.6444258212766
 20
298.41141422499487
 10
-616.9308877814474
 20
298.60207614999433
 10
-616.9733570342815
 20
298.84560182499797
 10
-615.1382743194895
 20
299.3539748874915
 10
-614.7245415984173
 20
299.3222566374965
 10
-614.3957473830135
 20
299.0893037124912
  0
LWPOLYLINE
  5
39
330
17
100
AcDbEntity
  8
water_bodies
100
AcDbPolyline
 90
12
 70
1
 10
-611.521263954729
 20
300.7733665750013
 10
-609.611928546297
 20
300.69935732500034
 10
-608.4890963006509
 20
300.18869349999255
 10
-609.8559212536529
 20
299.5659585250022
 10
-610.8954589647271
 20
299.5871040249989
 10
-613.2501735374551
 20
298.6337944000019
 10
-613.5578701240623
 20
298.6443671500002
 10
-614.0669531675903
 20
299.2269256749968
 10
-614.8307147304832
 20
299.6612894875019
 10
-614.7139927840093
 20
299.8094841999934
 10
-612.8789100692171
 20
300.10604983749084
 10
-611.521263954729
 20
300.7733665750013
  0
LWPOLYLINE
  5
3A
330
17
100
AcDbEntity
  8
water_bodies
100
AcDbPolyline
 90
14
 70
1
 10
-567.3411852292646
 20
299.5389980125002
 10
-567.6169613774262
 20
299.3906270874942
 10
-569.2080513848623
 20
299.4436670500005
 10
-569.7385060524084
 20
299.7932726499917
 10
-570.1945710287137
 20
300.4817348874989
 10
-570.1096325230648
 20
300.81001877499136
 10
-568.5822463948604
 20
301.78447389999764
 10
-567.4791418021363
 20
302.0176030374925
 10
-566.3865860238394
 20
301.95399032500035
 10
-565.9729903003489
 20
301.3291407999979
 10
-566.1002610612309
 20
300.9264952375003
 10
-567.4791418021363
 20
300.10041103750007
 10
-567.5851779366205
 20
299.846136399996
 10
-567.3411852292646
 20
299.5389980125002
  0
LWPOLYLINE
  5
3B
330
17
100
AcDbEntity
  8
water_bodies
100
AcDbPolyline
 90
11
 70
1
 10
-596.5089310715988
 20
300.0730980999939
 10
-596.8589599134197
 20
300.66622937500136
 10
-597.2620068224827
 20
300.78270583749776
 10
-598.2803099071592
 20
300.7932785874961
 10
-598.4605987352638
 20
300.9310767624913
 10
-598.0363171998032
 20
301.5559262874937
 10
-597.1241872471927
 20
302.4139049499911
 10
-592.8389026395962
 20
302.0325810999923
 10
-594.7905703032807
 20
300.9627950124988
 10
-595.6073499334159
 20
300.82499683749114
 10
-596.5089310715988
 20
300.0730980999939
  0
LWPOLYLINE
  5
3C
330
17
100
AcDbEntity
  8
water_bodies
100
AcDbPolyline
 90
13
 70
1
 10
-579.0284496114009
 20
301.2699333999946
 10
-575.7614680884807
 20
302.47751766249576
 10
-575.1781323512935
 20
302.15963031249953
 10
-574.2022985194512
 20
302.19152477499665
 10
-574.2022985194512
 20
301.9689683875001
 10
-575.7827027148783
 20
300.8144240874928
 10
-576.5464642777713
 20
300.7404148374918
 10
-577.6177854296704
 20
300.95222226250047
 10
-579.187640810709
 20
300.12596184999813
 10
-579.710423613217
 20
300.1377680874984
 10
-579.9679790819519
 20
300.3404124625001
 10
-579.971130026524
 20
300.57407023750113
 10
-579.0284496114009
 20
301.2699333999946
  0
LWPOLYLINE
  5
3D
330
17
100
AcDbEntity
  8
water_bodies
100
AcDbPolyline
 90
10
 70
1
 10
-562.1437706690576
 20
301.2338098374982
 10
-565.1455248582241
 20
301.95399032500035
 10
-565.5062395120541
 20
302.1446522499998
 10
-565.6122756465189
 20
302.42007238750057
 10
-565.0289399093317
 20
302.7060652749997
 10
-562.4302326292477
 20
302.642452562495
 10
-560.6269333552806
 20
302.17637049999485
 10
-558.9404930253693
 20
301.2972463375008
 10
-559.4708106953143
 20
301.07486616249383
 10
-562.1437706690576
 20
301.2338098374982
  0
LWPOLYLINE
  5
3E
330
17
100
AcDbEntity
  8
water_bodies
100
AcDbPolyline
 90
10
 70
1
 10
-539.2536653821412
 20
302.5895888124908
 10
-540.5159611741735
 20
302.5471215999953
 10
-541.3963076859395
 20
302.7060652749997
 10
-540.1871669587503
 20
303.07681637500013
 10
-539.8476869313374
 20
303.45814022499894
 10
-539.3386038877901
 20
303.57461668749534
 10
-538.05507346936
 20
303.60633493749043
 10
-537.0760886929652
 20
303.2273018499933
 10
-537.142943516769
 20
303.0662436250018
 10
-539.2536653821412
 20
302.5895888124908
  0
LWPOLYLINE
  5
3F
330
17
100
AcDbEntity
  8
water_bodies
100
AcDbPolyline
 90
16
 70
1
 10
-549.9031730218813
 20
303.8075696125007
 10
-547.8029999709172
 20
305.0362993749985
 10
-547.3681696210291
 20
305.0257266250002
 10
-547.007454967199
 20
304.76087923749776
 10
-546.6468773109507
 20
304.7927736999948
 10
-544.917830730643
 20
304.17832071250115
 10
-545.405816145355
 20
303.65937489999675
 10
-546.7634622598431
 20
303.0449219124905
 10
-547.8667038501491
 20
303.03434916249216
 10
-548.3227688264542
 20
303.22501108749157
 10
-548.7788338027594
 20
302.98148541250043
 10
-550.2638876757112
 20
302.7060652749997
 10
-551.7700391774985
 20
302.67434702499213
 10
-551.5790645373847
 20
303.01320366249547
 10
-550.5396638238923
 20
303.0662436250018
 10
-549.9031730218813
 20
303.8075696125007
  0
LWPOLYLINE
  5
40
330
17
100
AcDbEntity
  8
water_bodies
100
AcDbPolyline
 90
47
 70
1
 10
-397.33731416275526
 20
318.1896814374937
 10
-393.43685578479506
 20
317.581748312501
 10
-392.35060189562284
 20
317.61452383749594
 10
-390.96815921738124
 20
317.95972412499833
 10
-389.75025064444253
 20
318.4691544624917
 10
-388.0057233364769
 20
319.8000874749944
 10
-387.660078417521
 20
320.37524507499216
 10
-387.82474952040565
 20
321.6240630624994
 10
-386.3533954064144
 20
322.92556858749623
 10
-385.58963384352137
 20
323.96398884999877
 10
-383.4830219058316
 20
325.50214776249413
 10
-379.9413602154418
 20
327.31607923749436
 10
-378.34821524416446
 20
328.64384042499756
 10
-376.51806444260285
 20
329.6427890874896
 10
-373.89798553850056
 20
330.27380604998905
 10
-371.2251625623584
 20
330.3920446374935
 10
-369.7506575037951
 20
329.9976810624925
 10
-367.9468102394821
 20
328.8935335374982
 10
-366.827676928754
 20
327.1715849874961
 10
-366.52491225539666
 20
326.1329885124915
 10
-366.16940350997993
 20
323.17526169999684
 10
-366.2220105844383
 20
321.63727899999105
 10
-366.88028400321235
 20
319.6654611249988
 10
-369.869160418947
 20
312.36920634999996
 10
-369.9086157247908
 20
311.9616268374948
 10
-370.4879785318773
 20
311.18593941249503
 10
-371.5412160019314
 20
307.5573716124988
 10
-371.6465671484492
 20
305.44070706249164
 10
-372.51554286027846
 20
302.9687981124899
 10
-373.3904094684679
 20
299.8013784249988
 10
-373.43397470199403
 20
299.00348822499
 10
-373.34684423492234
 20
297.8866533999976
 10
-373.02736585561405
 20
297.65458153749006
 10
-373.08545283366834
 20
295.05809034999737
 10
-372.70775047870467
 20
294.7245200874932
 10
-372.7803592012677
 20
293.97015437499215
 10
-371.8072653212331
 20
291.2866142124964
 10
-371.29886726565223
 20
290.64837253750017
 10
-370.90664316616045
 20
289.7343582999991
 10
-369.8898470549987
 20
288.3852753999971
 10
-368.1613484650369
 20
286.6879965999953
 10
-366.4038063860382
 20
284.45397452499395
 10
-407.5226739684071
 20
323.469184150001
 10
-405.3359184407173
 20
321.9692633499892
 10
-404.2496645515257
 20
321.50917251249643
 10
-402.67241130065116
 20
320.4878448624933
 10
-397.33731416275526
 20
318.1896814374937
  0
LWPOLYLINE
  5
41
330
17
100
AcDbEntity
  8
water_bodies
100
AcDbPolyline
 90
7
 70
1
 10
-437.1189482715049
 20
307.9052150874945
 10
-437.624469377716
 20
306.01163556249
 10
-436.0299544305251
 20
318.86351803749267
 10
-435.7171889331252
 20
317.22016026249497
 10
-435.7336286438935
 20
313.6707118749968
 10
-436.80782674516246
 20
309.87315628749155
 10
-437.1189482715049
 20
307.9052150874945
  0
LWPOLYLINE
  5
42
330
17
100
AcDbEntity
  8
water_bodies
100
AcDbPolyline
 90
15
 70
1
 10
-439.5683281787612
 20
322.41279021250125
 10
-438.8771753384507
 20
324.77914787499657
 10
-438.3175401842861
 20
325.6827655749888
 10
-436.7541236899927
 20
327.5395166874887
 10
-435.68430951156927
 20
328.47626233749247
 10
-433.49536202243723
 20
329.75785584999454
 10
-431.86604968746974
 20
330.33283723749025
 10
-428.1608128749067
 20
331.1726660125008
 10
-430.6504500349394
 20
328.3728645007131
 10
-427.9839489865179
 20
329.3610252999898
 10
-436.0299544305251
 20
318.86351803749267
 10
-436.1121529843858
 20
320.35885731250096
 10
-435.94022892043876
 20
322.4240735851527
 10
-439.617784308667
 20
318.28836043749493
 10
-439.5683281787612
 20
322.41279021250125
  0
LWPOLYLINE
  5
43
330
17
100
AcDbEntity
  8
water_bodies
100
AcDbPolyline
 90
5
 70
1
 10
-415.11782034452233
 20
327.5518515624951
 10
-411.2443504917384
 20
325.9622385999994
 10
-409.15417826481684
 20
324.77914787499657
 10
-407.5226739684071
 20
323.469184150001
 10
-415.11782034452233
 20
327.5518515624951
  0
LWPOLYLINE
  5
44
330
17
100
AcDbEntity
  8
water_bodies
100
AcDbPolyline
 90
6
 70
1
 10
-417.71228069934244
 20
328.2954683124957
 10
-415.11782034452233
 20
327.5518515624951
 10
-427.9839489865179
 20
329.3610252999898
 10
-425.4968947420762
 20
329.593449587489
 10
-422.63323412340185
 20
329.23203774999746
 10
-417.71228069934244
 20
328.2954683124957
  0
LWPOLYLINE
  5
45
330
17
100
AcDbEntity
  8
water_bodies
100
AcDbPolyline
 90
8
 70
1
 10
-416.0829683643555
 20
329.314152774993
 10
-417.790506323083
 20
329.9326586499964
 10
-418.37713000242377
 20
330.5999753874944
 10
-416.9650958447993
 20
330.8916070749968
 10
-415.54306086313227
 20
330.52349916248966
 10
-413.64715121847814
 20
329.5638458874936
 10
-413.22588362998846
 20
328.9724767374942
 10
-416.0829683643555
 20
329.314152774993
  0
LWPOLYLINE
  5
46
330
17
100
AcDbEntity
  8
water_bodies
100
AcDbPolyline
 90
8
 70
1
 10
-416.44505299407956
 20
331.8445642749897
 10
-415.00603031127883
 20
331.4709937749939
 10
-428.1608128749067
 20
331.1726660125008
 10
-425.41455919063395
 20
331.7952247749891
 10
-422.60021770426425
 20
332.18958834999006
 10
-418.40343353965295
 20
332.2059761124937
 10
-418.23889943436944
 20
331.8445642749897
 10
-416.44505299407956
 20
331.8445642749897
  0
LWPOLYLINE
  5
47
330
17
100
AcDbEntity
  8
water_bodies
100
AcDbPolyline
 90
11
 70
1
 10
42.41631810828359
 20
10.306443700011537
 10
42.53345104752192
 20
11.11314452501064
 10
43.599840286190584
 20
11.056404100011163
 10
43.55778202612074
 20
10.402831937511078
 10
43.14404930506808
 20
9.742916125011984
 10
41.96093811992543
 20
9.464676587503309
 10
41.80585684831905
 20
9.678246137507486
 10
41.70886255476697
 20
11.0047738375088
 10
42.35562817600326
 20
11.090413112507933
 10
42.21547964168939
 20
10.500101237508392
 10
42.41631810828359
 20
10.306443700011537
  0
LWPOLYLINE
  5
48
330
17
100
AcDbEntity
  8
water_bodies
100
AcDbPolyline
 90
10
 70
1
 10
7.435901530148412
 20
34.76068581250137
 10
7.446176349373695
 20
33.86816950000108
 10
7.085324697962121
 20
33.26534653750558
 10
6.629259721656899
 20
33.09847330000871
 10
6.251420369111652
 20
33.75239788750039
 10
5.866868134658015
 20
35.445271375000786
 10
6.275257949715868
 20
35.51681365001047
 10
6.568021799030598
 20
34.97513642500333
 10
7.173825140947379
 20
35.05020295000411
 10
7.435901530148412
 20
34.76068581250137
  0
LWPOLYLINE
  5
49
330
17
100
AcDbEntity
  8
water_bodies
100
AcDbPolyline
 90
11
 70
1
 10
21.983675586406488
 20
47.44410913750113
 10
23.193364303961044
 20
47.7239345875033
 10
23.36461129115294
 20
47.49662046250127
 10
23.30172939746928
 20
46.135907537501126
 10
22.81922388633378
 20
45.27193765000889
 10
22.515089237082375
 20
45.2088535750104
 10
22.008198154977226
 20
45.44321620000716
 10
21.829964290713693
 20
45.705596612505786
 10
22.028336800682926
 20
46.69943511250068
 10
21.73201101403183
 20
47.22384351250635
 10
21.983675586406488
 20
47.44410913750113
  0
LWPOLYLINE
  5
4A
330
17
100
AcDbEntity
  8
water_bodies
100
AcDbPolyline
 90
15
 70
1
 10
40.978117411011546
 20
56.908658725009495
 10
41.29225288432499
 20
56.6357055625
 10
41.303623684261666
 20
54.589349800000605
 10
41.515284960446586
 20
54.01683538750872
 10
41.263072397706495
 20
53.93436793750909
 10
41.072234755174335
 20
54.38141904999972
 10
40.69590237610482
 20
54.54564910000327
 10
40.34190060418325
 20
54.48256502500478
 10
39.73582326708375
 20
54.79305145000215
 10
38.90671385388213
 20
54.78335976250158
 10
38.877670364864734
 20
54.923977337504645
 10
39.02521676903404
 20
56.953240487504615
 10
40.14270610866588
 20
56.72486908750275
 10
40.40450850270366
 20
56.89755733750497
 10
40.978117411011546
 20
56.908658725009495
  0
LWPOLYLINE
  5
4B
330
17
100
AcDbEntity
  8
water_bodies
100
AcDbPolyline
 90
9
 70
1
 10
22.806072117719186
 20
65.70465808750552
 10
23.29775646736858
 20
66.00404312501088
 10
24.208790439248162
 20
65.87593663750378
 10
24.72499735744882
 20
65.24562452500005
 10
26.1953924883103
 20
64.22200611250774
 10
26.59282249619581
 20
63.52543810000603
 10
25.316278954837433
 20
64.01160838750306
 10
23.024857268557362
 20
65.23575662500996
 10
22.806072117719186
 20
65.70465808750552
  0
LWPOLYLINE
  5
4C
330
17
100
AcDbEntity
  8
water_bodies
100
AcDbPolyline
 90
15
 70
1
 10
9.632794879481889
 20
78.70596876250148
 10
8.76135321104718
 20
79.1336365000035
 10
7.8852536245452445
 20
79.2529323625078
 10
6.382938055277053
 20
80.61787438750729
 10
4.53716952847583
 20
83.24255957500391
 10
3.7731339704001217
 20
84.02318094999875
 10
3.2662428883144434
 20
85.58900522500439
 10
3.4087203816521834
 20
86.24574921250398
 10
3.5418820388944092
 20
85.29931187499959
 10
5.2147596074074425
 20
84.85754713750813
 10
6.308137371271819
 20
84.05119873750063
 10
7.691265037441056
 20
83.64220952500405
 10
9.371129483045195
 20
83.89701280000178
 10
10.969206367552994
 20
77.6307200875068
 10
9.632794879481889
 20
78.70596876250148
  0
LWPOLYLINE
  5
4D
330
17
100
AcDbEntity
  8
water_bodies
100
AcDbPolyline
 90
23
 70
1
 10
9.789383124583459
 20
83.98811466250214
 10
10.852347423497386
 20
84.9158734750011
 10
10.44121765663185
 20
86.00733370000995
 10
10.726309640927889
 20
86.76187562500051
 10
10.924545153296027
 20
86.99659067500139
 10
11.129356549990929
 20
86.8082195125037
 10
11.720912142562254
 20
87.28751751250807
 10
11.810097573494566
 20
87.1386179500084
 10
11.96860378483621
 20
87.28751751250807
 10
12.16026341289705
 20
87.1254020125042
 10
12.246160901675715
 20
87.28416947500651
 10
12.613040447048624
 20
87.26760550000076
 10
12.361923865019929
 20
86.58337236250546
 10
12.556871435253887
 20
86.34213745000352
 10
12.530430900423609
 20
85.77367592500892
 10
12.348635098823712
 20
85.71076806249997
 10
13.35967731122632
 20
84.25648630000819
 10
13.861910475264242
 20
82.81207243750652
 10
14.552515325228825
 20
81.44713041250704
 10
14.737462071400746
 20
81.35444263750065
 10
14.982002769122143
 20
80.63390972500687
 10
9.371129483045195
 20
83.89701280000178
 10
9.789383124583459
 20
83.98811466250214
  0
LWPOLYLINE
  5
4E
330
17
100
AcDbEntity
  8
water_bodies
100
AcDbPolyline
 90
10
 70
1
 10
39.51635312829853
 20
85.27041302499994
 10
40.47506226142547
 20
85.02935432500006
 10
40.48492608788642
 20
84.87693051250928
 10
40.03749195972966
 20
83.6966591875018
 10
39.84090041843835
 20
83.59339866250959
 10
39.26071562582317
 20
83.97207932500257
 10
38.734781878743185
 20
84.02124261250114
 10
38.365984367110734
 20
85.67852117499875
 10
38.64628143575793
 20
85.84081288750468
 10
39.51635312829853
 20
85.27041302499994
  0
LWPOLYLINE
  5
4F
330
17
100
AcDbEntity
  8
water_bodies
100
AcDbPolyline
 90
11
 70
1
 10
46.559125222522944
 20
98.47912581250314
 10
46.71160353992272
 20
97.61198409999888
 10
46.37637043777381
 20
96.07470625000128
 10
47.09656676714069
 20
94.1927567500075
 10
46.255127570853155
 20
93.86288695000898
 10
45.91797650246418
 20
93.9768964375016
 10
45.76906012240077
 20
94.31504822500925
 10
45.19586220685722
 20
96.62607516250901
 10
45.51739555000664
 20
97.84722778750593
 10
46.285404038183046
 20
98.48300248749835
 10
46.559125222522944
 20
98.47912581250314
  0
LWPOLYLINE
  5
50
330
17
100
AcDbEntity
  8
water_bodies
100
AcDbPolyline
 90
11
 70
1
 10
47.34179245278968
 20
102.37130751249987
 10
47.404400351310095
 20
104.56497692500545
 10
47.035465842096016
 20
105.91987483750025
 10
47.41262020669421
 20
105.46841841250821
 10
47.991846016199084
 20
105.26841722499982
 10
48.77259528022576
 20
103.84127218749964
 10
48.97973563592507
 20
102.00249475000953
 10
48.71259033591193
 20
101.76918940000009
 10
47.230139417147264
 20
101.69958546250054
 10
47.09355282015029
 20
101.81835268749867
 10
47.34179245278968
 20
102.37130751249987
  0
LWPOLYLINE
  5
51
330
17
100
AcDbEntity
  8
water_bodies
100
AcDbPolyline
 90
15
 70
1
 10
7.316987622232173
 20
194.0879754250009
 10
7.993070727688053
 20
194.36709602499482
 10
9.389487160072974
 20
196.5117783625039
 10
10.432997801247728
 20
196.6219111750013
 10
10.74905124082071
 20
196.57063333750304
 10
10.954821620625916
 20
196.32076401250038
 10
11.131137518649377
 20
194.8224291249946
 10
10.991536974681479
 20
194.61678913749546
 10
10.697540147073731
 20
194.80780348749897
 10
9.977343817726313
 20
194.8959097375019
 10
9.492372349985311
 20
194.76375036249752
 10
9.036718366444429
 20
194.19070731249946
 10
7.993070727688053
 20
193.338719874997
 10
7.375759588233503
 20
193.7499998499953
 10
7.316987622232173
 20
194.0879754250009
  0
LWPOLYLINE
  5
52
330
17
100
AcDbEntity
  8
water_bodies
100
AcDbPolyline
 90
45
 70
1
 10
38.52353159534208
 20
196.14772333749403
 10
28.615728906529707
 20
199.02051572499778
 10
26.24882154831682
 20
200.33241778750346
 10
24.39825810586675
 20
203.06335911250227
 10
24.204680511546364
 20
204.3750849625059
 10
25.000773505629876
 20
206.20293722499352
 10
24.850213154489644
 20
207.08452836250387
 10
23.752725462942937
 20
207.66514855000284
 10
22.24657396115567
 20
209.493000812503
 10
22.483305796257287
 20
210.97671006250062
 10
24.699515805748312
 20
216.07259935000326
 10
28.826020206820512
 20
214.93690978750342
 10
26.87517452868417
 20
211.47609628750186
 10
26.51706282906081
 20
210.35415129999987
 10
26.231833847183147
 20
208.75061755000428
 10
26.302113610722245
 20
206.9662897749994
 10
26.696392674035735
 20
205.8461069125055
 10
27.685515272093667
 20
203.94424540000438
 10
29.99981555584818
 20
201.45647732500512
 10
31.125798746066327
 20
200.7863411874993
 10
36.83846124132475
 20
199.46721441249682
 10
42.906495484418315
 20
199.13029611250357
 10
43.14322731951993
 20
198.63936808750103
 10
44.122075098333106
 20
198.39108467500435
 10
45.483420147739295
 20
198.5783985625022
 10
45.75837431039167
 20
198.76817942500384
 10
46.2169052433024
 20
198.61998471249987
 10
47.33480557571804
 20
198.94351086249938
 10
48.13980341313274
 20
196.74508371250081
 10
48.290500761854595
 20
196.85556895000232
 10
47.55838564220507
 20
199.23813816249924
 10
47.77141689428409
 20
200.24184456249677
 10
50.69261650066678
 20
203.43499127500053
 10
52.54893384185654
 20
206.43060377499967
 10
56.23088106416129
 20
205.13808508749514
 10
53.537919442313374
 20
200.98687101250133
 10
50.57096264096233
 20
197.17010826249697
 10
49.10221148117767
 20
196.34543376250068
 10
48.701082538374166
 20
196.27688710000098
 10
48.31036541237758
 20
196.6936296625005
 10
48.15432515764144
 20
196.62138253749512
 10
48.2202209983155
 20
196.0393526500047
 10
43.71998717239984
 20
195.4273666375023
 10
41.63282889244924
 20
195.53485626249383
 10
38.52353159534208
 20
196.14772333749403
  0
LWPOLYLINE
  5
53
330
17
100
AcDbEntity
  8
water_bodies
100
AcDbPolyline
 90
10
 70
1
 10
29.885011575633737
 20
243.6695913999964
 10
28.70820227961567
 20
243.61549416250276
 10
28.969593680869647
 20
244.06712679999686
 10
30.24421925596849
 20
245.36827990000214
 10
30.595207080938586
 20
245.26678149999296
 10
32.35946204182619
 20
245.99577261249794
 10
32.26712566632185
 20
245.5806159624919
 10
31.740643928895903
 20
244.82395948750167
 10
30.820431118502434
 20
244.00122332500297
 10
29.885011575633737
 20
243.6695913999964
  0
LWPOLYLINE
  5
54
330
17
100
AcDbEntity
  8
water_bodies
100
AcDbPolyline
 90
48
 70
1
 10
26.379928241698412
 20
243.93197181249502
 10
25.440809763931195
 20
244.17250187500125
 10
23.694912480071377
 20
243.48174887499238
 10
23.697104441494165
 20
243.30958926249633
 10
24.214955330771648
 20
243.43329043750202
 10
25.618769633012015
 20
244.06078314999783
 10
25.66877375328326
 20
243.811971099995
 10
24.089328540966488
 20
242.85231782499895
 10
22.685377241144504
 20
242.99064463750028
 10
22.18656901684185
 20
243.20298070000254
 10
26.22292900385197
 20
245.65762082500282
 10
26.647758529678065
 20
245.67594692500413
 10
26.41691759093669
 20
245.27929258750143
 10
26.638579691164175
 20
245.21462259999694
 10
27.27589247872333
 20
245.8052869000006
 10
27.543722766683512
 20
246.38661193749527
 10
28.07952034022444
 20
246.663441775
 10
28.892327040258913
 20
246.77410322500356
 10
29.15084149212358
 20
247.41075898749378
 10
29.79747011577825
 20
247.83525489999627
 10
31.2567684418663
 20
248.34274689999208
 10
31.79256601540722
 20
248.37975152499882
 10
31.87572355239767
 20
248.24124849999544
 10
29.96364819215805
 20
247.39243288749248
 10
29.197146677457372
 20
246.54344106249997
 10
27.534543928169622
 20
245.62995546249252
 10
27.28507131723722
 20
245.3069579499992
 10
28.24569841660424
 20
245.44528476250053
 10
29.113989140486396
 20
245.92511139999857
 10
29.621976203302935
 20
245.8606176249961
 10
30.05612156524401
 20
246.4696080250011
 10
30.81344424141133
 20
247.0417700125014
 10
29.409492941589342
 20
245.18695723749917
 10
28.827664177897336
 20
245.14078956249804
 10
27.959373454015186
 20
244.2273039625031
 10
27.451386391198643
 20
244.0888009374997
 10
27.31288182794214
 20
243.90430644999725
 10
27.959373454015186
 20
244.05197252499505
 10
27.876215917024737
 20
243.77514268750284
 10
27.608385629064554
 20
243.56280662500055
 10
27.26671364020944
 20
243.57214588749702
 10
27.01724102925757
 20
243.79346878750414
 10
26.749410741277917
 20
243.54448052499924
 10
26.897231140629938
 20
243.16597607499583
 10
25.456290491569668
 20
242.6678233374965
 10
25.14229201583785
 20
242.8891462375036
 10
25.317785928332633
 20
243.20298070000254
 10
26.379928241698412
 20
243.93197181249502
  0
LWPOLYLINE
  5
55
330
17
100
AcDbEntity
  8
water_bodies
100
AcDbPolyline
 90
17
 70
1
 10
42.316309867760566
 20
251.94752601249826
 10
43.12911656777557
 20
252.32585424999965
 10
43.073769541509506
 20
252.03052210000408
 10
43.85890272842068
 20
252.20585353749962
 10
44.15440652952363
 20
252.03986136250052
 10
44.163722365619144
 20
251.66153312499915
 10
44.034396640896
 20
251.44003401250248
 10
42.58427715332184
 20
251.38470328749443
 10
42.43645675396982
 20
251.21853489999327
 10
39.86871092916273
 20
250.62804681249168
 10
39.647048828935255
 20
250.7480475249917
 10
39.81322690531505
 20
251.09853418749324
 10
40.487529042093016
 20
251.71686384999467
 10
41.41116679222176
 20
252.04902441249493
 10
41.68831291629692
 20
251.79069688749357
 10
41.77147045328737
 20
252.04902441249493
 10
42.316309867760566
 20
251.94752601249826
  0
LWPOLYLINE
  5
56
330
17
100
AcDbEntity
  8
water_bodies
100
AcDbPolyline
 90
11
 70
1
 10
-62.321216210157914
 20
253.06823751249837
 10
-63.20567264962559
 20
252.69237625000076
 10
-64.39111279379212
 20
252.65466677499833
 10
-65.05925003902712
 20
252.91792824999473
 10
-65.9342536447982
 20
253.5663902499977
 10
-66.3857977006373
 20
254.21502846250274
 10
-65.87781063782076
 20
254.38419246250132
 10
-64.41001846116588
 20
253.97996098749775
 10
-63.80777705660492
 20
253.9612824624923
 10
-62.81988743685947
 20
253.51951772500087
 10
-62.321216210157914
 20
253.06823751249837
  0
LWPOLYLINE
  5
57
330
17
100
AcDbEntity
  8
water_bodies
100
AcDbPolyline
 90
9
 70
1
 10
-91.69062250461505
 20
273.35963552499624
 10
-92.71180253866132
 20
274.10712894999205
 10
-92.97497490859321
 20
275.36035225000063
 10
-93.7864116327141
 20
276.37057851249926
 10
-92.77961634559492
 20
276.3721644249927
 10
-92.16340118687123
 20
275.94766851250273
 10
-91.47978321397828
 20
274.59435651250146
 10
-91.0361850183406
 20
273.0928497999962
 10
-91.69062250461505
 20
273.35963552499624
  0
LWPOLYLINE
  5
58
330
17
100
AcDbEntity
  8
water_bodies
100
AcDbPolyline
 90
11
 70
1
 10
-96.3541574575212
 20
280.52091152499526
 10
-96.08317622498899
 20
279.7991451249996
 10
-96.16605976679672
 20
279.0849558624923
 10
-96.82844311327258
 20
279.73147952499767
 10
-98.42419103875649
 20
283.42277897500077
 10
-96.92625939235336
 20
282.5055929125001
 10
-96.54992701328383
 20
282.1071764500019
 10
-96.55746188072091
 20
281.8365140499941
 10
-96.09824595986312
 20
280.89677278749286
 10
-96.09824595986312
 20
280.5885771249972
 10
-96.3541574575212
 20
280.52091152499526
  0
LWPOLYLINE
  5
59
330
17
100
AcDbEntity
  8
water_bodies
100
AcDbPolyline
 90
15
 70
1
 10
-101.48019627345825
 20
286.09891821249767
 10
-102.12750988505996
 20
286.97099387499696
 10
-101.9844844013568
 20
287.1139022125018
 10
-100.68985717815333
 20
287.0687918125005
 10
-99.70374852708582
 20
286.5424450749972
 10
-97.36287071089993
 20
286.2418265500025
 10
-95.86493906449678
 20
285.602880024998
 10
-95.51121128775793
 20
285.2645520250008
 10
-95.14994864356255
 20
284.2722994374994
 10
-95.57888809709044
 20
281.18241325000037
 10
-95.88000879937091
 20
281.20496845000105
 10
-96.1057808273002
 20
281.49060891249604
 10
-96.25634117844042
 20
282.4003940499978
 10
-100.34352727125048
 20
285.4975049499936
 10
-101.48019627345825
 20
286.09891821249767
  0
LWPOLYLINE
  5
5A
330
17
100
AcDbEntity
  8
water_bodies
100
AcDbPolyline
 90
8
 70
1
 10
79.94530084864994
 20
32.28948171250788
 10
81.82874371261701
 20
33.00138021250093
 10
86.30075603506343
 20
33.00138021250093
 10
87.33015592449381
 20
32.241375700009144
 10
87.34700662802639
 20
31.78551396250319
 10
81.33938832201098
 20
31.5996097750093
 10
80.86688363493752
 20
32.22445930001179
 10
79.94530084864994
 20
32.28948171250788
  0
LWPOLYLINE
  5
5B
330
17
100
AcDbEntity
  8
water_bodies
100
AcDbPolyline
 90
8
 70
1
 10
71.02333281574185
 20
36.05901951251127
 10
65.82879520494363
 20
35.68016263750371
 10
65.3060124024162
 20
35.91029616250113
 10
65.07887039861228
 20
37.095501437503664
 10
69.86063427146814
 20
37.168805837508906
 10
70.26833909859842
 20
37.065369100002115
 10
71.5010434112285
 20
36.21003362501062
 10
71.02333281574185
 20
36.05901951251127
  0
LWPOLYLINE
  5
5C
330
17
100
AcDbEntity
  8
water_bodies
100
AcDbPolyline
 90
15
 70
1
 10
74.89625467816039
 20
40.71050087500409
 10
73.635876852407
 20
40.901515225007614
 10
73.54107452029717
 20
41.176582937504264
 10
73.58354377311187
 20
44.058009737508755
 10
73.66875627394347
 20
44.79792602500369
 10
73.88384248986367
 20
44.95775076250583
 10
75.32231718229897
 20
44.46664652500122
 10
75.67577096387457
 20
44.18594001250128
 10
75.72454210583334
 20
43.78382308750988
 10
75.66796210127426
 20
41.78574955001129
 10
75.13257552049765
 20
41.63455922500988
 10
74.99557793073636
 20
41.35156195000821
 10
75.66618113259634
 20
40.95649352501154
 10
75.66686612054339
 20
40.09146636250695
 10
74.89625467816039
 20
40.71050087500409
  0
LWPOLYLINE
  5
5D
330
17
100
AcDbEntity
  8
water_bodies
100
AcDbPolyline
 90
9
 70
1
 10
49.65266779680892
 20
48.60552572500113
 10
49.95351450392615
 20
49.26015516250105
 10
50.547536053102974
 20
49.74932106250805
 10
53.82629936876306
 20
49.70421066250675
 10
53.89397617809557
 20
48.71847793750643
 10
53.668341147767386
 20
48.40235271250576
 10
51.35225989533495
 20
48.07882656250625
 10
50.53246631822885
 20
48.24429010001169
 10
49.65266779680892
 20
48.60552572500113
  0
LWPOLYLINE
  5
5E
330
17
100
AcDbEntity
  8
water_bodies
100
AcDbPolyline
 90
10
 70
1
 10
53.55175619887502
 20
50.343509612502814
 10
51.130049804761505
 20
50.312672425005545
 10
50.59384123843677
 20
50.46069092500745
 10
48.53572644752305
 20
50.54069140000329
 10
48.25844332586626
 20
50.984746900009
 10
48.548056230608964
 20
51.891184000009204
 10
48.49873709830423
 20
52.54475616250929
 10
48.708206413027426
 20
52.91462619999947
 10
53.699713595828136
 20
50.67020758750183
 10
53.55175619887502
 20
50.343509612502814
  0
LWPOLYLINE
  5
5F
330
17
100
AcDbEntity
  8
water_bodies
100
AcDbPolyline
 90
12
 70
1
 10
52.955816683438655
 20
53.95163676251057
 10
52.40303140876405
 20
53.83692242500972
 10
52.08574499089806
 20
53.42669972501124
 10
51.676259195109346
 20
53.56749351250384
 10
51.31801049790436
 20
53.96432406250858
 10
50.98524335238042
 20
55.23182057500869
 10
51.100458325359206
 20
56.25614383750925
 10
52.17520441701308
 20
56.39693762500185
 10
52.68702741232923
 20
56.25614383750925
 10
52.90457958487439
 20
55.3215127375051
 10
52.77662383604535
 20
54.732610562509514
 10
52.955816683438655
 20
53.95163676251057
  0
LWPOLYLINE
  5
60
330
17
100
AcDbEntity
  8
water_bodies
100
AcDbPolyline
 90
10
 70
1
 10
48.74601774781385
 20
54.54053893750615
 10
48.22145397662798
 20
54.91181867500028
 10
48.183094651495594
 20
56.204866000011
 10
48.89959204592502
 20
56.294558162507414
 10
49.129884994300966
 20
56.768217362508494
 10
49.411415041260646
 20
56.65297438750147
 10
49.564989339371806
 20
56.37138681250375
 10
49.564989339371806
 20
54.23322433750828
 10
49.29620006826239
 20
54.70688353750936
 10
48.74601774781385
 20
54.54053893750615
  0
LWPOLYLINE
  5
61
330
17
100
AcDbEntity
  8
water_bodies
100
AcDbPolyline
 90
14
 70
1
 10
53.279404990448704
 20
62.38428595000495
 10
53.56066104222567
 20
60.04594607501156
 10
53.26981515917047
 20
58.784617000008396
 10
52.99828593627283
 20
58.377213700005306
 10
52.58126527304705
 20
58.35783032500416
 10
51.34965694112836
 20
58.84294333750137
 10
51.21389232967954
 20
59.31836466251052
 10
51.48542155257717
 20
59.65792615000961
 10
51.99943650935506
 20
59.74532755000429
 10
52.35823319692546
 20
60.30797406250607
 10
52.80429734916865
 20
61.37529317500825
 10
52.76552703127192
 20
61.96701474999923
 10
53.017602596430386
 20
62.43274438750781
 10
53.279404990448704
 20
62.38428595000495
  0
LWPOLYLINE
  5
62
330
17
100
AcDbEntity
  8
water_bodies
100
AcDbPolyline
 90
14
 70
1
 10
83.70547369469519
 20
80.05540408750757
 10
83.77602745343647
 20
79.08958337500204
 10
83.45654907410875
 20
78.19495251250207
 10
83.50970413893255
 20
77.38701820000108
 10
83.35667783118681
 20
77.26278838750171
 10
82.76073831575044
 20
77.37098286250149
 10
82.00204566366955
 20
77.2229643624996
 10
81.61913740029274
 20
77.77873858750871
 10
81.71188476856142
 20
78.35512967500833
 10
82.5460630925946
 20
78.64869970000835
 10
82.69456847989368
 20
79.04200600000948
 10
83.12090497921497
 20
79.2816550000054
 10
83.4679198740649
 20
80.04994150000634
 10
83.70547369469519
 20
80.05540408750757
  0
LWPOLYLINE
  5
63
330
17
100
AcDbEntity
  8
water_bodies
100
AcDbPolyline
 90
8
 70
1
 10
88.10953521260689
 20
88.74497109999935
 10
88.9971425966466
 20
88.4459384874981
 10
89.40662839243532
 20
88.51219438750861
 10
89.16756759830982
 20
87.40980898750982
 10
88.14488059076835
 20
87.37950043750621
 10
87.53743327779421
 20
87.66866515000483
 10
87.22932569842264
 20
88.01104603749931
 10
88.10953521260689
 20
88.74497109999935
  0
LWPOLYLINE
  5
64
330
17
100
AcDbEntity
  8
water_bodies
100
AcDbPolyline
 90
7
 70
1
 10
53.21186517869783
 20
92.09494693750781
 10
53.666697176690555
 20
92.06710536250799
 10
54.26126671623282
 20
91.13494123750763
 10
54.11618626868849
 20
89.38338898751016
 10
53.88507133476439
 20
88.96206490000715
 10
53.15912110663835
 20
91.3999648374996
 10
53.21186517869783
 20
92.09494693750781
  0
LWPOLYLINE
  5
65
330
17
100
AcDbEntity
  8
water_bodies
100
AcDbPolyline
 90
14
 70
1
 10
80.57672273984885
 20
146.56258311250744
 10
82.83485401180863
 20
145.5298016500082
 10
83.99275764043348
 20
145.2681260875053
 10
83.99700456569744
 20
144.787594599999
 10
83.73342120302067
 20
144.41842941250457
 10
83.19926760055657
 20
144.39781255000153
 10
82.6870336124566
 20
144.89719877500275
 10
82.0184853744378
 20
145.0298867875008
 10
81.5122792802797
 20
145.74724787500762
 10
80.88729627582593
 20
145.72874556250423
 10
80.61754802158674
 20
145.35129838750063
 10
80.3339630107859
 20
145.33491062499692
 10
80.00900472788175
 20
145.7710365624976
 10
80.57672273984885
 20
146.56258311250744
  0
LWPOLYLINE
  5
66
330
17
100
AcDbEntity
  8
water_bodies
100
AcDbPolyline
 90
14
 70
1
 10
84.02960999207068
 20
195.147188762496
 10
82.47824928566101
 20
196.82402691249683
 10
82.37002118975386
 20
197.4190965250019
 10
81.72051561670987
 20
198.6270332124946
 10
81.84682739448155
 20
198.96959031250367
 10
85.59919137790703
 20
197.4009466375026
 10
86.60941160478096
 20
196.82402691249683
 10
88.43147954854012
 20
194.6604898375053
 10
88.35928181874148
 20
194.3900036499996
 10
88.01651384917497
 20
194.31793273749625
 10
87.9623998012214
 20
193.93925207500328
 10
87.61963183163543
 20
193.86718116249995
 10
85.94195934747354
 20
194.33590641250598
 10
84.02960999207068
 20
195.147188762496
  0
LWPOLYLINE
  5
67
330
17
100
AcDbEntity
  8
water_bodies
100
AcDbPolyline
 90
24
 70
1
 10
80.27738300622683
 20
201.49365816250142
 10
78.16666114083526
 20
203.6751689125026
 10
77.76977912331517
 20
203.69331880000186
 10
77.51729256539238
 20
203.3146381374964
 10
76.7776425782863
 20
203.51305341249875
 10
75.92976449529257
 20
204.27023852499516
 10
75.09983309654281
 20
204.12592048749895
 10
74.77514880882136
 20
204.45050391249828
 10
74.59472298311557
 20
205.09949454999492
 10
73.45819097848943
 20
206.4517492749964
 10
73.33187920073722
 20
207.01051911250292
 10
73.53038870828806
 20
207.28100529999614
 10
74.19784096557603
 20
207.6776596374988
 10
75.0638027304343
 20
207.91202226249555
 10
76.75955889644125
 20
208.0743139750015
 10
79.59184706707434
 20
208.02021673749533
 10
80.1510712284746
 20
207.6776596374988
 10
80.74632575596392
 20
206.16328941249347
 10
82.171511682203
 20
204.10794681250175
 10
84.1559217698229
 20
199.38421832500353
 10
83.99357962596217
 20
199.24007649999686
 10
81.63037120266726
 20
200.88079108750122
 10
81.26951955123623
 20
200.86264120000197
 10
80.27738300622683
 20
201.49365816250142
  0
LWPOLYLINE
  5
68
330
17
100
AcDbEntity
  8
water_bodies
100
AcDbPolyline
 90
12
 70
1
 10
64.41511707624231
 20
211.57548013749883
 10
64.11029743902438
 20
211.99997605000135
 10
64.09180276441498
 20
212.32314977499672
 10
64.58143215020374
 20
212.45231353750367
 10
65.58809043974131
 20
211.72314621249663
 10
66.225403227281
 20
210.7908058749942
 10
67.01985225028768
 20
210.27397461250197
 10
67.13068330040142
 20
210.0339731875019
 10
65.74522667518885
 20
210.22780693750082
 10
65.50506990033249
 20
210.49547372499865
 10
65.55123808808465
 20
210.75397746250204
 10
64.41511707624231
 20
211.57548013749883
  0
LWPOLYLINE
  5
69
330
17
100
AcDbEntity
  8
water_bodies
100
AcDbPolyline
 90
11
 70
1
 10
75.35697757251336
 20
227.13151963750028
 10
75.03133430166216
 20
225.43758887500007
 10
74.41827008751048
 20
225.36587038750085
 10
74.03042991090321
 20
225.56199490000148
 10
73.89151435488236
 20
226.03583031250463
 10
73.47010976879153
 20
226.45680197500351
 10
73.32653629472293
 20
227.198480387494
 10
74.12139631049396
 20
227.70086222499268
 10
74.48539890647756
 20
227.7295848625028
 10
74.79186251477232
 20
227.66262411249656
 10
75.35697757251336
 20
227.13151963750028
  0
LWPOLYLINE
  5
6A
330
17
100
AcDbEntity
  8
water_bodies
100
AcDbPolyline
 90
17
 70
1
 10
70.49520710721961
 20
235.33985031250262
 10
70.8126305226867
 20
235.47500530000443
 10
71.71804759338876
 20
235.4691902874991
 10
72.28247766320222
 20
234.99324032499626
 10
72.66470093861251
 20
234.89931906250052
 10
73.23488490718512
 20
235.25773528749457
 10
73.81698766605984
 20
235.15200778749858
 10
74.38730863221407
 20
233.57754910000472
 10
74.96352049472854
 20
233.05472661249254
 10
75.4572598082191
 20
231.22194039999735
 10
75.3162892883571
 20
230.6814966625046
 10
74.7518592185631
 20
230.04131664999827
 10
72.11205266153901
 20
229.52430917500396
 10
70.67741390160332
 20
228.90157420000114
 10
70.27765493469393
 20
228.9604291750003
 10
70.330536004335
 20
234.94636779999942
 10
70.49520710721961
 20
235.33985031250262
  0
LWPOLYLINE
  5
6B
330
17
100
AcDbEntity
  8
water_bodies
100
AcDbPolyline
 90
10
 70
1
 10
56.864083924018644
 20
242.91223007499792
 10
56.31924450956492
 20
244.02888868750074
 10
56.08826657322245
 20
245.15471034999794
 10
56.19909762333619
 20
245.51453627499598
 10
56.71640052226771
 20
245.29303716249927
 10
57.49221787306391
 20
244.2133831750032
 10
57.58455424854878
 20
243.68738886250404
 10
57.3537133098074
 20
242.81073167500128
 10
57.19671407194149
 20
242.62623718749882
 10
56.864083924018644
 20
242.91223007499792
  0
LWPOLYLINE
  5
6C
330
17
100
AcDbEntity
  8
water_bodies
100
AcDbPolyline
 90
9
 70
1
 10
89.01097935320826
 20
0.07360761250223626
 10
88.38668133670153
 20
0.7745809375053456
 10
89.6017129602509
 20
2.362431775005458
 10
90.7323540685168
 20
3.3675478750069328
 10
91.07827298263587
 20
3.1564453000065438
 10
91.07827298263587
 20
1.6191674500089597
 10
90.83359528733284
 20
1.137754900004917
 10
89.9391380238226
 20
0.2593355875065916
 10
89.01097935320826
 20
0.07360761250223626
  0
LWPOLYLINE
  5
6D
330
17
100
AcDbEntity
  8
water_bodies
100
AcDbPolyline
 90
11
 70
1
 10
113.52395808838592
 20
27.413505625008423
 10
115.58837476844369
 20
27.4387040125024
 10
115.38657731871972
 20
27.144252925004604
 10
113.70904183215893
 20
26.875000225000786
 10
113.28434930391447
 20
26.95905358750643
 10
112.3216672406868
 20
27.60293406250594
 10
110.70290372012734
 20
28.08681358750125
 10
110.74085205247593
 20
28.21721083751008
 10
111.28308851274252
 20
28.255096525002074
 10
112.25426442651755
 20
28.158355862510934
 10
113.52395808838592
 20
27.413505625008423
  0
LWPOLYLINE
  5
6E
330
17
100
AcDbEntity
  8
water_bodies
100
AcDbPolyline
 90
19
 70
1
 10
109.56363176369352
 20
28.427608562502233
 10
111.02662902471903
 20
27.39253633750127
 10
111.47652910948128
 20
27.565048375001428
 10
112.2670052023678
 20
27.30830676250609
 10
111.82970889587418
 20
27.29579567501013
 10
112.14507734748062
 20
27.114825437511293
 10
112.0904153091811
 20
27.018084775007633
 10
111.41351021819654
 20
26.870771125001447
 10
109.97983044139063
 20
26.95077160000981
 10
109.75282543514886
 20
27.093679937502078
 10
108.65547474120324
 20
27.051741362512807
 10
108.36956077137853
 20
27.20733700000309
 10
108.16776332167402
 20
26.837114537508796
 10
107.84403801708235
 20
26.84962562500475
 10
107.26810014973113
 20
27.160993112512422
 10
106.88121895627307
 20
27.754300600009408
 10
107.42783933938524
 20
28.19201245000359
 10
108.390658400214
 20
28.49492173751258
 10
109.56363176369352
 20
28.427608562502233
  0
LWPOLYLINE
  5
6F
330
17
100
AcDbEntity
  8
water_bodies
100
AcDbPolyline
 90
10
 70
1
 10
113.6206783867553
 20
29.42056600001187
 10
115.11737705484596
 20
27.96046922500222
 10
115.06696194182985
 20
27.78372808750272
 10
113.83096968702664
 20
27.83430107500525
 10
112.56538595286005
 20
28.654746475002202
 10
111.24952410323952
 20
28.692632162506715
 10
112.07356460562904
 20
29.479420975011017
 10
112.76307347488223
 20
30.767005712507984
 10
112.95226714633758
 20
30.716432725005454
 10
113.6206783867553
 20
29.42056600001187
  0
LWPOLYLINE
  5
70
330
17
100
AcDbEntity
  8
water_bodies
100
AcDbPolyline
 90
13
 70
1
 10
109.69117651975822
 20
30.10938066251062
 10
108.85453223911954
 20
30.071494975006107
 10
108.77877257198452
 20
29.82744066250878
 10
107.33248901692944
 20
29.62127203750345
 10
107.75293461989051
 20
30.168235637509767
 10
107.90431695655943
 20
30.113609762509956
 10
108.14392574105034
 20
30.677313550011572
 10
108.6989029771672
 20
30.353434975007943
 10
108.27845737418669
 20
30.72365743750224
 10
108.47614489620885
 20
31.16965127500556
 10
109.97709048958293
 20
30.98022283750804
 10
110.18724479227265
 20
30.610000375001224
 10
109.69117651975822
 20
30.10938066251062
  0
LWPOLYLINE
  5
71
330
17
100
AcDbEntity
  8
water_bodies
100
AcDbPolyline
 90
8
 70
1
 10
142.73170722694886
 20
34.40914187501251
 10
142.65539956944843
 20
28.695803987506217
 10
141.71970603141648
 20
29.211754187500688
 10
140.5168671933519
 20
28.485582475003604
 10
140.05861025560444
 20
28.94426361250494
 10
137.5574452594185
 20
28.791311162507984
 10
137.3092056267791
 20
34.50464905000175
 10
142.73170722694886
 20
34.40914187501251
  0
LWPOLYLINE
  5
72
330
17
100
AcDbEntity
  8
water_bodies
100
AcDbPolyline
 90
18
 70
1
 10
107.88897322652203
 20
31.676262212503577
 10
106.08444097424251
 20
29.344618412500786
 10
105.96922600126372
 20
31.91591121251202
 10
107.31125439051236
 20
32.138643812510594
 10
107.01616158217375
 20
32.384107825011874
 10
106.74107042193974
 20
33.01318645000118
 10
107.90335797344912
 20
33.26904700001126
 10
108.14104879166104
 20
32.53335981250315
 10
107.96651386231548
 20
32.21089093750347
 10
108.18105208787024
 20
32.14340155000359
 10
108.89385054738169
 20
32.693889400001005
 10
109.08098925499586
 20
33.13124882500359
 10
109.88393212854992
 20
34.00966813750191
 10
109.99147523651001
 20
34.444736800002765
 10
110.1880667778208
 20
34.465882300011984
 10
110.21519230057866
 20
34.04949216250404
 10
109.20839701345948
 20
32.53265496250743
 10
107.88897322652203
 20
31.676262212503577
  0
LWPOLYLINE
  5
73
330
17
100
AcDbEntity
  8
water_bodies
100
AcDbPolyline
 90
16
 70
1
 10
143.18023733579759
 20
30.359426200002833
 10
143.09940875785043
 20
36.85356167500601
 10
143.54026700168043
 20
37.15523747500059
 10
145.2599977458927
 20
37.2139162375102
 10
146.81355041374462
 20
36.8910949375064
 10
146.58284647258483
 20
34.27962568750145
 10
145.57427021680724
 20
32.90234878750807
 10
145.61687646722305
 20
32.298997187506394
 10
145.4413825547477
 20
32.09089022500345
 10
145.12039720194423
 20
32.13934866250631
 10
144.90722895228362
 20
31.85987563750826
 10
144.17977175066238
 20
31.59502825000584
 10
143.893035795309
 20
31.036082200009744
 10
143.893035795309
 20
30.359426200002833
 10
143.37134897351245
 20
30.190262200004234
 10
143.18023733579759
 20
30.359426200002833
  0
LWPOLYLINE
  5
74
330
17
100
AcDbEntity
  8
water_bodies
100
AcDbPolyline
 90
30
 70
1
 10
117.30659853916075
 20
36.32034265001007
 10
117.42496445671156
 20
36.04738948750057
 10
117.17946477586038
 20
34.150461925007036
 10
116.15869573459793
 20
33.017415550000514
 10
116.00210748949635
 20
31.467274187502856
 10
115.59303268649144
 20
31.313616887510182
 10
114.97078963380643
 20
31.404894962512607
 10
114.64446137500816
 20
31.294233512509038
 10
114.47540634925852
 20
31.481899825011002
 10
116.12910425519561
 20
33.47962093750547
 10
116.51776641735105
 20
34.22887648750938
 10
117.17316288673581
 20
36.29373456251214
 10
116.68997238767271
 20
35.99646407500644
 10
116.21746770059926
 20
35.92386452500944
 10
116.22568755598338
 20
34.99117176250291
 10
115.09011453448701
 20
33.66940180000711
 10
112.81321459273511
 20
32.485782437510586
 10
112.4744195532693
 20
33.10922226250912
 10
112.1982324123239
 20
33.004904462504555
 10
111.84203867894061
 20
32.53617921251105
 10
111.86149233669926
 20
32.91856033750971
 10
112.42729238238736
 20
33.458651650010836
 10
113.73055045373927
 20
34.022531650001994
 10
114.35484847026545
 20
35.2098514750042
 10
115.76578664717854
 20
36.345188612512445
 10
116.0800591180736
 20
36.92651365000713
 10
116.98588718154
 20
37.29497398750588
 10
117.5742918295393
 20
37.109774650007694
 10
117.60155434991773
 20
36.60933115000663
 10
117.30659853916075
 20
36.32034265001007
  0
LWPOLYLINE
  5
75
330
17
100
AcDbEntity
  8
water_bodies
100
AcDbPolyline
 90
26
 70
1
 10
149.64118066632994
 20
37.18783678750593
 10
151.90314787078933
 20
37.19964302500617
 10
152.2775622835993
 20
37.06043515000706
 10
152.394558225256
 20
36.840874375008
 10
152.22783215853025
 20
33.77001913750599
 10
151.65162029599628
 20
33.09089616250781
 10
151.63107065754576
 20
31.83784907500127
 10
151.06362664076136
 20
31.776350912508796
 10
150.12176821118646
 20
32.25353436250098
 10
149.69173277694716
 20
33.035213012508166
 10
149.65077049760816
 20
35.44456652500507
 10
149.44856205511985
 20
35.66324623750636
 10
149.28210998357685
 20
35.614259162509846
 10
149.24114770423785
 20
32.90058666251252
 10
148.8112492675802
 20
32.558029562503464
 10
147.5708730899119
 20
32.473095137512566
 10
147.57676398627217
 20
33.3777701125047
 10
147.8225376623061
 20
34.572138437501636
 10
147.9189839654927
 20
34.80932046250629
 10
148.47190623774895
 20
35.21038011251038
 10
148.05488557452315
 20
35.82906220000339
 10
148.36354114426018
 20
37.08739566250911
 10
149.22361201273873
 20
37.190303762509714
 10
149.39198205056078
 20
36.095671712501364
 10
149.59542347134214
 20
36.210386050002214
 10
149.64118066632994
 20
37.18783678750593
  0
LWPOLYLINE
  5
76
330
17
100
AcDbEntity
  8
water_bodies
100
AcDbPolyline
 90
5
 70
1
 10
123.44491254581288
 20
37.136030312501504
 10
128.92906306135382
 20
37.19647120000666
 10
129.51691971900715
 20
36.843341350011784
 10
129.41060958935952
 20
32.83908850000753
 10
123.44491254581288
 20
37.136030312501504
  0
LWPOLYLINE
  5
77
330
17
100
AcDbEntity
  8
water_bodies
100
AcDbPolyline
 90
5
 70
1
 10
131.66517892398292
 20
33.59909301251184
 10
133.82193197952557
 20
37.151008375001254
 10
136.4711913702463
 20
37.11699936250448
 10
136.437215967979
 20
33.32719712500217
 10
131.66517892398292
 20
33.59909301251184
  0
LWPOLYLINE
  5
78
330
17
100
AcDbEntity
  8
water_bodies
100
AcDbPolyline
 90
5
 70
1
 10
133.52957912297518
 20
37.15188943751155
 10
133.13036814643124
 20
36.44809671250053
 10
130.46946396059116
 20
35.53513975001178
 10
130.5074122929397
 20
37.228013237512165
 10
133.52957912297518
 20
37.15188943751155
  0
LWPOLYLINE
  5
79
330
17
100
AcDbEntity
  8
water_bodies
100
AcDbPolyline
 90
23
 70
1
 10
157.15782742350245
 20
39.40899535000721
 10
156.68943266413083
 20
38.90449896250886
 10
156.110343852227
 20
38.671898462507656
 10
155.74209433096001
 20
38.6505767500089
 10
155.68482933843444
 20
38.79366130000323
 10
154.25827343630124
 20
38.6505767500089
 10
152.60306855686895
 20
38.834542600005186
 10
150.49344267220823
 20
38.39647832500689
 10
149.40403783846398
 20
38.579386900003335
 10
148.9490688428702
 20
38.80352920000586
 10
149.08003853867018
 20
39.17604242500189
 10
150.24520303956882
 20
39.189963212501794
 10
151.71368020417077
 20
39.624503237508996
 10
153.78891969379976
 20
40.907858875006625
 10
154.00263593382584
 20
40.81129442500502
 10
154.7679044701946
 20
40.9526168500038
 10
155.63304424952418
 20
41.74944977500027
 10
155.8503224268672
 20
41.62874421250453
 10
155.97786718293185
 20
40.762835987502164
 10
157.03631056139915
 20
40.80072167500668
 10
157.1649512981752
 20
40.65411287500873
 10
157.2686584736162
 20
40.425036625011145
 10
157.15782742350245
 20
39.40899535000721
  0
LWPOLYLINE
  5
7A
330
17
100
AcDbEntity
  8
water_bodies
100
AcDbPolyline
 90
14
 70
1
 10
124.31621721666598
 20
50.08518208750146
 10
124.21757895203704
 20
49.40394456250361
 10
130.16697328239712
 20
48.99248837500324
 10
130.1932768196263
 20
50.15742921250686
 10
130.3249315033928
 20
50.16412528750999
 10
130.4367215366363
 20
49.93363933750845
 10
130.37794957063494
 20
48.86755371250816
 10
121.63996930076901
 20
49.32165332500604
 10
121.69079540656894
 20
49.685003500007674
 10
123.32298469092571
 20
49.594782700005084
 10
124.10893986336556
 20
49.367644787505114
 10
124.06290867319501
 20
50.1376934125016
 10
124.17141076428487
 20
50.23972045000443
 10
124.31621721666598
 20
50.08518208750146
  0
LWPOLYLINE
  5
7B
330
17
100
AcDbEntity
  8
water_bodies
100
AcDbPolyline
 90
5
 70
1
 10
96.40131433264801
 20
56.26054915001065
 10
99.61226384135504
 20
56.39958081250769
 10
99.5837683426836
 20
54.52450360000657
 10
96.40090333986421
 20
54.69895397500434
 10
96.40131433264801
 20
56.26054915001065
  0
LWPOLYLINE
  5
7C
330
17
100
AcDbEntity
  8
water_bodies
100
AcDbPolyline
 90
15
 70
1
 10
111.19965698056937
 20
146.89721064999895
 10
111.90012565699489
 20
146.75394988750256
 10
112.6177190321552
 20
146.07535554999805
 10
112.795678901236
 20
145.60328226250297
 10
112.50907994346423
 20
145.42865567500314
 10
112.73594795210491
 20
145.2792274749973
 10
112.86047876119868
 20
144.65349688749703
 10
112.67402504153155
 20
144.5599280500054
 10
112.14261139087512
 20
144.7868897500033
 10
111.37679486414098
 20
144.79992947500543
 10
110.7567437728982
 20
144.68539135000665
 10
110.41657875751882
 20
144.98213320000616
 10
110.57933189416335
 20
146.17614909999898
 10
110.87689065910746
 20
146.35711933749783
 10
111.19965698056937
 20
146.89721064999895
  0
LWPOLYLINE
  5
7D
330
17
100
AcDbEntity
  8
water_bodies
100
AcDbPolyline
 90
5
 70
1
 10
119.90462083131719
 20
162.52884531250737
 10
118.34915019720572
 20
148.7047984750002
 10
117.9608990278341
 20
151.59750287499875
 10
117.95172018932021
 20
153.3552225625057
 10
119.90462083131719
 20
162.52884531250737
  0
LWPOLYLINE
  5
7E
330
17
100
AcDbEntity
  8
water_bodies
100
AcDbPolyline
 90
5
 70
1
 10
102.8721214896219
 20
178.7943163374981
 10
100.89798622122731
 20
178.8549334375053
 10
100.91538491512533
 20
179.74744975000561
 10
101.64119814565028
 20
181.11010101250335
 10
102.8721214896219
 20
178.7943163374981
  0
LWPOLYLINE
  5
7F
330
17
100
AcDbEntity
  8
water_bodies
100
AcDbPolyline
 90
15
 70
1
 10
235.29056680876795
 20
29.72347528750834
 10
236.26146872736024
 20
29.977926137501953
 10
236.5465607116563
 20
29.623210375001058
 10
237.00111871446632
 20
28.451221037502716
 10
236.6620496798178
 20
27.88046875000638
 10
235.87623150497905
 20
27.664608437500473
 10
235.32906313148197
 20
27.26354878750891
 10
234.77435989054783
 20
25.66741596251218
 10
234.40446639822346
 20
25.366621225002856
 10
233.76496164922207
 20
25.72133698750375
 10
233.22560213836425
 20
26.415261812512135
 10
232.98667834182038
 20
26.893502537504155
 10
233.1176480376203
 20
27.926812637509567
 10
233.71345055547505
 20
28.93421950001277
 10
235.29056680876795
 20
29.72347528750834
  0
LWPOLYLINE
  5
80
330
17
100
AcDbEntity
  8
water_bodies
100
AcDbPolyline
 90
38
 70
1
 10
167.26961952346159
 20
40.709267387502194
 10
167.3452421929955
 20
40.16230378750839
 10
167.86679201721046
 20
39.707675537504336
 10
167.73637031175645
 20
38.445289187501345
 10
167.48826767669868
 20
38.222204162511176
 10
167.25276881990953
 20
38.222204162511176
 10
166.86164070114864
 20
38.58837373750819
 10
165.02381803456825
 20
38.60088482500415
 10
164.3762304277838
 20
38.12123440000818
 10
163.49725389191207
 20
38.78185506250299
 10
162.93652275703607
 20
38.38731527499998
 10
161.8335551619129
 20
38.452690112500186
 10
161.5542170763955
 20
38.17321708750214
 10
160.7525071811345
 20
38.514364487507244
 10
159.4102047967031
 20
38.51084023750362
 10
159.21429824333939
 20
38.75048923751206
 10
159.22155911559372
 20
39.21146113750261
 10
160.06327230706398
 20
39.817808350001734
 10
159.56624505143924
 20
40.108206550002244
 10
159.047435179032
 20
39.930231925000854
 10
158.4308090275245
 20
38.44176493751024
 10
158.10420677354352
 20
38.39471620001134
 10
157.77404258222617
 20
38.7758638375081
 10
157.7015708572448
 20
39.75243351250152
 10
157.83212956028046
 20
40.61640340000628
 10
158.28559158237908
 20
41.306099125002795
 10
158.26024702827965
 20
41.567598475003656
 10
156.75834245177577
 20
41.7526216000123
 10
157.09576751534752
 20
41.847071500001704
 10
157.07398489858446
 20
42.04319601250235
 10
157.37140666594695
 20
42.27174362500627
 10
157.61444039017312
 20
42.0250461250031
 10
158.18407636838032
 20
41.828921612502455
 10
161.46352467196795
 20
41.465923862504944
 10
162.09850850050327
 20
41.66187216250353
 10
163.06406751310072
 20
41.62680587500692
 10
166.36954535875435
 20
41.046009475005896
 10
167.26961952346159
 20
40.709267387502194
  0
LWPOLYLINE
  5
81
330
17
100
AcDbEntity
  8
water_bodies
100
AcDbPolyline
 90
11
 70
1
 10
154.21895512803906
 20
50.55214521251193
 10
152.20563854898342
 20
50.55161657500576
 10
151.9876753836739
 20
51.0406062625107
 10
152.05590018337182
 20
51.7116234625018
 10
152.77226058021967
 20
54.00855339999958
 10
153.90920357761013
 20
54.62071562500405
 10
154.3337591082535
 20
54.505648862511606
 10
154.292796828934
 20
53.94952221251089
 10
153.80152347204893
 20
52.64977881250957
 10
153.85645950555067
 20
51.47444143750966
 10
154.21895512803906
 20
50.55214521251193
  0
LWPOLYLINE
  5
82
330
17
100
AcDbEntity
  8
water_bodies
100
AcDbPolyline
 90
17
 70
1
 10
226.29708603400826
 20
61.608422312503116
 10
230.7708793250937
 20
61.42762828750634
 10
231.7650708339637
 20
61.2091247875071
 10
232.02111932922287
 20
60.48559626250334
 10
231.95330552228927
 20
57.584433662506115
 10
231.6972570270301
 20
57.222669400010496
 10
231.85548924320847
 20
57.05685343750094
 10
231.7650708339637
 20
56.91376888750661
 10
225.7171752365564
 20
56.90619175000571
 10
222.44087787752125
 20
57.05685343750094
 10
221.88357168239997
 20
57.26037887500043
 10
221.75547893596985
 20
57.554301325004566
 10
221.83082761034052
 20
61.29194466251085
 10
223.2240930981729
 20
61.706396462508664
 10
225.80745664820006
 20
61.53317957500027
 10
226.09364461320746
 20
61.76666113749925
 10
226.29708603400826
 20
61.608422312503116
  0
LWPOLYLINE
  5
83
330
17
100
AcDbEntity
  8
water_bodies
100
AcDbPolyline
 90
8
 70
1
 10
189.38418145476453
 20
89.2646217624995
 10
188.52931649467968
 20
89.46990932500707
 10
188.50465692852737
 20
92.51080843750958
 10
188.619049915958
 20
92.70834265000165
 10
190.06492247826822
 20
92.12877973750253
 10
190.0623195240616
 20
89.57140772500372
 10
189.95587239681288
 20
89.38938021250505
 10
189.38418145476453
 20
89.2646217624995
  0
LWPOLYLINE
  5
84
330
17
100
AcDbEntity
  8
water_bodies
100
AcDbPolyline
 90
28
 70
1
 10
224.6273594100478
 20
141.8150659375067
 10
224.11992033757724
 20
140.0658044499984
 10
224.04196870901944
 20
139.2735530500054
 10
224.9532766760817
 20
135.41731870000305
 10
225.5090758977273
 20
129.09234722499846
 10
225.49359517006934
 20
127.89022554999858
 10
225.23905364830534
 20
126.40299204999734
 10
224.264315797194
 20
125.12298445000127
 10
219.71352986064164
 20
121.47802888750137
 10
218.06654483659344
 20
119.7678865749995
 10
216.53422679515865
 20
118.86902661250019
 10
213.82742841674906
 20
117.609107237501
 10
210.4956470338663
 20
116.42020150000529
 10
200.56263678855555
 20
114.60538896250726
 10
199.82750772191565
 20
114.74618274999986
 10
194.29979197282915
 20
114.41966098750291
 10
189.99806765446436
 20
114.81085273750436
 10
185.10985665434032
 20
116.03288642499906
 10
180.55249483350013
 20
117.8117516125027
 10
176.4679116948967
 20
119.12330125000427
 10
170.951703743348
 20
121.375825637509
 10
165.2253414891095
 20
123.3582162624996
 10
161.55901199202486
 20
124.88122090000567
 10
156.0886982330456
 20
126.59471124999658
 10
151.78464495565692
 20
127.17145476250033
 10
226.192419875418
 20
144.15463930000197
 10
225.45592083288403
 20
143.3426521000037
 10
224.6273594100478
 20
141.8150659375067
  0
LWPOLYLINE
  5
85
330
17
100
AcDbEntity
  8
water_bodies
100
AcDbPolyline
 90
13
 70
1
 10
238.48000769589464
 20
136.86490438750423
 10
241.06104228689793
 20
135.14436553750608
 10
242.15592702423805
 20
133.8148422250073
 10
241.98385805149803
 20
133.36127125000309
 10
240.70114961861617
 20
133.15792202500566
 10
238.7771554680744
 20
134.9878888375055
 10
236.21187559987283
 20
136.83371477500282
 10
235.35153073621154
 20
137.61574585000162
 10
235.023010515971
 20
138.14755517500612
 10
235.44537408519165
 20
138.28817274999668
 10
236.68109234479266
 20
137.83460177500496
 10
236.99399483979363
 20
137.49063497500447
 10
238.48000769589464
 20
136.86490438750423
  0
LWPOLYLINE
  5
86
330
17
100
AcDbEntity
  8
water_bodies
100
AcDbPolyline
 90
25
 70
1
 10
231.84754338298762
 20
140.13382247500448
 10
239.14417201102896
 20
133.64973111250598
 10
240.12247179947667
 20
133.09536658750082
 10
240.27892304697718
 20
132.70435105000143
 10
239.43419590853597
 20
132.51650852499742
 10
238.21916428498662
 20
132.5397685750063
 10
237.19236734976283
 20
133.02065248750415
 10
235.6018253326921
 20
135.4102702000083
 10
235.2127521777723
 20
136.2673678000079
 10
233.76057772635698
 20
137.46984189999938
 10
232.59500223271345
 20
137.9045581374961
 10
231.44792141367935
 20
138.0338981125051
 10
230.31947226685566
 20
137.89521887499967
 10
228.46945681477104
 20
137.28481877500326
 10
227.73857467341452
 20
136.92411178750748
 10
227.2390814611648
 20
136.47089323750737
 10
226.87329789652279
 20
136.73979351250708
 10
226.7324643742424
 20
138.53857071250553
 10
226.48216977776184
 20
139.64906188749887
 10
226.92015107222198
 20
141.13488568749617
 10
227.29566146574336
 20
142.0108380250032
 10
227.60842696314324
 20
142.30793230000685
 10
228.23423195316462
 20
142.52696443749974
 10
228.8911353960446
 20
142.4018535625026
 10
231.84754338298762
 20
140.13382247500448
  0
LWPOLYLINE
  5
87
330
17
100
AcDbEntity
  8
water_bodies
100
AcDbPolyline
 90
60
 70
1
 10
161.0836303555816
 20
164.5921174750041
 10
166.07363056486759
 20
164.7537043375018
 10
166.57339777230004
 20
164.57731562500643
 10
166.9849385319299
 20
164.15863472499674
 10
167.51416022116354
 20
162.81413334999826
 10
167.77870256698952
 20
161.70469945000474
 10
167.67581737707718
 20
160.74222677500077
 10
167.23482213564608
 20
159.61076631250026
 10
166.60285225410126
 20
158.62626707500183
 10
166.38242313218626
 20
158.40582523750498
 10
165.9634845027204
 20
158.32494369999884
 10
165.5078305191795
 20
158.7217742500036
 10
164.66995326022834
 20
159.1184285875063
 10
163.73672567880192
 20
158.78785393749953
 10
162.50936427216664
 20
159.3903244750034
 10
161.68628275292633
 20
159.1184285875063
 10
160.98074516566925
 20
159.44917945000256
 10
160.31192293246772
 20
159.3242447875075
 10
159.6137832150855
 20
160.13235531249802
 10
159.5624091189202
 20
160.52178493750392
 10
159.46678480126218
 20
160.13975623749687
 10
160.1209482923539
 20
159.0523488999978
 10
160.63537424189616
 20
158.8761364000045
 10
161.899451002587
 20
157.81798033749672
 10
161.7817700729832
 20
157.17145667500387
 10
161.9582229685883
 20
156.87753422499972
 10
161.84054203898455
 20
156.64246675000726
 10
161.3848880554437
 20
156.1060758999993
 10
159.42280857495228
 20
155.37144598750353
 10
158.95235885173946
 20
154.84968077500372
 10
158.52615934999977
 20
154.84968077500372
 10
158.23216252237256
 20
155.22448476250148
 10
157.66636247668447
 20
155.38607162499915
 10
156.74025876993073
 20
155.04069512500723
 10
156.25528730218974
 20
155.15822886250348
 10
155.71880474070173
 20
156.2310105625069
 10
155.69674812875598
 20
157.51683317499578
 10
156.02746031041926
 20
157.77392721250777
 10
156.7917698636777
 20
157.70784752499932
 10
157.37962652133103
 20
158.01639561249908
 10
156.233230690244
 20
158.25886401250293
 10
155.9099163784166
 20
158.7217742500036
 10
156.04211905252907
 20
159.13323043750395
 10
155.82168993061407
 20
159.33164571250634
 10
155.66729364695476
 20
160.007596862505
 10
155.652634904845
 20
161.10962983749968
 10
155.8070311885043
 20
161.27861762499623
 10
155.82168993061407
 20
161.6900738124966
 10
156.35817249210209
 20
162.32179562500426
 10
157.44579635716838
 20
161.9912209749975
 10
158.24682126448238
 20
161.02874830000607
 10
158.4012175481417
 20
161.16830859999678
 10
158.3938196782862
 20
161.9251412875016
 10
158.7539863417702
 20
162.52761182500547
 10
159.07003978132371
 20
162.68179776250432
 10
160.2017768703205
 20
162.6305199250061
 10
160.17232238851926
 20
163.49730921250622
 10
160.9219731996679
 20
164.00427257499584
 10
160.7823726557
 20
164.4157287624962
 10
161.0836303555816
 20
164.5921174750041
  0
LWPOLYLINE
  5
88
330
17
100
AcDbEntity
  8
water_bodies
100
AcDbPolyline
 90
21
 70
1
 10
236.58026211872146
 20
167.89592563749892
 10
236.97344520132356
 20
167.94737968749922
 10
236.67574943879782
 20
168.32570792500061
 10
236.64273301966028
 20
168.65998303750052
 10
236.87782088368505
 20
169.26615403749759
 10
237.26744202895077
 20
168.75919067499544
 10
237.28210077106058
 20
168.27795433750597
 10
237.70460133786275
 20
168.41751463749668
 10
236.84480446454745
 20
166.54049908749795
 10
237.11674468020942
 20
165.17397115000497
 10
237.8515997516667
 20
164.68180963750052
 10
237.3225150600341
 20
164.1454187875051
 10
237.05797271420812
 20
163.6090279374971
 10
236.91097430040423
 20
162.59510121250537
 10
236.56560337663115
 20
162.0220581625073
 10
236.23119226003035
 20
161.80901724999677
 10
234.41597419576124
 20
162.83404536250558
 10
235.32358322788605
 20
164.1233922249981
 10
235.60278431582185
 20
165.10789146249653
 10
235.36399751687907
 20
166.56252565000494
 10
236.58026211872146
 20
167.89592563749892
  0
LWPOLYLINE
  5
89
330
17
100
AcDbEntity
  8
water_bodies
100
AcDbPolyline
 90
19
 70
1
 10
181.85958883737118
 20
165.43705641249932
 10
183.0281782779856
 20
167.5161877000061
 10
183.29272062381165
 20
167.61891958750465
 10
183.42492329792412
 20
168.16993607499575
 10
183.0942111162608
 20
169.16183623750553
 10
182.85172538238055
 20
169.44835776249832
 10
182.587183036574
 20
170.66774826249969
 10
182.57978516671858
 20
170.85153790000643
 10
182.85172538238055
 20
170.91761758750235
 10
183.11626772820654
 20
170.72660323749884
 10
183.5352063576919
 20
169.94051927500277
 10
183.57192171174745
 20
169.65399774999747
 10
183.36615133192277
 20
169.2425415624971
 10
183.7704312192983
 20
168.39777883750395
 10
183.4469799098893
 20
167.31777242500374
 10
182.82966877043475
 20
166.13485791250292
 10
182.19769888888987
 20
165.22383928749926
 10
181.9552131550097
 20
165.18718708749665
 10
181.85958883737118
 20
165.43705641249932
  0
LWPOLYLINE
  5
8A
330
17
100
AcDbEntity
  8
water_bodies
100
AcDbPolyline
 90
8
 70
1
 10
207.8989947176234
 20
211.15486090000408
 10
209.43350472048104
 20
210.06780598749663
 10
209.21595254795534
 20
209.52137102499648
 10
208.19888244159137
 20
209.35114974999806
 10
206.94069657726078
 20
209.38040102500182
 10
206.71136261201463
 20
209.51555601250365
 10
206.9053511991188
 20
211.2547733874947
 10
207.8989947176234
 20
211.15486090000408
  0
LWPOLYLINE
  5
8B
330
17
100
AcDbEntity
  8
water_bodies
100
AcDbPolyline
 90
8
 70
1
 10
173.20134116474094
 20
218.9194885000048
 10
174.3184195116279
 20
217.08353046249758
 10
174.20087557960574
 20
216.90731796250424
 10
172.08426281787342
 20
216.77515858749987
 10
171.9374014016512
 20
216.89251611249404
 10
172.08426281787342
 20
218.2511144874945
 10
172.33414642158965
 20
218.9561406999949
 10
173.20134116474094
 20
218.9194885000048
  0
LWPOLYLINE
  5
8C
330
17
100
AcDbEntity
  8
water_bodies
100
AcDbPolyline
 90
28
 70
1
 10
249.52571236520782
 20
224.8474532125026
 10
249.58996423480505
 20
224.58859704999506
 10
249.93177322124177
 20
224.35176744999453
 10
249.81601025789757
 20
224.03247039999434
 10
249.16006579814734
 20
224.61802453750087
 10
248.8900435487255
 20
224.4400499124995
 10
248.9396366762324
 20
223.7845394125018
 10
248.7540049421134
 20
223.8726456625047
 10
248.4857636613694
 20
224.4747637750045
 10
248.27273240929037
 20
224.54278179999804
 10
247.93462235777162
 20
225.13943732499658
 10
246.81028313863033
 20
226.30332088750038
 10
246.4206619933646
 20
226.27759386250023
 10
245.91733284859578
 20
225.49926324999458
 10
245.53510957318548
 20
225.52499027499476
 10
245.56826298990472
 20
225.08798327499628
 10
244.95451378778648
 20
224.6546767375035
 10
244.45488357795517
 20
224.8090388875044
 10
244.52461535112883
 20
225.7195288750019
 10
245.19713651924837
 20
225.76728246249652
 10
244.83696985578382
 20
225.98014716250498
 10
244.8553275328116
 20
226.43918072499793
 10
245.57922279707702
 20
227.78667771249386
 10
245.52414976599368
 20
228.194257224999
 10
247.96037790463538
 20
228.20888286249465
 10
248.0007921936284
 20
227.5664120874991
 10
249.09951286346814
 20
225.23124403749267
 10
249.52571236520782
 20
224.8474532125026
  0
LWPOLYLINE
  5
8D
330
17
100
AcDbEntity
  8
water_bodies
100
AcDbPolyline
 90
11
 70
1
 10
238.12011502759339
 20
250.1783525124952
 10
239.27829265140093
 20
249.044777499995
 10
239.43118196156507
 20
248.66292501250254
 10
238.61399133866553
 20
248.1871512625018
 10
238.13189682031384
 20
248.30468499999802
 10
237.6791197861623
 20
247.5351650124952
 10
237.4615676136366
 20
247.45886499999253
 10
237.3499145779747
 20
249.20336874999526
 10
237.66144709708158
 20
249.93747002499737
 10
237.87310837326646
 20
250.19015874999545
 10
238.12011502759339
 20
250.1783525124952
  0
LWPOLYLINE
  5
8E
330
17
100
AcDbEntity
  8
water_bodies
100
AcDbPolyline
 90
28
 70
1
 10
254.51886351906586
 20
55.75781488750785
 10
253.601938650826
 20
55.981252337502134
 10
252.84680793608152
 20
55.981252337502134
 10
252.1764787294042
 20
55.85032644999965
 10
251.3365465066119
 20
55.395345775003996
 10
250.85883591112525
 20
55.43393631250422
 10
250.34262899292457
 20
55.6961405125008
 10
249.8495746673811
 20
56.55958176249938
 10
249.81094134708547
 20
57.00663287500253
 10
250.14233851669582
 20
58.54866846250563
 10
251.20557681081192
 20
59.419686850005114
 10
251.68328740627913
 20
59.49686792500557
 10
251.88371488008949
 20
58.8723708250072
 10
251.11310343772595
 20
58.47148738750518
 10
250.71252248526844
 20
57.754478725002485
 10
250.6893698925918
 20
56.96821855000436
 10
251.0284389272403
 20
56.38988912500712
 10
251.40600428462233
 20
56.312884262508724
 10
253.07792287000558
 20
56.85244693750368
 10
254.68832953759932
 20
56.52874457500211
 10
256.1446139167164
 20
55.7037176500017
 10
257.98627251581587
 20
53.49119350000116
 10
258.5871439444827
 20
53.14423108750322
 10
257.9707917881774
 20
52.95920796250711
 10
257.41595154966166
 20
53.151808225004125
 10
256.5761563244509
 20
53.969081800001575
 10
255.79787301702976
 20
55.04080622500516
 10
254.51886351906586
 20
55.75781488750785
  0
LWPOLYLINE
  5
8F
330
17
100
AcDbEntity
  8
water_bodies
100
AcDbPolyline
 90
10
 70
1
 10
343.43975210489015
 20
118.08540962500791
 10
342.5387189570726
 20
119.80753438749956
 10
343.29960357057627
 20
119.05669292500217
 10
343.9403412978707
 20
117.91518834999697
 10
344.4609321389364
 20
116.26337237500059
 10
344.39078937299837
 20
115.12186780000792
 10
343.4497529289522
 20
116.90408102500061
 10
343.3096043946383
 20
117.42461274999853
 10
343.50989487084763
 20
117.6350104750032
 10
343.43975210489015
 20
118.08540962500791
  0
LWPOLYLINE
  5
90
330
17
100
AcDbEntity
  8
water_bodies
100
AcDbPolyline
 90
18
 70
1
 10
266.51218051673254
 20
119.96647806250392
 10
265.84746821123287
 20
120.16665546250185
 10
265.51908498859336
 20
120.50304512500144
 10
262.7320060225827
 20
121.36807228750602
 10
259.57434857628107
 20
121.96490402500663
 10
257.49924608423373
 20
123.0877300750064
 10
259.59243225812617
 20
122.72966627500395
 10
260.9859717411218
 20
122.01671049999854
 10
262.3875940819199
 20
121.79256820000853
 10
263.37260675227606
 20
121.74446218749728
 10
265.40688396258554
 20
122.24102901250312
 10
266.65630198116656
 20
121.76049752499685
 10
268.3061639546041
 20
120.16665546250185
 10
268.9548475420999
 20
119.14938070000854
 10
268.7546940634722
 20
118.54074272500769
 10
268.50645443083283
 20
118.45263647500477
 10
266.5049196444782
 20
119.45933848749974
 10
266.51218051673254
 20
119.96647806250392
  0
LWPOLYLINE
  5
91
330
17
100
AcDbEntity
  8
water_bodies
100
AcDbPolyline
 90
8
 70
1
 10
340.156056876019
 20
127.46625827500225
 10
339.8563061496327
 20
127.45357097500423
 10
338.7959448049059
 20
127.98837591250619
 10
337.8935416811942
 20
129.10803013750643
 10
337.9035425052368
 20
129.4884729250075
 10
339.5754610906395
 20
129.0479416750054
 10
340.1961971698099
 20
127.88670130000747
 10
340.156056876019
 20
127.46625827500225
  0
LWPOLYLINE
  5
92
330
17
100
AcDbEntity
  8
water_bodies
100
AcDbPolyline
 90
14
 70
1
 10
331.2461446310142
 20
129.5586055000007
 10
331.16613803859576
 20
130.74980199999814
 10
331.3262882210142
 20
132.8421492249966
 10
331.7767362961419
 20
131.9811749500018
 10
332.277325489103
 20
129.93904828750175
 10
332.13717695478914
 20
129.75878289999864
 10
331.94688730262243
 20
129.81887136249966
 10
331.9368864785603
 20
129.62856186250437
 10
332.64776697181225
 20
128.54749817500434
 10
332.64776697181225
 20
128.0569225750059
 10
331.9168848304558
 20
127.96687798750537
 10
331.29628574886704
 20
128.3772769000059
 10
331.1059960966808
 20
128.86785250000435
 10
331.2461446310142
 20
129.5586055000007
  0
LWPOLYLINE
  5
93
330
17
100
AcDbEntity
  8
water_bodies
100
AcDbPolyline
 90
15
 70
1
 10
387.35104155926456
 20
134.47123378750277
 10
385.4530769507888
 20
135.75088896250725
 10
384.46614631417316
 20
136.82455172500843
 10
384.20585089363055
 20
137.43178000000535
 10
384.32503879672953
 20
137.63777241249608
 10
386.071210075772
 20
137.5077275875039
 10
386.83045071819885
 20
137.30173517500063
 10
388.60909042601355
 20
136.4340648250027
 10
392.28569474230403
 20
133.44091930000732
 10
393.50031537308905
 20
132.74681826249687
 10
392.5025619269021
 20
132.23721171250142
 10
390.9191437844846
 20
132.052893437501
 10
389.71534596329036
 20
132.43245516250428
 10
388.69580990032085
 20
133.07228275000654
 10
387.35104155926456
 20
134.47123378750277
  0
LWPOLYLINE
  5
94
330
17
100
AcDbEntity
  8
water_bodies
100
AcDbPolyline
 90
9
 70
1
 10
415.4189707510477
 20
145.5648679375048
 10
415.4514391798199
 20
145.22883069999682
 10
415.02852762023383
 20
144.42635897499707
 10
414.8659114811904
 20
143.3852955250012
 10
414.4971139695774
 20
142.68044552500288
 10
413.6077256168793
 20
142.22493621250104
 10
413.45593228742655
 20
142.66969656250248
 10
413.5426517617339
 20
143.06000725000615
 10
415.4189707510477
 20
145.5648679375048
  0
LWPOLYLINE
  5
95
330
17
100
AcDbEntity
  8
water_bodies
100
AcDbPolyline
 90
11
 70
1
 10
559.7838798921613
 20
145.848041424996
 10
558.0526413503917
 20
146.1537701125004
 10
557.6135640752202
 20
146.79024966250105
 10
556.9376179673654
 20
147.14126496249628
 10
555.6250440598985
 20
148.20382633750546
 10
555.2740562349478
 20
149.1229507375037
 10
555.5409275397977
 20
149.04453617500135
 10
556.3725029096244
 20
147.9810937375069
 10
557.7761802142636
 20
147.1914855250072
 10
560.5258588382717
 20
146.67342077500055
 10
559.7838798921613
 20
145.848041424996
  0
LWPOLYLINE
  5
96
330
17
100
AcDbEntity
  8
water_bodies
100
AcDbPolyline
 90
12
 70
1
 10
248.49316153120537
 20
174.86037227500162
 10
247.85379377980507
 20
174.54459947500507
 10
248.0486043524574
 20
175.23147580000622
 10
247.453212827367
 20
176.00645837499775
 10
247.721454108111
 20
176.09826508750635
 10
249.5881832661271
 20
175.15799518749893
 10
251.05433147170515
 20
174.82001961250583
 10
251.88850979573834
 20
175.1102416000043
 10
250.52154784515466
 20
173.20379856249974
 10
249.823408127753
 20
174.1442446749967
 10
248.7430451349216
 20
174.7722660249987
 10
248.49316153120537
 20
174.86037227500162
  0
LWPOLYLINE
  5
97
330
17
100
AcDbEntity
  8
water_bodies
100
AcDbPolyline
 90
10
 70
1
 10
415.93956159213286
 20
173.79904438750685
 10
415.6792661715903
 20
173.98336266249473
 10
415.7335172171255
 20
174.40627266250374
 10
416.5360490979152
 20
175.14336955000329
 10
417.53380254412167
 20
175.5120061000041
 10
418.531555990328
 20
176.21667988750036
 10
419.041324021803
 20
176.40099816250077
 10
418.7267775557252
 20
175.42530955000512
 10
418.33633442491134
 20
175.06742196250474
 10
415.93956159213286
 20
173.79904438750685
  0
LWPOLYLINE
  5
98
330
17
100
AcDbEntity
  8
water_bodies
100
AcDbPolyline
 90
8
 70
1
 10
600.0991196130095
 20
224.39634921250214
 10
599.7222392435746
 20
225.37750041249902
 10
599.6288068873589
 20
225.87019056249713
 10
599.7589545976302
 20
226.35777054999812
 10
599.5745558418237
 20
226.83460157499871
 10
599.935133498072
 20
229.1634259749936
 10
600.4735340258001
 20
229.38333917499676
 10
600.0991196130095
 20
224.39634921250214
  0
LWPOLYLINE
  5
99
330
17
100
AcDbEntity
  8
water_bodies
100
AcDbPolyline
 90
68
 70
1
 10
697.6940105942853
 20
262.2020362374979
 10
702.1415003481414
 20
260.1764735500036
 10
623.6772267956841
 20
278.43596522499564
 10
626.8888612923381
 20
279.67632501249165
 10
626.9696898703046
 20
279.907692024991
 10
626.708709461815
 20
279.9223176624991
 10
626.708709461815
 20
280.0985301624924
 10
627.5208311739024
 20
280.15720892500207
 10
628.0599447912703
 20
280.4119366876629
 10
622.2132705515482
 20
281.68162326249956
 10
625.39339560256
 20
282.6178402749972
 10
626.6536364307316
 20
283.3059500875002
 10
627.3004020519679
 20
283.50788961249367
 10
627.5428877858483
 20
283.44180992499776
 10
628.0830692822542
 20
283.7537060499991
 10
629.6558016126626
 20
283.81608527500185
 10
632.599057830991
 20
285.1997058249942
 10
636.3764923733526
 20
286.26772978749216
 10
636.9277706745514
 20
286.1722226124904
 10
637.8059252248751
 20
286.3301090124949
 10
639.2941300424184
 20
286.3153071624972
 10
639.4631850681681
 20
286.3960124875013
 10
639.4411284562223
 20
286.851169374999
 10
640.991804174685
 20
287.04570797499366
 10
645.9083736758598
 20
286.89892296249366
 10
647.892646765898
 20
287.3502031749961
 10
649.8915785980462
 20
287.54474177499077
 10
650.5897183154478
 20
287.45663552500037
 10
650.6779447632503
 20
287.29152441249903
 10
651.115241069744
 20
287.39795676249076
 10
652.6805755303163
 20
287.2437708249919
 10
656.6159682936736
 20
287.36852927499746
 10
662.2527341242155
 20
286.7556621999973
 10
663.3846082107743
 20
286.410814337499
 10
663.7153203924572
 20
286.4694930999961
 10
664.9425448014914
 20
286.04006323749854
 10
665.2916146601825
 20
285.76111884999415
 10
665.7435697088054
 20
285.77592069999184
 10
666.1588094033533
 20
285.41627098749586
 10
666.3940342649597
 20
285.45292318749847
 10
667.426585098962
 20
284.88780969999294
 10
667.691127444788
 20
284.495032037498
 10
668.0512941082526
 20
284.5685126499927
 10
668.4187216439715
 20
284.41802717499957
 10
668.7383370208807
 20
284.12445714999956
 10
669.4733290899196
 20
283.9299185499924
 10
672.7914107138419
 20
282.37026171249624
 10
673.4859884939073
 20
282.01061200000026
 10
673.6402477799653
 20
281.779244987501
 10
673.9268467377372
 20
281.8967787249972
 10
677.197253200412
 20
280.30399393750207
 10
678.1826768635325
 20
280.0084855749919
 10
682.9369042208662
 20
277.37516597499456
 10
685.3842291642814
 20
275.97321932500085
 10
687.1221805879396
 20
274.74008425000164
 10
688.4194107653302
 20
274.0794635874943
 10
690.4183425974783
 20
272.55998319999185
 10
692.3989167525986
 20
270.4128338874915
 10
696.0625062978755
 20
267.5462089374972
 10
697.1868455169973
 20
266.87818734999104
 10
700.7459059012853
 20
265.4082226749913
 10
701.1774483090197
 20
264.9953567874995
 10
703.8127339455776
 20
263.9611656249963
 10
689.5969308704828
 20
267.0483248500377
 10
691.7263955844791
 20
265.3439051125034
 10
692.9611548609504
 20
264.7639897750002
 10
694.19577713984
 20
263.949183174994
 10
697.6940105942853
 20
262.2020362374979
  0
LWPOLYLINE
  5
9A
330
17
100
AcDbEntity
  8
water_bodies
100
AcDbPolyline
 90
20
 70
1
 10
939.111574256408
 20
305.1679301124967
 10
937.8328387536267
 20
305.4320726499909
 10
936.4343673573811
 20
306.3556023624905
 10
934.8762937690825
 20
306.9133149249972
 10
934.6117514232565
 20
307.20688494999723
 10
933.053677834958
 20
307.8379019124967
 10
930.819658138785
 20
309.2322714249895
 10
929.3056977743781
 20
310.4504284375015
 10
927.8063961520808
 20
312.1087642749989
 10
925.616489679819
 20
315.63107593749294
 10
929.63205780797
 20
313.43436107142594
 10
926.566704962379
 20
320.5673166999955
 10
944.5983277261748
 20
306.94274241249053
 10
943.2034182672656
 20
306.8699666499915
 10
942.233338334202
 20
307.00935073749264
 10
942.3011521411161
 20
307.37675379999155
 10
942.0659272795097
 20
307.0685581374959
 10
940.9173126066948
 20
307.2607671508249
 10
944.5036623916467
 20
305.2988559999992
 10
939.111574256408
 20
305.1679301124967
  0
LWPOLYLINE
  5
9B
330
17
100
AcDbEntity
  8
water_bodies
100
AcDbPolyline
 90
72
 70
1
 10
924.6803851490228
 20
319.1729471874902
 10
923.8366345282201
 20
320.68708482310717
 10
922.396801077851
 20
320.7502502813263
 10
924.2788452134354
 20
317.685889899991
 10
925.0579505063853
 20
317.3776942374954
 10
924.9697240585826
 20
317.1868560999939
 10
925.1608356962976
 20
316.8494091624945
 10
925.1313812144964
 20
316.4679090999936
 10
925.616489679819
 20
315.63107593749294
 10
833.439579378247
 20
323.3098880499925
 10
834.9036862159057
 20
324.5885710884012
 10
832.2746888725504
 20
324.7039051374937
 10
833.5975375992426
 20
326.08329658749926
 10
836.5812081065445
 20
330.08948777498864
 10
839.3813018435882
 20
334.70449314999337
 10
844.4154152767853
 20
340.2694601124937
 10
845.01806767413
 20
340.7133393999973
 10
845.1980825070715
 20
341.20832031249716
 10
846.8846598345646
 20
343.6624317999912
 10
848.045851405343
 20
345.95883309999533
 10
848.6412429304334
 20
347.5581377499916
 10
849.4715853219475
 20
349.0471333749884
 10
853.1094193203413
 20
354.9086659749986
 10
854.5351532369459
 20
356.45651657499457
 10
855.9315696693307
 20
357.62269089998756
 10
856.3063950749051
 20
357.82092996248787
 10
857.0852263726722
 20
357.79872718749135
 10
857.103721047301
 20
358.0006667124973
 10
856.7767078005363
 20
358.2903600624896
 10
858.1177772066746
 20
359.36067478748924
 10
859.9118976421278
 20
360.1883448999955
 10
862.5125228884714
 20
360.73971381249066
 10
866.4821650492787
 20
359.91873977498756
 10
867.1867436533865
 20
360.0873751374925
 10
868.9436007444382
 20
359.8637614749961
 10
873.5515146758956
 20
358.9693068249982
 10
876.6160137611641
 20
357.8762606874959
 10
876.9761804246481
 20
357.89828724999035
 10
882.6497986068272
 20
356.2843569624985
 10
883.1935420405695
 20
355.81492686249675
 10
884.5458452490628
 20
355.2464653374896
 10
886.371064137394
 20
354.15077601249396
 10
886.5956031869913
 20
354.15976284999886
 10
887.4045739545068
 20
353.3245155999917
 10
888.0201041252833
 20
353.16874374999935
 10
888.8211290325974
 20
352.0318206999976
 10
889.3355549821395
 20
351.8043303624935
 10
889.5928364556918
 20
352.0904994624947
 10
889.4752925236891
 20
352.4866251624912
 10
891.9371392116128
 20
351.0415064499938
 10
897.59787962036
 20
346.8650939874935
 10
897.9873637680441
 20
346.2929319999932
 10
897.913933059933
 20
345.8381275374996
 10
898.714957967247
 20
345.94085942499817
 10
899.861353798334
 20
345.05310084999087
 10
900.0230109542476
 20
344.52481577499
 10
900.2435770737443
 20
344.7597070374929
 10
910.0619203364417
 20
335.9998312374933
 10
913.9937511624627
 20
333.2558501874924
 10
916.5075199368978
 20
331.7286164499995
 10
917.714331705063
 20
330.41230907499244
 10
923.6768778040572
 20
326.03994831249355
 10
924.4506401909927
 20
324.85139499998945
 10
926.566704962379
 20
320.5673166999955
 10
925.2232340580183
 20
320.6262547356803
 10
926.3099714791728
 20
318.1500336249936
 10
926.8564548647229
 20
316.1283476124945
 10
926.2855859082032
 20
316.50843797499147
 10
925.7488293515324
 20
317.19038034999755
 10
925.719648864914
 20
317.58492013750055
 10
924.6999758043629
 20
318.8807868624941
 10
924.6803851490228
 20
319.1729471874902
  0
LWPOLYLINE
  5
9C
330
17
100
AcDbEntity
  8
water_bodies
100
AcDbPolyline
 90
56
 70
1
 10
975.8768369064209
 20
356.30932421885745
 10
973.4994762588419
 20
360.84262191249127
 10
972.2329335415455
 20
364.43665206249705
 10
971.9461975861727
 20
367.3011624624917
 10
972.2769097678555
 20
370.5542214249944
 10
975.4725155465252
 20
376.48165749999856
 10
977.2412914278594
 20
378.54880633749053
 10
978.4687898320958
 20
379.59145569999237
 10
980.6507504441367
 20
380.8644147999937
 10
981.8146819667229
 20
381.11481276249003
 10
982.6902335628595
 20
381.1227423249951
 10
983.4741337714387
 20
380.9204503749975
 10
986.2916262023804
 20
379.321850574997
 10
983.7299082715151
 20
378.0769092624975
 10
982.813120400857
 20
378.73330082499297
 10
981.9201701108225
 20
378.65083337499334
 10
978.8023789631484
 20
377.0097663624974
 10
976.4767078794378
 20
374.21221671249646
 10
974.9406909030849
 20
371.7991627374939
 10
974.1654215426541
 20
369.3750073749993
 10
974.0367808058586
 20
367.13058876248914
 10
974.2388522507654
 20
365.7772767624878
 10
975.3068854605108
 20
362.5645704624934
 10
977.3058172926394
 20
358.6327409499966
 10
978.9997924899878
 20
354.1983533874991
 10
979.8780840379127
 20
352.635877149995
 10
979.9675434640277
 20
352.1657421999975
 10
981.010506114837
 20
350.6298740499914
 10
982.6642040207936
 20
346.7509082874988
 10
984.4479126394398
 20
343.14524811249487
 10
986.0091371722909
 20
338.77975963748867
 10
986.4978075749693
 20
336.59736782498965
 10
986.5235631218331
 20
335.6179787499883
 10
985.1934535228867
 20
328.76155037499586
 10
985.3088054934665
 20
328.059695987495
 10
984.6532720264806
 20
327.71960586248974
 10
983.3854963308718
 20
325.1405597125006
 10
981.4158819829433
 20
322.46600638749715
 10
972.340202654323
 20
313.7204038000016
 10
971.59014085041
 20
312.14030631249193
 10
971.464788055768
 20
312.3425982624895
 10
971.276416369861
 20
312.2766947874956
 10
971.2184663893883
 20
312.47176202499645
 10
970.9755696627437
 20
312.4758149124937
 10
965.9533750198683
 20
309.49588532499
 10
961.274359339304
 20
307.5883850124981
 10
958.121633806233
 20
307.00142117500013
 10
956.8744077490942
 20
306.5328721374962
 10
952.3326636534741
 20
305.6669639124938
 10
951.1568133405859
 20
305.6962151874976
 10
946.0606399992338
 20
305.26555183749815
 10
944.5036623916467
 20
305.2988559999992
 10
945.5398356244568
 20
306.9835972663509
 10
944.5983277261748
 20
306.94274241249053
 10
964.8766583983266
 20
338.42384514740854
 10
975.8768369064209
 20
356.30932421885745
  0
ENDSEC
  0
SECTION
  2
OBJECTS
  0
DICTIONARY
  5
A
330
0
100
AcDbDictionary
281
1
  3
ACAD_COLOR
350
B
  3
ACAD_GROUP
350
C
  3
ACAD_LAYOUT
350
D
  3
ACAD_MATERIAL
350
E
  3
ACAD_MLEADERSTYLE
350
F
  3
ACAD_MLINESTYLE
350
10
  3
ACAD_PLOTSETTINGS
350
11
  3
ACAD_PLOTSTYLENAME
350
12
  3
ACAD_SCALELIST
350
14
  3
ACAD_TABLESTYLE
350
15
  3
ACAD_VISUALSTYLE
350
16
  3
EZDXF_META
350
2D
  0
DICTIONARY
  5
B
330
A
100
AcDbDictionary
281
1
  0
DICTIONARY
  5
C
330
A
100
AcDbDictionary
281
1
  0
DICTIONARY
  5
D
330
A
100
AcDbDictionary
281
1
  3
Model
350
1A
  3
Layout1
350
1E
  0
DICTIONARY
  5
E
330
A
100
AcDbDictionary
281
1
  3
ByBlock
350
1F
  3
ByLayer
350
20
  3
Global
350
21
  0
DICTIONARY
  5
F
330
A
100
AcDbDictionary
281
1
  3
Standard
350
2C
  0
DICTIONARY
  5
10
330
A
100
AcDbDictionary
281
1
  3
Standard
350
22
  0
DICTIONARY
  5
11
330
A
100
AcDbDictionary
281
1
  0
ACDBDICTIONARYWDFLT
  5
12
330
A
100
AcDbDictionary
281
1
  3
Normal
350
13
100
AcDbDictionaryWithDefault
340
13
  0
ACDBPLACEHOLDER
  5
13
330
12
  0
DICTIONARY
  5
14
330
A
100
AcDbDictionary
281
1
  0
DICTIONARY
  5
15
330
A
100
AcDbDictionary
281
1
  0
DICTIONARY
  5
16
330
A
100
AcDbDictionary
281
1
  0
LAYOUT
  5
1A
330
D
100
AcDbPlotSettings
  1

  4
A3
  6

 40
7.5
 41
20.0
 42
7.5
 43
20.0
 44
420.0
 45
297.0
 46
0.0
 47
0.0
 48
0.0
 49
0.0
140
0.0
141
0.0
142
1.0
143
1.0
 70
1024
 72
1
 73
0
 74
5
  7

 75
16
 76
0
 77
2
 78
300
147
1.0
148
0.0
149
0.0
100
AcDbLayout
  1
Model
 70
1
 71
0
 10
0.0
 20
0.0
 11
420.0
 21
297.0
 12
0.0
 22
0.0
 32
0.0
 14
1e+20
 24
1e+20
 34
1e+20
 15
-1e+20
 25
-1e+20
 35
-1e+20
146
0.0
 13
0.0
 23
0.0
 33
0.0
 16
1.0
 26
0.0
 36
0.0
 17
0.0
 27
1.0
 37
0.0
 76
1
330
17
  0
LAYOUT
  5
1E
330
D
100
AcDbPlotSettings
  1

  4
A3
  6

 40
7.5
 41
20.0
 42
7.5
 43
20.0
 44
420.0
 45
297.0
 46
0.0
 47
0.0
 48
0.0
 49
0.0
140
0.0
141
0.0
142
1.0
143
1.0
 70
0
 72
1
 73
0
 74
5
  7

 75
16
 76
0
 77
2
 78
300
147
1.0
148
0.0
149
0.0
100
AcDbLayout
  1
Layout1
 70
1
 71
1
 10
0.0
 20
0.0
 11
420.0
 21
297.0
 12
0.0
 22
0.0
 32
0.0
 14
1e+20
 24
1e+20
 34
1e+20
 15
-1e+20
 25
-1e+20
 35
-1e+20
146
0.0
 13
0.0
 23
0.0
 33
0.0
 16
1.0
 26
0.0
 36
0.0
 17
0.0
 27
1.0
 37
0.0
 76
1
330
1B
  0
MATERIAL
  5
1F
102
{ACAD_REACTORS
330
E
102
}
330
E
100
AcDbMaterial
  1
ByBlock
  2

 70
0
 40
1.0
 71
1
 41
1.0
 91
-1023410177
 42
1.0
 72
1
  3

 73
1
 74
1
 75
1
 44
0.5
 73
0
 45
1.0
 46
1.0
 77
1
  4

 78
1
 79
1
170
1
 48
1.0
171
1
  6

172
1
173
1
174
1
140
1.0
141
1.0
175
1
  7

176
1
177
1
178
1
143
1.0
179
1
  8

270
1
271
1
272
1
145
1.0
146
1.0
273
1
  9

274
1
275
1
276
1
 42
1.0
 72
1
  3

 73
1
 74
1
 75
1
 94
63
  0
MATERIAL
  5
20
102
{ACAD_REACTORS
330
E
102
}
330
E
100
AcDbMaterial
  1
ByLayer
  2

 70
0
 40
1.0
 71
1
 41
1.0
 91
-1023410177
 42
1.0
 72
1
  3

 73
1
 74
1
 75
1
 44
0.5
 73
0
 45
1.0
 46
1.0
 77
1
  4

 78
1
 79
1
170
1
 48
1.0
171
1
  6

172
1
173
1
174
1
140
1.0
141
1.0
175
1
  7

176
1
177
1
178
1
143
1.0
179
1
  8

270
1
271
1
272
1
145
1.0
146
1.0
273
1
  9

274
1
275
1
276
1
 42
1.0
 72
1
  3

 73
1
 74
1
 75
1
 94
63
  0
MATERIAL
  5
21
102
{ACAD_REACTORS
330
E
102
}
330
E
100
AcDbMaterial
  1
Global
  2

 70
0
 40
1.0
 71
1
 41
1.0
 91
-1023410177
 42
1.0
 72
1
  3

 73
1
 74
1
 75
1
 44
0.5
 73
0
 45
1.0
 46
1.0
 77
1
  4

 78
1
 79
1
170
1
 48
1.0
171
1
  6

172
1
173
1
174
1
140
1.0
141
1.0
175
1
  7

176
1
177
1
178
1
143
1.0
179
1
  8

270
1
271
1
272
1
145
1.0
146
1.0
273
1
  9

274
1
275
1
276
1
 42
1.0
 72
1
  3

 73
1
 74
1
 75
1
 94
63
  0
MLINESTYLE
  5
22
102
{ACAD_REACTORS
330
10
102
}
330
10
100
AcDbMlineStyle
  2
Standard
 70
0
  3

 62
256
 51
90.0
 52
90.0
 71
2
 49
0.5
 62
256
  6
BYLAYER
 49
-0.5
 62
256
  6
BYLAYER
  0
MLEADERSTYLE
  5
2C
102
{ACAD_REACTORS
330
F
102
}
330
F
100
AcDbMLeaderStyle
179
2
170
2
171
1
172
0
 90
2
 40
0.0
 41
0.0
173
1
 91
-1056964608
 92
-2
290
1
 42
2.0
291
1
 43
8.0
  3
Standard
 44
4.0
300

342
29
174
1
175
1
176
0
178
1
 93
-1056964608
 45
4.0
292
0
297
0
 46
4.0
 94
-1056964608
 47
1.0
 49
1.0
140
1.0
294
1
141
0.0
177
0
142
1.0
295
0
296
0
143
3.75
271
0
272
9
273
9
  0
DICTIONARY
  5
2D
330
A
100
AcDbDictionary
280
1
281
1
  3
CREATED_BY_EZDXF
350
2E
  3
WRITTEN_BY_EZDXF
350
9F
  0
DICTIONARYVAR
  5
2E
330
2D
100
DictionaryVariables
280
0
  1
1.4.3 @ 2026-04-02T16:51:38.120577+00:00
  0
DICTIONARYVAR
  5
9F
330
2D
100
DictionaryVariables
280
0
  1
1.4.3 @ 2026-04-02T16:51:38.127486+00:00
  0
ENDSEC
  0
EOF
