  0
SECTION
  2
HEADER
  9
$ACADVER
  1
AC1024
  9
$ACADMAINTVER
 70
6
  9
$DWGCODEPAGE
  3
ANSI_1252
  9
$LASTSAVEDBY
  1
ezdxf
  9
$INSBASE
 10
0.0
 20
0.0
 30
0.0
  9
$EXTMIN
 10
1e+20
 20
1e+20
 30
1e+20
  9
$EXTMAX
 10
-1e+20
 20
-1e+20
 30
-1e+20
  9
$LIMMIN
 10
0.0
 20
0.0
  9
$LIMMAX
 10
420.0
 20
297.0
  9
$ORTHOMODE
 70
0
  9
$REGENMODE
 70
1
  9
$FILLMODE
 70
1
  9
$QTEXTMODE
 70
0
  9
$MIRRTEXT
 70
1
  9
$LTSCALE
 40
1.0
  9
$ATTMODE
 70
1
  9
$TEXTSIZE
 40
2.5
  9
$TRACEWID
 40
1.0
  9
$TEXTSTYLE
  7
Standard
  9
$CLAYER
  8
0
  9
$CELTYPE
  6
ByLayer
  9
$CECOLOR
 62
256
  9
$CELTSCALE
 40
1.0
  9
$DISPSILH
 70
0
  9
$DIMSCALE
 40
1.0
  9
$DIMASZ
 40
2.5
  9
$DIMEXO
 40
0.625
  9
$DIMDLI
 40
3.75
  9
$DIMRND
 40
0.0
  9
$DIMDLE
 40
0.0
  9
$DIMEXE
 40
1.25
  9
$DIMTP
 40
0.0
  9
$DIMTM
 40
0.0
  9
$DIMTXT
 40
2.5
  9
$DIMCEN
 40
2.5
  9
$DIMTSZ
 40
0.0
  9
$DIMTOL
 70
0
  9
$DIMLIM
 70
0
  9
$DIMTIH
 70
0
  9
$DIMTOH
 70
0
  9
$DIMSE1
 70
0
  9
$DIMSE2
 70
0
  9
$DIMTAD
 70
1
  9
$DIMZIN
 70
8
  9
$DIMBLK
  1

  9
$DIMASO
 70
1
  9
$DIMSHO
 70
1
  9
$DIMPOST
  1

  9
$DIMAPOST
  1

  9
$DIMALT
 70
0
  9
$DIMALTD
 70
3
  9
$DIMALTF
 40
0.03937007874
  9
$DIMLFAC
 40
1.0
  9
$DIMTOFL
 70
1
  9
$DIMTVP
 40
0.0
  9
$DIMTIX
 70
0
  9
$DIMSOXD
 70
0
  9
$DIMSAH
 70
0
  9
$DIMBLK1
  1

  9
$DIMBLK2
  1

  9
$DIMSTYLE
  2
ISO-25
  9
$DIMCLRD
 70
0
  9
$DIMCLRE
 70
0
  9
$DIMCLRT
 70
0
  9
$DIMTFAC
 40
1.0
  9
$DIMGAP
 40
0.625
  9
$DIMJUST
 70
0
  9
$DIMSD1
 70
0
  9
$DIMSD2
 70
0
  9
$DIMTOLJ
 70
0
  9
$DIMTZIN
 70
8
  9
$DIMALTZ
 70
0
  9
$DIMALTTZ
 70
0
  9
$DIMUPT
 70
0
  9
$DIMDEC
 70
2
  9
$DIMTDEC
 70
2
  9
$DIMALTU
 70
2
  9
$DIMALTTD
 70
3
  9
$DIMTXSTY
  7
Standard
  9
$DIMAUNIT
 70
0
  9
$DIMADEC
 70
0
  9
$DIMALTRND
 40
0.0
  9
$DIMAZIN
 70
0
  9
$DIMDSEP
 70
44
  9
$DIMATFIT
 70
3
  9
$DIMFRAC
 70
0
  9
$DIMLDRBLK
  1

  9
$DIMLUNIT
 70
2
  9
$DIMLWD
 70
-2
  9
$DIMLWE
 70
-2
  9
$DIMTMOVE
 70
0
  9
$DIMFXL
 40
1.0
  9
$DIMFXLON
 70
0
  9
$DIMJOGANG
 40
0.785398163397
  9
$DIMTFILL
 70
0
  9
$DIMTFILLCLR
 70
0
  9
$DIMARCSYM
 70
0
  9
$DIMLTYPE
  6

  9
$DIMLTEX1
  6

  9
$DIMLTEX2
  6

  9
$DIMTXTDIRECTION
 70
0
  9
$LUNITS
 70
2
  9
$LUPREC
 70
4
  9
$SKETCHINC
 40
1.0
  9
$FILLETRAD
 40
10.0
  9
$AUNITS
 70
0
  9
$AUPREC
 70
2
  9
$MENU
  1
.
  9
$ELEVATION
 40
0.0
  9
$PELEVATION
 40
0.0
  9
$THICKNESS
 40
0.0
  9
$LIMCHECK
 70
0
  9
$CHAMFERA
 40
0.0
  9
$CHAMFERB
 40
0.0
  9
$CHAMFERC
 40
0.0
  9
$CHAMFERD
 40
0.0
  9
$SKPOLY
 70
0
  9
$TDCREATE
 40
2461133.892974537
  9
$TDUCREATE
 40
2458532.153996898
  9
$TDUPDATE
 40
2461133.892974537
  9
$TDUUPDATE
 40
2458532.1544311
  9
$TDINDWG
 40
0.0
  9
$TDUSRTIMER
 40
0.0
  9
$USRTIMER
 70
1
  9
$ANGBASE
 50
0.0
  9
$ANGDIR
 70
0
  9
$PDMODE
 70
0
  9
$PDSIZE
 40
0.0
  9
$PLINEWID
 40
0.0
  9
$SPLFRAME
 70
0
  9
$SPLINETYPE
 70
6
  9
$SPLINESEGS
 70
8
  9
$HANDSEED
  5
6A
  9
$SURFTAB1
 70
6
  9
$SURFTAB2
 70
6
  9
$SURFTYPE
 70
6
  9
$SURFU
 70
6
  9
$SURFV
 70
6
  9
$UCSBASE
  2

  9
$UCSNAME
  2

  9
$UCSORG
 10
0.0
 20
0.0
 30
0.0
  9
$UCSXDIR
 10
1.0
 20
0.0
 30
0.0
  9
$UCSYDIR
 10
0.0
 20
1.0
 30
0.0
  9
$UCSORTHOREF
  2

  9
$UCSORTHOVIEW
 70
0
  9
$UCSORGTOP
 10
0.0
 20
0.0
 30
0.0
  9
$UCSORGBOTTOM
 10
0.0
 20
0.0
 30
0.0
  9
$UCSORGLEFT
 10
0.0
 20
0.0
 30
0.0
  9
$UCSORGRIGHT
 10
0.0
 20
0.0
 30
0.0
  9
$UCSORGFRONT
 10
0.0
 20
0.0
 30
0.0
  9
$UCSORGBACK
 10
0.0
 20
0.0
 30
0.0
  9
$PUCSBASE
  2

  9
$PUCSNAME
  2

  9
$PUCSORG
 10
0.0
 20
0.0
 30
0.0
  9
$PUCSXDIR
 10
1.0
 20
0.0
 30
0.0
  9
$PUCSYDIR
 10
0.0
 20
1.0
 30
0.0
  9
$PUCSORTHOREF
  2

  9
$PUCSORTHOVIEW
 70
0
  9
$PUCSORGTOP
 10
0.0
 20
0.0
 30
0.0
  9
$PUCSORGBOTTOM
 10
0.0
 20
0.0
 30
0.0
  9
$PUCSORGLEFT
 10
0.0
 20
0.0
 30
0.0
  9
$PUCSORGRIGHT
 10
0.0
 20
0.0
 30
0.0
  9
$PUCSORGFRONT
 10
0.0
 20
0.0
 30
0.0
  9
$PUCSORGBACK
 10
0.0
 20
0.0
 30
0.0
  9
$USERI1
 70
0
  9
$USERI2
 70
0
  9
$USERI3
 70
0
  9
$USERI4
 70
0
  9
$USERI5
 70
0
  9
$USERR1
 40
0.0
  9
$USERR2
 40
0.0
  9
$USERR3
 40
0.0
  9
$USERR4
 40
0.0
  9
$USERR5
 40
0.0
  9
$WORLDVIEW
 70
1
  9
$SHADEDGE
 70
3
  9
$SHADEDIF
 70
70
  9
$TILEMODE
 70
1
  9
$MAXACTVP
 70
64
  9
$PINSBASE
 10
0.0
 20
0.0
 30
0.0
  9
$PLIMCHECK
 70
0
  9
$PEXTMIN
 10
1e+20
 20
1e+20
 30
1e+20
  9
$PEXTMAX
 10
-1e+20
 20
-1e+20
 30
-1e+20
  9
$PLIMMIN
 10
0.0
 20
0.0
  9
$PLIMMAX
 10
420.0
 20
297.0
  9
$UNITMODE
 70
0
  9
$VISRETAIN
 70
1
  9
$PLINEGEN
 70
0
  9
$PSLTSCALE
 70
1
  9
$TREEDEPTH
 70
3020
  9
$CMLSTYLE
  2
Standard
  9
$CMLJUST
 70
0
  9
$CMLSCALE
 40
20.0
  9
$PROXYGRAPHICS
 70
1
  9
$MEASUREMENT
 70
1
  9
$CELWEIGHT
370
-1
  9
$ENDCAPS
280
0
  9
$JOINSTYLE
280
0
  9
$LWDISPLAY
290
0
  9
$INSUNITS
 70
6
  9
$HYPERLINKBASE
  1

  9
$STYLESHEET
  1

  9
$XEDIT
290
1
  9
$CEPSNTYPE
380
0
  9
$PSTYLEMODE
290
1
  9
$FINGERPRINTGUID
  2
{5192198D-1294-4731-B314-888B3CB049E4}
  9
$VERSIONGUID
  2
{DBFF5065-3F9A-473B-BF2F-1362AA6D3991}
  9
$EXTNAMES
290
1
  9
$PSVPSCALE
 40
0.0
  9
$OLESTARTUP
290
0
  9
$SORTENTS
280
127
  9
$INDEXCTL
280
0
  9
$HIDETEXT
280
1
  9
$XCLIPFRAME
280
1
  9
$HALOGAP
280
0
  9
$OBSCOLOR
 70
257
  9
$OBSLTYPE
280
0
  9
$INTERSECTIONDISPLAY
280
0
  9
$INTERSECTIONCOLOR
 70
257
  9
$DIMASSOC
280
2
  9
$PROJECTNAME
  1

  9
$CAMERADISPLAY
290
0
  9
$LENSLENGTH
 40
50.0
  9
$CAMERAHEIGHT
 40
0.0
  9
$STEPSPERSEC
 40
24.0
  9
$STEPSIZE
 40
100.0
  9
$3DDWFPREC
 40
2.0
  9
$PSOLWIDTH
 40
0.005
  9
$PSOLHEIGHT
 40
0.08
  9
$LOFTANG1
 40
1.570796326795
  9
$LOFTANG2
 40
1.570796326795
  9
$LOFTMAG1
 40
0.0
  9
$LOFTMAG2
 40
0.0
  9
$LOFTPARAM
 70
7
  9
$LOFTNORMALS
280
1
  9
$LATITUDE
 40
37.795
  9
$LONGITUDE
 40
-122.394
  9
$NORTHDIRECTION
 40
0.0
  9
$TIMEZONE
 70
-8000
  9
$LIGHTGLYPHDISPLAY
280
1
  9
$TILEMODELIGHTSYNCH
280
1
  9
$CMATERIAL
347
20
  9
$SOLIDHIST
280
0
  9
$SHOWHIST
280
1
  9
$DWFFRAME
280
2
  9
$DGNFRAME
280
2
  9
$REALWORLDSCALE
290
1
  9
$INTERFERECOLOR
 62
256
  9
$CSHADOW
280
0
  9
$SHADOWPLANELOCATION
 40
0.0
  0
ENDSEC
  0
SECTION
  2
CLASSES
  0
CLASS
  1
ACDBDICTIONARYWDFLT
  2
AcDbDictionaryWithDefault
  3
ObjectDBX Classes
 90
0
 91
0
280
0
281
0
  0
CLASS
  1
SUN
  2
AcDbSun
  3
SCENEOE
 90
1153
 91
0
280
0
281
0
  0
CLASS
  1
VISUALSTYLE
  2
AcDbVisualStyle
  3
ObjectDBX Classes
 90
4095
 91
0
280
0
281
0
  0
CLASS
  1
MATERIAL
  2
AcDbMaterial
  3
ObjectDBX Classes
 90
1153
 91
0
280
0
281
0
  0
CLASS
  1
SCALE
  2
AcDbScale
  3
ObjectDBX Classes
 90
1153
 91
0
280
0
281
0
  0
CLASS
  1
TABLESTYLE
  2
AcDbTableStyle
  3
ObjectDBX Classes
 90
4095
 91
0
280
0
281
0
  0
CLASS
  1
MLEADERSTYLE
  2
AcDbMLeaderStyle
  3
ACDB_MLEADERSTYLE_CLASS
 90
4095
 91
0
280
0
281
0
  0
CLASS
  1
DICTIONARYVAR
  2
AcDbDictionaryVar
  3
ObjectDBX Classes
 90
0
 91
0
280
0
281
0
  0
CLASS
  1
CELLSTYLEMAP
  2
AcDbCellStyleMap
  3
ObjectDBX Classes
 90
1152
 91
0
280
0
281
0
  0
CLASS
  1
MENTALRAYRENDERSETTINGS
  2
AcDbMentalRayRenderSettings
  3
SCENEOE
 90
1024
 91
0
280
0
281
0
  0
CLASS
  1
ACDBDETAILVIEWSTYLE
  2
AcDbDetailViewStyle
  3
ObjectDBX Classes
 90
1025
 91
0
280
0
281
0
  0
CLASS
  1
ACDBSECTIONVIEWSTYLE
  2
AcDbSectionViewStyle
  3
ObjectDBX Classes
 90
1025
 91
0
280
0
281
0
  0
CLASS
  1
RASTERVARIABLES
  2
AcDbRasterVariables
  3
ISM
 90
0
 91
0
280
0
281
0
  0
CLASS
  1
LAYOUT
  2
AcDbLayout
  3
ObjectDBX Classes
 90
0
 91
0
280
0
281
0
  0
CLASS
  1
ACDBPLACEHOLDER
  2
AcDbPlaceHolder
  3
ObjectDBX Classes
 90
0
 91
0
280
0
281
0
  0
ENDSEC
  0
SECTION
  2
TABLES
  0
TABLE
  2
VPORT
  5
8
330
0
100
AcDbSymbolTable
 70
1
  0
VPORT
  5
23
330
8
100
AcDbSymbolTableRecord
100
AcDbViewportTableRecord
  2
*Active
 70
0
 10
0.0
 20
0.0
 11
1.0
 21
1.0
 12
0.0
 22
0.0
 13
0.0
 23
0.0
 14
0.5
 24
0.5
 15
0.5
 25
0.5
 16
0.0
 26
0.0
 36
1.0
 17
0.0
 27
0.0
 37
0.0
 40
1000.0
 41
1.34
 42
50.0
 43
0.0
 44
0.0
 50
0.0
 51
0.0
 71
0
 72
1000
 73
1
 74
3
 75
0
 76
0
 77
0
 78
0
281
0
 65
0
146
0.0
  0
ENDTAB
  0
TABLE
  2
LTYPE
  5
2
330
0
100
AcDbSymbolTable
 70
3
  0
LTYPE
  5
24
330
2
100
AcDbSymbolTableRecord
100
AcDbLinetypeTableRecord
  2
ByBlock
 70
0
  3

 72
65
 73
0
 40
0.0
  0
LTYPE
  5
25
330
2
100
AcDbSymbolTableRecord
100
AcDbLinetypeTableRecord
  2
ByLayer
 70
0
  3

 72
65
 73
0
 40
0.0
  0
LTYPE
  5
26
330
2
100
AcDbSymbolTableRecord
100
AcDbLinetypeTableRecord
  2
Continuous
 70
0
  3

 72
65
 73
0
 40
0.0
  0
ENDTAB
  0
TABLE
  2
LAYER
  5
1
330
0
100
AcDbSymbolTable
 70
3
  0
LAYER
  5
27
330
1
100
AcDbSymbolTableRecord
100
AcDbLayerTableRecord
  2
0
 70
0
 62
7
  6
Continuous
370
-3
390
13
347
21
  0
LAYER
  5
28
330
1
100
AcDbSymbolTableRecord
100
AcDbLayerTableRecord
  2
Defpoints
 70
0
 62
7
  6
Continuous
290
0
370
-3
390
13
347
21
  0
LAYER
  5
2F
330
1
100
AcDbSymbolTableRecord
100
AcDbLayerTableRecord
  2
water
 70
0
 62
7
  6
Continuous
370
-3
390
13
347
21
  0
ENDTAB
  0
TABLE
  2
STYLE
  5
5
330
0
100
AcDbSymbolTable
 70
1
  0
STYLE
  5
29
330
5
100
AcDbSymbolTableRecord
100
AcDbTextStyleTableRecord
  2
Standard
 70
0
 40
0.0
 41
1.0
 50
0.0
 71
0
 42
2.5
  3
txt
  4

  0
ENDTAB
  0
TABLE
  2
VIEW
  5
7
330
0
100
AcDbSymbolTable
 70
0
  0
ENDTAB
  0
TABLE
  2
UCS
  5
6
330
0
100
AcDbSymbolTable
 70
0
  0
ENDTAB
  0
TABLE
  2
APPID
  5
3
330
0
100
AcDbSymbolTable
 70
3
  0
APPID
  5
2A
330
3
100
AcDbSymbolTableRecord
100
AcDbRegAppTableRecord
  2
ACAD
 70
0
  0
APPID
  5
67
330
3
100
AcDbSymbolTableRecord
100
AcDbRegAppTableRecord
  2
HATCHBACKGROUNDCOLOR
 70
0
  0
APPID
  5
68
330
3
100
AcDbSymbolTableRecord
100
AcDbRegAppTableRecord
  2
EZDXF
 70
0
  0
ENDTAB
  0
TABLE
  2
DIMSTYLE
  5
4
330
0
100
AcDbSymbolTable
 70
1
100
AcDbDimStyleTable
  0
DIMSTYLE
105
2B
330
4
100
AcDbSymbolTableRecord
100
AcDbDimStyleTableRecord
  2
Standard
 70
0
 40
1.0
 41
2.5
 42
0.625
 43
3.75
 44
1.25
 45
0.0
 46
0.0
 47
0.0
 48
0.0
 49
2.5
140
2.5
141
2.5
142
0.0
143
0.03937007874
144
1.0
145
0.0
146
1.0
147
0.625
148
0.0
 69
0
 70
0
 71
0
 72
0
 73
0
 74
0
 75
0
 76
0
 77
1
 78
8
 79
3
170
0
171
3
172
1
173
0
174
0
175
0
176
0
177
0
178
0
179
2
271
2
272
2
273
2
274
3
275
0
276
0
277
2
278
44
279
0
280
0
281
0
282
0
283
0
284
8
285
0
286
0
288
0
289
3
290
0
371
-2
372
-2
  0
ENDTAB
  0
TABLE
  2
BLOCK_RECORD
  5
9
330
0
100
AcDbSymbolTable
 70
2
  0
BLOCK_RECORD
  5
17
330
9
100
AcDbSymbolTableRecord
100
AcDbBlockTableRecord
  2
*Model_Space
340
1A
 70
0
280
1
281
0
  0
BLOCK_RECORD
  5
1B
330
9
100
AcDbSymbolTableRecord
100
AcDbBlockTableRecord
  2
*Paper_Space
340
1E
 70
0
280
1
281
0
  0
ENDTAB
  0
ENDSEC
  0
SECTION
  2
BLOCKS
  0
BLOCK
  5
18
330
17
100
AcDbEntity
  8
0
100
AcDbBlockBegin
  2
*Model_Space
 70
0
 10
0.0
 20
0.0
 30
0.0
  3
*Model_Space
  1

  0
ENDBLK
  5
19
330
17
100
AcDbEntity
  8
0
100
AcDbBlockEnd
  0
BLOCK
  5
1C
330
1B
100
AcDbEntity
  8
0
100
AcDbBlockBegin
  2
*Paper_Space
 70
0
 10
0.0
 20
0.0
 30
0.0
  3
*Paper_Space
  1

  0
ENDBLK
  5
1D
330
1B
100
AcDbEntity
  8
0
100
AcDbBlockEnd
  0
ENDSEC
  0
SECTION
  2
ENTITIES
  0
LWPOLYLINE
  5
30
330
17
100
AcDbEntity
  8
water
100
AcDbPolyline
 90
11
 70
1
 10
41.80585684831905
 20
9.678246137507486
 10
41.70886255476697
 20
11.0047738375088
 10
42.35562817600326
 20
11.090413112507933
 10
42.21547964168939
 20
10.500101237508392
 10
42.41631810828359
 20
10.306443700011537
 10
42.53345104752192
 20
11.11314452501064
 10
43.599840286190584
 20
11.056404100011163
 10
43.55778202612074
 20
10.402831937511078
 10
43.14404930506808
 20
9.742916125011984
 10
41.96093811992543
 20
9.464676587503309
 10
41.80585684831905
 20
9.678246137507486
  0
LWPOLYLINE
  5
31
330
17
100
AcDbEntity
  8
water
100
AcDbPolyline
 90
2988
 70
1
 10
19.78299428138769
 20
-1.335962638452193
 10
20.82499005206642
 20
-2.23081098489258
 10
21.298435074365507
 20
-2.2066307225240718
 10
22.029394764020488
 20
-1.4589128258092925
 10
22.40974223958236
 20
-1.3532940857568008
 10
22.664534382902612
 20
-0.7572520646422637
 10
23.291074677568915
 20
-0.22406026837241272
 10
24.098904782655463
 20
-0.009041937516592434
 10
25.299160632755818
 20
-0.44663375561143587
 10
25.850470399314645
 20
0.011461761569550661
 10
25.80665420531715
 20
0.2599929415755884
 10
27.455240491067222
 20
2.927178718526625
 10
26.959580011192255
 20
3.9676005039501274
 10
27.12880185839248
 20
4.729413297837188
 10
27.428687158892917
 20
5.196960019466323
 10
27.891003849792433
 20
5.6892314354969304
 10
28.78426442669149
 20
5.949633168188671
 10
29.510421983794348
 20
6.687539610781511
 10
30.427876561090216
 20
6.897349553217928
 10
30.652304518986174
 20
7.705271441476992
 10
31.06704836901984
 20
8.255093262191927
 10
31.671076057628003
 20
8.618927057988149
 10
32.2465068829374
 20
8.726395443298276
 10
32.01723611895964
 20
9.534007021118418
 10
32.06990673877407
 20
9.875997934356315
 10
31.338202507369605
 20
10.103033679340776
 10
30.393434586454628
 20
10.863526831558671
 10
29.865650695263515
 20
11.9445376977095
 10
29.90689657482185
 20
12.686385929690655
 10
30.515952696787796
 20
13.655026132682272
 10
30.90868719317783
 20
13.950639342266149
 10
32.19596351051827
 20
14.375055341192853
 10
33.05764666013395
 20
15.279686942106744
 10
33.499240532830235
 20
15.415659304434966
 10
34.076365134529965
 20
16.349117877970944
 10
34.57071002582907
 20
16.69063020205272
 10
35.61115857349967
 20
16.92648941415913
 10
36.87369088892044
 20
16.319320753467565
 10
37.88526526805959
 20
16.64732830694982
 10
38.144465127175145
 20
17.294637001471514
 10
38.66068228788376
 20
17.79519476559824
 10
39.32508058519359
 20
18.03720381870587
 10
39.26287108331201
 20
18.529910696176415
 10
38.438783767322086
 20
19.13159515471934
 10
38.23898092181337
 20
19.889196361432536
 10
38.23267859133002
 20
20.698479563835555
 10
38.87127182214285
 20
21.531714013207292
 10
39.64247815470197
 20
21.808970050008845
 10
40.9032381394604
 20
21.598137881705533
 10
42.018107702486624
 20
22.074147574499253
 10
43.50304612668879
 20
21.949280004261013
 10
45.11605530227069
 20
22.039451729650256
 10
45.265268344205985
 20
22.247406236883766
 10
45.14499497868053
 20
22.521913355898132
 10
45.20065186290867
 20
23.349239130016418
 10
45.51099518837192
 20
24.099122561294184
 10
45.2828314426749
 20
24.490839288827978
 10
45.32873099059552
 20
26.004107752796305
 10
45.963299765064846
 20
27.128105342029006
 10
46.61050527780165
 20
27.252975095119407
 10
46.80825498901808
 20
27.534061271565953
 10
46.51420304920683
 20
28.050213107841465
 10
46.39356443496397
 20
28.71841756104509
 10
46.814183670057645
 20
29.802690218103
 10
45.5105244195433
 20
29.879090013170416
 10
44.383365583817785
 20
30.35527674114229
 10
43.753627056395345
 20
30.940553309689278
 10
43.42906593064418
 20
31.549666247366694
 10
43.37188711276738
 20
32.108615720373756
 10
42.50194917173381
 20
32.236334514537326
 10
41.2658249530018
 20
32.965455376827414
 10
40.871669551920235
 20
33.465505194425596
 10
40.343546259229846
 20
34.61936074247587
 10
40.0647867154157
 20
35.755721221286834
 10
40.034431021154326
 20
37.259251865596056
 10
39.75051414114959
 20
37.48693582926511
 10
37.405977630413105
 20
36.83960891234916
 10
35.536523189025004
 20
36.58803054614128
 10
35.421594867239264
 20
35.141508886990174
 10
35.20557516346389
 20
34.5887006065651
 10
34.773512645955414
 20
34.064811576005226
 10
33.622624678574496
 20
33.555171211781236
 10
32.637927305514864
 20
33.57773383459708
 10
30.357616386845372
 20
34.24027708412131
 10
29.6870226638767
 20
34.52016998330787
 10
28.276139056756715
 20
35.51923220540517
 10
26.83766471996603
 20
36.943274606512254
 10
27.96197640822178
 20
37.93621127501206
 10
26.815802477426402
 20
36.96859289963617
 10
26.065808592243947
 20
38.06354358028475
 10
25.72434293989141
 20
39.37821101981248
 10
25.78780090957125
 20
40.25236475867484
 10
26.125404434560664
 20
41.21193634226167
 10
28.256175216902232
 20
43.99762969406882
 10
27.922597773051063
 20
43.92520318412649
 10
27.11960114225519
 20
44.1814090019159
 10
26.590629690679002
 20
44.543062495752416
 10
25.34079307717458
 20
45.70472850628996
 10
23.108394465387796
 20
48.61700190130808
 10
22.04892548299031
 20
48.63680412631681
 10
21.63902626073074
 20
48.48078778050492
 10
21.115245970401606
 20
48.06095236838897
 10
20.74591682492457
 20
47.50176565953901
 10
20.536658815717292
 20
46.346565780823944
 10
20.97809303440072
 20
44.90636443057839
 10
20.984571181325727
 20
44.23362584419393
 10
20.260094216002184
 20
42.490481572449966
 10
19.30174999305789
 20
41.67042644997977
 10
18.44239890243856
 20
41.38379837185458
 10
17.68319495143889
 20
41.50689813370363
 10
17.020596097224747
 20
41.74432451304823
 10
15.829446262024064
 20
43.05535380102957
 10
15.414489411986901
 20
44.51666671739168
 10
13.841333624671103
 20
45.195135134270274
 10
7.770242572549156
 20
49.961323984882384
 10
7.708997907729147
 20
50.15716027469889
 10
6.409061671770505
 20
50.92368502446795
 10
1.7866056268469994
 20
54.458350117953884
 10
0.35930526519436634
 20
55.019267738831935
 10
-2.3097585319473892
 20
54.65922402527059
 10
-2.8011808448511606
 20
57.61870102473863
 10
-0.36079034720970654
 20
58.00692579948859
 10
0.6231341551805964
 20
58.011437111184826
 10
1.718561099556934
 20
57.797496439836785
 10
2.868429824949354
 20
57.30868164840091
 10
8.090107944394257
 20
53.414809625538645
 10
8.426238050109845
 20
53.21586459964723
 10
8.848740253337173
 20
53.376368201202595
 10
10.247399337092693
 20
52.22242727101505
 10
10.36687273398915
 20
51.756335592408085
 10
15.561255790750122
 20
47.667696665752274
 10
16.698851905480158
 20
47.233648341993316
 10
17.5308295367998
 20
46.66001110238154
 10
17.741151810408535
 20
48.03664745514827
 10
18.53725998874335
 20
49.6394934522745
 10
19.716699757665864
 20
50.820862710931294
 10
21.34852268311254
 20
51.58002426751762
 10
22.851222570777338
 20
51.657176159336316
 10
24.329927641531008
 20
51.39618072371106
 10
25.676998461606765
 20
50.34143765647729
 10
26.832371052129876
 20
48.598252282458
 10
27.93630970517857
 20
47.41338223426688
 10
28.68228824882493
 20
48.05981480545445
 10
29.51549793531809
 20
48.29117180210104
 10
30.326127900102296
 20
48.050713310863436
 10
31.131426150256964
 20
47.315548739284
 10
31.549449858931418
 20
46.54965375828152
 10
31.784094675977006
 20
45.68645654927735
 10
31.769987565579886
 20
44.75386264404507
 10
31.274474447466773
 20
43.033057923889515
 10
29.16075908281531
 20
40.3742933083071
 10
28.726337796281886
 20
39.5448023302022
 10
28.93289634668263
 20
39.11142343156601
 10
29.68973901991875
 20
38.301165360689275
 10
31.20186928180803
 20
37.138726715879024
 10
32.48134161982444
 20
36.789727878556455
 10
32.713310285296274
 20
37.660961503467576
 10
33.09808175354363
 20
38.350917989838365
 10
33.74661259495754
 20
39.00809080385926
 10
34.66698019487565
 20
39.47391618024273
 10
36.96699286798502
 20
39.815567264879505
 10
38.84238797719885
 20
40.42173508623978
 10
40.46776925721509
 20
40.40981592075141
 10
41.797634794375256
 20
39.768049383219996
 10
42.61428569378311
 20
38.8218882086552
 10
42.97750722750887
 20
37.86708695942366
 10
43.06164737716967
 20
35.973504086996485
 10
43.38594384370359
 20
35.12192811030024
 10
44.57651163459928
 20
35.30308285935293
 10
45.590424780415574
 20
35.12768392226275
 10
46.454245893389455
 20
34.28457598072474
 10
46.72122406078317
 20
33.5651759688162
 10
46.67395450209595
 20
32.87394210810671
 10
48.112524267192626
 20
34.14948626283977
 10
47.968068040826466
 20
34.89650397298707
 10
48.087490757620515
 20
35.95966206068119
 10
48.485607305168585
 20
36.62310197861719
 10
49.12423132886115
 20
37.13245853417091
 10
50.072523528044215
 20
37.39645721367499
 10
51.434513093699245
 20
37.48722815821515
 10
53.12206961489245
 20
37.92840694343218
 10
54.498904599511896
 20
37.992630938391834
 10
55.319235581701044
 20
37.810102267498436
 10
55.99583070282227
 20
37.442000520288566
 10
56.62125541125071
 20
36.92433832486086
 10
58.030170522804504
 20
34.78943414428071
 10
58.41576908032283
 20
35.34561127271825
 10
59.080995171782156
 20
37.33071949541928
 10
59.63629323977095
 20
38.037538577463785
 10
60.41078321927755
 20
38.42182540499723
 10
61.21334430226461
 20
38.49218693459193
 10
62.995605892670426
 20
37.7585678220702
 10
64.67055974697759
 20
37.38101402191512
 10
65.08456609867731
 20
37.06578181872396
 10
69.86063427146814
 20
37.168805837508906
 10
70.26833909859842
 20
37.065369100002115
 10
71.5010434112285
 20
36.21003362501062
 10
71.02333281574185
 20
36.05901951251127
 10
65.904615665517
 20
35.685692504626964
 10
66.11579841908427
 20
34.16995583500695
 10
65.9685217365701
 20
32.22841682571366
 10
66.4492415907364
 20
31.000918944888333
 10
67.42867044091861
 20
31.282544493020996
 10
68.76870046242175
 20
33.50646353518998
 10
69.29111460822493
 20
34.13705158102552
 10
70.15461706435589
 20
34.75870343710247
 10
73.49368792879876
 20
35.60387253544459
 10
74.44567068719938
 20
35.60851268271416
 10
76.20254267281926
 20
35.28219793368645
 10
77.3467705356767
 20
34.669798485745
 10
78.00172329985585
 20
33.85744005913704
 10
78.54260641368664
 20
32.30621264018411
 10
78.85459362800302
 20
30.446385970380067
 10
79.4699042855774
 20
29.284856271212455
 10
79.88363403636727
 20
29.129617057333725
 10
81.39003563239389
 20
30.0313056193228
 10
82.27040692050832
 20
30.04041446538748
 10
83.00938565833793
 20
29.79652604621067
 10
83.61862505344742
 20
29.399565351265736
 10
84.96651939978635
 20
27.677104810811667
 10
85.99806114609042
 20
26.659958859988826
 10
89.12821539958064
 20
24.261216808158462
 10
92.36633070591107
 20
21.451868153590237
 10
94.3184893502749
 20
21.543712130462183
 10
96.51978969656525
 20
23.2998747177943
 10
98.00276859036076
 20
23.374156828655963
 10
98.98358050187271
 20
22.729977347324553
 10
100.15527819659941
 20
21.583496783956154
 10
100.68408995243058
 20
21.504666189891097
 10
101.87574924258969
 20
23.337382675207422
 10
103.48044355695878
 20
23.927560168120664
 10
105.14832688069569
 20
23.415979418377535
 10
106.0931026458403
 20
22.636294671020522
 10
108.19808582439848
 20
21.646484513319514
 10
110.75164479667279
 20
21.008425814991
 10
112.41075558080503
 20
20.814468066294655
 10
114.19144738581174
 20
19.14360842028359
 10
114.37505439460548
 20
19.12777997227935
 10
115.85597708872604
 20
21.656078237979127
 10
118.22281947496631
 20
24.47677594089387
 10
119.1655168840906
 20
25.2692603530673
 10
120.52286604130158
 20
25.881471361820616
 10
121.23945391990985
 20
26.036891879341233
 10
122.43549133195066
 20
25.823282587256756
 10
123.56400522071273
 20
24.941748325364618
 10
124.60603583644226
 20
23.048768818421074
 10
125.40578702695706
 20
25.27348974866245
 10
126.7749129600177
 20
24.660713950004716
 10
125.4425283801903
 20
25.349735960856304
 10
126.04855149653595
 20
26.803951659199743
 10
126.7735016434883
 20
27.571823812357223
 10
127.29420191953955
 20
27.976987746118755
 10
128.44901472798605
 20
28.392442096579103
 10
132.22150112766107
 20
29.153960125383826
 10
132.9788611607656
 20
29.0612960475788
 10
133.86742178807995
 20
28.520905048622097
 10
134.83679763285693
 20
27.30156341117176
 10
135.1188845660014
 20
26.181746603439894
 10
136.856201200938
 20
26.3974584393707
 10
138.21415309018766
 20
26.027733613737574
 10
139.34542058613036
 20
25.500933617024444
 10
140.3009938321459
 20
24.508039736745904
 10
142.0580787819192
 20
21.987506377427376
 10
142.62183281058086
 20
21.408969455203437
 10
142.91392324787992
 20
21.598109960289577
 10
143.97794796909776
 20
23.583269211858486
 10
142.9751270433224
 20
25.177778917552192
 10
142.77722276588253
 20
25.96659273382204
 10
142.91366020638844
 20
26.687600004417245
 10
143.26381019031496
 20
27.30706649720648
 10
144.39310124305734
 20
28.350883760199235
 10
145.99391735397666
 20
29.105907862148275
 10
146.919282016624
 20
29.296945047833606
 10
148.68351148416633
 20
29.12010068074301
 10
149.35831801412965
 20
28.691868385167425
 10
150.22639529887303
 20
27.568425136655474
 10
150.5905008552931
 20
26.79741222392309
 10
150.73052942095143
 20
25.971404317546714
 10
150.65278039890393
 20
24.70337487471656
 10
150.01276680683878
 20
23.49566330657145
 10
149.174776484842
 20
22.62170129612236
 10
149.3339416697574
 20
22.448024631880912
 10
150.88282006829553
 20
23.994799360433387
 10
151.7094776447541
 20
24.472661532653234
 10
152.0018963695954
 20
24.47633573407282
 10
151.25141942349907
 20
25.447506519238576
 10
150.9907250384188
 20
26.24634976095987
 10
150.8976037623569
 20
27.23613547645136
 10
151.13261282679622
 20
28.47128224279961
 10
151.46804084631341
 20
29.4456722573872
 10
152.2002043104111
 20
30.65596363940058
 10
153.52232238413262
 20
29.947441375008804
 10
152.30054558701175
 20
30.817649084706346
 10
153.95945005844675
 20
32.435635869170966
 10
154.91232594102553
 20
32.68114740212456
 10
155.87737953276647
 20
32.5517690397447
 10
156.81983349784255
 20
31.988468030948898
 10
157.51737250594894
 20
31.012020716008255
 10
160.69021327694003
 20
30.2559992556154
 10
160.9280169137124
 20
31.64510425591296
 10
161.52665865986208
 20
33.16097680585717
 10
163.01861902366988
 20
34.07353055831126
 10
164.49406223479656
 20
33.81878095383531
 10
168.20558332093543
 20
30.259525612368524
 10
169.33636861185187
 20
29.48156473081898
 10
170.04922278091777
 20
29.199497953583364
 10
170.17242837374016
 20
30.77801336433638
 10
171.62446331610218
 20
32.143346771624884
 10
173.35715164569592
 20
32.104867951879605
 10
175.14140667004605
 20
31.221222699092397
 10
175.77942258869402
 20
31.122927626711665
 10
177.07702203072
 20
31.391157145087377
 10
178.11888182877613
 20
31.671903935097273
 10
178.412759115751
 20
31.89100217629487
 10
178.65871860215577
 20
32.59063623184281
 10
179.6460587715121
 20
34.02778151388763
 10
181.60252937185297
 20
33.873423644054576
 10
182.75487246333248
 20
33.019006684237155
 10
183.53261679324095
 20
30.925641374387894
 10
183.53261679324095
 20
30.177703843700698
 10
184.5008736183254
 20
30.209963435308637
 10
186.74739712096
 20
28.03302382412434
 10
188.36623204228957
 20
27.696982941669617
 10
189.55605032792346
 20
27.864379033457844
 10
192.00582932110996
 20
27.110020415222056
 10
193.42894852530628
 20
26.47226368718552
 10
196.0027733500201
 20
25.799979092085003
 10
197.0569690881873
 20
25.128605631534803
 10
199.1895391116872
 20
24.16674374260578
 10
200.43846281830187
 20
24.65654688511446
 10
202.26108663576912
 20
26.08476636250613
 10
203.57384784248072
 20
26.08476636250613
 10
204.7292877518222
 20
25.603044889261287
 10
205.4530438308913
 20
24.65247086148512
 10
205.84480459661066
 20
23.547399973066884
 10
205.80977894539782
 20
21.10463143735851
 10
206.9737818854935
 20
19.813446361849792
 10
207.54628513872834
 20
19.671313813512132
 10
208.08632802004408
 20
20.557099132489363
 10
208.3559144140558
 20
21.636305637407403
 10
209.34858247036829
 20
22.590027796201415
 10
210.01045060632038
 20
22.95612018637623
 10
208.49207323062333
 20
23.033335326124092
 10
207.5796468061276
 20
23.566086657144343
 10
207.01777875516797
 20
24.31505230547718
 10
206.9229130349453
 20
25.363458008189852
 10
207.25583074985803
 20
26.330337651911645
 10
208.04457613702508
 20
27.272183381913706
 10
211.47842064851466
 20
29.145413037026884
 10
212.5068322721443
 20
29.488423243494488
 10
213.4716446411071
 20
29.42403636402256
 10
214.3711712803097
 20
29.038256484579044
 10
215.22278425750088
 20
28.370046338524354
 10
216.18958462687672
 20
26.72030842365513
 10
216.67430508025404
 20
26.46785458065128
 10
217.16747384823873
 20
26.50397791148301
 10
217.7750967021667
 20
27.475753238790396
 10
219.10418374341646
 20
28.649269564316622
 10
221.1324533844465
 20
31.459452472439988
 10
222.20199794865013
 20
32.243178577358755
 10
221.07254896329178
 20
33.8622616601494
 10
220.345352068406
 20
35.70919679885755
 10
220.613498331819
 20
36.931167373503776
 10
221.19233781743074
 20
37.924049192874065
 10
222.32462496702695
 20
38.35588042825821
 10
223.46987690559644
 20
38.215875972294135
 10
224.62747153012572
 20
37.806125350793295
 10
226.08984411326824
 20
38.287952205406846
 10
226.3997780348021
 20
38.93014335635763
 10
226.73970329722908
 20
40.92788256774419
 10
227.45752845916775
 20
42.33898716719474
 10
228.75391457314544
 20
42.95818305890136
 10
229.8812250579165
 20
43.0834086864343
 10
231.10877579355144
 20
42.800984486133466
 10
234.77843752129678
 20
40.61012773532388
 10
235.69471102719098
 20
40.550611773441965
 10
235.923938822149
 20
40.89916692195205
 10
235.89160724173436
 20
41.19522207059574
 10
235.4463525087688
 20
42.59998648135209
 10
235.26165125400414
 20
43.95032613907823
 10
235.3332591739477
 20
44.78718230008674
 10
235.8741992239794
 20
45.56044009209302
 10
237.2941401370713
 20
46.26973597221343
 10
238.96946580281673
 20
46.485425631719096
 10
239.79250793096034
 20
46.4105373998124
 10
241.7246023298195
 20
45.501559962856035
 10
242.31670704697612
 20
45.378900060931315
 10
243.34562306620504
 20
47.37320872355963
 10
243.77420973217002
 20
49.167937606246795
 10
244.67548233816768
 20
50.59424109856267
 10
245.48418486329632
 20
51.375281345002556
 10
248.13136992511892
 20
52.575718666019085
 10
249.3377871968571
 20
52.84250270432341
 10
252.27814196314765
 20
52.49479101250117
 10
255.37908882881715
 20
53.56038897812887
 10
257.13037579037297
 20
53.4297254061454
 10
255.79787301702976
 20
55.04080622500516
 10
254.51886351906586
 20
55.75781488750785
 10
253.601938650826
 20
55.981252337502134
 10
252.84680793608152
 20
55.981252337502134
 10
252.1764787294042
 20
55.85032644999965
 10
251.3365465066119
 20
55.395345775003996
 10
250.85883591112525
 20
55.43393631250422
 10
250.34262899292457
 20
55.6961405125008
 10
249.8495746673811
 20
56.55958176249938
 10
249.81094134708547
 20
57.00663287500253
 10
250.14233851669582
 20
58.54866846250563
 10
251.20557681081192
 20
59.419686850005114
 10
251.68328740627913
 20
59.49686792500557
 10
251.88371488008949
 20
58.8723708250072
 10
251.11310343772595
 20
58.47148738750518
 10
250.71252248526844
 20
57.754478725002485
 10
250.6893698925918
 20
56.96821855000436
 10
251.0284389272403
 20
56.38988912500712
 10
251.40600428462233
 20
56.312884262508724
 10
253.07792287000558
 20
56.85244693750368
 10
254.68832953759932
 20
56.52874457500211
 10
256.1446139167164
 20
55.7037176500017
 10
257.98627251581587
 20
53.49119350000116
 10
258.5871439444827
 20
53.14423108750322
 10
258.26765279955106
 20
53.04832284829434
 10
259.66493574724996
 20
52.22513145525125
 10
260.6219529323566
 20
51.199147580863354
 10
262.40422597154804
 20
48.54237882296536
 10
262.8706880657838
 20
48.34371681090482
 10
262.94382095910464
 20
48.99611787825366
 10
260.9863870084195
 20
53.050535644632554
 10
260.9445016114935
 20
54.18313282972578
 10
261.42641400305183
 20
55.09687920659484
 10
262.3433945029641
 20
55.930944601282356
 10
263.31411371051524
 20
56.09686924929643
 10
265.6463782322703
 20
55.83165542595821
 10
265.6157330968057
 20
56.50682360073665
 10
266.6309952954869
 20
60.740306778468
 10
267.1426772493182
 20
61.690206172094875
 10
267.84288928787373
 20
62.35591757158714
 10
268.8109184889519
 20
63.78143729942461
 10
269.76478307462736
 20
65.75842116804853
 10
270.4705498920793
 20
67.72630809236742
 10
270.9802569575163
 20
68.67642498168225
 10
271.8042229938847
 20
69.52323616823708
 10
272.6920304462937
 20
70.08820765629683
 10
273.62500569189655
 20
70.30161289242854
 10
276.9484754206143
 20
70.21997876832214
 10
277.8945287921286
 20
70.42358115111642
 10
278.8729745134126
 20
71.29864474078624
 10
280.7773917159257
 20
72.17959867058008
 10
287.2146801627096
 20
73.73916582516426
 10
289.169858539993
 20
73.97854131052009
 10
290.6482223009438
 20
75.02682484082553
 10
293.2060578211175
 20
76.33755042196104
 10
296.24253523235024
 20
78.41790495426962
 10
296.7759994616799
 20
79.0485843916349
 10
297.4634859382974
 20
80.4341072880317
 10
297.5653141473981
 20
81.45111574359777
 10
296.8222043718593
 20
83.51155559894013
 10
295.5368995705696
 20
85.74276998896575
 10
294.94280133187095
 20
88.1676192869751
 10
295.36267400583375
 20
89.37701694071825
 10
295.9985007963211
 20
90.16546663954195
 10
297.18097476699734
 20
91.12981463467166
 10
299.89022787942395
 20
91.8188769092298
 10
301.0552523652061
 20
91.44506985684559
 10
302.28506171927825
 20
90.84664070747809
 10
303.07177217391944
 20
90.17481440533902
 10
304.11739282545676
 20
88.94100181928638
 10
305.95712288801
 20
87.85895804340952
 10
306.9836054894137
 20
87.64322493530514
 10
307.6289648301949
 20
87.72507525006476
 10
308.8113050734115
 20
88.21581694739429
 10
311.6810572080768
 20
90.43263627305762
 10
312.5091110858956
 20
90.87536564408978
 10
314.06621628117904
 20
91.32138961377683
 10
316.9335039639952
 20
91.6301378372401
 10
318.6523830511573
 20
91.68747288705089
 10
321.2952169295605
 20
91.47756944416413
 10
322.72329015564657
 20
91.61971892082099
 10
325.5876076523886
 20
92.5994405353512
 10
327.2365781978234
 20
93.4034229107185
 10
329.73880626950745
 20
95.17535793598675
 10
326.5902815431267
 20
95.6274789250086
 10
325.9333781002467
 20
95.97162193749863
 10
323.524412481964
 20
96.00298776250207
 10
322.4293907470423
 20
96.19065407500403
 10
319.4729827600798
 20
97.31718058750948
 10
317.5896768936943
 20
97.68934138750139
 10
316.70042553857775
 20
98.36564496250418
 10
314.37192475482937
 20
99.1044178310707
 10
313.53290426581526
 20
98.65974362499786
 10
313.05957759321313
 20
98.64705632499984
 10
312.3088308013336
 20
98.960009725001
 10
311.245044516891
 20
99.695344487505
 10
309.989440617099
 20
101.04862778602303
 10
308.1827373930452
 20
101.95280282500478
 10
307.6715353416189
 20
102.4813949703929
 10
307.0730569160137
 20
102.16601995000484
 10
304.7506737744567
 20
104.75704855000882
 10
304.096647280966
 20
106.14260743749881
 10
303.8026504533388
 20
107.31124873750811
 10
303.7469696540046
 20
108.44494754998111
 10
302.8840816140222
 20
110.25135429999717
 10
302.99872007074595
 20
111.47080292131736
 10
302.8552578496976
 20
112.56523150768524
 10
303.51605149556707
 20
115.19217658750318
 10
304.0844775657518
 20
116.5360713069919
 10
304.2032953195601
 20
117.67282061757591
 10
303.55605479177626
 20
119.91784341249901
 10
303.11560754071064
 20
120.98903920000893
 10
302.43472951962536
 20
121.67996841250736
 10
298.4702932672506
 20
124.21284688750791
 10
297.0388054518675
 20
124.2028027750032
 10
296.7183680894295
 20
123.92244868750738
 10
295.4870337526935
 20
123.90236046249801
 10
292.4436322962604
 20
123.1316069875058
 10
291.48259420410955
 20
122.71116396250058
 10
290.15111462926893
 20
121.8401455750011
 10
287.4380143617153
 20
119.65757755000004
 10
285.4757978836423
 20
118.48611685000789
 10
282.4525350728759
 20
117.30478825000057
 10
278.3263046670059
 20
116.8466357500054
 10
277.3001927197292
 20
116.47130312500147
 10
271.8816640496601
 20
117.009456100005
 10
269.26624306362515
 20
117.78531973750684
 10
265.3368781942097
 20
120.0380203375011
 10
262.4211584914229
 20
120.7888617999985
 10
259.56790968955545
 20
121.94023427500632
 10
257.46554467714907
 20
123.05389727499917
 10
252.710221339104
 20
125.99488389999853
 10
250.2324829307579
 20
127.08352472499946
 10
249.59434815767008
 20
127.17110233750873
 10
245.74005796746206
 20
129.48618216250577
 10
244.56365966420827
 20
130.34962341250434
 10
242.23607061425759
 20
131.43826423750528
 10
241.1473507684604
 20
131.55086402500646
 10
240.42153753791604
 20
131.3631977125045
 10
237.63089663456896
 20
131.48830858750162
 10
235.7412888790589
 20
131.90135068750803
 10
235.20316234649408
 20
132.28919440000791
 10
234.85285950949054
 20
132.87739172500778
 10
234.38980765611365
 20
134.50400931249766
 10
233.96429314232103
 20
134.97960684999634
 10
232.1623638442481
 20
135.94313680000013
 10
231.04857343953427
 20
136.15582528750656
 10
230.09753617144548
 20
136.04322550000538
 10
228.65837649104367
 20
135.04216228750118
 10
227.93968713519143
 20
134.06136351250842
 10
227.58774032709158
 20
133.12285573749654
 10
227.48793967738192
 20
131.84609326386888
 10
228.200398927819
 20
127.19206319766398
 10
227.7619442478244
 20
124.29287419637133
 10
226.55135356058958
 20
121.48895406250382
 10
226.109570273802
 20
120.73202356576218
 10
224.777234773241
 20
119.31413938750573
 10
220.13851245896015
 20
115.40965192819012
 10
218.16038818557354
 20
114.62107187500273
 10
214.04648756276998
 20
113.3696107000022
 10
212.16934658792746
 20
112.50916506250107
 10
209.1659484276841
 20
112.24326039999882
 10
206.94480650496257
 20
112.25876710000473
 10
203.7381039215195
 20
111.77383029999707
 10
200.01019546039478
 20
111.6526712587067
 10
196.69667545282832
 20
111.3128135485154
 10
192.32363704825343
 20
111.24562784747447
 10
191.41174578316566
 20
111.02298883749967
 10
188.79947574168324
 20
111.42968728750705
 10
187.86108463986926
 20
111.91236690801426
 10
186.3748923981609
 20
112.11797331249961
 10
179.98171438358776
 20
114.28147037507648
 10
179.58976432009098
 20
113.52657110731859
 10
178.80833141856257
 20
113.0777712691115
 10
177.84318014004688
 20
112.74047822456946
 10
176.63653770260044
 20
112.75539540427434
 10
176.40321846716293
 20
111.63195190468335
 10
175.69890283835608
 20
110.16468301447588
 10
173.86597103246507
 20
110.78635356862969
 10
170.2819494179651
 20
111.28670654273787
 10
170.26179708671606
 20
109.70104845001529
 10
170.08921385426893
 20
109.04785307971109
 10
169.72828898943868
 20
108.60947569600799
 10
168.03175781630932
 20
110.00626373094165
 10
168.00861588834957
 20
109.87078029915952
 10
167.25872244776662
 20
109.85813799831443
 10
167.21049531124825
 20
112.43359451689456
 10
168.7101491797381
 20
112.46581678750785
 10
167.30258665461756
 20
112.94293048398835
 10
167.51774631771747
 20
113.79564953790505
 10
168.22908312655997
 20
114.33302369236121
 10
169.46312988964482
 20
114.62315206585177
 10
171.08989779259676
 20
114.18273141023991
 10
172.31278561426186
 20
114.12463608264854
 10
173.71917673315363
 20
113.80307955319617
 10
173.85684410388242
 20
114.84089738307357
 10
174.6901494029493
 20
115.92466504639644
 10
175.29007367166153
 20
116.00259497726779
 10
174.28334812864915
 20
116.42020150000529
 10
173.72015103714818
 20
116.9990595625087
 10
168.52684640464298
 20
119.0952834625024
 10
155.13145740532997
 20
123.84040927966896
 10
152.20931326261092
 20
124.4846422294754
 10
142.6098260371206
 20
125.64825581743172
 10
137.41510476366238
 20
126.6569142624973
 10
131.48215977207778
 20
129.24570530111777
 10
128.99607945238964
 20
130.82770221403098
 10
126.46502441198774
 20
131.27702979999918
 10
126.2973393621322
 20
130.94416438750324
 10
125.42219875876003
 20
131.46786793750064
 10
123.69808409168274
 20
133.07404487500207
 10
122.6171731084859
 20
134.6467414375004
 10
121.70353618239972
 20
136.37591469999927
 10
120.65180568584086
 20
140.11990168750458
 10
120.36734485129423
 20
144.88464213310206
 10
119.65695952948472
 20
147.03429523639502
 10
118.52368512657074
 20
148.24911294999632
 10
118.34915019720572
 20
148.7047984750002
 10
117.9608990278341
 20
151.59750287499875
 10
118.06035927801118
 20
154.22923656250262
 10
119.55870191717865
 20
161.23509313750094
 10
120.63481798470717
 20
165.41996379999992
 10
120.3698831084685
 20
170.6912738886096
 10
119.28909914719527
 20
174.9873614412771
 10
117.83723458609138
 20
177.43830291969041
 10
116.70532170893297
 20
178.76617397484955
 10
112.11534887051617
 20
181.2834941125013
 10
107.19809438137474
 20
183.64368433749962
 10
104.04180691096725
 20
184.83893372499432
 10
96.7210355580511
 20
188.34997620503378
 10
85.64772838134691
 20
191.89235214473283
 10
83.12432991895024
 20
192.32320723749925
 10
81.54584368978271
 20
192.85854081249485
 10
80.53574511857546
 20
194.78575204198634
 10
79.08840116139245
 20
196.71347020274482
 10
77.41016498522491
 20
195.88680551942937
 10
76.45909208371012
 20
196.0340602293861
 10
75.1514526812508
 20
196.7063560497365
 10
74.11156943346509
 20
197.67894790084839
 10
73.86412778051226
 20
197.09843747734786
 10
72.99128032419627
 20
196.56681192154747
 10
72.24084529788455
 20
196.42606804099316
 10
71.53974428614431
 20
196.50028866788526
 10
71.43240824932131
 20
195.94366801131864
 10
70.62784139264663
 20
195.08988407064504
 10
69.72479628780003
 20
194.83287460414613
 10
69.48213207612147
 20
194.17947529721997
 10
68.43211488094882
 20
193.55597279263745
 10
68.13961211131479
 20
193.1778258838616
 10
66.9410313196604
 20
192.6137503429472
 10
66.81100753738544
 20
192.02556336798963
 10
65.06577734140348
 20
191.581296018924
 10
64.02712769811713
 20
191.91394423969248
 10
63.414537210990005
 20
192.891300970706
 10
62.662613473817
 20
193.0862602980261
 10
61.698954704657375
 20
192.7806449078003
 10
61.35274617229082
 20
192.8295799718195
 10
60.35342135129624
 20
191.95021120297935
 10
59.44925947739218
 20
191.68771380214082
 10
58.934186073349906
 20
191.83311801021594
 10
58.00732080848821
 20
191.43688909197235
 10
56.92577357633059
 20
192.5373992274561
 10
54.97886492807712
 20
192.82963033657688
 10
54.754895092892845
 20
193.17359487309685
 10
52.92901879846006
 20
192.61959256836712
 10
52.665340115665
 20
193.32171332168485
 10
52.864425665685125
 20
193.48536962710162
 10
50.737693115295535
 20
193.6267976003256
 10
50.77930025035712
 20
194.252467660122
 10
51.39521887325762
 20
195.2481570244533
 10
54.06322071877522
 20
196.11681958517218
 10
55.91284416537215
 20
196.39484589406555
 10
56.712821544489366
 20
195.5950699082739
 10
58.33594529143455
 20
195.36929892255444
 10
58.73957981998385
 20
194.96598769802412
 10
60.337987158252034
 20
195.77217599718026
 10
61.45658178491912
 20
195.84472294103415
 10
62.07946929405047
 20
196.18182278601338
 10
63.097239607346964
 20
196.38714888491882
 10
63.39055023942308
 20
196.17345082795342
 10
63.92235106962644
 20
196.45381353699503
 10
65.23374630477703
 20
196.2702295552125
 10
65.95962652970219
 20
195.45035161141516
 10
67.03716981599385
 20
196.21306587071996
 10
67.19389358434412
 20
196.6350613553882
 10
67.7631803591559
 20
197.27415749566129
 10
68.70857993202095
 20
197.87128541609638
 10
68.74041939229083
 20
198.1247003293318
 10
69.3668020432314
 20
198.99475483689278
 10
70.20199324458515
 20
199.4799929422717
 10
71.02651142128231
 20
199.61619270345494
 10
71.6946596511143
 20
200.701464786621
 10
72.94882012916857
 20
201.5176426672672
 10
74.17811314912345
 20
201.81831567473495
 10
71.77181117863816
 20
203.1815353168342
 10
69.5919819979598
 20
203.74283451250457
 10
68.21584120886222
 20
204.58283950000472
 10
67.94787392330095
 20
205.08134466249567
 10
67.1167095462387
 20
205.77368357499802
 10
63.893156259263044
 20
207.60135962499612
 10
61.73174528567264
 20
209.74269392500364
 10
61.29759992373156
 20
210.4441958875004
 10
58.62833888490624
 20
213.00103926250554
 10
55.82043628526227
 20
219.2773760875052
 10
55.21079701084588
 20
220.8648745000012
 10
55.007629585227804
 20
222.3047068374994
 10
55.118460635341535
 20
224.17819813749452
 10
55.22929168545528
 20
224.38119493750034
 10
55.75577342288123
 20
224.53820027499458
 10
56.12525592246073
 20
224.98119850000046
 10
56.87339976013362
 20
227.94368305000063
 10
56.91025211177081
 20
229.53118146249662
 10
57.22438758508426
 20
230.44484327499362
 10
57.11355653497051
 20
230.77700383749385
 10
56.62392714918175
 20
230.65700312499382
 10
56.53159077367742
 20
231.55216262499997
 10
57.30754512205523
 20
234.3576418374934
 10
57.61222776169154
 20
234.76381164999458
 10
57.62154359778705
 20
236.1664631499965
 10
57.44604968531174
 20
237.0062919249946
 10
56.5409066097924
 20
239.56243045000403
 10
56.24526581108836
 20
240.0054286749974
 10
56.06977189861305
 20
240.78992672499996
 10
54.859809185875775
 20
243.21690148750247
 10
53.428184372930495
 20
245.30237642499574
 10
52.00573839847963
 20
246.53885953749653
 10
49.715138697747705
 20
247.6368396249939
 10
48.82835329925615
 20
247.812171062502
 10
44.948992550111946
 20
247.89534336249733
 10
44.34866911179106
 20
247.72001192500178
 10
41.947238360945406
 20
247.8491756874962
 10
37.957046561687456
 20
245.73603538749265
 10
36.50814257676006
 20
245.2510315213867
 10
36.06677124452358
 20
244.9983207633903
 10
35.638636350231145
 20
244.3980538749952
 10
33.08020636153904
 20
243.23522758750377
 10
31.232930861242615
 20
241.22358568749686
 10
29.81966372532511
 20
240.8452574499955
 10
27.224244387375258
 20
239.3041029250027
 10
25.459989426487656
 20
238.54744644999994
 10
22.0517633885228
 20
236.7294620875024
 10
20.509307525444306
 20
236.22179387500455
 10
19.271671299583744
 20
235.4559743499949
 10
17.35041710083023
 20
235.15130293750286
 10
15.539993952209931
 20
235.20680987500046
 10
14.588682688938425
 20
234.99447381249817
 10
12.806070051023044
 20
233.90548056249312
 10
12.03025270022685
 20
233.6378137749953
 10
10.081324988350042
 20
233.29649016250067
 10
7.097928476211283
 20
233.1579871374973
 10
4.779518264754973
 20
232.26282763750365
 10
2.267256463795567
 20
231.77366173749664
 10
-1.538262584453709
 20
231.63533492499533
 10
-7.8912518142616905
 20
230.92149808750466
 10
-12.81206824072002
 20
230.96854682500356
 10
-14.317397756978611
 20
230.83691608749282
 10
-21.505798289093327
 20
231.80520377500216
 10
-25.608054116777502
 20
233.1590444124971
 10
-30.434753199092516
 20
234.48451483749858
 10
-33.01277384312489
 20
234.95447357499398
 10
-35.60956315696885
 20
234.93579505000108
 10
-38.71447653121098
 20
235.99800399999364
 10
-39.937591012562834
 20
236.6277874750037
 10
-41.59361787754329
 20
238.21651937500158
 10
-42.543833160103404
 20
238.64894484999658
 10
-44.576192404133906
 20
240.05899727499738
 10
-46.45799129704364
 20
241.1305454874989
 10
-47.652884274887306
 20
241.40314622500426
 10
-53.20402661183315
 20
245.28546002499837
 10
-54.794157636139545
 20
246.04687423749414
 10
-56.9111813906557
 20
246.4886389749981
 10
-57.67329898247186
 20
246.9585977124935
 10
-61.22044057645756
 20
248.2370193999961
 10
-67.28083756032548
 20
251.35168658091158
 10
-70.48777953313875
 20
254.15511621250374
 10
-72.18148073530455
 20
254.8130936874927
 10
-78.17950921004172
 20
258.98386735000224
 10
-81.44909368716844
 20
260.6404410624916
 10
-83.3896645460795
 20
261.25136979999417
 10
-87.38848719348591
 20
264.2353522749952
 10
-89.94061529305343
 20
267.93599098749473
 10
-91.20113011640791
 20
268.56947492499796
 10
-92.63124795587747
 20
270.97530418749125
 10
-94.0425971255549
 20
272.6387501874983
 10
-96.28195972772255
 20
274.35858418750075
 10
-96.94050714167933
 20
275.2419374499941
 10
-97.61796022302933
 20
275.83401145000175
 10
-98.56831250317107
 20
276.36969745000147
 10
-100.75109510076017
 20
278.9258359749984
 10
-101.40964251473642
 20
279.461345762496
 10
-101.7202160507135
 20
280.0345650249962
 10
-103.28212557153118
 20
281.2375677624938
 10
-103.50789759944098
 20
281.50999228749714
 10
-103.11265955299773
 20
282.09255081249376
 10
-103.49844476574437
 20
282.82559481249604
 10
-104.27933102737214
 20
283.36128081249575
 10
-106.36813327838009
 20
283.9531786000013
 10
-107.84346032247203
 20
284.81503393749387
 10
-111.49376110155278
 20
286.1611212249984
 10
-113.10361977878107
 20
285.84323387500217
 10
-115.2002308924088
 20
285.9368027124938
 10
-117.35301101785075
 20
286.871610025
 10
-119.00027003708165
 20
288.21752110000244
 10
-121.41512655172461
 20
289.32061134999697
 10
-129.6703273152918
 20
291.7322556249956
 10
-135.24873217259665
 20
294.03165253749717
 10
-137.9068964066485
 20
294.8915695374921
 10
-143.78491499275805
 20
296.48065386249414
 10
-148.53955334285604
 20
297.2096449749991
 10
-156.70132175018807
 20
296.9853264624945
 10
-158.73395498942074
 20
296.4524598624902
 10
-165.13146843588459
 20
295.7944823875012
 10
-169.06097030288163
 20
295.18425849999437
 10
-171.67282935158028
 20
295.10055756249284
 10
-174.39236850584007
 20
294.406632737497
 10
-175.57835664037208
 20
294.51429857499056
 10
-176.78845635069092
 20
294.406632737497
 10
-177.80675943534789
 20
294.09561767499343
 10
-179.00480335778303
 20
293.5571122749983
 10
-182.73072680639768
 20
292.44450654999275
 10
-184.79130755391697
 20
291.5830036374918
 10
-187.199451186671
 20
287.90985407500045
 10
-188.28967800594387
 20
287.00042136249033
 10
-190.02680744407365
 20
283.85361853750226
 10
-190.52999959124134
 20
283.3630429374913
 10
-191.82394182649767
 20
282.63317076250104
 10
-192.5546869702531
 20
282.4178390875013
 10
-193.7767054708936
 20
282.86048488749054
 10
-195.28628191241614
 20
282.4178390875013
 10
-196.5681683597693
 20
280.802499099993
 10
-198.5090132138631
 20
280.0604682624984
 10
-200.06640181421466
 20
278.8040731375028
 10
-202.18698750604767
 20
277.5117306625003
 10
-203.44489937519558
 20
276.91348922499577
 10
-207.8297812305508
 20
275.3818501750015
 10
-215.1258618682267
 20
273.68263303750206
 10
-219.04371894008494
 20
272.4096739375007
 10
-225.3484850182801
 20
270.65953138749467
 10
-226.98081130023797
 20
270.5996191374957
 10
-230.47013991133264
 20
270.8688718374995
 10
-232.26713729617512
 20
271.4972456124931
 10
-233.6747875309345
 20
272.23011339999334
 10
-236.19074826681197
 20
274.3691569374991
 10
-237.62840097371856
 20
276.49304620000305
 10
-239.0183785193973
 20
279.0283916499949
 10
-239.23620468710567
 20
280.01482922499093
 10
-238.97481328585172
 20
281.5670851375008
 10
-239.1926394535601
 20
283.11934104999807
 10
-239.4541678524152
 20
283.4240124625026
 10
-240.3401312653586
 20
283.5981104124963
 10
-241.24075342043125
 20
286.4705503749959
 10
-241.82176019857513
 20
287.63108589999814
 10
-245.51110529073532
 20
291.6057350499945
 10
-246.52790140191655
 20
292.055429349991
 10
-247.87869763691475
 20
292.9548179499965
 10
-249.79597890554805
 20
292.9983424374918
 10
-251.43734702843818
 20
293.3174632750024
 10
-252.48318662863682
 20
293.1433653249962
 10
-255.62056843165107
 20
293.4769355875004
 10
-259.063043867066
 20
292.0263542875018
 10
-261.25637527906315
 20
290.8078448499982
 10
-262.3603018573355
 20
290.3872256124909
 10
-264.0452352137517
 20
290.12607868749416
 10
-265.1346400474959
 20
289.3572635499996
 10
-266.84861689292956
 20
289.37171297499316
 10
-269.6228180855084
 20
288.79144521249833
 10
-271.2787079529072
 20
288.77699578749224
 10
-275.8686752001206
 20
290.3581505500017
 10
-279.09318747022604
 20
291.0399167124932
 10
-280.8505925516236
 20
292.31428551249854
 10
-281.83026231596546
 20
293.270590749993
 10
-282.78924544425564
 20
294.6367662624944
 10
-284.1753870574153
 20
294.826370912494
 10
-285.1475219543396
 20
295.3846121124943
 10
-287.71143184662753
 20
296.0584487124934
 10
-291.07718863177774
 20
298.27273498750196
 10
-291.71724137112506
 20
298.23396823749965
 10
-291.93808148580445
 20
298.01581716249206
 10
-292.79691937599
 20
297.849824987493
 10
-293.3292920097956
 20
297.43607803749086
 10
-296.18240381406196
 20
297.17246413749035
 10
-297.9013125727456
 20
296.6242670499946
 10
-299.4243147780654
 20
296.4343099749909
 10
-300.39823064364816
 20
296.08717134999097
 10
-303.8441310187983
 20
294.43429809999475
 10
-306.2407668540146
 20
293.0563163499931
 10
-307.6641718115757
 20
291.83780691250206
 10
-312.6173196692246
 20
286.6300226874939
 10
-313.5178048266962
 20
285.962705949996
 10
-317.99159811780106
 20
282.93079367499837
 10
-320.9547189866525
 20
281.451137312498
 10
-323.40944179990356
 20
280.47914916249556
 10
-324.1066225341755
 20
279.8988814000007
 10
-326.488736624883
 20
278.4625733124936
 10
-326.83739549080974
 20
277.9693545250018
 10
-326.8664389798272
 20
277.31648721249746
 10
-327.22961959028214
 20
276.5476720750029
 10
-329.6552989145158
 20
274.16827468749295
 10
-330.62839279455034
 20
273.60245634999166
 10
-332.1245434722951
 20
272.97866410000154
 10
-333.53342668534754
 20
272.6304682000017
 10
-334.85531642890993
 20
272.6304682000017
 10
-339.53241414321445
 20
272.0211253749926
 10
-343.6285050793362
 20
270.61371613749765
 10
-346.5480607146421
 20
270.35256921250095
 10
-353.1424396975994
 20
274.5020211624992
 10
-355.1613731778326
 20
274.99523994999095
 10
-356.81726304523147
 20
276.504147587495
 10
-358.29889197844795
 20
278.4336744624939
 10
-361.8430196254433
 20
281.9734311624915
 10
-364.457481628368
 20
283.19194059999506
 10
-365.47427773954917
 20
283.90278182500083
 10
-365.85184309691175
 20
283.80128342499165
 10
-368.1613484650369
 20
286.6879965999953
 10
-369.8898470549987
 20
288.3852753999971
 10
-370.90664316616045
 20
289.7343582999991
 10
-371.29886726565223
 20
290.64837253750017
 10
-371.8072653212331
 20
291.2866142124964
 10
-372.7803592012677
 20
293.97015437499215
 10
-372.70775047870467
 20
294.7245200874932
 10
-373.08545283366834
 20
295.05809034999737
 10
-373.02736585561405
 20
297.65458153749006
 10
-373.34684423492234
 20
297.8866533999976
 10
-373.3904094684679
 20
299.8013784249988
 10
-371.96248359042113
 20
304.79647416250054
 10
-371.6465671484492
 20
305.44070706249164
 10
-371.5412160019314
 20
307.5573716124988
 10
-371.06720434136275
 20
309.35843957499895
 10
-370.4879785318773
 20
311.18593941249503
 10
-369.9086157247908
 20
311.9616268374948
 10
-368.644675961701
 20
315.55054682499093
 10
-366.45901641472267
 20
320.8090802499911
 10
-366.2220105844383
 20
321.63727899999105
 10
-366.16940350997993
 20
323.17526169999684
 10
-366.52491225539666
 20
326.1329885124915
 10
-366.827676928754
 20
327.1715849874961
 10
-367.9468102394821
 20
328.8935335374982
 10
-369.7506575037951
 20
329.9976810624925
 10
-371.2251625623584
 20
330.3920446374935
 10
-372.5023910916638
 20
330.40526057499767
 10
-375.188228838839
 20
329.9846413374904
 10
-377.4660877637207
 20
329.2221698499948
 10
-379.0329291977688
 20
328.14427798749426
 10
-379.9413602154418
 20
327.31607923749436
 10
-383.4830219058316
 20
325.50214776249413
 10
-385.58963384352137
 20
323.96398884999877
 10
-386.3533954064144
 20
322.92556858749623
 10
-387.82474952040565
 20
321.6240630624994
 10
-387.660078417521
 20
320.37524507499216
 10
-388.0057233364769
 20
319.8000874749944
 10
-389.75025064444253
 20
318.4691544624917
 10
-390.96815921738124
 20
317.95972412499833
 10
-392.35060189562284
 20
317.61452383749594
 10
-394.8686175953414
 20
317.7295906000009
 10
-397.33731416275526
 20
318.1896814374937
 10
-402.67241130065116
 20
320.4878448624933
 10
-404.2496645515257
 20
321.50917251249643
 10
-405.3359184407173
 20
321.9692633499892
 10
-409.15417826481684
 20
324.77914787499657
 10
-411.2443504917384
 20
325.9622385999994
 10
-415.11782034452233
 20
327.5518515624951
 10
-417.71228069934244
 20
328.2954683124957
 10
-422.63323412340185
 20
329.23203774999746
 10
-425.4968947420762
 20
329.593449587489
 10
-427.1590864985996
 20
329.5277223249971
 10
-428.4593306229806
 20
329.2648132749923
 10
-431.48752534695797
 20
327.9504442374954
 10
-433.2156129441554
 20
326.88224406249543
 10
-434.53229677930466
 20
325.7484928374932
 10
-435.2398893304029
 20
324.97632966249705
 10
-435.66786980080104
 20
324.05614798749895
 10
-436.1121529843858
 20
320.35885731250096
 10
-436.0299544305251
 20
318.86351803749267
 10
-435.7171889331252
 20
317.22016026249497
 10
-435.7336286438935
 20
313.6707118749968
 10
-436.80782674516246
 20
309.87315628749155
 10
-437.1189482715049
 20
307.9052150874945
 10
-438.4242613067175
 20
302.7435985375001
 10
-439.0119809667697
 20
301.181122299996
 10
-438.9169046394772
 20
299.54111256249985
 10
-439.51339214527894
 20
297.9354642624921
 10
-440.5851242899424
 20
296.07095980000184
 10
-441.72617721503474
 20
294.30143387499464
 10
-443.9477301305206
 20
291.6252946374977
 10
-447.7769497618119
 20
287.6282664999902
 10
-449.3415992344178
 20
286.4025323500024
 10
-451.0357114293674
 20
285.53909109999125
 10
-454.57120822821423
 20
285.142084337497
 10
-456.67165527436106
 20
284.5981163500006
 10
-457.99423000587046
 20
283.9507116249975
 10
-459.3252985879468
 20
283.7003136625012
 10
-463.4657767431623
 20
284.37379783749606
 10
-466.352863949696
 20
285.0816434499918
 10
-467.3058191840443
 20
285.48199825000023
 10
-469.8304107680896
 20
285.71512738749504
 10
-472.015385327121
 20
286.46720233749437
 10
-474.3702368974502
 20
287.5690590999995
 10
-475.7491176383554
 20
288.3317067999971
 10
-477.1386841912504
 20
289.412241849991
 10
-478.7508718275025
 20
291.5625629874908
 10
-479.7373914713539
 20
292.5689125749942
 10
-481.12682102666713
 20
294.6663699625023
 10
-483.0467052495071
 20
296.7955455999929
 10
-484.0862429605811
 20
297.0496440249949
 10
-486.3879394660865
 20
299.0834886999983
 10
-487.5654337500516
 20
299.6026107249923
 10
-489.71862486825785
 20
301.3502862999946
 10
-491.47945488939075
 20
302.15522499999815
 10
-493.34618404742633
 20
303.73356036249976
 10
-496.6131655703465
 20
304.8667829499958
 10
-499.2650279152738
 20
305.16334858749326
 10
-501.396984407063
 20
305.58713965000004
 10
-502.07580746430705
 20
305.8837052874975
 10
-505.2474386647714
 20
306.20141642499163
 10
-505.7883051491244
 20
306.15912542499825
 10
-506.0005144156748
 20
305.9259962874909
 10
-506.4141101391458
 20
305.8412380749895
 10
-510.3281312784849
 20
305.9790362499972
 10
-511.3464343631614
 20
305.7459071124898
 10
-513.0223258786453
 20
306.2437074249976
 10
-515.2604555025005
 20
306.4132238500003
 10
-516.7560581898798
 20
305.51295418749703
 10
-522.0914293229583
 20
305.3222922624976
 10
-527.8298473651
 20
304.337264387493
 10
-528.8481504497571
 20
303.9347950374975
 10
-530.11044624177
 20
303.77585136249314
 10
-530.8422873662562
 20
303.45814022499894
 10
-531.6483811843823
 20
303.60633493749043
 10
-533.1122004309365
 20
303.12968012499186
 10
-533.9925469427218
 20
302.5048306000019
 10
-535.3821134956167
 20
302.15522499999815
 10
-537.015535758286
 20
301.38200455000214
 10
-538.023290028535
 20
301.31856804999956
 10
-541.8418238478366
 20
300.4498404250018
 10
-543.8889788315586
 20
300.2063147499981
 10
-547.5377726371441
 20
300.07926553749087
 10
-549.9668769011325
 20
300.21688749999646
 10
-551.9927972584373
 20
300.6087840999936
 10
-553.2761906792858
 20
300.4498404250018
 10
-554.336963016777
 20
300.00508007500036
 10
-557.7629987414041
 20
299.6766199749933
 10
-560.4784279679816
 20
299.6026107249923
 10
-562.0695179754177
 20
299.28472337499613
 10
-568.8580225430414
 20
298.77635031249
 10
-572.1780221332037
 20
298.87168127500223
 10
-573.5675886861181
 20
299.2741506249978
 10
-575.0101733062552
 20
299.42252154999125
 10
-577.0708910513756
 20
298.61740663749816
 10
-578.3089382700005
 20
298.3950264624912
 10
-580.5939210695549
 20
298.5486837624964
 10
-581.8411471266936
 20
298.8928267749989
 10
-585.2184117093815
 20
299.04084527500083
 10
-588.649105352076
 20
299.85195141250136
 10
-589.295459980548
 20
299.83538743749557
 10
-591.2013704492447
 20
300.23257041249195
 10
-592.1792592449281
 20
299.57054004999316
 10
-593.4885452102218
 20
299.4050765125003
 10
-593.786925960714
 20
299.0242812999951
 10
-594.5327408393631
 20
298.8091258374974
 10
-596.6541485167443
 20
298.54445466249706
 10
-599.0242068195291
 20
298.51132671249803
 10
-605.6866736045833
 20
297.28647362499544
 10
-607.3606471538272
 20
297.36929349999923
 10
-609.2334042057852
 20
297.1375740624958
 10
-611.4708488416934
 20
296.29351618749837
 10
-612.1835103036232
 20
296.29351618749837
 10
-612.5979280126229
 20
295.49897402499107
 10
-613.7911770194092
 20
294.406632737497
 10
-617.0728172844391
 20
292.6688250624974
 10
-618.2863419345127
 20
292.5142866999944
 10
-619.7131718318287
 20
292.02653049999134
 10
-622.7906856881302
 20
291.47709992499375
 10
-624.6634427400882
 20
291.3114601749988
 10
-625.8235383301553
 20
290.94740515000143
 10
-630.0001838490804
 20
290.4177103749966
 10
-632.5124456500398
 20
289.86493176249746
 10
-644.2632769138263
 20
286.3653515124936
 10
-647.1905044141508
 20
285.8874632124932
 10
-657.8857692488788
 20
284.8053422499933
 10
-664.5282343858283
 20
283.821371650001
 10
-669.4678194820983
 20
283.48410092499114
 10
-675.955340345023
 20
283.7089480750019
 10
-677.8974181774099
 20
283.91969822499817
 10
-679.17807164647
 20
284.28516294999946
 10
-680.2756963355985
 20
284.8333600374952
 10
-681.0638434694611
 20
284.8474570374971
 10
-686.6647159314955
 20
287.4897634749994
 10
-689.2682181272284
 20
288.9514461625025
 10
-690.8725969008802
 20
289.54175803750206
 10
-691.9561108382642
 20
289.90704655000127
 10
-694.1093019564704
 20
290.1600876999909
 10
-694.8692275868443
 20
290.6659937874932
 10
-699.86511869251
 20
291.8185997499904
 10
-704.9454003134592
 20
292.1135794749944
 10
-706.9578949069863
 20
292.6758735624921
 10
-707.2112034504377
 20
292.9287384999922
 10
-708.2666328819341
 20
292.59146777499484
 10
-711.6159499562966
 20
292.21208226249365
 10
-713.1216904653194
 20
292.21208226249365
 10
-711.827063242116
 20
296.70937768750014
 10
-709.5331755992304
 20
295.9645274499976
 10
-706.8156914088117
 20
296.1916653624976
 10
-703.8392817737641
 20
296.2283175625002
 10
-702.5054732398802
 20
296.0963343999979
 10
-702.0131039023032
 20
296.20999146249886
 10
-701.5022398900974
 20
296.5585397874903
 10
-700.6954610840241
 20
296.25950717500154
 10
-700.5653133737529
 20
296.40823052499917
 10
-700.1389768744316
 20
296.40082960000035
 10
-698.7243397626005
 20
296.15131270000177
 10
-697.339020134989
 20
295.52011952500027
 10
-688.4519864874586
 20
293.2379914375002
 10
-685.8203997858186
 20
292.08556168749254
 10
-684.3990497920986
 20
291.08767030000035
 10
-679.5298814569688
 20
289.0356757374977
 10
-677.0952972893845
 20
288.206595925
 10
-674.9138846676896
 20
287.1946075374933
 10
-668.0323587366339
 20
286.843239812494
 10
-665.5414685596733
 20
286.94156638749115
 10
-655.9860236717251
 20
288.332940287499
 10
-645.2343158300197
 20
290.3849348500017
 10
-638.8592699882854
 20
292.1838882625022
 10
-636.1572665255052
 20
292.76010313749975
 10
-631.5977127432228
 20
294.24980361249226
 10
-628.0653668889286
 20
294.89632727499765
 10
-626.7848504174889
 20
295.69738929999346
 10
-624.9618234905805
 20
296.52523562500176
 10
-624.1828551952318
 20
296.67413518750146
 10
-619.914558288769
 20
298.87450067499765
 10
-614.8519493569004
 20
300.580061462496
 10
-611.6366159253089
 20
301.39116759999655
 10
-610.2078680617334
 20
301.501476624996
 10
-606.4523531337359
 20
300.6061409125003
 10
-601.9217058428893
 20
302.96915053749404
 10
-599.8396164737703
 20
303.21091408748964
 10
-598.3811401332109
 20
303.0653625624915
 10
-596.3127505230718
 20
304.084751874997
 10
-594.0188628801862
 20
304.7866062624979
 10
-592.2422781362128
 20
304.77321411249164
 10
-590.9164154625496
 20
304.29655929999313
 10
-588.0391920824769
 20
304.0052800374948
 10
-587.2170695463469
 20
303.47576147499205
 10
-586.951979210175
 20
302.25760446249257
 10
-586.5144089084791
 20
301.9663251999943
 10
-585.9310731712919
 20
301.88702957499413
 10
-583.7830879614988
 20
302.456195949997
 10
-582.6428570219547
 20
302.54888372499084
 10
-582.1655574192519
 20
302.74747521249526
 10
-581.5687959182674
 20
303.34342588749814
 10
-577.0078721600909
 20
303.6611370249923
 10
-573.1008378978038
 20
303.6382294
 10
-571.1916394869535
 20
304.15717521249195
 10
-566.3078124097141
 20
304.6644909999982
 10
-563.0980958793
 20
304.7377953999909
 10
-562.293372037068
 20
304.4607893499967
 10
-562.0913005921808
 20
304.0939149249914
 10
-559.1902396315038
 20
304.72123142499765
 10
-558.3303057605874
 20
304.77444759999355
 10
-552.9912356925907
 20
304.3561191250005
 10
-551.3775410828434
 20
303.8817550749912
 10
-550.2214184228965
 20
304.10413524999814
 10
-549.7441188201742
 20
304.36898263750055
 10
-549.436559231168
 20
304.9092501624912
 10
-547.8667038501491
 20
305.39647772500064
 10
-546.9332022735592
 20
305.47048697500156
 10
-545.9148991888828
 20
305.0574448749952
 10
-543.9526827108099
 20
304.68669377499475
 10
-535.976135044813
 20
306.25445638749795
 10
-534.4698465454246
 20
306.70978948749774
 10
-530.6407639117344
 20
307.26062976249926
 10
-528.0313708196218
 20
307.92794649999723
 10
-525.4751327923526
 20
308.09728671249786
 10
-524.0007647313903
 20
308.9975563750011
 10
-522.5794147376703
 20
309.52725114999345
 10
-519.0366570665691
 20
309.7813495749955
 10
-516.5970039881727
 20
309.2518310124927
 10
-513.9451416432454
 20
309.12478179999795
 10
-511.6752285785651
 20
308.3515613499894
 10
-509.7660301677148
 20
308.60565977499147
 10
-509.288730565012
 20
308.41499784999206
 10
-507.9203986385147
 20
308.2773758874989
 10
-504.4412078490637
 20
308.16089942499
 10
-502.6168109462612
 20
307.7478573249962
 10
-502.0652586498991
 20
307.8007210750004
 10
-502.52132362620426
 20
308.2031904249959
 10
-501.1742263261241
 20
307.7795755749912
 10
-498.56497023161256
 20
308.1714721750009
 10
-486.0273618098576
 20
302.02817578749085
 10
-484.3407844823451
 20
300.841913237501
 10
-483.7044306779352
 20
300.21688749999646
 10
-483.3756364625119
 20
299.47538529999554
 10
-482.5128256422257
 20
298.51502717499125
 10
-481.71604766019516
 20
297.9215434749922
 10
-480.7706272932839
 20
297.4764306999991
 10
-477.5425530858615
 20
294.1449571749941
 10
-476.1244910342757
 20
292.391466587499
 10
-473.4097467956648
 20
290.51656558749994
 10
-469.41188313138815
 20
288.8305643874922
 10
-467.8721672200978
 20
287.9942598624977
 10
-466.0758548232219
 20
287.5761075999942
 10
-465.14386022010797
 20
287.09046594999086
 10
-464.13090004144584
 20
286.86121348749117
 10
-463.15849114933883
 20
286.7398030749997
 10
-457.1211443663589
 20
286.95566338749313
 10
-456.3919061960793
 20
286.7262347124914
 10
-455.5814284550687
 20
286.7937240999913
 10
-454.43338865292424
 20
287.09046594999086
 10
-452.70461606777974
 20
288.08870976249966
 10
-451.7727584622474
 20
288.4124121250012
 10
-448.3993298120785
 20
290.43392192499823
 10
-446.47177372420043
 20
292.25543053749936
 10
-443.956360978669
 20
295.233597999995
 10
-442.67707748552243
 20
297.45211337499046
 10
-441.8039918460109
 20
299.49794049999616
 10
-440.99145914115917
 20
302.3464155624912
 10
-440.29989530806483
 20
306.48106566249174
 10
-439.72710838530503
 20
312.37713591249246
 10
-439.55188846799297
 20
316.79302116249914
 10
-439.68354315175947
 20
320.01383323750065
 10
-439.5683281787612
 20
322.41279021250125
 10
-438.8771753384507
 20
324.77914787499657
 10
-437.54405179251376
 20
326.66867451249124
 10
-435.68430951156927
 20
328.47626233749247
 10
-434.4335215170941
 20
329.29776501248926
 10
-431.86604968746974
 20
330.33283723749025
 10
-425.41455919063395
 20
331.7952247749891
 10
-422.60021770426425
 20
332.18958834999006
 10
-418.40343353965295
 20
332.2059761124937
 10
-418.23889943436944
 20
331.8445642749897
 10
-416.44505299407956
 20
331.8445642749897
 10
-412.51157819698176
 20
330.79292807499553
 10
-411.22791078097015
 20
330.25072221249474
 10
-408.74263750518696
 20
328.3118560749994
 10
-408.3476734539264
 20
327.63819568748994
 10
-407.50828922148
 20
326.89880803750117
 10
-398.91730736541797
 20
321.9035360874974
 10
-394.5231096739867
 20
320.9667904374936
 10
-393.4861749170998
 20
320.8846754124981
 10
-392.43293744706517
 20
321.0325176999979
 10
-390.7048498498677
 20
321.952699374996
 10
-388.4501435176432
 20
323.7602871999972
 10
-387.08414055018926
 20
325.6827655749888
 10
-383.4963106720473
 20
328.8540619375002
 10
-377.66350129056013
 20
332.784305537491
 10
-376.66287089498394
 20
333.24439637499626
 10
-373.91113730713465
 20
333.67823154999525
 10
-372.04153119970977
 20
333.7702144749934
 10
-366.5380640240113
 20
332.29795903749186
 10
-365.80005800798205
 20
331.8302910624982
 10
-365.53743362841556
 20
331.4042092374897
 10
-365.603192471508
 20
330.8389195374946
 10
-364.11539864674853
 20
327.48700536250107
 10
-363.6019316803361
 20
325.5809147500006
 10
-363.52288407104743
 20
321.40062561249255
 10
-364.4446038549361
 20
318.2850123999934
 10
-365.8007429959291
 20
315.2088707874922
 10
-366.6301264043134
 20
311.63299052499815
 10
-367.01193868697885
 20
309.08249079999206
 10
-368.82893771992593
 20
303.9155878749984
 10
-369.1975982339573
 20
301.3516959999985
 10
-369.27979678781793
 20
295.7833809999967
 10
-368.65522477610904
 20
293.33191269999594
 10
-367.0429001422558
 20
289.6908338124913
 10
-366.3892846415295
 20
288.68994681250166
 10
-364.3993946503137
 20
287.06526756249684
 10
-363.673170427005
 20
286.26737736250055
 10
-362.0172805596256
 20
284.9182944624986
 10
-359.5916012353919
 20
283.72868387499466
 10
-356.55587164397747
 20
281.4366878874919
 10
-354.3334967429435
 20
278.8542937000012
 10
-353.2440919091993
 20
278.27402593749383
 10
-352.00946963030964
 20
276.6491704749995
 10
-348.5089072168405
 20
274.6470440499911
 10
-347.245241448914
 20
274.31347378749945
 10
-345.545786347989
 20
274.16827468749295
 10
-342.20496312417396
 20
274.22642481249636
 10
-338.55918326557884
 20
275.03876443749874
 10
-334.2160856751107
 20
276.79419336249146
 10
-329.6407771700071
 20
279.44918709999166
 10
-327.7815828794086
 20
280.75474551249835
 10
-324.89107073313954
 20
283.3080646374999
 10
-322.3926456887418
 20
284.58454798749233
 10
-317.8318589281469
 20
288.18227859999126
 10
-316.1178820826938
 20
289.86493176249746
 10
-315.30439039473174
 20
290.8948938250013
 10
-312.10892161364376
 20
293.62195847499237
 10
-307.9837871884851
 20
296.1314006874945
 10
-307.3301716877588
 20
296.71166845000187
 10
-302.8273349076171
 20
299.7143294499957
 10
-302.23180638494506
 20
299.7723033624971
 10
-301.1859667847464
 20
300.1784731749983
 10
-299.50391037771954
 20
301.76244733749064
 10
-296.35693874340757
 20
303.3317958624999
 10
-294.6944729917209
 20
303.69602709999936
 10
-292.5519676855043
 20
303.5661584874967
 10
-291.35721170524215
 20
303.2278304874995
 10
-290.2560250787775
 20
302.71857636249564
 10
-288.44738289881565
 20
300.72966587499144
 10
-281.1413014370777
 20
298.3507971250002
 10
-279.7032377374067
 20
297.65458153749006
 10
-277.6407390236085
 20
295.6672569624919
 10
-277.08877573448206
 20
295.3627617625019
 10
-276.92903654482797
 20
294.9419663124926
 10
-276.28994278861035
 20
294.46337316249645
 10
-273.7769959997039
 20
293.83958091249383
 10
-270.53796198508974
 20
293.5495351374974
 10
-269.17264400556337
 20
292.57754698749494
 10
-268.44628278467303
 20
292.51957307499356
 10
-266.57256674958523
 20
293.27393878749456
 10
-263.9000177686063
 20
293.9121804624908
 10
-261.7502515901353
 20
293.5930596249927
 10
-260.09436172275593
 20
293.98460379999824
 10
-259.12113084512026
 20
294.3037246374964
 10
-257.7967751449329
 20
295.35042688749553
 10
-257.74129112108517
 20
295.53668349999356
 10
-256.8988929416679
 20
295.81227984999634
 10
-255.0105181644704
 20
296.8422419125002
 10
-254.21168521859863
 20
297.07431377499523
 10
-251.5535209845467
 20
297.0887632000013
 10
-251.03073818203876
 20
296.91484146249724
 10
-249.8396811366947
 20
295.84135491249805
 10
-249.1568851493305
 20
295.9719283749964
 10
-247.06534294651482
 20
295.7833809999967
 10
-245.1771051668989
 20
295.23218829999104
 10
-243.85521542333646
 20
294.44892373749036
 10
-243.53573704402822
 20
294.1442523249983
 10
-243.18707817810144
 20
293.1433653249962
 10
-240.8340075764308
 20
291.47516158749613
 10
-238.78603060716068
 20
289.1831655999934
 10
-237.52236483925367
 20
286.87672018749714
 10
-236.3893947719639
 20
283.6707099624933
 10
-235.953605438946
 20
281.16091532499956
 10
-235.20094068082642
 20
279.761083224993
 10
-233.29366023621617
 20
277.89446421250307
 10
-232.92952064265097
 20
276.8606254749915
 10
-228.98070211549634
 20
274.43858466249657
 10
-228.38654356871842
 20
274.24721788750145
 10
-227.95527515616664
 20
274.34290127499276
 10
-225.38657034822978
 20
273.3090625374937
 10
-222.21425415981838
 20
273.83558548749903
 10
-220.45068418689732
 20
274.390831075002
 10
-216.80860326320067
 20
275.91295464999774
 10
-213.914118186831
 20
277.33921862500017
 10
-210.68426301071133
 20
279.18680668749306
 10
-209.53403124712457
 20
279.5505092874988
 10
-206.96546343676937
 20
281.03421853749643
 10
-201.72283967195943
 20
285.6671975874984
 10
-198.23419604881184
 20
287.41892604999794
 10
-195.95304918175702
 20
287.304035499995
 10
-194.63047445024756
 20
287.6487071499912
 10
-191.28554129875016
 20
290.40537549999016
 10
-190.10654004130936
 20
291.68802628749205
 10
-188.80314497235634
 20
292.2815099874911
 10
-185.86071073955657
 20
295.15289267499094
 10
-183.69464184791838
 20
296.4258517749923
 10
-181.48062379986965
 20
297.35431543749945
 10
-179.60211284911355
 20
298.4359077624932
 10
-174.7237656754699
 20
299.6419061125008
 10
-172.33726766189727
 20
299.80455024999833
 10
-170.74617765446112
 20
299.4216404874935
 10
-166.52911784658198
 20
300.4745101750021
 10
-162.5133074980419
 20
300.87645088749144
 10
-161.58350485635071
 20
300.8286972999968
 10
-159.13960485269035
 20
301.19239989999005
 10
-155.20037615681395
 20
301.24984517499774
 10
-152.751407242322
 20
301.52790849999184
 10
-151.87160872092153
 20
301.2849114624944
 10
-150.03721099407647
 20
301.1913426249902
 10
-145.02035925717632
 20
301.4905514499935
 10
-143.12965552093544
 20
301.1913426249902
 10
-136.65268347241863
 20
299.2286877999924
 10
-131.0368782731112
 20
297.1722879250008
 10
-124.20426048159594
 20
295.7514865374996
 10
-115.6120456472214
 20
292.70441998750016
 10
-113.70271023878946
 20
292.18089264999224
 10
-109.58442569310138
 20
290.51709422499357
 10
-106.90749278925738
 20
288.9840454749953
 10
-105.33517145161333
 20
288.49805140000035
 10
-102.15285443915938
 20
288.2737328874958
 10
-99.58825955890485
 20
287.3202470499966
 10
-97.6975558226834
 20
287.33892557500207
 10
-96.61184992385719
 20
287.1332855874904
 10
-95.75082007222939
 20
286.75936266249045
 10
-95.05816025842364
 20
286.1984782749967
 10
-94.66497717582153
 20
285.3385612750018
 10
-94.45906979841526
 20
284.36639691249724
 10
-94.73991485742788
 20
281.50576318749785
 10
-94.57140782202418
 20
281.01976911250284
 10
-92.06298195358386
 20
278.53305831249094
 10
-90.49340056772803
 20
276.69939103749795
 10
-89.45838377712012
 20
275.23101227499166
 10
-88.52926612339547
 20
273.29285098749205
 10
-87.89414529727857
 20
272.5643885124932
 10
-86.97680943627441
 20
270.3324809874915
 10
-84.95390302592105
 20
267.72453598750275
 10
-82.64878158066097
 20
266.17368977499683
 10
-81.3903217211671
 20
264.90495977499484
 10
-80.61409337760657
 20
264.51729227499703
 10
-77.4032808664812
 20
261.95621979999254
 10
-74.81594438633384
 20
260.56995606249427
 10
-71.35812522086206
 20
259.2658073499916
 10
-68.65310781111096
 20
257.8206886374942
 10
-66.78309071094118
 20
257.36253613749903
 10
-63.84284843958366
 20
256.1054361624952
 10
-58.03086269172979
 20
252.4573087749958
 10
-57.513285797635014
 20
252.48550277499973
 10
-54.10738871869405
 20
251.0380933000006
 10
-53.10059343157486
 20
250.25782434999738
 10
-51.88679478633798
 20
249.62804087499984
 10
-49.572220507381275
 20
248.07719466249395
 10
-47.37066924000004
 20
247.5790419249946
 10
-46.71198482844217
 20
247.28758644999425
 10
-44.7926485959482
 20
246.21603823749274
 10
-44.08697401110949
 20
245.61444876249914
 10
-41.01028214035609
 20
244.0445715999962
 10
-40.793825948541794
 20
243.66871033749862
 10
-38.3004698149756
 20
242.55945264999463
 10
-37.55725789053317
 20
241.97654169999393
 10
-36.87035197550604
 20
241.87328117500172
 10
-33.729407100834656
 20
240.55965426133852
 10
-29.907860468882763
 20
239.53247432500456
 10
-28.474454687259563
 20
239.34057891250325
 10
-23.71764782700177
 20
236.58638606760488
 10
-18.485549425317377
 20
235.9698100000022
 10
-11.052608195481266
 20
235.47148105000082
 10
-4.846480381915005
 20
235.64064504999942
 10
-2.7497322706861786
 20
235.84364184999274
 10
4.140698503720086
 20
237.1356319000036
 10
6.024963353235319
 20
236.96963972500453
 10
7.493577515438349
 20
237.59713243750033
 10
12.490427604214396
 20
238.80595018750336
 10
16.1851156023694
 20
240.2547693624939
 10
18.00471758952306
 20
241.2422642125023
 10
18.41105244073975
 20
241.69442548750257
 10
22.44522046630761
 20
243.47064748750037
 10
29.6149893262313
 20
247.88618031250294
 10
31.619264064374164
 20
248.65217605000214
 10
35.09215296470059
 20
250.42381652499648
 10
36.006611876315446
 20
250.66364173749446
 10
39.073165925444655
 20
251.94629252499638
 10
40.97578845198767
 20
252.33378381249213
 10
42.13040413845888
 20
252.7951081374993
 10
45.19695818756861
 20
253.28427403749382
 10
47.19328706551008
 20
252.75035016250214
 10
48.39393394213236
 20
252.80568088749766
 10
49.068236078910324
 20
252.65801481249989
 10
50.33368281549528
 20
252.84250930000235
 10
50.76782817743636
 20
253.0731714624934
 10
50.8323540422163
 20
252.91634233750125
 10
50.472187378732315
 20
252.4365157000032
 10
54.794872328331486
 20
250.766373624993
 10
55.940172178707186
 20
249.88055338749584
 10
57.07629319054952
 20
248.6164049124973
 10
59.47474123290395
 20
245.19126632822542
 10
60.37628485763038
 20
241.04345977294562
 10
61.23773197699937
 20
238.18339142500258
 10
61.109126438176375
 20
232.9325035203749
 10
59.25195191348538
 20
223.55563937499375
 10
59.5844450638266
 20
221.08214451249853
 10
60.31409422687062
 20
218.68248268750222
 10
60.849891800411555
 20
217.38115337499485
 10
61.83819241290187
 20
215.7196457124979
 10
63.24214371274333
 20
213.84597820000076
 10
64.281818421399
 20
212.87222792500273
 10
64.89132069823377
 20
212.61143342499759
 10
66.19608574308089
 20
211.5731893749971
 10
66.92340594708155
 20
210.5347691124946
 10
67.55838977561683
 20
210.03855471250537
 10
70.82578229132076
 20
209.12700744999552
 10
71.5647472904603
 20
208.6424230750045
 10
72.60387400877002
 20
208.44629856250387
 10
74.79747941594984
 20
208.6540531000027
 10
79.219487618125
 20
208.61933923749768
 10
80.0392811952311
 20
208.4117609125009
 10
81.22842027431561
 20
207.54638132500472
 10
81.65557875916559
 20
206.10408201250272
 10
82.61387689952821
 20
204.56944734999846
 10
83.54902244719472
 20
202.1810631249962
 10
84.82337402711084
 20
199.79902255000547
 10
85.74344983992268
 20
198.6450068875043
 10
88.68396610646293
 20
196.9501950624938
 10
89.78446774498056
 20
195.94067365000345
 10
90.59617846428416
 20
194.44410088750575
 10
91.42610986303393
 20
193.75898668750017
 10
93.68109019044115
 20
192.64109458749545
 10
94.79953851320276
 20
192.53290011249567
 10
100.63570190545552
 20
190.11303017219373
 10
105.15450133496972
 20
188.87261406250443
 10
108.5821810306932
 20
187.73657207500045
 10
111.46967922999127
 20
186.39118963750417
 10
112.04972702502484
 20
186.3531277374976
 10
114.98709234699304
 20
184.63840390000482
 10
117.00410786098617
 20
183.0581302000056
 10
119.85324556044279
 20
179.72735201654606
 10
121.01690966279641
 20
178.07293404871393
 10
122.01503057601937
 20
176.4712663259408
 10
122.67637221553804
 20
174.22290259367583
 10
123.31375753323061
 20
171.30976276785222
 10
123.62217632896169
 20
168.5381074813453
 10
123.83398570071319
 20
162.59404393750552
 10
122.47209266094157
 20
156.47576972499994
 10
122.59402051582873
 20
152.24226441249604
 10
122.17232760941388
 20
148.98366623871877
 10
123.34578012903563
 20
145.43275411690516
 10
123.62469359540657
 20
141.44476268147895
 10
123.98363975934825
 20
139.42836940485992
 10
124.74667291397876
 20
137.0707428944655
 10
125.45732304037574
 20
135.95984433654013
 10
126.2239795587868
 20
135.18022736985014
 10
127.4393512703348
 20
135.0580214124987
 10
127.31988937207257
 20
134.52427374999658
 10
127.52401578082042
 20
134.47863471250162
 10
127.64306668631828
 20
135.010091612502
 10
128.05063451584743
 20
135.109475462499
 10
128.47669701998603
 20
135.0643650624977
 10
128.8696061074054
 20
134.77678626250508
 10
129.6706310147194
 20
134.8118525500017
 10
130.62687419122142
 20
134.24885361250833
 10
132.40852784600702
 20
132.46664038750313
 10
132.50051179953235
 20
132.1535787745995
 10
132.87896794119322
 20
131.91275129889846
 10
138.98189030333103
 20
129.34551800012187
 10
143.03442523522796
 20
128.61993960757223
 10
154.69828691123644
 20
127.16474745401031
 10
172.84169874433024
 20
120.91752781112065
 10
176.4679116948967
 20
119.12330125000427
 10
180.55249483350013
 20
117.8117516125027
 10
185.10985665434032
 20
116.03288642499906
 10
189.99806765446436
 20
114.81085273750436
 10
192.0512505321476
 20
114.54195246250467
 10
194.29979197282915
 20
114.41966098750291
 10
200.15567490964924
 20
114.68333133602572
 10
202.05609671372977
 20
114.87825184390181
 10
210.4956470338663
 20
116.42020150000529
 10
213.82742841674906
 20
117.609107237501
 10
216.53422679515865
 20
118.86902661250019
 10
218.06654483659344
 20
119.7678865749995
 10
219.71352986064164
 20
121.47802888750137
 10
224.264315797194
 20
125.12298445000127
 10
225.00156664879904
 20
126.0911285433922
 10
225.16726717778775
 20
127.17730576035227
 10
224.16434937726973
 20
134.19613111112565
 10
223.831385785497
 20
138.42147266298815
 10
224.06571274864226
 20
140.86132537819583
 10
224.46027391941547
 20
142.15712970482787
 10
224.97131629821885
 20
143.17923564292337
 10
223.08796944929085
 20
144.3957264207226
 10
221.98644162200154
 20
144.75463099682514
 10
220.83044083730144
 20
145.37427281551828
 10
220.2989517390569
 20
145.42635855507035
 10
219.1470211565588
 20
146.13152701554353
 10
216.06397028640646
 20
147.57700372002026
 10
215.38938244425384
 20
148.1049134068322
 10
214.60112636601835
 20
149.5247611539365
 10
215.98377047952738
 20
150.1063927000023
 10
214.57418777463494
 20
149.59348276827146
 10
214.27391534099354
 20
150.34430170898202
 10
214.444130720727
 20
151.2356237089655
 10
214.35234103317302
 20
151.4043636528963
 10
213.02649692167188
 20
152.43182542266533
 10
207.68078393206446
 20
154.15673227646138
 10
206.16386792312676
 20
154.93381600207732
 10
205.59579890180953
 20
155.5994619147158
 10
205.28076248548655
 20
156.25161310648738
 10
204.50126961688898
 20
158.9433461565064
 10
203.8091187564491
 20
163.95506327045183
 10
202.4257392834325
 20
167.50941685362656
 10
202.0272802134804
 20
168.38803528367595
 10
201.48702367866625
 20
168.99788153223267
 10
199.33152559901401
 20
170.75417216898245
 10
198.55561024296082
 20
171.76252343608112
 10
196.99494277947514
 20
174.56484081716178
 10
196.71087894247364
 20
175.90970244848802
 10
194.3616093536001
 20
175.58995349433633
 10
192.74535963971027
 20
175.66642116734442
 10
191.6852587688079
 20
175.76019651891738
 10
190.06401888811595
 20
176.23343073238158
 10
188.24869593945496
 20
178.2786723835041
 10
186.73320803159066
 20
179.50157300735137
 10
185.06066196339165
 20
180.42705428914022
 10
183.87584305234586
 20
181.87287968776724
 10
183.63250122000503
 20
182.84403926688594
 10
183.92441903977647
 20
184.02440943496117
 10
183.90841301444064
 20
184.64299544504698
 10
182.81576178512648
 20
186.5358750584776
 10
182.84246459920178
 20
187.45034710649222
 10
183.09927103992126
 20
188.33222867946452
 10
183.51766182980788
 20
188.67306586390438
 10
183.6595838005194
 20
189.77149361851178
 10
176.7457004404715
 20
191.58297048646816
 10
176.06990931748712
 20
192.21352468261466
 10
175.60901136655664
 20
193.0814245864841
 10
175.6431640271622
 20
194.0504995658419
 10
175.16675812904515
 20
195.42207527614354
 10
174.07038105881702
 20
196.78456803183073
 10
172.42545180797808
 20
197.58894395500232
 10
171.48096514289952
 20
197.6365004394504
 10
170.98945435488397
 20
197.89169218526825
 10
170.35490850661517
 20
197.87159510097527
 10
166.20157557953314
 20
198.68693673261797
 10
164.92220961906398
 20
199.6042795124795
 10
164.3769729883
 20
200.38594235179588
 10
164.10925686527284
 20
201.1934747548345
 10
163.8086385083588
 20
203.89278039278716
 10
162.08578894574828
 20
207.4143604546402
 10
161.5506613218908
 20
208.0524015707156
 10
159.95640015122703
 20
208.9285389443139
 10
161.38695705514775
 20
211.56548925568592
 10
163.5434158968131
 20
210.32425722928136
 10
164.6865087474829
 20
208.92810124534918
 10
166.76293479449672
 20
204.65703539882193
 10
167.13024917858084
 20
201.6825861875095
 10
167.67209769450938
 20
201.40645957989122
 10
170.63719101299898
 20
200.8820396990341
 10
171.47778349154348
 20
200.9086626104336
 10
172.28204762713986
 20
200.6008317355604
 10
173.50732878865634
 20
200.42847501999273
 10
175.1506156871352
 20
199.625440518161
 10
176.47743392317838
 20
198.7208088973898
 10
178.0057970958499
 20
196.59953717384977
 10
178.64285544754037
 20
194.12254430121533
 10
184.33305337239943
 20
192.7480178833974
 10
185.2042615774106
 20
192.37251012248382
 10
186.03492904882583
 20
191.762285737743
 10
186.6502139489028
 20
190.2425705795292
 10
186.7006799193036
 20
189.47865999659265
 10
186.42589340101424
 20
187.80959515251735
 10
186.05690219759677
 20
186.95911163448037
 10
186.80695757399016
 20
185.5966374549457
 10
186.9463432928189
 20
184.56315067885532
 10
186.76003538877643
 20
183.04147076837955
 10
187.06578379955332
 20
182.69147906087213
 10
188.63430370576305
 20
181.84047177000897
 10
190.29279896143348
 20
180.50996741649232
 10
191.6977808713747
 20
178.8345218510649
 10
194.32674903020666
 20
178.59495853067438
 10
197.14970788973304
 20
179.04668326933898
 10
197.89610163407707
 20
179.03111723944102
 10
198.6737547286263
 20
178.71516766302585
 10
199.28967484956658
 20
178.14777622564668
 10
199.79587112893358
 20
176.85495738224006
 10
199.79490507216707
 20
175.65493753283857
 10
201.0492640830371
 20
173.44118988892288
 10
201.46413177712571
 20
172.90204298101725
 10
203.62433176998158
 20
171.1094138677625
 10
204.57269104547512
 20
170.0388977163148
 10
205.20719380228974
 20
168.63979337136553
 10
206.74624691396838
 20
164.5796524045536
 10
207.47202110751311
 20
159.52470181850342
 10
207.7492669244754
 20
158.94985208611598
 10
208.12085174901802
 20
157.26929007242214
 10
214.75384970403036
 20
154.9468175023418
 10
217.17298054159926
 20
152.91587509514216
 10
217.45450500698587
 20
151.53887880671567
 10
217.39085385677552
 20
150.62992766520694
 10
217.84921044235202
 20
150.07294707998426
 10
219.81461425745837
 20
149.0635752252342
 10
220.26606481058118
 20
148.99294623447182
 10
221.22745904766188
 20
148.3497366449388
 10
221.93756288861132
 20
148.20190603635405
 10
223.0758769563673
 20
147.56383440317813
 10
224.40907029422445
 20
147.10123630427137
 10
226.74013873149477
 20
145.6029221619779
 10
227.1725989960405
 20
145.55476871633968
 10
228.0037022364164
 20
145.05840267077528
 10
229.48461940301252
 20
144.66018771462117
 10
232.65652175414922
 20
142.6734061478701
 10
240.36067999321892
 20
138.78674024747932
 10
245.1671742806629
 20
135.5647540634926
 10
248.95298466739436
 20
132.64686780405293
 10
254.23199056611134
 20
129.68530228750384
 10
256.6095837363528
 20
128.54344528750707
 10
260.4879855023673
 20
127.51647883750066
 10
262.2199090320643
 20
126.73568125000376
 10
264.4724234028466
 20
126.28510588749698
 10
265.54360755716414
 20
125.89461898750376
 10
270.1311570250717
 20
123.24021847587179
 10
271.94071001084416
 20
122.56085469999695
 10
273.2710616710862
 20
121.49654163044727
 10
275.1699732960247
 20
120.44202290927674
 10
279.43702986098754
 20
120.37048169621715
 10
282.26022244865885
 20
121.00421358324274
 10
285.14988061760835
 20
122.69389513749911
 10
286.6855938733635
 20
123.24890425855385
 10
288.21163975106924
 20
124.67928137499968
 10
290.12097515952064
 20
126.09497260000376
 10
291.8630365108614
 20
126.98590299999803
 10
292.8940803713686
 20
127.31630143750273
 10
297.2891000483675
 20
127.82678905000849
 10
298.67058374345993
 20
127.66661188750223
 10
300.0722060842775
 20
127.15612427499647
 10
304.01650369094654
 20
124.87346755000272
 10
305.675681500499
 20
123.66923132500315
 10
308.01834028534336
 20
120.06498085000314
 10
308.30863817803305
 20
119.40418397500628
 10
308.61907471642854
 20
118.40312076250207
 10
308.7492224266998
 20
115.68980068750886
 10
308.2986373539905
 20
114.30811847500156
 10
307.2875951415685
 20
113.34705550000156
 10
306.1335926289462
 20
113.01063577032625
 10
305.9150705602971
 20
112.30472769231088
 10
306.16268777003785
 20
110.41573314840572
 10
307.06888615651445
 20
108.32345965137863
 10
309.63011692883117
 20
105.03652157500686
 10
310.7592773560062
 20
104.02717391210113
 10
315.21221377054303
 20
101.98455463654345
 10
321.41327962380814
 20
100.34028223750435
 10
324.7169765007838
 20
100.43050303750694
 10
326.7391979231901
 20
100.93112274999754
 10
330.8037794136889
 20
102.46311422500848
 10
333.27658590878514
 20
102.86364523750639
 10
335.37895092119146
 20
102.80355677500535
 10
337.4611772879116
 20
104.0453262625053
 10
338.8227963325005
 20
105.22683107500215
 10
342.3366475121854
 20
109.29187723750317
 10
343.12753459783625
 20
110.53347051250107
 10
344.25064083866505
 20
113.67022922500946
 10
344.32078360462253
 20
114.56115962500375
 10
343.0093056778865
 20
117.49474532500426
 10
343.01930650192907
 20
118.52594087499749
 10
341.16723608602274
 20
121.12912813750582
 10
341.0270875516894
 20
121.779880899998
 10
339.49531750062
 20
122.99116562500481
 10
336.67220816850084
 20
123.962272712497
 10
335.15057593907505
 20
125.08351285000327
 10
334.9302838147417
 20
125.56404433749701
 10
333.829097188277
 20
126.39506248750483
 10
332.84792045044
 20
126.9857267875085
 10
332.25732384099837
 20
127.06572726250434
 10
332.84792045044
 20
126.48510707500537
 10
333.55880094369184
 20
126.19488508750692
 10
333.9592448985483
 20
125.77444206250169
 10
333.85909966044363
 20
125.5841325625064
 10
333.518660649901
 20
125.69426537500378
 10
330.75555626209564
 20
127.89674541249964
 10
330.385251776968
 20
128.71771945000276
 10
330.2651048907587
 20
129.37834011249757
 10
330.36525012886335
 20
129.8890039375054
 10
330.0148102942782
 20
130.84989070000336
 10
330.1949621248013
 20
131.61077627500543
 10
330.1649596526541
 20
132.7020602874997
 10
330.32510983507257
 20
132.9721940500013
 10
330.1949621248013
 20
133.39210843750035
 10
329.9046642321115
 20
133.7725512250014
 10
328.8634825499606
 20
134.23299448749827
 10
328.3228900607708
 20
134.20286214999675
 10
328.0225913440385
 20
134.73343798749934
 10
327.5520046232246
 20
136.57538725000148
 10
327.58214409297284
 20
139.58862100000624
 10
327.7922983956431
 20
140.35937447499845
 10
328.34289170887547
 20
141.13012795000316
 10
328.61318795348006
 20
140.889774099999
 10
329.4642169810458
 20
140.95990667500473
 10
329.74451404969307
 20
142.39128081250425
 10
330.6455471975106
 20
144.29314232500536
 10
332.7879155061261
 20
146.76557991250075
 10
336.69558617106196
 20
149.13780326621495
 10
339.45338393282555
 20
150.572973444035
 10
346.47315273730015
 20
153.47187523750415
 10
352.6701017123525
 20
154.92316138749848
 10
355.5433521623246
 20
155.1633390250006
 10
356.33423924797546
 20
155.54378181250163
 10
357.3652831085021
 20
155.73391510000738
 10
359.4676481209085
 20
155.58378205000582
 10
360.5388322752065
 20
155.36351642499852
 10
361.72016249169076
 20
154.49285046250316
 10
362.62119563950824
 20
154.21249637500733
 10
365.8848892202942
 20
153.7721413375073
 10
367.99725505674314
 20
152.64103329999838
 10
368.5478483699755
 20
152.20067826249837
 10
369.08844085916525
 20
151.18974715000405
 10
369.45888234185503
 20
150.86939282500404
 10
371.6712564188465
 20
149.4181066749972
 10
372.2118489080168
 20
149.25792951250347
 10
373.90376914152415
 20
147.56646572500702
 10
374.35435421423347
 20
147.33615598750754
 10
375.5228066572663
 20
145.23905102500356
 10
376.6582426811616
 20
144.39182132500665
 10
378.40359197467546
 20
142.6635291250055
 10
381.3521910989987
 20
140.88448772499981
 10
382.86039756462714
 20
140.07109082499758
 10
385.2329218240371
 20
139.1561955249987
 10
387.9612288240464
 20
138.39372403750312
 10
394.48532804344524
 20
133.63228607500247
 10
395.8918822974738
 20
133.2084950125082
 10
397.0781444271885
 20
133.17466221250095
 10
399.09474894839775
 20
133.59827706250567
 10
404.31408312294946
 20
135.9197005375017
 10
404.9749594959495
 20
136.41115719999794
 10
408.8555532233868
 20
141.1725951624986
 10
410.516238006415
 20
142.83304555000822
 10
412.36337650911037
 20
146.73016120000003
 10
413.8037691678246
 20
149.33933968750324
 10
414.3461426256534
 20
150.62692442500023
 10
414.5832854535388
 20
151.6775033500071
 10
414.0410489932722
 20
154.8625442875038
 10
414.0240612921385
 20
155.9129469999961
 10
413.27852040869175
 20
158.99648953749613
 10
413.2107066017581
 20
159.91120862500546
 10
412.9565760727585
 20
160.55508910000498
 10
412.7192962472914
 20
162.60496911249547
 10
412.6344947392436
 20
165.5019026125059
 10
412.4311903160439
 20
166.45063071249947
 10
412.7701223530913
 20
169.38122080000255
 10
413.61745244573916
 20
171.63427382500092
 10
414.0240612921385
 20
173.49772101250386
 10
414.63424855692034
 20
174.88662793749543
 10
415.70173377630044
 20
176.1571200625055
 10
415.82037368903394
 20
176.76699152499572
 10
416.7185298874817
 20
177.4106957875057
 10
418.5138833012473
 20
177.96065499999693
 10
419.7290519223783
 20
178.51871998749527
 10
421.1895832267788
 20
178.7643602124986
 10
432.37666940873777
 20
179.54498158750596
 10
433.35949011765166
 20
179.155375749998
 10
434.68124286361297
 20
179.1215429500033
 10
437.4603759694223
 20
178.4947550875032
 10
442.1374736837268
 20
177.88488362500044
 10
443.28989740875573
 20
177.52928680000176
 10
446.00121670763144
 20
177.309021175007
 10
448.33976556477404
 20
175.68293222499824
 10
451.22055088218315
 20
174.564863912504
 10
452.7287573478116
 20
173.4637120000071
 10
455.11813231075405
 20
172.09172147500036
 10
456.2535683346688
 20
171.10916057499955
 10
459.94784534004
 20
169.3981371999999
 10
463.40470552238196
 20
168.07689587499777
 10
469.3188914721817
 20
167.07741857499957
 10
470.9627255516773
 20
166.65380372500738
 10
471.6914157315915
 20
165.99318306250004
 10
472.5894349324381
 20
165.60357722500459
 10
473.4029266204197
 20
164.97661315000244
 10
475.8092892844958
 20
164.14665227500697
 10
478.7578884088191
 20
162.4863780999994
 10
479.1984726574858
 20
162.11368866250132
 10
479.6560446072668
 20
161.36830978750515
 10
481.75731363896176
 20
159.97905043749694
 10
483.11290478960876
 20
159.30133716250273
 10
484.01106098805644
 20
158.40353447500326
 10
484.8075649749043
 20
157.28528995000696
 10
485.9658795962935
 20
155.2849256500066
 10
486.0238295767662
 20
154.69831423750026
 10
486.8575969080156
 20
153.90623904999677
 10
488.5355433873601
 20
152.73054925000525
 10
488.87050249430683
 20
151.9906329624978
 10
489.72879239414647
 20
151.68966201249896
 10
490.02868011811444
 20
151.42516705000065
 10
491.03177647031566
 20
151.14305083749676
 10
492.22995739033246
 20
150.23731858750477
 10
492.8230199563795
 20
149.6443635249994
 10
493.28059190617995
 20
148.7802174250051
 10
494.4837047394077
 20
148.20417876249707
 10
495.3310348320555
 20
147.57721468750742
 10
496.7206013849699
 20
147.01809242499675
 10
502.8550794590834
 20
146.3911283500071
 10
504.6682425595309
 20
146.69615218750326
 10
509.6672846097492
 20
148.10250414999837
 10
513.2090832977207
 20
148.91572483749852
 10
516.0728809139961
 20
149.03431585000712
 10
518.8520140198053
 20
150.00013656250013
 10
521.9700791626816
 20
152.25354201250263
 10
523.0716767819106
 20
152.50764043750465
 10
524.1223112977581
 20
153.50729395000488
 10
525.5627039564529
 20
155.37091734999737
 10
525.6135300622528
 20
156.33656185000083
 10
527.4098424591482
 20
158.87789852500006
 10
527.7656251997478
 20
159.79261761249688
 10
528.2062094483949
 20
160.35173987500755
 10
528.9688750305766
 20
161.89342303750652
 10
529.6805775093571
 20
163.82471203750094
 10
530.3922799881573
 20
164.53625811250242
 10
531.3356453912079
 20
166.71635916249969
 10
532.0991329589376
 20
167.63583598750202
 10
532.5328673280949
 20
168.66791260000554
 10
533.3745805195651
 20
169.71743425000008
 10
535.1569191622979
 20
173.49736858749975
 10
536.6482749243936
 20
175.78760245000691
 10
538.5326767714905
 20
177.41369140000313
 10
539.6035869306253
 20
177.90162381249573
 10
540.4305043824041
 20
178.52506363750678
 10
541.2982471159208
 20
179.48718388750663
 10
543.2232002495923
 20
180.5848115499999
 10
544.7686700596419
 20
181.2623486125046
 10
547.2090081259659
 20
182.0211196374945
 10
552.333402970826
 20
183.17302074999597
 10
553.5399407438085
 20
182.88843756250083
 10
554.2449303407002
 20
183.01037661249845
 10
554.8685433692793
 20
182.59028601249733
 10
556.373324895153
 20
182.54958092499746
 10
559.0712184302314
 20
181.5738923125018
 10
561.6062218311031
 20
179.90727448749521
 10
563.3280075391565
 20
177.88805544999994
 10
563.883806760802
 20
176.79042778750667
 10
564.9548539175184
 20
173.1856486750005
 10
565.0903445337846
 20
169.71637697500023
 10
564.3583664117166
 20
166.73486147500304
 10
563.9651833291146
 20
165.51511854999757
 10
563.2330682094652
 20
164.10559476250296
 10
562.5146528487761
 20
162.83175460000385
 10
561.5114194989933
 20
161.6796772750003
 10
560.196379634921
 20
157.31559849999803
 10
558.7594119159613
 20
153.58835170000054
 10
558.8135259639149
 20
152.54464506249886
 10
559.2202718078959
 20
151.55521187500537
 10
559.8845731206312
 20
150.95873256249635
 10
560.7793043793242
 20
150.6063075624972
 10
561.7689749677281
 20
150.78252006250304
 10
562.7315200333547
 20
151.2704524749956
 10
567.0832484719908
 20
154.87593643749753
 10
569.9166326233353
 20
158.0474090124984
 10
571.8145972318305
 20
161.2053132250035
 10
572.1670920302764
 20
162.24884365000315
 10
574.6749699083513
 20
166.32833923749772
 10
576.112074624912
 20
169.30985473749493
 10
576.4103183778032
 20
170.28554335000308
 10
577.7930350512274
 20
172.31833075000668
 10
578.4032223159898
 20
173.49736858749975
 10
581.3856598449988
 20
176.84470123750236
 10
587.6896039376653
 20
186.37092520000525
 10
589.2215109863164
 20
187.96987742499738
 10
590.6177904211196
 20
189.7448659375058
 10
591.7702141461485
 20
191.47932557500386
 10
594.5981183939166
 20
197.46385449999906
 10
595.1621374709463
 20
198.2268546250008
 10
596.2552412396085
 20
198.9119688249939
 10
596.5589648960955
 20
199.60554122499815
 10
596.8106294684897
 20
202.09419036249517
 10
597.6261761203123
 20
204.67817046250443
 10
598.0773091833676
 20
205.70143645000516
 10
599.0578009332577
 20
207.08875746250322
 10
599.7085394846141
 20
207.37492656250438
 10
600.0121261435
 20
207.9123746874997
 10
600.4285988163605
 20
209.5772303874982
 10
600.1248751598735
 20
210.63503402500186
 10
599.9600670594072
 20
212.52508930000272
 10
599.6997716388645
 20
213.09742750000507
 10
599.0664317814255
 20
213.4961963874949
 10
598.12936826748
 20
214.9441345000002
 10
597.4526001740771
 20
216.8516348125046
 10
596.3941567956292
 20
220.9958003875037
 10
596.3073003237208
 20
222.40902463750396
 10
595.6305322303178
 20
224.6111522499957
 10
594.9191037467007
 20
227.7494968749976
 10
594.8237534242447
 20
229.01523126250214
 10
595.0232219149254
 20
231.72855133749536
 10
595.5958718401035
 20
233.2110271000036
 10
595.4396945877858
 20
234.03464432500004
 10
596.4374480339922
 20
237.8921121625043
 10
597.2703933797129
 20
239.79062563750384
 10
598.2248555875369
 20
241.18622863749854
 10
600.2463920219961
 20
243.9340863624947
 10
600.688894236903
 20
243.84738981249572
 10
600.99261789339
 20
244.16809656249984
 10
602.302725844232
 20
247.46203682499203
 10
603.2397893581775
 20
252.15986207500055
 10
605.0010303720941
 20
257.42103868749405
 10
605.6171085332168
 20
260.6712782500014
 10
605.9568625558318
 20
261.70071167499907
 10
605.9348059438666
 20
262.453315262492
 10
604.5015371598445
 20
263.0302349874978
 10
605.1832371664584
 20
262.9708513749925
 10
606.3371678649826
 20
263.16732831249726
 10
606.9011869420123
 20
264.302665449993
 10
607.1440836686568
 20
265.79342319999785
 10
608.2373244349201
 20
268.32401091249665
 10
611.3521016356232
 20
271.6692290124996
 10
612.3412242336617
 20
272.5099388499955
 10
614.1893217194867
 20
274.97973324999754
 10
615.2911933338985
 20
275.9850255625011
 10
616.3930649483102
 20
277.34556227499917
 10
618.5014578546779
 20
279.45130164999136
 10
620.2020089363142
 20
280.75122126249477
 10
623.192255327943
 20
282.0581893749929
 10
624.1387716755656
 20
282.1778376625013
 10
625.39339560256
 20
282.6178402749972
 10
627.0983306070808
 20
283.46383648749224
 10
627.5428877858483
 20
283.44180992499776
 10
628.0830692822542
 20
283.7537060499991
 10
629.6558016126626
 20
283.81608527500185
 10
632.599057830991
 20
285.1997058249942
 10
636.3764923733526
 20
286.26772978749216
 10
636.9277706745514
 20
286.1722226124904
 10
637.8059252248751
 20
286.3301090124949
 10
639.2941300424184
 20
286.3153071624972
 10
639.4631850681681
 20
286.3960124875013
 10
639.4411284562223
 20
286.851169374999
 10
641.5171899313995
 20
287.07495924999745
 10
645.9083736758598
 20
286.89892296249366
 10
647.892646765898
 20
287.3502031749961
 10
649.8915785980462
 20
287.54474177499077
 10
650.5897183154478
 20
287.45663552500037
 10
650.6779447632503
 20
287.29152441249903
 10
651.115241069744
 20
287.39795676249076
 10
652.6805755303163
 20
287.2437708249919
 10
656.6159682936736
 20
287.36852927499746
 10
662.7488023967104
 20
286.6677321624964
 10
664.9425448014914
 20
286.04006323749854
 10
665.2916146601825
 20
285.76111884999415
 10
665.7435697088054
 20
285.77592069999184
 10
666.1588094033533
 20
285.41627098749586
 10
666.3940342649597
 20
285.45292318749847
 10
667.426585098962
 20
284.88780969999294
 10
667.691127444788
 20
284.495032037498
 10
668.1651391053373
 20
284.52815998749696
 10
668.7383370208807
 20
284.12445714999956
 10
669.4733290899196
 20
283.9299185499924
 10
672.7914107138419
 20
282.37026171249624
 10
673.4859884939073
 20
282.01061200000026
 10
673.6402477799653
 20
281.779244987501
 10
673.9268467377372
 20
281.8967787249972
 10
677.197253200412
 20
280.30399393750207
 10
678.1826768635325
 20
280.0084855749919
 10
685.3842291642814
 20
275.97321932500085
 10
687.1221805879396
 20
274.74008425000164
 10
688.4194107653302
 20
274.0794635874943
 10
690.4183425974783
 20
272.55998319999185
 10
692.3989167525986
 20
270.4128338874915
 10
696.7458502755663
 20
267.13510517500094
 10
700.7459059012853
 20
265.4082226749913
 10
701.1774483090197
 20
264.9953567874995
 10
703.4116050027741
 20
264.2135019250028
 10
707.5709888253829
 20
262.0214184250032
 10
708.3553000267459
 20
261.7837077624924
 10
709.7382906953335
 20
260.84061846250205
 10
713.014451056787
 20
259.6067785374946
 10
719.8491238121629
 20
257.8448297500008
 10
722.7005916453525
 20
257.4044747125008
 10
728.403527311751
 20
257.2575134874987
 10
730.5494575577029
 20
257.375047224995
 10
732.3574147497177
 20
257.66879346249704
 10
734.562116961671
 20
258.25610972499913
 10
736.561048793819
 20
259.04888976249833
 10
740.2650526280696
 20
260.1940947999967
 10
741.9553288904806
 20
259.2397278999998
 10
744.6744570519761
 20
258.53505411250353
 10
745.659332724731
 20
259.04888976249833
 10
745.8651031045557
 20
259.6215803874923
 10
744.850909947581
 20
259.37188727499165
 10
743.2781776171728
 20
259.9151504124923
 10
742.7490929255401
 20
260.31162853749294
 10
742.675525219828
 20
260.60519856249294
 10
743.1311792033689
 20
260.97224920000025
 10
743.2340643932812
 20
261.3981548124942
 10
742.5872987720255
 20
261.16326354999126
 10
742.1464405281955
 20
260.45841354999294
 10
741.8083304766767
 20
260.31162853749294
 10
741.3085632692444
 20
260.89894479999504
 10
741.6759908049631
 20
261.26599543750234
 10
743.1311792033689
 20
261.8238842124986
 10
743.9983739465202
 20
261.88256297499566
 10
744.5715718620637
 20
261.67709919999857
 10
743.748490342804
 20
260.79603669999443
 10
746.114986708272
 20
262.61666424999777
 10
747.7758084888818
 20
263.57103114999467
 10
748.2020079906215
 20
263.55640551249905
 10
748.1285772825103
 20
263.0866229874932
 10
747.5553793669668
 20
262.82230423749695
 10
747.4230396952727
 20
262.42582611249634
 10
747.7023777807707
 20
261.97066922499863
 10
749.9511932166349
 20
264.73103803750325
 10
750.3186207523732
 20
265.3476055749966
 10
750.392051460465
 20
265.9349218374987
 10
752.6849801202402
 20
267.6966944125029
 10
754.977908779996
 20
269.1796988124923
 10
756.6976395242083
 20
270.7210295499997
 10
757.7706046471842
 20
271.4110777000003
 10
759.2552475273717
 20
272.8352271250031
 10
763.1355672596458
 20
275.7860816499925
 10
766.5013240447959
 20
279.30927437499685
 10
767.5008584596607
 20
280.7921025624967
 10
770.1328561540649
 20
286.69997904999764
 10
771.1022510991816
 20
287.7472099374904
 10
772.7040269186268
 20
292.10987901250127
 10
773.7328788176917
 20
294.2824029249976
 10
776.7754582885962
 20
299.5811127999915
 10
777.8778778933734
 20
300.9462310374931
 10
779.9943536575241
 20
302.6928493374955
 10
781.5376315061312
 20
304.2340038625008
 10
782.992819904537
 20
305.1439652124921
 10
784.1577104102334
 20
306.1712840874901
 10
785.0725803146321
 20
306.5970134874945
 10
786.5718819369293
 20
306.4282019125
 10
787.905827468395
 20
306.8171028999998
 10
789.8126969202019
 20
308.108740524994
 10
792.3408504415837
 20
310.6331607999959
 10
790.768255108757
 20
310.3982695374929
 10
787.754993122072
 20
308.5931486874955
 10
786.8143676707901
 20
308.3876849124984
 10
785.8589464798364
 20
307.8299723499917
 10
785.4485017009179
 20
307.7795755749912
 10
784.8343415060353
 20
307.2030082749895
 10
784.5665112180752
 20
307.1557833250011
 10
784.4059500428729
 20
307.33287688749215
 10
786.3019966851085
 20
308.96196144999834
 10
786.7407999650974
 20
308.9674240374996
 10
790.4006905754565
 20
311.278979612493
 10
791.9808207757007
 20
311.4698177499945
 10
794.5308939114271
 20
313.02542169999333
 10
795.6333135162042
 20
313.23088547499043
 10
796.4270775512639
 20
313.6858661499986
 10
799.0616781998749
 20
314.52604735000085
 10
799.23813109548
 20
314.4196149999966
 10
800.2999994136825
 20
314.4856946874925
 10
800.1709476841226
 20
314.63441803749015
 10
799.5169211906319
 20
314.66966053750133
 10
800.1805375154203
 20
314.78102683750063
 10
800.2412274476812
 20
314.95160053749066
 10
800.1105317470444
 20
315.32710937499667
 10
799.2147045076206
 20
315.70896186248916
 10
798.9493401762659
 20
316.046232587499
 10
798.9200226920658
 20
316.41310701249176
 10
799.3204666469222
 20
315.9398002374948
 10
800.1102577518617
 20
315.66385146250036
 10
800.5387862126253
 20
314.87089521249914
 10
800.8989528760898
 20
314.76093861249126
 10
807.2155007470054
 20
316.38632271249173
 10
814.6674846418359
 20
316.8559290249956
 10
822.7956886396843
 20
318.0152310624959
 10
824.4345908059494
 20
318.3308276499904
 10
826.5736711724113
 20
319.2178813749894
 10
828.4539630918259
 20
320.7366569124962
 10
833.5975375992426
 20
326.08329658749926
 10
836.5812081065445
 20
330.08948777498864
 10
839.3813018435882
 20
334.70449314999337
 10
844.4154152767853
 20
340.2694601124937
 10
845.01806767413
 20
340.7133393999973
 10
845.1980825070715
 20
341.20832031249716
 10
846.8846598345646
 20
343.6624317999912
 10
848.045851405343
 20
345.95883309999533
 10
848.6412429304334
 20
347.5581377499916
 10
849.4715853219475
 20
349.0471333749884
 10
853.1094193203413
 20
354.9086659749986
 10
854.5351532369459
 20
356.45651657499457
 10
855.9315696693307
 20
357.62269089998756
 10
856.3063950749051
 20
357.82092996248787
 10
857.0852263726722
 20
357.79872718749135
 10
857.103721047301
 20
358.0006667124973
 10
856.7767078005363
 20
358.2903600624896
 10
858.1177772066746
 20
359.36067478748924
 10
859.9118976421278
 20
360.1883448999955
 10
862.5125228884714
 20
360.73971381249066
 10
866.4821650492787
 20
359.91873977498756
 10
867.1867436533865
 20
360.0873751374925
 10
868.9436007444382
 20
359.8637614749961
 10
873.5515146758956
 20
358.9693068249982
 10
876.6160137611641
 20
357.8762606874959
 10
876.9761804246481
 20
357.89828724999035
 10
882.6497986068272
 20
356.2843569624985
 10
883.1935420405695
 20
355.81492686249675
 10
884.5458452490628
 20
355.2464653374896
 10
886.371064137394
 20
354.15077601249396
 10
886.5956031869913
 20
354.15976284999886
 10
887.4045739545068
 20
353.3245155999917
 10
888.0201041252833
 20
353.16874374999935
 10
888.8211290325974
 20
352.0318206999976
 10
889.3355549821395
 20
351.8043303624935
 10
889.5928364556918
 20
352.0904994624947
 10
889.4752925236891
 20
352.4866251624912
 10
891.9371392116128
 20
351.0415064499938
 10
897.59787962036
 20
346.8650939874935
 10
897.9873637680441
 20
346.2929319999932
 10
897.913933059933
 20
345.8381275374996
 10
898.714957967247
 20
345.94085942499817
 10
899.861353798334
 20
345.05310084999087
 10
900.0230109542476
 20
344.52481577499
 10
900.2435770737443
 20
344.7597070374929
 10
910.0619203364417
 20
335.9998312374933
 10
913.9937511624627
 20
333.2558501874924
 10
916.5075199368978
 20
331.7286164499995
 10
917.714331705063
 20
330.41230907499244
 10
923.6768778040572
 20
326.03994831249355
 10
924.4506401909927
 20
324.85139499998945
 10
927.5440457676971
 20
318.52466139998927
 10
929.1967846905238
 20
314.62772196249955
 10
929.3996781209593
 20
313.7445449124957
 10
932.0431836129013
 20
310.5751868874945
 10
933.8333311182538
 20
309.8847863124897
 10
936.598216474737
 20
308.5142054874995
 10
938.4206954112606
 20
307.84653632499743
 10
941.8013849336838
 20
307.0833599874936
 10
942.0659272795097
 20
307.0685581374959
 10
942.3011521411161
 20
307.37675379999155
 10
942.233338334202
 20
307.00935073749264
 10
943.2034182672656
 20
306.8699666499915
 10
945.1394682057105
 20
306.91648674999675
 10
950.208790019468
 20
307.91984072499014
 10
957.4991167583848
 20
308.9656619124915
 10
963.7252462200556
 20
310.67157512499404
 10
968.6179781406263
 20
313.41749451249257
 10
969.2191235644758
 20
313.8789950499893
 10
969.0862359024163
 20
314.26313829999606
 10
969.466952204351
 20
314.124106637499
 10
973.0972513353075
 20
317.0400710874939
 10
975.020834493085
 20
318.80131502499194
 10
979.5920330705062
 20
323.34689267499925
 10
980.7678833833945
 20
324.79236381250075
 10
981.5321929366335
 20
325.938802337501
 10
982.777775022715
 20
328.4720332374931
 10
983.8399173361003
 20
332.04156985000066
 10
984.424075058816
 20
335.25515721249286
 10
984.3933875987024
 20
337.5492677499953
 10
984.1395310648855
 20
338.7062790249939
 10
983.3730295502043
 20
341.2823295624981
 10
982.9276503859081
 20
341.96920588749924
 10
982.4873401324242
 20
341.94471234998844
 10
982.8628505259454
 20
342.19581516249303
 10
980.1689299209678
 20
347.5144370499942
 10
979.0188351549626
 20
350.1701356374902
 10
973.4994762588419
 20
360.84262191249127
 10
972.2329335415455
 20
364.43665206249705
 10
971.9645552632005
 20
366.2155172499882
 10
971.9553764246866
 20
368.1482159499991
 10
972.2769097678555
 20
370.5542214249944
 10
974.0628103479246
 20
374.03071783749147
 10
975.4725155465252
 20
376.48165749999856
 10
977.2412914278594
 20
378.54880633749053
 10
978.4687898320958
 20
379.59145569999237
 10
980.6507504441367
 20
380.8644147999937
 10
981.8146819667229
 20
381.11481276249003
 10
982.6902335628595
 20
381.1227423249951
 10
983.4741337714387
 20
380.9204503749975
 10
986.2916262023804
 20
379.321850574997
 10
983.7299082715151
 20
378.0769092624975
 10
982.813120400857
 20
378.73330082499297
 10
981.9201701108225
 20
378.65083337499334
 10
978.8023789631484
 20
377.0097663624974
 10
976.4767078794378
 20
374.21221671249646
 10
974.9406909030849
 20
371.7991627374939
 10
974.1654215426541
 20
369.3750073749993
 10
974.0256840011047
 20
368.11720254998727
 10
974.2388522507654
 20
365.7772767624878
 10
975.3068854605108
 20
362.5645704624934
 10
977.3058172926394
 20
358.6327409499966
 10
978.9997924899878
 20
354.1983533874991
 10
979.8780840379127
 20
352.635877149995
 10
979.9675434640277
 20
352.1657421999975
 10
981.010506114837
 20
350.6298740499914
 10
982.6642040207936
 20
346.7509082874988
 10
984.4479126394398
 20
343.14524811249487
 10
986.0091371722909
 20
338.77975963748867
 10
986.4978075749693
 20
336.59736782498965
 10
986.5235631218331
 20
335.6179787499883
 10
985.1934535228867
 20
328.76155037499586
 10
985.3088054934665
 20
328.059695987495
 10
984.6532720264806
 20
327.71960586248974
 10
983.3854963308718
 20
325.1405597125006
 10
981.4158819829433
 20
322.46600638749715
 10
972.340202654323
 20
313.7204038000016
 10
971.59014085041
 20
312.14030631249193
 10
971.464788055768
 20
312.3425982624895
 10
971.276416369861
 20
312.2766947874956
 10
971.2184663893883
 20
312.47176202499645
 10
970.9755696627437
 20
312.4758149124937
 10
965.9533750198683
 20
309.49588532499
 10
961.274359339304
 20
307.5883850124981
 10
958.121633806233
 20
307.00142117500013
 10
956.8744077490942
 20
306.5328721374962
 10
952.3326636534741
 20
305.6669639124938
 10
951.1568133405859
 20
305.6962151874976
 10
946.0606399992338
 20
305.26555183749815
 10
939.111574256408
 20
305.1679301124967
 10
937.8328387536267
 20
305.4320726499909
 10
936.4343673573811
 20
306.3556023624905
 10
934.8762937690825
 20
306.9133149249972
 10
934.6117514232565
 20
307.20688494999723
 10
933.053677834958
 20
307.8379019124967
 10
930.819658138785
 20
309.2322714249895
 10
929.3056977743781
 20
310.4504284375015
 10
927.8063961520808
 20
312.1087642749989
 10
925.1313812144964
 20
316.4679090999936
 10
925.1608356962976
 20
316.8494091624945
 10
924.9697240585826
 20
317.1868560999939
 10
925.0579505063853
 20
317.3776942374954
 10
924.2788452134354
 20
317.685889899991
 10
920.3850997173836
 20
323.800639862493
 10
916.1800956973881
 20
328.6774970124902
 10
914.9749279002997
 20
329.6753883999949
 10
913.563852725805
 20
331.1721373749947
 10
905.2739915720234
 20
337.3645970499907
 10
901.7621953561992
 20
340.5753650125001
 10
900.3355024564844
 20
342.2800447374882
 10
898.3217748846449
 20
343.4537961999946
 10
896.9254954498416
 20
345.2293133499967
 10
894.1915715486547
 20
346.96060116249527
 10
893.3390355475937
 20
347.0925843249976
 10
892.8246095980514
 20
347.5035118749918
 10
890.6933380942094
 20
348.38386952500025
 10
887.8272115189101
 20
350.79005121249764
 10
885.2734394482657
 20
352.3269766374911
 10
879.890119158757
 20
354.69262944999065
 10
871.6812235805431
 20
357.2015430249991
 10
864.7142111534537
 20
358.67591301248774
 10
862.6602062902417
 20
358.7106268749928
 10
860.9588332230572
 20
358.33846607498833
 10
860.2019215396348
 20
357.9495650874886
 10
856.2585829160761
 20
355.3120163874919
 10
855.3380961104998
 20
354.46654881249054
 10
854.1052548002882
 20
352.8545568624963
 10
850.9230747854158
 20
347.6901209124939
 10
849.037987950372
 20
344.0367071499953
 10
848.3986201989716
 20
342.36022142499866
 10
846.654914876554
 20
339.4935964749918
 10
845.9733518675023
 20
338.6479526874884
 10
842.6700659832909
 20
335.39418887498994
 10
839.8332568921916
 20
331.74042268749974
 10
838.8705748289835
 20
330.03080901249155
 10
838.2679224316388
 20
329.48049737499616
 10
837.1508440847517
 20
327.68295366249964
 10
836.5776461692277
 20
327.1987217125002
 10
835.2694561846258
 20
324.92399454999895
 10
827.0649445292769
 20
317.17240667500033
 10
826.080068856522
 20
316.58544283748984
 10
821.2884411571856
 20
315.49944519999474
 10
813.3366900549423
 20
314.7216432249953
 10
804.2458039938467
 20
313.5841915374999
 10
801.1371916846865
 20
312.65960455000044
 10
798.7634344469642
 20
312.3734354499993
 10
796.8086158387272
 20
311.8303485250007
 10
794.4054041192231
 20
310.94241373749134
 10
793.6852077898561
 20
310.4874330624957
 10
790.0032605675708
 20
306.7522566999932
 10
788.5995832629121
 20
306.0844113250016
 10
787.9087044177649
 20
305.4826456374934
 10
787.100418638216
 20
305.3212349874978
 10
785.8583984894709
 20
304.7561214999922
 10
784.6310370828355
 20
303.9340901875018
 10
783.837410045377
 20
303.1635129249991
 10
783.0657026222827
 20
302.9287978749982
 10
780.5890601946675
 20
300.7418245374958
 10
776.8188865245602
 20
295.186196837492
 10
773.6441043795238
 20
288.918318212491
 10
772.9385667922861
 20
286.69434024999435
 10
772.0934286610807
 20
284.69062791249246
 10
770.3664370445946
 20
282.26118617499867
 10
770.2561539848463
 20
281.73994959999254
 10
769.9990095088757
 20
281.4463795749925
 10
768.7349327481849
 20
278.44424721249226
 10
768.1322803508401
 20
277.40935119999335
 10
767.169598287632
 20
276.286172725002
 10
766.001008846998
 20
275.24387578749173
 10
765.5453548634766
 20
275.07506421249724
 10
764.8839305001305
 20
274.33373822499834
 10
763.6272516092756
 20
273.4602528624951
 10
762.5616843561552
 20
272.07275563749494
 10
758.9752244539072
 20
269.6431376874991
 10
758.188858288703
 20
268.6447176625008
 10
756.814635465865
 20
267.3307010499954
 10
755.344788325369
 20
266.3470828749948
 10
753.9271372665669
 20
264.9830219124931
 10
753.5149115189705
 20
264.8861050374999
 10
752.8607480278982
 20
264.38707123750277
 10
752.4712638802142
 20
264.2034578124981
 10
752.3904353022475
 20
264.29896498749986
 10
751.9421791885621
 20
263.975967474994
 10
751.412957499348
 20
262.99217308749127
 10
750.4135600820648
 20
262.14793899999177
 10
748.385173768135
 20
261.00273396249344
 10
747.8928044305385
 20
260.56220271249134
 10
747.8192367248457
 20
260.00431393749506
 10
747.5105811551282
 20
259.6518889374959
 10
746.7536694717057
 20
259.43902423749995
 10
746.386241935987
 20
259.49047828750025
 10
745.2984810733195
 20
258.32307047499285
 10
743.0865179891119
 20
257.2365441999916
 10
737.7877252124878
 20
255.20305194999227
 10
732.8049858754562
 20
254.0063928624936
 10
727.9178708560629
 20
254.11652567500352
 10
723.6627257182147
 20
253.5218084875026
 10
722.6044193373484
 20
253.756699749993
 10
720.9949716528845
 20
253.80075287499446
 10
714.836382002945
 20
254.62296039999947
 10
712.117253841469
 20
255.34983696249228
 10
708.8187628728871
 20
257.013811599993
 10
706.051000567034
 20
258.6816629125015
 10
702.1415003481414
 20
260.1764735500036
 10
699.6193747207211
 20
261.4825605999914
 10
697.6940105942853
 20
262.2020362374979
 10
691.7263955844791
 20
265.3439051125034
 10
684.913779441049
 20
270.73213093749166
 10
681.7831105199236
 20
272.8681788625
 10
680.6880887850019
 20
273.25725606250177
 10
678.2689853450755
 20
275.6451116499979
 10
674.5036065906171
 20
278.5004589999981
 10
671.0300327023241
 20
280.38875214999086
 10
667.2612290081304
 20
282.0361628124984
 10
659.5152482856922
 20
283.2987253749909
 10
652.6879734001524
 20
283.5188147874962
 10
648.4180325226126
 20
283.4381094624921
 10
647.9514187319189
 20
283.7757326124936
 10
647.4774070713502
 20
283.3940563374906
 10
647.0731271839746
 20
283.4967882250017
 10
646.691040906146
 20
283.1739669249979
 10
642.9540206527579
 20
282.42153954999446
 10
642.0059973316401
 20
282.82524238749187
 10
640.8852200498545
 20
283.06753457499366
 10
640.6427343159744
 20
282.8435684874932
 10
640.2825676525098
 20
282.83264331249075
 10
640.0730983377672
 20
282.26735361249564
 10
638.7355908689652
 20
281.9921096874969
 10
633.8594356567639
 20
281.68761448749444
 10
632.2132726182443
 20
280.99034162499703
 10
631.9192757906171
 20
281.3683174374943
 10
631.9229747255546
 20
282.285855924999
 10
629.9350027005984
 20
281.4195952749925
 10
629.7623857374928
 20
281.1626774499951
 10
629.0935635043109
 20
281.0527208499998
 10
627.5208311739024
 20
280.15720892500207
 10
626.708709461815
 20
280.0985301624924
 10
626.708709461815
 20
279.9223176624991
 10
626.9696898703046
 20
279.907692024991
 10
626.8888612923381
 20
279.67632501249165
 10
623.2665080215828
 20
278.39314558749606
 10
620.7850706783188
 20
276.77269543749065
 10
617.1495656389488
 20
273.90413214999876
 10
615.8047972978925
 20
272.56104047499167
 10
614.7810143096397
 20
271.2350414124965
 10
611.0935871837585
 20
267.1705238875017
 10
609.531266670157
 20
263.8515614499926
 10
609.761696616134
 20
263.2964920749917
 10
610.1006286532009
 20
259.31497063750265
 10
609.8295104230676
 20
255.8210291875021
 10
608.8534025960427
 20
252.77378642500057
 10
608.4195312292843
 20
251.98840731250021
 10
607.5131551754524
 20
248.09005817499403
 10
606.949273096024
 20
246.83313441249226
 10
606.8191253857526
 20
245.82555133749952
 10
605.908091413873
 20
243.32262898749846
 10
604.4439981721362
 20
241.37213282499243
 10
603.1967721149973
 20
240.1044601000028
 10
603.2095128908476
 20
238.19590251249855
 10
601.572528690842
 20
235.21773505000291
 10
601.3747041712187
 20
234.61068298749555
 10
601.3096303160928
 20
232.9093512999965
 10
600.8757589493346
 20
230.20026032500263
 10
600.9300099948697
 20
226.97099005000243
 10
600.4744930089298
 20
224.2943221749993
 10
600.5829951000197
 20
222.28937634999554
 10
601.2229108417855
 20
218.36635746250153
 10
604.3897471266009
 20
213.58694582500368
 10
604.4656437913176
 20
213.09918962500063
 10
604.205348370775
 20
212.0153065375052
 10
604.4439981721362
 20
211.36508241249416
 10
604.9862346324028
 20
210.71485828749564
 10
604.8777325413129
 20
209.9670124374957
 10
604.4548209817269
 20
208.88312935000027
 10
604.6825109758962
 20
208.0810100500046
 10
604.2595994163296
 20
206.31447973749488
 10
603.4570675355399
 20
204.73191527499395
 10
602.9907277399899
 20
202.19568876250435
 10
601.786792921214
 20
199.72448466249833
 10
599.8996511223095
 20
196.79777125000302
 10
599.8021088384115
 20
195.91988057499833
 10
596.8847451645478
 20
190.40249098750317
 10
593.1971810410655
 20
185.3510072500061
 10
591.1041318647548
 20
182.77090382500458
 10
583.3821257205219
 20
172.02740391249998
 10
581.6251316318886
 20
169.85910910000297
 10
580.6924520408276
 20
167.65821497500062
 10
578.6535169124899
 20
164.65502533750055
 10
576.9073456334473
 20
162.69254672500475
 10
573.5344649736245
 20
158.20370949999693
 10
570.7471120124311
 20
154.994175025002
 10
568.1985458501998
 20
152.40261778750437
 10
565.1835028948176
 20
149.84365986249955
 10
563.5891249452278
 20
148.72682503750718
 10
560.3572148052864
 20
145.65808435000486
 10
559.7933327258384
 20
145.43024158749665
 10
559.0124464642302
 20
145.51711434999766
 10
556.9626885263016
 20
146.4929791750079
 10
555.585314758872
 20
147.8700798624992
 10
554.8803251619997
 20
148.9111433125076
 10
554.1536899459267
 20
150.8954722749958
 10
554.6200297414573
 20
154.83153088750447
 10
556.702393105759
 20
159.17957432500714
 10
558.0037332108514
 20
161.4780901749984
 10
559.9234804361096
 20
164.32973706250547
 10
561.2790715867567
 20
167.27865324999735
 10
561.8322678541956
 20
169.7181390999958
 10
561.6478690983892
 20
172.50441115000262
 10
561.20317492204
 20
174.21737286249987
 10
560.368037614877
 20
176.09297871249467
 10
559.6740078251772
 20
176.8950980125028
 10
556.7674669608849
 20
177.9141349000042
 10
555.3900931934749
 20
178.1634755875007
 10
552.6461684682454
 20
178.30444558749537
 10
551.0952187546
 20
178.26109731250213
 10
550.0648598820399
 20
178.02268179999558
 10
548.9803869615262
 20
176.7324538750053
 10
546.1063145260254
 20
175.030417337498
 10
545.1952805541458
 20
174.19569872499702
 10
541.475384999473
 20
171.53947149999487
 10
538.4385594273276
 20
169.772412550004
 10
537.397514742778
 20
168.0268515250014
 10
536.6817023362955
 20
166.20534291250027
 10
536.0417865945299
 20
165.60903981250584
 10
534.490836880904
 20
162.7792432750037
 10
533.5365116706615
 20
159.71085501250548
 10
533.1677141590291
 20
158.89763432500533
 10
532.7990536449977
 20
158.6156943250035
 10
532.6689059347265
 20
158.0518143249998
 10
532.300108423094
 20
157.70485191250188
 10
531.5626503974497
 20
155.7314481250036
 10
530.9878085108293
 20
154.90747847500302
 10
530.3913210050275
 20
154.41954606249791
 10
530.1310255844849
 20
153.8339919250039
 10
529.4043903684118
 20
153.15081606249592
 10
528.6343269163942
 20
152.4894905500054
 10
527.0833772027489
 20
151.7412922750013
 10
526.6496428335917
 20
151.30745710000235
 10
525.7710772904842
 20
149.51837158750448
 10
524.5348110405176
 20
148.4339598625029
 10
523.2658023665964
 20
146.67729744999576
 10
520.4569407838032
 20
145.11587848750403
 10
518.8192715958505
 20
143.97719331250676
 10
517.8213811520625
 20
143.7169274500078
 10
510.6309256560872
 20
143.46758676249877
 10
508.0497540674828
 20
143.65190503749918
 10
504.5574115094172
 20
143.3808902124998
 10
501.36892960542025
 20
143.50000986250205
 10
498.03934018396023
 20
144.2267102125053
 10
494.1675143022531
 20
144.40010331250326
 10
490.8054564520404
 20
144.88803572499583
 10
489.11353621853306
 20
146.15676572499785
 10
488.0182404884286
 20
148.1953681375068
 10
485.39364066387975
 20
149.95203055000138
 10
484.53672073995375
 20
150.8521240000026
 10
480.89272184999754
 20
155.61232847500136
 10
473.47443936227126
 20
160.71914293750646
 10
472.59601081674543
 20
161.16372707500582
 10
471.54400632500386
 20
161.2396746625044
 10
469.0928454490696
 20
162.51897741250474
 10
467.596146780979
 20
162.70329568750515
 10
466.85868875533464
 20
163.2671756874963
 10
466.05615687452547
 20
163.44056878750675
 10
465.6222855077671
 20
163.8201305124975
 10
464.4727387321275
 20
163.18047913749731
 10
463.74610351605435
 20
163.32127292500243
 10
462.9217890184821
 20
163.7008346500057
 10
459.7224843048945
 20
165.77168395000336
 10
456.58811644885117
 20
166.3679870499978
 10
455.42760986601974
 20
166.98596428749508
 10
450.644750012433
 20
168.90491841249562
 10
447.98768175909254
 20
170.85647185000147
 10
444.78824004792324
 20
172.63445597499484
 10
443.86638326645294
 20
172.97066942500487
 10
440.4066461347216
 20
173.5777214874997
 10
434.2790179400981
 20
175.55077285000638
 10
431.7411375898565
 20
176.09297871249467
 10
430.4397974847447
 20
176.1687500875037
 10
426.68715950613654
 20
175.8977352625043
 10
424.9411252246756
 20
176.09297871249467
 10
422.39242206484334
 20
174.87869837500293
 10
421.32959476351107
 20
174.13067631250092
 10
419.7243940043305
 20
172.50441115000262
 10
417.68545887599277
 20
169.36042772499744
 10
417.1432224157261
 20
168.11354807500038
 10
416.557557719515
 20
166.01027567499946
 10
416.41658719965307
 20
164.68744843750383
 10
416.7093510489678
 20
162.2262884500025
 10
417.65299044722053
 20
161.13112776250048
 10
419.1279064985287
 20
158.50732363750163
 10
419.8545417146018
 20
157.72652605000474
 10
420.0823687063723
 20
157.1194739874974
 10
420.20169360705285
 20
155.2435157124985
 10
419.8437189050111
 20
154.52791674999975
 10
420.0605860895898
 20
152.58711227500683
 10
419.8545417146018
 20
151.3726557250005
 10
418.2374221651192
 20
146.9617044250014
 10
418.2586567915168
 20
145.415615950001
 10
417.6443595990527
 20
144.060013187498
 10
416.52166435100764
 20
142.49277921250092
 10
416.37343295889127
 20
141.37030558750527
 10
415.82256565047624
 20
140.39602667500105
 10
414.9329033025953
 20
139.336989550008
 10
414.08571020752913
 20
138.6168090625058
 10
413.5560775255312
 20
137.6636756499983
 10
412.00978572995314
 20
136.32921838750448
 10
409.2559971782432
 20
134.50770977500335
 10
407.15897507185116
 20
133.6816255750031
 10
402.1386983952158
 20
131.30927668750041
 10
398.74951502220625
 20
129.95367392499736
 10
391.92881602099317
 20
127.85656896250592
 10
391.4627502206454
 20
128.30150552499688
 10
390.91201990981193
 20
128.25903831250145
 10
388.17946598453864
 20
128.78873308750627
 10
387.01443848124103
 20
129.25463893750438
 10
382.8627265236705
 20
132.220119100002
 10
379.38011079446477
 20
135.62630672500376
 10
378.6100473424277
 20
136.2118608624978
 10
375.6384326230094
 20
139.85558293750833
 10
375.3022405377502
 20
140.8099498375052
 10
374.456280421016
 20
141.6665187999986
 10
371.73139836074193
 20
143.48238861249646
 10
368.8681487348319
 20
146.45526970000543
 10
362.93149518030265
 20
149.83854970000243
 10
360.9694156998113
 20
150.4091257749967
 10
360.17852861414093
 20
150.45917012500558
 10
359.63779912736953
 20
150.28894885000716
 10
354.4821688320691
 20
151.18974715000405
 10
353.0205415469572
 20
150.95961362500665
 10
351.6189192061396
 20
151.01970208750768
 10
348.0121936278615
 20
150.6438642718262
 10
346.0152823575563
 20
150.08098670848298
 10
340.7348839980658
 20
147.857951155981
 10
336.30597188315926
 20
145.40590920610165
 10
335.69116842826486
 20
144.7837179250038
 10
333.34850964342047
 20
141.61048322500736
 10
333.6288067120677
 20
136.73556441250773
 10
334.40969297367604
 20
133.74241888749984
 10
334.7062927554904
 20
133.05924302500438
 10
335.2068819484709
 20
132.6211787500061
 10
336.301766685811
 20
132.5117507875044
 10
337.1152583737731
 20
132.2301632125067
 10
338.27275100963357
 20
131.76090932500702
 10
338.9610269005743
 20
131.18222747500565
 10
340.51855249850746
 20
128.03066691249958
 10
340.9211884148061
 20
127.64775715000725
 10
342.70544502379835
 20
126.91189374999708
 10
343.5511311453693
 20
126.32545855000528
 10
345.04536385685446
 20
124.58500768749981
 10
345.92187443612073
 20
122.03133613750668
 10
346.1277645918499
 20
120.64557498233552
 10
348.11643506563814
 20
117.02041261259862
 10
349.12857701954437
 20
116.39976085000431
 10
349.644783937745
 20
115.66442608750032
 10
350.5989721504058
 20
113.66194723750033
 10
350.7241879474467
 20
112.66070781250659
 10
350.617740820198
 20
110.7364673125069
 10
349.80685208644246
 20
109.08447512500847
 10
346.07270878242423
 20
105.47987222500433
 10
340.16605770006163
 20
101.37447340000755
 10
339.47531585251545
 20
100.55349936250441
 10
334.44467972941607
 20
96.39903041299732
 10
333.864259629849
 20
94.83956434985222
 10
332.46363330765575
 20
93.49756165741849
 10
328.74640758449755
 20
90.801977664278
 10
326.78631362537334
 20
89.8463020146658
 10
323.2884560342244
 20
88.66107484662272
 10
321.2354275241885
 20
88.45679255585311
 10
318.6268697920322
 20
88.68495338795213
 10
317.1443892017655
 20
88.6355036627671
 10
314.64411131791366
 20
88.36627488623725
 10
313.31663570859746
 20
87.90524047695877
 10
310.39686970011894
 20
85.64978655262006
 10
308.2778420254031
 20
84.78333957494054
 10
307.0781178273497
 20
84.63117968969502
 10
305.91945553533617
 20
84.7047605338483
 10
304.7002103232881
 20
85.117124756602
 10
302.2521898216199
 20
86.55668185571909
 10
300.90692853673903
 20
88.07848034466556
 10
299.93498292248205
 20
88.6538746181668
 10
299.72263364085416
 20
88.72200851578864
 10
298.6288336616175
 20
88.43943506533589
 10
298.04250288333475
 20
87.92106415417173
 10
298.1401927043959
 20
87.40415707692947
 10
299.5542260879917
 20
84.77903682605674
 10
300.55180768793855
 20
82.01301630641487
 10
300.58801952209336
 20
80.61032300502183
 10
300.31799180212585
 20
79.46912256198667
 10
299.2820485995937
 20
77.36599038338207
 10
298.24332848888054
 20
76.13798037073742
 10
294.7526927337434
 20
73.75381500305944
 10
292.324089981948
 20
72.52285148419159
 10
290.40381753621216
 20
71.21975541448899
 10
289.2059989099789
 20
70.85004979811285
 10
287.65833461376957
 20
70.75991969983727
 10
281.80392531237504
 20
69.34854410443512
 10
280.54041024936134
 20
68.76376245922853
 10
279.73928837051864
 20
67.8591414518204
 10
278.8929376243476
 20
67.56976287855244
 10
277.3006481986913
 20
67.22708250667995
 10
275.42181870466663
 20
67.18521010898253
 10
274.4096340616941
 20
67.34038053203419
 10
273.71020829770856
 20
67.18020835676438
 10
273.2193474991298
 20
66.50417020763248
 10
272.5532204527481
 20
64.64683618197338
 10
271.4028020597771
 20
62.265027650594206
 10
269.40895668370644
 20
59.57149857154577
 10
268.6399622734149
 20
56.04105899927211
 10
268.72476242016995
 20
55.39996283165717
 10
268.4424463060258
 20
54.230102580030795
 10
267.6631539434578
 20
53.36595575184244
 10
266.6666786890507
 20
52.867318341435656
 10
265.1982745514705
 20
52.81304455245101
 10
264.3330184074569
 20
52.973822735011616
 10
265.88211193869176
 20
49.751858996754585
 10
265.99516414773217
 20
48.64804313771742
 10
265.8713233003792
 20
47.68687459186131
 10
265.1001915536494
 20
46.18663894123137
 10
264.0612089127902
 20
45.45531669972097
 10
262.91474795029376
 20
45.253999353854454
 10
261.71875753454174
 20
45.5311669579454
 10
260.98410072448706
 20
45.87799907898392
 10
260.19544046695694
 20
46.42055355205861
 10
258.28562846221956
 20
49.30566791914154
 10
257.72224639621277
 20
49.909649669770126
 10
256.47824831219526
 20
50.497716806822595
 10
255.40084093973093
 20
50.46826878595348
 10
254.16530918630968
 20
49.913595401447864
 10
252.58417253439094
 20
49.49479101250117
 10
249.55198037762534
 20
49.81739167069935
 10
247.96728796040054
 20
49.2578492000976
 10
247.01067797174431
 20
48.67884902644696
 10
246.5907458221072
 20
48.022673193767005
 10
246.1866611375536
 20
46.37632437645786
 10
244.84587952527838
 20
43.65522348261844
 10
244.21990214124946
 20
43.028823433126576
 10
243.4870507539613
 20
42.5750039140698
 10
241.83042337444923
 20
42.35924203750226
 10
240.53173988194953
 20
42.74203736214987
 10
239.07944582346752
 20
43.463025550210006
 10
238.3508397436526
 20
43.438249785368924
 10
238.85370511403963
 20
41.70561225442734
 10
238.94731370595463
 20
40.84845324029
 10
238.83733835495104
 20
40.059018506600225
 10
237.9489420135269
 20
38.462258257917036
 10
236.7882231313203
 20
37.65909337657572
 10
234.6484458171674
 20
37.54629257606054
 10
233.52333019784277
 20
37.83499731469039
 10
232.1109112613127
 20
38.79776174953962
 10
230.01596219341013
 20
39.97403411387172
 10
229.65373129070178
 20
40.03968529961735
 10
229.31821307481087
 20
38.17012789366653
 10
228.74860344838962
 20
36.643325327154926
 10
227.77648757320273
 20
35.770538869604515
 10
226.75224017278066
 20
35.277045653430356
 10
225.6485049242251
 20
34.90883301133125
 10
224.13003474514161
 20
34.8421141188672
 10
224.79814335686393
 20
33.87975944523575
 10
225.14751038610123
 20
32.9940843876256
 10
225.1049029115649
 20
31.234617143690947
 10
224.54087323605427
 20
30.320744641352427
 10
223.17226852253341
 20
29.21393710258531
 10
221.35939974198936
 20
26.65880181068763
 10
220.17375902563538
 20
25.56446326123031
 10
219.89444295187553
 20
25.00542834755197
 10
219.15111056148555
 20
24.240542138529285
 10
218.1781535193284
 20
23.516832265520527
 10
217.007802474383
 20
23.407843895047247
 10
215.96863399627057
 20
23.530229319352497
 10
214.97406992055662
 20
23.898093931419133
 10
213.99397371836855
 20
24.6050080263582
 10
212.8304649949063
 20
26.43389770109985
 10
211.4842792742006
 20
25.73125256961938
 10
212.32379172410944
 20
25.025365398608642
 10
212.8509598728532
 20
23.99405493604774
 10
213.06775715856756
 20
23.044843959965533
 10
212.8733014906096
 20
21.821534681062353
 10
212.10817784385333
 20
20.68808073310367
 10
211.0571674196919
 20
20.071332562598542
 10
210.89493741076697
 20
19.42189444252387
 10
209.77560342373664
 20
17.59371882790842
 10
208.7434355888749
 20
16.701845937041824
 10
207.2336415863546
 20
16.662024364095313
 10
206.013726388546
 20
16.912569922052278
 10
205.05869179767433
 20
17.44764561315425
 10
203.6228862576012
 20
18.937325790950794
 10
202.67856709075525
 20
20.463798887648327
 10
202.8583406698153
 20
22.801211058539007
 10
202.18501640037564
 20
22.190505089901933
 10
201.11233877935538
 20
21.610332275094486
 10
199.08810256473404
 20
21.118008207408586
 10
197.99222616198875
 20
21.35770304532747
 10
196.39289939450728
 20
22.099971371286603
 10
197.07371917022527
 20
23.43656571251033
 10
196.39270913660405
 20
22.10006829982775
 10
194.76438646077156
 20
23.0319304829383
 10
192.4438353938184
 20
23.626261337840116
 10
190.94698796994447
 20
24.29705863479518
 10
189.3120468269459
 20
24.800504841558933
 10
188.2674344236427
 20
24.653537833354562
 10
185.1732782621603
 20
25.295828750888813
 10
183.79485640918037
 20
26.82550760479645
 10
183.05770855658392
 20
25.72704581432256
 10
181.59075700286957
 20
24.992894920563742
 10
180.13034840594213
 20
25.122083981704638
 10
178.90993692298693
 20
26.0794507367539
 10
178.29115880936135
 20
27.13587441589678
 10
178.1912727355044
 20
28.584400758766613
 10
175.85711565984823
 20
28.07556332330629
 10
174.22590350176293
 20
28.326873850929342
 10
173.05150976405264
 20
28.908487710533688
 10
173.01628751832826
 20
28.393780835692322
 10
172.10730883725705
 20
26.67213940012929
 10
170.1016776821532
 20
25.95242697202378
 10
167.91624469778822
 20
26.81717331919318
 10
166.25419712389584
 20
27.960633537635427
 10
163.7775760297415
 20
30.466070975480633
 10
163.35316886646112
 20
28.435510288703448
 10
162.1898373001677
 20
27.521668841891326
 10
161.29120400051244
 20
27.272786652266724
 10
159.65028818968926
 20
27.35131432112549
 10
156.47764690941045
 20
28.150396066976278
 10
155.61513865918977
 20
28.64220163651831
 10
154.98743595191775
 20
29.374428304487864
 10
154.7994080395965
 20
29.15488763119284
 10
154.18799635218673
 20
28.13025399262564
 10
153.96951342991068
 20
26.788476130774296
 10
154.9341808343955
 20
26.15516423416458
 10
156.4488861593449
 20
25.6985323303155
 10
157.89921995064378
 20
24.603695466007828
 10
158.43614655482205
 20
22.703502145159714
 10
158.4794427894422
 20
21.95406263306587
 10
158.29188042498427
 20
21.061682542450583
 10
157.90832221887334
 20
20.302326799821625
 10
156.99894723841788
 20
19.447072562763402
 10
156.11376879196226
 20
20.658047012506486
 10
156.8055121369219
 20
19.327073254424
 10
155.6378770215846
 20
18.88875506935816
 10
154.14965168871328
 20
19.267851107236503
 10
153.41420501345888
 20
19.694403470066096
 10
152.83245756299132
 20
20.350760260870555
 10
152.23591567669942
 20
20.692764886861884
 10
152.20698565523463
 20
21.082718944528832
 10
151.66686649812618
 20
20.373623358009212
 10
150.07279372699296
 20
19.360011844776416
 10
148.56238569997427
 20
19.422870552686536
 10
147.65969104791984
 20
19.834660001421337
 10
146.7725534081788
 20
20.542776248815997
 10
146.17368982043192
 20
21.411851283228945
 10
145.5920273945046
 20
20.14433005829768
 10
145.18437892503613
 20
19.550733464856645
 10
144.70550439945018
 20
19.180588430021135
 10
143.37676696055323
 20
18.445820416506034
 10
142.86336191069591
 20
19.855222862502544
 10
142.9333074686222
 20
18.356854543654897
 10
142.1508631326717
 20
18.360662880284007
 10
141.56025926220818
 20
18.564634641086283
 10
140.43631074638145
 20
19.285179021089156
 10
137.61537545706992
 20
23.016260432977106
 10
136.46120597349218
 20
23.403245588128947
 10
135.9025845484008
 20
23.285276559841037
 10
135.5961843652932
 20
21.098082641841312
 10
135.0222341853369
 20
19.822379554375637
 10
133.84754319150477
 20
19.120602487036066
 10
131.86223419772077
 20
18.953474900445052
 10
131.1071077156974
 20
19.257286931142065
 10
130.58611738412668
 20
19.77522106299893
 10
129.90230308765442
 20
20.59832488279295
 10
129.7399211898077
 20
21.321163925693043
 10
129.78229951971966
 20
22.01732077884582
 10
130.13269200558688
 20
22.674351759821832
 10
130.68200049297428
 20
23.188545858469876
 10
131.93650254971737
 20
23.785118457925314
 10
132.0007037298394
 20
24.564953829390742
 10
133.1312304738298
 20
24.58188025471092
 10
132.00054563059805
 20
24.581933253736022
 10
132.01359023723802
 20
26.112705078767068
 10
129.86532955681113
 20
25.514394713076495
 10
129.0710013432222
 20
25.446721878437746
 10
128.56492371038
 20
25.122601840803068
 10
126.96502264656714
 20
20.485085859380316
 10
126.46952589188416
 20
19.495223281144526
 10
125.96518325096798
 20
18.900966659585503
 10
125.25499281669424
 20
18.608090837580967
 10
123.97716477170013
 20
18.554255574260168
 10
122.95227710889843
 20
18.87215765972607
 10
121.99426317559161
 20
19.543175006330568
 10
121.40396735220408
 20
20.615335644457176
 10
121.60733793394438
 20
22.344406244761426
 10
121.28686084897375
 20
22.93502786449547
 10
120.35097792323029
 20
22.35406448410836
 10
118.24950692196165
 20
19.839047687022475
 10
117.07667959643057
 20
17.696843841880206
 10
116.01204103492407
 20
16.382464602722933
 10
114.21462388344284
 20
16.045401638369153
 10
112.67431782784689
 20
16.464970152607204
 10
111.12032766674147
 20
17.89492274761642
 10
107.20558321341724
 20
18.812159486689687
 10
104.40824464010703
 20
20.13707672899411
 10
103.67524753918626
 20
20.729860710161653
 10
103.10981732388355
 20
19.588189833462057
 10
101.86509523848957
 20
18.62551771011102
 10
100.33272682548254
 20
18.44041550881462
 10
98.56290639437096
 20
18.89523544106243
 10
97.39086052849892
 20
20.112409192184945
 10
96.3392211984032
 20
19.200274688601098
 10
95.17044161396394
 20
18.61537061955211
 10
92.26236082786342
 20
18.44265905128686
 10
91.29636676116739
 20
18.559196096422152
 10
89.88288610775672
 20
19.502538634972844
 10
87.16565570963839
 20
21.99058934186333
 10
84.06050166294385
 20
24.35733814003091
 10
82.65019836942871
 20
25.747959789198962
 10
81.85884457406384
 20
26.85328287709985
 10
80.66028996555278
 20
26.191505126319132
 10
79.70257570133748
 20
26.0793156390451
 10
78.13793448584785
 20
26.576499853855605
 10
77.63188961221563
 20
26.881835675680435
 10
76.91245630535187
 20
27.71046519442823
 10
76.01395042400304
 20
29.443562829629965
 10
75.37569990698742
 20
32.38116402733969
 10
73.89095178997015
 20
32.60577323957957
 10
71.424064800501
 20
31.976043712914365
 10
69.79336811965459
 20
29.411120748941652
 10
68.97448374747616
 20
28.698515296929024
 10
67.50536190806545
 20
28.079393900796994
 10
65.75168126010938
 20
28.000566430131208
 10
64.62057341235106
 20
28.557277943646653
 10
63.884888904787765
 20
29.350811668456977
 10
63.43147010679929
 20
30.228002696617946
 10
62.99323010206046
 20
31.752833799303765
 10
63.0567449481916
 20
34.69977727828963
 10
62.03376712957375
 20
34.88317475293726
 10
61.474083615750466
 20
35.16622215396788
 10
60.91665199679805
 20
33.59029571368802
 10
60.0411038195961
 20
32.55033339466053
 10
58.71751781392079
 20
31.424400375482367
 10
57.4598173547216
 20
31.46389242226564
 10
56.607857115530834
 20
32.02110689081759
 10
55.47525551853187
 20
33.05782368223208
 10
54.38312635724335
 20
34.882509425156066
 10
53.537570592076136
 20
34.94452643157251
 10
51.11307931835824
 20
34.43121065426226
 10
51.152091648219354
 20
33.76861654958045
 10
50.673882487396476
 20
32.58699021469384
 10
51.36672017528079
 20
31.40820707986563
 10
51.44158592366628
 20
30.22282578611821
 10
51.20448776637708
 20
29.578226336656915
 10
50.790434542061966
 20
29.02836097738633
 10
50.02359882708398
 20
28.459384682033637
 10
50.23538391150856
 20
27.922837665028172
 10
50.20352307834596
 20
27.004419552166617
 10
49.84026081855033
 20
26.283282361671944
 10
48.62839475974282
 20
24.962271267271234
 10
48.27664003324891
 20
22.866540972368924
 10
48.34756611194639
 20
21.793267741566794
 10
48.09774072272702
 20
21.04898584818599
 10
47.15002090404528
 20
19.733167034672512
 10
46.776684730076944
 20
19.285907761082733
 10
45.458091330728294
 20
18.852073905565266
 10
44.61442569705522
 20
19.07358792675047
 10
43.245223832836054
 20
18.945552290593238
 10
42.866632668018575
 20
18.758546445337565
 10
42.51478117525453
 20
18.922007415736843
 10
42.26137160617893
 20
18.654797565220303
 10
42.6196344538214
 20
17.805572807566364
 10
42.42410581928585
 20
15.974443196064744
 10
41.824204331512284
 20
15.218496293124417
 10
41.04640743561545
 20
14.88529757415608
 10
40.526485797389114
 20
14.873273571394352
 10
40.18485220267583
 20
14.240234685220784
 10
39.55948787453839
 20
13.716706104583817
 10
38.813429268307694
 20
13.538783688372417
 10
38.31620357163219
 20
13.602705286783227
 10
37.99129970423963
 20
13.306554551207084
 10
37.29262658184194
 20
13.046268057329204
 10
36.5098640284897
 20
13.10721956769592
 10
36.26428091079455
 20
12.782905754920998
 10
36.69120566644866
 20
11.972379219331362
 10
36.81056001680262
 20
11.01881425314549
 10
36.02717598029023
 20
10.107870593194571
 10
36.06813467526195
 20
9.81255620371631
 10
35.54527397538375
 20
8.923006714209277
 10
35.77433041764618
 20
7.879774476002476
 10
35.69926458126338
 20
7.2770492137207805
 10
34.98397538992966
 20
6.279746895873757
 10
33.93536235007406
 20
5.64119460994115
 10
33.89253821089209
 20
4.745264223516363
 10
33.478489906782805
 20
3.5622572157141628
 10
32.437082236583976
 20
2.843912037768952
 10
31.726190031959742
 20
2.5473280659208624
 10
31.483708993573156
 20
2.63270579880383
 10
31.35079808740977
 20
2.1837604176405074
 10
30.84416664369997
 20
1.5815644558613695
 10
31.15088093620614
 20
1.0072165073139605
 10
31.32813474692065
 20
-0.5805697168638555
 10
30.984367878615448
 20
-1.500279820980081
 10
30.939788734029428
 20
-2.5766667444097804
 10
30.676192255657643
 20
-3.3784394074384694
 10
29.85335477447952
 20
-3.9281969482650347
 10
29.022769614355585
 20
-4.121608947470851
 10
28.257449716708688
 20
-4.1253166276955
 10
27.295040349472686
 20
-3.4674198720801215
 10
26.563742745165218
 20
-4.251921296558148
 10
25.15861916373864
 20
-4.11572711925822
 10
24.51314861974354
 20
-5.442906676513664
 10
23.599223384459656
 20
-5.286929938799465
 10
23.163316049777055
 20
-6.671998983424379
 10
22.62043782249712
 20
-7.356214309138432
 10
21.671665540630308
 20
-7.785424594571598
 10
21.101360225839443
 20
-7.685514217430962
 10
21.30877929329843
 20
-6.501531132327463
 10
20.60244146066095
 20
-7.015019148793538
 10
19.324261032926366
 20
-7.149315559593937
 10
18.020567599180065
 20
-6.527652967367259
 10
17.591287425496027
 20
-5.7528579103254645
 10
17.0526299886256
 20
-2.7758830279830176
 10
17.54662054863985
 20
-1.7420456438178296
 10
18.3296453453832
 20
-1.2425923913630588
 10
19.040931964335254
 20
-1.1922315267909
 10
19.78299428138769
 20
-1.335962638452193
  0
LWPOLYLINE
  5
32
330
17
100
AcDbEntity
  8
water
100
AcDbPolyline
 90
11
 70
1
 10
5.822617913165386
 20
35.336195837503226
 10
6.09483212401008
 20
35.561042987501466
 10
6.275257949715868
 20
35.51681365001047
 10
6.568021799030598
 20
34.97513642500333
 10
7.306575805405797
 20
34.99222903750274
 10
7.531251852604213
 20
34.42006705000245
 10
7.446176349373695
 20
33.86816950000108
 10
7.085324697962121
 20
33.26534653750558
 10
6.629259721656899
 20
33.09847330000871
 10
6.251420369111652
 20
33.75239788750039
 10
5.822617913165386
 20
35.336195837503226
  0
LWPOLYLINE
  5
33
330
17
100
AcDbEntity
  8
water
100
AcDbPolyline
 90
13
 70
1
 10
75.67577096387457
 20
44.18594001250128
 10
75.66796210127426
 20
41.78574955001129
 10
75.13257552049765
 20
41.63455922500988
 10
74.99557793073636
 20
41.35156195000821
 10
75.66618113259634
 20
40.95649352501154
 10
75.66686612054339
 20
40.09146636250695
 10
74.89625467816039
 20
40.71050087500409
 10
73.635876852407
 20
40.901515225007614
 10
73.54107452029717
 20
41.176582937504264
 10
73.66875627394347
 20
44.79792602500369
 10
73.88384248986367
 20
44.95775076250583
 10
75.32231718229897
 20
44.46664652500122
 10
75.67577096387457
 20
44.18594001250128
  0
LWPOLYLINE
  5
34
330
17
100
AcDbEntity
  8
water
100
AcDbPolyline
 90
11
 70
1
 10
22.008198154977226
 20
45.44321620000716
 10
21.829964290713693
 20
45.705596612505786
 10
22.028336800682926
 20
46.69943511250068
 10
21.73201101403183
 20
47.22384351250635
 10
21.983675586406488
 20
47.44410913750113
 10
23.193364303961044
 20
47.7239345875033
 10
23.36461129115294
 20
47.49662046250127
 10
23.30172939746928
 20
46.135907537501126
 10
22.81922388633378
 20
45.27193765000889
 10
22.515089237082375
 20
45.2088535750104
 10
22.008198154977226
 20
45.44321620000716
  0
LWPOLYLINE
  5
35
330
17
100
AcDbEntity
  8
water
100
AcDbPolyline
 90
8
 70
1
 10
51.35225989533495
 20
48.07882656250625
 10
49.65266779680892
 20
48.60552572500113
 10
49.95351450392615
 20
49.26015516250105
 10
50.547536053102974
 20
49.74932106250805
 10
53.82629936876306
 20
49.70421066250675
 10
53.89397617809557
 20
48.71847793750643
 10
53.668341147767386
 20
48.40235271250576
 10
51.35225989533495
 20
48.07882656250625
  0
LWPOLYLINE
  5
36
330
17
100
AcDbEntity
  8
water
100
AcDbPolyline
 90
10
 70
1
 10
48.708206413027426
 20
52.91462619999947
 10
53.699713595828136
 20
50.67020758750183
 10
53.55175619887502
 20
50.343509612502814
 10
51.130049804761505
 20
50.312672425005545
 10
50.59384123843677
 20
50.46069092500745
 10
48.53572644752305
 20
50.54069140000329
 10
48.25844332586626
 20
50.984746900009
 10
48.548056230608964
 20
51.891184000009204
 10
48.49873709830423
 20
52.54475616250929
 10
48.708206413027426
 20
52.91462619999947
  0
LWPOLYLINE
  5
37
330
17
100
AcDbEntity
  8
water
100
AcDbPolyline
 90
12
 70
1
 10
51.100458325359206
 20
56.25614383750925
 10
52.17520441701308
 20
56.39693762500185
 10
52.68702741232923
 20
56.25614383750925
 10
52.90457958487439
 20
55.3215127375051
 10
52.77662383604535
 20
54.732610562509514
 10
52.955816683438655
 20
53.95163676251057
 10
52.40303140876405
 20
53.83692242500972
 10
52.08574499089806
 20
53.42669972501124
 10
51.676259195109346
 20
53.56749351250384
 10
51.31801049790436
 20
53.96432406250858
 10
50.98524335238042
 20
55.23182057500869
 10
51.100458325359206
 20
56.25614383750925
  0
LWPOLYLINE
  5
38
330
17
100
AcDbEntity
  8
water
100
AcDbPolyline
 90
14
 70
1
 10
40.69590237610482
 20
54.54564910000327
 10
40.34190060418325
 20
54.48256502500478
 10
39.73582326708375
 20
54.79305145000215
 10
38.90671385388213
 20
54.78335976250158
 10
39.02521676903404
 20
56.953240487504615
 10
40.14270610866588
 20
56.72486908750275
 10
40.40450850270366
 20
56.89755733750497
 10
40.978117411011546
 20
56.908658725009495
 10
41.29225288432499
 20
56.6357055625
 10
41.303623684261666
 20
54.589349800000605
 10
41.515284960446586
 20
54.01683538750872
 10
41.263072397706495
 20
53.93436793750909
 10
41.072234755174335
 20
54.38141904999972
 10
40.69590237610482
 20
54.54564910000327
  0
LWPOLYLINE
  5
39
330
17
100
AcDbEntity
  8
water
100
AcDbPolyline
 90
10
 70
1
 10
49.564989339371806
 20
56.37138681250375
 10
49.564989339371806
 20
54.23322433750828
 10
49.29620006826239
 20
54.70688353750936
 10
48.74601774781385
 20
54.54053893750615
 10
48.22145397662798
 20
54.91181867500028
 10
48.183094651495594
 20
56.204866000011
 10
48.89959204592502
 20
56.294558162507414
 10
49.129884994300966
 20
56.768217362508494
 10
49.411415041260646
 20
56.65297438750147
 10
49.564989339371806
 20
56.37138681250375
  0
LWPOLYLINE
  5
3A
330
17
100
AcDbEntity
  8
water
100
AcDbPolyline
 90
13
 70
1
 10
51.48542155257717
 20
59.65792615000961
 10
51.99943650935506
 20
59.74532755000429
 10
52.80429734916865
 20
61.37529317500825
 10
52.76552703127192
 20
61.96701474999923
 10
53.017602596430386
 20
62.43274438750781
 10
53.279404990448704
 20
62.38428595000495
 10
53.56066104222567
 20
60.04594607501156
 10
53.26981515917047
 20
58.784617000008396
 10
52.99828593627283
 20
58.377213700005306
 10
52.58126527304705
 20
58.35783032500416
 10
51.34965694112836
 20
58.84294333750137
 10
51.21389232967954
 20
59.31836466251052
 10
51.48542155257717
 20
59.65792615000961
  0
LWPOLYLINE
  5
3B
330
17
100
AcDbEntity
  8
water
100
AcDbPolyline
 90
9
 70
1
 10
23.024857268557362
 20
65.23575662500996
 10
22.806072117719186
 20
65.70465808750552
 10
23.29775646736858
 20
66.00404312501088
 10
24.208790439248162
 20
65.87593663750378
 10
24.72499735744882
 20
65.24562452500005
 10
26.1953924883103
 20
64.22200611250774
 10
26.59282249619581
 20
63.52543810000603
 10
25.316278954837433
 20
64.01160838750306
 10
23.024857268557362
 20
65.23575662500996
  0
LWPOLYLINE
  5
3C
330
17
100
AcDbEntity
  8
water
100
AcDbPolyline
 90
33
 70
1
 10
11.720912142562254
 20
87.28751751250807
 10
11.810097573494566
 20
87.1386179500084
 10
11.96860378483621
 20
87.28751751250807
 10
12.16026341289705
 20
87.1254020125042
 10
12.246160901675715
 20
87.28416947500651
 10
12.613040447048624
 20
87.26760550000076
 10
12.361923865019929
 20
86.58337236250546
 10
12.556871435253887
 20
86.34213745000352
 10
12.530430900423609
 20
85.77367592500892
 10
12.348635098823712
 20
85.71076806249997
 10
13.35967731122632
 20
84.25648630000819
 10
13.861910475264242
 20
82.81207243750652
 10
14.998579477491477
 20
80.7694171375003
 10
14.473193720776925
 20
80.22403944999999
 10
10.969206367552994
 20
77.6307200875068
 10
9.35016885181082
 20
78.90226948750419
 10
7.8852536245452445
 20
79.2529323625078
 10
6.382938055277053
 20
80.61787438750729
 10
4.53716952847583
 20
83.24255957500391
 10
3.7731339704001217
 20
84.02318094999875
 10
3.2709008063622003
 20
85.8203722375037
 10
3.4087203816521834
 20
86.24574921250398
 10
3.5418820388944092
 20
85.29931187499959
 10
5.2147596074074425
 20
84.85754713750813
 10
6.308137371271819
 20
84.05119873750063
 10
7.691265037441056
 20
83.64220952500405
 10
9.789383124583459
 20
83.98811466250214
 10
10.852347423497386
 20
84.9158734750011
 10
10.44121765663185
 20
86.00733370000995
 10
10.726309640927889
 20
86.76187562500051
 10
10.924545153296027
 20
86.99659067500139
 10
11.129356549990929
 20
86.8082195125037
 10
11.720912142562254
 20
87.28751751250807
  0
LWPOLYLINE
  5
3D
330
17
100
AcDbEntity
  8
water
100
AcDbPolyline
 90
9
 70
1
 10
38.734781878743185
 20
84.02124261250114
 10
38.365984367110734
 20
85.67852117499875
 10
38.64628143575793
 20
85.84081288750468
 10
39.51635312829853
 20
85.27041302499994
 10
40.47506226142547
 20
85.02935432500006
 10
40.03749195972966
 20
83.6966591875018
 10
39.84090041843835
 20
83.59339866250959
 10
39.26071562582317
 20
83.97207932500257
 10
38.734781878743185
 20
84.02124261250114
  0
LWPOLYLINE
  5
3E
330
17
100
AcDbEntity
  8
water
100
AcDbPolyline
 90
7
 70
1
 10
53.21186517869783
 20
92.09494693750781
 10
53.666697176690555
 20
92.06710536250799
 10
54.26126671623282
 20
91.13494123750763
 10
54.11618626868849
 20
89.38338898751016
 10
53.88507133476439
 20
88.96206490000715
 10
53.15912110663835
 20
91.3999648374996
 10
53.21186517869783
 20
92.09494693750781
  0
LWPOLYLINE
  5
3F
330
17
100
AcDbEntity
  8
water
100
AcDbPolyline
 90
10
 70
1
 10
45.19586220685722
 20
96.62607516250901
 10
45.51739555000664
 20
97.84722778750593
 10
46.285404038183046
 20
98.48300248749835
 10
46.559125222522944
 20
98.47912581250314
 10
46.71160353992272
 20
97.61198409999888
 10
46.37637043777381
 20
96.07470625000128
 10
47.09656676714069
 20
94.1927567500075
 10
46.255127570853155
 20
93.86288695000898
 10
45.91797650246418
 20
93.9768964375016
 10
45.19586220685722
 20
96.62607516250901
  0
LWPOLYLINE
  5
40
330
17
100
AcDbEntity
  8
water
100
AcDbPolyline
 90
11
 70
1
 10
48.71259033591193
 20
101.76918940000009
 10
47.230139417147264
 20
101.69958546250054
 10
47.09355282015029
 20
101.81835268749867
 10
47.34179245278968
 20
102.37130751249987
 10
47.404400351310095
 20
104.56497692500545
 10
47.035465842096016
 20
105.91987483750025
 10
47.41262020669421
 20
105.46841841250821
 10
47.991846016199084
 20
105.26841722499982
 10
48.77259528022576
 20
103.84127218749964
 10
48.97973563592507
 20
102.00249475000953
 10
48.71259033591193
 20
101.76918940000009
  0
LWPOLYLINE
  5
41
330
17
100
AcDbEntity
  8
water
100
AcDbPolyline
 90
15
 70
1
 10
10.954821620625916
 20
196.32076401250038
 10
11.131137518649377
 20
194.8224291249946
 10
10.991536974681479
 20
194.61678913749546
 10
10.697540147073731
 20
194.80780348749897
 10
9.977343817726313
 20
194.8959097375019
 10
9.492372349985311
 20
194.76375036249752
 10
9.036718366444429
 20
194.19070731249946
 10
7.993070727688053
 20
193.338719874997
 10
7.375759588233503
 20
193.7499998499953
 10
7.316987622232173
 20
194.0879754250009
 10
7.993070727688053
 20
194.36709602499482
 10
9.389487160072974
 20
196.5117783625039
 10
10.432997801247728
 20
196.6219111750013
 10
10.74905124082071
 20
196.57063333750304
 10
10.954821620625916
 20
196.32076401250038
  0
LWPOLYLINE
  5
42
330
17
100
AcDbEntity
  8
water
100
AcDbPolyline
 90
45
 70
1
 10
24.850213154489644
 20
207.08452836250387
 10
23.752725462942937
 20
207.66514855000284
 10
22.24657396115567
 20
209.493000812503
 10
22.483305796257287
 20
210.97671006250062
 10
24.699515805748312
 20
216.07259935000326
 10
28.826020206820512
 20
214.93690978750342
 10
26.87517452868417
 20
211.47609628750186
 10
26.51706282906081
 20
210.35415129999987
 10
26.231833847183147
 20
208.75061755000428
 10
26.302113610722245
 20
206.9662897749994
 10
26.696392674035735
 20
205.8461069125055
 10
27.685515272093667
 20
203.94424540000438
 10
29.99981555584818
 20
201.45647732500512
 10
31.125798746066327
 20
200.7863411874993
 10
36.83846124132475
 20
199.46721441249682
 10
42.906495484418315
 20
199.13029611250357
 10
43.14322731951993
 20
198.63936808750103
 10
44.122075098333106
 20
198.39108467500435
 10
45.483420147739295
 20
198.5783985625022
 10
45.75837431039167
 20
198.76817942500384
 10
46.2169052433024
 20
198.61998471249987
 10
47.33480557571804
 20
198.94351086249938
 10
48.13980341313274
 20
196.74508371250081
 10
48.290500761854595
 20
196.85556895000232
 10
47.55838564220507
 20
199.23813816249924
 10
47.77141689428409
 20
200.24184456249677
 10
50.69261650066678
 20
203.43499127500053
 10
52.54893384185654
 20
206.43060377499967
 10
56.23088106416129
 20
205.13808508749514
 10
53.537919442313374
 20
200.98687101250133
 10
50.57096264096233
 20
197.17010826249697
 10
49.10221148117767
 20
196.34543376250068
 10
48.701082538374166
 20
196.27688710000098
 10
48.31036541237758
 20
196.6936296625005
 10
48.15432515764144
 20
196.62138253749512
 10
48.2202209983155
 20
196.0393526500047
 10
43.71998717239984
 20
195.4273666375023
 10
41.63282889244924
 20
195.53485626249383
 10
38.52353159534208
 20
196.14772333749403
 10
28.615728906529707
 20
199.02051572499778
 10
26.24882154831682
 20
200.33241778750346
 10
24.39825810586675
 20
203.06335911250227
 10
24.204680511546364
 20
204.3750849625059
 10
25.000773505629876
 20
206.20293722499352
 10
24.850213154489644
 20
207.08452836250387
  0
LWPOLYLINE
  5
43
330
17
100
AcDbEntity
  8
water
100
AcDbPolyline
 90
10
 70
1
 10
74.12139631049396
 20
227.70086222499268
 10
74.79186251477232
 20
227.66262411249656
 10
75.35697757251336
 20
227.13151963750028
 10
75.03133430166216
 20
225.43758887500007
 10
74.41827008751048
 20
225.36587038750085
 10
74.03042991090321
 20
225.56199490000148
 10
73.89151435488236
 20
226.03583031250463
 10
73.47010976879153
 20
226.45680197500351
 10
73.32653629472293
 20
227.198480387494
 10
74.12139631049396
 20
227.70086222499268
  0
LWPOLYLINE
  5
44
330
17
100
AcDbEntity
  8
water
100
AcDbPolyline
 90
16
 70
1
 10
74.38730863221407
 20
233.57754910000472
 10
74.96352049472854
 20
233.05472661249254
 10
75.4572598082191
 20
231.22194039999735
 10
75.3162892883571
 20
230.6814966625046
 10
74.7518592185631
 20
230.04131664999827
 10
72.11205266153901
 20
229.52430917500396
 10
70.67741390160332
 20
228.90157420000114
 10
70.27765493469393
 20
228.9604291750003
 10
70.34820869341574
 20
235.19306530000262
 10
71.16539931631526
 20
235.5102478000031
 10
71.71804759338876
 20
235.4691902874991
 10
72.28247766320222
 20
234.99324032499626
 10
72.66470093861251
 20
234.89931906250052
 10
73.23488490718512
 20
235.25773528749457
 10
73.81698766605984
 20
235.15200778749858
 10
74.38730863221407
 20
233.57754910000472
  0
LWPOLYLINE
  5
45
330
17
100
AcDbEntity
  8
water
100
AcDbPolyline
 90
9
 70
1
 10
89.9391380238226
 20
0.2593355875065916
 10
89.01097935320826
 20
0.07360761250223626
 10
88.38668133670153
 20
0.7745809375053456
 10
89.6017129602509
 20
2.362431775005458
 10
90.7323540685168
 20
3.3675478750069328
 10
91.07827298263587
 20
3.1564453000065438
 10
91.07827298263587
 20
1.6191674500089597
 10
90.83359528733284
 20
1.137754900004917
 10
89.9391380238226
 20
0.2593355875065916
  0
LWPOLYLINE
  5
46
330
17
100
AcDbEntity
  8
water
100
AcDbPolyline
 90
10
 70
1
 10
110.74085205247593
 20
28.21721083751008
 10
112.25426442651755
 20
28.158355862510934
 10
113.52395808838592
 20
27.413505625008423
 10
115.58837476844369
 20
27.4387040125024
 10
115.38657731871972
 20
27.144252925004604
 10
113.70904183215893
 20
26.875000225000786
 10
113.28434930391447
 20
26.95905358750643
 10
112.3216672406868
 20
27.60293406250594
 10
110.70290372012734
 20
28.08681358750125
 10
110.74085205247593
 20
28.21721083751008
  0
LWPOLYLINE
  5
47
330
17
100
AcDbEntity
  8
water
100
AcDbPolyline
 90
18
 70
1
 10
112.14507734748062
 20
27.114825437511293
 10
111.41351021819654
 20
26.870771125001447
 10
109.97983044139063
 20
26.95077160000981
 10
109.75282543514886
 20
27.093679937502078
 10
108.65547474120324
 20
27.051741362512807
 10
108.36956077137853
 20
27.20733700000309
 10
108.16776332167402
 20
26.837114537508796
 10
107.84403801708235
 20
26.84962562500475
 10
107.26810014973113
 20
27.160993112512422
 10
106.88121895627307
 20
27.754300600009408
 10
107.42783933938524
 20
28.19201245000359
 10
108.390658400214
 20
28.49492173751258
 10
109.56363176369352
 20
28.427608562502233
 10
111.02662902471903
 20
27.39253633750127
 10
111.47652910948128
 20
27.565048375001428
 10
112.2670052023678
 20
27.30830676250609
 10
111.82970889587418
 20
27.29579567501013
 10
112.14507734748062
 20
27.114825437511293
  0
LWPOLYLINE
  5
48
330
17
100
AcDbEntity
  8
water
100
AcDbPolyline
 90
10
 70
1
 10
112.76307347488223
 20
30.767005712507984
 10
112.95226714633758
 20
30.716432725005454
 10
113.6206783867553
 20
29.42056600001187
 10
114.95763786519183
 20
28.166637850007554
 10
115.06696194182985
 20
27.78372808750272
 10
113.83096968702664
 20
27.83430107500525
 10
112.56538595286005
 20
28.654746475002202
 10
111.24952410323952
 20
28.692632162506715
 10
112.07356460562904
 20
29.479420975011017
 10
112.76307347488223
 20
30.767005712507984
  0
LWPOLYLINE
  5
49
330
17
100
AcDbEntity
  8
water
100
AcDbPolyline
 90
13
 70
1
 10
108.14392574105034
 20
30.677313550011572
 10
108.6989029771672
 20
30.353434975007943
 10
108.27845737418669
 20
30.72365743750224
 10
108.47614489620885
 20
31.16965127500556
 10
109.97709048958293
 20
30.98022283750804
 10
110.18724479227265
 20
30.610000375001224
 10
109.69117651975822
 20
30.10938066251062
 10
108.85453223911954
 20
30.071494975006107
 10
108.77877257198452
 20
29.82744066250878
 10
107.33248901692944
 20
29.62127203750345
 10
107.75293461989051
 20
30.168235637509767
 10
107.90431695655943
 20
30.113609762509956
 10
108.14392574105034
 20
30.677313550011572
  0
LWPOLYLINE
  5
4A
330
17
100
AcDbEntity
  8
water
100
AcDbPolyline
 90
8
 70
1
 10
142.73170722694886
 20
34.40914187501251
 10
142.65539956944843
 20
28.695803987506217
 10
141.71970603141648
 20
29.211754187500688
 10
140.5168671933519
 20
28.485582475003604
 10
140.05861025560444
 20
28.94426361250494
 10
137.5574452594185
 20
28.791311162507984
 10
137.3092056267791
 20
34.50464905000175
 10
142.73170722694886
 20
34.40914187501251
  0
LWPOLYLINE
  5
4B
330
17
100
AcDbEntity
  8
water
100
AcDbPolyline
 90
18
 70
1
 10
108.14104879166104
 20
32.53335981250315
 10
107.96651386231548
 20
32.21089093750347
 10
108.18105208787024
 20
32.14340155000359
 10
108.89385054738169
 20
32.693889400001005
 10
109.08098925499586
 20
33.13124882500359
 10
109.88393212854992
 20
34.00966813750191
 10
109.99147523651001
 20
34.444736800002765
 10
110.1880667778208
 20
34.465882300011984
 10
110.21519230057866
 20
34.04949216250404
 10
109.20839701345948
 20
32.53265496250743
 10
107.88897322652203
 20
31.676262212503577
 10
106.08444097424251
 20
29.344618412500786
 10
105.96922600126372
 20
31.91591121251202
 10
107.31125439051236
 20
32.138643812510594
 10
107.01616158217375
 20
32.384107825011874
 10
106.74107042193974
 20
33.01318645000118
 10
107.90335797344912
 20
33.26904700001126
 10
108.14104879166104
 20
32.53335981250315
  0
LWPOLYLINE
  5
4C
330
17
100
AcDbEntity
  8
water
100
AcDbPolyline
 90
8
 70
1
 10
81.33938832201098
 20
31.5996097750093
 10
80.86688363493752
 20
32.22445930001179
 10
79.94530084864994
 20
32.28948171250788
 10
81.82874371261701
 20
33.00138021250093
 10
86.30075603506343
 20
33.00138021250093
 10
87.33015592449381
 20
32.241375700009144
 10
87.34700662802639
 20
31.78551396250319
 10
81.33938832201098
 20
31.5996097750093
  0
LWPOLYLINE
  5
4D
330
17
100
AcDbEntity
  8
water
100
AcDbPolyline
 90
16
 70
1
 10
145.57427021680724
 20
32.90234878750807
 10
145.61687646722305
 20
32.298997187506394
 10
145.4413825547477
 20
32.09089022500345
 10
145.12039720194423
 20
32.13934866250631
 10
144.90722895228362
 20
31.85987563750826
 10
144.17977175066238
 20
31.59502825000584
 10
143.893035795309
 20
31.036082200009744
 10
143.893035795309
 20
30.359426200002833
 10
143.37134897351245
 20
30.190262200004234
 10
143.18023733579759
 20
30.359426200002833
 10
143.09940875785043
 20
36.85356167500601
 10
143.54026700168043
 20
37.15523747500059
 10
145.2599977458927
 20
37.2139162375102
 10
146.81355041374462
 20
36.8910949375064
 10
146.58284647258483
 20
34.27962568750145
 10
145.57427021680724
 20
32.90234878750807
  0
LWPOLYLINE
  5
4E
330
17
100
AcDbEntity
  8
water
100
AcDbPolyline
 90
30
 70
1
 10
114.97078963380643
 20
31.404894962512607
 10
114.64446137500816
 20
31.294233512509038
 10
114.47540634925852
 20
31.481899825011002
 10
116.12910425519561
 20
33.47962093750547
 10
116.51776641735105
 20
34.22887648750938
 10
117.17316288673581
 20
36.29373456251214
 10
116.68997238767271
 20
35.99646407500644
 10
116.21746770059926
 20
35.92386452500944
 10
116.22568755598338
 20
34.99117176250291
 10
115.09011453448701
 20
33.66940180000711
 10
112.81321459273511
 20
32.485782437510586
 10
112.4744195532693
 20
33.10922226250912
 10
112.1982324123239
 20
33.004904462504555
 10
111.84203867894061
 20
32.53617921251105
 10
111.86149233669926
 20
32.91856033750971
 10
112.42729238238736
 20
33.458651650010836
 10
113.73055045373927
 20
34.022531650001994
 10
114.35484847026545
 20
35.2098514750042
 10
115.76578664717854
 20
36.345188612512445
 10
116.0800591180736
 20
36.92651365000713
 10
116.98588718154
 20
37.29497398750588
 10
117.5742918295393
 20
37.109774650007694
 10
117.60155434991773
 20
36.60933115000663
 10
117.30659853916075
 20
36.32034265001007
 10
117.42496445671156
 20
36.04738948750057
 10
117.17946477586038
 20
34.150461925007036
 10
116.15869573459793
 20
33.017415550000514
 10
116.00210748949635
 20
31.467274187502856
 10
115.59303268649144
 20
31.313616887510182
 10
114.97078963380643
 20
31.404894962512607
  0
LWPOLYLINE
  5
4F
330
17
100
AcDbEntity
  8
water
100
AcDbPolyline
 90
26
 70
1
 10
151.06362664076136
 20
31.776350912508796
 10
150.12176821118646
 20
32.25353436250098
 10
149.69173277694716
 20
33.035213012508166
 10
149.65077049760816
 20
35.44456652500507
 10
149.44856205511985
 20
35.66324623750636
 10
149.28210998357685
 20
35.614259162509846
 10
149.24114770423785
 20
32.90058666251252
 10
148.8112492675802
 20
32.558029562503464
 10
147.5708730899119
 20
32.473095137512566
 10
147.57676398627217
 20
33.3777701125047
 10
147.8225376623061
 20
34.572138437501636
 10
147.9189839654927
 20
34.80932046250629
 10
148.47190623774895
 20
35.21038011251038
 10
148.05488557452315
 20
35.82906220000339
 10
148.36354114426018
 20
37.08739566250911
 10
149.22361201273873
 20
37.190303762509714
 10
149.39198205056078
 20
36.095671712501364
 10
149.59542347134214
 20
36.210386050002214
 10
149.64118066632994
 20
37.18783678750593
 10
151.90314787078933
 20
37.19964302500617
 10
152.2775622835993
 20
37.06043515000706
 10
152.394558225256
 20
36.840874375008
 10
152.22783215853025
 20
33.77001913750599
 10
151.65162029599628
 20
33.09089616250781
 10
151.63107065754576
 20
31.83784907500127
 10
151.06362664076136
 20
31.776350912508796
  0
LWPOLYLINE
  5
50
330
17
100
AcDbEntity
  8
water
100
AcDbPolyline
 90
5
 70
1
 10
129.41060958935952
 20
32.83908850000753
 10
123.44491254581288
 20
37.136030312501504
 10
128.92906306135382
 20
37.19647120000666
 10
129.51691971900715
 20
36.843341350011784
 10
129.41060958935952
 20
32.83908850000753
  0
LWPOLYLINE
  5
51
330
17
100
AcDbEntity
  8
water
100
AcDbPolyline
 90
5
 70
1
 10
136.4711913702463
 20
37.11699936250448
 10
136.437215967979
 20
33.32719712500217
 10
131.66517892398292
 20
33.59909301251184
 10
133.82193197952557
 20
37.151008375001254
 10
136.4711913702463
 20
37.11699936250448
  0
LWPOLYLINE
  5
52
330
17
100
AcDbEntity
  8
water
100
AcDbPolyline
 90
5
 70
1
 10
130.46946396059116
 20
35.53513975001178
 10
130.5074122929397
 20
37.228013237512165
 10
133.52957912297518
 20
37.15188943751155
 10
133.13036814643124
 20
36.44809671250053
 10
130.46946396059116
 20
35.53513975001178
  0
LWPOLYLINE
  5
53
330
17
100
AcDbEntity
  8
water
100
AcDbPolyline
 90
14
 70
1
 10
130.37794957063494
 20
48.86755371250816
 10
121.63996930076901
 20
49.32165332500604
 10
121.69079540656894
 20
49.685003500007674
 10
123.32298469092571
 20
49.594782700005084
 10
124.10893986336556
 20
49.367644787505114
 10
124.06290867319501
 20
50.1376934125016
 10
124.17141076428487
 20
50.23972045000443
 10
124.31621721666598
 20
50.08518208750146
 10
124.21757895203704
 20
49.40394456250361
 10
130.16697328239712
 20
48.99248837500324
 10
130.1932768196263
 20
50.15742921250686
 10
130.3249315033928
 20
50.16412528750999
 10
130.4367215366363
 20
49.93363933750845
 10
130.37794957063494
 20
48.86755371250816
  0
LWPOLYLINE
  5
54
330
17
100
AcDbEntity
  8
water
100
AcDbPolyline
 90
5
 70
1
 10
96.40090333986421
 20
54.69895397500434
 10
96.40131433264801
 20
56.26054915001065
 10
99.61226384135504
 20
56.39958081250769
 10
99.5837683426836
 20
54.52450360000657
 10
96.40090333986421
 20
54.69895397500434
  0
LWPOLYLINE
  5
55
330
17
100
AcDbEntity
  8
water
100
AcDbPolyline
 90
14
 70
1
 10
81.61913740029274
 20
77.77873858750871
 10
81.71188476856142
 20
78.35512967500833
 10
82.5460630925946
 20
78.64869970000835
 10
82.69456847989368
 20
79.04200600000948
 10
83.12090497921497
 20
79.2816550000054
 10
83.4679198740649
 20
80.04994150000634
 10
83.70547369469519
 20
80.05540408750757
 10
83.77602745343647
 20
79.08958337500204
 10
83.45654907410875
 20
78.19495251250207
 10
83.50970413893255
 20
77.38701820000108
 10
83.35667783118681
 20
77.26278838750171
 10
82.76073831575044
 20
77.37098286250149
 10
82.00204566366955
 20
77.2229643624996
 10
81.61913740029274
 20
77.77873858750871
  0
LWPOLYLINE
  5
56
330
17
100
AcDbEntity
  8
water
100
AcDbPolyline
 90
8
 70
1
 10
87.22932569842264
 20
88.01104603749931
 10
88.10953521260689
 20
88.74497109999935
 10
88.9971425966466
 20
88.4459384874981
 10
89.40662839243532
 20
88.51219438750861
 10
89.16756759830982
 20
87.40980898750982
 10
88.14488059076835
 20
87.37950043750621
 10
87.53743327779421
 20
87.66866515000483
 10
87.22932569842264
 20
88.01104603749931
  0
LWPOLYLINE
  5
57
330
17
100
AcDbEntity
  8
water
100
AcDbPolyline
 90
14
 70
1
 10
82.6870336124566
 20
144.89719877500275
 10
82.0184853744378
 20
145.0298867875008
 10
81.5122792802797
 20
145.74724787500762
 10
80.88729627582593
 20
145.72874556250423
 10
80.61754802158674
 20
145.35129838750063
 10
80.3339630107859
 20
145.33491062499692
 10
80.00900472788175
 20
145.7710365624976
 10
80.57672273984885
 20
146.56258311250744
 10
82.83485401180863
 20
145.5298016500082
 10
83.99275764043348
 20
145.2681260875053
 10
83.99700456569744
 20
144.787594599999
 10
83.73342120302067
 20
144.41842941250457
 10
83.19926760055657
 20
144.39781255000153
 10
82.6870336124566
 20
144.89719877500275
  0
LWPOLYLINE
  5
58
330
17
100
AcDbEntity
  8
water
100
AcDbPolyline
 90
15
 70
1
 10
112.86047876119868
 20
144.65349688749703
 10
112.67402504153155
 20
144.5599280500054
 10
112.14261139087512
 20
144.7868897500033
 10
111.37679486414098
 20
144.79992947500543
 10
110.7567437728982
 20
144.68539135000665
 10
110.41657875751882
 20
144.98213320000616
 10
110.57933189416335
 20
146.17614909999898
 10
110.87689065910746
 20
146.35711933749783
 10
111.19965698056937
 20
146.89721064999895
 10
111.90012565699489
 20
146.75394988750256
 10
112.6177190321552
 20
146.07535554999805
 10
112.795678901236
 20
145.60328226250297
 10
112.50907994346423
 20
145.42865567500314
 10
112.73594795210491
 20
145.2792274749973
 10
112.86047876119868
 20
144.65349688749703
  0
LWPOLYLINE
  5
59
330
17
100
AcDbEntity
  8
water
100
AcDbPolyline
 90
13
 70
1
 10
235.87623150497905
 20
27.664608437500473
 10
235.32906313148197
 20
27.26354878750891
 10
234.77435989054783
 20
25.66741596251218
 10
234.40446639822346
 20
25.366621225002856
 10
233.76496164922207
 20
25.72133698750375
 10
232.98667834182038
 20
26.893502537504155
 10
233.1176480376203
 20
27.926812637509567
 10
233.71345055547505
 20
28.93421950001277
 10
236.10734643888367
 20
30.039600512509008
 10
236.5465607116563
 20
29.623210375001058
 10
237.00111871446632
 20
28.451221037502716
 10
236.6620496798178
 20
27.88046875000638
 10
235.87623150497905
 20
27.664608437500473
  0
LWPOLYLINE
  5
5A
330
17
100
AcDbEntity
  8
water
100
AcDbPolyline
 90
22
 70
1
 10
150.49344267220823
 20
38.39647832500689
 10
149.40403783846398
 20
38.579386900003335
 10
148.9490688428702
 20
38.80352920000586
 10
149.08003853867018
 20
39.17604242500189
 10
150.24520303956882
 20
39.189963212501794
 10
151.71368020417077
 20
39.624503237508996
 10
153.78891969379976
 20
40.907858875006625
 10
154.00263593382584
 20
40.81129442500502
 10
154.7679044701946
 20
40.9526168500038
 10
155.63304424952418
 20
41.74944977500027
 10
155.8503224268672
 20
41.62874421250453
 10
155.97786718293185
 20
40.762835987502164
 10
157.03631056139915
 20
40.80072167500668
 10
157.2686584736162
 20
40.425036625011145
 10
157.15782742350245
 20
39.40899535000721
 10
156.68943266413083
 20
38.90449896250886
 10
156.110343852227
 20
38.671898462507656
 10
155.74209433096001
 20
38.6505767500089
 10
155.68482933843444
 20
38.79366130000323
 10
154.25827343630124
 20
38.6505767500089
 10
152.60306855686895
 20
38.834542600005186
 10
150.49344267220823
 20
38.39647832500689
  0
LWPOLYLINE
  5
5B
330
17
100
AcDbEntity
  8
water
100
AcDbPolyline
 90
37
 70
1
 10
165.02381803456825
 20
38.60088482500415
 10
164.3762304277838
 20
38.12123440000818
 10
163.49725389191207
 20
38.78185506250299
 10
162.93652275703607
 20
38.38731527499998
 10
161.8335551619129
 20
38.452690112500186
 10
161.5542170763955
 20
38.17321708750214
 10
160.7525071811345
 20
38.514364487507244
 10
159.4102047967031
 20
38.51084023750362
 10
159.21429824333939
 20
38.75048923751206
 10
159.22155911559372
 20
39.21146113750261
 10
160.06327230706398
 20
39.817808350001734
 10
159.56624505143924
 20
40.108206550002244
 10
159.047435179032
 20
39.930231925000854
 10
158.4308090275245
 20
38.44176493751024
 10
158.10420677354352
 20
38.39471620001134
 10
157.77404258222617
 20
38.7758638375081
 10
157.7015708572448
 20
39.75243351250152
 10
157.83212956028046
 20
40.61640340000628
 10
158.28559158237908
 20
41.306099125002795
 10
158.26024702827965
 20
41.567598475003656
 10
156.75834245177577
 20
41.7526216000123
 10
157.09576751534752
 20
41.847071500001704
 10
157.07398489858446
 20
42.04319601250235
 10
157.37140666594695
 20
42.27174362500627
 10
157.61444039017312
 20
42.0250461250031
 10
158.18407636838032
 20
41.828921612502455
 10
161.46352467196795
 20
41.465923862504944
 10
162.09850850050327
 20
41.66187216250353
 10
163.06406751310072
 20
41.62680587500692
 10
166.36954535875435
 20
41.046009475005896
 10
167.26961952346159
 20
40.709267387502194
 10
167.3452421929955
 20
40.16230378750839
 10
167.86679201721046
 20
39.707675537504336
 10
167.73637031175645
 20
38.445289187501345
 10
167.25276881990953
 20
38.222204162511176
 10
166.86164070114864
 20
38.58837373750819
 10
165.02381803456825
 20
38.60088482500415
  0
LWPOLYLINE
  5
5C
330
17
100
AcDbEntity
  8
water
100
AcDbPolyline
 90
10
 70
1
 10
154.24594365323475
 20
50.59778425000689
 10
152.09193054948037
 20
50.61752004999963
 10
152.05590018337182
 20
51.7116234625018
 10
152.77226058021967
 20
54.00855339999958
 10
153.90920357761013
 20
54.62071562500405
 10
154.3337591082535
 20
54.505648862511606
 10
154.292796828934
 20
53.94952221251089
 10
153.80152347204893
 20
52.64977881250957
 10
153.85645950555067
 20
51.47444143750966
 10
154.24594365323475
 20
50.59778425000689
  0
LWPOLYLINE
  5
5D
330
17
100
AcDbEntity
  8
water
100
AcDbPolyline
 90
17
 70
1
 10
231.85548924320847
 20
57.05685343750094
 10
231.7650708339637
 20
56.91376888750661
 10
225.7171752365564
 20
56.90619175000571
 10
222.44087787752125
 20
57.05685343750094
 10
221.88357168239997
 20
57.26037887500043
 10
221.75547893596985
 20
57.554301325004566
 10
221.83082761034052
 20
61.29194466251085
 10
223.2240930981729
 20
61.706396462508664
 10
225.80745664820006
 20
61.53317957500027
 10
226.2066676247635
 20
61.744105937511115
 10
226.48532072233388
 20
61.555734775000914
 10
230.7708793250937
 20
61.42762828750634
 10
231.7650708339637
 20
61.2091247875071
 10
232.02111932922287
 20
60.48559626250334
 10
231.95330552228927
 20
57.584433662506115
 10
231.6972570270301
 20
57.222669400010496
 10
231.85548924320847
 20
57.05685343750094
  0
LWPOLYLINE
  5
5E
330
17
100
AcDbEntity
  8
water
100
AcDbPolyline
 90
8
 70
1
 10
189.38418145476453
 20
89.2646217624995
 10
188.52931649467968
 20
89.46990932500707
 10
188.50465692852737
 20
92.51080843750958
 10
188.619049915958
 20
92.70834265000165
 10
190.06492247826822
 20
92.12877973750253
 10
190.0623195240616
 20
89.57140772500372
 10
189.95587239681288
 20
89.38938021250505
 10
189.38418145476453
 20
89.2646217624995
  0
LWPOLYLINE
  5
5F
330
17
100
AcDbEntity
  8
water
100
AcDbPolyline
 90
59
 70
1
 10
167.67581737707718
 20
160.74222677500077
 10
167.23482213564608
 20
159.61076631250026
 10
166.60285225410126
 20
158.62626707500183
 10
166.38242313218626
 20
158.40582523750498
 10
165.9634845027204
 20
158.32494369999884
 10
165.5078305191795
 20
158.7217742500036
 10
164.66995326022834
 20
159.1184285875063
 10
163.73672567880192
 20
158.78785393749953
 10
162.50936427216664
 20
159.3903244750034
 10
161.68628275292633
 20
159.1184285875063
 10
160.98074516566925
 20
159.44917945000256
 10
160.31192293246772
 20
159.3242447875075
 10
159.6137832150855
 20
160.13235531249802
 10
159.5624091189202
 20
160.52178493750392
 10
159.46678480126218
 20
160.13975623749687
 10
160.1209482923539
 20
159.0523488999978
 10
160.63537424189616
 20
158.8761364000045
 10
161.899451002587
 20
157.81798033749672
 10
161.7817700729832
 20
157.17145667500387
 10
161.9582229685883
 20
156.87753422499972
 10
161.3848880554437
 20
156.1060758999993
 10
159.42280857495228
 20
155.37144598750353
 10
158.95235885173946
 20
154.84968077500372
 10
158.52615934999977
 20
154.84968077500372
 10
158.23216252237256
 20
155.22448476250148
 10
157.66636247668447
 20
155.38607162499915
 10
156.74025876993073
 20
155.04069512500723
 10
156.25528730218974
 20
155.15822886250348
 10
155.71880474070173
 20
156.2310105625069
 10
155.69674812875598
 20
157.51683317499578
 10
156.02746031041926
 20
157.77392721250777
 10
156.7917698636777
 20
157.70784752499932
 10
157.37962652133103
 20
158.01639561249908
 10
156.233230690244
 20
158.25886401250293
 10
155.9099163784166
 20
158.7217742500036
 10
156.04211905252907
 20
159.13323043750395
 10
155.82168993061407
 20
159.33164571250634
 10
155.66729364695476
 20
160.007596862505
 10
155.652634904845
 20
161.10962983749968
 10
155.8070311885043
 20
161.27861762499623
 10
155.82168993061407
 20
161.6900738124966
 10
156.35817249210209
 20
162.32179562500426
 10
157.44579635716838
 20
161.9912209749975
 10
158.24682126448238
 20
161.02874830000607
 10
158.4012175481417
 20
161.16830859999678
 10
158.3938196782862
 20
161.9251412875016
 10
158.7539863417702
 20
162.52761182500547
 10
159.07003978132371
 20
162.68179776250432
 10
160.2017768703205
 20
162.6305199250061
 10
160.17232238851926
 20
163.49730921250622
 10
160.9219731996679
 20
164.00427257499584
 10
160.7823726557
 20
164.4157287624962
 10
161.0836303555816
 20
164.5921174750041
 10
166.07363056486759
 20
164.7537043375018
 10
166.57339777230004
 20
164.57731562500643
 10
166.9849385319299
 20
164.15863472499674
 10
167.51416022116354
 20
162.81413334999826
 10
167.77870256698952
 20
161.70469945000474
 10
167.67581737707718
 20
160.74222677500077
  0
LWPOLYLINE
  5
60
330
17
100
AcDbEntity
  8
water
100
AcDbPolyline
 90
21
 70
1
 10
237.70460133786275
 20
168.41751463749668
 10
236.84480446454745
 20
166.54049908749795
 10
237.11674468020942
 20
165.17397115000497
 10
237.8515997516667
 20
164.68180963750052
 10
237.3225150600341
 20
164.1454187875051
 10
237.05797271420812
 20
163.6090279374971
 10
236.91097430040423
 20
162.59510121250537
 10
236.56560337663115
 20
162.0220581625073
 10
236.23119226003035
 20
161.80901724999677
 10
234.41597419576124
 20
162.83404536250558
 10
235.32358322788605
 20
164.1233922249981
 10
235.60278431582185
 20
165.10789146249653
 10
235.36399751687907
 20
166.56252565000494
 10
236.58026211872146
 20
167.89592563749892
 10
236.97344520132356
 20
167.94737968749922
 10
236.67574943879782
 20
168.32570792500061
 10
236.64273301966028
 20
168.65998303750052
 10
236.87782088368505
 20
169.26615403749759
 10
237.26744202895077
 20
168.75919067499544
 10
237.28210077106058
 20
168.27795433750597
 10
237.70460133786275
 20
168.41751463749668
  0
LWPOLYLINE
  5
61
330
17
100
AcDbEntity
  8
water
100
AcDbPolyline
 90
18
 70
1
 10
182.57978516671858
 20
170.85153790000643
 10
182.85172538238055
 20
170.91761758750235
 10
183.11626772820654
 20
170.72660323749884
 10
183.5352063576919
 20
169.94051927500277
 10
183.57192171174745
 20
169.65399774999747
 10
183.36615133192277
 20
169.2425415624971
 10
183.7704312192983
 20
168.39777883750395
 10
183.4469799098893
 20
167.31777242500374
 10
182.82966877043475
 20
166.13485791250292
 10
182.19769888888987
 20
165.22383928749926
 10
181.9552131550097
 20
165.18718708749665
 10
181.85958883737118
 20
165.43705641249932
 10
183.0281782779856
 20
167.5161877000061
 10
183.29272062381165
 20
167.61891958750465
 10
183.42492329792412
 20
168.16993607499575
 10
183.0942111162608
 20
169.16183623750553
 10
182.85172538238055
 20
169.44835776249832
 10
182.57978516671858
 20
170.85153790000643
  0
LWPOLYLINE
  5
62
330
17
100
AcDbEntity
  8
water
100
AcDbPolyline
 90
12
 70
1
 10
251.05433147170515
 20
174.82001961250583
 10
251.89207173307472
 20
175.06618847500283
 10
250.52154784515466
 20
173.20379856249974
 10
249.823408127753
 20
174.1442446749967
 10
248.7430451349216
 20
174.7722660249987
 10
248.33150437529173
 20
174.82001961250583
 10
247.85379377980507
 20
174.54459947500507
 10
248.0486043524574
 20
175.23147580000622
 10
247.453212827367
 20
176.00645837499775
 10
247.721454108111
 20
176.09826508750635
 10
249.5881832661271
 20
175.15799518749893
 10
251.05433147170515
 20
174.82001961250583
  0
LWPOLYLINE
  5
63
330
17
100
AcDbEntity
  8
water
100
AcDbPolyline
 90
10
 70
1
 10
206.68793602417475
 20
209.65652601249832
 10
206.83479744037754
 20
211.14886967499666
 10
207.14646695708547
 20
211.2840246624985
 10
208.14011047559006
 20
211.05494841250092
 10
209.13950789285383
 20
210.37934968749383
 10
209.4629592022822
 20
209.94445723749504
 10
209.27472451395664
 20
209.59203223749589
 10
208.54576033885968
 20
209.3569647625034
 10
206.81137085253766
 20
209.40401350000232
 10
206.68793602417475
 20
209.65652601249832
  0
LWPOLYLINE
  5
64
330
17
100
AcDbEntity
  8
water
100
AcDbPolyline
 90
8
 70
1
 10
172.33414642158965
 20
218.9561406999949
 10
173.20134116474094
 20
218.9194885000048
 10
174.3184195116279
 20
217.08353046249758
 10
174.20087557960574
 20
216.90731796250424
 10
172.08426281787342
 20
216.77515858749987
 10
171.9374014016512
 20
216.89251611249404
 10
172.08426281787342
 20
218.2511144874945
 10
172.33414642158965
 20
218.9561406999949
  0
LWPOLYLINE
  5
65
330
17
100
AcDbEntity
  8
water
100
AcDbPolyline
 90
26
 70
1
 10
248.7540049421134
 20
223.8726456625047
 10
248.4857636613694
 20
224.4747637750045
 10
248.27273240929037
 20
224.54278179999804
 10
247.93462235777162
 20
225.13943732499658
 10
246.81028313863033
 20
226.30332088750038
 10
246.4206619933646
 20
226.27759386250023
 10
245.91733284859578
 20
225.49926324999458
 10
245.53510957318548
 20
225.52499027499476
 10
245.56826298990472
 20
225.08798327499628
 10
244.95451378778648
 20
224.6546767375035
 10
244.45488357795517
 20
224.8090388875044
 10
244.52461535112883
 20
225.7195288750019
 10
245.19713651924837
 20
225.76728246249652
 10
244.83696985578382
 20
225.98014716250498
 10
244.8553275328116
 20
226.43918072499793
 10
245.57922279707702
 20
227.78667771249386
 10
245.52414976599368
 20
228.194257224999
 10
247.96037790463538
 20
228.20888286249465
 10
248.0007921936284
 20
227.5664120874991
 10
249.09951286346814
 20
225.23124403749267
 10
249.93177322124177
 20
224.35176744999453
 10
249.81601025789757
 20
224.03247039999434
 10
249.16006579814734
 20
224.61802453750087
 10
248.8900435487255
 20
224.4400499124995
 10
248.9396366762324
 20
223.7845394125018
 10
248.7540049421134
 20
223.8726456625047
  0
LWPOLYLINE
  5
66
330
17
100
AcDbEntity
  8
water
100
AcDbPolyline
 90
11
 70
1
 10
237.3499145779747
 20
249.20336874999526
 10
237.66144709708158
 20
249.93747002499737
 10
237.87310837326646
 20
250.19015874999545
 10
238.12011502759339
 20
250.1783525124952
 10
239.27829265140093
 20
249.044777499995
 10
239.43118196156507
 20
248.66292501250254
 10
238.61399133866553
 20
248.1871512625018
 10
238.13189682031384
 20
248.30468499999802
 10
237.6791197861623
 20
247.5351650124952
 10
237.4615676136366
 20
247.45886499999253
 10
237.3499145779747
 20
249.20336874999526
  0
ENDSEC
  0
SECTION
  2
OBJECTS
  0
DICTIONARY
  5
A
330
0
100
AcDbDictionary
281
1
  3
ACAD_COLOR
350
B
  3
ACAD_GROUP
350
C
  3
ACAD_LAYOUT
350
D
  3
ACAD_MATERIAL
350
E
  3
ACAD_MLEADERSTYLE
350
F
  3
ACAD_MLINESTYLE
350
10
  3
ACAD_PLOTSETTINGS
350
11
  3
ACAD_PLOTSTYLENAME
350
12
  3
ACAD_SCALELIST
350
14
  3
ACAD_TABLESTYLE
350
15
  3
ACAD_VISUALSTYLE
350
16
  3
EZDXF_META
350
2D
  0
DICTIONARY
  5
B
330
A
100
AcDbDictionary
281
1
  0
DICTIONARY
  5
C
330
A
100
AcDbDictionary
281
1
  0
DICTIONARY
  5
D
330
A
100
AcDbDictionary
281
1
  3
Model
350
1A
  3
Layout1
350
1E
  0
DICTIONARY
  5
E
330
A
100
AcDbDictionary
281
1
  3
ByBlock
350
1F
  3
ByLayer
350
20
  3
Global
350
21
  0
DICTIONARY
  5
F
330
A
100
AcDbDictionary
281
1
  3
Standard
350
2C
  0
DICTIONARY
  5
10
330
A
100
AcDbDictionary
281
1
  3
Standard
350
22
  0
DICTIONARY
  5
11
330
A
100
AcDbDictionary
281
1
  0
ACDBDICTIONARYWDFLT
  5
12
330
A
100
AcDbDictionary
281
1
  3
Normal
350
13
100
AcDbDictionaryWithDefault
340
13
  0
ACDBPLACEHOLDER
  5
13
330
12
  0
DICTIONARY
  5
14
330
A
100
AcDbDictionary
281
1
  0
DICTIONARY
  5
15
330
A
100
AcDbDictionary
281
1
  0
DICTIONARY
  5
16
330
A
100
AcDbDictionary
281
1
  0
LAYOUT
  5
1A
330
D
100
AcDbPlotSettings
  1

  4
A3
  6

 40
7.5
 41
20.0
 42
7.5
 43
20.0
 44
420.0
 45
297.0
 46
0.0
 47
0.0
 48
0.0
 49
0.0
140
0.0
141
0.0
142
1.0
143
1.0
 70
1024
 72
1
 73
0
 74
5
  7

 75
16
 76
0
 77
2
 78
300
147
1.0
148
0.0
149
0.0
100
AcDbLayout
  1
Model
 70
1
 71
0
 10
0.0
 20
0.0
 11
420.0
 21
297.0
 12
0.0
 22
0.0
 32
0.0
 14
1e+20
 24
1e+20
 34
1e+20
 15
-1e+20
 25
-1e+20
 35
-1e+20
146
0.0
 13
0.0
 23
0.0
 33
0.0
 16
1.0
 26
0.0
 36
0.0
 17
0.0
 27
1.0
 37
0.0
 76
1
330
17
  0
LAYOUT
  5
1E
330
D
100
AcDbPlotSettings
  1

  4
A3
  6

 40
7.5
 41
20.0
 42
7.5
 43
20.0
 44
420.0
 45
297.0
 46
0.0
 47
0.0
 48
0.0
 49
0.0
140
0.0
141
0.0
142
1.0
143
1.0
 70
0
 72
1
 73
0
 74
5
  7

 75
16
 76
0
 77
2
 78
300
147
1.0
148
0.0
149
0.0
100
AcDbLayout
  1
Layout1
 70
1
 71
1
 10
0.0
 20
0.0
 11
420.0
 21
297.0
 12
0.0
 22
0.0
 32
0.0
 14
1e+20
 24
1e+20
 34
1e+20
 15
-1e+20
 25
-1e+20
 35
-1e+20
146
0.0
 13
0.0
 23
0.0
 33
0.0
 16
1.0
 26
0.0
 36
0.0
 17
0.0
 27
1.0
 37
0.0
 76
1
330
1B
  0
MATERIAL
  5
1F
102
{ACAD_REACTORS
330
E
102
}
330
E
100
AcDbMaterial
  1
ByBlock
  2

 70
0
 40
1.0
 71
1
 41
1.0
 91
-1023410177
 42
1.0
 72
1
  3

 73
1
 74
1
 75
1
 44
0.5
 73
0
 45
1.0
 46
1.0
 77
1
  4

 78
1
 79
1
170
1
 48
1.0
171
1
  6

172
1
173
1
174
1
140
1.0
141
1.0
175
1
  7

176
1
177
1
178
1
143
1.0
179
1
  8

270
1
271
1
272
1
145
1.0
146
1.0
273
1
  9

274
1
275
1
276
1
 42
1.0
 72
1
  3

 73
1
 74
1
 75
1
 94
63
  0
MATERIAL
  5
20
102
{ACAD_REACTORS
330
E
102
}
330
E
100
AcDbMaterial
  1
ByLayer
  2

 70
0
 40
1.0
 71
1
 41
1.0
 91
-1023410177
 42
1.0
 72
1
  3

 73
1
 74
1
 75
1
 44
0.5
 73
0
 45
1.0
 46
1.0
 77
1
  4

 78
1
 79
1
170
1
 48
1.0
171
1
  6

172
1
173
1
174
1
140
1.0
141
1.0
175
1
  7

176
1
177
1
178
1
143
1.0
179
1
  8

270
1
271
1
272
1
145
1.0
146
1.0
273
1
  9

274
1
275
1
276
1
 42
1.0
 72
1
  3

 73
1
 74
1
 75
1
 94
63
  0
MATERIAL
  5
21
102
{ACAD_REACTORS
330
E
102
}
330
E
100
AcDbMaterial
  1
Global
  2

 70
0
 40
1.0
 71
1
 41
1.0
 91
-1023410177
 42
1.0
 72
1
  3

 73
1
 74
1
 75
1
 44
0.5
 73
0
 45
1.0
 46
1.0
 77
1
  4

 78
1
 79
1
170
1
 48
1.0
171
1
  6

172
1
173
1
174
1
140
1.0
141
1.0
175
1
  7

176
1
177
1
178
1
143
1.0
179
1
  8

270
1
271
1
272
1
145
1.0
146
1.0
273
1
  9

274
1
275
1
276
1
 42
1.0
 72
1
  3

 73
1
 74
1
 75
1
 94
63
  0
MLINESTYLE
  5
22
102
{ACAD_REACTORS
330
10
102
}
330
10
100
AcDbMlineStyle
  2
Standard
 70
0
  3

 62
256
 51
90.0
 52
90.0
 71
2
 49
0.5
 62
256
  6
BYLAYER
 49
-0.5
 62
256
  6
BYLAYER
  0
MLEADERSTYLE
  5
2C
102
{ACAD_REACTORS
330
F
102
}
330
F
100
AcDbMLeaderStyle
179
2
170
2
171
1
172
0
 90
2
 40
0.0
 41
0.0
173
1
 91
-1056964608
 92
-2
290
1
 42
2.0
291
1
 43
8.0
  3
Standard
 44
4.0
300

342
29
174
1
175
1
176
0
178
1
 93
-1056964608
 45
4.0
292
0
297
0
 46
4.0
 94
-1056964608
 47
1.0
 49
1.0
140
1.0
294
1
141
0.0
177
0
142
1.0
295
0
296
0
143
3.75
271
0
272
9
273
9
  0
DICTIONARY
  5
2D
330
A
100
AcDbDictionary
280
1
281
1
  3
CREATED_BY_EZDXF
350
2E
  3
WRITTEN_BY_EZDXF
350
69
  0
DICTIONARYVAR
  5
2E
330
2D
100
DictionaryVariables
280
0
  1
1.4.3 @ 2026-04-03T02:25:53.255374+00:00
  0
DICTIONARYVAR
  5
69
330
2D
100
DictionaryVariables
280
0
  1
1.4.3 @ 2026-04-03T02:25:53.272247+00:00
  0
ENDSEC
  0
EOF
