  0
SECTION
  2
HEADER
  9
$ACADVER
  1
AC1024
  9
$ACADMAINTVER
 70
6
  9
$DWGCODEPAGE
  3
ANSI_1252
  9
$LASTSAVEDBY
  1
ezdxf
  9
$INSBASE
 10
0.0
 20
0.0
 30
0.0
  9
$EXTMIN
 10
1e+20
 20
1e+20
 30
1e+20
  9
$EXTMAX
 10
-1e+20
 20
-1e+20
 30
-1e+20
  9
$LIMMIN
 10
0.0
 20
0.0
  9
$LIMMAX
 10
420.0
 20
297.0
  9
$ORTHOMODE
 70
0
  9
$REGENMODE
 70
1
  9
$FILLMODE
 70
1
  9
$QTEXTMODE
 70
0
  9
$MIRRTEXT
 70
1
  9
$LTSCALE
 40
1.0
  9
$ATTMODE
 70
1
  9
$TEXTSIZE
 40
2.5
  9
$TRACEWID
 40
1.0
  9
$TEXTSTYLE
  7
Standard
  9
$CLAYER
  8
0
  9
$CELTYPE
  6
ByLayer
  9
$CECOLOR
 62
256
  9
$CELTSCALE
 40
1.0
  9
$DISPSILH
 70
0
  9
$DIMSCALE
 40
1.0
  9
$DIMASZ
 40
2.5
  9
$DIMEXO
 40
0.625
  9
$DIMDLI
 40
3.75
  9
$DIMRND
 40
0.0
  9
$DIMDLE
 40
0.0
  9
$DIMEXE
 40
1.25
  9
$DIMTP
 40
0.0
  9
$DIMTM
 40
0.0
  9
$DIMTXT
 40
2.5
  9
$DIMCEN
 40
2.5
  9
$DIMTSZ
 40
0.0
  9
$DIMTOL
 70
0
  9
$DIMLIM
 70
0
  9
$DIMTIH
 70
0
  9
$DIMTOH
 70
0
  9
$DIMSE1
 70
0
  9
$DIMSE2
 70
0
  9
$DIMTAD
 70
1
  9
$DIMZIN
 70
8
  9
$DIMBLK
  1

  9
$DIMASO
 70
1
  9
$DIMSHO
 70
1
  9
$DIMPOST
  1

  9
$DIMAPOST
  1

  9
$DIMALT
 70
0
  9
$DIMALTD
 70
3
  9
$DIMALTF
 40
0.03937007874
  9
$DIMLFAC
 40
1.0
  9
$DIMTOFL
 70
1
  9
$DIMTVP
 40
0.0
  9
$DIMTIX
 70
0
  9
$DIMSOXD
 70
0
  9
$DIMSAH
 70
0
  9
$DIMBLK1
  1

  9
$DIMBLK2
  1

  9
$DIMSTYLE
  2
ISO-25
  9
$DIMCLRD
 70
0
  9
$DIMCLRE
 70
0
  9
$DIMCLRT
 70
0
  9
$DIMTFAC
 40
1.0
  9
$DIMGAP
 40
0.625
  9
$DIMJUST
 70
0
  9
$DIMSD1
 70
0
  9
$DIMSD2
 70
0
  9
$DIMTOLJ
 70
0
  9
$DIMTZIN
 70
8
  9
$DIMALTZ
 70
0
  9
$DIMALTTZ
 70
0
  9
$DIMUPT
 70
0
  9
$DIMDEC
 70
2
  9
$DIMTDEC
 70
2
  9
$DIMALTU
 70
2
  9
$DIMALTTD
 70
3
  9
$DIMTXSTY
  7
Standard
  9
$DIMAUNIT
 70
0
  9
$DIMADEC
 70
0
  9
$DIMALTRND
 40
0.0
  9
$DIMAZIN
 70
0
  9
$DIMDSEP
 70
44
  9
$DIMATFIT
 70
3
  9
$DIMFRAC
 70
0
  9
$DIMLDRBLK
  1

  9
$DIMLUNIT
 70
2
  9
$DIMLWD
 70
-2
  9
$DIMLWE
 70
-2
  9
$DIMTMOVE
 70
0
  9
$DIMFXL
 40
1.0
  9
$DIMFXLON
 70
0
  9
$DIMJOGANG
 40
0.785398163397
  9
$DIMTFILL
 70
0
  9
$DIMTFILLCLR
 70
0
  9
$DIMARCSYM
 70
0
  9
$DIMLTYPE
  6

  9
$DIMLTEX1
  6

  9
$DIMLTEX2
  6

  9
$DIMTXTDIRECTION
 70
0
  9
$LUNITS
 70
2
  9
$LUPREC
 70
4
  9
$SKETCHINC
 40
1.0
  9
$FILLETRAD
 40
10.0
  9
$AUNITS
 70
0
  9
$AUPREC
 70
2
  9
$MENU
  1
.
  9
$ELEVATION
 40
0.0
  9
$PELEVATION
 40
0.0
  9
$THICKNESS
 40
0.0
  9
$LIMCHECK
 70
0
  9
$CHAMFERA
 40
0.0
  9
$CHAMFERB
 40
0.0
  9
$CHAMFERC
 40
0.0
  9
$CHAMFERD
 40
0.0
  9
$SKPOLY
 70
0
  9
$TDCREATE
 40
2461137.4355439814
  9
$TDUCREATE
 40
2458532.153996898
  9
$TDUPDATE
 40
2461137.4355439814
  9
$TDUUPDATE
 40
2458532.1544311
  9
$TDINDWG
 40
0.0
  9
$TDUSRTIMER
 40
0.0
  9
$USRTIMER
 70
1
  9
$ANGBASE
 50
0.0
  9
$ANGDIR
 70
0
  9
$PDMODE
 70
0
  9
$PDSIZE
 40
0.0
  9
$PLINEWID
 40
0.0
  9
$SPLFRAME
 70
0
  9
$SPLINETYPE
 70
6
  9
$SPLINESEGS
 70
8
  9
$HANDSEED
  5
65
  9
$SURFTAB1
 70
6
  9
$SURFTAB2
 70
6
  9
$SURFTYPE
 70
6
  9
$SURFU
 70
6
  9
$SURFV
 70
6
  9
$UCSBASE
  2

  9
$UCSNAME
  2

  9
$UCSORG
 10
0.0
 20
0.0
 30
0.0
  9
$UCSXDIR
 10
1.0
 20
0.0
 30
0.0
  9
$UCSYDIR
 10
0.0
 20
1.0
 30
0.0
  9
$UCSORTHOREF
  2

  9
$UCSORTHOVIEW
 70
0
  9
$UCSORGTOP
 10
0.0
 20
0.0
 30
0.0
  9
$UCSORGBOTTOM
 10
0.0
 20
0.0
 30
0.0
  9
$UCSORGLEFT
 10
0.0
 20
0.0
 30
0.0
  9
$UCSORGRIGHT
 10
0.0
 20
0.0
 30
0.0
  9
$UCSORGFRONT
 10
0.0
 20
0.0
 30
0.0
  9
$UCSORGBACK
 10
0.0
 20
0.0
 30
0.0
  9
$PUCSBASE
  2

  9
$PUCSNAME
  2

  9
$PUCSORG
 10
0.0
 20
0.0
 30
0.0
  9
$PUCSXDIR
 10
1.0
 20
0.0
 30
0.0
  9
$PUCSYDIR
 10
0.0
 20
1.0
 30
0.0
  9
$PUCSORTHOREF
  2

  9
$PUCSORTHOVIEW
 70
0
  9
$PUCSORGTOP
 10
0.0
 20
0.0
 30
0.0
  9
$PUCSORGBOTTOM
 10
0.0
 20
0.0
 30
0.0
  9
$PUCSORGLEFT
 10
0.0
 20
0.0
 30
0.0
  9
$PUCSORGRIGHT
 10
0.0
 20
0.0
 30
0.0
  9
$PUCSORGFRONT
 10
0.0
 20
0.0
 30
0.0
  9
$PUCSORGBACK
 10
0.0
 20
0.0
 30
0.0
  9
$USERI1
 70
0
  9
$USERI2
 70
0
  9
$USERI3
 70
0
  9
$USERI4
 70
0
  9
$USERI5
 70
0
  9
$USERR1
 40
0.0
  9
$USERR2
 40
0.0
  9
$USERR3
 40
0.0
  9
$USERR4
 40
0.0
  9
$USERR5
 40
0.0
  9
$WORLDVIEW
 70
1
  9
$SHADEDGE
 70
3
  9
$SHADEDIF
 70
70
  9
$TILEMODE
 70
1
  9
$MAXACTVP
 70
64
  9
$PINSBASE
 10
0.0
 20
0.0
 30
0.0
  9
$PLIMCHECK
 70
0
  9
$PEXTMIN
 10
1e+20
 20
1e+20
 30
1e+20
  9
$PEXTMAX
 10
-1e+20
 20
-1e+20
 30
-1e+20
  9
$PLIMMIN
 10
0.0
 20
0.0
  9
$PLIMMAX
 10
420.0
 20
297.0
  9
$UNITMODE
 70
0
  9
$VISRETAIN
 70
1
  9
$PLINEGEN
 70
0
  9
$PSLTSCALE
 70
1
  9
$TREEDEPTH
 70
3020
  9
$CMLSTYLE
  2
Standard
  9
$CMLJUST
 70
0
  9
$CMLSCALE
 40
20.0
  9
$PROXYGRAPHICS
 70
1
  9
$MEASUREMENT
 70
1
  9
$CELWEIGHT
370
-1
  9
$ENDCAPS
280
0
  9
$JOINSTYLE
280
0
  9
$LWDISPLAY
290
0
  9
$INSUNITS
 70
6
  9
$HYPERLINKBASE
  1

  9
$STYLESHEET
  1

  9
$XEDIT
290
1
  9
$CEPSNTYPE
380
0
  9
$PSTYLEMODE
290
1
  9
$FINGERPRINTGUID
  2
{5906EADF-E7AF-4FA1-8A9D-0B04D2558B11}
  9
$VERSIONGUID
  2
{F4778587-F747-4F1D-91BE-710DD27E2FC6}
  9
$EXTNAMES
290
1
  9
$PSVPSCALE
 40
0.0
  9
$OLESTARTUP
290
0
  9
$SORTENTS
280
127
  9
$INDEXCTL
280
0
  9
$HIDETEXT
280
1
  9
$XCLIPFRAME
280
1
  9
$HALOGAP
280
0
  9
$OBSCOLOR
 70
257
  9
$OBSLTYPE
280
0
  9
$INTERSECTIONDISPLAY
280
0
  9
$INTERSECTIONCOLOR
 70
257
  9
$DIMASSOC
280
2
  9
$PROJECTNAME
  1

  9
$CAMERADISPLAY
290
0
  9
$LENSLENGTH
 40
50.0
  9
$CAMERAHEIGHT
 40
0.0
  9
$STEPSPERSEC
 40
24.0
  9
$STEPSIZE
 40
100.0
  9
$3DDWFPREC
 40
2.0
  9
$PSOLWIDTH
 40
0.005
  9
$PSOLHEIGHT
 40
0.08
  9
$LOFTANG1
 40
1.570796326795
  9
$LOFTANG2
 40
1.570796326795
  9
$LOFTMAG1
 40
0.0
  9
$LOFTMAG2
 40
0.0
  9
$LOFTPARAM
 70
7
  9
$LOFTNORMALS
280
1
  9
$LATITUDE
 40
37.795
  9
$LONGITUDE
 40
-122.394
  9
$NORTHDIRECTION
 40
0.0
  9
$TIMEZONE
 70
-8000
  9
$LIGHTGLYPHDISPLAY
280
1
  9
$TILEMODELIGHTSYNCH
280
1
  9
$CMATERIAL
347
20
  9
$SOLIDHIST
280
0
  9
$SHOWHIST
280
1
  9
$DWFFRAME
280
2
  9
$DGNFRAME
280
2
  9
$REALWORLDSCALE
290
1
  9
$INTERFERECOLOR
 62
256
  9
$CSHADOW
280
0
  9
$SHADOWPLANELOCATION
 40
0.0
  0
ENDSEC
  0
SECTION
  2
CLASSES
  0
CLASS
  1
ACDBDICTIONARYWDFLT
  2
AcDbDictionaryWithDefault
  3
ObjectDBX Classes
 90
0
 91
0
280
0
281
0
  0
CLASS
  1
SUN
  2
AcDbSun
  3
SCENEOE
 90
1153
 91
0
280
0
281
0
  0
CLASS
  1
VISUALSTYLE
  2
AcDbVisualStyle
  3
ObjectDBX Classes
 90
4095
 91
0
280
0
281
0
  0
CLASS
  1
MATERIAL
  2
AcDbMaterial
  3
ObjectDBX Classes
 90
1153
 91
0
280
0
281
0
  0
CLASS
  1
SCALE
  2
AcDbScale
  3
ObjectDBX Classes
 90
1153
 91
0
280
0
281
0
  0
CLASS
  1
TABLESTYLE
  2
AcDbTableStyle
  3
ObjectDBX Classes
 90
4095
 91
0
280
0
281
0
  0
CLASS
  1
MLEADERSTYLE
  2
AcDbMLeaderStyle
  3
ACDB_MLEADERSTYLE_CLASS
 90
4095
 91
0
280
0
281
0
  0
CLASS
  1
DICTIONARYVAR
  2
AcDbDictionaryVar
  3
ObjectDBX Classes
 90
0
 91
0
280
0
281
0
  0
CLASS
  1
CELLSTYLEMAP
  2
AcDbCellStyleMap
  3
ObjectDBX Classes
 90
1152
 91
0
280
0
281
0
  0
CLASS
  1
MENTALRAYRENDERSETTINGS
  2
AcDbMentalRayRenderSettings
  3
SCENEOE
 90
1024
 91
0
280
0
281
0
  0
CLASS
  1
ACDBDETAILVIEWSTYLE
  2
AcDbDetailViewStyle
  3
ObjectDBX Classes
 90
1025
 91
0
280
0
281
0
  0
CLASS
  1
ACDBSECTIONVIEWSTYLE
  2
AcDbSectionViewStyle
  3
ObjectDBX Classes
 90
1025
 91
0
280
0
281
0
  0
CLASS
  1
RASTERVARIABLES
  2
AcDbRasterVariables
  3
ISM
 90
0
 91
0
280
0
281
0
  0
CLASS
  1
LAYOUT
  2
AcDbLayout
  3
ObjectDBX Classes
 90
0
 91
0
280
0
281
0
  0
CLASS
  1
ACDBPLACEHOLDER
  2
AcDbPlaceHolder
  3
ObjectDBX Classes
 90
0
 91
0
280
0
281
0
  0
ENDSEC
  0
SECTION
  2
TABLES
  0
TABLE
  2
VPORT
  5
8
330
0
100
AcDbSymbolTable
 70
1
  0
VPORT
  5
23
330
8
100
AcDbSymbolTableRecord
100
AcDbViewportTableRecord
  2
*Active
 70
0
 10
0.0
 20
0.0
 11
1.0
 21
1.0
 12
0.0
 22
0.0
 13
0.0
 23
0.0
 14
0.5
 24
0.5
 15
0.5
 25
0.5
 16
0.0
 26
0.0
 36
1.0
 17
0.0
 27
0.0
 37
0.0
 40
1000.0
 41
1.34
 42
50.0
 43
0.0
 44
0.0
 50
0.0
 51
0.0
 71
0
 72
1000
 73
1
 74
3
 75
0
 76
0
 77
0
 78
0
281
0
 65
0
146
0.0
  0
ENDTAB
  0
TABLE
  2
LTYPE
  5
2
330
0
100
AcDbSymbolTable
 70
3
  0
LTYPE
  5
24
330
2
100
AcDbSymbolTableRecord
100
AcDbLinetypeTableRecord
  2
ByBlock
 70
0
  3

 72
65
 73
0
 40
0.0
  0
LTYPE
  5
25
330
2
100
AcDbSymbolTableRecord
100
AcDbLinetypeTableRecord
  2
ByLayer
 70
0
  3

 72
65
 73
0
 40
0.0
  0
LTYPE
  5
26
330
2
100
AcDbSymbolTableRecord
100
AcDbLinetypeTableRecord
  2
Continuous
 70
0
  3

 72
65
 73
0
 40
0.0
  0
ENDTAB
  0
TABLE
  2
LAYER
  5
1
330
0
100
AcDbSymbolTable
 70
3
  0
LAYER
  5
27
330
1
100
AcDbSymbolTableRecord
100
AcDbLayerTableRecord
  2
0
 70
0
 62
7
  6
Continuous
370
-3
390
13
347
21
  0
LAYER
  5
28
330
1
100
AcDbSymbolTableRecord
100
AcDbLayerTableRecord
  2
Defpoints
 70
0
 62
7
  6
Continuous
290
0
370
-3
390
13
347
21
  0
LAYER
  5
2F
330
1
100
AcDbSymbolTableRecord
100
AcDbLayerTableRecord
  2
water
 70
0
 62
7
  6
Continuous
370
-3
390
13
347
21
  0
ENDTAB
  0
TABLE
  2
STYLE
  5
5
330
0
100
AcDbSymbolTable
 70
1
  0
STYLE
  5
29
330
5
100
AcDbSymbolTableRecord
100
AcDbTextStyleTableRecord
  2
Standard
 70
0
 40
0.0
 41
1.0
 50
0.0
 71
0
 42
2.5
  3
txt
  4

  0
ENDTAB
  0
TABLE
  2
VIEW
  5
7
330
0
100
AcDbSymbolTable
 70
0
  0
ENDTAB
  0
TABLE
  2
UCS
  5
6
330
0
100
AcDbSymbolTable
 70
0
  0
ENDTAB
  0
TABLE
  2
APPID
  5
3
330
0
100
AcDbSymbolTable
 70
3
  0
APPID
  5
2A
330
3
100
AcDbSymbolTableRecord
100
AcDbRegAppTableRecord
  2
ACAD
 70
0
  0
APPID
  5
62
330
3
100
AcDbSymbolTableRecord
100
AcDbRegAppTableRecord
  2
HATCHBACKGROUNDCOLOR
 70
0
  0
APPID
  5
63
330
3
100
AcDbSymbolTableRecord
100
AcDbRegAppTableRecord
  2
EZDXF
 70
0
  0
ENDTAB
  0
TABLE
  2
DIMSTYLE
  5
4
330
0
100
AcDbSymbolTable
 70
1
100
AcDbDimStyleTable
  0
DIMSTYLE
105
2B
330
4
100
AcDbSymbolTableRecord
100
AcDbDimStyleTableRecord
  2
Standard
 70
0
 40
1.0
 41
2.5
 42
0.625
 43
3.75
 44
1.25
 45
0.0
 46
0.0
 47
0.0
 48
0.0
 49
2.5
140
2.5
141
2.5
142
0.0
143
0.03937007874
144
1.0
145
0.0
146
1.0
147
0.625
148
0.0
 69
0
 70
0
 71
0
 72
0
 73
0
 74
0
 75
0
 76
0
 77
1
 78
8
 79
3
170
0
171
3
172
1
173
0
174
0
175
0
176
0
177
0
178
0
179
2
271
2
272
2
273
2
274
3
275
0
276
0
277
2
278
44
279
0
280
0
281
0
282
0
283
0
284
8
285
0
286
0
288
0
289
3
290
0
371
-2
372
-2
  0
ENDTAB
  0
TABLE
  2
BLOCK_RECORD
  5
9
330
0
100
AcDbSymbolTable
 70
2
  0
BLOCK_RECORD
  5
17
330
9
100
AcDbSymbolTableRecord
100
AcDbBlockTableRecord
  2
*Model_Space
340
1A
 70
0
280
1
281
0
  0
BLOCK_RECORD
  5
1B
330
9
100
AcDbSymbolTableRecord
100
AcDbBlockTableRecord
  2
*Paper_Space
340
1E
 70
0
280
1
281
0
  0
ENDTAB
  0
ENDSEC
  0
SECTION
  2
BLOCKS
  0
BLOCK
  5
18
330
17
100
AcDbEntity
  8
0
100
AcDbBlockBegin
  2
*Model_Space
 70
0
 10
0.0
 20
0.0
 30
0.0
  3
*Model_Space
  1

  0
ENDBLK
  5
19
330
17
100
AcDbEntity
  8
0
100
AcDbBlockEnd
  0
BLOCK
  5
1C
330
1B
100
AcDbEntity
  8
0
100
AcDbBlockBegin
  2
*Paper_Space
 70
0
 10
0.0
 20
0.0
 30
0.0
  3
*Paper_Space
  1

  0
ENDBLK
  5
1D
330
1B
100
AcDbEntity
  8
0
100
AcDbBlockEnd
  0
ENDSEC
  0
SECTION
  2
ENTITIES
  0
LWPOLYLINE
  5
30
330
17
100
AcDbEntity
  8
water
100
AcDbPolyline
 90
11
 70
1
 10
39.33700703444195
 20
9.106696168757043
 10
39.2457407503516
 20
10.35488561875828
 10
39.85431155143614
 20
10.435467456257463
 10
39.72243950536916
 20
9.880016518757897
 10
39.91141743259756
 20
9.697795450010855
 10
40.02163307227457
 20
10.45685646251001
 10
41.02504656850217
 20
10.403466850010503
 10
40.985472063948265
 20
9.788491468760423
 10
40.59617237760344
 20
9.167547062511275
 10
39.48292996323693
 20
8.905738993753113
 10
39.33700703444195
 20
9.106696168757043
  0
LWPOLYLINE
  5
31
330
17
100
AcDbEntity
  8
water
100
AcDbPolyline
 90
2841
 70
1
 10
18.651505230225887
 20
-1.173965638452327
 10
19.62485889537595
 20
-2.004945559123907
 10
20.005755835715668
 20
-1.9664565614012377
 10
20.686341521590165
 20
-1.2925139820597351
 10
21.02161250528173
 20
-1.1994125389087038
 10
21.252809750205213
 20
-0.6585666896428498
 10
21.87346831764169
 20
-0.1303802996230764
 10
22.67383097536599
 20
0.08265043748317358
 10
23.786537892342782
 20
-0.3081700801105341
 10
24.223805424518797
 20
0.06815049218014399
 10
24.189821527609382
 20
0.26091159782489615
 10
24.859701038422486
 20
1.2513761269857173
 10
25.145479160999447
 20
1.9834001639201941
 10
25.71491357097339
 20
2.7432912227240633
 10
25.27550794558286
 20
3.7277601601993453
 10
25.44364567799799
 20
4.4846924228370515
 10
25.738725275645333
 20
4.944746644465886
 10
26.194181299844367
 20
5.429712872996141
 10
27.044565718142024
 20
5.684084037406597
 10
27.720211844561437
 20
6.370661798281062
 10
28.544934276541863
 20
6.573032060972092
 10
28.763310487769118
 20
7.292843441476475
 10
29.17198653117024
 20
7.834621230941283
 10
30.207534680952705
 20
8.276023819013188
 10
30.074544359575686
 20
9.215871973860171
 10
29.446077487930737
 20
9.427296335590594
 10
28.53017614577011
 20
10.164260956558604
 10
28.01246481358952
 20
11.225718478959392
 10
28.05322526861731
 20
11.958835867190594
 10
28.653713647618034
 20
12.914249726432157
 10
29.04065541127596
 20
13.205502717265354
 10
30.24753453813096
 20
13.603815577798393
 10
31.05905995071745
 20
14.455754192106447
 10
31.44089666370496
 20
14.573326565952001
 10
31.998783673161658
 20
15.446243315470129
 10
32.48811251097756
 20
15.784290358302105
 10
33.51599665371337
 20
16.016965257909025
 10
34.70260074683009
 20
15.461947053939843
 10
35.57698821680341
 20
15.750683610975175
 10
35.817140835204455
 20
16.324257095220805
 10
36.32865746837442
 20
16.82025692184751
 10
36.89552306429247
 20
17.042875891169523
 10
36.856489983613976
 20
17.38091172591413
 10
36.090529587671895
 20
17.951102654718838
 10
35.892280100661026
 20
18.702813923931988
 10
35.88602631263127
 20
19.505863782585333
 10
36.52125393336486
 20
20.334706794456785
 10
37.285947486804965
 20
20.60962142500832
 10
38.47846289339146
 20
20.423269495607975
 10
39.52360320216521
 20
20.85973069949863
 10
40.938535318640994
 20
20.74232441051032
 10
42.40942263900207
 20
20.83090651021302
 10
42.44398575440977
 20
21.991850786266102
 10
42.732832935153326
 20
22.6819617460111
 10
42.52246801733422
 20
23.005766257577662
 10
42.56806012971865
 20
24.50590203404552
 10
43.18593030033448
 20
25.6041129357786
 10
43.80404693393764
 20
25.72337037394952
 10
43.93174958062066
 20
25.905259971839502
 10
43.563275605985176
 20
27.025198717294984
 10
43.87486846658432
 20
27.93131334343884
 10
42.80210141898042
 20
28.02824770067019
 10
41.71113098201404
 20
28.48968877239204
 10
41.098018244765264
 20
29.059605715939192
 10
40.778003928784635
 20
29.660185528615962
 10
40.73116411245179
 20
30.118066464724055
 10
39.96585996995513
 20
30.247422077036983
 10
38.76624776633515
 20
30.955022814327013
 10
37.876969850237415
 20
32.54686530497556
 10
37.61048345663977
 20
33.63605425253615
 10
37.583291112237106
 20
35.04095445934551
 10
37.381864040804246
 20
35.1868348917646
 10
35.21471783437947
 20
34.577241037349
 10
33.492973817167474
 20
34.35466570661837
 10
33.4160018637637
 20
33.04351813698984
 10
33.20385746582442
 20
32.50062701281463
 10
32.77871224787844
 20
31.98512541975516
 10
31.651715257812786
 20
31.48567277428118
 10
30.695010699353663
 20
31.507402897096913
 10
28.539915038361524
 20
32.1326293341213
 10
27.8897657785406
 20
32.40398910830722
 10
26.549195914683175
 20
33.35376733040459
 10
25.186366900582858
 20
34.70294716901154
 10
26.310678588838613
 20
35.695883837511346
 10
25.164504658043224
 20
34.72826546213547
 10
24.446322260435387
 20
35.77764717403464
 10
24.11654724886268
 20
37.04780708231204
 10
24.177804627336563
 20
37.89217813367464
 10
24.50391168135837
 20
38.819323842261085
 10
26.34907657875017
 20
41.2569305221437
 10
25.478764221506996
 20
41.49182293941566
 10
23.78083597363955
 20
42.94345378753973
 10
21.707656607900034
 20
45.663856745057515
 10
20.747934276139475
 20
45.675604532566766
 10
20.402248628874176
 20
45.53904787425454
 10
19.600504180142362
 20
44.65779247203874
 10
19.41218414902291
 20
43.61685321832358
 10
19.827704788179435
 20
42.265968711827725
 10
19.834029217336337
 20
41.609193312943496
 10
19.133872020997792
 20
39.926176353699745
 10
18.20325362916074
 20
39.12999316872973
 10
17.360625413622287
 20
38.84894284060393
 10
16.61669615452024
 20
38.969565914953634
 10
15.969169731981951
 20
39.20159145054794
 10
15.16297299508075
 20
40.010355148958816
 10
14.601791223190448
 20
40.97836095575637
 10
14.418966726600987
 20
41.83338663896593
 10
12.973146929333856
 20
42.45312238426962
 10
7.235267455856764
 20
46.95741714113235
 10
7.179921642778333
 20
47.13439122894901
 10
5.980936584679041
 20
47.842823961967746
 10
1.631200131475238
 20
51.168947805453755
 10
0.3302962271910764
 20
51.68174692633145
 10
-2.1588449676718335
 20
51.343930962770315
 10
-2.6502672805755987
 20
54.30340796223835
 10
-0.3470658457001443
 20
54.66963392448855
 10
0.594125117177513
 20
54.67391629868431
 10
1.6430645723361093
 20
54.46907068983609
 10
2.7412598564427704
 20
54.00228592965038
 10
7.661982857302785
 20
50.333948563038454
 10
7.937039500997517
 20
50.1711510326448
 10
8.342842066029249
 20
50.32531063870241
 10
9.72087869764268
 20
49.18838392726482
 10
9.832803577884022
 20
48.75174065215327
 10
14.696452359270962
 20
44.92375238474461
 10
16.416500402257668
 20
44.09228332570633
 10
16.73371266440784
 20
45.58904842635675
 10
17.685474040482678
 20
47.15526201911406
 10
19.009731906289318
 20
48.20439713825744
 10
20.06828337494678
 20
48.620989173766986
 10
20.710318848841553
 20
48.687955854934685
 10
22.20682735155394
 20
48.63552702816939
 10
22.929189784043267
 20
48.443035567460484
 10
23.645114440798874
 20
47.98636619754826
 10
26.283491563729132
 20
44.739171469622974
 10
26.948411626372174
 20
45.30245283670408
 10
27.77326392052907
 20
45.531489239600916
 10
28.575649758702202
 20
45.293476217113046
 10
29.36447593645016
 20
44.57401467678376
 10
29.768616503548348
 20
43.833739883281226
 10
29.995033374799544
 20
43.000647955526894
 10
29.981427869750863
 20
42.09726439404437
 10
29.505307461637297
 20
40.449064080139195
 10
27.509946687962675
 20
37.937360589556896
 10
27.118542105253155
 20
37.214398392701774
 10
27.997487550967374
 20
36.10345151693899
 10
29.38416793332417
 20
35.03107896587902
 10
30.489182892339276
 20
34.7440066754258
 10
30.857900705372415
 20
35.80113491915089
 10
31.351099318329652
 20
36.47002648857134
 10
32.593217406481465
 20
37.227625961492585
 10
34.76187420160115
 20
37.55009832737929
 10
36.53125259332484
 20
38.12161333623904
 10
38.09911915686962
 20
38.109714983250946
 10
39.38388066472515
 20
37.48956222696994
 10
40.17473125033008
 20
36.5732878024047
 10
40.52636731859167
 20
35.64878955317304
 10
40.60570985580772
 20
33.86644949324604
 10
40.874827374208756
 20
33.135523151994704
 10
41.940902313631675
 20
33.30732310935242
 10
42.938472833583106
 20
33.134432078512745
 10
43.78862924602035
 20
32.30500835572422
 10
44.051772559622094
 20
31.59594175006584
 10
44.01808966243338
 20
31.103388832072866
 10
45.17765804861226
 20
32.15045559951572
 10
45.046438496000675
 20
32.828639316736904
 10
45.163223739511814
 20
33.86747799818071
 10
45.55455243403931
 20
34.51960632236691
 10
46.18206023598034
 20
35.020096752920516
 10
49.97267078988352
 20
35.776647099682044
 10
51.28815620423958
 20
35.83800937589152
 10
52.08374671618469
 20
35.66098561124813
 10
52.73886180182555
 20
35.30457008278803
 10
53.343566973204624
 20
34.804057387360366
 10
54.598659644935566
 20
32.85883823475965
 10
54.8827635199807
 20
33.2890998352176
 10
55.51446295719118
 20
35.17089480791884
 10
56.06353950077924
 20
35.869794733713086
 10
56.81410614133373
 20
36.23919021749711
 10
57.6080023964495
 20
36.30879209084181
 10
59.30379369713173
 20
35.61363447831997
 10
60.89340182854453
 20
35.25285555316499
 10
61.34822031228624
 20
34.906548226977094
 10
65.73500626331058
 20
34.973797618758375
 10
66.11863403372057
 20
34.87646935000199
 10
67.27854084757328
 20
34.071645812509985
 10
62.10139508264282
 20
33.588024638124246
 10
62.30014633537167
 20
32.15023049125665
 10
62.16059599330345
 20
30.339206669463113
 10
62.56067173542932
 20
29.25875667357906
 10
63.122589008049225
 20
29.338784549057443
 10
63.437847194359435
 20
29.553158251074084
 10
64.63400310594942
 20
31.57780328518985
 10
65.13814910858338
 20
32.186340487275004
 10
65.97414417464557
 20
32.78818924960197
 10
69.14177927568552
 20
33.589808191693876
 10
70.05533259207809
 20
33.59426102646347
 10
71.7289299994678
 20
33.283409964936034
 10
72.83811830162146
 20
32.68873236074467
 10
73.47178520013247
 20
31.903138809136674
 10
73.99118827848287
 20
30.416201202683865
 10
74.28170354772725
 20
28.677981970379804
 10
74.83472852331892
 20
27.62867471218565
 10
75.14058355184969
 20
27.51027225976259
 10
76.56444972228823
 20
28.346193244322052
 10
77.42571146471313
 20
28.35510437163738
 10
78.14596090606919
 20
28.117397264960356
 10
78.73918129166799
 20
27.73087403876539
 10
80.01720686723077
 20
26.09959306081138
 10
80.9766468899182
 20
25.153542609988214
 10
83.92268770934768
 20
22.895513870657922
 10
86.94321956022962
 20
20.27043909108987
 10
88.72334375093715
 20
20.35791244296176
 10
90.79095818149105
 20
22.011146811544073
 10
92.23965801301505
 20
22.08371189115563
 10
93.19304343854523
 20
21.457545628574007
 10
94.28761526576368
 20
20.388258627705603
 10
94.6995796956256
 20
20.319269584788447
 10
95.80412710479905
 20
22.03322230020727
 10
97.36683219726854
 20
22.607956918120454
 10
98.98158580612689
 20
22.112672355877006
 10
99.87751168267255
 20
21.37330142102011
 10
101.83774126619525
 20
20.451839513319243
 10
104.22842412762465
 20
19.854677377490248
 10
105.81040095383912
 20
19.671500503794185
 10
107.57228582877293
 20
18.079249128529284
 10
108.94341358447346
 20
20.430828456729092
 10
111.17831758328722
 20
23.093975534643747
 10
112.08144480275637
 20
23.85307669681678
 10
114.07544050878897
 20
24.589010785590737
 10
115.23998195919975
 20
24.381010462255997
 10
116.33631220158172
 20
23.5247009503644
 10
117.23507021341366
 20
21.91227023100084
 10
117.9190795686883
 20
23.81714837366219
 10
119.288205501749
 20
23.204372575004413
 10
117.95582092192154
 20
23.893394585856022
 10
118.53043707113487
 20
25.27068728419964
 10
119.22865650726742
 20
26.010504187356915
 10
119.73170351122066
 20
26.401931871118297
 10
120.8450772455685
 20
26.802703002828604
 10
124.41509307351599
 20
27.52127443788351
 10
125.1523808022794
 20
27.431066235078347
 10
126.0204565144007
 20
26.903422892372014
 10
126.95291582362323
 20
25.730659629921092
 10
127.22043237544149
 20
24.747024821112444
 10
128.78317372334263
 20
24.927006189370406
 10
130.08306074831896
 20
24.57361917623741
 10
131.16744432501227
 20
24.06833930452441
 10
132.08435350716215
 20
23.11647726799556
 10
134.19487093804727
 20
20.25199554648944
 10
134.40010249224247
 20
20.380762647958363
 10
135.37697201240218
 20
22.18882274035983
 10
134.44864833084395
 20
23.657969823801974
 10
134.2548378002786
 20
24.430466640071913
 10
134.38956007411048
 20
25.142410066916923
 10
135.32726026932016
 20
26.365932102198137
 10
135.81801535424478
 20
26.75161254144902
 10
137.3455323610382
 20
27.471994237147662
 10
138.23546103294902
 20
27.655715829083277
 10
139.93635878006157
 20
27.484147430742958
 10
140.59529192787278
 20
27.06598838516681
 10
141.43246385083236
 20
25.98326479290518
 10
141.78266199444982
 20
25.241701567672603
 10
141.91733470945422
 20
24.447287036296235
 10
141.84146266225864
 20
23.218187374716386
 10
141.22512160647022
 20
22.054702369071233
 10
140.52445364064752
 20
21.243157241723665
 10
141.9202764095399
 20
22.64996095418336
 10
142.81350388659328
 20
23.11680997928051
 10
142.2389903038118
 20
23.905105456738188
 10
141.98737335745358
 20
24.676132792209753
 10
141.89734261757053
 20
25.633669538950944
 10
142.12170470397092
 20
26.81294514904903
 10
142.44276415738125
 20
27.74559569488678
 10
143.13392542945837
 20
28.88741395190006
 10
144.4560435031799
 20
28.178891687508283
 10
143.23426670605906
 20
29.049099397205886
 10
144.82632012921687
 20
30.60104811917066
 10
145.75859783087867
 20
30.841252464624343
 10
146.70183968037676
 20
30.714798258494643
 10
147.61955317520875
 20
30.16628453094864
 10
148.26060355770846
 20
29.262462469456576
 10
151.13025378419275
 20
28.55931247625561
 10
151.3384503887362
 20
29.799839693412807
 10
151.91617842802424
 20
31.26275483710709
 10
153.37375455424498
 20
32.15427755831087
 10
154.81930370469416
 20
31.904689453834603
 10
158.3298024022889
 20
28.54042642486838
 10
159.9407558165513
 20
27.59657386954801
 10
160.03687251752473
 20
29.00113867683619
 10
161.45488729069785
 20
30.33448327162426
 10
163.14118521598004
 20
30.297034670629184
 10
164.82544278702017
 20
29.462912761591756
 10
165.3964539396229
 20
29.374940689211133
 10
166.59920951877123
 20
29.62356483258696
 10
167.80196455363478
 20
30.062543707544474
 10
168.02833716022894
 20
30.706462700592713
 10
168.99299991359584
 20
32.11059935763706
 10
170.9102967543143
 20
31.959332144053878
 10
172.03480883937084
 20
31.12555077798658
 10
172.78265910860074
 20
29.1136872181374
 10
172.78265910860074
 20
28.487139132800035
 10
173.63752076332955
 20
28.515620716557976
 10
175.7654874147655
 20
26.45835298037395
 10
177.2451592135711
 20
26.1511998479189
 10
178.36900021508288
 20
26.309313564707345
 10
180.69816739322448
 20
25.592094852721555
 10
182.03506711037153
 20
24.992976530934744
 10
184.46437296190615
 20
24.35809199833432
 10
185.463748089748
 20
23.721631506534685
 10
187.4293725267535
 20
22.82959555510536
 10
188.5499742586952
 20
23.273267791363942
 10
190.28787531474904
 20
24.632910081255766
 10
191.56949653782033
 20
24.632910081255766
 10
192.6950342960748
 20
24.163655295510956
 10
193.39885560775298
 20
23.23926339273468
 10
193.77691122089047
 20
22.172851723066362
 10
193.7481151844878
 20
19.877217156108294
 10
194.80746868618732
 20
18.7132172680997
 10
195.24225209052634
 20
18.59954124220212
 10
195.71483396204772
 20
19.376617038738956
 10
195.97166987172074
 20
20.404780887407206
 10
197.29850919800336
 20
21.5303455724436
 10
196.15372557765977
 20
21.58559991987383
 10
195.2608860329757
 20
22.106914782144294
 10
194.70636407324608
 20
22.84608814922661
 10
194.61312452520096
 20
23.876522258189027
 10
194.93788710799916
 20
24.819717276911415
 10
195.7013337867117
 20
25.731353663163173
 10
198.95403404418616
 20
27.505765568276544
 10
199.9457233020736
 20
27.83652761849447
 10
200.8860540938737
 20
27.7737745202724
 10
201.75702158985823
 20
27.400242797078583
 10
202.5784492516524
 20
26.755717276024143
 10
203.48731420329662
 20
25.204797111154754
 10
203.89941514689212
 20
24.99153320565116
 10
204.28405108023495
 20
25.00561609898257
 10
204.8435360015426
 20
25.909605113789798
 10
206.09836927042204
 20
27.01615722056629
 10
208.0132194698703
 20
29.667915378689226
 10
208.98802830488808
 20
30.370336351876535
 10
207.94025712884064
 20
31.816760035148818
 10
207.24080224588118
 20
33.59428548635689
 10
207.50160241806438
 20
34.78277915475321
 10
208.0690182463884
 20
35.75606600537362
 10
209.184169910053
 20
36.18136211575757
 10
210.29596800805234
 20
36.045447316043955
 10
211.36135624298797
 20
35.66263847579297
 10
212.68827920126614
 20
36.101185736656525
 10
212.94353813983318
 20
36.65356054385694
 10
213.2647017441509
 20
38.53943256774347
 10
213.95967959151417
 20
39.90562379219414
 10
215.2201604710426
 20
40.507670183900714
 10
216.3107485900715
 20
40.62881656143405
 10
217.49288786086558
 20
40.35684023613329
 10
220.9506294193537
 20
38.29383467282345
 10
221.74344328629005
 20
38.24127008594143
 10
221.87353699500878
 20
38.747362789344756
 10
221.45714075038924
 20
40.05747195010128
 10
221.27938915682165
 20
41.35540573282825
 10
221.34939517581378
 20
42.17354105008671
 10
221.88285159766522
 20
42.93610121709283
 10
223.25362709621254
 20
43.6218685659627
 10
224.85893836382328
 20
43.82900428796898
 10
225.65258803663662
 20
43.75679046231173
 10
227.94672752992025
 20
42.77572239452449
 10
228.8909296349917
 20
44.605013848559175
 10
229.2949295484807
 20
46.298136106246346
 10
230.15719020303246
 20
47.662949067312326
 10
230.9354323388638
 20
48.41457084500232
 10
233.45114825697252
 20
49.555650916018735
 10
234.6067901228074
 20
49.81120661057273
 10
237.370790157118
 20
49.483287606251096
 10
240.28575470428456
 20
50.485782071878546
 10
241.90769675011052
 20
50.370769701126626
 10
240.69169941366187
 20
51.79036491250485
 10
239.48822197266435
 20
52.46503054375738
 10
237.91490982962
 20
52.675272868752
 10
237.2841669934158
 20
52.55207882499967
 10
236.49383706724507
 20
52.12396708750376
 10
235.5586154697204
 20
52.406998356250746
 10
235.09467852560658
 20
53.21944898124941
 10
235.05832670060403
 20
53.64009943750238
 10
235.37015317122166
 20
55.0910699312553
 10
236.3706018022994
 20
55.91065022500481
 10
236.8201011421288
 20
55.98327336250524
 10
237.00869234780072
 20
55.39565601250677
 10
236.28358945518312
 20
55.01844679375487
 10
235.90666485818565
 20
54.34378116250234
 10
235.88487954460408
 20
53.6039536750041
 10
236.20392481736394
 20
53.059777562506696
 10
236.55919300797137
 20
52.98732023125821
 10
238.13237624382413
 20
53.495018968753456
 10
239.64768015545758
 20
53.190432887501984
 10
241.0179634885639
 20
52.414128025001595
 10
242.75086272157472
 20
50.33226475000109
 10
244.3877551721478
 20
49.20934067400057
 10
245.29987867857963
 20
48.23148570586326
 10
246.97313345860002
 20
45.738355229214655
 10
247.2965743332341
 20
45.591349498275406
 10
247.32888199558707
 20
46.08033115950338
 10
245.48581406431978
 20
49.89999433213221
 10
245.44499660136103
 20
51.00371417347522
 10
245.91675552982045
 20
51.89820898784459
 10
246.8102253016325
 20
52.71088953878223
 10
247.7590275916253
 20
52.87306793679614
 10
249.86605794868666
 20
52.61973313138959
 10
249.84046650122826
 20
53.18355935073645
 10
250.80304395751855
 20
57.18779284096751
 10
251.29525229726212
 20
58.10154092209425
 10
251.95967236709245
 20
58.733223884086634
 10
252.8597259530643
 20
60.05959286192424
 10
253.75145619881891
 20
61.90787223054774
 10
254.4167143391891
 20
63.762809717367155
 10
254.90531352795253
 20
64.67358057543167
 10
255.69651340850297
 20
65.48671713698704
 10
256.55351258403414
 20
66.03208325004687
 10
257.45364076973095
 20
66.23797517367804
 10
260.5828516916977
 20
66.16150254957206
 10
261.43169167930085
 20
66.34418341017768
 10
262.35486275860626
 20
67.16294374078579
 10
264.1657386540663
 20
68.0006180768296
 10
270.2400832697033
 20
69.4724605439142
 10
272.0564625928609
 20
69.6911900292698
 10
273.43447292251193
 20
70.67004305957504
 10
275.8450710921353
 20
71.90571876571038
 10
278.68881878388873
 20
73.85424692301946
 10
279.17586024727217
 20
74.43004379788435
 10
279.8124580522613
 20
75.71255522553115
 10
279.90437551052787
 20
76.6244189310974
 10
279.2126641023755
 20
78.54234519269016
 10
278.00286708682574
 20
80.64248245771553
 10
277.43349313755346
 20
82.96761906822482
 10
277.84136773520123
 20
84.14245756571762
 10
278.4551238903623
 20
84.90353882704194
 10
279.58816546300267
 20
85.82757300967144
 10
282.1851237006755
 20
86.48794525297924
 10
283.3094777011997
 20
86.12718763809517
 10
284.4825085660051
 20
85.5563870824782
 10
286.2127791646179
 20
83.75898360053618
 10
287.92590241917253
 20
82.75139654340913
 10
288.8518616906904
 20
82.55638227905513
 10
289.442740218317
 20
82.6313228438146
 10
290.5275991253741
 20
83.08199007239381
 10
293.22640092116694
 20
85.16675408555707
 10
294.02039417775273
 20
85.59127251908939
 10
295.5019349544341
 20
86.01565148877641
 10
298.2107315279984
 20
86.30733346223988
 10
299.8350822782284
 20
86.3615154183008
 10
302.3228553807293
 20
86.16454694416362
 10
303.64812831999734
 20
86.29646374738017
 10
306.3245981658405
 20
87.2122630978507
 10
307.86700184598317
 20
87.9642870669686
 10
310.1445313837124
 20
89.57221459719531
 10
307.303453892942
 20
89.98018686250809
 10
306.68534396046834
 20
90.3040064687487
 10
304.4186400912968
 20
90.33351998125194
 10
303.38828499426415
 20
90.51010363750379
 10
300.6064680301538
 20
91.57010299375892
 10
298.8343810141454
 20
91.9202857937513
 10
298.14039442767177
 20
92.44808438155843
 10
295.6957109634498
 20
93.19299600898884
 10
295.0171815729521
 20
92.83338081249798
 10
294.5718072629052
 20
92.82144276249984
 10
292.8644316517202
 20
93.8078241437547
 10
291.8603715399961
 20
94.88999486664707
 10
289.76060102233043
 20
95.97327072876674
 10
289.4219841667169
 20
96.38720176379196
 10
288.9388212713672
 20
96.13259357500455
 10
286.75358674053206
 20
98.57060867500829
 10
286.1381838588617
 20
99.87434321874888
 10
285.8215033301091
 20
101.78932823876693
 10
284.99722640059565
 20
103.74044754999733
 10
284.87975602656775
 20
105.92537050768533
 10
286.0395357635156
 20
109.67189318199186
 10
286.1731673379031
 20
110.95036879012697
 10
285.62951612297053
 20
112.83608100624906
 10
285.2150795363379
 20
113.84401720000841
 10
284.5744108472065
 20
114.49414350625692
 10
280.84409484595625
 20
116.87744254375743
 10
279.497143712584
 20
116.86799158750301
 10
279.1956298164316
 20
116.60419384375695
 10
278.0370120743848
 20
116.58529193124812
 10
275.5031905760407
 20
115.94359159929536
 10
273.0162062850207
 20
114.64486138750102
 10
270.4633284742124
 20
112.59118517500004
 10
268.61699092200985
 20
111.48890522500741
 10
265.7722672536116
 20
110.37734012500053
 10
261.88971187171023
 20
109.94624387500508
 10
260.92419708667427
 20
109.59307656250138
 10
255.82566026719985
 20
110.09944885000469
 10
253.36469327640316
 20
110.82949376875642
 10
249.66737751344925
 20
112.94916086875102
 10
246.9238459820869
 20
113.65566129999857
 10
244.23909612521157
 20
114.73903933750594
 10
242.26088652692374
 20
115.78693483749922
 10
237.78638937025926
 20
118.5542411499986
 10
235.45497409626432
 20
119.57859216249949
 10
234.85452444757146
 20
119.6609978687582
 10
230.12092385726686
 20
122.65181100625408
 10
227.93079085357306
 20
123.67616201875497
 10
223.59757596717316
 20
123.72325099375152
 10
221.81955922084677
 20
124.11190084375754
 10
221.31321181422084
 20
124.47684040000743
 10
220.98359615263087
 20
125.03030166250731
 10
220.54788988114632
 20
126.56085915624779
 10
220.14750417722337
 20
127.00837022499655
 10
218.45198802667437
 20
127.91499880000013
 10
217.40397264586096
 20
128.11512694375614
 10
216.50909899596638
 20
128.00917675000505
 10
215.15492906047024
 20
127.0672314437511
 10
214.4786819894124
 20
126.14435385625791
 10
214.1475194416334
 20
125.26126976874673
 10
214.11756071617154
 20
124.2517535932561
 10
214.81352619827666
 20
119.68136557266385
 10
214.39710170156454
 20
116.92690669637088
 10
212.83014626411622
 20
113.55013222201183
 10
209.9899805686261
 20
110.77961055922755
 10
207.1823973674947
 20
108.51596167818973
 10
203.41800644540834
 20
107.13931116135365
 10
201.4059469586694
 20
106.67455495000206
 10
199.63966076580573
 20
105.864923031251
 10
196.81362863864763
 20
105.61472139999887
 10
194.72365651451202
 20
105.62931235000445
 10
191.7063261308786
 20
105.17301354999724
 10
185.08609243700946
 20
104.65072479851528
 10
182.68154683555576
 20
104.60544220221887
 10
182.67655518643252
 20
104.76442731117407
 10
182.67931303000628
 20
104.60540179914787
 10
180.721745590638
 20
104.6163834124144
 10
180.10790252825433
 20
104.46651311874967
 10
177.64990040260744
 20
104.84919394375662
 10
177.1530186173766
 20
105.10477470434627
 10
175.36850111480499
 20
105.49683315624964
 10
169.43776765913745
 20
107.50383568003586
 10
169.05071550360276
 20
106.7583698260684
 10
168.28577085529884
 20
106.31903967536107
 10
167.3513793112074
 20
105.99249628706896
 10
166.28968717623215
 20
106.00485994771108
 10
166.067700065961
 20
105.00562943593323
 10
165.36923380274834
 20
103.55054626447566
 10
163.58151906253724
 20
104.151500047247
 10
160.30798024673598
 20
104.59186891239504
 10
160.2957433861885
 20
103.2118699500151
 10
160.12527175044966
 20
102.56666657971112
 10
159.7733515106627
 20
102.13922616475787
 10
158.07442917512475
 20
103.53798289151085
 10
158.04256218782203
 20
103.38160179915928
 10
157.29266874723908
 20
103.36895949831424
 10
157.24729752504325
 20
105.7919124231441
 10
158.7469513935331
 20
105.82413469375737
 10
157.3366219485878
 20
106.29474448398804
 10
157.54670083493298
 20
107.12732744415445
 10
158.25229345349692
 20
107.660362192361
 10
159.4621498941389
 20
107.94411153460172
 10
161.00514161351208
 20
107.52688641023954
 10
162.15706845920633
 20
107.47178808264847
 10
163.38366452490604
 20
107.17931822382349
 10
163.50501543845152
 20
108.09413297682322
 10
164.32596668321352
 20
109.16183339014616
 10
164.77430969093186
 20
109.22007297374084
 10
163.99102442026435
 20
109.54499275000497
 10
163.54996353386167
 20
109.99831833353853
 10
158.57447358547114
 20
112.06209743125224
 10
145.35560570432614
 20
116.64588103488161
 10
139.37059929670392
 20
117.58402530044927
 10
134.17544853892136
 20
118.14033666118159
 10
129.94318853107816
 20
118.89809358738911
 10
123.6762209616466
 20
121.53433355111721
 10
121.14935770554186
 20
123.14228235263185
 10
118.9966174585239
 20
123.52444929999922
 10
118.8388350690929
 20
123.21124129375302
 10
118.01537599741594
 20
123.7040174687506
 10
116.39307912563848
 20
125.21534143750195
 10
115.24642254076707
 20
126.83931910468372
 10
114.35964568361153
 20
128.6178919394904
 10
113.52669905085025
 20
131.8451043437543
 10
113.17109116093016
 20
136.31227807060185
 10
112.44613081158815
 20
138.50603576362087
 10
111.52425490256067
 20
139.49424407499652
 10
111.36002715406366
 20
139.92301903750018
 10
110.99470420335571
 20
142.6448944374988
 10
111.08829081671131
 20
145.12121078125244
 10
113.4396090009864
 20
155.37454834219434
 10
113.31488791109969
 20
159.5473578591605
 10
112.92871490287641
 20
161.95012466480156
 10
112.12810882619397
 20
164.75664080530518
 10
110.80652684149088
 20
166.90768032594056
 10
109.55967205451375
 20
168.3482022867913
 10
105.4943637009975
 20
170.5777759562512
 10
100.8674982564904
 20
172.79858486874963
 10
97.89760571543769
 20
173.92324866249464
 10
91.82093086475594
 20
176.83762236843376
 10
80.14541608321036
 20
180.63600107930574
 10
78.21541279775239
 20
180.96553751874927
 10
76.73014425928373
 20
181.46925690624514
 10
75.92046327666444
 20
183.0140826554239
 10
74.38075158603401
 20
184.98371353772492
 10
72.84863383896652
 20
184.22751064442934
 10
71.92007654526353
 20
184.37127926063602
 10
71.18909481478232
 20
184.6672540674199
 10
69.74372896016779
 20
185.79979189674197
 10
69.57241985960697
 20
185.39789222734794
 10
68.71301866278914
 20
184.87445639029778
 10
67.38653240377067
 20
184.79928598153887
 10
67.29606853985338
 20
184.33016063631834
 10
66.50463241673357
 20
183.49031066439497
 10
65.674605392581
 20
183.2540823724611
 10
65.45130747879635
 20
182.65282889097034
 10
64.44984082709588
 20
182.0569861988871
 10
64.17321953002237
 20
181.69937082136167
 10
63.06402157527603
 20
181.17323646794705
 10
62.94019504617548
 20
180.6130839304895
 10
61.22051436132215
 20
180.17532048767364
 10
60.18992276524428
 20
180.5053879584424
 10
59.61266351207304
 20
181.4169498541075
 10
58.96336057432416
 20
181.58350626451306
 10
57.79439546563104
 20
181.34337790202355
 10
56.831904171512214
 20
180.5347139529794
 10
55.93881806731547
 20
180.27543208339077
 10
55.459868742029634
 20
180.41063853514072
 10
54.56080171868743
 20
180.02629318572195
 10
53.52237636566825
 20
181.08346128995578
 10
51.679356657378754
 20
181.3606865865772
 10
51.47673806195444
 20
181.6718606837859
 10
49.83443249336928
 20
181.16149213086695
 10
49.570753810574246
 20
181.8636128841847
 10
49.8035820385952
 20
182.05500702399442
 10
47.65298519940309
 20
182.19802197532576
 10
47.69359721417616
 20
182.80872784762178
 10
48.30063256816691
 20
183.7900565869532
 10
50.8528444823107
 20
184.62231808517254
 10
52.64083519433419
 20
184.89206101906515
 10
53.40516979432964
 20
184.1279188393693
 10
54.93254808077219
 20
183.91536098505406
 10
55.25477358226625
 20
183.59339358040828
 10
56.74914159606978
 20
184.2966763096801
 10
57.81075895848953
 20
184.37088467334206
 10
58.3828513956586
 20
184.680494786013
 10
59.39169798800008
 20
184.88402060366894
 10
59.65454787561958
 20
184.6925154070783
 10
60.131382823296995
 20
184.9439003807449
 10
61.425383679432315
 20
184.7627514614628
 10
62.09998013029298
 20
184.0199986640038
 10
63.00660206479416
 20
184.6871110500947
 10
63.1485143415083
 20
185.06922501163825
 10
63.69992940318485
 20
185.68825790191124
 10
64.56948568159379
 20
186.24788085262048
 10
65.20949199404106
 20
187.3101935868925
 10
66.02558983052315
 20
187.78433862977195
 10
66.72090464006706
 20
187.90203868166475
 10
67.39648749354255
 20
188.91214381787094
 10
68.60202461444456
 20
189.69699888601713
 10
69.47963924834418
 20
189.9680745264881
 10
67.32507796708204
 20
191.19590657477212
 10
65.48221928154487
 20
191.71077735625428
 10
64.18734664928374
 20
192.50117575000442
 10
63.93520420342097
 20
192.9702416312459
 10
63.17634240685238
 20
193.60235432215896
 10
60.11993836993649
 20
195.34143681249634
 10
58.08616977667623
 20
197.35631436250338
 10
57.673614301834114
 20
198.0200287787121
 10
55.166035407451155
 20
200.4222377312552
 10
52.523953827471196
 20
206.3279247437549
 10
51.950316872410106
 20
207.8216732500011
 10
51.759147523108055
 20
209.17647611874943
 10
51.86343343246704
 20
210.93932816874482
 10
51.96771934182604
 20
211.1303369687503
 10
52.46310963806542
 20
211.27807033749488
 10
52.81077230499259
 20
211.69490725000043
 10
53.51473441996826
 20
214.4824419250006
 10
53.54941045162687
 20
215.9761904312468
 10
53.844994617461175
 20
216.83589583749398
 10
53.74070870810218
 20
217.1484406187442
 10
53.279994443521424
 20
217.03552656249417
 10
53.193111003578366
 20
217.87782231249997
 10
53.92324127626458
 20
220.51762361874376
 10
54.209930846631025
 20
220.89980702499489
 10
54.21869653492562
 20
222.2196247749967
 10
52.75856489672646
 20
226.57004916249997
 10
51.62005667489887
 20
228.8536986437523
 10
50.27297663437162
 20
230.81601561249596
 10
48.93453337494738
 20
231.97947806874672
 10
46.77920531008545
 20
233.01261681249426
 10
45.94478912804025
 20
233.17759403125186
 10
39.4784117580992
 20
233.17359032931105
 10
35.71548869387127
 20
231.22406479374305
 10
34.781361073332455
 20
230.91137636710422
 10
33.813786812007464
 20
230.35738382808213
 10
33.53399247128049
 20
229.96509793749547
 10
31.126650867747372
 20
228.87094249375355
 10
29.388466440303098
 20
226.97809834374704
 10
28.058659962018517
 20
226.62211232499575
 10
25.616513419616886
 20
225.17197086250252
 10
23.956446743821072
 20
224.45999882499993
 10
20.749493897074615
 20
222.74937574375224
 10
19.298127947170048
 20
222.27168793750428
 10
18.133580474805186
 20
221.55109397499518
 10
16.325786169678853
 20
221.26441496875267
 10
14.622277773929827
 20
221.3166439375004
 10
13.727146309670417
 20
221.11684740624827
 10
12.049806071631929
 20
220.0921647812435
 10
11.319804706118974
 20
219.84030508749558
 10
9.485971150455367
 20
219.5191383812506
 10
6.678759471710627
 20
219.38881466874741
 10
4.497263249119848
 20
218.54651891875343
 10
2.1333633655399344
 20
218.08624076874682
 10
-1.447420305844227
 20
217.95608286249558
 10
-7.425233006332839
 20
217.28440174375436
 10
-12.055450037527882
 20
217.32867201250335
 10
-13.471882141408996
 20
217.20481474374324
 10
-20.235770831075993
 20
218.11592008750202
 10
-24.095767456337875
 20
219.38980950624727
 10
-28.637425254264205
 20
220.63700411874865
 10
-31.063200584672618
 20
221.07920938749433
 10
-33.50663619888013
 20
221.061633925001
 10
-36.42818854708433
 20
222.061113999994
 10
-37.579071858277615
 20
222.65370553750347
 10
-39.13730186115293
 20
224.14861468750146
 10
-40.0314020679713
 20
224.55550322499678
 10
-43.71440913383238
 20
226.89055264374895
 10
-44.8387375657404
 20
227.14705491250402
 10
-50.06205653633118
 20
230.80009821249845
 10
-51.55828218518641
 20
231.51654701874446
 10
-53.55028485183743
 20
231.9322232874982
 10
-54.267395499255
 20
232.37442855624388
 10
-57.605060227454146
 20
233.5773528999963
 10
-63.3572611768229
 20
236.4342988934117
 10
-66.46415877821599
 20
239.19997207490394
 10
-67.91879486510938
 20
239.76507634374312
 10
-73.56260905984237
 20
243.6895444750021
 10
-76.639107839501
 20
245.24828903124208
 10
-78.46507805713779
 20
245.82313929999452
 10
-82.22774976079972
 20
248.63090233749543
 10
-84.62916163401482
 20
252.112999393745
 10
-85.8152366055964
 20
252.70907286249806
 10
-87.16089866714454
 20
254.97282559374173
 10
-88.48890044491188
 20
256.53803659374836
 10
-90.59601722411688
 20
258.1563055937507
 10
-91.85312005237796
 20
259.5446013250016
 10
-92.7473491663696
 20
260.04865232500134
 10
-94.80122727984912
 20
262.45383778749846
 10
-95.42088409851182
 20
262.95772298124626
 10
-95.71311667763985
 20
263.4970907124964
 10
-97.18278744722814
 20
264.6290499812442
 10
-97.39522648136374
 20
264.88538644374734
 10
-97.02332926443485
 20
265.4335419062441
 10
-97.38633188587755
 20
266.12329590624626
 10
-98.12110281709424
 20
266.627346906246
 10
-100.08655060445997
 20
267.1842901000012
 10
-101.47475203571184
 20
267.9952484687442
 10
-104.90948387114611
 20
269.2618424124985
 10
-106.42427215404989
 20
268.962727937502
 10
-108.3970676507311
 20
269.0507710562442
 10
-110.4227150915997
 20
269.9303732125
 10
-111.97269503489177
 20
271.1968013500023
 10
-114.24494191284322
 20
272.2347484749971
 10
-122.01263082029423
 20
274.5039728124958
 10
-127.2616023198842
 20
276.66757856874733
 10
-129.76278835113777
 20
277.4767130687426
 10
-135.29367985539045
 20
278.97195383124443
 10
-139.76753247615193
 20
279.6578942874992
 10
-147.44730668620053
 20
279.44682293124487
 10
-149.35990252941554
 20
278.94542483124076
 10
-155.37961006368664
 20
278.32630429375115
 10
-159.07705473381384
 20
277.7521172499947
 10
-161.53467013790424
 20
277.6733592812432
 10
-164.09360658620386
 20
277.0204142687471
 10
-165.20955605137368
 20
277.1217218874911
 10
-166.34819318037455
 20
277.0204142687471
 10
-167.30636025609505
 20
276.7277662374938
 10
-168.43365355318952
 20
276.2210623374984
 10
-171.93954215247658
 20
275.1741616749932
 10
-173.87843506057538
 20
274.3635349187423
 10
-176.14436548667072
 20
270.90730363750043
 10
-177.1702088323645
 20
270.05157758124085
 10
-178.80475188635273
 20
267.0906095687521
 10
-179.27822796183727
 20
266.6290049687418
 10
-180.49575628556278
 20
265.942235481251
 10
-181.1833471885452
 20
265.73962024375123
 10
-182.3331992422975
 20
266.1561255437411
 10
-183.75362746876948
 20
265.73962024375123
 10
-184.95981196057033
 20
264.2196743499934
 10
-186.78603999257194
 20
263.52146423124844
 10
-188.2514568251862
 20
262.3392656687526
 10
-190.24681107852513
 20
261.12324263125026
 10
-191.43043681366828
 20
260.560330412496
 10
-195.55636895315604
 20
259.11914248750134
 10
-202.4215786870322
 20
257.52027281875195
 10
-206.1080662467728
 20
256.32248846875063
 10
-212.04050361956274
 20
254.67570079374497
 10
-213.57643268014516
 20
254.61932666874594
 10
-216.8596985779862
 20
254.87267861874952
 10
-218.550574070023
 20
255.4639437062435
 10
-219.8750953539108
 20
256.1535318999937
 10
-222.2424757313703
 20
258.1662539687491
 10
-223.595227687869
 20
260.1647167000028
 10
-224.90311994541707
 20
262.55033702499514
 10
-225.108082363064
 20
263.47852041249143
 10
-224.86212746188403
 20
264.9391076687507
 10
-225.06708987953095
 20
266.3996949249982
 10
-225.31317368790246
 20
266.68637393125243
 10
-226.14681642685315
 20
266.85019050624646
 10
-226.9942522341853
 20
269.55299818749614
 10
-227.54094758842302
 20
270.64499814999823
 10
-231.01241797041627
 20
274.38492392499484
 10
-231.96916706715768
 20
274.8080614749915
 10
-233.2401918709552
 20
275.65433657499665
 10
-235.0442478678188
 20
275.6952907187422
 10
-236.5886848023493
 20
275.9955658375022
 10
-237.57276222143383
 20
275.83174926249643
 10
-240.52486557151417
 20
276.14562049375036
 10
-243.76404521349912
 20
274.7807034437517
 10
-245.82784917990585
 20
273.6341532249983
 10
-246.8665832437133
 20
273.2383737062414
 10
-248.4520126617585
 20
272.9926488437445
 10
-249.47708256437602
 20
272.2692361749996
 10
-251.08984030476444
 20
272.28283228749353
 10
-253.70021071825397
 20
271.7368323062484
 10
-255.25831181395597
 20
271.72323619374265
 10
-259.5772180032631
 20
273.2110156750016
 10
-262.61130632040954
 20
273.85252005624363
 10
-264.2649276371576
 20
275.0516308562486
 10
-265.1867428878573
 20
275.9514613749934
 10
-266.0890931542406
 20
277.23695723124473
 10
-267.39337601071753
 20
277.4153647562443
 10
-268.3081013664849
 20
277.94063895624464
 10
-270.7205992572598
 20
278.5746820562437
 10
-273.8875908779326
 20
280.6582033937518
 10
-274.489845227161
 20
280.62172601874965
 10
-274.69764360278447
 20
280.4164578812425
 10
-275.5057627199276
 20
280.26026839374333
 10
-276.00669602496515
 20
279.8709553187414
 10
-278.6913169746489
 20
279.6229091687409
 10
-282.65817765288153
 20
278.6017084749915
 10
-285.9005799743811
 20
277.04644584999505
 10
-288.15568219728146
 20
275.7498409749935
 10
-289.49502780695514
 20
274.6032907562519
 10
-294.1556669328531
 20
269.7030528437443
 10
-295.0029738329937
 20
269.0751445749962
 10
-299.2125667328915
 20
266.2222822374984
 10
-302.000700148858
 20
264.83000715624814
 10
-304.31045901644467
 20
263.9154198812458
 10
-307.20790572183876
 20
262.01793315624394
 10
-307.535974497258
 20
261.5538414625017
 10
-307.5633028196012
 20
260.9395293062476
 10
-307.90503575621034
 20
260.2161166375027
 10
-310.1874663014538
 20
257.9772348437433
 10
-311.1030940074706
 20
257.4448309749921
 10
-312.5108893302304
 20
256.8578768500014
 10
-313.8365707787325
 20
256.53024370000156
 10
-315.0803961673601
 20
256.53024370000156
 10
-319.4812873237333
 20
255.956885687493
 10
-323.3354831258321
 20
254.63259116874778
 10
-326.0826240582656
 20
254.38686630625085
 10
-332.2875712115207
 20
258.2912718812492
 10
-334.18727633662206
 20
258.75536357499146
 10
-335.74537743232406
 20
260.17516249374535
 10
-337.13950859389394
 20
261.99074093124426
 10
-340.4743373640982
 20
265.321456881242
 10
-342.93440200464545
 20
266.46800709999536
 10
-343.8911511013868
 20
267.13686951250077
 10
-344.246419291976
 20
267.04136511249214
 10
-346.4195365478103
 20
269.75760309999555
 10
-348.04595844938854
 20
271.35464889999724
 10
-349.85014335344374
 20
274.0846488062466
 10
-350.7657710594605
 20
276.6097121874926
 10
-350.6974502535843
 20
277.3195287437436
 10
-351.0528473513651
 20
277.63339997499753
 10
-350.99819070666047
 20
280.0765550687407
 10
-351.298802252545
 20
280.29492189999775
 10
-351.33979473607803
 20
282.09657261249885
 10
-349.996195189412
 20
286.7966823812505
 10
-349.6989352302337
 20
287.4028700312421
 10
-349.5998056081165
 20
289.39453470624886
 10
-349.1537867621484
 20
291.08924038749905
 10
-348.6087672012546
 20
292.8088170062453
 10
-348.0636187331693
 20
293.53869611874507
 10
-346.874321082073
 20
296.9156720124915
 10
-344.8177359177902
 20
301.8636621249916
 10
-344.5947264948061
 20
302.6429514999915
 10
-344.5452261373433
 20
304.090108449997
 10
-344.87974027181025
 20
306.873166356242
 10
-345.1646251416229
 20
307.8504283937463
 10
-346.2176679025048
 20
309.4706870687483
 10
-347.914988753571
 20
310.509629031243
 10
-349.30241674174664
 20
310.88070341874385
 10
-350.5042183894002
 20
310.8931388874978
 10
-353.031443671191
 20
310.49735936874094
 10
-355.17478336822535
 20
309.7799157249951
 10
-357.50387831295507
 20
307.98638951874466
 10
-360.8363867539124
 20
306.27957998124447
 10
-362.81859247480946
 20
304.83225722499884
 10
-363.53725000839773
 20
303.85516099374644
 10
-364.9217131314053
 20
302.6305160312494
 10
-364.76676669995084
 20
301.45544713749257
 10
-365.09199951739356
 20
300.91425553749474
 10
-366.73350355914084
 20
299.66192093124215
 10
-369.18029076005456
 20
298.85776061874617
 10
-371.54960474522284
 20
298.9660321000008
 10
-373.8725121452697
 20
299.398952218744
 10
-378.89254449155754
 20
301.5613973312437
 10
-380.376652865412
 20
302.5224103562466
 10
-381.39875790287965
 20
302.9553304749898
 10
-384.9915299420914
 20
305.5992769374967
 10
-386.9582668012814
 20
306.71250009999943
 10
-390.60298843441274
 20
308.2082382812454
 10
-393.0442326265466
 20
308.9079406562459
 10
-397.6745785649332
 20
309.78920087499756
 10
-400.36912536754414
 20
310.12926949373957
 10
-401.9331561935642
 20
310.0674237624973
 10
-403.1566142476077
 20
309.82004083749274
 10
-406.0059785744998
 20
308.5832920187456
 10
-407.6320137545399
 20
307.5781745312457
 10
-408.8709406702906
 20
306.51137711874355
 10
-409.5367462597098
 20
305.7848141312472
 10
-409.9394522928797
 20
304.918973893749
 10
-410.35749828058346
 20
301.4400271562509
 10
-409.98585887801937
 20
298.48668623124524
 10
-410.00132773972655
 20
295.146850937497
 10
-411.01208894525126
 20
291.57356044374205
 10
-411.30483715310896
 20
289.7218362437448
 10
-412.5330647728562
 20
284.86503956875003
 10
-413.08607657896835
 20
283.3948355499962
 10
-412.99661499541355
 20
281.85167678124986
 10
-413.5578768611089
 20
280.34085023124254
 10
-414.5663177373868
 20
278.5864543000017
 10
-415.6399856472177
 20
276.9214279374949
 10
-417.7303444928914
 20
274.40332841874783
 10
-421.3334291065868
 20
270.6423452499908
 10
-422.8056780197868
 20
269.48899697500224
 10
-424.39974421897165
 20
268.6765463499918
 10
-427.72645183678424
 20
268.30298486874716
 10
-429.70285673453657
 20
267.7911409750006
 10
-430.9473266590671
 20
267.18196881249764
 10
-432.19978882881605
 20
266.9463581312511
 10
-436.09575055754243
 20
267.5800696187463
 10
-438.8123404880998
 20
268.2461133249923
 10
-439.70901883852986
 20
268.6228251250002
 10
-442.0845203683993
 20
268.8421867937453
 10
-444.1404609967792
 20
269.5498478687447
 10
-446.3562465294905
 20
270.5866343499995
 10
-447.6536973053817
 20
271.30424379999727
 10
-448.96120284137334
 20
272.3209677249915
 10
-450.4781825463508
 20
274.3443013937413
 10
-451.40644315611644
 20
275.2912208874945
 10
-452.7138197849348
 20
277.2648126812521
 10
-454.520325018237
 20
279.2682495999933
 10
-455.4984727070035
 20
279.5073422124952
 10
-457.66424225352233
 20
281.42107794999845
 10
-458.77219947347373
 20
281.90954316249275
 10
-460.7982336358804
 20
283.5540095499949
 10
-462.45507763214323
 20
284.3114124999982
 10
-464.21156687927123
 20
285.7965390812497
 10
-467.28561642249133
 20
286.86283907499603
 10
-469.7808727234269
 20
287.14189099374363
 10
-471.7869262727876
 20
287.54065502500004
 10
-472.42566135421015
 20
287.81970694374763
 10
-475.409991499529
 20
288.11865561249215
 10
-475.91891704976666
 20
288.07886211249837
 10
-476.1185942730168
 20
287.8595004437414
 10
-476.5077650521884
 20
287.7797476374901
 10
-480.1906432108578
 20
287.90940812499736
 10
-481.14881028659676
 20
287.6900464562404
 10
-482.72573183069386
 20
288.1584491124977
 10
-484.8316884452662
 20
288.3179547250003
 10
-486.23896813929633
 20
287.4708505937472
 10
-491.25925829994895
 20
287.2914482312477
 10
-496.65879338684607
 20
286.3645912937434
 10
-499.493333387934
 20
285.537383912499
 10
-500.2518232404227
 20
285.67682696874095
 10
-501.6291964684795
 20
285.22832106249234
 10
-502.4575540130335
 20
284.6403721000018
 10
-503.7650595490252
 20
284.3114124999982
 10
-505.3020198670486
 20
283.583854675002
 10
-506.25026108984196
 20
283.5241644249995
 10
-509.84329094343684
 20
282.7067396125017
 10
-511.7695509478051
 20
282.4775953749982
 10
-515.2028648042418
 20
282.35804906874137
 10
-517.4885180290183
 20
282.48754374999663
 10
-519.3947974203406
 20
282.856296849994
 10
-520.6023998911389
 20
282.7067396125017
 10
-521.6005281929515
 20
282.2882446375003
 10
-527.3793082060929
 20
281.90954316249275
 10
-528.8764362052158
 20
281.6104286874963
 10
-535.2640448338067
 20
281.1320776562406
 10
-538.387981456046
 20
281.2217788375021
 10
-539.695486992056
 20
281.6004803124979
 10
-541.0528796070669
 20
281.74008917499174
 10
-542.9919014223573
 20
280.98252041874827
 10
-544.1568356162602
 20
280.7732729312417
 10
-546.3068784867071
 20
280.9178559812466
 10
-547.4804494617314
 20
281.241675587499
 10
-550.6582692855991
 20
281.3809528375008
 10
-553.8863629100242
 20
282.14415900625124
 10
-554.4945469895707
 20
282.1285732187458
 10
-556.2879036904309
 20
282.50230050624236
 10
-557.2080431477865
 20
281.8793664249935
 10
-558.4400090757598
 20
281.7236743562502
 10
-558.7207689157899
 20
281.36536704999537
 10
-559.422539608692
 20
281.16291761874754
 10
-561.4186673051255
 20
280.9138766312472
 10
-563.6487615349112
 20
280.88270505624814
 10
-569.9177755570685
 20
279.73018581249573
 10
-571.4928924006484
 20
279.8081147499992
 10
-573.2550535637113
 20
279.59007953124603
 10
-575.3603656423808
 20
278.7958675937484
 10
-576.0309407975036
 20
278.7958675937484
 10
-576.4208850197515
 20
278.04824721249156
 10
-577.543666565507
 20
277.0204142687471
 10
-580.6315091770903
 20
275.3852330312475
 10
-581.7733689856242
 20
275.2398209499947
 10
-583.1159372748309
 20
274.78086924999184
 10
-587.7738693499255
 20
274.1080274874988
 10
-588.865455357902
 20
273.76547177500134
 10
-592.7954485824023
 20
273.2670581874968
 10
-595.1593484659822
 20
272.74692398124756
 10
-606.2162330015924
 20
269.45401185624394
 10
-608.9705927361497
 20
269.0043453062435
 10
-619.0342474428425
 20
267.9861291249937
 10
-625.2844410165864
 20
267.06026702500094
 10
-629.9323183315805
 20
266.74291386249166
 10
-636.0367178837027
 20
266.95448263750177
 10
-637.8641060803187
 20
267.1527869124983
 10
-639.0691304075052
 20
267.4966690749995
 10
-640.1019347409764
 20
268.01249231874544
 10
-640.8435377527605
 20
268.0257568187473
 10
-646.1136500300291
 20
270.5120215374994
 10
-648.5634020960928
 20
271.88738438125233
 10
-650.073034091773
 20
272.4428353187519
 10
-651.0925609856107
 20
272.7865516750012
 10
-653.1185951480173
 20
273.02464944999144
 10
-653.8336432805345
 20
273.5006791937436
 10
-658.5345014468893
 20
274.585217874991
 10
-663.3147664366801
 20
274.8627775374947
 10
-665.2084129242902
 20
275.39186528124253
 10
-665.4467623017897
 20
275.62979724999263
 10
-666.439863223552
 20
275.3124440874951
 10
-669.5913859824994
 20
274.955463231244
 10
-671.0082048079186
 20
274.955463231244
 10
-669.7900319482901
 20
279.1871703437501
 10
-667.6316101110868
 20
278.4863073249977
 10
-665.074607270496
 20
278.7000315812477
 10
-661.0189295446115
 20
278.61033039999796
 10
-660.0749422587924
 20
279.0452401937409
 10
-659.3158078704006
 20
278.76386698750144
 10
-659.1933460485311
 20
278.90380746249923
 10
-658.792186901532
 20
278.8968436000003
 10
-657.4610913514232
 20
278.66206195000166
 10
-656.1575819380408
 20
278.06814396250024
 10
-647.7953731122149
 20
275.92078721875015
 10
-645.3191950740576
 20
274.83641434374294
 10
-643.9817830720926
 20
273.8974535500003
 10
-639.4001640480926
 20
271.9666397687478
 10
-637.1093545360743
 20
271.1865213625
 10
-635.0567654944007
 20
270.23429606874373
 10
-628.5816288899822
 20
269.90367840624435
 10
-626.2378385266215
 20
269.99619829374166
 10
-617.2466915651271
 20
271.30540444374907
 10
-607.1299270999003
 20
273.2362182250016
 10
-601.1313603433078
 20
274.9289342312521
 10
-598.5889240141564
 20
275.4711206687498
 10
-594.2986352190167
 20
276.87284670624274
 10
-590.9748924663539
 20
277.48118983749777
 10
-589.7699970463773
 20
278.2349450499938
 10
-588.0546291899556
 20
279.01390281250167
 10
-587.3216629592928
 20
279.15400909375137
 10
-583.3054308307707
 20
281.22443173749775
 10
-578.5417948673196
 20
282.82927043124624
 10
-575.5163433312945
 20
283.5924765999967
 10
-574.1719703415522
 20
283.6962713124962
 10
-570.6382377911923
 20
282.85380975625026
 10
-566.3751484112225
 20
285.0772715687443
 10
-564.4160170757128
 20
285.3047577437402
 10
-563.0436712277062
 20
285.16780178124196
 10
-561.097430610292
 20
286.12699093749717
 10
-558.9390087730886
 20
286.787397231248
 10
-557.2673404510033
 20
286.7747959562421
 10
-556.0197767541313
 20
286.3262900499935
 10
-553.3124681405983
 20
286.0522123187451
 10
-552.5388961479406
 20
285.5539645374925
 10
-552.289460752881
 20
284.40774593124297
 10
-551.8777312170334
 20
284.1336681999946
 10
-551.3288444407037
 20
284.0590553874945
 10
-549.307708751174
 20
284.59460957499715
 10
-548.2348142844376
 20
284.68182366249135
 10
-547.7857016661463
 20
284.86868730624553
 10
-547.2241819860861
 20
285.4294440437482
 10
-542.9326041191405
 20
285.72839271249273
 10
-539.2563002266736
 20
285.7068379
 10
-537.4598497534719
 20
286.1951373062424
 10
-532.8644376611088
 20
286.67249349999827
 10
-529.8442713194987
 20
286.74146889999145
 10
-529.0870705388159
 20
286.48082147499684
 10
-528.8969324469732
 20
286.1356128624919
 10
-525.3580436093715
 20
286.7759565999939
 10
-520.3342729548393
 20
286.38233256250044
 10
-518.8158752708644
 20
285.9359821374917
 10
-517.7280275711506
 20
286.14522962499825
 10
-517.278914952841
 20
286.3944364187505
 10
-516.9895183316895
 20
286.9027983812417
 10
-515.5123709456126
 20
287.3612526625006
 10
-514.6339974148844
 20
287.4308912875015
 10
-513.6758303391456
 20
287.0422414374955
 10
-511.8294927869431
 20
286.693385087495
 10
-504.3240010854736
 20
288.1685632937481
 10
-502.9066666313247
 20
288.5970066437479
 10
-499.30371092482096
 20
289.1153169812493
 10
-496.84841584995905
 20
289.74322524999735
 10
-494.4431367613081
 20
289.90256505624797
 10
-493.055837680324
 20
290.74966918750107
 10
-491.71842567835904
 20
291.2480827749938
 10
-488.3848859799607
 20
291.4871753874957
 10
-486.08930690225696
 20
290.9889276062431
 10
-483.59405060132144
 20
290.86938129999805
 10
-481.45818752077577
 20
290.14182347499
 10
-479.66173704757415
 20
290.3809160874919
 10
-477.92509950631893
 20
290.072019043749
 10
-474.651372739867
 20
289.9624211124906
 10
-472.9347158116394
 20
289.5737712624964
 10
-472.41573550128294
 20
289.62351313750037
 10
-472.8448675065465
 20
290.0022146124962
 10
-471.5773231966285
 20
289.6036163874917
 10
-469.12215702895827
 20
289.9723694875008
 10
-457.3249585533699
 20
284.19186619374136
 10
-455.1392083938051
 20
282.48754374999663
 10
-454.8298311596077
 20
281.78983104999577
 10
-454.0179737342202
 20
280.8861869874917
 10
-452.3786611145466
 20
279.9089249499992
 10
-449.34122121071226
 20
276.7741919874944
 10
-448.0069029810704
 20
275.124253993749
 10
-445.45247828410976
 20
273.3600754937499
 10
-441.6907089307156
 20
271.7736412937426
 10
-440.24192112442273
 20
270.98672483124784
 10
-438.55169016830723
 20
270.59326659999454
 10
-437.6747346165583
 20
270.13630457499136
 10
-436.721594920888
 20
269.9205906437417
 10
-435.80661175075585
 20
269.80635013749975
 10
-430.1258011951173
 20
270.0094627937435
 10
-429.4396282711139
 20
269.7935830562419
 10
-428.6770133888245
 20
269.8570868499918
 10
-427.5967712127909
 20
270.13630457499136
 10
-425.97009149684783
 20
271.07559698124965
 10
-425.09326485227217
 20
271.38018306250115
 10
-421.91905442947547
 20
273.2823123624983
 10
-420.1053303940311
 20
274.9962515687494
 10
-417.73846564528304
 20
277.7985429999953
 10
-416.5347303899207
 20
279.886043687491
 10
-415.7132049259709
 20
281.81105424999635
 10
-414.94865643597257
 20
284.4913122812417
 10
-414.2979329867224
 20
288.3817901312422
 10
-413.7589720633382
 20
293.92966725624285
 10
-413.60956864064536
 20
303.3726648062512
 10
-412.9592319129516
 20
305.5992769374967
 10
-411.7048361354755
 20
307.3772173562417
 10
-409.9549211545868
 20
309.0780578687429
 10
-408.77799859285625
 20
309.8510466062399
 10
-406.3621491153751
 20
310.82499251874077
 10
-400.29165215181695
 20
312.2010185874897
 10
-397.6435119343274
 20
312.5720929749906
 10
-393.6945693542404
 20
312.5875129562441
 10
-393.53975182997755
 20
312.2474443374903
 10
-391.8518412030906
 20
312.2474443374903
 10
-388.15065822471905
 20
311.25791263749574
 10
-386.94279793957423
 20
310.747726806245
 10
-384.60429277062866
 20
308.9233606374994
 10
-384.23265336806463
 20
308.28948334374047
 10
-383.4428390706052
 20
307.5937603187511
 10
-375.3591986627358
 20
302.89348474374754
 10
-371.2245008349717
 20
302.01205871874396
 10
-370.24880238262534
 20
301.9347930062482
 10
-369.2577639757818
 20
302.073904449998
 10
-367.63172879574165
 20
302.9397446874962
 10
-365.51017441227054
 20
304.64058519999736
 10
-364.22484091139853
 20
306.44953138748946
 10
-360.84889075046965
 20
309.43354646875014
 10
-355.36053861592075
 20
313.1316890687415
 10
-354.41900056654
 20
313.56460918749644
 10
-351.82977093072907
 20
313.9728241749955
 10
-350.07057463279773
 20
314.05937503749374
 10
-344.89211536117597
 20
312.67406381874235
 10
-344.1976923775894
 20
312.2340140312483
 10
-343.95057731177684
 20
311.83309451874027
 10
-344.0124527586237
 20
311.30118806874486
 10
-342.61252077390907
 20
308.14722158125096
 10
-342.1293766598438
 20
306.35369537500054
 10
-342.054997216458
 20
302.420273706243
 10
-342.9222847296446
 20
299.4886533999937
 10
-344.1983369134923
 20
296.5941736937426
 10
-344.97874098673583
 20
293.22946746249823
 10
-345.33800529995256
 20
290.8295877999925
 10
-347.0477012404027
 20
285.96781693749847
 10
-347.39459046423536
 20
283.5553359999986
 10
-347.4719347727893
 20
278.31585849999686
 10
-346.8842469350002
 20
276.00916194999616
 10
-345.36713832283124
 20
272.58310740624177
 10
-344.75212216269904
 20
271.64132790625155
 10
-342.87974535994084
 20
270.112594281247
 10
-342.1964083939141
 20
269.3618235812505
 10
-340.63830729823036
 20
268.09241093124865
 10
-338.3558767529869
 20
266.97305293749497
 10
-335.49942253114415
 20
264.8164110437424
 10
-333.408290242376
 20
262.3865204500011
 10
-332.3832203397584
 20
261.84052046874416
 10
-331.2215088253701
 20
260.31162103749955
 10
-327.9276725386806
 20
258.42773042499164
 10
-326.7386327019309
 20
258.1138591937495
 10
-325.13953912271404
 20
257.9772348437433
 10
-321.9960086089668
 20
258.03195090624655
 10
-318.56553071052497
 20
258.7963177187488
 10
-314.4789152612262
 20
260.4480795812419
 10
-310.17380214028225
 20
262.94628234999215
 10
-308.42440278810494
 20
264.17474085624843
 10
-305.7045901780329
 20
266.5772734187499
 10
-303.3537099197216
 20
267.77837389374275
 10
-299.06226095994924
 20
271.16364009999177
 10
-297.44950321954263
 20
272.74692398124756
 10
-296.6840523792948
 20
273.7160615125012
 10
-293.6772923844916
 20
276.2820790374928
 10
-289.79576826003125
 20
278.6433258437448
 10
-284.9438308776397
 20
282.014664324996
 10
-283.39939394312756
 20
282.45139798749835
 10
-281.81667157588566
 20
283.9418303687412
 10
-278.8555447231276
 20
285.4185008312499
 10
-277.291256082761
 20
285.76122234999934
 10
-275.2752766804548
 20
285.63902314374684
 10
-274.15107715572
 20
285.3206751437495
 10
-273.1149212355426
 20
284.84149508124585
 10
-271.41308863313753
 20
282.9700399374919
 10
-264.5384686750455
 20
280.7316555625002
 10
-263.1853299970087
 20
280.0765550687407
 10
-261.244632388356
 20
278.20659218124234
 10
-260.7252653564614
 20
277.9200789812518
 10
-260.5749595835192
 20
277.524133656243
 10
-259.9736075845586
 20
277.07380388124665
 10
-257.60906316507567
 20
276.48684975624417
 10
-254.56131068675762
 20
276.21393266874753
 10
-253.27662172177025
 20
275.2993453937452
 10
-252.5931558485703
 20
275.2447951374939
 10
-250.8300923352396
 20
275.9546116937449
 10
-248.3153710499878
 20
276.55516193124134
 10
-246.2925595670958
 20
276.2548868124931
 10
-244.73445847141204
 20
276.62330829999837
 10
-243.81870185820372
 20
276.92358341874655
 10
-242.52034873204474
 20
278.0837297499939
 10
-241.72769847660874
 20
278.34305072499654
 10
-239.95084189491502
 20
279.3121882562502
 10
-239.19918412301206
 20
279.5305550874955
 10
-236.6979980917585
 20
279.54415120000124
 10
-236.20608828939868
 20
279.38050043124736
 10
-235.08536925854344
 20
278.3704087562482
 10
-234.44289586885816
 20
278.49327118749665
 10
-232.47486993786237
 20
278.31585849999686
 10
-230.69814226334182
 20
277.79721654999156
 10
-229.4543168747142
 20
277.0602077687409
 10
-229.1537053288297
 20
276.7735287624984
 10
-228.8256365534104
 20
275.83174926249643
 10
-226.6115268140431
 20
274.26206149374633
 10
-224.68449336658034
 20
272.1054195999938
 10
-223.49545352984887
 20
269.93518159374725
 10
-222.4293911436983
 20
266.91850268124364
 10
-222.0193374012129
 20
264.5569242624996
 10
-221.3111213492815
 20
263.2397594124934
 10
-219.5164755765971
 20
261.48337380625287
 10
-219.17384028973845
 20
260.51058853749197
 10
-215.45821970710085
 20
258.23158163124674
 10
-214.8991492634791
 20
258.05151604375135
 10
-214.49334945796778
 20
258.1415488374932
 10
-212.076339815854
 20
257.16876356874405
 10
-209.09136513463227
 20
257.66419264374906
 10
-207.43194299475772
 20
258.18664813750183
 10
-204.004945590177
 20
259.61888252499784
 10
-201.28139467186065
 20
260.96091831250016
 10
-198.24227897464567
 20
262.69939684374344
 10
-197.15997428371168
 20
263.04162094374885
 10
-194.74309354877113
 20
264.4377095687466
 10
-189.81007354959962
 20
268.79708749374845
 10
-186.52745218766148
 20
270.44536742499804
 10
-184.3810187182674
 20
270.33726174999526
 10
-183.13654879373684
 20
270.6615787749917
 10
-179.989151064572
 20
273.25545174999075
 10
-178.87977586564142
 20
274.4623554437425
 10
-177.65335294642972
 20
275.0207908937416
 10
-174.88468451477956
 20
277.72260373749145
 10
-172.84653307737204
 20
278.9203880874927
 10
-170.76326412664895
 20
279.7940212187495
 10
-168.99568886196113
 20
280.81173998124353
 10
-164.4054330568398
 20
281.9465179562507
 10
-162.15986996532854
 20
282.0995571249984
 10
-160.66274196620554
 20
281.7392601437439
 10
-156.6947211233586
 20
282.729952487502
 10
-152.91606492925985
 20
283.1081565437419
 10
-152.04117189239298
 20
283.06322304999696
 10
-149.74159669209837
 20
283.4054471499906
 10
-146.0349996121202
 20
283.45949998749785
 10
-143.73065484612187
 20
283.72114224999234
 10
-142.90281293031592
 20
283.49249543124466
 10
-141.17674577789086
 20
283.4044523124908
 10
-136.45616481285487
 20
283.6859913249939
 10
-134.67711680906916
 20
283.4044523124908
 10
-128.5826431098742
 20
281.5577022999928
 10
-123.29847994989592
 20
279.6227433625007
 10
-116.86936320906072
 20
278.2858475687496
 10
-108.78456263655869
 20
275.4187258937501
 10
-106.98798325618377
 20
274.92611552499267
 10
-103.11290449075285
 20
273.3605729124939
 10
-100.59405817571854
 20
271.9180585374956
 10
-99.1145904603763
 20
271.4607649000003
 10
-96.12020555495704
 20
271.249693543746
 10
-93.70706312826084
 20
270.35251592499685
 10
-91.92801512449341
 20
270.37009138750193
 10
-90.90642571575538
 20
270.17659549374093
 10
-90.0962440837119
 20
269.824754631241
 10
-89.44448937702066
 20
269.2969933374969
 10
-89.07452576780057
 20
268.4878588375016
 10
-88.88077827488678
 20
267.57310575624734
 10
-89.14503799576873
 20
264.88140709374795
 10
-88.98648216324321
 20
264.42411345625266
 10
-86.62619168073441
 20
262.08425565624145
 10
-85.14930210900391
 20
260.358875818748
 10
-84.17540835721144
 20
258.9772123374921
 10
-83.30115985626581
 20
257.1535093937425
 10
-82.7035461655495
 20
256.46806635624364
 10
-81.8403836821637
 20
254.36796439374203
 10
-79.93694024879971
 20
251.91403189375256
 10
-77.7679480227479
 20
250.454771087497
 10
-76.58380665889344
 20
249.26096608749512
 10
-75.85341857184238
 20
248.89619233749715
 10
-72.83222097279135
 20
246.48636429999294
 10
-70.39767995407001
 20
245.1819665312446
 10
-67.144062707819
 20
243.95483447499205
 10
-64.598790420691
 20
242.59505741874452
 10
-62.83920740123991
 20
242.16396116874907
 10
-60.07260148449012
 20
240.98109938124546
 10
-54.603843241430766
 20
237.54841258749602
 10
-54.11683191194789
 20
237.57494158749972
 10
-50.91207048727509
 20
236.21300905000055
 10
-46.64472717033119
 20
233.42696663124428
 10
-43.95340304723494
 20
232.68398882499457
 10
-42.14741344264416
 20
231.67572101874313
 10
-41.48341255376049
 20
231.10965848124917
 10
-38.58841508482323
 20
229.6324905999964
 10
-38.38474173898222
 20
229.27882586874867
 10
-36.03863104637466
 20
228.23507552499493
 10
-35.339309589911124
 20
227.68658844999428
 10
-34.692968984826535
 20
227.5894259875016
 10
-32.04663018976849
 20
226.48265652717384
 10
-30.56302777213
 20
226.2187366978185
 10
-27.746160593832943
 20
225.3339103472592
 10
-26.792892402578868
 20
225.20629275625305
 10
-22.094366957499368
 20
222.58851300697677
 10
-17.393883120672637
 20
222.03458500000207
 10
-10.399895113070944
 20
221.56568492500074
 10
-4.5602709105420605
 20
221.72485892499944
 10
-2.587346506669267
 20
221.91586772499315
 10
3.8961690645240283
 20
223.13155915000337
 10
5.669158430800173
 20
222.97536966250422
 10
7.051043410195938
 20
223.56580571875028
 10
11.752803926800171
 20
224.70323659375313
 10
15.229301688843657
 20
226.06649558124423
 10
16.94144686573234
 20
226.99567380625214
 10
17.323785564318122
 20
227.4211326437524
 10
21.119715320659534
 20
229.09245964375032
 10
27.866072633737332
 20
233.24723265625275
 10
29.751984690493806
 20
233.967992425002
 10
33.01978172662773
 20
235.63500846249667
 10
36.76569549677667
 20
237.06757446249657
 10
38.555958425295486
 20
237.4321824062426
 10
39.642388146030214
 20
237.86626316874936
 10
42.527846483578344
 20
238.32654131874415
 10
44.4062819238461
 20
237.824148381252
 10
45.536024457360774
 20
237.8762115437478
 10
46.17050560180933
 20
237.7372659062499
 10
47.361221231903045
 20
237.9108650500022
 10
47.76972808821768
 20
238.1279054312438
 10
47.83044337043188
 20
237.98033786875115
 10
47.49154639179931
 20
237.528847450003
 10
51.558954671146566
 20
235.9573358124934
 10
52.636618703586684
 20
235.12382779374607
 10
54.4511562267369
 20
233.08845814911365
 10
54.34644555999334
 20
232.96597415065546
 10
54.555998239533785
 20
232.64930362137682
 10
54.73449228700612
 20
232.76520737871707
 10
56.04540617148731
 20
230.74637442197522
 10
57.10189273489107
 20
225.84201497149724
 10
57.62133048229469
 20
224.11744311250243
 10
57.58905744157565
 20
219.16857580162497
 10
55.78081942776688
 20
210.1452470071214
 10
56.06567862304944
 20
208.0261123562486
 10
57.256394253143164
 20
204.54368368749516
 10
58.186330656234446
 20
202.98029655624802
 10
59.50737144624274
 20
201.2172787000007
 10
60.48564804218253
 20
200.30103336250255
 10
61.05915609007036
 20
200.0556401124977
 10
62.28686808108792
 20
199.07870968749725
 10
62.97123630453736
 20
198.10161345624488
 10
63.568721088080416
 20
197.63470305625503
 10
66.64315735285695
 20
196.7769873249958
 10
67.33848268669297
 20
196.32102013750423
 10
68.3162436539214
 20
196.13647778125363
 10
70.38030543469297
 20
196.33196335000252
 10
74.54117142020424
 20
196.2992995187478
 10
75.31255199078832
 20
196.10397975625085
 10
76.431466321108
 20
195.28970526250444
 10
76.83339891118337
 20
193.93258110625254
 10
77.73510464168206
 20
192.48857447499856
 10
78.61502505858087
 20
190.24123656249643
 10
79.81411965543107
 20
187.99986767500513
 10
80.67986028244694
 20
186.91400254375404
 10
83.44672401356158
 20
185.31927803124415
 10
84.48223539783605
 20
184.36937402500322
 10
85.24601044473984
 20
182.9611815437554
 10
86.02693014671304
 20
182.31652684375015
 10
88.14874234454896
 20
181.2646519937457
 10
89.20114056950969
 20
181.16284695624591
 10
95.67080170489234
 20
178.6173784791371
 10
102.16984750525857
 20
176.64976663750042
 10
104.886824157354
 20
175.3838359187539
 10
105.43261716134226
 20
175.34802176874774
 10
108.19651602728874
 20
173.7345611500045
 10
110.09441645187282
 20
172.24761070000525
 10
112.42765520091693
 20
169.68225905337272
 10
113.94625956973414
 20
167.60246998621392
 10
114.89099996540435
 20
166.0890784821909
 10
115.51678425805417
 20
163.95904421867604
 10
116.11894393564035
 20
161.20706598660252
 10
116.41006543726338
 20
158.59089048134473
 10
116.52095504909627
 20
152.99203346875518
 10
115.23948876364187
 20
147.23507466249993
 10
115.35421615465775
 20
143.25157950624626
 10
114.98367952097362
 20
140.38828733444757
 10
116.14952643867159
 20
136.86039005440495
 10
116.41199210386321
 20
133.10229349397898
 10
116.74786442178146
 20
131.21546843610992
 10
117.45904614613191
 20
129.01576717571544
 10
118.11757785875567
 20
127.9862767115397
 10
118.85511655965246
 20
127.23929189746661
 10
119.05939300852785
 20
127.08830127308747
 10
119.91340532917329
 20
127.08215400624876
 10
119.81532397349558
 20
126.64393315851788
 10
119.9980754441998
 20
126.55932808074776
 10
120.10509030720499
 20
127.03705470625188
 10
120.4885891704234
 20
127.13056943124904
 10
120.88949050305774
 20
127.08812303124783
 10
121.25919629791298
 20
126.81752723125479
 10
122.0129165847163
 20
126.85052267500159
 10
122.91268870748785
 20
126.32077170625783
 10
124.63773363538995
 20
124.47837628324721
 10
125.07302913076188
 20
124.20137954889802
 10
130.7995856734809
 20
121.79246693762151
 10
134.60004773702852
 20
121.11202045132215
 10
145.5833927635411
 20
119.74154557901015
 10
162.66992212771993
 20
113.85821168612053
 10
165.34904757826556
 20
112.44042659394451
 10
174.17817220624937
 20
109.1805506124991
 10
178.77770932841332
 20
108.0306842687541
 10
180.70964124875303
 20
107.77766393125438
 10
182.8253948090794
 20
107.66259439375273
 10
188.03266775583725
 20
107.96868479437582
 10
191.32218511363288
 20
108.31308168974373
 10
198.0648017365907
 20
109.54499275000497
 10
201.19982437638987
 20
110.66368751875092
 10
205.18859927537733
 20
112.69497988749951
 10
206.73832140430454
 20
114.30412954375127
 10
211.02036013987936
 20
117.73383182500119
 10
211.60201679891526
 20
118.49765252130979
 10
211.78036984769034
 20
119.66676778809378
 10
210.83830843182565
 20
126.26091051737504
 10
210.52438966247092
 20
130.2460550067383
 10
210.7471230697425
 20
132.56265609694535
 10
211.5669366013603
 20
134.69566547336882
 10
209.87447418127374
 20
135.78853263947275
 10
208.8448377269711
 20
136.12318024682497
 10
207.7613343041927
 20
136.70290892167878
 10
207.2617545701578
 20
136.75186755507008
 10
203.2515732176439
 20
138.7881272200202
 10
202.6052047215386
 20
139.29442312558237
 10
201.84617929045572
 20
140.6602104039363
 10
203.22882340396453
 20
141.24184195000205
 10
201.8192406990723
 20
140.72893201827128
 10
201.52831268764623
 20
141.45589983398185
 10
201.68500758757366
 20
142.2938323744364
 10
200.39518747406262
 20
143.35568439141508
 10
195.38615684849387
 20
144.96935883896117
 10
193.9314075411125
 20
145.71501568957734
 10
193.07498427183964
 20
146.99211395023744
 10
192.33670394589285
 20
149.53976206275618
 10
191.68642095122024
 20
154.25423505170158
 10
190.3893337789329
 20
157.5837511973766
 10
190.02137555032218
 20
158.3951140336763
 10
189.5250742067576
 20
158.95534328223255
 10
187.49700815680515
 20
160.60684298148246
 10
186.7562537175869
 20
161.56950040483096
 10
185.27870711456444
 20
164.22370562966177
 10
185.0097606538167
 20
165.41515002238916
 10
182.88459089738538
 20
165.131737588086
 10
181.3567612617515
 20
165.20402194859398
 10
180.35171562303105
 20
165.29292717516705
 10
178.7916230523811
 20
165.74910554488153
 10
177.0712895939562
 20
167.68451963350427
 10
175.655628867738
 20
168.8259928907986
 10
174.07267636015501
 20
169.70505035163984
 10
172.9355665900623
 20
171.09302740651734
 10
172.6971841783427
 20
172.04439429813615
 10
172.9620930167507
 20
173.71072282004718
 10
171.9302816619422
 20
175.49760437097757
 10
171.9564666898521
 20
176.39434416899184
 10
172.20898521388375
 20
177.26150089821462
 10
172.59711062137725
 20
177.57768274135583
 10
172.74054745910576
 20
178.49951846943816
 10
166.26194956843193
 20
180.19079364271792
 10
165.6008020854548
 20
180.8076844326146
 10
165.14900584447386
 20
181.65844524273413
 10
165.1825679052332
 20
182.57471890959212
 10
164.73843464799512
 20
183.84663396364365
 10
163.75873745411369
 20
185.07954809433096
 10
162.21487077455646
 20
185.83416878821183
 10
161.3304824823668
 20
185.8775240957001
 10
160.87135041235592
 20
186.11590485429974
 10
160.2862441507212
 20
186.09737360097495
 10
156.35008206823582
 20
186.87136079511797
 10
155.1175110325194
 20
187.75525788747976
 10
154.58964450954326
 20
188.51201857054585
 10
154.33109481973588
 20
189.2919015673345
 10
154.04660218037617
 20
191.83131498978383
 10
152.4370006280347
 20
195.1207838296406
 10
151.95142675834637
 20
195.69876007071568
 10
150.4679151943459
 20
196.5123766943139
 10
151.89847209826655
 20
199.1493270056859
 10
153.94418133326866
 20
197.97061572928143
 10
155.03772042976942
 20
196.63452462034937
 10
157.00195677734504
 20
192.5935201488222
 10
157.32555059203614
 20
189.83356456250985
 10
157.78781375616677
 20
189.5993127048914
 10
160.56852665710477
 20
189.10781819903383
 10
161.36509113072015
 20
189.1330466729333
 10
162.1315649666073
 20
188.84185539181004
 10
163.2927781804878
 20
188.67599217624297
 10
164.8389720824318
 20
187.92042058066124
 10
166.12142251637508
 20
187.0452594598899
 10
167.57747361479977
 20
185.02409586135
 10
168.17891667775234
 20
182.7239629268682
 10
173.47524244746154
 20
181.44965338339765
 10
174.31132209727235
 20
181.08928671623354
 10
175.11838984609045
 20
180.49639914399282
 10
175.7152933372744
 20
179.02360576702924
 10
175.76411695467968
 20
178.2845557153426
 10
175.50254207403216
 20
176.6942557775173
 10
175.16880407051144
 20
175.9250269484609
 10
175.8606375763003
 20
174.6643648299459
 10
175.99500724164577
 20
173.66806999135554
 10
175.83030632521968
 20
172.25253410737878
 10
176.07779819631673
 20
171.96947512337175
 10
177.55076228367153
 20
171.17078005125907
 10
179.11539261593484
 20
169.9158146664923
 10
180.42952027568435
 20
168.348713094327
 10
182.84973057399188
 20
168.13674262442404
 10
185.49958704589469
 20
168.56181695683924
 10
186.2275184772561
 20
168.5466359581906
 10
186.9892658280189
 20
168.2371486630255
 10
187.59130280738276
 20
167.6825465068964
 10
188.08642331704232
 20
166.41784535099018
 10
188.07866940725637
 20
165.31380234533856
 10
189.24990755766316
 20
163.24816685767277
 10
189.6296143349169
 20
162.7547137935172
 10
191.66238229807243
 20
161.0668756177629
 10
192.56678638231702
 20
160.04597646631498
 10
193.17078829779
 20
158.71412771511592
 10
194.62354910873947
 20
154.87882418580352
 10
195.307455436517
 20
150.12111772475302
 10
195.5652114585748
 20
149.59198264861612
 10
195.8981113041304
 20
148.04490412450468
 10
202.12254025642093
 20
145.8706764710916
 10
204.43162535289466
 20
143.927250626392
 10
204.70122455564504
 20
142.59704083796578
 10
204.646524022266
 20
141.74013779957923
 10
205.03681337358944
 20
141.2840705799841
 10
206.86023860389352
 20
140.3460751939841
 10
207.29126896509476
 20
140.27864092197137
 10
208.19193075562512
 20
139.6750820956091
 10
208.8644038524011
 20
139.53290953635357
 10
209.93427306133657
 20
138.93238365317808
 10
211.19557502620717
 20
138.49404252302156
 10
213.3823186601119
 20
137.08985291197774
 10
215.9720055392193
 20
136.1966834333713
 10
218.96053068349875
 20
134.3249637728701
 10
226.2102182961718
 20
130.66752674747917
 10
230.74095099817112
 20
127.63060531349215
 10
234.7842842489868
 20
124.51423514972478
 10
239.21829033582918
 20
122.02672144375362
 10
241.45547446058396
 20
120.95229694375664
 10
245.10483675222747
 20
119.98597811875061
 10
246.73448133332033
 20
119.25129062500353
 10
248.85397320189105
 20
118.82732404374715
 10
249.86189844945756
 20
118.45989739375354
 10
254.74177215347825
 20
115.75079365498134
 10
255.88121926217224
 20
115.32300894999712
 10
256.7189208187044
 20
114.65282771773775
 10
259.0956682735654
 20
113.33295339934945
 10
262.9240150637526
 20
113.35034510246719
 10
265.8433154303049
 20
114.00565063782766
 10
268.3103207386157
 20
115.44819266874916
 10
269.47052204158115
 20
115.8674911953408
 10
272.9878467052182
 20
118.64841910000352
 10
274.62703041770027
 20
119.48673549999815
 10
275.59718586124836
 20
119.79762221875257
 10
279.73265713212527
 20
120.27796292500798
 10
281.0325571444367
 20
120.12724504375208
 10
282.36683297469733
 20
119.72611811706683
 10
285.3563597645016
 20
117.97048885628817
 10
287.62396802606
 20
116.36593026250296
 10
290.1014351360232
 20
112.3527557875059
 10
290.393538807978
 20
111.41081048125194
 10
290.51600062984744
 20
108.85772584375833
 10
290.09202491182566
 20
107.55763903750147
 10
289.14068991667267
 20
106.65333175000146
 10
288.1520843652833
 20
106.35137171909861
 10
287.9395687371673
 20
105.664866692311
 10
288.1684323792083
 20
103.91893727340528
 10
289.15223694769077
 20
101.64748296979158
 10
291.3448738031127
 20
98.83357738750645
 10
292.143650546511
 20
98.11955711215055
 10
295.99519245471527
 20
96.2379205340413
 10
302.43218043342574
 20
94.41467501875408
 10
305.5407771011312
 20
94.49956781875652
 10
307.4435759985922
 20
94.97062337499769
 10
311.268123149101
 20
96.41214291250797
 10
313.59489776456553
 20
96.789020518756
 10
315.57310736285336
 20
96.73248058750502
 10
317.53236760555455
 20
97.90091723125498
 10
318.81357607664415
 20
99.01264813750203
 10
322.1199163598909
 20
102.83763251875297
 10
322.86409751528686
 20
104.005903356251
 10
323.9208785844131
 20
106.9574204125089
 10
323.98687906104243
 20
107.79573681250352
 10
322.75285061816874
 20
110.556079262504
 10
322.7622608423663
 20
111.52637743749763
 10
321.0195646636198
 20
113.97583316875547
 10
320.88769261753447
 20
114.58815564999811
 10
319.4463814277487
 20
115.72790781250451
 10
316.7899911506759
 20
116.64166605624716
 10
315.3582190922792
 20
117.69669122500306
 10
315.15093634536714
 20
118.14884486874718
 10
314.11478042518974
 20
118.93078714375454
 10
313.1915471954927
 20
119.48656969375799
 10
312.6358283385772
 20
119.56184573125407
 10
314.2372422470592
 20
118.34681753125157
 10
314.14301109781894
 20
118.16774678125601
 10
313.8226767532533
 20
118.27137568750355
 10
311.2227478214206
 20
120.34378800624965
 10
310.874311711399
 20
121.1162793250026
 10
310.7612601137454
 20
121.7378869562477
 10
310.8554912629856
 20
122.21839346875507
 10
310.52574669422233
 20
123.12253495000314
 10
310.6952596371161
 20
123.83848633750512
 10
310.6670289645052
 20
124.86532444374971
 10
310.81772145898555
 20
125.11950542500122
 10
310.6952596371161
 20
125.51462171875032
 10
310.42210532076626
 20
125.8725974125013
 10
309.442410745829
 20
126.30584914374838
 10
308.93374300993787
 20
126.27749627499692
 10
308.6511784693906
 20
126.77673889374938
 10
308.2083823029554
 20
128.5099116250014
 10
308.2367418827579
 20
131.34519850000586
 10
308.4344854982626
 20
132.07043503749853
 10
308.9525634583513
 20
132.79567157500296
 10
309.206897326306
 20
132.56951184999903
 10
310.00766873413363
 20
132.63550273750442
 10
310.27141282628594
 20
133.982346906254
 10
311.1192353551379
 20
135.77189376250504
 10
313.1350858502525
 20
138.0983212562507
 10
316.7687990909154
 20
140.40783654746483
 10
319.3690846828976
 20
141.76103669403452
 10
324.62276971824565
 20
143.97261625401978
 10
331.8431272017805
 20
145.77415579374858
 10
334.5466975070692
 20
146.00014971250056
 10
335.29087866246505
 20
146.35812540625153
 10
336.2610341060315
 20
146.53703035000694
 10
338.2392437043194
 20
146.39576342500547
 10
339.24716895186754
 20
146.1885056124986
 10
340.23308585611943
 20
145.46186349465316
 10
341.2735312991787
 20
145.0964228046055
 10
344.277513872639
 20
144.69110936875686
 10
346.2651336951244
 20
143.62679904999848
 10
346.7832116552131
 20
143.21244923124846
 10
347.29187939110426
 20
142.2612187750038
 10
347.64044440828087
 20
141.9597830125038
 10
349.7221664728516
 20
140.59420273749737
 10
350.23083420872445
 20
140.44348485625324
 10
351.8228378930089
 20
138.8519106625066
 10
352.24681361103063
 20
138.63520189375708
 10
353.346262957034
 20
136.66194171250336
 10
354.4146456724315
 20
135.86474526250623
 10
356.05692315727333
 20
134.2385175625052
 10
358.8313924120499
 20
132.56453766249982
 10
360.25053156671606
 20
131.79917601249772
 10
362.4829461257671
 20
130.93830996249878
 10
365.0501326336499
 20
130.22086631875294
 10
371.1889504030842
 20
125.7406156375023
 10
372.5124404295127
 20
125.34185160625769
 10
373.62864770904736
 20
125.31001680625089
 10
375.526161412075
 20
125.70861503125533
 10
380.43726719049175
 20
127.89294656875161
 10
381.05911543122807
 20
128.35538019999805
 10
384.71054023775366
 20
132.83563088124868
 10
386.2731530847763
 20
134.39802317500775
 10
388.01120860502897
 20
138.06499420000003
 10
389.3665387051578
 20
140.52008734375306
 10
389.8768822343746
 20
141.7316336125002
 10
390.1000205645502
 20
142.72017047500668
 10
389.5898059424884
 20
145.71711844375355
 10
389.57382145205156
 20
146.7054894999963
 10
388.56937669838294
 20
151.07348935000468
 10
388.346109461034
 20
153.00231345624573
 10
388.2663159160599
 20
155.72816820625553
 10
388.0750176595846
 20
156.6208690562495
 10
388.3939340251528
 20
159.3783928000024
 10
389.19122493910095
 20
161.49839151250086
 10
389.57382145205156
 20
163.25179260625362
 10
390.14797403584237
 20
164.55867746874569
 10
391.152418789511
 20
165.75414053125516
 10
391.2640524081855
 20
166.32799596249598
 10
392.1091678862524
 20
166.93368619375536
 10
394.9419031868047
 20
167.97627589374554
 10
396.3161826425202
 20
168.20740980624868
 10
406.84261412869415
 20
168.9419314937556
 10
407.76739424456196
 20
168.5753338749981
 10
409.01109072599803
 20
168.54349907500307
 10
411.62610179799964
 20
167.95372624375298
 10
416.0269929543728
 20
167.3798708125004
 10
417.11136016020714
 20
167.04527380000164
 10
419.6625621776532
 20
166.83801598750657
 10
421.8630077558306
 20
165.30795591249833
 10
424.5736679560699
 20
164.25591525625373
 10
425.99280711073607
 20
163.21979200000666
 10
428.2410772530323
 20
161.92882453750033
 10
429.30945996844815
 20
161.00428888749957
 10
432.7855710089352
 20
159.3943101999999
 10
436.0382859049184
 20
158.15109493749787
 10
441.6032089049268
 20
157.2106418874996
 10
443.14996616870417
 20
156.8120436625069
 10
443.8356234639778
 20
156.19043603125002
 10
444.68061003485315
 20
155.8238384125043
 10
445.44606087511926
 20
155.23389977500227
 10
447.7103155078523
 20
154.45295233750656
 10
450.4847847626289
 20
152.89072584999943
 10
450.89935025645315
 20
152.54004563125122
 10
451.32990024069585
 20
151.83868519375483
 10
453.3070785815427
 20
150.5314687187471
 10
454.58261513667907
 20
149.89377788125256
 10
455.427730614746
 20
149.04899503750306
 10
456.1771969645753
 20
147.99678857500652
 10
457.2671071791895
 20
146.11455602500624
 10
457.3216349167209
 20
145.5625870187502
 10
458.10616401974687
 20
144.81728792499695
 10
459.68501917157107
 20
143.71102862500496
 10
460.000197228895
 20
143.01480818124793
 10
462.03383691498203
 20
142.21728011874694
 10
463.1612591192498
 20
141.3650359937545
 10
463.7192983054121
 20
140.80709796249943
 10
464.1498482896732
 20
139.9939841125048
 10
465.28191115243476
 20
139.45196348124722
 10
466.07920206638283
 20
138.86202484375698
 10
467.38670760239285
 20
138.33592161249695
 10
473.15891334929495
 20
137.74598297500668
 10
474.8649998886924
 20
138.03299359375305
 10
482.90146026832764
 20
140.1214891187486
 10
485.5961359781301
 20
140.2330767250067
 10
488.21114705013173
 20
141.1418607812501
 10
491.14507448771997
 20
143.26219110625246
 10
492.1816171294355
 20
143.50128371875437
 10
493.17020629985893
 20
144.44190257500458
 10
494.52553639996944
 20
146.1954694749975
 10
494.57336096408824
 20
147.10408772500077
 10
496.2635919202221
 20
149.49534546250004
 10
497.73055563900704
 20
152.33278781875615
 10
498.4002284438439
 20
154.1500243187509
 10
499.0699012486991
 20
154.81954995625225
 10
499.95755609645147
 20
156.8709048812497
 10
500.6759558156932
 20
157.73608189375187
 10
501.08407595045145
 20
158.7072091000052
 10
501.8760816699845
 20
159.69475112500007
 10
503.55316409365815
 20
163.25146099374976
 10
504.956447665079
 20
165.4064448250065
 10
506.7295659385284
 20
166.93650490000294
 10
507.7372333717301
 20
167.39562240624596
 10
508.51531711572665
 20
167.98224491875638
 10
509.33181519962625
 20
168.88754704375623
 10
512.5972919065134
 20
170.5578792062543
 10
514.8935155201017
 20
171.2718409187448
 10
519.7152886221552
 20
172.3557163749962
 10
520.8505741644498
 20
172.08793928125075
 10
521.5139305174305
 20
172.20267720624852
 10
522.1007160049518
 20
171.8073951062475
 10
523.5166324800849
 20
171.76909386249758
 10
526.0552015938003
 20
170.8510246562517
 10
528.4405000694238
 20
169.2828291437455
 10
530.0606055191275
 20
167.38285532499992
 10
530.5835819520933
 20
166.35004819375627
 10
531.5913782924682
 20
162.95814973750043
 10
531.7188674943878
 20
159.6937562875002
 10
531.0301164267728
 20
156.88831453750285
 10
530.6601528175527
 20
155.7406036749977
 10
529.9712728427644
 20
154.41431948125276
 10
529.2952835860531
 20
153.21570610000362
 10
528.3512963002338
 20
152.13166483750027
 10
527.1139162706539
 20
148.02530724999815
 10
525.7618088500581
 20
144.51817345000052
 10
525.8127271865183
 20
143.5361030312489
 10
526.1954526066422
 20
142.60510093750503
 10
526.8205235268932
 20
142.04384678124654
 10
527.6624163254271
 20
141.71223428124733
 10
528.5936418003427
 20
141.87804053125285
 10
529.4993436534322
 20
142.33715803749587
 10
533.594080255141
 20
145.72971971874765
 10
536.2601385707761
 20
148.7139006062485
 10
538.0460186551476
 20
151.6853144125033
 10
538.377696831638
 20
152.66721902500294
 10
540.7374716854172
 20
156.50579951874786
 10
542.0897080132046
 20
159.31124126874522
 10
542.3703389460431
 20
160.22931047500288
 10
544.2455517067777
 20
163.25146099374976
 10
547.0518610352548
 20
166.40111651875222
 10
552.9835249649685
 20
175.36476820000493
 10
554.4249650619275
 20
176.86929411249753
 10
555.7387870497936
 20
178.53946046875544
 10
556.823154255628
 20
180.1714913875036
 10
559.4840562840396
 20
185.8026032499991
 10
560.014767147859
 20
186.52054431250076
 10
561.043317544356
 20
187.16519901249424
 10
561.3291047644364
 20
187.81781241249826
 10
561.5659072557836
 20
190.15949408124544
 10
562.3332917037584
 20
192.59087693125414
 10
562.7577830504915
 20
193.55371382500482
 10
563.6803717442857
 20
194.85910643125302
 10
564.292680853633
 20
195.12837578125414
 10
564.5783391665217
 20
195.6340848437497
 10
564.9702169964967
 20
197.2006222937483
 10
564.6844297764163
 20
198.19595721250172
 10
564.5293544377886
 20
199.97439505000256
 10
564.2844307940496
 20
200.51293375000478
 10
563.6884928966957
 20
200.8881532937452
 10
562.806767779243
 20
202.25058325000018
 10
562.1699663055293
 20
204.0454359062543
 10
561.1740294258086
 20
207.94486729375345
 10
561.0923022731074
 20
209.27463341875372
 10
559.7860858089034
 20
214.29972343749773
 10
559.696366411002
 20
215.490709731252
 10
559.8840552664062
 20
218.0437943687456
 10
560.4228872826171
 20
219.43872235000336
 10
560.2759330963811
 20
220.21370076250003
 10
561.2147640949769
 20
223.84336538125405
 10
561.9985197549266
 20
225.62976191875362
 10
562.8966160843358
 20
226.94294741874862
 10
564.7987704458941
 20
229.52853008124498
 10
565.2151406402355
 20
229.44695340624597
 10
565.5009278603159
 20
229.74872078124983
 10
566.7336672313836
 20
232.8481370124925
 10
567.6153923488363
 20
237.2685316375005
 10
569.2726230666555
 20
242.21900884374438
 10
569.852318659208
 20
245.2773051250013
 10
570.172008467889
 20
246.24594523749911
 10
570.1512544117485
 20
246.95410373124247
 10
568.8026274850505
 20
247.49695339374793
 10
569.444069617258
 20
247.44107668749294
 10
570.5298548020899
 20
247.62595065624743
 10
571.0605656659092
 20
248.6942403249934
 10
571.2891180976732
 20
250.09696119999796
 10
572.3177974013618
 20
252.47810475624684
 10
575.2486310665903
 20
255.6257706062496
 10
576.1793409127761
 20
256.41683222499574
 10
577.9182987832966
 20
258.74077262499765
 10
578.9550992393769
 20
259.686697281251
 10
579.9918996954573
 20
260.9668873374992
 10
581.9757812097166
 20
262.94827202499187
 10
583.5759060463744
 20
264.17142473124505
 10
586.3895630841669
 20
265.40120968749324
 10
587.2801827970874
 20
265.5137921312512
 10
588.460714759889
 20
265.92781033749736
 10
590.0649646263477
 20
266.72384614374266
 10
590.4832684284163
 20
266.7031203624979
 10
590.991549442751
 20
266.99659742499915
 10
592.4714038796312
 20
267.0552928375017
 10
595.2408457543577
 20
268.35720351249455
 10
598.7952034536664
 20
269.3621551937426
 10
601.5405396855826
 20
269.4069228812474
 10
601.6996111468195
 20
269.4828621437512
 10
601.6788570906974
 20
269.9111396874991
 10
603.6323165102539
 20
270.12171362499754
 10
607.7641783800414
 20
269.956073181244
 10
609.6312699883844
 20
270.38070298749636
 10
611.5121546650907
 20
270.5637530874913
 10
612.1690656590237
 20
270.4808499625003
 10
612.2520818835308
 20
270.3254895062491
 10
617.8394347330236
 20
270.39794683749756
 10
623.6100935937551
 20
269.7385353812466
 10
625.6742842817182
 20
269.1479335187486
 10
626.0027397786756
 20
268.88546222499446
 10
626.4280045685216
 20
268.89938994999227
 10
626.8187222338639
 20
268.5609793937461
 10
627.0400558634857
 20
268.59546709374854
 10
628.0116292860313
 20
268.06372644999334
 10
628.2605490523792
 20
267.6941443187481
 10
628.7065678983292
 20
267.7253158937471
 10
629.2459155432697
 20
267.34545377499956
 10
629.9375025688614
 20
267.16240367499285
 10
633.0596344905834
 20
265.6948525562464
 10
633.8583433835107
 20
265.1387383937509
 10
634.128017205981
 20
265.24933116249736
 10
637.2052894287341
 20
263.7506084687519
 10
638.1325187810404
 20
263.4725513874924
 10
644.9087825600915
 20
259.67558826250075
 10
646.5440990571558
 20
258.5152761250015
 10
647.7647211532044
 20
257.8936684937446
 10
649.6456058299107
 20
256.4639211999923
 10
651.5092169443742
 20
254.443572043742
 10
655.5994417947257
 20
251.3594099875009
 10
659.3632736630203
 20
249.73450873749178
 10
659.7693312828965
 20
249.3460246937495
 10
661.8715495892245
 20
248.6103423625026
 10
665.7853005089232
 20
246.547712612503
 10
666.5232941196546
 20
246.3240399812428
 10
667.8246121109635
 20
245.43664493125192
 10
670.9072984353232
 20
244.27566956874492
 10
677.3383487838855
 20
242.61777287500078
 10
680.0214228473985
 20
242.20342305625076
 10
685.3875709744428
 20
242.0651406437488
 10
687.4067730562638
 20
242.17573341249525
 10
691.1824643851943
 20
243.00476466249918
 10
693.0633490619006
 20
243.75072698124842
 10
696.5486125122387
 20
244.82830179999686
 10
698.1390693103341
 20
243.9302951499998
 10
700.6976190370956
 20
243.2672359562533
 10
701.6243327606721
 20
243.75072698124842
 10
701.8179513464127
 20
244.28959729374273
 10
700.8636514861098
 20
244.05464983749215
 10
699.3837970492294
 20
244.56583050624275
 10
698.8859575165516
 20
244.93889456874334
 10
698.8167343603893
 20
245.21512778124335
 10
699.2454796441148
 20
245.56050220000023
 10
699.3422889369851
 20
245.96125590624453
 10
698.7337181358822
 20
245.74023617499176
 10
698.3188948277115
 20
245.07701117499334
 10
698.0007519052193
 20
244.93889456874334
 10
697.5304985092496
 20
245.4915267999953
 10
697.8762275684495
 20
245.8369012187522
 10
699.2454796441148
 20
246.36184380624866
 10
700.0614620992848
 20
246.41705728749594
 10
700.6008097442252
 20
246.22372719999865
 10
699.8263354012997
 20
245.39469594999474
 10
702.0530780443977
 20
247.1078061249979
 10
703.6158197985934
 20
248.00581277499498
 10
704.0168500384194
 20
247.99205085624908
 10
703.9477557894487
 20
247.55001139374357
 10
703.4084081445081
 20
247.30130201874712
 10
703.2838838077566
 20
246.92823795624653
 10
703.5467255496228
 20
246.49996041249867
 10
705.662736924314
 20
249.09731531875303
 10
706.0084659835323
 20
249.67747138749678
 10
706.0775602324848
 20
250.23010361874876
 10
708.2350797194387
 20
251.88783450625272
 10
710.3925992063743
 20
253.28325990624273
 10
712.0107710483692
 20
254.73356717499968
 10
713.0203720892796
 20
255.38286445000028
 10
714.4173392088261
 20
256.7229105625029
 10
718.0685062010052
 20
259.499502024993
 10
721.235497821678
 20
262.814632187497
 10
722.1760046136177
 20
264.2098917812469
 10
724.6525693733131
 20
269.76887792499775
 10
725.5647165854504
 20
270.754264468741
 10
727.0718993446922
 20
274.8592956062512
 10
728.0399922733399
 20
276.9035208624977
 10
730.9028918542302
 20
281.889314799992
 10
731.9402079390403
 20
283.17381581874344
 10
733.9316949769617
 20
284.8172873687457
 10
735.3838343699424
 20
286.26742883125075
 10
736.7530864456076
 20
287.12365230624255
 10
737.8491842049048
 20
288.09030274374066
 10
738.7100263590436
 20
288.4908906437448
 10
740.1207865469532
 20
288.33204825625
 10
741.3759557675055
 20
288.69798264999974
 10
743.1702148186151
 20
289.9133424624943
 10
745.5490679351909
 20
292.2886827999961
 10
744.0693424054839
 20
292.06766306874334
 10
741.2340289613197
 20
290.36914384374575
 10
740.3489522571608
 20
290.1758137562485
 10
739.4499535774838
 20
289.65103697499217
 10
739.063747663462
 20
289.6036163874917
 10
738.4858567714269
 20
289.06109833749014
 10
738.2338432327558
 20
289.016662262501
 10
738.082764016719
 20
289.1832975437426
 10
739.8668394005549
 20
290.71617632499846
 10
740.2797291010168
 20
290.7213163187496
 10
743.7234844391105
 20
292.8963627062434
 10
745.2102998637499
 20
293.07593087499475
 10
747.6097781292563
 20
294.5396684499937
 10
748.6470942140662
 20
294.73299853749097
 10
749.3939824202837
 20
295.1611102749987
 10
751.8729964164177
 20
295.9516744750008
 10
753.0381884246855
 20
295.91370484374295
 10
752.916757860257
 20
296.05364531874073
 10
752.3013549785868
 20
296.08680656875123
 10
752.9257813629348
 20
296.19159611875057
 10
752.9828872440779
 20
296.3520965687412
 10
752.8599097934788
 20
296.70542968749686
 10
752.0169857374855
 20
297.0647318312397
 10
751.7672925280611
 20
297.38208499374906
 10
751.7397063913531
 20
297.7272936062422
 10
752.1165020811591
 20
297.28193801874505
 10
752.8596519791139
 20
297.02228543125034
 10
753.2628736410135
 20
296.27615730624916
 10
753.6017706196278
 20
296.1726942062418
 10
759.5452940099775
 20
297.70209105624224
 10
766.5572001157432
 20
298.1439647124958
 10
774.2053920664746
 20
299.2348040312461
 10
775.7475086717398
 20
299.53176302499094
 10
777.760265394513
 20
300.36643168749004
 10
779.5295164525448
 20
301.7955157562464
 10
784.3693365599172
 20
306.8264089937493
 10
787.1768060530085
 20
310.59601408748927
 10
789.8115399236913
 20
314.93847977499377
 10
794.5483631935106
 20
320.174806956244
 10
795.1154258823507
 20
320.59247289999746
 10
795.2848099180712
 20
321.05822265624727
 10
796.871786222287
 20
323.3674062999917
 10
799.3059405194703
 20
328.43411368748906
 10
802.7289418014235
 20
333.9494927874987
 10
804.0704788331892
 20
335.4059348874948
 10
805.3844297282285
 20
336.50324064998824
 10
805.737119775206
 20
336.68977268123854
 10
806.4699570986955
 20
336.6688810937418
 10
806.4873595681297
 20
336.85889505624743
 10
806.1796581272763
 20
337.1314805312402
 10
807.441530521241
 20
338.13858769373985
 10
809.1296989624745
 20
338.9173796499957
 10
811.5767439777348
 20
339.43618740624123
 10
815.3119584518804
 20
338.66369608748823
 10
815.9749280833047
 20
338.8223726687429
 10
817.6280337713414
 20
338.61196453749636
 10
821.9638268013348
 20
337.77033201249833
 10
824.8473515311741
 20
336.7418358437461
 10
825.1862485098067
 20
336.7625616249909
 10
830.5248105001248
 20
335.2439421812486
 10
831.0364431011658
 20
334.80223433124695
 10
832.3088858839607
 20
334.2673433687402
 10
834.0263162552644
 20
333.2363601062443
 10
834.2375951247674
 20
333.2448162249989
 10
834.9987920280595
 20
332.45889459999216
 10
835.5779719919004
 20
332.3123218749993
 10
836.3316922787037
 20
331.2425399499977
 10
836.8157387430367
 20
331.02848408124385
 10
837.0578264287808
 20
331.297753431245
 10
836.9472240675657
 20
331.6704858812417
 10
839.2636861085648
 20
330.31070882499415
 10
844.5901308238821
 20
326.38093489374387
 10
844.9566139392226
 20
325.84256199999356
 10
844.8875196902519
 20
325.41461606874964
 10
845.6412399770552
 20
325.51128111249824
 10
846.7199352669363
 20
324.67594922499137
 10
846.8720457404141
 20
324.17886208749053
 10
847.0795863016727
 20
324.3998818187433
 10
856.3181061433447
 20
316.1573215187437
 10
860.0177422355456
 20
313.5753865937428
 10
862.3830600981046
 20
312.1383438249995
 10
863.518603454764
 20
310.89977113749285
 10
869.1290306896443
 20
306.7856206562439
 10
869.8570984474301
 20
305.66725749999
 10
872.7678225924394
 20
299.7141498999899
 10
874.3229588229732
 20
296.04734468124957
 10
874.5138703579105
 20
295.21632375624597
 10
877.0012633208007
 20
292.2341325437448
 10
883.0021504066585
 20
289.6666227624976
 10
886.183192910041
 20
288.94851589374395
 10
886.432112676389
 20
288.93458816874613
 10
886.6534463060108
 20
289.22458329999205
 10
886.5896372514735
 20
288.87887726874305
 10
887.5024289995137
 20
288.74772452499195
 10
889.3241452801764
 20
288.79149737499694
 10
894.0940976954836
 20
289.7355981624907
 10
900.9538933277715
 20
290.719658256242
 10
906.8123379787137
 20
292.32482856249436
 10
911.4161290378333
 20
294.908587356243
 10
911.9817737476761
 20
295.3428339249899
 10
911.8567337821949
 20
295.70429154999624
 10
912.2149668379521
 20
295.573470418749
 10
915.6308782249547
 20
298.31723224374423
 10
917.4408639521547
 20
299.9744657124924
 10
921.742109857681
 20
304.25160373749924
 10
922.8485201914617
 20
305.61171240625066
 10
923.5676933537615
 20
306.69044786875094
 10
924.7397174426334
 20
309.07407851874353
 10
925.7391348162517
 20
312.4328157250006
 10
926.2887950356576
 20
315.45662430624327
 10
926.2599198271255
 20
317.6152558749955
 10
926.0210548208962
 20
318.7039397124942
 10
925.2998191436961
 20
321.1278612812482
 10
924.8807418985513
 20
321.77417404374927
 10
924.466434219092
 20
321.7511269749891
 10
924.8197688019723
 20
321.98740088124345
 10
922.2849379965012
 20
326.99193092499456
 10
921.2027622127404
 20
329.4907969187407
 10
916.009349708123
 20
339.5330182562418
 10
914.8176028205881
 20
342.91480253124723
 10
914.565073653169
 20
344.58861662498884
 10
914.5564368720476
 20
346.40717957499913
 10
914.8589820256593
 20
348.67109811249475
 10
916.5394160360393
 20
351.94228961874194
 10
917.8658709276358
 20
354.2484887499986
 10
919.5301915403874
 20
356.193561868741
 10
920.6851998813814
 20
357.1746374499928
 10
922.7383045517664
 20
358.3724217999941
 10
924.6573457540292
 20
358.61549376249536
 10
925.3949526432041
 20
358.4251481874976
 10
928.0460577258617
 20
356.9209538874971
 10
925.6356223499689
 20
355.7495327312476
 10
924.7729754952945
 20
356.36716101249334
 10
923.9327584901046
 20
356.2895636874937
 10
920.9990888668995
 20
354.7454100812475
 10
918.810760563723
 20
352.11307005624667
 10
917.365453251328
 20
349.84251926874424
 10
916.6359675145446
 20
347.5615226874993
 10
916.5044821900158
 20
346.37799767498797
 10
916.7050617635153
 20
344.1762564812385
 10
917.7100221459136
 20
341.15327693124374
 10
919.5909068226016
 20
337.45364207499676
 10
921.1848441145949
 20
333.2811277937491
 10
922.0112680514217
 20
331.8109237749953
 10
922.0954444405614
 20
331.3685526999976
 10
923.0768148088426
 20
329.92338542499186
 10
924.6328533896443
 20
326.27349244374886
 10
926.3112248851421
 20
322.8807649562451
 10
927.7802511188091
 20
318.7730809187393
 10
928.2400630331405
 20
316.71957051249024
 10
928.2642975831421
 20
315.798019374989
 10
927.012737763661
 20
309.3464981874961
 10
927.121277609994
 20
308.68609189374524
 10
926.5044567493262
 20
308.3660858312403
 10
925.3115496971589
 20
305.9393455562505
 10
923.458251157179
 20
303.4227382937473
 10
914.9185371432409
 20
295.1936083000015
 10
914.2127703277479
 20
293.70682365624236
 10
914.0948202571991
 20
293.89716923124007
 10
913.9175728834517
 20
293.8351576937459
 10
913.8630451459204
 20
294.0187052124966
 10
913.6344927141565
 20
294.02251875624404
 10
907.8522322071354
 20
290.72446663750105
 10
904.5061885121798
 20
289.4237166062482
 10
901.5396475578334
 20
288.87141598750014
 10
900.3660765828091
 20
288.4305371687464
 10
896.0925457211823
 20
287.6157652562442
 10
890.1909171646333
 20
287.23805861874825
 10
883.6522293200059
 20
287.1462019562469
 10
882.4490096933731
 20
287.39474552499144
 10
881.1331251906066
 20
288.26373608124106
 10
879.6670638220895
 20
288.7885128624974
 10
879.4181440557413
 20
289.0647460749974
 10
877.9520826872241
 20
289.65849825624684
 10
875.8499932880694
 20
290.97052311249007
 10
874.4254400317967
 20
292.11674171875137
 10
873.014679843887
 20
293.677144337499
 10
870.4976382293883
 20
297.778859349994
 10
870.4285439804175
 20
298.6349170187456
 10
869.6954488425632
 20
298.92491214999154
 10
866.0316489466719
 20
304.6785548312434
 10
862.0749719357314
 20
309.2674086062408
 10
860.9409754652426
 20
310.2063693999952
 10
859.6132315018401
 20
311.61472768749496
 10
851.8129290776126
 20
317.4414909249913
 10
848.5085224020929
 20
320.4626466062501
 10
847.1660830200777
 20
322.0666562687389
 10
845.2712763678352
 20
323.1710916999949
 10
843.957454379969
 20
324.8417554749969
 10
841.3849826776711
 20
326.4708018812455
 10
840.582793290846
 20
326.59499076249773
 10
840.098746826513
 20
326.98165093749225
 10
838.0933378130552
 20
327.8100189625002
 10
835.3964706811792
 20
330.07410330624776
 10
832.9935119217932
 20
331.5202654187416
 10
827.9281042478068
 20
333.7462143249912
 10
820.2039859675189
 20
336.1069637124991
 10
813.6484112821868
 20
337.49426460623846
 10
811.7157059187707
 20
337.52692843749315
 10
810.1148076390184
 20
337.176745637489
 10
809.4025954644595
 20
336.81081124373924
 10
805.6921311690637
 20
334.32902329374235
 10
804.8260038205096
 20
333.53348490624103
 10
803.6659680994837
 20
332.0166893312465
 10
800.6717121012377
 20
327.1572397562442
 10
798.8979492918854
 20
323.71957877499557
 10
798.2963394785598
 20
322.1420981124987
 10
796.655608879907
 20
319.4447620374923
 10
792.9060857086871
 20
315.5874454374905
 10
790.2368047135188
 20
312.1494528437497
 10
789.3309739532561
 20
310.540800606242
 10
788.763911264416
 20
310.02298768749637
 10
787.7128021112428
 20
308.3315981312496
 10
787.1734544663205
 20
307.87596255625016
 10
785.94251979577
 20
305.735569674999
 10
778.2225265452645
 20
298.4417527375003
 10
777.295812821688
 20
297.88945211874045
 10
772.7871552620762
 20
296.86758819999505
 10
765.3049957603591
 20
296.1357194124956
 10
756.7509730493282
 20
295.0654400687499
 10
753.8259402072445
 20
294.1954546750004
 10
751.5923654835608
 20
293.9261853249993
 10
749.7529889191173
 20
293.41517046250067
 10
747.4916991515524
 20
292.57967276874183
 10
746.8140341014788
 20
292.15156103124593
 10
743.3495247072813
 20
288.63696594999357
 10
742.0287417316378
 20
288.0085602625015
 10
741.3786628182905
 20
287.4423319187438
 10
740.6181104509197
 20
287.2904533937479
 10
739.449437948754
 20
286.75871274999264
 10
738.2945585149515
 20
285.98522659375163
 10
737.5477992159257
 20
285.2601558624991
 10
736.8216650658487
 20
285.0393019374983
 10
734.4912810493131
 20
282.981480568746
 10
730.94375543059
 20
277.75394111874243
 10
727.9564604201031
 20
271.8562128062415
 10
726.4973600393632
 20
267.8781892562429
 10
724.8723561167642
 20
265.59221848749877
 10
724.7685858361349
 20
265.1017635999929
 10
722.7701378104362
 20
261.0269091999937
 10
721.8643070501734
 20
259.97006016250185
 10
718.5311540732948
 20
257.3110253312454
 10
717.5285140201618
 20
256.00546691874524
 10
714.1538529310387
 20
253.71933034374916
 10
713.4139257125985
 20
252.77987213125073
 10
712.1208577808729
 20
251.5434549249957
 10
710.7378126368629
 20
250.61792443749508
 10
709.4038811287775
 20
249.33441825624345
 10
707.5361449845132
 20
248.38683553749433
 10
707.0381765446621
 20
247.46113924374177
 10
706.0977986598956
 20
246.66676149999225
 10
704.1891989393081
 20
245.58918668124377
 10
703.7259065310973
 20
245.1746710562418
 10
703.6566833749533
 20
244.64972846874534
 10
703.3662554963608
 20
244.31811596874613
 10
702.3083142626019
 20
244.16623744375022
 10
701.284791246155
 20
243.06777103749326
 10
699.2034559031408
 20
242.04540969999206
 10
694.2175839597818
 20
240.13200557499272
 10
689.529100882811
 20
239.00601533124396
 10
684.9305950181065
 20
239.1096442375033
 10
680.92673797895
 20
238.5500481437524
 10
672.6216350342671
 20
239.5861713999995
 10
670.063085307524
 20
240.27012218124273
 10
666.9593871126772
 20
241.83583059999341
 10
664.3550753366973
 20
243.4051867562514
 10
660.6764511149835
 20
244.81172117500338
 10
658.3032699143793
 20
246.04067709999194
 10
656.4916083938353
 20
246.71766401874802
 10
650.8764115932697
 20
249.67398945625322
 10
644.4661153008295
 20
254.74401296874214
 10
641.5203284026053
 20
256.75391633124997
 10
640.4899733055727
 20
257.1200165312517
 10
638.213730305012
 20
259.36685702499796
 10
634.6707164376279
 20
262.0535814999982
 10
631.4022748655726
 20
263.8303612749914
 10
627.8560383186739
 20
265.38048390624846
 10
620.5674974026789
 20
266.56848568749143
 10
614.1434080418757
 20
266.77557769374636
 10
610.1256290271828
 20
266.69963843124253
 10
609.6865711690103
 20
267.01732320624393
 10
609.2405523230422
 20
266.65818686874115
 10
608.8601472321651
 20
266.7548519125016
 10
608.5006251046019
 20
266.451094862498
 10
604.9842950236581
 20
265.7431021749948
 10
603.0376676847056
 20
266.35094788749404
 10
602.8095019744798
 20
266.14020814374356
 10
602.4706049958655
 20
266.12992815624125
 10
602.2735059162454
 20
265.59802170624585
 10
601.0149851089869
 20
265.3390323437471
 10
596.426791818766
 20
265.05251914374475
 10
594.8778431329149
 20
264.3964238124972
 10
594.6012083226673
 20
264.7520782187446
 10
594.6807440532948
 20
265.1007687624931
 10
594.5113600175744
 20
265.5842597875
 10
592.7341167143426
 20
264.80032783749294
 10
592.5716936663811
 20
264.55858232499537
 10
591.9423688091744
 20
264.45511922499975
 10
590.462514372294
 20
263.6124918625019
 10
589.6983526038338
 20
263.55727838124284
 10
589.6983526038338
 20
263.39147213124915
 10
589.9439207834756
 20
263.3777102124915
 10
589.8678655467276
 20
263.1600066062421
 10
586.4594307762138
 20
261.9526054937463
 10
584.1245350083393
 20
260.4278512187412
 10
580.7037251484597
 20
257.7286912749988
 10
575.0053832162137
 20
251.39273704375157
 10
573.535325725069
 20
248.269776324993
 10
573.7521476033702
 20
247.74748663749216
 10
574.0710639689568
 20
244.00109441875247
 10
573.8159566579259
 20
240.71348809375195
 10
572.8974929939142
 20
237.84620061250052
 10
572.4892439519645
 20
237.1072021562502
 10
571.6363940430439
 20
233.43907048749435
 10
571.1058120864162
 20
232.2563745062427
 10
570.9833502645467
 20
231.30829436874953
 10
570.1261175114789
 20
228.95318239374853
 10
568.7484864690573
 20
227.11787301249285
 10
567.5749154940329
 20
225.9250628500026
 10
567.5869038618605
 20
224.1292153562486
 10
565.8604499878791
 20
220.7557213937458
 10
565.7992190769535
 20
219.1548620499967
 10
565.3909700350038
 20
216.60575676250247
 10
565.4420172786372
 20
213.56719142500228
 10
565.0134009021033
 20
211.04859448749934
 10
565.1154953893887
 20
209.1620509749958
 10
565.7176208314438
 20
205.47070643125144
 10
568.6974392254236
 20
200.97354351250345
 10
568.7688538036413
 20
200.51459181250058
 10
568.5239301599024
 20
199.49471756875488
 10
568.7484864690573
 20
198.8828925062445
 10
569.2587010911191
 20
198.2710674437459
 10
568.7586701363493
 20
196.54751147500025
 10
568.9729138710204
 20
195.79276142500433
 10
568.5749774035543
 20
194.13055376874516
 10
567.8198391377719
 20
192.64144783749427
 10
567.3810390939276
 20
190.2549984812541
 10
566.2482027880715
 20
187.92973163124842
 10
564.472506370992
 20
185.1758556250028
 10
564.3807244581903
 20
184.34980888749843
 10
561.6356460406572
 20
179.15824939375295
 10
558.1658514520262
 20
174.40508162500572
 10
556.196407542033
 20
171.9773465125043
 10
548.9304253826958
 20
161.86830525624998
 10
547.2771907874858
 20
159.82805935000277
 10
546.3995906998339
 20
157.75713928750056
 10
544.4810651263192
 20
154.9313033687505
 10
542.8380141984012
 20
153.08471916250446
 10
539.664319404316
 20
148.8609707499971
 10
537.0415739014608
 20
145.84097571250186
 10
534.6435136149518
 20
143.4024631937541
 10
531.8065243774072
 20
140.99462483124955
 10
530.3063026059426
 20
139.94374481875676
 10
527.2652533010372
 20
137.05622897500456
 10
526.7346713443912
 20
136.84184149374684
 10
525.9999004131929
 20
136.9235839749978
 10
524.0711911723862
 20
137.84181898750742
 10
522.775158375474
 20
139.13759483124926
 10
522.1118020225116
 20
140.11717815625713
 10
521.4280783349468
 20
141.98432233749605
 10
521.8668783787728
 20
145.68793654375418
 10
523.8262675286472
 20
149.7792057625067
 10
525.0507568401318
 20
151.9419824874985
 10
526.8571331662606
 20
154.62522503125516
 10
528.1326697213971
 20
157.39999262499748
 10
528.6531969179242
 20
159.695414349996
 10
528.4796878524213
 20
162.31714277500245
 10
528.0612551431794
 20
163.92894533124988
 10
527.2754369683292
 20
165.69378705624496
 10
526.6223931898321
 20
166.44853710625264
 10
523.8874984395728
 20
167.40739465000394
 10
522.591465642679
 20
167.64201049375066
 10
520.0095837161836
 20
167.77465549374563
 10
518.5502255210606
 20
167.73386715625202
 10
517.5807146134155
 20
167.50953129999584
 10
516.5602853693101
 20
166.29549793750496
 10
513.8559416209451
 20
164.6939753687481
 10
512.9987088678773
 20
163.90855116249716
 10
509.4984921845434
 20
161.40918774999517
 10
506.64100670524135
 20
159.74648267500376
 10
505.6614410374957
 20
158.1040059625013
 10
504.9879010172229
 20
156.39006675625023
 10
504.38577557516777
 20
155.8289784062555
 10
502.9264173800631
 20
153.16629583750347
 10
502.0284499578271
 20
150.27911160625516
 10
501.68143182680285
 20
149.51391576250498
 10
501.33454260297026
 20
149.24862576250325
 10
501.21208078110084
 20
148.7180457624998
 10
500.8650626500766
 20
148.39157325625175
 10
500.171155295238
 20
146.53470906250337
 10
499.63026076412666
 20
145.75939903750285
 10
499.06899889843135
 20
145.30028153124803
 10
498.8240752546924
 20
144.74930736250366
 10
498.14035156712754
 20
144.10647653124613
 10
497.4157643032213
 20
143.48420567500506
 10
495.95640610809835
 20
142.78019233750123
 10
495.54828597334006
 20
142.3719773500022
 10
494.72160422214847
 20
140.68854649375422
 10
493.5583458215894
 20
139.6681748312527
 10
492.36427860478943
 20
138.015252324996
 10
489.72129467452345
 20
136.5460431437538
 10
488.1803382338907
 20
135.47460315625634
 10
487.2413783281217
 20
135.22970732500733
 10
480.4755560307276
 20
134.99509148124883
 10
478.04681583515105
 20
135.1685248187492
 10
474.76071397933345
 20
134.91351480624982
 10
471.76052825076937
 20
135.02559983125192
 10
468.6275681258523
 20
135.709384806255
 10
464.98439337889164
 20
135.87253815625306
 10
461.8208822521167
 20
136.33165566249608
 10
460.2288785678322
 20
137.52546066249795
 10
459.1982656564347
 20
139.4436731687564
 10
456.7286618845167
 20
141.09659567500128
 10
455.92234746790916
 20
141.94353400000242
 10
452.49354536279293
 20
146.42262403750127
 10
445.5133504235544
 20
151.22785496875608
 10
444.686797579536
 20
151.6461841375055
 10
443.6969193373067
 20
151.71764663125413
 10
441.390512056408
 20
152.92140000625446
 10
439.98220110493685
 20
153.09483334375483
 10
439.28829375009826
 20
153.6254133437465
 10
438.53315548429754
 20
153.78856669375634
 10
438.12490644234776
 20
154.14571335624763
 10
437.0432462873167
 20
153.54383666874747
 10
436.35952259975187
 20
153.6763158625023
 10
432.5735186963377
 20
155.98201757500314
 10
429.6242513042339
 20
156.54310592499792
 10
428.5322785747193
 20
157.12458844374538
 10
424.03187107469086
 20
158.93021850624586
 10
421.5317163008784
 20
160.76652272500138
 10
418.521217997849
 20
162.43950778749513
 10
417.65380157748916
 20
162.75586611250458
 10
414.3983796307026
 20
163.32706864374973
 10
408.63261924284814
 20
165.183601225006
 10
406.24461371643974
 20
165.69378705624496
 10
405.0201244049369
 20
165.76508374375345
 10
401.4890989053804
 20
165.51007373125404
 10
399.84617688463567
 20
165.69378705624496
 10
397.44798769093524
 20
164.55121618750275
 10
396.4479257814139
 20
163.84736865625084
 10
394.9375203426574
 20
162.31714277500245
 10
393.01899476914275
 20
159.3588276624976
 10
392.5087801470808
 20
158.18558263750035
 10
391.9577019486775
 20
156.20651923749946
 10
391.825056459516
 20
154.96181171875358
 10
392.10053110513104
 20
152.64599582500233
 10
392.9884437672665
 20
151.61550998125045
 10
394.376258476962
 20
149.14665491875152
 10
395.05998216452684
 20
148.41196742500446
 10
395.2743548063896
 20
147.84076489374752
 10
395.386632960967
 20
146.07559155624858
 10
395.0497984972348
 20
145.40225237499976
 10
395.25385856461395
 20
143.57606233750641
 10
395.05998216452684
 20
142.43332566250047
 10
393.5383618010373
 20
138.2828636125013
 10
393.558342414065
 20
136.82807957500094
 10
392.9803226148566
 20
135.55253209374808
 10
391.92392826728667
 20
134.07785130625084
 10
391.78445069753934
 20
133.02166549375494
 10
391.26611492308587
 20
132.10492273750097
 10
389.63182968346246
 20
130.43077703125545
 10
389.1334745220549
 20
129.5339310249984
 10
387.67849917109754
 20
128.27828029375422
 10
385.08733592755954
 20
126.56434108750312
 10
375.2013153161704
 20
122.27924436249752
 10
368.7834135000683
 20
120.30598418125555
 10
368.3448712706072
 20
120.72464496249705
 10
367.82666440332696
 20
120.68468565625135
 10
365.2554817728532
 20
121.18309924375589
 10
364.1592551063645
 20
121.62149096875413
 10
360.25272298880805
 20
124.41184435000189
 10
356.2511862788985
 20
128.1678533312479
 10
353.45506061771357
 20
131.59639496875783
 10
353.13872239575704
 20
132.4944016187549
 10
352.34272055363317
 20
133.30038579999868
 10
349.778756725265
 20
135.00901920624665
 10
347.0845966441922
 20
137.80633645000512
 10
341.49853286650523
 20
140.98981645000228
 10
339.6523242214759
 20
141.5266970874969
 10
338.90814306606165
 20
141.57378606250523
 10
338.39934642299727
 20
141.4136172250067
 10
333.5481824837185
 20
142.2612187750038
 10
327.8559159022229
 20
141.76705458120156
 10
325.61047347086856
 20
141.13412252098288
 10
320.6505847481379
 20
139.04601440598051
 10
316.1424081882258
 20
136.51233054312638
 10
313.66257403455705
 20
133.24765941250692
 10
313.92631812670936
 20
128.66062950625727
 10
314.61742006071734
 20
126.01162828444042
 10
315.01784287059854
 20
125.1334451062712
 10
315.4111999436399
 20
124.78921937500573
 10
316.44142613349925
 20
124.68625369375414
 10
317.20687697374706
 20
124.4212953062563
 10
318.2960137452851
 20
123.97975326250659
 10
318.9436434221939
 20
123.43524553750531
 10
320.4091891619814
 20
120.46980075624958
 10
320.78804736668764
 20
120.10950377500681
 10
322.4669344908968
 20
119.41709687499724
 10
323.26267851867425
 20
118.86529367500496
 10
324.6686691408985
 20
117.2276253437498
 10
325.4934172843813
 20
114.82476116875628
 10
325.6504417186169
 20
113.7678948965157
 10
327.6900552226343
 20
110.02901295418306
 10
328.51074766799644
 20
109.52575922500405
 10
328.9964699256734
 20
108.83384974375029
 10
329.89430844073615
 20
106.9496275187503
 10
330.0121296040935
 20
106.0075164062562
 10
329.91196872451695
 20
104.19691215625649
 10
329.14896712070765
 20
102.64247856250796
 10
325.63534409054876
 20
99.25074591250407
 10
320.19597022386813
 20
95.47012661239523
 10
319.42756097933534
 20
94.61530058125415
 10
314.81302239032806
 20
90.77198300202718
 10
314.224180458313
 20
89.18988925610199
 10
312.88750881803145
 20
87.90860703241803
 10
309.3768312326573
 20
85.36284182052809
 10
307.5233041388252
 20
84.45912457716528
 10
304.21330584103225
 20
83.33782300287247
 10
302.2630659753573
 20
83.1437700558526
 10
299.8095690191033
 20
83.35899591920204
 10
298.4216167657685
 20
83.31269928776689
 10
296.0798299911687
 20
83.06053676123683
 10
294.8619794216879
 20
82.63935828945836
 10
292.11316375208173
 20
80.51595967761969
 10
290.0916174135252
 20
79.68958716869038
 10
288.94637402862634
 20
79.544337033445
 10
287.8360519294562
 20
79.61484803384789
 10
286.6689898544505
 20
80.0095632566017
 10
284.34757616078093
 20
81.37466363696895
 10
283.0729117834716
 20
82.8150956571653
 10
282.1892082584753
 20
83.33599239941648
 10
281.0360243576229
 20
83.13719344033565
 10
280.5362080148638
 20
82.70511949577366
 10
280.61936376788447
 20
82.26511667067975
 10
281.9446858185078
 20
79.80982641980688
 10
282.8908690510683
 20
77.1863194939145
 10
282.92560843081367
 20
75.84066284877191
 10
282.66696391608974
 20
74.74757049948612
 10
281.681909385186
 20
72.74744978963163
 10
280.6896120404188
 20
71.57432233948715
 10
277.3917060047613
 20
69.32198334680886
 10
275.11034060351614
 20
68.16606970294107
 10
273.29042158908015
 20
66.93240413323873
 10
272.1427715880884
 20
66.57818301686238
 10
270.68373772076325
 20
66.49321441858723
 10
265.1922722505158
 20
65.1695635106847
 10
264.022298494555
 20
64.6280614592281
 10
263.27442768672324
 20
63.77695979556987
 10
262.4466120672132
 20
63.49391862855198
 10
260.9350244697749
 20
63.16860628792988
 10
259.1509822057658
 20
63.12884635898201
 10
258.20002577692316
 20
63.27463034453415
 10
257.60249871232685
 20
63.14368932551432
 10
257.16551194623975
 20
62.54067183263243
 10
256.5398935769398
 20
60.796287244472865
 10
255.45160952388937
 20
58.54318321309345
 10
253.58100534573813
 20
56.018984634045445
 10
252.86469567783746
 20
52.71779474927178
 10
252.94521599831415
 20
52.1237556441567
 10
252.6703835123511
 20
50.984906017530406
 10
251.91086410899766
 20
50.142685158092405
 10
250.9411114750021
 20
49.65741977893517
 10
248.8983946038491
 20
49.722720318968356
 10
250.26717297517413
 20
46.83607227800437
 10
250.37595344834563
 20
45.77396466896721
 10
250.25638433686157
 20
44.84595043561115
 10
249.51197521054337
 20
43.39813106623088
 10
248.50185105803007
 20
42.687121824720435
 10
247.38585048483105
 20
42.49115329135433
 10
246.23368581378645
 20
42.7581643954449
 10
245.5273535250948
 20
43.091624485233865
 10
244.76434795400897
 20
43.6165299583079
 10
242.96355420844267
 20
46.338006044141345
 10
242.44506582111043
 20
46.89385888851953
 10
241.3095601196895
 20
47.42952015057251
 10
240.3449168656916
 20
47.40328766095324
 10
239.18954488309555
 20
46.883901870197434
 10
237.67682072836124
 20
46.483287606251096
 10
234.82098330357564
 20
46.786095576948675
 10
233.36028449229167
 20
46.268261356347026
 10
232.49238583660915
 20
45.74755699519673
 10
232.11146563841794
 20
45.15287169376663
 10
231.73196770634027
 20
43.60812950145728
 10
230.46119240179146
 20
41.02660763886803
 10
229.1424516062957
 20
39.97793982031975
 10
227.53819344323014
 20
39.76912931875213
 10
226.29188725758618
 20
40.136419330899734
 10
224.9395259291439
 20
40.809278612709335
 10
224.40140616902897
 20
40.802818455706934
 10
224.83563486731393
 20
39.257752973176956
 10
224.81873414124237
 20
37.66838319409984
 10
223.96134024650704
 20
36.12777507041699
 10
222.83695539041943
 20
35.3497516890752
 10
220.7789478384514
 20
35.24069713856016
 10
219.69552209589963
 20
35.51870425218998
 10
218.35685532639027
 20
36.43119609328952
 10
216.14666035445217
 20
37.58819313211652
 10
215.86197317984195
 20
35.8935450811658
 10
215.31521086799503
 20
34.42798329590486
 10
214.37492266120057
 20
33.58377240085415
 10
213.39473562734227
 20
33.111507934679665
 10
212.34240683658035
 20
32.76044479258058
 10
211.08405184725822
 20
32.67521109562104
 10
211.6013871447456
 20
31.92081700773506
 10
211.9385133854009
 20
31.06617338762539
 10
211.89672304215878
 20
29.35978842494068
 10
211.3498288525797
 20
28.473679797601935
 10
210.05303460795727
 20
27.42240000883457
 10
208.3535852689953
 20
25.02568946693771
 10
207.24219832501126
 20
23.99831513622968
 10
206.98165199976907
 20
23.4768467850519
 10
206.26768779348194
 20
22.742180326029
 10
205.3265584197172
 20
22.042144671770284
 10
204.19129547792798
 20
21.936423863796737
 10
203.19374406290865
 20
22.05390794435239
 10
202.23671139382154
 20
22.407890618918724
 10
201.29170329478845
 20
23.089496713857784
 10
200.24455134139586
 20
24.77372887168195
 10
199.15131758913463
 20
24.196031155773564
 10
199.8557062749254
 20
23.603760086108334
 10
200.36492180644458
 20
22.607570717297527
 10
200.57519013222196
 20
21.68694570996507
 10
200.38644629290792
 20
20.49956921231187
 10
199.64361172251662
 20
19.399134295603105
 10
198.67292287735683
 20
18.83980781259838
 10
198.5234433527706
 20
18.241412348773487
 10
197.4547957771469
 20
16.495987234157916
 10
196.45003824744902
 20
15.62779896829155
 10
194.9875893174824
 20
15.589226145344847
 10
193.8162651151902
 20
15.829792109552024
 10
192.89237859836823
 20
16.3474165194041
 10
191.52882849967997
 20
17.76227575970026
 10
190.61690332984517
 20
19.236384606398133
 10
190.79362562855968
 20
21.258094321828594
 10
190.29652784076907
 20
20.807225996151473
 10
189.2699493693408
 20
20.25198655634404
 10
187.32793597980034
 20
19.780860019908157
 10
186.27192911183815
 20
20.011834420327173
 10
184.75468763248614
 20
20.715922215035967
 10
185.4355074082041
 20
22.052516556259718
 10
184.75449737458288
 20
20.716019143577146
 10
183.22598607265766
 20
21.590043389187603
 10
181.04995397888354
 20
22.146974181589375
 10
178.12499671410527
 20
23.245439372808434
 10
177.14636159492423
 20
23.107754739603852
 10
174.19136855596574
 20
23.721157907138423
 10
172.9529191486508
 20
25.100370031497896
 10
172.30775087194374
 20
24.13897172057231
 10
170.8840910959537
 20
23.426486639313048
 10
169.45873824054667
 20
23.55257463795393
 10
168.2764649448812
 20
24.480023424253314
 10
167.67521065681171
 20
25.5065291346463
 10
167.5872037402189
 20
26.782786495826354
 10
165.4741470107771
 20
26.32757638580576
 10
163.9099396187371
 20
26.568563913428694
 10
162.91126897922115
 20
27.06315160277968
 10
162.88588525254627
 20
26.692216179442354
 10
162.00577315022946
 20
25.02524918137859
 10
160.0547765260482
 20
24.32514212827373
 10
157.95799824179483
 20
25.154809006692847
 10
156.37841620524924
 20
26.241534350135332
 10
154.1672414926596
 20
28.49095212310102
 10
153.78575388089965
 20
26.705994444952907
 10
152.6524539122341
 20
25.815743966890636
 10
151.7794833894325
 20
25.57396924601627
 10
150.20465003804608
 20
25.648958789875092
 10
147.20621953140326
 20
26.403460160726187
 10
146.3690423512728
 20
26.880821855268028
 10
145.80215288089803
 20
27.483247660029395
 10
145.16271966325462
 20
26.430177430125298
 10
144.9570843102234
 20
25.24607506827392
 10
145.81401983054278
 20
24.694504265414125
 10
147.24818513545094
 20
24.261390486564824
 10
148.64997647368597
 20
23.202215841007632
 10
149.16776117054005
 20
21.374002551409266
 10
149.20953640829703
 20
20.65089085181544
 10
149.02823602028508
 20
19.788303854950072
 10
148.6567567945772
 20
19.052861674821063
 10
147.7796301837744
 20
18.227109156513
 10
146.89445173731883
 20
19.43808360625608
 10
147.58619508227838
 20
18.1071098481736
 10
146.4480414167679
 20
17.681216725608042
 10
145.013002431636
 20
18.046909513485772
 10
144.2978303209445
 20
18.46170281381546
 10
143.7488652071127
 20
19.080118417120172
 10
143.16074543642742
 20
19.417294543111197
 10
143.14592678289407
 20
19.617038400250163
 10
142.77135187664203
 20
19.10404295175872
 10
141.23222916237606
 20
18.126156094776352
 10
139.7703393171949
 20
18.18700639643593
 10
138.88648722733808
 20
18.590200282670803
 10
138.045618635775
 20
19.261426373815496
 10
137.5220012946123
 20
19.9651480857194
 10
137.07418114826294
 20
18.914876152047466
 10
136.21065109514245
 20
17.97514174252103
 10
134.93995424929156
 20
17.273267885255855
 10
134.4265491994343
 20
18.682670331252396
 10
134.49649475736055
 20
17.184302012404743
 10
133.73960802294835
 20
17.188360099033815
 10
132.0836625583229
 20
18.079825989838813
 10
129.50509785642043
 20
21.521418090841397
 10
128.4082265290118
 20
21.932481150628703
 10
127.9523126386329
 20
21.837659003936007
 10
127.6746417028909
 20
19.830469016840965
 10
127.1170746008435
 20
18.593175398125307
 10
125.96785221405179
 20
17.90582139328561
 10
124.06143279690514
 20
17.74418830669449
 10
123.31484169621238
 20
18.044566274891228
 10
122.80692546533317
 20
18.549503000498643
 10
122.14955871537094
 20
19.33985835154212
 10
121.98893243624372
 20
20.054882300692537
 10
122.03074443753684
 20
20.741735966345402
 10
122.37643639586555
 20
21.389952853571213
 10
122.91665126371184
 20
21.895634639719567
 10
124.067977104768
 20
22.43670365169426
 10
124.11681383019624
 20
23.112941454390203
 10
125.17742916616793
 20
23.128821155045724
 10
124.1166557309549
 20
23.129920878735238
 10
124.18533941607576
 20
24.469546046015704
 10
122.20916848530696
 20
23.919712650575903
 10
121.46706386080469
 20
23.856982784687244
 10
121.04680928497895
 20
23.589337465803006
 10
119.5491386273178
 20
19.241760421879842
 10
119.07424814396019
 20
18.293512437393783
 10
118.579929519602
 20
17.711066909585224
 10
117.88182615614089
 20
17.423175681330523
 10
116.64229001620464
 20
17.37045388675943
 10
115.17818508577521
 20
17.94745500889181
 10
114.72418450452707
 20
18.328539600080322
 10
114.14655826138879
 20
19.379159300706696
 10
114.33079232427268
 20
21.017121224052396
 10
114.08916323844107
 20
21.46759519874643
 10
113.30647603155131
 20
20.971264077858343
 10
111.33694341770905
 20
18.61379790577241
 10
110.23947016015002
 20
16.605793060630155
 10
109.20927246909149
 20
15.333933758972863
 10
107.4669590922468
 20
15.007204200868577
 10
105.97508222399074
 20
15.413941808856782
 10
104.51611660510302
 20
16.755655904457374
 10
100.84523865521402
 20
17.617514486689416
 10
99.55672092051766
 20
18.13528481656487
 10
98.19265367693933
 20
18.87408347899366
 10
97.57825096909517
 20
19.38112487200359
 10
97.09133299137979
 20
18.374085145961395
 10
95.88431221119862
 20
17.440571335110956
 10
94.40165127012766
 20
17.26147354006448
 10
92.69524346353522
 20
17.69999728481188
 10
91.6372280605475
 20
18.805496679283227
 10
90.69951362715331
 20
17.992174407350348
 10
89.57529601462619
 20
17.429570932051686
 10
86.8091452708744
 20
17.264861770036788
 10
85.87325561548595
 20
17.377767033921785
 10
84.5200242367357
 20
18.280899822472108
 10
81.96012801940566
 20
20.624886404362577
 10
79.03908740677154
 20
22.850921890030357
 10
77.70088583687316
 20
24.170448039198618
 10
77.02172882728412
 20
25.136074007584085
 10
75.92059183573403
 20
24.55835115756852
 10
74.98970536724474
 20
24.449304357794983
 10
72.99286853004963
 20
25.22372751943025
 10
72.29529550788229
 20
26.026903350677856
 10
71.44106034372727
 20
27.67515882962963
 10
70.86657355265855
 20
30.396663809649745
 10
69.53904313685689
 20
30.59170889582886
 10
67.24359191079066
 20
30.00552952541386
 10
65.7396800269361
 20
27.617075748941172
 10
64.95056026889445
 20
26.93011129692874
 10
63.5370114478329
 20
26.334185432046393
 10
61.84811070348992
 20
26.258396586380627
 10
60.750578052434115
 20
26.79858297489595
 10
60.03900296322571
 20
27.566111480956277
 10
59.60343160714619
 20
28.40877457161748
 10
59.18530435879382
 20
29.863623643053234
 10
59.2604429624444
 20
32.57357666099928
 10
57.90474720438255
 20
32.95934942565027
 10
57.39589531544502
 20
31.561121494937424
 10
56.06229983074195
 20
30.077601786358272
 10
55.27866843170406
 20
29.479100531732225
 10
54.03886395686745
 20
29.51803064101561
 10
53.21026072800894
 20
30.05996873456723
 10
52.130974925291206
 20
31.047859400981956
 10
51.10543791919728
 20
32.762228487655555
 10
50.38817176706725
 20
32.79276658782238
 10
48.1915366421892
 20
32.3130283119859
 10
48.220470448471275
 20
31.76560364333024
 10
47.790237513252954
 20
30.669210787664504
 10
48.418384190861325
 20
29.57935317361505
 10
48.49141341643906
 20
28.419883442368004
 10
47.85514029669838
 20
27.25200660238631
 10
47.19164181431181
 20
26.75141103411867
 10
47.39488741496241
 20
25.827966661238673
 10
47.17193677877782
 20
24.999483242491227
 10
45.83559294265975
 20
23.442613172035585
 10
45.51646920218218
 20
21.510722779996428
 10
45.580746540348734
 20
20.49110536656632
 10
45.33706177144178
 20
19.765117660685604
 10
44.4355058256236
 20
18.51337012842184
 10
44.0683021815582
 20
18.07345766733217
 10
42.771981677756656
 20
17.647137124314504
 10
41.97763517639636
 20
17.858411395499832
 10
40.7041306183383
 20
17.734222580910348
 10
40.3363119277457
 20
17.552537820336866
 10
40.02184227943631
 20
17.69863216676115
 10
39.85915509958234
 20
17.541690456704877
 10
40.193404913734206
 20
16.764399182565768
 10
40.00446187199755
 20
14.996581196064595
 10
39.40973824588363
 20
14.24715901187436
 10
38.64156084610253
 20
13.91808116790538
 10
38.19149219121903
 20
13.907672624864647
 10
37.88099009635302
 20
13.34173074772007
 10
37.26415305913667
 20
12.825340854583699
 10
36.52607968643451
 20
12.649322782121642
 10
36.082807202111525
 20
12.70630834404835
 10
35.10517736837375
 20
12.186829182328786
 10
34.388162757959336
 20
12.23185413154386
 10
34.23606820130163
 20
12.031000074331352
 10
34.61112426874771
 20
11.285736125580874
 10
34.72948349881432
 20
10.340121534394783
 10
33.99282318552628
 20
9.483509693139116
 10
34.02965415983618
 20
9.2179563912156
 10
33.54958736556324
 20
8.380323146000691
 10
33.75093851471414
 20
7.414420288502314
 10
33.67694061229853
 20
6.8202697762202265
 10
32.97505722842008
 20
5.840522802123595
 10
32.02983845869059
 20
5.256066866420659
 10
31.978196928766927
 20
4.44667019226589
 10
31.575143490276794
 20
3.2976083719640545
 10
30.558969805262095
 20
2.595611412768391
 10
29.85528615491752
 20
2.3020348471706797
 10
29.682918478478012
 20
2.362725619260033
 10
29.129809623853266
 20
1.4755691033075722
 10
29.399229685523164
 20
0.971057694813256
 10
29.567292791791672
 20
-0.5571527481141313
 10
29.253033125144402
 20
-1.414322074674368
 10
29.199553050225816
 20
-2.4437552131604092
 10
28.939217006617707
 20
-3.235610719938561
 10
28.126160829731784
 20
-3.778833135765655
 10
27.31921584425006
 20
-3.9667402287214713
 10
26.562487960795757
 20
-3.9704062839456333
 10
25.721329884696086
 20
-3.353694357252033
 10
25.0292542486707
 20
-4.093139827808874
 10
23.71750826742836
 20
-3.965996445473518
 10
23.11780706495507
 20
-5.220262051514162
 10
22.304902902830378
 20
-5.0815262617718835
 10
21.872672475837174
 20
-6.323116139674774
 10
21.340643486817807
 20
-6.9936576528887375
 10
20.40346476082355
 20
-7.417623188321981
 10
19.83993111823542
 20
-7.318899123681164
 10
20.01834330627686
 20
-6.300492207648011
 10
19.41726445641017
 20
-6.685491930043858
 10
18.17026446435993
 20
-6.816166965844082
 10
16.890041306669858
 20
-6.205243623617944
 10
16.46832566525531
 20
-5.444101566575983
 10
15.951293891225003
 20
-2.6038231842330988
 10
16.441401054993626
 20
-1.5781130813182722
 10
17.218503672463008
 20
-1.0824372976132723
 10
17.921853600340153
 20
-1.0326383705410276
 10
18.651505230225887
 20
-1.173965638452327
  0
LWPOLYLINE
  5
32
330
17
100
AcDbEntity
  8
water
100
AcDbPolyline
 90
11
 70
1
 10
5.478762524592638
 20
33.249412618753034
 10
5.734901093064614
 20
33.46098139375138
 10
5.904671850323209
 20
33.41936402500985
 10
6.18014649593825
 20
32.90967561250313
 10
6.875085108236173
 20
32.92575881875258
 10
7.086492884930746
 20
32.387385925002306
 10
7.006441525591795
 20
31.868080750001013
 10
6.666900011074604
 20
31.30085756875525
 10
6.23776800581103
 20
31.143839050008197
 10
5.882242000857038
 20
31.75914604375037
 10
5.478762524592638
 20
33.249412618753034
  0
LWPOLYLINE
  5
33
330
17
100
AcDbEntity
  8
water
100
AcDbPolyline
 90
10
 70
1
 10
20.708501413541573
 20
42.75956170000673
 10
20.540793171183367
 20
43.006447206255444
 10
20.72745076914654
 20
43.941594456250634
 10
20.448624536825236
 20
44.43503385625597
 10
21.823677435616897
 20
44.9055919937531
 10
21.98481141175415
 20
44.69170193125119
 10
21.925643015728976
 20
43.41134606875106
 10
21.471631924542425
 20
42.598398025008365
 10
21.185457982923975
 20
42.53903938750979
 10
20.708501413541573
 20
42.75956170000673
  0
LWPOLYLINE
  5
34
330
17
100
AcDbEntity
  8
water
100
AcDbPolyline
 90
8
 70
1
 10
48.319646121988406
 20
45.23952578125588
 10
46.720423635580055
 20
45.73512066250106
 10
47.0035038048754
 20
46.35109088125098
 10
47.56244534130556
 20
46.81136903125757
 10
50.64758090210383
 20
46.76892263125635
 10
50.711261049467886
 20
45.841402468756044
 10
50.498950922505536
 20
45.543946056255415
 10
48.319646121988406
 20
45.23952578125588
  0
LWPOLYLINE
  5
35
330
17
100
AcDbEntity
  8
water
100
AcDbPolyline
 90
9
 70
1
 10
50.528470666940656
 20
47.677872493751714
 10
50.38925091153989
 20
47.37046770625264
 10
48.11055867455906
 20
47.34145161250522
 10
45.66944338959846
 20
47.556004900003096
 10
45.408535255441095
 20
47.973836650008465
 10
45.68104503588797
 20
48.82674400000866
 10
45.63463845076659
 20
49.441719381258736
 10
45.831737530368336
 20
49.7897466999995
 10
50.528470666940656
 20
47.677872493751714
  0
LWPOLYLINE
  5
36
330
17
100
AcDbEntity
  8
water
100
AcDbPolyline
 90
12
 70
1
 10
48.082714723467916
 20
52.9339306187587
 10
49.093991557740665
 20
53.06640981250173
 10
49.57558878561689
 20
52.9339306187587
 10
49.78029338891725
 20
52.054494268754794
 10
49.659894081948195
 20
51.50036978125895
 10
49.82850467457417
 20
50.76551648125994
 10
49.30836419958508
 20
50.65757661250914
 10
49.00981516860093
 20
50.27157966251057
 10
48.62451160484699
 20
50.404058856253606
 10
48.28741932676829
 20
50.77745453125807
 10
47.974303784326466
 20
51.97009888750817
 10
48.082714723467916
 20
52.9339306187587
  0
LWPOLYLINE
  5
37
330
17
100
AcDbEntity
  8
water
100
AcDbPolyline
 90
14
 70
1
 10
38.29260105468131
 20
51.32444935000307
 10
37.95950489921181
 20
51.265090712504495
 10
37.38921953083866
 20
51.557241325002025
 10
36.609073271959964
 20
51.548121981251484
 10
36.72057798346117
 20
53.589860143754336
 10
37.77207385815412
 20
53.37497524375259
 10
38.01841548089046
 20
53.537465368754674
 10
38.55814984736914
 20
53.54791116250893
 10
38.85373401320344
 20
53.29107728125
 10
38.86443330920685
 20
51.365569300000566
 10
39.06359490372731
 20
50.826864793758205
 10
38.82627678366872
 20
50.749267468758546
 10
38.64670908065617
 20
51.16991792499974
 10
38.29260105468131
 20
51.32444935000307
  0
LWPOLYLINE
  5
38
330
17
100
AcDbEntity
  8
water
100
AcDbPolyline
 90
9
 70
1
 10
46.637923039802615
 20
51.03047486875779
 10
46.385007150845325
 20
51.4761620687588
 10
45.867315912313046
 20
51.319640968755785
 10
45.3737303165909
 20
51.66899473750026
 10
45.337636305934836
 20
52.88568100001035
 10
46.01182086211056
 20
52.97007638125697
 10
46.22851383322021
 20
53.41576358125799
 10
46.637923039802615
 20
53.04236790625353
 10
46.637923039802615
 20
51.03047486875779
  0
LWPOLYLINE
  5
39
330
17
100
AcDbEntity
  8
water
100
AcDbPolyline
 90
13
 70
1
 10
48.444943901834435
 20
56.134820275009034
 10
48.92860364462937
 20
56.217060175004036
 10
49.68593333248547
 20
57.750767987507764
 10
49.649452600291305
 20
58.30754537499927
 10
49.88664181317663
 20
58.74577129375734
 10
50.13298343589465
 20
58.70017457500465
 10
50.39762987831471
 20
56.49992563751087
 10
50.12395993323521
 20
55.313084500007896
 10
49.86846590066617
 20
54.929740450004985
 10
49.476072441961605
 20
54.91150176250391
 10
48.31719688554992
 20
55.36796636875128
 10
48.1894498692654
 20
55.815311631259895
 10
48.444943901834435
 20
56.134820275009034
  0
LWPOLYLINE
  5
3A
330
17
100
AcDbEntity
  8
water
100
AcDbPolyline
 90
9
 70
1
 10
21.665121603091386
 20
61.38325131250936
 10
21.459256835176724
 20
61.82446174375519
 10
21.921904707484618
 20
62.10616656251024
 10
22.779137460552413
 20
61.98562541875356
 10
23.264859718229413
 20
61.392536462500054
 10
24.64842049096915
 20
60.42936795625727
 10
25.022380222798432
 20
59.773935850005664
 10
23.82122311104783
 20
60.23139529375288
 10
21.665121603091386
 20
61.38325131250936
  0
LWPOLYLINE
  5
3B
330
17
100
AcDbEntity
  8
water
100
AcDbPolyline
 90
33
 70
1
 10
11.028732291623548
 20
82.1327428562576
 10
11.112650866398441
 20
81.9926365750079
 10
11.261796474708097
 20
82.1327428562576
 10
11.442137620796842
 20
81.98020110625394
 10
11.52296242323031
 20
82.12959253750611
 10
11.86817585371899
 20
82.1140067500007
 10
11.63188899110144
 20
81.47018108125513
 10
11.815323909549926
 20
81.2431923250033
 10
11.790444823626949
 20
80.70830136250838
 10
11.619384994562479
 20
80.64910853124996
 10
12.570719989697217
 20
79.2807095500077
 10
13.043293714914
 20
77.92159571875612
 10
14.112836594962463
 20
75.99956966875027
 10
13.618477556164125
 20
75.48639932499998
 10
10.321418589941608
 20
73.0462287437564
 10
8.797993525916489
 20
74.24268664375394
 10
7.419589040418567
 20
74.57264108125734
 10
6.005992894532357
 20
75.85697629375684
 10
4.269226446085535
 20
78.32666038750368
 10
3.550311098132409
 20
79.06118207499881
 10
3.0777373729156245
 20
80.75224001875347
 10
3.207417996908955
 20
81.15249630625374
 10
3.3327157767549864
 20
80.2619509374996
 10
4.906801362875518
 20
79.84627466875764
 10
5.9356095737557775
 20
79.08754526875059
 10
7.237056472237855
 20
78.7027089625038
 10
9.21126994793484
 20
79.02818663125201
 10
10.211460764629441
 20
79.90115653750104
 10
9.824610314704781
 20
80.92816045000936
 10
10.092866158195937
 20
81.63814281250048
 10
10.27939484896753
 20
81.85899673750129
 10
10.472111084440295
 20
81.68174985625348
 10
11.028732291623548
 20
82.1327428562576
  0
LWPOLYLINE
  5
3C
330
17
100
AcDbEntity
  8
water
100
AcDbPolyline
 90
9
 70
1
 10
36.44729475991978
 20
79.05935820625106
 10
36.10027662889554
 20
80.61876598749882
 10
36.36402072104782
 20
80.7714735437544
 10
37.18271022702107
 20
80.23475871249994
 10
38.08480267905784
 20
80.00793576250005
 10
37.673073143210196
 20
78.75394309375169
 10
37.48809133860932
 20
78.65678063125901
 10
36.942169427447794
 20
79.01309826250241
 10
36.44729475991978
 20
79.05935820625106
  0
LWPOLYLINE
  5
3D
330
17
100
AcDbEntity
  8
water
100
AcDbPolyline
 90
10
 70
1
 10
43.206284976728114
 20
88.4270797187515
 10
42.526815226137316
 20
90.91981088125847
 10
42.829360379730666
 20
92.06884819375557
 10
43.55201403592815
 20
92.66707714374844
 10
43.80957058339758
 20
92.66342940625294
 10
43.95304427575407
 20
91.84749684999893
 10
43.637608404047015
 20
90.40100312500121
 10
44.31527345412058
 20
88.63019237500706
 10
43.523525548952385
 20
88.31980307500845
 10
43.206284976728114
 20
88.4270797187515
  0
LWPOLYLINE
  5
3E
330
17
100
AcDbEntity
  8
water
100
AcDbPolyline
 90
11
 70
1
 10
45.83586256016911
 20
95.75919790000007
 10
44.440957955504715
 20
95.6937044312505
 10
44.31243749612568
 20
95.80545784374874
 10
44.546017307939906
 20
96.32575785624988
 10
44.60492788961856
 20
98.38987986250513
 10
44.25778085142106
 20
99.66476411875023
 10
44.61266232047212
 20
99.23996850625772
 10
45.157681881384185
 20
99.05177841249983
 10
45.892323905409285
 20
97.70891359374964
 10
46.087231562937376
 20
95.97872537500896
 10
45.83586256016911
 20
95.75919790000007
  0
LWPOLYLINE
  5
3F
330
17
100
AcDbEntity
  8
water
100
AcDbPolyline
 90
12
 70
1
 10
10.473786877784267
 20
183.31716756249492
 10
10.342430460428645
 20
183.12367166874571
 10
9.388130600144061
 20
183.38630876875177
 10
8.931799179710598
 20
183.26195408124767
 10
7.521038991800975
 20
181.92107893749716
 10
6.940183234597677
 20
182.30807072499556
 10
6.884882053990125
 20
182.62608711250084
 10
7.521038991800975
 20
182.88872421249513
 10
8.83498988684033
 20
184.90675208125364
 10
10.114264750221073
 20
184.96213136875284
 10
10.307883335943293
 20
184.72701810625034
 10
10.473786877784267
 20
183.31716756249492
  0
LWPOLYLINE
  5
40
330
17
100
AcDbEntity
  8
water
100
AcDbPolyline
 90
45
 70
1
 10
23.382680881586722
 20
194.85512708125364
 10
22.350005455288837
 20
195.40145867500266
 10
20.932799908331525
 20
197.12136690625283
 10
21.155551516950762
 20
198.51745553125056
 10
23.24088298257421
 20
203.31240647500306
 10
27.12369617885868
 20
202.2437851937532
 10
25.288057922659522
 20
198.98735044375172
 10
24.95109455175408
 20
197.93166204999986
 10
24.682709801089665
 20
196.42282517500402
 10
24.7488391848922
 20
194.74387108749943
 10
25.11983405155332
 20
193.68984075625517
 10
26.050543897757436
 20
191.9002939000041
 10
28.228172904912274
 20
189.5594412625048
 10
29.287661024841945
 20
188.9288800937493
 10
34.662961561718966
 20
187.687654506247
 10
40.37264732588968
 20
187.37063295625336
 10
40.595398934508914
 20
186.90869674375094
 10
41.516440742132346
 20
186.67507573750407
 10
42.797391398857066
 20
186.85132778125205
 10
43.0561081109591
 20
187.0299011125036
 10
43.48756044546959
 20
186.89045805624988
 10
44.539443041718954
 20
187.1948783312494
 10
45.296901636766634
 20
185.12627955625075
 10
45.438699535760826
 20
185.23024007500217
 10
44.74981956097249
 20
187.47210638124926
 10
44.950270227298816
 20
188.41653878124694
 10
47.698958045903005
 20
191.42111383750049
 10
49.44565034725871
 20
194.23982008749968
 10
52.9101597414746
 20
193.0236312437454
 10
50.376231286271256
 20
189.11756760625124
 10
47.58448846925196
 20
185.52620423124714
 10
46.20247458268293
 20
184.75023098125064
 10
45.82503435697413
 20
184.6857323500009
 10
45.457391077000956
 20
185.07786413125046
 10
45.31056579793821
 20
185.00988356874538
 10
45.372570151958286
 20
184.4622255250044
 10
41.138098166155764
 20
183.88638041875214
 10
39.1741972649424
 20
183.98752223124418
 10
36.24851988695574
 20
184.56419636874438
 10
26.925823656144104
 20
187.26733566249789
 10
24.698694291526465
 20
188.50176319375325
 10
22.957416091740768
 20
191.0714284562521
 10
22.77527024511647
 20
192.30569018125553
 10
23.52434987340765
 20
194.0255984124939
 10
23.382680881586722
 20
194.85512708125364
  0
LWPOLYLINE
  5
41
330
17
100
AcDbEntity
  8
water
100
AcDbPolyline
 90
11
 70
1
 10
68.99622903322356
 20
213.78124729374434
 10
69.74414849688212
 20
214.25396091249308
 10
70.08665487656747
 20
214.28098733125262
 10
70.37502024027789
 20
214.21798095624675
 10
70.90676236153817
 20
213.71824091875027
 10
70.60034999250888
 20
212.12434543750004
 10
70.0234903579331
 20
212.05686229375078
 10
69.65855412876326
 20
212.24140465000139
 10
69.52784224731057
 20
212.68725765625433
 10
69.13132375882354
 20
213.08336878750328
 10
68.99622903322356
 20
213.78124729374434
  0
LWPOLYLINE
  5
42
330
17
100
AcDbEntity
  8
water
100
AcDbPolyline
 90
16
 70
1
 10
69.45771674089883
 20
221.26507819374865
 10
69.99435733503609
 20
219.78359935000444
 10
70.53654093795325
 20
219.291652206243
 10
71.00112241796995
 20
217.56710139999748
 10
70.86847692880846
 20
217.05857363125432
 10
70.33737934345112
 20
216.45619952499834
 10
67.85346687444024
 20
215.9697239875037
 10
66.50355087591808
 20
215.38376470000105
 10
66.12739972201516
 20
215.43914398750024
 10
66.19378692018253
 20
221.30371105000242
 10
66.96271825432814
 20
221.6021623000029
 10
67.48272982212565
 20
221.56352944374913
 10
68.01382740750131
 20
221.1156867624965
 10
68.37347844223777
 20
221.0273120312505
 10
68.90999012920174
 20
221.3645619437449
 10
69.45771674089883
 20
221.26507819374865
  0
LWPOLYLINE
  5
43
330
17
100
AcDbEntity
  8
water
100
AcDbPolyline
 90
9
 70
1
 10
84.62777160509292
 20
0.24402049375620227
 10
83.75442545439675
 20
0.06926070625210419
 10
83.16699543099081
 20
0.7288379687550298
 10
84.31027321850381
 20
2.2229180875051355
 10
85.37414418258078
 20
3.168676937506523
 10
85.69963481436997
 20
2.970041050006157
 10
85.69963481436997
 20
1.5235473250084306
 10
85.46940658926201
 20
1.0705646500046264
 10
84.62777160509292
 20
0.24402049375620227
  0
LWPOLYLINE
  5
44
330
17
100
AcDbEntity
  8
water
100
AcDbPolyline
 90
18
 70
1
 10
103.48495856493055
 20
25.359190600009228
 10
103.27135936614401
 20
25.49365946875195
 10
102.23881284703769
 20
25.454197581262047
 10
101.96978356047035
 20
25.600604500002905
 10
101.77990328299249
 20
25.252245568758273
 10
101.47529561449875
 20
25.26401781250447
 10
100.93336982592811
 20
25.556997456261687
 10
100.56933594704435
 20
26.11526710000885
 10
101.08367559887037
 20
26.527129825003374
 10
101.98963526634309
 20
26.812150768761835
 10
103.09333854930217
 20
26.7488127812521
 10
104.46993833428286
 20
25.774866868751193
 10
104.89326951640167
 20
25.93719118750134
 10
105.63706395025947
 20
25.695611481255728
 10
105.225592228795
 20
25.68383923750953
 10
105.47090259407199
 20
25.42252858750718
 10
104.83397221318494
 20
25.28391456250136
 10
103.48495856493055
 20
25.359190600009228
  0
LWPOLYLINE
  5
45
330
17
100
AcDbEntity
  8
water
100
AcDbPolyline
 90
10
 70
1
 10
105.45504701080843
 20
27.738510287510362
 10
106.10383685234983
 20
28.95005655625751
 10
106.28185766919167
 20
28.902470162505132
 10
106.9107958048603
 20
27.683131000011166
 10
108.16880098338918
 20
26.503253725007106
 10
108.27166891376903
 20
26.142956743752556
 10
107.10866832755656
 20
26.190543137504935
 10
105.91782379028957
 20
26.96253703750207
 10
104.67967031761515
 20
26.998185381256317
 10
105.45504701080843
 20
27.738510287510362
  0
LWPOLYLINE
  5
46
330
17
100
AcDbEntity
  8
water
100
AcDbPolyline
 90
8
 70
1
 10
129.20039427086692
 20
32.46697292500164
 10
134.30266939858575
 20
32.377105937511764
 10
134.2308680988117
 20
27.00116989375585
 10
133.35043205318323
 20
27.486650593750646
 10
132.21862700476817
 20
26.80336303750339
 10
131.7874324846042
 20
27.234956706254646
 10
129.43397408268117
 20
27.09103688125751
 10
129.20039427086692
 20
32.46697292500164
  0
LWPOLYLINE
  5
47
330
17
100
AcDbEntity
  8
water
100
AcDbPolyline
 90
18
 70
1
 10
101.75476638270467
 20
30.612098406252958
 10
101.590538634226
 20
30.308672968753264
 10
101.79240727953146
 20
30.245169175003376
 10
102.46311134182766
 20
30.763147900000945
 10
102.63919855096067
 20
31.174679012503375
 10
103.39472353828123
 20
32.0012231687518
 10
103.49591567529879
 20
32.4105988000026
 10
103.680897479918
 20
32.43049555001127
 10
103.7064211017256
 20
32.038695381253795
 10
102.75908222920006
 20
30.61143518125699
 10
101.51757716983766
 20
29.80561680625336
 10
99.81961178285025
 20
27.611668506250737
 10
99.71120084370878
 20
30.03111330626131
 10
100.97397558792305
 20
30.240692406259964
 10
100.69630952023437
 20
30.471660512511168
 10
100.43746390095906
 20
31.063588825001105
 10
101.53111242383598
 20
31.304339500010595
 10
101.75476638270467
 20
30.612098406252958
  0
LWPOLYLINE
  5
48
330
17
100
AcDbEntity
  8
water
100
AcDbPolyline
 90
8
 70
1
 10
76.09128027066956
 20
30.321440050011088
 10
75.22412166467456
 20
30.382622556257413
 10
76.99633758785617
 20
31.05247980625088
 10
81.20425469441008
 20
31.05247980625088
 10
82.17286325178749
 20
30.3373574500086
 10
82.18871883503272
 20
29.908416681253
 10
76.53588113764026
 20
29.733491087508746
 10
76.09128027066956
 20
30.321440050011088
  0
LWPOLYLINE
  5
49
330
17
100
AcDbEntity
  8
water
100
AcDbPolyline
 90
16
 70
1
 10
136.97736449534221
 20
30.95929669375759
 10
137.01745462860754
 20
30.391576093756015
 10
136.85232452986105
 20
30.195758912503244
 10
136.55029500497903
 20
30.241355631255935
 10
136.34971543147947
 20
29.97838691875777
 10
135.66521830082013
 20
29.72918012500549
 10
135.39541557117656
 20
29.203242700009167
 10
135.39541557117656
 20
28.566546700002664
 10
134.90453702625774
 20
28.407372700003982
 10
134.72471150888038
 20
28.566546700002664
 10
134.64865627215062
 20
34.677170237505656
 10
135.06347958032137
 20
34.961030537500555
 10
136.68165142231635
 20
35.01624401875959
 10
138.1434588538778
 20
34.712486968756025
 10
137.92637916121174
 20
32.255238343751365
 10
136.97736449534221
 20
30.95929669375759
  0
LWPOLYLINE
  5
4A
330
17
100
AcDbEntity
  8
water
100
AcDbPolyline
 90
26
 70
1
 10
107.71504770658578
 20
29.622732512510353
 10
109.27108628736912
 20
31.502477968755148
 10
110.25348791310968
 20
34.150403781261424
 10
109.3542314190678
 20
33.80237646250888
 10
109.36196584992138
 20
32.92476398125273
 10
108.29345422733226
 20
31.681051300006686
 10
106.15101688056572
 20
30.56733071875996
 10
105.83222942217073
 20
31.15395323125858
 10
105.57235254545438
 20
31.055795931254288
 10
105.23719387506617
 20
30.6147513062604
 10
105.2554986947682
 20
30.974550868759135
 10
105.78788535193142
 20
31.482747025010198
 10
107.01417936395151
 20
32.01332702500187
 10
107.60160938737576
 20
33.130529537503946
 10
108.92922444360501
 20
34.19881920626171
 10
109.22493751661257
 20
34.74581402500671
 10
110.07727179680339
 20
35.09251489375553
 10
110.63092813881849
 20
34.91825252500724
 10
110.65658066783598
 20
34.44736277500623
 10
110.37904350732055
 20
34.17544052500947
 10
110.49041931163018
 20
33.91860664375053
 10
110.25941764342768
 20
32.13370236250662
 10
109.29893023846026
 20
31.067568175000485
 10
109.15158933066783
 20
29.608970593752684
 10
107.87411916782264
 20
29.446148856258503
 10
107.71504770658578
 20
29.622732512510353
  0
LWPOLYLINE
  5
4B
330
17
100
AcDbEntity
  8
water
100
AcDbPolyline
 90
24
 70
1
 10
142.67647987068284
 20
29.957661137501194
 10
142.14254632733054
 20
29.899794756258274
 10
141.25630945855733
 20
30.34879808125092
 10
140.8516698176786
 20
31.084314606257685
 10
140.81312657058407
 20
33.35138346250477
 10
140.62285957154978
 20
33.55714901875598
 10
140.46623734675143
 20
33.51105488125926
 10
140.4276940996569
 20
30.957638631261776
 10
140.02318336595147
 20
30.63531128125326
 10
138.8560577499565
 20
30.555392668761822
 10
139.09286024130375
 20
32.53047671875154
 10
139.70388027882677
 20
33.13102695625976
 10
139.31148682012218
 20
33.71317270000319
 10
139.60191469873303
 20
34.89719513125857
 10
140.4111939804904
 20
34.99402598125914
 10
140.56962090584267
 20
33.964037556251284
 10
140.7610480694912
 20
34.07197742500208
 10
140.80410306792464
 20
34.99170469375557
 10
142.9324895319632
 20
35.002813712505805
 10
143.28479285740252
 20
34.871826775006646
 10
143.39487958990628
 20
34.66523218750752
 10
143.23799955074304
 20
31.77572666875563
 10
142.69581594780755
 20
31.136709381257347
 10
142.67647987068284
 20
29.957661137501194
  0
LWPOLYLINE
  5
4C
330
17
100
AcDbEntity
  8
water
100
AcDbPolyline
 90
5
 70
1
 10
121.86828272772719
 20
34.66755347501108
 10
121.76825075534224
 20
30.89977225000708
 10
116.15485865531213
 20
34.942957656251416
 10
121.31514201442346
 20
34.99982920000627
 10
121.86828272772719
 20
34.66755347501108
  0
LWPOLYLINE
  5
4D
330
17
100
AcDbEntity
  8
water
100
AcDbPolyline
 90
5
 70
1
 10
128.41186904523175
 20
34.92505058125421
 10
128.3799000643582
 20
31.359055562502043
 10
123.88967623162175
 20
31.61489460626114
 10
125.91906198073472
 20
34.95705118750117
 10
128.41186904523175
 20
34.92505058125421
  0
LWPOLYLINE
  5
4E
330
17
100
AcDbEntity
  8
water
100
AcDbPolyline
 90
5
 70
1
 10
122.76457435661924
 20
33.43660787501108
 10
122.80028164571885
 20
35.029508518761446
 10
125.64397405665777
 20
34.95788021876086
 10
125.26833853148452
 20
34.295650056250494
 10
122.76457435661924
 20
33.43660787501108
  0
LWPOLYLINE
  5
4F
330
17
100
AcDbEntity
  8
water
100
AcDbPolyline
 90
20
 70
1
 10
143.59107631925855
 20
36.54116410000488
 10
141.6060346403849
 20
36.12896976250648
 10
140.15286398994476
 20
36.51198220000551
 10
140.27609925489043
 20
36.86249661250177
 10
141.37245482857065
 20
36.87559530625169
 10
142.75421090077486
 20
37.28447351875846
 10
144.70689687723683
 20
38.492040437506226
 10
145.62806759203346
 20
38.53415522500357
 10
146.44211643951292
 20
39.28393108750025
 10
146.64656322843013
 20
39.17035380625426
 10
146.76657581386104
 20
38.35558189375203
 10
147.76251269359994
 20
38.39123023750628
 10
147.88355653647193
 20
38.253279437508205
 10
147.8768533630594
 20
37.081692475006776
 10
147.43611971152467
 20
36.606989181258335
 10
146.89122905780414
 20
36.3881249312572
 10
146.5447265555096
 20
36.36806237500838
 10
146.4908433538812
 20
36.502697050003036
 10
145.14853287903935
 20
36.36806237500838
 10
143.59107631925855
 20
36.54116410000488
  0
LWPOLYLINE
  5
50
330
17
100
AcDbEntity
  8
water
100
AcDbPolyline
 90
13
 70
1
 10
71.20672937151978
 20
41.5765341062512
 10
71.19938166222263
 20
39.31808717501062
 10
70.69561239920843
 20
39.1758254125093
 10
70.5667052182913
 20
38.909540575007725
 10
71.19770586886034
 20
38.53780296251085
 10
71.19835040476327
 20
37.72386008125653
 10
70.4732475121273
 20
38.30633743750384
 10
69.28730144773729
 20
38.48607141250716
 10
69.19809767854734
 20
38.74489496875401
 10
69.31823917115155
 20
42.15237921250347
 10
69.52062344518669
 20
42.302765481255484
 10
70.87414884476163
 20
41.84066346250114
 10
71.20672937151978
 20
41.5765341062512
  0
LWPOLYLINE
  5
51
330
17
100
AcDbEntity
  8
water
100
AcDbPolyline
 90
5
 70
1
 10
90.70793660719508
 20
51.46870078750408
 10
90.70832332875149
 20
52.93807577501001
 10
93.72964983497582
 20
53.06889690625724
 10
93.70283714134402
 20
51.30455260000618
 10
90.70793660719508
 20
51.46870078750408
  0
LWPOLYLINE
  5
52
330
17
100
AcDbEntity
  8
water
100
AcDbPolyline
 90
14
 70
1
 10
77.15940517172056
 20
72.66255308124961
 10
76.79910960106285
 20
73.18550599375818
 10
76.88637976254401
 20
73.72785823750783
 10
77.67129558712642
 20
74.00409145000785
 10
77.81103097123854
 20
74.37417100000891
 10
78.21219011823771
 20
74.59966750000508
 10
78.53871200748627
 20
75.32258275000595
 10
78.7622370591817
 20
75.32772274375712
 10
78.8286242573674
 20
74.4189386875019
 10
78.52801271146454
 20
73.57714035625195
 10
78.57802869765702
 20
72.81691870000101
 10
78.43403937658917
 20
72.70002529375161
 10
77.87329313962346
 20
72.80183033125141
 10
77.15940517172056
 20
72.66255308124961
  0
LWPOLYLINE
  5
53
330
17
100
AcDbEntity
  8
water
100
AcDbPolyline
 90
13
 70
1
 10
77.1748740334277
 20
136.46512969375073
 10
76.69856199994823
 20
137.14012693750715
 10
76.11048744063936
 20
137.12271728125398
 10
75.8566692014143
 20
136.7675602937506
 10
75.5898313369206
 20
136.75214031249712
 10
75.28406350379424
 20
137.16251078124776
 10
75.81825486151133
 20
137.907312456257
 10
79.03255541757325
 20
136.68929974375496
 10
79.03655154016413
 20
136.23714609999908
 10
78.78853412410213
 20
135.88978200625428
 10
78.28592502572056
 20
135.87038267500142
 10
77.80394107628791
 20
136.34027758750258
 10
77.1748740334277
 20
136.46512969375073
  0
LWPOLYLINE
  5
54
330
17
100
AcDbEntity
  8
water
100
AcDbPolyline
 90
15
 70
1
 10
106.19548985797829
 20
136.1109675437472
 10
106.0200471847482
 20
136.02292442500507
 10
105.52001622999667
 20
136.2364828750031
 10
104.79942508869958
 20
136.2487525375051
 10
104.21599118788454
 20
136.14097847500625
 10
103.89591465766534
 20
136.4201962000058
 10
104.04905638860252
 20
137.54369934999903
 10
104.32904278553814
 20
137.71398236874793
 10
104.63274810376409
 20
138.222178524999
 10
105.29185051977079
 20
138.0873780437524
 10
105.96706633340587
 20
137.44885817499815
 10
106.13451676139924
 20
137.0046632312528
 10
105.86484293892894
 20
136.84034923750295
 10
106.0783132305239
 20
136.69974553749745
 10
106.19548985797829
 20
136.1109675437472
  0
LWPOLYLINE
  5
55
330
17
100
AcDbEntity
  8
water
100
AcDbPolyline
 90
13
 70
1
 10
220.90973233795643
 20
24.15162368126146
 10
220.56168294950947
 20
23.868592412502686
 10
219.9599442289924
 20
24.202360393753526
 10
219.45243665775217
 20
24.85530540626142
 10
219.22762253423252
 20
25.305303568753907
 10
219.3508577991782
 20
26.277591418759002
 10
219.91147512897066
 20
27.225505750012015
 10
222.3090197867681
 20
28.207576168751835
 10
223.00498965652542
 20
26.771030818752553
 10
222.68594438376556
 20
26.233984375006
 10
221.9465327940551
 20
26.030871718750443
 10
221.43167751348108
 20
25.65349669375838
 10
220.90973233795643
 20
24.15162368126146
  0
LWPOLYLINE
  5
56
330
17
100
AcDbEntity
  8
water
100
AcDbPolyline
 90
36
 70
1
 10
155.27831696953473
 20
36.321305012503906
 10
154.66897272535567
 20
35.86998040000769
 10
153.8419042526259
 20
36.49158803125281
 10
153.31428716114812
 20
36.12034783749997
 10
152.27645544762674
 20
36.181861956250174
 10
152.01361370574222
 20
35.91889324375201
 10
151.25924888303598
 20
36.239894143756814
 10
149.99621632445684
 20
36.236578018753406
 10
149.81187905574058
 20
36.46207451876135
 10
149.81871113632639
 20
36.895823668752456
 10
150.61071685585944
 20
37.46636297500162
 10
150.14304160351958
 20
37.73961167500211
 10
149.6548701094041
 20
37.5721473625008
 10
149.07465888810378
 20
36.17158196875964
 10
148.7673441688067
 20
36.127311700010665
 10
148.45667786280336
 20
36.48595061875762
 10
148.38848596410043
 20
37.40484885625143
 10
148.51133450750797
 20
38.2177969000059
 10
148.93801727633308
 20
38.86676256250263
 10
148.91416944786943
 20
39.112819037503435
 10
147.50096002352132
 20
39.28691560001157
 10
147.81845841011045
 20
39.3757877500016
 10
147.79796216835308
 20
39.56033010625221
 10
148.0778196581154
 20
39.775380812505894
 10
148.84249705528697
 20
39.358709706252306
 10
151.92827715196984
 20
39.01714883125465
 10
152.5257619355129
 20
39.20152538125332
 10
153.43429974657903
 20
39.16852993750651
 10
156.5445722076468
 20
38.62203253750555
 10
157.3914923862493
 20
38.30517679375206
 10
157.4626491501021
 20
37.79051419375789
 10
157.95339878784762
 20
37.36273406875408
 10
157.83067915161337
 20
36.17489809375126
 10
157.37563680298575
 20
35.964987381260514
 10
157.00760680147448
 20
36.309532768757705
 10
155.27831696953473
 20
36.321305012503906
  0
LWPOLYLINE
  5
57
330
17
100
AcDbEntity
  8
water
100
AcDbPolyline
 90
10
 70
1
 10
143.11012362726694
 20
47.62829642499965
 10
143.07622103868454
 20
48.65778743125169
 10
143.750276687687
 20
50.8190718999996
 10
144.820077382082
 20
51.39508281250381
 10
145.21956073571886
 20
51.286811331260914
 10
145.18101748864262
 20
50.763526806260245
 10
144.71875633787283
 20
49.540539906259
 10
144.77044811742758
 20
48.434612218759085
 10
145.05868457394644
 20
47.54290620625318
 10
143.11012362726694
 20
47.62829642499965
  0
LWPOLYLINE
  5
58
330
17
100
AcDbEntity
  8
water
100
AcDbPolyline
 90
17
 70
1
 10
218.0143481474811
 20
53.84337790000987
 10
218.1632359414442
 20
53.68735421875088
 10
218.07815720203666
 20
53.55271954375622
 10
212.38742079345263
 20
53.54558987500537
 10
209.30460556191957
 20
53.68735421875088
 10
208.78021114997478
 20
53.8788604375004
 10
208.65968293581415
 20
54.15542526250429
 10
208.73058188532042
 20
57.6723416312602
 10
210.0415679152099
 20
58.06231793125815
 10
212.47237062566853
 20
57.89933038750025
 10
212.84800615086016
 20
58.097800468760454
 10
213.11020335684168
 20
57.920553587500855
 10
217.14267779014716
 20
57.80001244375595
 10
218.07815720203666
 20
57.59441269375668
 10
218.31908472316638
 20
56.91361223125314
 10
218.25527566861075
 20
54.18377813125575
 10
218.0143481474811
 20
53.84337790000987
  0
LWPOLYLINE
  5
59
330
17
100
AcDbEntity
  8
water
100
AcDbPolyline
 90
8
 70
1
 10
178.200076250743
 20
83.99308898124953
 10
177.39569544184428
 20
84.18625326250664
 10
177.37249214928357
 20
87.047571718759
 10
177.48012964533052
 20
87.23344052500155
 10
178.84061603270118
 20
86.68810376875237
 10
178.83816679626267
 20
84.2817576625035
 10
178.73800591668612
 20
84.11047980625474
 10
178.200076250743
 20
83.99308898124953
  0
LWPOLYLINE
  5
5A
330
17
100
AcDbEntity
  8
water
100
AcDbPolyline
 90
55
 70
1
 10
157.7737021776435
 20
151.24957558750071
 10
157.3587499622812
 20
150.18493365625022
 10
156.76410113673307
 20
149.2585741375017
 10
156.16249132342585
 20
148.9750454499989
 10
154.94534972123847
 20
149.72167099375588
 10
154.0672340048569
 20
149.41061846874953
 10
152.91235457105444
 20
149.9775100375032
 10
152.1378802281472
 20
149.72167099375588
 10
151.47400824643682
 20
150.0328893250024
 10
150.84468338921175
 20
149.91533269375702
 10
150.18777239529703
 20
150.67572015624813
 10
150.13943220244852
 20
151.04215196875367
 10
150.049454990164
 20
150.68268401874704
 10
150.66498677902592
 20
149.65949364999793
 10
151.14903324335899
 20
149.49368740000423
 10
152.33845980164682
 20
148.4980208687469
 10
152.28302971384767
 20
147.39192737500682
 10
151.85428443012222
 20
146.88721314999933
 10
150.0080757850929
 20
146.1959668937533
 10
149.5654085258493
 20
145.70501458750348
 10
149.1643782860234
 20
145.70501458750348
 10
148.88774347577578
 20
146.05768448125136
 10
148.35535681861256
 20
146.2097288124992
 10
147.48394427564347
 20
145.88474856250681
 10
147.02761285521
 20
145.99534133125326
 10
146.5228123347548
 20
147.00476978125647
 10
146.5020582786326
 20
148.21465798749603
 10
146.81324021334729
 20
148.4565693062573
 10
147.53241337566527
 20
148.39439196249936
 10
148.085554088969
 20
148.68471870624913
 10
147.00685879908787
 20
148.91286810625274
 10
146.70263785213217
 20
149.34844112500338
 10
146.82703328171044
 20
149.73559871875372
 10
146.61962162762507
 20
149.92229655625596
 10
146.47434323473306
 20
150.5583293312547
 10
146.4605501663699
 20
151.59528161874968
 10
146.61962162762507
 20
152.14144740624678
 10
147.12442214808027
 20
152.735862812504
 10
148.1478162573356
 20
152.42481028749765
 10
148.90153654413893
 20
151.51917655000568
 10
149.04681493703094
 20
151.65049509999696
 10
149.03985394925354
 20
152.36263294375146
 10
149.37875092788613
 20
152.92952451250514
 10
149.67613979423766
 20
153.07460498125405
 10
150.74104201577398
 20
153.0263553625057
 10
150.71332697187444
 20
153.84195630625584
 10
151.41870706582927
 20
154.31898088749608
 10
151.28735064847365
 20
154.70613848124643
 10
151.5708175393071
 20
154.87211053750386
 10
156.26613269686362
 20
155.02415486875168
 10
156.73638609283347
 20
154.85818281250604
 10
157.12362326429627
 20
154.46422716249694
 10
157.62159170416567
 20
153.19912547499834
 10
157.8705114705138
 20
152.15520932500445
 10
157.7737021776435
 20
151.24957558750071
  0
LWPOLYLINE
  5
5B
330
17
100
AcDbEntity
  8
water
100
AcDbPolyline
 90
21
 70
1
 10
223.26937828458063
 20
158.3402798687556
 10
223.6669280305087
 20
158.47159841874688
 10
222.8579065630978
 20
156.70543024374805
 10
223.11378731720492
 20
155.41960277500468
 10
223.80524543562336
 20
154.95650591875048
 10
223.3074059029455
 20
154.45179169375476
 10
223.05848613659742
 20
153.94707746874727
 10
222.9201687314827
 20
152.99302830625504
 10
222.59519372840492
 20
152.45382638125685
 10
222.28053129979236
 20
152.25336662499694
 10
220.57251115270446
 20
153.21786158125522
 10
221.42652122623923
 20
154.43106591249818
 10
221.68923406095047
 20
155.35742543124672
 10
221.4645488446224
 20
156.72615602500463
 10
222.60898679674972
 20
157.98081191874897
 10
222.97895040596984
 20
158.02922734374926
 10
222.69883510186094
 20
158.38521336250056
 10
222.6677684712551
 20
158.69974781875047
 10
222.88897319370363
 20
159.2701213187477
 10
223.25558521621747
 20
158.7930967374957
 10
223.26937828458063
 20
158.3402798687556
  0
LWPOLYLINE
  5
5C
330
17
100
AcDbEntity
  8
water
100
AcDbPolyline
 90
17
 70
1
 10
172.05339514326357
 20
160.8240574937522
 10
172.30231490961165
 20
160.64432351874888
 10
172.6965130688518
 20
159.90466183750257
 10
172.53744160759658
 20
159.24790328124726
 10
172.91784669847357
 20
158.4530281187537
 10
172.6134968443447
 20
157.4368016125035
 10
172.03264108714137
 20
156.32374425625275
 10
171.43799226159325
 20
155.4665259437493
 10
171.20982655136737
 20
155.43203824374683
 10
171.11984933910122
 20
155.66715150624935
 10
172.21942759227784
 20
157.62349945000574
 10
172.46834735862592
 20
157.72016449375437
 10
172.5927427882042
 20
158.238640637496
 10
172.05339514326357
 20
159.4415649812484
 10
171.8044753769338
 20
160.58894423124968
 10
171.79751438915645
 20
160.76188015000602
 10
172.05339514326357
 20
160.8240574937522
  0
LWPOLYLINE
  5
5D
330
17
100
AcDbEntity
  8
water
100
AcDbPolyline
 90
12
 70
1
 10
237.0165556858459
 20
164.72763403750267
 10
235.72696824799982
 20
162.97522778124974
 10
235.0700572540668
 20
163.86013573749688
 10
234.05349522537898
 20
164.45106921249877
 10
233.66625805391624
 20
164.4960027062555
 10
233.21675871406853
 20
164.23684753750476
 10
233.40006472534378
 20
164.88316030000584
 10
232.83983411708942
 20
165.61237618749786
 10
233.09223437731703
 20
165.69876124375597
 10
234.84872362442667
 20
164.81401909374898
 10
236.2282882745572
 20
164.4960027062555
 10
237.0165556858459
 20
164.72763403750267
  0
LWPOLYLINE
  5
5E
330
17
100
AcDbEntity
  8
water
100
AcDbPolyline
 90
10
 70
1
 10
194.5981009203012
 20
197.03763475000216
 10
194.48195555030617
 20
197.2752351062484
 10
194.62014404822924
 20
198.67944823749684
 10
194.91340788481665
 20
198.80662163124856
 10
195.8483716679765
 20
198.59107350625084
 10
196.78874955272465
 20
197.9553723437442
 10
197.09309940687183
 20
197.54616251874532
 10
196.9159809402978
 20
197.2145500187461
 10
196.23006583065933
 20
196.9933644812532
 10
194.5981009203012
 20
197.03763475000216
  0
LWPOLYLINE
  5
5F
330
17
100
AcDbEntity
  8
water
100
AcDbPolyline
 90
8
 70
1
 10
162.15693305023592
 20
206.0256599499952
 10
162.9729155054058
 20
205.9911722500045
 10
164.02402465857898
 20
204.2636369312477
 10
163.91342229734556
 20
204.09783068125398
 10
161.921806352251
 20
203.97347599374984
 10
161.78361785430957
 20
204.08390295624437
 10
161.921806352251
 20
205.3622691437448
 10
162.15693305023592
 20
206.0256599499952
  0
LWPOLYLINE
  5
60
330
17
100
AcDbEntity
  8
water
100
AcDbPolyline
 90
26
 70
1
 10
234.06380779986262
 20
210.65182013125442
 10
233.81140753963496
 20
211.21838008750422
 10
233.61095687330868
 20
211.28238129999815
 10
233.2928139508166
 20
211.84380126249678
 10
232.23487271705767
 20
212.93895154375033
 10
231.86826069454384
 20
212.9147438312502
 10
231.3946557118677
 20
212.1823776249949
 10
231.0350046771312
 20
212.20658533749506
 10
231.06620021491034
 20
211.7953858374965
 10
230.4886960444133
 20
211.3876682687533
 10
230.018571555635
 20
211.53291454375415
 10
230.08418531070782
 20
212.38963543750177
 10
230.71699066181247
 20
212.4345689312467
 10
230.3780936831982
 20
212.63486288125466
 10
230.39536724544087
 20
213.06678816249803
 10
231.0765127893756
 20
214.3347085562442
 10
231.02469210264763
 20
214.71821841249906
 10
233.31704850081832
 20
214.73198033124496
 10
233.3550761192015
 20
214.1274507437491
 10
234.3889117101137
 20
211.9301863187431
 10
235.17202283416054
 20
211.10264732499482
 10
235.06309626628945
 20
210.80220639999467
 10
234.44588868408357
 20
211.35318056875082
 10
234.19181263049364
 20
211.18571625624952
 10
234.2384770299982
 20
210.56891700625167
 10
234.06380779986262
 20
210.65182013125442
  0
LWPOLYLINE
  5
61
330
17
100
AcDbEntity
  8
water
100
AcDbPolyline
 90
11
 70
1
 10
223.3331873391179
 20
234.48663437499553
 10
223.62632226851372
 20
235.17738321249752
 10
223.8254838630342
 20
235.41514937499568
 10
224.0579035102158
 20
235.40404035624547
 10
225.1476848176568
 20
234.3374087499953
 10
225.29154523155137
 20
233.97810660625237
 10
224.52261389740573
 20
233.53042973125167
 10
224.0689895277756
 20
233.64102249999812
 10
223.64295129485345
 20
232.91694660624546
 10
223.4382466915714
 20
232.84515249999293
 10
223.3331873391179
 20
234.48663437499553
  0
ENDSEC
  0
SECTION
  2
OBJECTS
  0
DICTIONARY
  5
A
330
0
100
AcDbDictionary
281
1
  3
ACAD_COLOR
350
B
  3
ACAD_GROUP
350
C
  3
ACAD_LAYOUT
350
D
  3
ACAD_MATERIAL
350
E
  3
ACAD_MLEADERSTYLE
350
F
  3
ACAD_MLINESTYLE
350
10
  3
ACAD_PLOTSETTINGS
350
11
  3
ACAD_PLOTSTYLENAME
350
12
  3
ACAD_SCALELIST
350
14
  3
ACAD_TABLESTYLE
350
15
  3
ACAD_VISUALSTYLE
350
16
  3
EZDXF_META
350
2D
  0
DICTIONARY
  5
B
330
A
100
AcDbDictionary
281
1
  0
DICTIONARY
  5
C
330
A
100
AcDbDictionary
281
1
  0
DICTIONARY
  5
D
330
A
100
AcDbDictionary
281
1
  3
Model
350
1A
  3
Layout1
350
1E
  0
DICTIONARY
  5
E
330
A
100
AcDbDictionary
281
1
  3
ByBlock
350
1F
  3
ByLayer
350
20
  3
Global
350
21
  0
DICTIONARY
  5
F
330
A
100
AcDbDictionary
281
1
  3
Standard
350
2C
  0
DICTIONARY
  5
10
330
A
100
AcDbDictionary
281
1
  3
Standard
350
22
  0
DICTIONARY
  5
11
330
A
100
AcDbDictionary
281
1
  0
ACDBDICTIONARYWDFLT
  5
12
330
A
100
AcDbDictionary
281
1
  3
Normal
350
13
100
AcDbDictionaryWithDefault
340
13
  0
ACDBPLACEHOLDER
  5
13
330
12
  0
DICTIONARY
  5
14
330
A
100
AcDbDictionary
281
1
  0
DICTIONARY
  5
15
330
A
100
AcDbDictionary
281
1
  0
DICTIONARY
  5
16
330
A
100
AcDbDictionary
281
1
  0
LAYOUT
  5
1A
330
D
100
AcDbPlotSettings
  1

  4
A3
  6

 40
7.5
 41
20.0
 42
7.5
 43
20.0
 44
420.0
 45
297.0
 46
0.0
 47
0.0
 48
0.0
 49
0.0
140
0.0
141
0.0
142
1.0
143
1.0
 70
1024
 72
1
 73
0
 74
5
  7

 75
16
 76
0
 77
2
 78
300
147
1.0
148
0.0
149
0.0
100
AcDbLayout
  1
Model
 70
1
 71
0
 10
0.0
 20
0.0
 11
420.0
 21
297.0
 12
0.0
 22
0.0
 32
0.0
 14
1e+20
 24
1e+20
 34
1e+20
 15
-1e+20
 25
-1e+20
 35
-1e+20
146
0.0
 13
0.0
 23
0.0
 33
0.0
 16
1.0
 26
0.0
 36
0.0
 17
0.0
 27
1.0
 37
0.0
 76
1
330
17
  0
LAYOUT
  5
1E
330
D
100
AcDbPlotSettings
  1

  4
A3
  6

 40
7.5
 41
20.0
 42
7.5
 43
20.0
 44
420.0
 45
297.0
 46
0.0
 47
0.0
 48
0.0
 49
0.0
140
0.0
141
0.0
142
1.0
143
1.0
 70
0
 72
1
 73
0
 74
5
  7

 75
16
 76
0
 77
2
 78
300
147
1.0
148
0.0
149
0.0
100
AcDbLayout
  1
Layout1
 70
1
 71
1
 10
0.0
 20
0.0
 11
420.0
 21
297.0
 12
0.0
 22
0.0
 32
0.0
 14
1e+20
 24
1e+20
 34
1e+20
 15
-1e+20
 25
-1e+20
 35
-1e+20
146
0.0
 13
0.0
 23
0.0
 33
0.0
 16
1.0
 26
0.0
 36
0.0
 17
0.0
 27
1.0
 37
0.0
 76
1
330
1B
  0
MATERIAL
  5
1F
102
{ACAD_REACTORS
330
E
102
}
330
E
100
AcDbMaterial
  1
ByBlock
  2

 70
0
 40
1.0
 71
1
 41
1.0
 91
-1023410177
 42
1.0
 72
1
  3

 73
1
 74
1
 75
1
 44
0.5
 73
0
 45
1.0
 46
1.0
 77
1
  4

 78
1
 79
1
170
1
 48
1.0
171
1
  6

172
1
173
1
174
1
140
1.0
141
1.0
175
1
  7

176
1
177
1
178
1
143
1.0
179
1
  8

270
1
271
1
272
1
145
1.0
146
1.0
273
1
  9

274
1
275
1
276
1
 42
1.0
 72
1
  3

 73
1
 74
1
 75
1
 94
63
  0
MATERIAL
  5
20
102
{ACAD_REACTORS
330
E
102
}
330
E
100
AcDbMaterial
  1
ByLayer
  2

 70
0
 40
1.0
 71
1
 41
1.0
 91
-1023410177
 42
1.0
 72
1
  3

 73
1
 74
1
 75
1
 44
0.5
 73
0
 45
1.0
 46
1.0
 77
1
  4

 78
1
 79
1
170
1
 48
1.0
171
1
  6

172
1
173
1
174
1
140
1.0
141
1.0
175
1
  7

176
1
177
1
178
1
143
1.0
179
1
  8

270
1
271
1
272
1
145
1.0
146
1.0
273
1
  9

274
1
275
1
276
1
 42
1.0
 72
1
  3

 73
1
 74
1
 75
1
 94
63
  0
MATERIAL
  5
21
102
{ACAD_REACTORS
330
E
102
}
330
E
100
AcDbMaterial
  1
Global
  2

 70
0
 40
1.0
 71
1
 41
1.0
 91
-1023410177
 42
1.0
 72
1
  3

 73
1
 74
1
 75
1
 44
0.5
 73
0
 45
1.0
 46
1.0
 77
1
  4

 78
1
 79
1
170
1
 48
1.0
171
1
  6

172
1
173
1
174
1
140
1.0
141
1.0
175
1
  7

176
1
177
1
178
1
143
1.0
179
1
  8

270
1
271
1
272
1
145
1.0
146
1.0
273
1
  9

274
1
275
1
276
1
 42
1.0
 72
1
  3

 73
1
 74
1
 75
1
 94
63
  0
MLINESTYLE
  5
22
102
{ACAD_REACTORS
330
10
102
}
330
10
100
AcDbMlineStyle
  2
Standard
 70
0
  3

 62
256
 51
90.0
 52
90.0
 71
2
 49
0.5
 62
256
  6
BYLAYER
 49
-0.5
 62
256
  6
BYLAYER
  0
MLEADERSTYLE
  5
2C
102
{ACAD_REACTORS
330
F
102
}
330
F
100
AcDbMLeaderStyle
179
2
170
2
171
1
172
0
 90
2
 40
0.0
 41
0.0
173
1
 91
-1056964608
 92
-2
290
1
 42
2.0
291
1
 43
8.0
  3
Standard
 44
4.0
300

342
29
174
1
175
1
176
0
178
1
 93
-1056964608
 45
4.0
292
0
297
0
 46
4.0
 94
-1056964608
 47
1.0
 49
1.0
140
1.0
294
1
141
0.0
177
0
142
1.0
295
0
296
0
143
3.75
271
0
272
9
273
9
  0
DICTIONARY
  5
2D
330
A
100
AcDbDictionary
280
1
281
1
  3
CREATED_BY_EZDXF
350
2E
  3
WRITTEN_BY_EZDXF
350
64
  0
DICTIONARYVAR
  5
2E
330
2D
100
DictionaryVariables
280
0
  1
1.4.3 @ 2026-04-06T15:27:11.077610+00:00
  0
DICTIONARYVAR
  5
64
330
2D
100
DictionaryVariables
280
0
  1
1.4.3 @ 2026-04-06T15:27:11.093872+00:00
  0
ENDSEC
  0
EOF
